<svg width="267" height="194" viewBox="0 0 267 194" fill="none" xmlns="http://www.w3.org/2000/svg">
<g filter="url(#filter0_d_0_2875)">
<path d="M92.0553 8.00631C121.49 8.40483 151.377 6.75641 180.613 10.8865C215.584 15.8499 247.032 30.6696 246.001 66.5C244.09 132.605 194 133 106.747 136.707C98.1169 145.166 77.9598 160.551 53.5002 162C53.5002 162 65.7323 149.498 66.1484 127.073C47.0002 123 28.8912 104.567 23.0002 85.5C11.4276 48.0434 50.3819 7.44168 92.0553 8.00631Z" fill="white"/>
</g>
<path d="M53.2 66.224C52.5467 66.1493 52.08 65.8133 51.8 65.216C51.688 64.992 51.6133 64.824 51.576 64.712C51.3893 64.3387 51.2493 64.012 51.156 63.732C51.0627 63.452 51.016 63.1627 51.016 62.864L51.044 62.556C51.0627 62.3507 51.1187 62.1733 51.212 62.024C51.3053 61.8747 51.4267 61.7813 51.576 61.744C51.7813 61.7067 51.9867 61.7627 52.192 61.912C52.416 62.0427 52.556 62.2107 52.612 62.416C52.6867 62.6027 52.7613 62.864 52.836 63.2C52.948 63.704 53.0973 64.1893 53.284 64.656C53.396 64.8987 53.5827 65.02 53.844 65.02C53.9187 65.02 54.0307 65.0013 54.18 64.964C54.852 64.684 55.3093 64.264 55.552 63.704C56 62.6213 56.224 61.576 56.224 60.568C56.224 60.176 56.1773 59.7187 56.084 59.196C56.0653 59.0093 56.0467 58.832 56.028 58.664C56.0093 58.4773 55.9907 58.2907 55.972 58.104C55.8787 57.4693 55.664 56.9653 55.328 56.592C54.992 56.2187 54.5067 55.948 53.872 55.78C53.816 55.7613 53.6667 55.7333 53.424 55.696C53.1813 55.64 52.976 55.5467 52.808 55.416C52.6587 55.2667 52.584 55.0893 52.584 54.884C52.5467 54.3613 52.9667 54.0067 53.844 53.82C54.3293 53.6893 54.7213 53.4 55.02 52.952C55.7293 52.2987 56.084 51.3467 56.084 50.096C56.084 49.3493 55.9627 48.584 55.72 47.8C55.608 47.3707 55.356 47.044 54.964 46.82C54.572 46.5773 54.152 46.456 53.704 46.456C53.0693 46.456 52.5373 46.7267 52.108 47.268C52.0333 47.3613 51.9027 47.5573 51.716 47.856C51.3987 48.3787 51.1747 48.6867 51.044 48.78C50.8947 48.9293 50.7453 49.004 50.596 49.004C50.372 49.004 50.1947 48.948 50.064 48.836C49.952 48.7053 49.8867 48.5653 49.868 48.416C49.8493 48.3413 49.84 48.2293 49.84 48.08C49.84 47.464 50.0173 46.904 50.372 46.4C50.7453 45.896 51.212 45.4947 51.772 45.196C52.3507 44.8973 52.92 44.748 53.48 44.748C54.1333 44.748 54.8147 44.9253 55.524 45.28C56.5133 45.7653 57.12 46.54 57.344 47.604C57.4747 48.1827 57.54 48.7707 57.54 49.368C57.54 50.1893 57.4187 51.0293 57.176 51.888C56.952 52.7467 56.4667 53.568 55.72 54.352L55.16 54.604C55.776 54.7347 56.3267 55.1827 56.812 55.948C57.2973 56.7133 57.54 57.4787 57.54 58.244C57.54 58.5613 57.568 58.8787 57.624 59.196C57.6613 59.532 57.68 59.7653 57.68 59.896C57.6987 60.0827 57.708 60.3533 57.708 60.708C57.708 61.772 57.5587 62.752 57.26 63.648C56.7 65.4213 55.636 66.308 54.068 66.308C53.8067 66.308 53.5173 66.28 53.2 66.224ZM70.9723 69.444C70.823 69.4813 70.711 69.5 70.6363 69.5C70.4123 69.5 70.2537 69.36 70.1603 69.08C70.0857 68.856 70.0483 68.576 70.0483 68.24L70.0763 66.308C70.0763 66.196 70.067 66.0933 70.0483 66C70.0297 65.9067 70.011 65.8133 69.9923 65.72H66.7723C66.959 65.72 66.511 65.8133 65.4283 66C64.3643 66.168 63.5337 66.28 62.9363 66.336L61.6763 66.448L60.2763 66.588C60.2763 66.756 60.2763 66.9613 60.2763 67.204C60.295 67.4467 60.295 67.736 60.2763 68.072V68.212C60.2763 68.5107 60.2017 68.7347 60.0523 68.884C59.903 69.0333 59.763 69.108 59.6323 69.108C59.5577 69.108 59.4457 69.0707 59.2963 68.996C58.9603 68.7533 58.7737 68.4173 58.7363 67.988L58.6523 65.944C58.615 65.216 58.9137 64.852 59.5483 64.852C59.903 64.8333 60.183 64.74 60.3883 64.572C60.5937 64.404 60.8363 64.1427 61.1163 63.788C61.3963 63.4147 61.611 63.004 61.7603 62.556C61.9283 62.0893 62.087 61.5293 62.2363 60.876C62.4043 60.1667 62.5257 59.476 62.6003 58.804C62.675 58.132 62.7683 57.1707 62.8803 55.92C63.0483 53.96 63.1323 51.9907 63.1323 50.012L63.1043 48.444C63.1043 48.0893 63.207 47.8 63.4123 47.576C63.6177 47.3333 63.8977 47.212 64.2523 47.212C64.3643 47.212 64.4483 47.2213 64.5043 47.24C65.363 47.3893 66.063 47.4827 66.6043 47.52H66.7443C66.987 47.52 67.127 47.4733 67.1643 47.38C67.3323 47.156 67.5377 47.044 67.7803 47.044C67.9483 47.044 68.0977 47.0813 68.2283 47.156C68.527 47.268 68.723 47.548 68.8163 47.996L68.6763 52.784C68.6763 55.3787 68.6857 57.32 68.7043 58.608C68.7043 59.28 68.723 60.3067 68.7603 61.688L68.7883 63.228C68.7883 63.3773 68.7977 63.5173 68.8163 63.648C68.835 63.7787 68.8537 63.9093 68.8723 64.04C69.2457 64.0773 69.5257 64.096 69.7123 64.096C69.8617 64.096 69.9737 64.0867 70.0483 64.068C70.459 64.012 70.823 64.1147 71.1403 64.376C71.4763 64.6187 71.6443 64.936 71.6443 65.328C71.6443 65.832 71.607 66.588 71.5323 67.596C71.5323 67.8573 71.5137 68.2307 71.4763 68.716C71.439 69.108 71.271 69.3507 70.9723 69.444ZM62.9083 64.992C63.9537 64.8987 64.775 64.8147 65.3723 64.74C65.9883 64.6467 66.595 64.5067 67.1923 64.32C67.379 62.0613 67.4723 59.644 67.4723 57.068C67.4723 54.6787 67.379 52.056 67.1923 49.2C66.707 49.1813 65.8017 49.1347 64.4763 49.06L64.4483 50.376C64.299 53.2507 64.1963 55.3973 64.1403 56.816C64.0657 58.944 63.7017 61.0347 63.0483 63.088C63.011 63.2 62.927 63.48 62.7963 63.928C62.6843 64.3573 62.507 64.7307 62.2643 65.048L62.9083 64.992ZM73.9646 66.196C73.722 65.2067 73.6006 63.8347 73.6006 62.08L73.6566 59.588C73.694 58.8413 73.7126 58.0107 73.7126 57.096C73.6006 56.8347 73.5446 56.6013 73.5446 56.396V56.312C73.7313 55.9573 73.8246 55.1547 73.8246 53.904L73.8526 52.616C73.8713 52.2053 73.8806 51.748 73.8806 51.244C73.8806 50.1427 73.806 49.2747 73.6566 48.64C73.7126 48.3787 73.806 48.1547 73.9366 47.968C74.0673 47.7627 74.226 47.66 74.4126 47.66H75.6446C76.1673 47.66 76.6246 47.7813 77.0166 48.024C77.4086 48.248 77.7073 48.5747 77.9126 49.004C78.286 49.7693 78.4726 50.6747 78.4726 51.72C78.4726 52.4667 78.4633 53.0547 78.4446 53.484C78.4073 54.0253 78.314 54.52 78.1646 54.968C78.1086 55.2107 78.0246 55.416 77.9126 55.584C77.8193 55.7333 77.6793 55.92 77.4926 56.144C77.2313 56.4613 76.802 56.76 76.2046 57.04C75.962 57.1707 75.6446 57.292 75.2526 57.404L75.2526 60.4L75.3086 62.192L75.3646 63.06C75.4393 64.1053 75.4766 64.992 75.4766 65.72C75.4766 65.944 75.3833 66.1307 75.1966 66.28C75.01 66.448 74.7953 66.532 74.5526 66.532L73.9646 66.196ZM75.2806 56.256C76.382 56.088 76.9326 54.5107 76.9326 51.524C76.9326 50.9827 76.9046 50.5627 76.8486 50.264C76.7926 50.04 76.718 49.8627 76.6246 49.732C76.5313 49.5827 76.3913 49.4613 76.2046 49.368C75.9993 49.256 75.7753 49.2 75.5326 49.2C75.5326 49.1813 75.43 49.172 75.2246 49.172L75.2246 50.768C75.2246 51.8693 75.234 52.8493 75.2526 53.708C75.2526 54.6787 75.262 55.3133 75.2806 55.612V56.2V56.256ZM86.7396 66.252C86.3103 66.252 85.993 66.1867 85.7876 66.056C85.5823 65.9253 85.4796 65.6827 85.4796 65.328C85.4796 64.768 85.3863 63.816 85.1996 62.472L85.0876 61.884L82.3156 61.464C82.2036 61.8933 82.045 62.7613 81.8396 64.068C81.7276 64.9827 81.5503 65.5893 81.3076 65.888C81.177 66.056 80.9903 66.14 80.7476 66.14C80.5236 66.14 80.3183 66.0747 80.1316 65.944C79.945 65.7947 79.8516 65.6173 79.8516 65.412L79.9076 65.272L79.9356 65.16C81.1676 60.3627 82.101 55.6307 82.7356 50.964C82.7356 50.8893 82.745 50.768 82.7636 50.6C82.7823 50.4133 82.801 50.152 82.8196 49.816C82.8756 49.1253 82.9316 48.5747 82.9876 48.164C83.0623 47.7533 83.1743 47.4453 83.3236 47.24H84.2756C84.537 47.24 84.761 47.3053 84.9476 47.436C85.1343 47.548 85.2276 47.716 85.2276 47.94C85.2276 49.3587 85.4236 51.468 85.8156 54.268C86.189 57.1427 86.3756 59.1587 86.3756 60.316C86.3756 60.428 86.4223 60.7173 86.5156 61.184C86.609 61.6133 86.6556 61.8933 86.6556 62.024C86.6556 62.1547 86.749 62.7147 86.9356 63.704C87.1036 64.6 87.1876 65.1787 87.1876 65.44V65.468C87.1876 65.8787 87.0383 66.14 86.7396 66.252ZM84.8916 60.876C84.8356 60.596 84.8076 60.2507 84.8076 59.84C84.8076 58.16 84.6583 56.0133 84.3596 53.4L84.0796 50.488C83.277 54.8747 82.7263 58.188 82.4276 60.428C82.7076 60.6147 83.529 60.764 84.8916 60.876ZM90.4028 66.28C89.9921 66.28 89.7401 66.1027 89.6468 65.748C89.5721 65.524 89.5348 65.2067 89.5348 64.796C89.5348 63.9933 89.5721 63.004 89.6468 61.828C89.7401 60.708 89.7868 59.7093 89.7868 58.832C89.7868 57.8427 89.8148 56.3587 89.8708 54.38L89.9268 49.956C89.9268 49.788 89.8988 49.536 89.8428 49.2L89.7588 48.5V48.36C89.7588 47.9307 89.8241 47.6133 89.9548 47.408C90.0855 47.2027 90.3281 47.1 90.6828 47.1C91.1681 47.1 91.7001 47.24 92.2788 47.52C92.8575 47.8 93.2775 48.1547 93.5388 48.584C94.0801 49.48 94.3508 50.6 94.3508 51.944C94.3508 52.952 94.2668 53.8013 94.0988 54.492C93.9308 55.164 93.6415 55.7893 93.2308 56.368C93.7348 56.8533 94.0708 57.4787 94.2388 58.244C94.4255 58.9907 94.5188 59.9333 94.5188 61.072C94.5188 62.2107 94.3228 63.2 93.9308 64.04C93.4828 64.992 92.8295 65.6453 91.9708 66C91.4481 66.1867 90.9255 66.28 90.4028 66.28ZM91.2988 55.556C92.2695 55.5373 92.7548 54.408 92.7548 52.168C92.7548 49.76 92.3721 48.5 91.6068 48.388C91.4015 48.8173 91.2988 49.8253 91.2988 51.412L91.2988 55.556ZM91.1308 64.852C91.7281 64.7213 92.1948 64.3667 92.5308 63.788C92.8668 63.2093 93.0348 62.5467 93.0348 61.8C93.0348 61.016 92.9881 60.3253 92.8948 59.728C92.8201 59.2613 92.7175 58.8787 92.5868 58.58C92.4748 58.2627 92.3161 57.9733 92.1108 57.712C91.8868 57.432 91.6255 57.264 91.3268 57.208C91.2521 58.272 91.2148 59.6813 91.2148 61.436C91.2148 61.548 91.1961 61.9027 91.1588 62.5L91.1028 63.452C91.1028 63.4893 91.1121 63.5173 91.1308 63.536V63.592V64.852ZM101.327 66.392C100.917 66.392 100.478 66.3267 100.011 66.196C99.5632 66.084 99.2179 65.9533 98.9752 65.804C97.7245 65.0013 97.0992 62.808 97.0992 59.224V58.468L97.0992 57.6V56.928C97.0992 56.1813 97.1085 55.5187 97.1272 54.94C97.1459 54.3427 97.1832 53.6987 97.2392 53.008C97.2952 52.28 97.3792 51.692 97.4912 51.244C97.6032 50.7773 97.7899 50.2547 98.0512 49.676C98.2752 49.1347 98.5459 48.7147 98.8632 48.416C99.1992 48.1173 99.6285 47.8653 100.151 47.66C100.618 47.4547 101.197 47.352 101.887 47.352C102.167 47.352 102.382 47.4173 102.531 47.548C102.681 47.6787 102.755 47.8467 102.755 48.052C102.755 48.2387 102.69 48.4067 102.559 48.556C102.447 48.7053 102.307 48.7893 102.139 48.808H100.823C100.45 48.808 100.123 49.0413 99.8432 49.508C99.5632 49.9747 99.3672 50.5813 99.2552 51.328C99.0125 52.7093 98.8912 53.8293 98.8912 54.688V54.828L98.8352 57.516C98.7979 58.3187 98.7792 59.224 98.7792 60.232C98.7792 60.9413 98.8072 61.52 98.8632 61.968C98.9565 62.64 99.1152 63.2 99.3392 63.648C99.5632 64.152 99.9459 64.516 100.487 64.74C100.767 64.852 101.075 64.908 101.411 64.908C101.617 64.908 101.822 64.8333 102.027 64.684C102.27 64.684 102.466 64.74 102.615 64.852C102.783 64.9453 102.867 65.0947 102.867 65.3C102.867 66.028 102.354 66.392 101.327 66.392ZM106.963 65.552L106.935 64.46C106.917 64.1427 106.907 63.788 106.907 63.396L106.935 62.444C106.879 62.2387 106.739 60.1947 106.515 56.312C106.291 52.4293 106.161 49.9373 106.123 48.836C105.041 48.7987 104.35 48.6867 104.051 48.5C103.846 48.3507 103.743 48.1827 103.743 47.996C103.743 47.8467 103.837 47.716 104.023 47.604C104.229 47.4733 104.434 47.408 104.639 47.408C105.162 47.408 105.797 47.4453 106.543 47.52C107.253 47.6133 107.887 47.66 108.447 47.66H108.671H108.895C109.474 47.66 109.763 47.884 109.763 48.332C109.763 48.556 109.67 48.7427 109.483 48.892C109.297 49.0227 109.082 49.088 108.839 49.088C108.671 49.088 108.429 49.06 108.111 49.004L107.551 48.892L107.523 49.032L107.495 49.172C107.495 50.8333 107.654 53.484 107.971 57.124C108.27 60.54 108.419 63.1907 108.419 65.076C108.419 65.3 108.317 65.496 108.111 65.664C107.925 65.832 107.71 65.916 107.467 65.916L106.963 65.552ZM113.372 66.28C112.961 66.28 112.709 66.1027 112.616 65.748C112.541 65.524 112.504 65.2067 112.504 64.796C112.504 63.9933 112.541 63.004 112.616 61.828C112.709 60.708 112.756 59.7093 112.756 58.832C112.756 57.8427 112.784 56.3587 112.84 54.38L112.896 49.956C112.896 49.788 112.868 49.536 112.812 49.2L112.728 48.5V48.36C112.728 47.9307 112.793 47.6133 112.924 47.408C113.054 47.2027 113.297 47.1 113.652 47.1C114.137 47.1 114.669 47.24 115.248 47.52C115.826 47.8 116.246 48.1547 116.508 48.584C117.049 49.48 117.32 50.6 117.32 51.944C117.32 52.952 117.236 53.8013 117.068 54.492C116.9 55.164 116.61 55.7893 116.2 56.368C116.704 56.8533 117.04 57.4787 117.208 58.244C117.394 58.9907 117.488 59.9333 117.488 61.072C117.488 62.2107 117.292 63.2 116.9 64.04C116.452 64.992 115.798 65.6453 114.94 66C114.417 66.1867 113.894 66.28 113.372 66.28ZM114.268 55.556C115.238 55.5373 115.724 54.408 115.724 52.168C115.724 49.76 115.341 48.5 114.576 48.388C114.37 48.8173 114.268 49.8253 114.268 51.412L114.268 55.556ZM114.1 64.852C114.697 64.7213 115.164 64.3667 115.5 63.788C115.836 63.2093 116.004 62.5467 116.004 61.8C116.004 61.016 115.957 60.3253 115.864 59.728C115.789 59.2613 115.686 58.8787 115.556 58.58C115.444 58.2627 115.285 57.9733 115.08 57.712C114.856 57.432 114.594 57.264 114.296 57.208C114.221 58.272 114.184 59.6813 114.184 61.436C114.184 61.548 114.165 61.9027 114.128 62.5L114.072 63.452C114.072 63.4893 114.081 63.5173 114.1 63.536V63.592V64.852ZM121.832 66.28C121.664 66.28 121.505 66.196 121.356 66.028C121.225 65.86 121.197 65.692 121.272 65.524C121.328 65.356 121.459 65.076 121.664 64.684C122.243 63.732 122.625 62.444 122.812 60.82C122.831 60.708 122.756 60.568 122.588 60.4C122.439 60.2133 122.345 60.0733 122.308 59.98L121.916 59.42C121.524 58.8787 121.197 58.384 120.936 57.936C120.693 57.4693 120.46 56.8533 120.236 56.088C120.143 55.7707 120.077 55.4347 120.04 55.08C120.003 54.7067 119.984 54.4733 119.984 54.38L119.928 53.736C119.909 53.4187 119.881 53.1387 119.844 52.896C119.807 52.6347 119.779 52.42 119.76 52.252C119.592 51.1693 119.508 50.2827 119.508 49.592C119.508 49.3307 119.517 49.1347 119.536 49.004C119.555 48.724 119.555 48.472 119.536 48.248C119.536 48.024 119.536 47.8373 119.536 47.688C119.555 47.3147 119.685 47.128 119.928 47.128C119.984 47.128 120.087 47.1467 120.236 47.184C120.927 47.3893 121.272 47.7813 121.272 48.36C121.272 48.5093 121.253 48.7893 121.216 49.2L121.132 50.348C121.132 50.8707 121.141 51.2627 121.16 51.524C121.309 53.0733 121.477 54.604 121.664 56.116C121.72 56.5267 121.851 56.9093 122.056 57.264C122.28 57.6 122.504 57.88 122.728 58.104C122.971 58.3093 123.111 58.412 123.148 58.412C123.26 58.076 123.325 57.852 123.344 57.74C123.456 56.0787 123.521 54.856 123.54 54.072C123.559 53.4187 123.568 52.336 123.568 50.824V47.548C123.587 47.3987 123.624 47.296 123.68 47.24C123.755 47.1653 123.876 47.128 124.044 47.128C124.417 47.128 124.725 47.268 124.968 47.548C125.211 47.8093 125.304 48.1267 125.248 48.5C125.192 48.948 125.164 49.5453 125.164 50.292C125.164 50.74 125.173 51.048 125.192 51.216C125.211 51.384 125.22 51.6173 125.22 51.916C125.22 52.3827 125.183 53.0453 125.108 53.904C125.108 54.1093 125.089 54.436 125.052 54.884C125.015 55.444 124.921 56.3027 124.772 57.46L124.66 58.384C124.548 59.504 124.324 60.8853 123.988 62.528C123.876 63.0507 123.708 63.6013 123.484 64.18C123.26 64.74 123.008 65.2627 122.728 65.748C122.672 65.8787 122.551 66 122.364 66.112C122.177 66.224 122 66.28 121.832 66.28ZM128.959 65.944C128.717 65.8693 128.586 65.7107 128.567 65.468V65.048C128.53 64.264 128.493 63.088 128.455 61.52C128.381 60.1573 128.334 59.112 128.315 58.384C128.259 57.2453 128.194 55.5373 128.119 53.26C128.101 52.868 128.082 52.3267 128.063 51.636C128.045 50.9453 128.035 50.4227 128.035 50.068C128.017 49.8627 128.007 49.5733 128.007 49.2C128.007 48.7707 128.026 48.4533 128.063 48.248C128.138 47.6693 128.455 47.3987 129.015 47.436C129.538 47.436 129.818 47.7347 129.855 48.332V48.668L129.827 55.724V59.056L129.827 60.736C129.827 60.9973 129.846 61.3053 129.883 61.66C129.921 61.996 129.949 62.2387 129.967 62.388C130.061 61.8467 130.21 61.296 130.415 60.736C130.639 60.1573 130.779 59.8027 130.835 59.672C131.115 59 131.321 58.4493 131.451 58.02C131.899 56.5827 132.478 54.8187 133.187 52.728C133.337 52.2987 133.505 51.776 133.691 51.16C134.195 49.5733 134.541 48.5467 134.727 48.08C134.895 47.632 135.147 47.352 135.483 47.24C135.651 47.184 135.819 47.156 135.987 47.156C136.249 47.156 136.519 47.24 136.799 47.408V48.752C136.799 50.152 136.827 51.5987 136.883 53.092C136.902 53.4093 136.911 53.8853 136.911 54.52V55.332C136.911 55.5 136.902 55.724 136.883 56.004C136.883 56.284 136.893 56.6107 136.911 56.984L136.995 64.544C136.995 64.824 136.93 65.132 136.799 65.468C136.743 65.6173 136.65 65.7387 136.519 65.832C136.389 65.9067 136.249 65.944 136.099 65.944C135.577 65.944 135.315 65.7013 135.315 65.216C135.315 64.656 135.343 64.1147 135.399 63.592C135.437 62.8827 135.455 62.3413 135.455 61.968C135.418 58.272 135.371 55.5093 135.315 53.68C135.315 53.4 135.278 52.9427 135.203 52.308L135.119 51.3C134.951 51.4867 134.858 51.608 134.839 51.664L134.391 53.036C134.093 54.0067 133.859 54.7253 133.691 55.192L131.255 61.968L129.995 65.412C129.846 65.804 129.622 66 129.323 66C129.267 66 129.146 65.9813 128.959 65.944ZM131.787 45.756C131.339 45.756 130.91 45.5787 130.499 45.224C130.107 44.8693 129.911 44.4773 129.911 44.048C129.911 43.8613 129.967 43.712 130.079 43.6C130.191 43.488 130.35 43.4227 130.555 43.404C130.798 43.3853 131.003 43.404 131.171 43.46C131.358 43.4973 131.526 43.6093 131.675 43.796C131.843 44.0013 132.021 44.104 132.207 44.104C132.413 44.104 132.609 43.964 132.795 43.684C132.87 43.5533 132.935 43.4413 132.991 43.348C133.047 43.236 133.094 43.1427 133.131 43.068C133.337 42.7133 133.579 42.536 133.859 42.536C133.897 42.536 133.971 42.5547 134.083 42.592C134.233 42.6667 134.354 42.7787 134.447 42.928C134.541 43.0587 134.587 43.208 134.587 43.376C134.587 43.488 134.559 43.6 134.503 43.712C134.485 43.768 134.466 43.824 134.447 43.88C134.429 43.9173 134.41 43.9547 134.391 43.992C134.186 44.6453 133.859 45.1027 133.411 45.364C132.982 45.6253 132.441 45.756 131.787 45.756ZM141.936 65.552L141.908 64.46C141.889 64.1427 141.88 63.788 141.88 63.396L141.908 62.444C141.852 62.2387 141.712 60.1947 141.488 56.312C141.264 52.4293 141.133 49.9373 141.096 48.836C140.013 48.7987 139.323 48.6867 139.024 48.5C138.819 48.3507 138.716 48.1827 138.716 47.996C138.716 47.8467 138.809 47.716 138.996 47.604C139.201 47.4733 139.407 47.408 139.612 47.408C140.135 47.408 140.769 47.4453 141.516 47.52C142.225 47.6133 142.86 47.66 143.42 47.66H143.644H143.868C144.447 47.66 144.736 47.884 144.736 48.332C144.736 48.556 144.643 48.7427 144.456 48.892C144.269 49.0227 144.055 49.088 143.812 49.088C143.644 49.088 143.401 49.06 143.084 49.004L142.524 48.892L142.496 49.032L142.468 49.172C142.468 50.8333 142.627 53.484 142.944 57.124C143.243 60.54 143.392 63.1907 143.392 65.076C143.392 65.3 143.289 65.496 143.084 65.664C142.897 65.832 142.683 65.916 142.44 65.916L141.936 65.552ZM148.82 66.364C148.578 66.364 148.354 66.28 148.148 66.112C147.962 65.944 147.859 65.7387 147.84 65.496V64.768V64.208C147.822 64.04 147.812 63.844 147.812 63.62C147.812 63.228 147.784 62.6307 147.728 61.828L147.672 60.036C147.672 59.1213 147.7 57.7587 147.756 55.948C147.831 54.324 147.868 52.9613 147.868 51.86C147.868 51.5987 147.84 51.2067 147.784 50.684C147.728 50.1427 147.7 49.7507 147.7 49.508C147.7 48.1827 148.092 47.52 148.876 47.52C149.492 47.52 150.202 47.6413 151.004 47.884C151.826 48.1267 152.236 48.416 152.236 48.752C152.236 48.9387 152.152 49.116 151.984 49.284C151.835 49.4333 151.648 49.5547 151.424 49.648C150.64 49.368 149.931 49.1813 149.296 49.088C149.315 49.368 149.324 49.7693 149.324 50.292C149.324 51.0387 149.315 51.7107 149.296 52.308C149.24 53.204 149.212 53.876 149.212 54.324L149.296 54.772L149.744 54.744C149.894 54.7253 150.08 54.716 150.304 54.716C151.2 54.716 151.648 54.9773 151.648 55.5C151.648 55.7053 151.564 55.8827 151.396 56.032C151.228 56.1627 151.014 56.228 150.752 56.228C150.416 56.228 150.155 56.2093 149.968 56.172H149.268C149.306 56.6573 149.324 57.3667 149.324 58.3C149.324 59.2333 149.315 60.0733 149.296 60.82C149.24 61.9587 149.212 62.808 149.212 63.368C149.212 64.4133 149.231 64.936 149.268 64.936L150.192 64.908C150.51 64.8893 150.892 64.88 151.34 64.88C152.05 64.88 152.404 65.104 152.404 65.552C152.404 65.8133 152.283 66.0093 152.04 66.14C151.816 66.2893 151.536 66.364 151.2 66.364L148.82 66.364ZM155.909 68.632C155.723 68.632 155.611 68.548 155.573 68.38V68.212L156.245 67.372C156.488 67.036 156.647 66.728 156.721 66.448C156.74 66.392 156.749 66.308 156.749 66.196C156.749 66.084 156.74 66 156.721 65.944C156.423 65.944 156.189 65.86 156.021 65.692C155.872 65.5053 155.769 65.2253 155.713 64.852C155.657 64.516 155.751 64.264 155.993 64.096C156.255 63.9093 156.581 63.816 156.973 63.816C157.552 63.816 157.897 64.124 158.009 64.74C158.084 65.2067 157.953 65.8227 157.617 66.588C157.281 67.3533 156.852 67.9787 156.329 68.464C156.217 68.5573 156.105 68.6133 155.993 68.632H155.909ZM50.12 94.252C49.952 94.2147 49.812 94.1587 49.7 94.084C49.6067 94.028 49.5507 93.916 49.532 93.748C49.5507 93.636 49.5973 93.5147 49.672 93.384C49.7467 93.2533 49.8213 93.1787 49.896 93.16C50.064 93.1413 50.1853 93.0853 50.26 92.992C50.3347 92.8987 50.4 92.768 50.456 92.6C50.4747 92.488 50.5307 92.208 50.624 91.76C50.7173 91.312 50.7733 90.8827 50.792 90.472L50.82 89.996C50.82 89.772 50.8013 89.4547 50.764 89.044C50.7267 88.6333 50.708 88.3347 50.708 88.148C50.708 87.0653 51.1093 86.0013 51.912 84.956C50.8293 83.9667 50.288 82.884 50.288 81.708V80.812C50.288 79.8413 50.3627 79.1133 50.512 78.628C50.6427 78.124 50.8853 77.5733 51.24 76.976C51.3707 76.696 51.548 76.4813 51.772 76.332C51.996 76.164 52.2387 76.0147 52.5 75.884C52.78 75.7533 52.9947 75.6507 53.144 75.576C53.256 75.52 53.4147 75.464 53.62 75.408C53.844 75.352 54.0213 75.2493 54.152 75.1C54.3947 75.0067 54.6373 74.96 54.88 74.96C55.2347 74.96 55.5427 75.044 55.804 75.212C56.084 75.38 56.224 75.576 56.224 75.8C56.224 76.6027 56.2053 77.8627 56.168 79.58L56.084 83.556L56.056 85.124L56.084 86.692C56.1213 87.5507 56.196 88.764 56.308 90.332L56.42 92.152C56.4387 92.32 56.4667 92.5067 56.504 92.712C56.5413 92.9173 56.56 93.0853 56.56 93.216C56.56 93.72 56.2987 93.972 55.776 93.972C55.552 93.972 55.3467 93.916 55.16 93.804C54.992 93.692 54.8987 93.5333 54.88 93.328C54.824 92.8987 54.796 92.46 54.796 92.012L54.712 85.04C54.0587 85.152 53.5733 85.2733 53.256 85.404C52.9387 85.5347 52.7053 85.712 52.556 85.936C52.4253 86.1413 52.3227 86.44 52.248 86.832C52.192 87.0747 52.164 87.4387 52.164 87.924C52.164 88.1667 52.1827 88.512 52.22 88.96L52.248 90.024C52.248 90.8267 52.2013 91.508 52.108 92.068C52.0147 92.6093 51.8093 93.1227 51.492 93.608C51.3427 93.8507 51.1373 94.028 50.876 94.14C50.6147 94.252 50.3627 94.2893 50.12 94.252ZM52.892 84.2C52.9667 84.2187 53.088 84.228 53.256 84.228C53.648 84.228 54.152 84.144 54.768 83.976C54.768 83.4907 54.7493 82.744 54.712 81.736C54.656 80.784 54.628 79.8413 54.628 78.908C54.628 78.124 54.656 77.3307 54.712 76.528C54.208 76.6027 53.76 76.7333 53.368 76.92C52.976 77.1067 52.7147 77.312 52.584 77.536C52.0987 78.4507 51.8467 79.3467 51.828 80.224C51.828 81.2133 51.8467 81.9413 51.884 82.408C51.9027 82.8187 51.996 83.2013 52.164 83.556C52.332 83.9107 52.5747 84.1253 52.892 84.2ZM66.1841 94.056C66.1095 94.0373 65.9881 94.0187 65.8201 94C65.6521 93.9813 65.5121 93.9347 65.4001 93.86C65.1201 93.6733 65.0081 93.356 65.0641 92.908L65.0921 92.292C65.1668 91.284 65.2041 90.528 65.2041 90.024C65.2041 87.0933 65.1761 84.144 65.1201 81.176C65.1201 79.6453 65.0735 78.0213 64.9801 76.304C64.9615 76.0053 65.0268 75.7533 65.1761 75.548C65.3441 75.3427 65.5495 75.24 65.7921 75.24C66.0161 75.24 66.2401 75.3427 66.4641 75.548C66.7068 75.7533 66.8188 75.996 66.8001 76.276C66.6695 76.836 66.6041 77.956 66.6041 79.636V81.876C66.6041 82.2867 66.6228 82.94 66.6601 83.836C66.7161 83.7613 66.8935 83.416 67.1921 82.8C67.2295 82.7253 67.2948 82.6133 67.3881 82.464C67.4815 82.296 67.5468 82.128 67.5841 81.96C68.2001 80.0933 68.7041 78.656 69.0961 77.648C69.2641 77.1067 69.4881 76.6493 69.7681 76.276C70.0481 75.884 70.4308 75.6133 70.9161 75.464C71.0841 75.408 71.3081 75.4267 71.5881 75.52C71.8868 75.6133 72.0828 75.7253 72.1761 75.856C72.2881 75.9867 72.3441 76.1453 72.3441 76.332C72.3441 76.5187 72.2788 76.6867 72.1481 76.836C72.0361 76.9853 71.8868 77.0787 71.7001 77.116C71.2335 77.1907 70.8695 77.3587 70.6081 77.62C70.3468 77.8813 70.1508 78.1613 70.0201 78.46C69.9081 78.74 69.7681 79.1693 69.6001 79.748L68.4801 82.492C68.4241 82.6227 68.3401 82.8467 68.2281 83.164C68.1348 83.4813 68.0415 83.724 67.9481 83.892C67.9108 83.948 67.8548 84.004 67.7801 84.06C67.7055 84.116 67.6401 84.172 67.5841 84.228C67.7148 84.1347 67.8828 84.1627 68.0881 84.312C68.3121 84.4613 68.5361 84.6667 68.7601 84.928C68.9095 85.2267 69.0121 85.5533 69.0681 85.908C69.1428 86.2627 69.1895 86.468 69.2081 86.524C69.2455 86.8227 69.2828 87.0467 69.3201 87.196C69.5441 87.7933 69.7028 88.344 69.7961 88.848C69.8895 89.3333 69.9548 89.912 69.9921 90.584C70.0481 91.256 70.2348 91.844 70.5521 92.348C70.6455 92.3667 70.7481 92.3853 70.8601 92.404C70.9908 92.4227 71.1308 92.4413 71.2801 92.46C71.5788 92.4787 71.7748 92.6653 71.8681 93.02C71.8868 93.0573 71.8961 93.1227 71.8961 93.216C71.8961 93.4213 71.8028 93.6173 71.6161 93.804C71.3361 94.084 70.9815 94.224 70.5521 94.224C70.2348 94.224 69.9268 94.14 69.6281 93.972C69.3481 93.804 69.1428 93.58 69.0121 93.3C68.9001 93.1133 68.8068 92.8613 68.7321 92.544C68.6015 91.7413 68.4895 90.9293 68.3961 90.108C68.3215 88.9693 68.2375 88.1107 68.1441 87.532C68.0695 86.9347 67.8921 86.3653 67.6121 85.824C67.5375 85.6933 67.4628 85.6 67.3881 85.544C67.3135 85.4693 67.2108 85.432 67.0801 85.432C66.9681 85.432 66.8281 85.46 66.6601 85.516C66.6228 86.86 66.6041 88.1667 66.6041 89.436C66.6041 90.2387 66.6415 91.4613 66.7161 93.104C66.7348 93.3093 66.6975 93.4773 66.6041 93.608C66.5295 93.72 66.3895 93.8693 66.1841 94.056ZM80.6684 94.28C80.2578 94.28 80.0058 94.1027 79.9124 93.748C79.8378 93.524 79.8004 93.2067 79.8004 92.796C79.8004 91.9933 79.8378 91.004 79.9124 89.828C80.0058 88.708 80.0524 87.7093 80.0524 86.832C80.0524 85.8427 80.0804 84.3587 80.1364 82.38L80.1924 77.956C80.1924 77.788 80.1644 77.536 80.1084 77.2L80.0244 76.5V76.36C80.0244 75.9307 80.0898 75.6133 80.2204 75.408C80.3511 75.2027 80.5938 75.1 80.9484 75.1C81.4338 75.1 81.9658 75.24 82.5444 75.52C83.1231 75.8 83.5431 76.1547 83.8044 76.584C84.3458 77.48 84.6164 78.6 84.6164 79.944C84.6164 80.952 84.5324 81.8013 84.3644 82.492C84.1964 83.164 83.9071 83.7893 83.4964 84.368C84.0004 84.8533 84.3364 85.4787 84.5044 86.244C84.6911 86.9907 84.7844 87.9333 84.7844 89.072C84.7844 90.2107 84.5884 91.2 84.1964 92.04C83.7484 92.992 83.0951 93.6453 82.2364 94C81.7138 94.1867 81.1911 94.28 80.6684 94.28ZM81.5644 83.556C82.5351 83.5373 83.0204 82.408 83.0204 80.168C83.0204 77.76 82.6378 76.5 81.8724 76.388C81.6671 76.8173 81.5644 77.8253 81.5644 79.412L81.5644 83.556ZM81.3964 92.852C81.9938 92.7213 82.4604 92.3667 82.7964 91.788C83.1324 91.2093 83.3004 90.5467 83.3004 89.8C83.3004 89.016 83.2538 88.3253 83.1604 87.728C83.0858 87.2613 82.9831 86.8787 82.8524 86.58C82.7404 86.2627 82.5818 85.9733 82.3764 85.712C82.1524 85.432 81.8911 85.264 81.5924 85.208C81.5178 86.272 81.4804 87.6813 81.4804 89.436C81.4804 89.548 81.4618 89.9027 81.4244 90.5L81.3684 91.452C81.3684 91.4893 81.3778 91.5173 81.3964 91.536V91.592L81.3964 92.852ZM93.3568 94.252C92.9275 94.252 92.6101 94.1867 92.4048 94.056C92.1995 93.9253 92.0968 93.6827 92.0968 93.328C92.0968 92.768 92.0035 91.816 91.8168 90.472L91.7048 89.884L88.9328 89.464C88.8208 89.8933 88.6621 90.7613 88.4568 92.068C88.3448 92.9827 88.1675 93.5893 87.9248 93.888C87.7941 94.056 87.6075 94.14 87.3648 94.14C87.1408 94.14 86.9355 94.0747 86.7488 93.944C86.5621 93.7947 86.4688 93.6173 86.4688 93.412L86.5248 93.272L86.5528 93.16C87.7848 88.3627 88.7181 83.6307 89.3528 78.964C89.3528 78.8893 89.3621 78.768 89.3808 78.6C89.3995 78.4133 89.4181 78.152 89.4368 77.816C89.4928 77.1253 89.5488 76.5747 89.6048 76.164C89.6795 75.7533 89.7915 75.4453 89.9408 75.24H90.8928C91.1541 75.24 91.3781 75.3053 91.5648 75.436C91.7515 75.548 91.8448 75.716 91.8448 75.94C91.8448 77.3587 92.0408 79.468 92.4328 82.268C92.8061 85.1427 92.9928 87.1587 92.9928 88.316C92.9928 88.428 93.0395 88.7173 93.1328 89.184C93.2261 89.6133 93.2728 89.8933 93.2728 90.024C93.2728 90.1547 93.3661 90.7147 93.5528 91.704C93.7208 92.6 93.8048 93.1787 93.8048 93.44V93.468C93.8048 93.8787 93.6555 94.14 93.3568 94.252ZM91.5088 88.876C91.4528 88.596 91.4248 88.2507 91.4248 87.84C91.4248 86.16 91.2755 84.0133 90.9768 81.4L90.6968 78.488C89.8941 82.8747 89.3435 86.188 89.0448 88.428C89.3248 88.6147 90.1461 88.764 91.5088 88.876ZM107.492 95.456C106.913 95.456 106.624 94.8773 106.624 93.72V91.928V90.136C106.624 89.2027 106.559 87.98 106.428 86.468C106.279 84.7693 106.204 83.6027 106.204 82.968L106.26 81.232C106.297 80.728 106.316 80.1587 106.316 79.524C106.241 79.7667 105.933 81.0547 105.392 83.388C104.851 85.6467 104.291 87.7373 103.712 89.66C103.152 91.508 102.695 92.432 102.34 92.432C101.985 92.432 101.696 92.3293 101.472 92.124C101.267 91.9 101.164 91.6013 101.164 91.228C101.164 90.4067 100.828 88.6613 100.156 85.992C99.5027 83.3227 98.9053 81.1387 98.364 79.44L98.196 82.604C98.0467 85.2733 97.944 87.4947 97.888 89.268C97.8507 90.9853 97.832 92.1613 97.832 92.796C97.832 92.9453 97.8413 93.0853 97.86 93.216V93.608C97.86 93.9253 97.7947 94.1587 97.664 94.308C97.5333 94.476 97.2907 94.56 96.936 94.56C96.7493 94.56 96.572 94.4853 96.404 94.336C96.236 94.2053 96.152 94.056 96.152 93.888C96.152 91.984 96.292 89.128 96.572 85.32C96.852 81.512 96.992 78.656 96.992 76.752C96.88 76.584 96.824 76.4067 96.824 76.22C96.824 75.996 96.9267 75.828 97.132 75.716C97.356 75.5853 97.6173 75.52 97.916 75.52C98.1587 75.52 98.6067 76.3973 99.26 78.152C99.9133 79.9067 100.567 81.8947 101.22 84.116C101.873 86.3373 102.293 87.9427 102.48 88.932C102.629 88.428 102.751 87.9613 102.844 87.532L103.012 86.86C103.609 84.2467 104.207 81.8853 104.804 79.776C105.159 78.488 105.504 77.48 105.84 76.752C106.176 75.968 106.484 75.576 106.764 75.576C107.025 75.576 107.259 75.6507 107.464 75.8C107.688 75.9307 107.8 76.108 107.8 76.332C107.8 77.676 107.856 79.692 107.968 82.38C108.099 84.8813 108.164 86.8227 108.164 88.204L108.136 89.688L108.08 91.172C108.08 91.396 108.108 91.732 108.164 92.18L108.248 93.16C108.267 93.328 108.276 93.4587 108.276 93.552C108.295 93.6453 108.304 93.7013 108.304 93.72C108.397 93.9627 108.444 94.14 108.444 94.252C108.444 94.5693 108.351 94.8493 108.164 95.092C107.977 95.3347 107.753 95.456 107.492 95.456ZM118.725 94.392C118.146 94.392 117.679 94.2613 117.325 94C116.97 93.7387 116.709 93.328 116.541 92.768C116.485 92.6 116.457 92.4227 116.457 92.236C116.457 91.956 116.522 91.732 116.653 91.564C116.783 91.3773 116.961 91.2933 117.185 91.312C117.353 91.312 117.511 91.3773 117.661 91.508C117.81 91.6387 117.903 91.7973 117.941 91.984C117.997 92.1147 118.081 92.4413 118.193 92.964C118.286 92.9827 118.435 92.992 118.641 92.992C119.406 92.992 119.947 92.6467 120.265 91.956C120.433 91.5453 120.554 91.088 120.629 90.584C120.722 90.08 120.759 89.6227 120.741 89.212C120.759 88.1853 120.563 87.0747 120.153 85.88C119.985 85.376 119.714 85.1147 119.341 85.096C118.669 85.0587 118.342 84.816 118.361 84.368C118.342 84.0507 118.398 83.8267 118.529 83.696C118.678 83.5467 118.911 83.444 119.229 83.388C119.415 83.3507 119.593 83.276 119.761 83.164C119.929 83.052 120.05 82.912 120.125 82.744C120.367 82.24 120.517 81.8293 120.573 81.512C120.629 81.176 120.647 80.5227 120.629 79.552C120.61 79.216 120.526 78.824 120.377 78.376C120.227 77.928 120.05 77.5827 119.845 77.34C119.621 76.9853 119.341 76.808 119.005 76.808C118.743 76.808 118.547 76.8827 118.417 77.032C118.305 77.1627 118.193 77.3493 118.081 77.592C117.987 77.816 117.903 78.0027 117.829 78.152C117.661 78.3947 117.493 78.516 117.325 78.516C117.269 78.516 117.185 78.4973 117.073 78.46C116.886 78.4227 116.755 78.3387 116.681 78.208C116.606 78.0587 116.569 77.8533 116.569 77.592C116.569 76.976 116.811 76.444 117.297 75.996C117.782 75.5293 118.351 75.296 119.005 75.296C120.106 75.296 120.899 75.884 121.385 77.06C121.627 77.4333 121.814 77.9 121.945 78.46C122.094 79.02 122.159 79.5147 122.141 79.944C122.103 81.1947 121.917 82.2307 121.581 83.052C121.282 83.556 120.965 83.9293 120.629 84.172C121.133 84.7133 121.506 85.4227 121.749 86.3C121.991 87.1587 122.113 88.092 122.113 89.1C122.113 90.7613 121.833 92.0587 121.273 92.992C120.731 93.9253 119.882 94.392 118.725 94.392ZM130.544 94.252C130.115 94.252 129.798 94.1867 129.592 94.056C129.387 93.9253 129.284 93.6827 129.284 93.328C129.284 92.768 129.191 91.816 129.004 90.472L128.892 89.884L126.12 89.464C126.008 89.8933 125.85 90.7613 125.644 92.068C125.532 92.9827 125.355 93.5893 125.112 93.888C124.982 94.056 124.795 94.14 124.552 94.14C124.328 94.14 124.123 94.0747 123.936 93.944C123.75 93.7947 123.656 93.6173 123.656 93.412L123.712 93.272L123.74 93.16C124.972 88.3627 125.906 83.6307 126.54 78.964C126.54 78.8893 126.55 78.768 126.568 78.6C126.587 78.4133 126.606 78.152 126.624 77.816C126.68 77.1253 126.736 76.5747 126.792 76.164C126.867 75.7533 126.979 75.4453 127.128 75.24H128.08C128.342 75.24 128.566 75.3053 128.752 75.436C128.939 75.548 129.032 75.716 129.032 75.94C129.032 77.3587 129.228 79.468 129.62 82.268C129.994 85.1427 130.18 87.1587 130.18 88.316C130.18 88.428 130.227 88.7173 130.32 89.184C130.414 89.6133 130.46 89.8933 130.46 90.024C130.46 90.1547 130.554 90.7147 130.74 91.704C130.908 92.6 130.992 93.1787 130.992 93.44V93.468C130.992 93.8787 130.843 94.14 130.544 94.252ZM128.696 88.876C128.64 88.596 128.612 88.2507 128.612 87.84C128.612 86.16 128.463 84.0133 128.164 81.4L127.884 78.488C127.082 82.8747 126.531 86.188 126.232 88.428C126.512 88.6147 127.334 88.764 128.696 88.876ZM143.941 93.972C143.698 94.0093 143.493 93.9533 143.325 93.804C143.157 93.636 143.073 93.412 143.073 93.132C143.017 92.236 142.989 91.3493 142.989 90.472C142.989 89.2773 143.017 88.092 143.073 86.916C143.11 85.7213 143.129 84.844 143.129 84.284C142.923 82.9587 142.802 80.8213 142.765 77.872C142.765 77.1813 142.755 76.6213 142.737 76.192C141.785 76.192 141.094 76.1733 140.665 76.136H140.497C140.217 76.136 140.067 76.2853 140.049 76.584L140.021 78.6C140.021 79.5707 140.049 80.1587 140.105 80.364C140.142 80.588 140.161 80.7373 140.161 80.812C140.161 80.9613 140.142 81.1853 140.105 81.484C140.067 81.7827 140.049 82.0067 140.049 82.156C140.049 82.436 140.095 82.6787 140.189 82.884C140.263 83.052 140.291 83.2853 140.273 83.584C140.273 83.8827 140.273 84.1067 140.273 84.256C140.291 84.8347 140.282 85.684 140.245 86.804C140.207 87.7 140.189 88.3627 140.189 88.792C140.189 89.3333 140.207 89.9493 140.245 90.64C140.282 91.312 140.31 91.788 140.329 92.068L140.385 92.852C140.403 93.1507 140.338 93.3933 140.189 93.58C140.058 93.748 139.862 93.832 139.601 93.832C139.507 93.832 139.386 93.8133 139.237 93.776C139.069 93.72 138.957 93.6267 138.901 93.496C138.845 93.3653 138.807 93.1973 138.789 92.992L138.705 90.64L138.733 87.252C138.695 85.236 138.677 83.7333 138.677 82.744L138.649 80.476C138.63 79.412 138.583 78.2827 138.509 77.088L138.453 75.94V75.772C138.453 75.5853 138.49 75.4547 138.565 75.38C138.639 75.2867 138.779 75.212 138.985 75.156C139.358 75.0627 139.694 75.016 139.993 75.016C140.161 75.016 140.282 75.0253 140.357 75.044C140.506 75.044 140.73 75.0627 141.029 75.1C141.439 75.1373 141.766 75.156 142.009 75.156C142.363 75.156 142.69 75.1187 142.989 75.044C143.194 74.988 143.455 75.0347 143.773 75.184C144.09 75.3147 144.267 75.5107 144.305 75.772C144.342 76.0333 144.361 76.2387 144.361 76.388C144.361 76.5373 144.351 76.6493 144.333 76.724C144.258 76.948 144.221 77.2187 144.221 77.536C144.221 77.704 144.23 77.8907 144.249 78.096C144.267 78.3013 144.277 78.516 144.277 78.74C144.277 78.9267 144.267 79.076 144.249 79.188C144.23 79.356 144.221 79.6267 144.221 80C144.221 80.616 144.277 81.484 144.389 82.604L144.473 83.36C144.491 83.528 144.501 83.78 144.501 84.116C144.501 84.508 144.491 84.7973 144.473 84.984C144.473 85.1333 144.463 85.32 144.445 85.544C144.445 85.7493 144.454 86.0013 144.473 86.3C144.454 86.7293 144.463 87.3733 144.501 88.232L144.529 88.848L144.697 93.244C144.697 93.4493 144.641 93.6173 144.529 93.748C144.435 93.86 144.239 93.9347 143.941 93.972ZM151.328 94.532C150.842 94.532 150.394 94.3733 149.984 94.056C149.573 93.7573 149.237 93.3467 148.976 92.824C148.434 91.6853 148.098 90.444 147.968 89.1C147.8 87.8307 147.716 86.608 147.716 85.432C147.716 85.208 147.725 85.0213 147.744 84.872V84.368C147.744 84.2747 147.734 84.228 147.716 84.228V83.724L147.744 81.764C147.762 81.1667 147.837 80.2147 147.968 78.908C148.061 78.012 148.276 77.144 148.612 76.304C148.742 75.9307 148.91 75.6507 149.116 75.464C149.321 75.2587 149.554 75.156 149.816 75.156C150.562 75.156 151.234 75.296 151.832 75.576C152.429 75.8373 152.933 76.2107 153.344 76.696C153.717 77.1627 154.034 77.7413 154.296 78.432C154.557 79.104 154.744 79.8227 154.856 80.588C154.968 81.372 155.024 82.2027 155.024 83.08V83.304C155.024 83.8827 155.033 84.4053 155.052 84.872L155.08 86.468C155.08 91.844 153.829 94.532 151.328 94.532ZM151.216 93.356C151.552 93.356 151.86 93.2253 152.14 92.964C152.42 92.684 152.634 92.3107 152.784 91.844C153.138 90.892 153.353 89.8653 153.428 88.764C153.521 87.812 153.568 86.9907 153.568 86.3C153.568 85.46 153.502 84.3587 153.372 82.996C153.26 81.5587 153.204 80.4853 153.204 79.776V79.272C153.166 78.5627 152.924 77.9467 152.476 77.424C152.046 76.9013 151.514 76.64 150.88 76.64C150.245 76.64 149.825 77.004 149.62 77.732C149.433 78.3107 149.34 79.0573 149.34 79.972C149.34 80.3267 149.349 80.6253 149.368 80.868V81.624L149.312 82.912C149.274 83.304 149.256 83.7333 149.256 84.2C149.256 85.208 149.284 86.2067 149.34 87.196C149.414 88.596 149.601 89.9587 149.9 91.284C150.198 92.6653 150.637 93.356 151.216 93.356ZM169.426 95.456C168.847 95.456 168.558 94.8773 168.558 93.72V91.928V90.136C168.558 89.2027 168.492 87.98 168.362 86.468C168.212 84.7693 168.138 83.6027 168.138 82.968L168.194 81.232C168.231 80.728 168.25 80.1587 168.25 79.524C168.175 79.7667 167.867 81.0547 167.326 83.388C166.784 85.6467 166.224 87.7373 165.646 89.66C165.086 91.508 164.628 92.432 164.274 92.432C163.919 92.432 163.63 92.3293 163.406 92.124C163.2 91.9 163.098 91.6013 163.098 91.228C163.098 90.4067 162.762 88.6613 162.09 85.992C161.436 83.3227 160.839 81.1387 160.298 79.44L160.13 82.604C159.98 85.2733 159.878 87.4947 159.822 89.268C159.784 90.9853 159.766 92.1613 159.766 92.796C159.766 92.9453 159.775 93.0853 159.794 93.216V93.608C159.794 93.9253 159.728 94.1587 159.598 94.308C159.467 94.476 159.224 94.56 158.87 94.56C158.683 94.56 158.506 94.4853 158.338 94.336C158.17 94.2053 158.086 94.056 158.086 93.888C158.086 91.984 158.226 89.128 158.506 85.32C158.786 81.512 158.926 78.656 158.926 76.752C158.814 76.584 158.758 76.4067 158.758 76.22C158.758 75.996 158.86 75.828 159.066 75.716C159.29 75.5853 159.551 75.52 159.85 75.52C160.092 75.52 160.54 76.3973 161.194 78.152C161.847 79.9067 162.5 81.8947 163.154 84.116C163.807 86.3373 164.227 87.9427 164.414 88.932C164.563 88.428 164.684 87.9613 164.778 87.532L164.946 86.86C165.543 84.2467 166.14 81.8853 166.738 79.776C167.092 78.488 167.438 77.48 167.774 76.752C168.11 75.968 168.418 75.576 168.698 75.576C168.959 75.576 169.192 75.6507 169.398 75.8C169.622 75.9307 169.734 76.108 169.734 76.332C169.734 77.676 169.79 79.692 169.902 82.38C170.032 84.8813 170.098 86.8227 170.098 88.204L170.07 89.688L170.014 91.172C170.014 91.396 170.042 91.732 170.098 92.18L170.182 93.16C170.2 93.328 170.21 93.4587 170.21 93.552C170.228 93.6453 170.238 93.7013 170.238 93.72C170.331 93.9627 170.378 94.14 170.378 94.252C170.378 94.5693 170.284 94.8493 170.098 95.092C169.911 95.3347 169.687 95.456 169.426 95.456ZM177.113 94.532C176.628 94.532 176.18 94.3733 175.769 94.056C175.358 93.7573 175.022 93.3467 174.761 92.824C174.22 91.6853 173.884 90.444 173.753 89.1C173.585 87.8307 173.501 86.608 173.501 85.432C173.501 85.208 173.51 85.0213 173.529 84.872V84.368C173.529 84.2747 173.52 84.228 173.501 84.228V83.724L173.529 81.764C173.548 81.1667 173.622 80.2147 173.753 78.908C173.846 78.012 174.061 77.144 174.397 76.304C174.528 75.9307 174.696 75.6507 174.901 75.464C175.106 75.2587 175.34 75.156 175.601 75.156C176.348 75.156 177.02 75.296 177.617 75.576C178.214 75.8373 178.718 76.2107 179.129 76.696C179.502 77.1627 179.82 77.7413 180.081 78.432C180.342 79.104 180.529 79.8227 180.641 80.588C180.753 81.372 180.809 82.2027 180.809 83.08V83.304C180.809 83.8827 180.818 84.4053 180.837 84.872L180.865 86.468C180.865 91.844 179.614 94.532 177.113 94.532ZM177.001 93.356C177.337 93.356 177.645 93.2253 177.925 92.964C178.205 92.684 178.42 92.3107 178.569 91.844C178.924 90.892 179.138 89.8653 179.213 88.764C179.306 87.812 179.353 86.9907 179.353 86.3C179.353 85.46 179.288 84.3587 179.157 82.996C179.045 81.5587 178.989 80.4853 178.989 79.776V79.272C178.952 78.5627 178.709 77.9467 178.261 77.424C177.832 76.9013 177.3 76.64 176.665 76.64C176.03 76.64 175.61 77.004 175.405 77.732C175.218 78.3107 175.125 79.0573 175.125 79.972C175.125 80.3267 175.134 80.6253 175.153 80.868V81.624L175.097 82.912C175.06 83.304 175.041 83.7333 175.041 84.2C175.041 85.208 175.069 86.2067 175.125 87.196C175.2 88.596 175.386 89.9587 175.685 91.284C175.984 92.6653 176.422 93.356 177.001 93.356ZM195.239 98.508C194.996 98.508 194.809 98.424 194.679 98.256C194.548 98.1067 194.492 97.892 194.511 97.612L194.595 96.268C194.688 95.148 194.735 94.252 194.735 93.58C194.249 93.636 193.904 93.6827 193.699 93.72C191.907 94.0187 190.273 94.168 188.799 94.168C187.119 94.168 185.747 93.9813 184.683 93.608C184.533 93.552 184.403 93.4213 184.291 93.216C184.197 92.992 184.151 92.74 184.151 92.46L184.123 87.84L184.151 86.496C184.169 86.216 184.179 85.7773 184.179 85.18C184.179 84.788 184.169 84.4987 184.151 84.312L184.067 82.8C183.955 80.6347 183.899 78.8707 183.899 77.508L183.871 76.556C183.871 75.66 184.104 75.212 184.571 75.212C185.243 75.212 185.579 75.6227 185.579 76.444L185.607 82.38L185.579 87.644C185.579 87.9053 185.597 88.26 185.635 88.708C185.672 89.1373 185.7 89.4547 185.719 89.66C185.812 90.444 185.859 91.0787 185.859 91.564C185.859 91.788 185.849 91.9467 185.831 92.04V92.18C185.831 92.4227 185.952 92.5533 186.195 92.572C186.587 92.628 187.259 92.6933 188.211 92.768C188.061 92.0587 187.987 91.172 187.987 90.108L188.015 88.12L188.043 86.496C188.043 85.7493 188.024 84.648 187.987 83.192C187.931 82.016 187.903 80.756 187.903 79.412C187.903 78.5907 187.94 77.3587 188.015 75.716C188.052 75.268 188.229 75.044 188.547 75.044L188.883 75.1C189.2 75.1933 189.424 75.3053 189.555 75.436C189.685 75.548 189.751 75.7253 189.751 75.968C189.751 76.0613 189.732 76.22 189.695 76.444C189.564 77.3587 189.499 78.5347 189.499 79.972V80.868L189.527 84.704L189.555 90.752C189.555 91.1627 189.601 91.6293 189.695 92.152L189.779 92.74C190.451 92.74 190.936 92.7027 191.235 92.628C191.552 92.5533 191.785 92.5067 191.935 92.488L192.019 89.8C192.112 87.4293 192.159 85.3293 192.159 83.5C192.159 82.156 192.131 80.5507 192.075 78.684C192.075 78.2547 192.065 77.9373 192.047 77.732L192.019 76.724C192.019 76.4067 192.028 76.164 192.047 75.996C192.065 75.716 192.14 75.5013 192.271 75.352C192.401 75.184 192.569 75.1 192.775 75.1C192.924 75.1 193.092 75.1467 193.279 75.24C193.633 75.3707 193.792 75.6413 193.755 76.052C193.68 78.4973 193.643 81.092 193.643 83.836C193.643 87.2333 193.652 89.7813 193.671 91.48C193.671 91.6107 193.708 91.8627 193.783 92.236L194.455 92.152C194.977 92.0587 195.407 92.012 195.743 92.012C196.079 92.012 196.265 92.068 196.303 92.18C196.396 92.3293 196.443 92.5627 196.443 92.88C196.443 93.2347 196.415 93.664 196.359 94.168L196.247 95.624C196.209 96.0533 196.191 96.6973 196.191 97.556C196.191 97.8173 196.097 98.0413 195.911 98.228C195.724 98.4333 195.5 98.5267 195.239 98.508ZM198.733 93.888C198.36 93.8693 198.145 93.6733 198.089 93.3L198.173 86.3V84.144V80C198.173 78.1707 198.183 76.7987 198.201 75.884C198.201 75.772 198.257 75.6693 198.369 75.576C198.5 75.4827 198.659 75.436 198.845 75.436C198.995 75.436 199.144 75.4827 199.293 75.576C199.443 75.6693 199.555 75.7907 199.629 75.94C199.797 76.2387 199.881 76.6773 199.881 77.256C199.881 77.6667 199.816 78.3107 199.685 79.188C199.629 79.58 199.592 80.0093 199.573 80.476C199.555 80.9427 199.545 81.2507 199.545 81.4C199.508 81.6613 199.461 82.0813 199.405 82.66C199.368 83.2387 199.368 83.5187 199.405 83.5C199.685 83.4627 200.031 83.528 200.441 83.696C200.759 83.808 200.945 83.864 201.001 83.864C201.823 84.0133 202.448 84.508 202.877 85.348C203.325 86.1693 203.587 87.0187 203.661 87.896C203.68 88.1013 203.689 88.4 203.689 88.792C203.689 89.7253 203.605 90.528 203.437 91.2C203.251 92.5067 202.467 93.4027 201.085 93.888C200.861 93.9627 200.572 94 200.217 94C199.956 94 199.667 93.9907 199.349 93.972C199.051 93.9347 198.845 93.9067 198.733 93.888ZM199.657 92.768C199.863 92.824 200.049 92.852 200.217 92.852C200.591 92.852 200.908 92.7493 201.169 92.544C201.431 92.32 201.599 92.0307 201.673 91.676C201.767 91.2467 201.869 90.6027 201.981 89.744C202.019 89.3333 202.056 89.0067 202.093 88.764C202.112 88.652 202.121 88.484 202.121 88.26C202.121 87.476 201.972 86.7573 201.673 86.104C201.375 85.432 200.945 85.0587 200.385 84.984C199.993 84.9093 199.704 84.8627 199.517 84.844L199.657 92.768ZM213.405 94.196C212.957 94.196 212.528 94.056 212.117 93.776C211.707 93.496 211.371 93.0947 211.109 92.572C210.885 92.124 210.727 91.648 210.633 91.144C210.559 90.6213 210.493 89.9867 210.437 89.24L210.185 85.796L207.777 85.796V88.54V89.66L208.057 93.104C208.095 93.4213 208.048 93.6453 207.917 93.776C207.805 93.9067 207.572 93.972 207.217 93.972C206.956 93.972 206.769 93.9347 206.657 93.86C206.545 93.7853 206.471 93.6453 206.433 93.44C206.396 93.1413 206.377 92.684 206.377 92.068L206.349 89.94C206.312 88.0733 206.293 86.664 206.293 85.712C206.293 84.9467 206.303 84.3773 206.321 84.004L206.349 82.24C206.349 81.792 206.331 81.008 206.293 79.888L206.265 77.844C206.265 77.62 206.284 77.284 206.321 76.836L206.349 75.856C206.349 75.6133 206.396 75.4547 206.489 75.38C206.601 75.3053 206.807 75.268 207.105 75.268C207.404 75.268 207.647 75.3613 207.833 75.548C208.039 75.716 208.123 75.9307 208.085 76.192C208.029 76.5467 208.001 76.92 208.001 77.312C208.001 77.704 208.011 78.0027 208.029 78.208L208.057 79.132C208.057 80.0653 208.02 80.9613 207.945 81.82C207.871 82.716 207.833 83.696 207.833 84.76C208.132 84.7973 208.356 84.816 208.505 84.816C208.841 84.816 209.401 84.7413 210.185 84.592C210.241 83.5093 210.344 82.296 210.493 80.952C210.643 79.5707 210.82 78.348 211.025 77.284C211.1 76.892 211.324 76.388 211.697 75.772C211.791 75.5853 211.94 75.4453 212.145 75.352C212.351 75.2587 212.575 75.212 212.817 75.212C213.153 75.212 213.601 75.352 214.161 75.632C214.74 75.912 215.197 76.2293 215.533 76.584C216.112 77.2187 216.569 78.0213 216.905 78.992C217.26 79.9627 217.437 81.036 217.437 82.212C217.437 82.7907 217.4 83.332 217.325 83.836C217.251 84.3773 217.213 85.1987 217.213 86.3C217.213 87.308 217.185 88.064 217.129 88.568C216.961 90.192 216.56 91.5733 215.925 92.712C215.683 93.1787 215.319 93.5427 214.833 93.804C214.348 94.0653 213.872 94.196 213.405 94.196ZM213.405 93.076C213.76 93.076 214.049 92.908 214.273 92.572C214.777 91.5453 215.123 90.64 215.309 89.856C215.515 89.072 215.627 88.036 215.645 86.748C215.72 85.068 215.757 83.668 215.757 82.548L215.729 81.344C215.692 80.224 215.515 79.16 215.197 78.152C215.104 77.8347 214.927 77.5173 214.665 77.2C214.423 76.864 214.152 76.5933 213.853 76.388C213.573 76.2013 213.34 76.108 213.153 76.108C213.004 76.108 212.892 76.1733 212.817 76.304C212.743 76.4347 212.668 76.64 212.593 76.92C212.537 77.2 212.481 77.424 212.425 77.592C212.351 77.8533 212.276 78.2453 212.201 78.768C212.183 78.992 212.136 79.2813 212.061 79.636C211.763 81.3533 211.613 83.276 211.613 85.404V86.3L211.641 87.112C211.66 87.3547 211.679 87.84 211.697 88.568C211.735 89.2773 211.791 89.912 211.865 90.472C211.921 90.976 212.155 91.676 212.565 92.572C212.771 92.908 213.051 93.076 213.405 93.076Z" fill="#292D32"/>
<defs>
<filter id="filter0_d_0_2875" x="0.933838" y="0.000488281" width="265.092" height="194" filterUnits="userSpaceOnUse" color-interpolation-filters="sRGB">
<feFlood flood-opacity="0" result="BackgroundImageFix"/>
<feColorMatrix in="SourceAlpha" type="matrix" values="0 0 0 0 0 0 0 0 0 0 0 0 0 0 0 0 0 0 127 0" result="hardAlpha"/>
<feOffset dy="12"/>
<feGaussianBlur stdDeviation="10"/>
<feComposite in2="hardAlpha" operator="out"/>
<feColorMatrix type="matrix" values="0 0 0 0 0 0 0 0 0 0 0 0 0 0 0 0 0 0 0.08 0"/>
<feBlend mode="normal" in2="BackgroundImageFix" result="effect1_dropShadow_0_2875"/>
<feBlend mode="normal" in="SourceGraphic" in2="effect1_dropShadow_0_2875" result="shape"/>
</filter>
</defs>
</svg>
