<svg width="193" height="204" viewBox="0 0 193 204" fill="none" xmlns="http://www.w3.org/2000/svg">
<g filter="url(#filter0_d_0_3008)">
<path d="M95.275 8.73804C148.13 0.333109 184.288 65.5736 169.774 109.881C165.711 121.559 157.6 131.255 147.165 138.668C146.533 147.655 148.478 162.073 164.778 171.092C164.778 171.092 128.034 178.206 116.161 152.613C84.3499 160.593 47.8118 153.794 31.3846 128.186C31.3846 128.186 -19.9048 27.0432 95.2434 8.73804H95.275Z" fill="white"/>
</g>
<path d="M46.996 80.224C46.1373 80.224 45.708 79.9907 45.708 79.524L45.764 76.08L45.82 72.636C45.82 71.3853 45.792 69.4907 45.736 66.952C45.68 64.432 45.652 62.5373 45.652 61.268V61.1C45.652 60.6147 45.6987 60.1667 45.792 59.756C45.904 59.252 46.2027 59 46.688 59C47.9947 59 49.0307 59.42 49.796 60.26C50.5613 61.1 50.944 62.2107 50.944 63.592C50.944 64.432 50.72 65.3093 50.272 66.224C49.824 67.1387 49.292 67.82 48.676 68.268C49.7587 68.996 50.552 69.9387 51.056 71.096C51.5787 72.2347 51.84 73.4947 51.84 74.876C51.84 75.5293 51.616 76.3413 51.168 77.312C50.6267 78.4693 49.8893 79.3 48.956 79.804C48.396 80.084 47.78 80.224 47.108 80.224H46.996ZM47.276 67.848C47.7613 67.736 48.172 67.3347 48.508 66.644C48.788 66.1213 49.0493 65.4867 49.292 64.74C49.348 64.5347 49.4413 64.2733 49.572 63.956V62.976C49.572 62.416 49.3667 61.8747 48.956 61.352C48.5453 60.8293 48.0787 60.568 47.556 60.568C47.2947 60.568 47.164 60.8573 47.164 61.436C47.164 62.668 47.1827 63.7693 47.22 64.74L47.276 67.848ZM47.388 78.768C48.3027 78.6373 49.0307 78.2173 49.572 77.508C50.1133 76.7987 50.384 75.9493 50.384 74.96C50.384 74.1013 50.3093 73.3173 50.16 72.608C50.0293 71.88 49.852 71.3293 49.628 70.956C49.4227 70.6013 49.2173 70.3027 49.012 70.06C48.8067 69.8173 48.6293 69.6587 48.48 69.584L48.256 69.5H47.248C47.3413 71.6467 47.388 74.736 47.388 78.768ZM62.0167 80.28C61.4754 80.28 61.2047 80.0747 61.2047 79.664C61.2047 79.5707 61.2047 79.3747 61.2047 79.076C61.2047 78.7773 61.2234 78.4973 61.2607 78.236C61.3354 77.564 61.3727 76.7707 61.3727 75.856C61.3727 74.9787 61.3354 73.7933 61.2607 72.3C61.2234 71.46 61.186 70.1627 61.1487 68.408L61.0647 64.992L61.0367 63.816L61.0087 61.716C61.0087 61.4173 61.1767 61.2493 61.5127 61.212C61.8487 61.1933 62.1287 61.2867 62.3527 61.492C62.5767 61.6973 62.6887 61.9587 62.6887 62.276C62.6887 62.7427 62.67 63.48 62.6327 64.488L62.5487 71.684C62.53 71.9267 62.5207 72.2533 62.5207 72.664C62.5394 73.0747 62.5487 73.476 62.5487 73.868V75.548V76.556C62.5114 77.732 62.558 78.712 62.6887 79.496C62.726 79.7573 62.6794 79.9533 62.5487 80.084C62.4367 80.2147 62.2594 80.28 62.0167 80.28ZM55.4367 80.28C55.1754 80.28 54.942 80.2427 54.7367 80.168C54.5314 80.0933 54.438 79.9067 54.4567 79.608C54.494 79.1787 54.522 78.6467 54.5407 78.012C54.5594 77.3773 54.5687 76.9387 54.5687 76.696C54.5687 75.632 54.5967 74.512 54.6527 73.336C54.69 72.888 54.7087 72.1787 54.7087 71.208C54.7087 70.6667 54.6994 70.0227 54.6807 69.276C54.662 68.5293 54.6434 67.9693 54.6247 67.596C54.606 67.2787 54.5874 66.9053 54.5687 66.476C54.55 66.0467 54.5407 65.5707 54.5407 65.048C54.5034 64.4133 54.4847 63.9187 54.4847 63.564L54.4567 62.836C54.4567 62.7427 54.4567 62.556 54.4567 62.276C54.4567 61.9773 54.5034 61.744 54.5967 61.576C54.7087 61.408 54.8954 61.324 55.1567 61.324C55.3994 61.324 55.6047 61.4267 55.7727 61.632C55.9407 61.8187 56.0247 62.0427 56.0247 62.304C56.0247 62.5093 56.0434 62.8547 56.0807 63.34C56.118 64.1987 56.1367 64.88 56.1367 65.384C56.1367 66 56.09 66.6067 55.9967 67.204C55.9594 67.316 55.9407 67.5027 55.9407 67.764C55.9407 67.988 55.9594 68.3053 55.9967 68.716C56.146 68.772 56.4634 68.8933 56.9487 69.08C57.434 69.248 57.854 69.4533 58.2087 69.696C58.5634 69.92 58.8434 70.1813 59.0487 70.48C59.6834 71.5067 60.0007 72.3933 60.0007 73.14C60.0007 74.2973 59.9167 75.5853 59.7487 77.004C59.6554 77.844 59.3847 78.4693 58.9367 78.88C58.4887 79.2907 57.8354 79.6453 56.9767 79.944C56.7527 80.0187 56.482 80.084 56.1647 80.14C55.8474 80.196 55.6047 80.2427 55.4367 80.28ZM55.9967 78.768C56.2207 78.8053 56.3887 78.824 56.5007 78.824C56.874 78.824 57.182 78.6933 57.4247 78.432C58.078 77.7973 58.4047 77.0413 58.4047 76.164C58.442 75.3053 58.4607 74.5307 58.4607 73.84C58.4607 72.608 58.3674 71.8147 58.1807 71.46C58.05 71.0493 57.7887 70.704 57.3967 70.424C57.0047 70.144 56.5567 69.948 56.0527 69.836C55.922 71.1613 55.8567 72.6453 55.8567 74.288C55.8567 75.688 55.9034 77.1813 55.9967 78.768ZM71.977 80.28C71.5664 80.28 71.3144 80.1027 71.221 79.748C71.1464 79.524 71.109 79.2067 71.109 78.796C71.109 77.9933 71.1464 77.004 71.221 75.828C71.3144 74.708 71.361 73.7093 71.361 72.832C71.361 71.8427 71.389 70.3587 71.445 68.38L71.501 63.956C71.501 63.788 71.473 63.536 71.417 63.2L71.333 62.5V62.36C71.333 61.9307 71.3984 61.6133 71.529 61.408C71.6597 61.2027 71.9024 61.1 72.257 61.1C72.7424 61.1 73.2744 61.24 73.853 61.52C74.4317 61.8 74.8517 62.1547 75.113 62.584C75.6544 63.48 75.925 64.6 75.925 65.944C75.925 66.952 75.841 67.8013 75.673 68.492C75.505 69.164 75.2157 69.7893 74.805 70.368C75.309 70.8533 75.645 71.4787 75.813 72.244C75.9997 72.9907 76.093 73.9333 76.093 75.072C76.093 76.2107 75.897 77.2 75.505 78.04C75.057 78.992 74.4037 79.6453 73.545 80C73.0224 80.1867 72.4997 80.28 71.977 80.28ZM72.873 69.556C73.8437 69.5373 74.329 68.408 74.329 66.168C74.329 63.76 73.9464 62.5 73.181 62.388C72.9757 62.8173 72.873 63.8253 72.873 65.412L72.873 69.556ZM72.705 78.852C73.3024 78.7213 73.769 78.3667 74.105 77.788C74.441 77.2093 74.609 76.5467 74.609 75.8C74.609 75.016 74.5624 74.3253 74.469 73.728C74.3944 73.2613 74.2917 72.8787 74.161 72.58C74.049 72.2627 73.8904 71.9733 73.685 71.712C73.461 71.432 73.1997 71.264 72.901 71.208C72.8264 72.272 72.789 73.6813 72.789 75.436C72.789 75.548 72.7704 75.9027 72.733 76.5L72.677 77.452C72.677 77.4893 72.6864 77.5173 72.705 77.536V77.592V78.852ZM89.1907 80C88.556 80 88.2387 78.46 88.2387 75.38L88.2667 73.784L88.2947 72.496V72.412V72.132C88.3134 71.9827 88.3227 71.8053 88.3227 71.6C88.3227 71.5627 88.2947 71.516 88.2387 71.46C88.1827 71.404 88.1547 71.3573 88.1547 71.32V71.292C88.0614 71.3293 87.8934 71.348 87.6507 71.348C87.408 71.348 87.1094 71.3107 86.7547 71.236C86.6427 71.2173 86.344 71.1707 85.8587 71.096V74.316C85.8587 74.8013 85.8867 75.5667 85.9427 76.612C85.9987 77.6387 86.0267 78.404 86.0267 78.908C86.0267 79.188 85.952 79.4307 85.8027 79.636C85.6534 79.8413 85.4574 79.944 85.2147 79.944C84.86 79.944 84.608 79.5987 84.4587 78.908C84.3094 78.1987 84.2347 77.2747 84.2347 76.136L84.2907 73.868C84.3094 73.2333 84.3187 72.5613 84.3187 71.852V71.376V70.984C84.3187 70.6853 84.3094 70.4893 84.2907 70.396V70.256L84.3747 68.632C84.3747 67.9227 84.3467 66.868 84.2907 65.468C84.2347 64.068 84.2067 63.0133 84.2067 62.304C84.2067 62.08 84.2814 61.884 84.4307 61.716C84.58 61.548 84.7667 61.464 84.9907 61.464C85.588 61.464 85.8867 62.024 85.8867 63.144L85.8307 66.616C85.7934 67.6613 85.7747 68.828 85.7747 70.116C86.0547 70.2093 86.5587 70.256 87.2867 70.256H88.3227C88.36 70.144 88.3787 70.032 88.3787 69.92C88.3787 69.024 88.3227 67.6987 88.2107 65.944C88.08 64.3013 88.0147 62.9667 88.0147 61.94C88.0147 61.7347 88.0894 61.5667 88.2387 61.436C88.4067 61.2867 88.6027 61.212 88.8267 61.212C88.9574 61.212 89.144 61.2587 89.3867 61.352L89.6387 61.464C89.6387 64.1147 89.732 67.652 89.9187 72.076L90.1707 79.16C90.1707 79.4213 90.068 79.6267 89.8627 79.776C89.676 79.9253 89.452 80 89.1907 80ZM94.8202 80.28C94.6522 80.28 94.4935 80.196 94.3442 80.028C94.2135 79.86 94.1855 79.692 94.2602 79.524C94.3162 79.356 94.4469 79.076 94.6522 78.684C95.2309 77.732 95.6135 76.444 95.8002 74.82C95.8189 74.708 95.7442 74.568 95.5762 74.4C95.4269 74.2133 95.3335 74.0733 95.2962 73.98L94.9042 73.42C94.5122 72.8787 94.1855 72.384 93.9242 71.936C93.6815 71.4693 93.4482 70.8533 93.2242 70.088C93.1309 69.7707 93.0655 69.4347 93.0282 69.08C92.9909 68.7067 92.9722 68.4733 92.9722 68.38L92.9162 67.736C92.8975 67.4187 92.8695 67.1387 92.8322 66.896C92.7949 66.6347 92.7669 66.42 92.7482 66.252C92.5802 65.1693 92.4962 64.2827 92.4962 63.592C92.4962 63.3307 92.5055 63.1347 92.5242 63.004C92.5429 62.724 92.5429 62.472 92.5242 62.248C92.5242 62.024 92.5242 61.8373 92.5242 61.688C92.5429 61.3147 92.6735 61.128 92.9162 61.128C92.9722 61.128 93.0749 61.1467 93.2242 61.184C93.9149 61.3893 94.2602 61.7813 94.2602 62.36C94.2602 62.5093 94.2415 62.7893 94.2042 63.2L94.1202 64.348C94.1202 64.8707 94.1295 65.2627 94.1482 65.524C94.2975 67.0733 94.4655 68.604 94.6522 70.116C94.7082 70.5267 94.8389 70.9093 95.0442 71.264C95.2682 71.6 95.4922 71.88 95.7162 72.104C95.9589 72.3093 96.0989 72.412 96.1362 72.412C96.2482 72.076 96.3135 71.852 96.3322 71.74C96.4442 70.0787 96.5095 68.856 96.5282 68.072C96.5469 67.4187 96.5562 66.336 96.5562 64.824L96.5562 61.548C96.5749 61.3987 96.6122 61.296 96.6682 61.24C96.7429 61.1653 96.8642 61.128 97.0322 61.128C97.4055 61.128 97.7135 61.268 97.9562 61.548C98.1989 61.8093 98.2922 62.1267 98.2362 62.5C98.1802 62.948 98.1522 63.5453 98.1522 64.292C98.1522 64.74 98.1615 65.048 98.1802 65.216C98.1989 65.384 98.2082 65.6173 98.2082 65.916C98.2082 66.3827 98.1709 67.0453 98.0962 67.904C98.0962 68.1093 98.0775 68.436 98.0402 68.884C98.0029 69.444 97.9095 70.3027 97.7602 71.46L97.6482 72.384C97.5362 73.504 97.3122 74.8853 96.9762 76.528C96.8642 77.0507 96.6962 77.6013 96.4722 78.18C96.2482 78.74 95.9962 79.2627 95.7162 79.748C95.6602 79.8787 95.5389 80 95.3522 80.112C95.1655 80.224 94.9882 80.28 94.8202 80.28ZM101.696 80.42C100.93 80.42 100.426 80.0467 100.184 79.3C100.09 79.0573 100.044 78.768 100.044 78.432C100.044 78.1707 100.072 77.872 100.128 77.536C100.184 77.2 100.221 76.976 100.24 76.864C100.258 76.7147 100.324 76.5933 100.436 76.5C100.566 76.4067 100.716 76.3507 100.884 76.332C101.052 76.332 101.21 76.388 101.36 76.5C101.509 76.612 101.612 76.7427 101.668 76.892C101.705 77.0787 101.724 77.564 101.724 78.348C101.817 78.404 101.91 78.4227 102.004 78.404C102.06 78.2547 102.125 78.0773 102.2 77.872C102.293 77.648 102.358 77.4613 102.396 77.312C102.769 75.5947 103.03 74.2973 103.18 73.42C103.292 72.8413 103.46 72.3373 103.684 71.908C103.926 71.4787 104.281 71.096 104.748 70.76C104.43 70.3493 104.188 69.7893 104.02 69.08C103.852 68.352 103.768 67.6333 103.768 66.924V65.496C103.768 64.8427 103.758 64.3573 103.74 64.04C103.74 63.816 103.665 63.5267 103.516 63.172C103.385 62.8173 103.254 62.64 103.124 62.64C102.956 62.6773 102.797 62.78 102.648 62.948C102.554 63.172 102.498 63.452 102.48 63.788C102.461 64.1053 102.452 64.3013 102.452 64.376C102.396 64.8987 102.116 65.132 101.612 65.076C101.425 65.0573 101.257 64.964 101.108 64.796C100.958 64.6093 100.884 64.404 100.884 64.18C100.884 63.788 101.005 63.3773 101.248 62.948C101.49 62.5187 101.78 62.164 102.116 61.884C102.47 61.604 102.806 61.464 103.124 61.464C103.366 61.464 103.618 61.548 103.88 61.716C104.16 61.8653 104.393 62.0613 104.58 62.304C104.934 62.808 105.112 63.6107 105.112 64.712C105.112 65.0293 105.093 65.5053 105.056 66.14L105.028 66.7C105.028 67.372 105.074 68.0627 105.168 68.772C105.28 69.4627 105.457 69.9947 105.7 70.368C105.718 70.3867 105.765 70.396 105.84 70.396C105.933 70.396 106.008 70.4053 106.064 70.424V70.284C106.064 68.828 106.045 66.98 106.008 64.74C106.008 64.516 106.026 64.18 106.064 63.732L106.092 62.78C106.092 62.5 106.082 62.2853 106.064 62.136C106.045 62.08 106.036 62.0053 106.036 61.912C106.036 61.4827 106.269 61.2213 106.736 61.128C106.885 61.0907 107.062 61.156 107.268 61.324C107.492 61.4733 107.641 61.66 107.716 61.884C107.772 62.052 107.8 62.2387 107.8 62.444C107.8 62.5747 107.79 62.668 107.772 62.724C107.51 63.9933 107.38 65.188 107.38 66.308L107.38 70.564C107.641 70.6573 107.865 70.7227 108.052 70.76C108.462 70.816 108.705 70.5547 108.78 69.976C108.836 69.7333 108.901 69.2667 108.976 68.576C108.994 68.464 109.004 68.3613 109.004 68.268C109.004 68.1747 109.013 68.0813 109.032 67.988L109.172 66.812C109.228 66.1587 109.312 65.5147 109.424 64.88C109.648 63.7413 110.105 62.808 110.796 62.08C111.076 61.8 111.412 61.66 111.804 61.66C112.102 61.66 112.382 61.744 112.644 61.912C112.924 62.0613 113.129 62.276 113.26 62.556C113.428 62.9293 113.54 63.312 113.596 63.704C113.67 64.0773 113.726 64.5627 113.764 65.16C113.782 65.384 113.726 65.5427 113.596 65.636C113.465 65.7107 113.25 65.804 112.952 65.916C112.69 65.8413 112.485 65.7013 112.336 65.496C112.205 65.2907 112.158 65.0293 112.196 64.712C112.252 64.1893 112.093 63.6947 111.72 63.228C111.421 63.4893 111.197 63.7787 111.048 64.096C110.898 64.3947 110.786 64.796 110.712 65.3C110.637 65.804 110.572 66.1493 110.516 66.336C110.366 67.0453 110.292 67.5867 110.292 67.96C110.292 68.3333 110.236 68.8 110.124 69.36C110.012 69.92 109.881 70.3773 109.732 70.732C109.676 70.844 109.648 70.9467 109.648 71.04C109.648 71.208 109.722 71.3667 109.872 71.516C110.133 71.796 110.329 72.2533 110.46 72.888C110.516 73.1867 110.544 73.56 110.544 74.008L110.516 75.1C110.478 75.66 110.46 76.08 110.46 76.36C110.46 76.696 110.525 77.0133 110.656 77.312C110.805 77.592 111.02 77.9373 111.3 78.348C111.374 78.46 111.486 78.516 111.636 78.516C111.841 78.516 112.018 78.4133 112.168 78.208C112.373 77.7413 112.504 77.3493 112.56 77.032C112.616 76.7147 112.653 76.5093 112.672 76.416C112.728 75.9493 112.952 75.716 113.344 75.716C113.474 75.716 113.577 75.7253 113.652 75.744L114.016 75.884C114.09 76.164 114.128 76.472 114.128 76.808C114.128 77.648 113.82 78.516 113.204 79.412C113.054 79.636 112.84 79.8133 112.56 79.944C112.298 80.0747 112 80.14 111.664 80.14C111.309 80.14 111.001 80.0653 110.74 79.916C110.478 79.748 110.273 79.5333 110.124 79.272C109.881 78.7867 109.694 78.3387 109.564 77.928C109.433 77.5173 109.368 77.088 109.368 76.64C109.368 76.08 109.349 75.464 109.312 74.792C109.274 74.12 109.246 73.6533 109.228 73.392L109.172 72.636C109.172 72.3373 109.06 72.132 108.836 72.02C108.63 71.8893 108.378 71.796 108.08 71.74C107.781 71.6653 107.548 71.6093 107.38 71.572C107.342 72.2067 107.324 72.6733 107.324 72.972C107.324 73.3267 107.305 73.84 107.268 74.512C107.23 75.52 107.221 76.2667 107.24 76.752C107.258 76.9947 107.296 77.2653 107.352 77.564C107.408 77.8627 107.445 78.068 107.464 78.18C107.538 78.4413 107.585 78.6373 107.604 78.768C107.641 78.9173 107.66 79.0387 107.66 79.132C107.66 79.3933 107.585 79.608 107.436 79.776C107.286 79.9253 107.062 80.0093 106.764 80.028C106.521 80.0467 106.362 80 106.288 79.888C106.213 79.7573 106.166 79.552 106.148 79.272L106.176 77.956C106.176 77.396 106.157 76.5373 106.12 75.38C106.082 74.6333 106.064 74.064 106.064 73.672V71.404C105.858 71.3853 105.69 71.432 105.56 71.544C105.448 71.656 105.336 71.8053 105.224 71.992C104.944 72.4213 104.738 72.8787 104.608 73.364C104.477 73.8493 104.346 74.4747 104.216 75.24L104.104 75.884C103.88 77.228 103.562 78.3853 103.152 79.356C103.021 79.692 102.825 79.9533 102.564 80.14C102.302 80.3267 102.013 80.42 101.696 80.42ZM121.456 80C120.822 80 120.504 78.46 120.504 75.38L120.532 73.784L120.56 72.496V72.412V72.132C120.579 71.9827 120.588 71.8053 120.588 71.6C120.588 71.5627 120.56 71.516 120.504 71.46C120.448 71.404 120.42 71.3573 120.42 71.32V71.292C120.327 71.3293 120.159 71.348 119.916 71.348C119.674 71.348 119.375 71.3107 119.02 71.236C118.908 71.2173 118.61 71.1707 118.124 71.096L118.124 74.316C118.124 74.8013 118.152 75.5667 118.208 76.612C118.264 77.6387 118.292 78.404 118.292 78.908C118.292 79.188 118.218 79.4307 118.068 79.636C117.919 79.8413 117.723 79.944 117.48 79.944C117.126 79.944 116.874 79.5987 116.724 78.908C116.575 78.1987 116.5 77.2747 116.5 76.136L116.556 73.868C116.575 73.2333 116.584 72.5613 116.584 71.852V71.376V70.984C116.584 70.6853 116.575 70.4893 116.556 70.396V70.256L116.64 68.632C116.64 67.9227 116.612 66.868 116.556 65.468C116.5 64.068 116.472 63.0133 116.472 62.304C116.472 62.08 116.547 61.884 116.696 61.716C116.846 61.548 117.032 61.464 117.256 61.464C117.854 61.464 118.152 62.024 118.152 63.144L118.096 66.616C118.059 67.6613 118.04 68.828 118.04 70.116C118.32 70.2093 118.824 70.256 119.552 70.256H120.588C120.626 70.144 120.644 70.032 120.644 69.92C120.644 69.024 120.588 67.6987 120.476 65.944C120.346 64.3013 120.28 62.9667 120.28 61.94C120.28 61.7347 120.355 61.5667 120.504 61.436C120.672 61.2867 120.868 61.212 121.092 61.212C121.223 61.212 121.41 61.2587 121.652 61.352L121.904 61.464C121.904 64.1147 121.998 67.652 122.184 72.076L122.436 79.16C122.436 79.4213 122.334 79.6267 122.128 79.776C121.942 79.9253 121.718 80 121.456 80ZM129.074 80.532C128.589 80.532 128.141 80.3733 127.73 80.056C127.319 79.7573 126.983 79.3467 126.722 78.824C126.181 77.6853 125.845 76.444 125.714 75.1C125.546 73.8307 125.462 72.608 125.462 71.432C125.462 71.208 125.471 71.0213 125.49 70.872V70.368C125.49 70.2747 125.481 70.228 125.462 70.228V69.724L125.49 67.764C125.509 67.1667 125.583 66.2147 125.714 64.908C125.807 64.012 126.022 63.144 126.358 62.304C126.489 61.9307 126.657 61.6507 126.862 61.464C127.067 61.2587 127.301 61.156 127.562 61.156C128.309 61.156 128.981 61.296 129.578 61.576C130.175 61.8373 130.679 62.2107 131.09 62.696C131.463 63.1627 131.781 63.7413 132.042 64.432C132.303 65.104 132.49 65.8227 132.602 66.588C132.714 67.372 132.77 68.2027 132.77 69.08V69.304C132.77 69.8827 132.779 70.4053 132.798 70.872L132.826 72.468C132.826 77.844 131.575 80.532 129.074 80.532ZM128.962 79.356C129.298 79.356 129.606 79.2253 129.886 78.964C130.166 78.684 130.381 78.3107 130.53 77.844C130.885 76.892 131.099 75.8653 131.174 74.764C131.267 73.812 131.314 72.9907 131.314 72.3C131.314 71.46 131.249 70.3587 131.118 68.996C131.006 67.5587 130.95 66.4853 130.95 65.776V65.272C130.913 64.5627 130.67 63.9467 130.222 63.424C129.793 62.9013 129.261 62.64 128.626 62.64C127.991 62.64 127.571 63.004 127.366 63.732C127.179 64.3107 127.086 65.0573 127.086 65.972C127.086 66.3267 127.095 66.6253 127.114 66.868V67.624L127.058 68.912C127.021 69.304 127.002 69.7333 127.002 70.2C127.002 71.208 127.03 72.2067 127.086 73.196C127.161 74.596 127.347 75.9587 127.646 77.284C127.945 78.6653 128.383 79.356 128.962 79.356ZM147.172 81.456C146.593 81.456 146.304 80.8773 146.304 79.72V77.928V76.136C146.304 75.2027 146.238 73.98 146.108 72.468C145.958 70.7693 145.884 69.6027 145.884 68.968L145.94 67.232C145.977 66.728 145.996 66.1587 145.996 65.524C145.921 65.7667 145.613 67.0547 145.072 69.388C144.53 71.6467 143.97 73.7373 143.392 75.66C142.832 77.508 142.374 78.432 142.02 78.432C141.665 78.432 141.376 78.3293 141.152 78.124C140.946 77.9 140.844 77.6013 140.844 77.228C140.844 76.4067 140.508 74.6613 139.836 71.992C139.182 69.3227 138.585 67.1387 138.044 65.44L137.876 68.604C137.726 71.2733 137.624 73.4947 137.568 75.268C137.53 76.9853 137.512 78.1613 137.512 78.796C137.512 78.9453 137.521 79.0853 137.54 79.216V79.608C137.54 79.9253 137.474 80.1587 137.344 80.308C137.213 80.476 136.97 80.56 136.616 80.56C136.429 80.56 136.252 80.4853 136.084 80.336C135.916 80.2053 135.832 80.056 135.832 79.888C135.832 77.984 135.972 75.128 136.252 71.32C136.532 67.512 136.672 64.656 136.672 62.752C136.56 62.584 136.504 62.4067 136.504 62.22C136.504 61.996 136.606 61.828 136.812 61.716C137.036 61.5853 137.297 61.52 137.596 61.52C137.838 61.52 138.286 62.3973 138.94 64.152C139.593 65.9067 140.246 67.8947 140.9 70.116C141.553 72.3373 141.973 73.9427 142.16 74.932C142.309 74.428 142.43 73.9613 142.524 73.532L142.692 72.86C143.289 70.2467 143.886 67.8853 144.484 65.776C144.838 64.488 145.184 63.48 145.52 62.752C145.856 61.968 146.164 61.576 146.444 61.576C146.705 61.576 146.938 61.6507 147.144 61.8C147.368 61.9307 147.48 62.108 147.48 62.332C147.48 63.676 147.536 65.692 147.648 68.38C147.778 70.8813 147.844 72.8227 147.844 74.204L147.816 75.688L147.76 77.172C147.76 77.396 147.788 77.732 147.844 78.18L147.928 79.16C147.946 79.328 147.956 79.4587 147.956 79.552C147.974 79.6453 147.984 79.7013 147.984 79.72C148.077 79.9627 148.124 80.14 148.124 80.252C148.124 80.5693 148.03 80.8493 147.844 81.092C147.657 81.3347 147.433 81.456 147.172 81.456ZM56.992 109.456C56.4133 109.456 56.124 108.877 56.124 107.72V105.928L56.124 104.136C56.124 103.203 56.0587 101.98 55.928 100.468C55.7787 98.7693 55.704 97.6027 55.704 96.968L55.76 95.232C55.7973 94.728 55.816 94.1587 55.816 93.524C55.7413 93.7667 55.4333 95.0547 54.892 97.388C54.3507 99.6467 53.7907 101.737 53.212 103.66C52.652 105.508 52.1947 106.432 51.84 106.432C51.4853 106.432 51.196 106.329 50.972 106.124C50.7667 105.9 50.664 105.601 50.664 105.228C50.664 104.407 50.328 102.661 49.656 99.992C49.0027 97.3227 48.4053 95.1387 47.864 93.44L47.696 96.604C47.5467 99.2733 47.444 101.495 47.388 103.268C47.3507 104.985 47.332 106.161 47.332 106.796C47.332 106.945 47.3413 107.085 47.36 107.216V107.608C47.36 107.925 47.2947 108.159 47.164 108.308C47.0333 108.476 46.7907 108.56 46.436 108.56C46.2493 108.56 46.072 108.485 45.904 108.336C45.736 108.205 45.652 108.056 45.652 107.888C45.652 105.984 45.792 103.128 46.072 99.32C46.352 95.512 46.492 92.656 46.492 90.752C46.38 90.584 46.324 90.4067 46.324 90.22C46.324 89.996 46.4267 89.828 46.632 89.716C46.856 89.5853 47.1173 89.52 47.416 89.52C47.6587 89.52 48.1067 90.3973 48.76 92.152C49.4133 93.9067 50.0667 95.8947 50.72 98.116C51.3733 100.337 51.7933 101.943 51.98 102.932C52.1293 102.428 52.2507 101.961 52.344 101.532L52.512 100.86C53.1093 98.2467 53.7067 95.8853 54.304 93.776C54.6587 92.488 55.004 91.48 55.34 90.752C55.676 89.968 55.984 89.576 56.264 89.576C56.5253 89.576 56.7587 89.6507 56.964 89.8C57.188 89.9307 57.3 90.108 57.3 90.332C57.3 91.676 57.356 93.692 57.468 96.38C57.5987 98.8813 57.664 100.823 57.664 102.204L57.636 103.688L57.58 105.172C57.58 105.396 57.608 105.732 57.664 106.18L57.748 107.16C57.7667 107.328 57.776 107.459 57.776 107.552C57.7947 107.645 57.804 107.701 57.804 107.72C57.8973 107.963 57.944 108.14 57.944 108.252C57.944 108.569 57.8507 108.849 57.664 109.092C57.4773 109.335 57.2533 109.456 56.992 109.456ZM62.6913 108.364C62.4486 108.364 62.2246 108.28 62.0193 108.112C61.8326 107.944 61.73 107.739 61.7113 107.496V106.768L61.7113 106.208C61.6926 106.04 61.6833 105.844 61.6833 105.62C61.6833 105.228 61.6553 104.631 61.5993 103.828L61.5433 102.036C61.5433 101.121 61.5713 99.7587 61.6273 97.948C61.702 96.324 61.7393 94.9613 61.7393 93.86C61.7393 93.5987 61.7113 93.2067 61.6553 92.684C61.5993 92.1427 61.5713 91.7507 61.5713 91.508C61.5713 90.1827 61.9633 89.52 62.7473 89.52C63.3633 89.52 64.0726 89.6413 64.8753 89.884C65.6966 90.1267 66.1073 90.416 66.1073 90.752C66.1073 90.9387 66.0233 91.116 65.8553 91.284C65.706 91.4333 65.5193 91.5547 65.2953 91.648C64.5113 91.368 63.802 91.1813 63.1673 91.088C63.186 91.368 63.1953 91.7693 63.1953 92.292C63.1953 93.0387 63.186 93.7107 63.1673 94.308C63.1113 95.204 63.0833 95.876 63.0833 96.324L63.1673 96.772L63.6153 96.744C63.7646 96.7253 63.9513 96.716 64.1753 96.716C65.0713 96.716 65.5193 96.9773 65.5193 97.5C65.5193 97.7053 65.4353 97.8827 65.2673 98.032C65.0993 98.1627 64.8846 98.228 64.6233 98.228C64.2873 98.228 64.026 98.2093 63.8393 98.172H63.1393C63.1766 98.6573 63.1953 99.3667 63.1953 100.3C63.1953 101.233 63.186 102.073 63.1673 102.82C63.1113 103.959 63.0833 104.808 63.0833 105.368C63.0833 106.413 63.102 106.936 63.1393 106.936L64.0633 106.908C64.3806 106.889 64.7633 106.88 65.2113 106.88C65.9206 106.88 66.2753 107.104 66.2753 107.552C66.2753 107.813 66.154 108.009 65.9113 108.14C65.6873 108.289 65.4073 108.364 65.0713 108.364H62.6913ZM73.1123 108.392C72.7017 108.392 72.263 108.327 71.7963 108.196C71.3483 108.084 71.003 107.953 70.7603 107.804C69.5097 107.001 68.8843 104.808 68.8843 101.224V100.468V99.6V98.928C68.8843 98.1813 68.8937 97.5187 68.9123 96.94C68.931 96.3427 68.9683 95.6987 69.0243 95.008C69.0803 94.28 69.1643 93.692 69.2763 93.244C69.3883 92.7773 69.575 92.2547 69.8363 91.676C70.0603 91.1347 70.331 90.7147 70.6483 90.416C70.9843 90.1173 71.4137 89.8653 71.9363 89.66C72.403 89.4547 72.9817 89.352 73.6723 89.352C73.9523 89.352 74.167 89.4173 74.3163 89.548C74.4657 89.6787 74.5403 89.8467 74.5403 90.052C74.5403 90.2387 74.475 90.4067 74.3443 90.556C74.2323 90.7053 74.0923 90.7893 73.9243 90.808H72.6083C72.235 90.808 71.9083 91.0413 71.6283 91.508C71.3483 91.9747 71.1523 92.5813 71.0403 93.328C70.7977 94.7093 70.6763 95.8293 70.6763 96.688V96.828L70.6203 99.516C70.583 100.319 70.5643 101.224 70.5643 102.232C70.5643 102.941 70.5923 103.52 70.6483 103.968C70.7417 104.64 70.9003 105.2 71.1243 105.648C71.3483 106.152 71.731 106.516 72.2723 106.74C72.5523 106.852 72.8603 106.908 73.1963 106.908C73.4017 106.908 73.607 106.833 73.8123 106.684C74.055 106.684 74.251 106.74 74.4003 106.852C74.5683 106.945 74.6523 107.095 74.6523 107.3C74.6523 108.028 74.139 108.392 73.1123 108.392ZM78.7487 107.552L78.7207 106.46C78.702 106.143 78.6927 105.788 78.6927 105.396L78.7207 104.444C78.6647 104.239 78.5247 102.195 78.3007 98.312C78.0767 94.4293 77.946 91.9373 77.9087 90.836C76.826 90.7987 76.1353 90.6867 75.8367 90.5C75.6313 90.3507 75.5287 90.1827 75.5287 89.996C75.5287 89.8467 75.622 89.716 75.8087 89.604C76.014 89.4733 76.2193 89.408 76.4247 89.408C76.9473 89.408 77.582 89.4453 78.3287 89.52C79.038 89.6133 79.6727 89.66 80.2327 89.66H80.4567H80.6807C81.2593 89.66 81.5487 89.884 81.5487 90.332C81.5487 90.556 81.4553 90.7427 81.2687 90.892C81.082 91.0227 80.8673 91.088 80.6247 91.088C80.4567 91.088 80.214 91.06 79.8967 91.004L79.3367 90.892L79.3087 91.032L79.2807 91.172C79.2807 92.8333 79.4393 95.484 79.7567 99.124C80.0553 102.54 80.2047 105.191 80.2047 107.076C80.2047 107.3 80.102 107.496 79.8967 107.664C79.71 107.832 79.4953 107.916 79.2527 107.916L78.7487 107.552ZM85.6327 108.364C85.39 108.364 85.166 108.28 84.9607 108.112C84.774 107.944 84.6714 107.739 84.6527 107.496V106.768V106.208C84.634 106.04 84.6247 105.844 84.6247 105.62C84.6247 105.228 84.5967 104.631 84.5407 103.828L84.4847 102.036C84.4847 101.121 84.5127 99.7587 84.5687 97.948C84.6434 96.324 84.6807 94.9613 84.6807 93.86C84.6807 93.5987 84.6527 93.2067 84.5967 92.684C84.5407 92.1427 84.5127 91.7507 84.5127 91.508C84.5127 90.1827 84.9047 89.52 85.6887 89.52C86.3047 89.52 87.014 89.6413 87.8167 89.884C88.638 90.1267 89.0487 90.416 89.0487 90.752C89.0487 90.9387 88.9647 91.116 88.7967 91.284C88.6474 91.4333 88.4607 91.5547 88.2367 91.648C87.4527 91.368 86.7434 91.1813 86.1087 91.088C86.1274 91.368 86.1367 91.7693 86.1367 92.292C86.1367 93.0387 86.1274 93.7107 86.1087 94.308C86.0527 95.204 86.0247 95.876 86.0247 96.324L86.1087 96.772L86.5567 96.744C86.706 96.7253 86.8927 96.716 87.1167 96.716C88.0127 96.716 88.4607 96.9773 88.4607 97.5C88.4607 97.7053 88.3767 97.8827 88.2087 98.032C88.0407 98.1627 87.826 98.228 87.5647 98.228C87.2287 98.228 86.9674 98.2093 86.7807 98.172H86.0807C86.118 98.6573 86.1367 99.3667 86.1367 100.3C86.1367 101.233 86.1274 102.073 86.1087 102.82C86.0527 103.959 86.0247 104.808 86.0247 105.368C86.0247 106.413 86.0434 106.936 86.0807 106.936L87.0047 106.908C87.322 106.889 87.7047 106.88 88.1527 106.88C88.862 106.88 89.2167 107.104 89.2167 107.552C89.2167 107.813 89.0954 108.009 88.8527 108.14C88.6287 108.289 88.3487 108.364 88.0127 108.364L85.6327 108.364ZM92.7217 110.632C92.5351 110.632 92.4231 110.548 92.3857 110.38V110.212L93.0577 109.372C93.3004 109.036 93.4591 108.728 93.5337 108.448C93.5524 108.392 93.5617 108.308 93.5617 108.196C93.5617 108.084 93.5524 108 93.5337 107.944C93.2351 107.944 93.0017 107.86 92.8337 107.692C92.6844 107.505 92.5817 107.225 92.5257 106.852C92.4697 106.516 92.5631 106.264 92.8057 106.096C93.0671 105.909 93.3937 105.816 93.7857 105.816C94.3644 105.816 94.7097 106.124 94.8217 106.74C94.8964 107.207 94.7657 107.823 94.4297 108.588C94.0937 109.353 93.6644 109.979 93.1417 110.464C93.0297 110.557 92.9177 110.613 92.8057 110.632H92.7217ZM106.745 108.392C106.334 108.392 105.896 108.327 105.429 108.196C104.981 108.084 104.636 107.953 104.393 107.804C103.142 107.001 102.517 104.808 102.517 101.224V100.468V99.6V98.928C102.517 98.1813 102.526 97.5187 102.545 96.94C102.564 96.3427 102.601 95.6987 102.657 95.008C102.713 94.28 102.797 93.692 102.909 93.244C103.021 92.7773 103.208 92.2547 103.469 91.676C103.693 91.1347 103.964 90.7147 104.281 90.416C104.617 90.1173 105.046 89.8653 105.569 89.66C106.036 89.4547 106.614 89.352 107.305 89.352C107.585 89.352 107.8 89.4173 107.949 89.548C108.098 89.6787 108.173 89.8467 108.173 90.052C108.173 90.2387 108.108 90.4067 107.977 90.556C107.865 90.7053 107.725 90.7893 107.557 90.808H106.241C105.868 90.808 105.541 91.0413 105.261 91.508C104.981 91.9747 104.785 92.5813 104.673 93.328C104.43 94.7093 104.309 95.8293 104.309 96.688V96.828L104.253 99.516C104.216 100.319 104.197 101.224 104.197 102.232C104.197 102.941 104.225 103.52 104.281 103.968C104.374 104.64 104.533 105.2 104.757 105.648C104.981 106.152 105.364 106.516 105.905 106.74C106.185 106.852 106.493 106.908 106.829 106.908C107.034 106.908 107.24 106.833 107.445 106.684C107.688 106.684 107.884 106.74 108.033 106.852C108.201 106.945 108.285 107.095 108.285 107.3C108.285 108.028 107.772 108.392 106.745 108.392ZM111.597 108.392C110.981 108.392 110.515 108.177 110.197 107.748C109.936 107.449 109.805 107.113 109.805 106.74C109.805 106.572 109.871 106.441 110.001 106.348C110.132 106.255 110.281 106.208 110.449 106.208C110.561 106.208 110.673 106.236 110.785 106.292C110.897 106.348 111.047 106.469 111.233 106.656C111.42 106.843 111.579 106.983 111.709 107.076C111.859 107.151 112.045 107.188 112.269 107.188C112.475 107.188 112.661 107.141 112.829 107.048C113.016 106.955 113.24 106.815 113.501 106.628C114.117 106.18 114.556 105.629 114.817 104.976C115.097 104.304 115.275 103.52 115.349 102.624C115.368 102.493 115.368 102.325 115.349 102.12C115.349 101.915 115.359 101.737 115.377 101.588C115.359 101.308 115.349 101 115.349 100.664C115.368 100.328 115.377 100.085 115.377 99.936C115.396 99.7867 115.405 99.5813 115.405 99.32C115.405 98.984 115.377 98.816 115.321 98.816C115.321 98.8533 114.948 98.8813 114.201 98.9C113.473 98.9187 112.951 98.928 112.633 98.928C112.335 98.928 112.185 98.8067 112.185 98.564C112.185 98.452 112.195 98.368 112.213 98.312C112.251 98.088 112.372 97.92 112.577 97.808C112.801 97.6773 113.072 97.6307 113.389 97.668C113.632 97.6867 114.005 97.696 114.509 97.696C114.677 97.7147 114.929 97.724 115.265 97.724C115.284 97.6493 115.293 97.5093 115.293 97.304C115.293 96.7627 115.219 96.0813 115.069 95.26C114.939 94.4387 114.761 93.6827 114.537 92.992C114.5 92.8427 114.397 92.488 114.229 91.928C114.061 91.3493 113.828 90.92 113.529 90.64C113.249 90.3413 112.885 90.192 112.437 90.192C112.213 90.192 111.98 90.2387 111.737 90.332C111.495 90.4067 111.252 90.4907 111.009 90.584C110.86 90.6587 110.729 90.696 110.617 90.696C110.487 90.696 110.384 90.6493 110.309 90.556C110.216 90.4627 110.169 90.3507 110.169 90.22C110.169 89.996 110.375 89.7907 110.785 89.604C111.308 89.3613 111.737 89.1933 112.073 89.1C112.428 88.988 112.792 88.9413 113.165 88.96C113.8 89.016 114.285 89.1933 114.621 89.492C114.957 89.772 115.275 90.2293 115.573 90.864C116.096 91.9093 116.385 93.1693 116.441 94.644C116.479 95.0547 116.516 95.344 116.553 95.512C116.74 97.1547 116.833 98.3867 116.833 99.208C116.833 99.4693 116.815 99.8613 116.777 100.384C116.74 100.981 116.731 101.448 116.749 101.784C116.805 103.763 116.451 105.368 115.685 106.6C115.424 107.067 115.051 107.449 114.565 107.748C114.099 108.028 113.576 108.215 112.997 108.308C112.717 108.364 112.251 108.392 111.597 108.392ZM120.508 108.196C120.265 107.207 120.144 105.835 120.144 104.08L120.2 101.588C120.237 100.841 120.256 100.011 120.256 99.096C120.144 98.8347 120.088 98.6013 120.088 98.396V98.312C120.274 97.9573 120.368 97.1547 120.368 95.904L120.396 94.616C120.414 94.2053 120.424 93.748 120.424 93.244C120.424 92.1427 120.349 91.2747 120.2 90.64C120.256 90.3787 120.349 90.1547 120.48 89.968C120.61 89.7627 120.769 89.66 120.956 89.66H122.188C122.71 89.66 123.168 89.7813 123.56 90.024C123.952 90.248 124.25 90.5747 124.456 91.004C124.829 91.7693 125.016 92.6747 125.016 93.72C125.016 94.4667 125.006 95.0547 124.988 95.484C124.95 96.0253 124.857 96.52 124.708 96.968C124.652 97.2107 124.568 97.416 124.456 97.584C124.362 97.7333 124.222 97.92 124.036 98.144C123.774 98.4613 123.345 98.76 122.748 99.04C122.505 99.1707 122.188 99.292 121.796 99.404V102.4L121.852 104.192L121.908 105.06C121.982 106.105 122.02 106.992 122.02 107.72C122.02 107.944 121.926 108.131 121.74 108.28C121.553 108.448 121.338 108.532 121.096 108.532L120.508 108.196ZM121.824 98.256C122.925 98.088 123.476 96.5107 123.476 93.524C123.476 92.9827 123.448 92.5627 123.392 92.264C123.336 92.04 123.261 91.8627 123.168 91.732C123.074 91.5827 122.934 91.4613 122.748 91.368C122.542 91.256 122.318 91.2 122.076 91.2C122.076 91.1813 121.973 91.172 121.768 91.172V92.768C121.768 93.8693 121.777 94.8493 121.796 95.708C121.796 96.6787 121.805 97.3133 121.824 97.612V98.2V98.256Z" fill="#292D32"/>
<defs>
<filter id="filter0_d_0_3008" x="0" y="0" width="193" height="204" filterUnits="userSpaceOnUse" color-interpolation-filters="sRGB">
<feFlood flood-opacity="0" result="BackgroundImageFix"/>
<feColorMatrix in="SourceAlpha" type="matrix" values="0 0 0 0 0 0 0 0 0 0 0 0 0 0 0 0 0 0 127 0" result="hardAlpha"/>
<feOffset dy="12"/>
<feGaussianBlur stdDeviation="10"/>
<feComposite in2="hardAlpha" operator="out"/>
<feColorMatrix type="matrix" values="0 0 0 0 0 0 0 0 0 0 0 0 0 0 0 0 0 0 0.08 0"/>
<feBlend mode="normal" in2="BackgroundImageFix" result="effect1_dropShadow_0_3008"/>
<feBlend mode="normal" in="SourceGraphic" in2="effect1_dropShadow_0_3008" result="shape"/>
</filter>
</defs>
</svg>
