<svg width="196" height="162" viewBox="0 0 196 162" fill="none" xmlns="http://www.w3.org/2000/svg">
<g filter="url(#filter0_d_0_4476)">
<path d="M169.735 68.4193C190.63 34.1174 155.04 7.59787 124.958 8.00462C102.882 8.30289 80.4669 7.06911 58.5401 10.1603C32.312 13.8753 19.2591 27.9485 20.0325 54.7664C20.643 75.8491 30.8195 101.474 50.3175 112.415C71.4709 124.278 95.3923 122.868 116.939 113.771C123.411 120.103 135.582 128.915 153.927 130C153.927 130 144.701 113.907 144.388 97.1217C154.578 88.8242 163.317 78.9404 169.721 68.4193H169.735Z" fill="white"/>
</g>
<path d="M45.632 45.14C45.4267 45.14 45.2587 45.056 45.128 44.888C45.016 44.7013 44.96 44.4773 44.96 44.216L45.016 39.512C45.072 37.2347 45.1 35.4707 45.1 34.22C45.1 29.8707 44.8573 26.5387 44.372 24.224C44.652 23.7947 45.0067 23.58 45.436 23.58C46.1267 23.58 46.752 23.7387 47.312 24.056C47.8907 24.3547 48.3667 24.7653 48.74 25.288C49.468 26.3707 49.832 27.584 49.832 28.928C49.832 30.328 49.5333 31.5787 48.936 32.68C48.3387 33.7813 47.4707 34.64 46.332 35.256L46.388 38.084L46.444 39.568C46.4627 39.8853 46.472 40.3427 46.472 40.94C46.528 42.1907 46.556 43.208 46.556 43.992C46.556 44.3467 46.4813 44.6267 46.332 44.832C46.1827 45.0373 45.9493 45.14 45.632 45.14ZM46.276 33.912C47.004 33.2213 47.536 32.5027 47.872 31.756C48.2267 30.9907 48.404 30.132 48.404 29.18V29.152C48.404 28.7227 48.3573 28.1813 48.264 27.528C48.208 27.304 48.1053 27.08 47.956 26.856C47.8067 26.632 47.7227 26.5013 47.704 26.464C47.5733 26.2773 47.228 25.988 46.668 25.596L45.94 25.064C45.94 26.016 45.996 27.4907 46.108 29.488L46.276 33.912ZM57.4427 45.252C57.0134 45.252 56.6961 45.1867 56.4907 45.056C56.2854 44.9253 56.1827 44.6827 56.1827 44.328C56.1827 43.768 56.0894 42.816 55.9027 41.472L55.7907 40.884L53.0187 40.464C52.9067 40.8933 52.7481 41.7613 52.5427 43.068C52.4307 43.9827 52.2534 44.5893 52.0107 44.888C51.8801 45.056 51.6934 45.14 51.4507 45.14C51.2267 45.14 51.0214 45.0747 50.8347 44.944C50.6481 44.7947 50.5547 44.6173 50.5547 44.412L50.6107 44.272L50.6387 44.16C51.8707 39.3627 52.8041 34.6307 53.4387 29.964C53.4387 29.8893 53.4481 29.768 53.4667 29.6C53.4854 29.4133 53.5041 29.152 53.5227 28.816C53.5787 28.1253 53.6347 27.5747 53.6907 27.164C53.7654 26.7533 53.8774 26.4453 54.0267 26.24H54.9787C55.2401 26.24 55.4641 26.3053 55.6507 26.436C55.8374 26.548 55.9307 26.716 55.9307 26.94C55.9307 28.3587 56.1267 30.468 56.5187 33.268C56.8921 36.1427 57.0787 38.1587 57.0787 39.316C57.0787 39.428 57.1254 39.7173 57.2187 40.184C57.3121 40.6133 57.3587 40.8933 57.3587 41.024C57.3587 41.1547 57.4521 41.7147 57.6387 42.704C57.8067 43.6 57.8907 44.1787 57.8907 44.44V44.468C57.8907 44.8787 57.7414 45.14 57.4427 45.252ZM55.5947 39.876C55.5387 39.596 55.5107 39.2507 55.5107 38.84C55.5107 37.16 55.3614 35.0133 55.0627 32.4L54.7827 29.488C53.9801 33.8747 53.4294 37.188 53.1307 39.428C53.4107 39.6147 54.2321 39.764 55.5947 39.876ZM62.5899 45.392C62.2726 45.392 62.0113 45.1867 61.8059 44.776C62.0113 44.384 62.1139 42.7973 62.1139 40.016C62.1139 39.3627 62.0673 38.6533 61.9739 37.888L61.8899 37.076C61.8339 36.572 61.8059 36.1893 61.8059 35.928V35.2C61.6193 34.7333 61.2739 33.8653 60.7699 32.596C60.2846 31.3267 59.8926 30.2627 59.5939 29.404C59.2393 28.4147 59.0619 27.7427 59.0619 27.388V27.248L59.7059 26.772C60.0233 26.8093 60.3593 27.22 60.7139 28.004C61.0126 28.6947 61.3393 29.684 61.6939 30.972C62.0673 32.26 62.2539 32.9413 62.2539 33.016C62.3286 32.8107 62.4779 32.1107 62.7019 30.916C62.9259 29.7213 63.1779 28.6667 63.4579 27.752C63.7753 26.8373 64.1019 26.38 64.4379 26.38C64.6246 26.38 64.7833 26.436 64.9139 26.548C65.0633 26.66 65.1379 26.8 65.1379 26.968C65.1379 27.92 64.8766 29.264 64.3539 31C63.7939 32.8853 63.5139 34.248 63.5139 35.088L63.5139 43.516C63.5139 44.7667 63.2059 45.392 62.5899 45.392ZM79.5076 46.456C78.929 46.456 78.6396 45.8773 78.6396 44.72V42.928V41.136C78.6396 40.2027 78.5743 38.98 78.4436 37.468C78.2943 35.7693 78.2196 34.6027 78.2196 33.968L78.2756 32.232C78.313 31.728 78.3316 31.1587 78.3316 30.524C78.257 30.7667 77.949 32.0547 77.4076 34.388C76.8663 36.6467 76.3063 38.7373 75.7276 40.66C75.1676 42.508 74.7103 43.432 74.3556 43.432C74.001 43.432 73.7116 43.3293 73.4876 43.124C73.2823 42.9 73.1796 42.6013 73.1796 42.228C73.1796 41.4067 72.8436 39.6613 72.1716 36.992C71.5183 34.3227 70.921 32.1387 70.3796 30.44L70.2116 33.604C70.0623 36.2733 69.9596 38.4947 69.9036 40.268C69.8663 41.9853 69.8476 43.1613 69.8476 43.796C69.8476 43.9453 69.857 44.0853 69.8756 44.216V44.608C69.8756 44.9253 69.8103 45.1587 69.6796 45.308C69.549 45.476 69.3063 45.56 68.9516 45.56C68.765 45.56 68.5876 45.4853 68.4196 45.336C68.2516 45.2053 68.1676 45.056 68.1676 44.888C68.1676 42.984 68.3076 40.128 68.5876 36.32C68.8676 32.512 69.0076 29.656 69.0076 27.752C68.8956 27.584 68.8396 27.4067 68.8396 27.22C68.8396 26.996 68.9423 26.828 69.1476 26.716C69.3716 26.5853 69.633 26.52 69.9316 26.52C70.1743 26.52 70.6223 27.3973 71.2756 29.152C71.929 30.9067 72.5823 32.8947 73.2356 35.116C73.889 37.3373 74.309 38.9427 74.4956 39.932C74.645 39.428 74.7663 38.9613 74.8596 38.532L75.0276 37.86C75.625 35.2467 76.2223 32.8853 76.8196 30.776C77.1743 29.488 77.5196 28.48 77.8556 27.752C78.1916 26.968 78.4996 26.576 78.7796 26.576C79.041 26.576 79.2743 26.6507 79.4796 26.8C79.7036 26.9307 79.8156 27.108 79.8156 27.332C79.8156 28.676 79.8716 30.692 79.9836 33.38C80.1143 35.8813 80.1796 37.8227 80.1796 39.204L80.1516 40.688L80.0956 42.172C80.0956 42.396 80.1236 42.732 80.1796 43.18L80.2636 44.16C80.2823 44.328 80.2916 44.4587 80.2916 44.552C80.3103 44.6453 80.3196 44.7013 80.3196 44.72C80.413 44.9627 80.4596 45.14 80.4596 45.252C80.4596 45.5693 80.3663 45.8493 80.1796 46.092C79.993 46.3347 79.769 46.456 79.5076 46.456ZM85.2069 45.364C84.9643 45.364 84.7403 45.28 84.5349 45.112C84.3483 44.944 84.2456 44.7387 84.2269 44.496L84.2269 43.768V43.208C84.2083 43.04 84.1989 42.844 84.1989 42.62C84.1989 42.228 84.1709 41.6307 84.1149 40.828L84.0589 39.036C84.0589 38.1213 84.0869 36.7587 84.1429 34.948C84.2176 33.324 84.2549 31.9613 84.2549 30.86C84.2549 30.5987 84.2269 30.2067 84.1709 29.684C84.1149 29.1427 84.0869 28.7507 84.0869 28.508C84.0869 27.1827 84.4789 26.52 85.2629 26.52C85.8789 26.52 86.5883 26.6413 87.3909 26.884C88.2123 27.1267 88.6229 27.416 88.6229 27.752C88.6229 27.9387 88.5389 28.116 88.3709 28.284C88.2216 28.4333 88.0349 28.5547 87.8109 28.648C87.0269 28.368 86.3176 28.1813 85.6829 28.088C85.7016 28.368 85.7109 28.7693 85.7109 29.292C85.7109 30.0387 85.7016 30.7107 85.6829 31.308C85.6269 32.204 85.5989 32.876 85.5989 33.324L85.6829 33.772L86.1309 33.744C86.2803 33.7253 86.4669 33.716 86.6909 33.716C87.5869 33.716 88.0349 33.9773 88.0349 34.5C88.0349 34.7053 87.9509 34.8827 87.7829 35.032C87.6149 35.1627 87.4003 35.228 87.1389 35.228C86.8029 35.228 86.5416 35.2093 86.3549 35.172L85.6549 35.172C85.6923 35.6573 85.7109 36.3667 85.7109 37.3C85.7109 38.2333 85.7016 39.0733 85.6829 39.82C85.6269 40.9587 85.5989 41.808 85.5989 42.368C85.5989 43.4133 85.6176 43.936 85.6549 43.936L86.5789 43.908C86.8963 43.8893 87.2789 43.88 87.7269 43.88C88.4363 43.88 88.7909 44.104 88.7909 44.552C88.7909 44.8133 88.6696 45.0093 88.4269 45.14C88.2029 45.2893 87.9229 45.364 87.5869 45.364H85.2069ZM99.52 45.084C99.296 45.084 99.128 45.028 99.016 44.916C98.904 44.7853 98.82 44.5707 98.764 44.272L98.596 43.74V43.684V43.6C98.596 42.984 97.952 40.884 96.664 37.3C95.3946 33.716 94.396 31.0653 93.668 29.348L93.668 43.432L93.78 43.628C93.7986 43.6653 93.836 43.7307 93.892 43.824C93.948 43.9173 93.976 44.0107 93.976 44.104C93.976 44.3467 93.892 44.552 93.724 44.72C93.556 44.888 93.3506 44.972 93.108 44.972C92.5106 44.972 92.212 44.4027 92.212 43.264L92.184 38.476C92.1653 37.0387 92.156 35.4333 92.156 33.66C92.156 33.0627 92.184 32.1947 92.24 31.056C92.296 29.88 92.324 29.012 92.324 28.452C92.324 27.5747 92.66 26.884 93.332 26.38V26.548C93.444 26.5107 93.5186 26.492 93.556 26.492C93.9853 26.492 94.5266 27.2387 95.18 28.732C95.7026 29.9267 96.1693 31.1867 96.58 32.512C97.0093 33.8373 97.5693 35.7227 98.26 38.168L98.54 39.176C98.9693 40.688 99.296 41.7707 99.52 42.424C99.8933 38.4107 100.08 33.6693 100.08 28.2V27.836C100.061 27.724 100.052 27.6027 100.052 27.472C100.052 26.912 100.276 26.632 100.724 26.632C100.985 26.632 101.181 26.7347 101.312 26.94C101.461 27.1453 101.536 27.4067 101.536 27.724L101.536 29.824C101.499 32.6987 101.387 35.816 101.2 39.176C101.013 42.536 100.789 44.4307 100.528 44.86C99.9866 45.0093 99.6506 45.084 99.52 45.084ZM106.842 44.552L106.814 43.46C106.796 43.1427 106.786 42.788 106.786 42.396L106.814 41.444C106.758 41.2387 106.618 39.1947 106.394 35.312C106.17 31.4293 106.04 28.9373 106.002 27.836C104.92 27.7987 104.229 27.6867 103.93 27.5C103.725 27.3507 103.622 27.1827 103.622 26.996C103.622 26.8467 103.716 26.716 103.902 26.604C104.108 26.4733 104.313 26.408 104.518 26.408C105.041 26.408 105.676 26.4453 106.422 26.52C107.132 26.6133 107.766 26.66 108.326 26.66H108.55H108.774C109.353 26.66 109.642 26.884 109.642 27.332C109.642 27.556 109.549 27.7427 109.362 27.892C109.176 28.0227 108.961 28.088 108.718 28.088C108.55 28.088 108.308 28.06 107.99 28.004L107.43 27.892L107.402 28.032L107.374 28.172C107.374 29.8333 107.533 32.484 107.85 36.124C108.149 39.54 108.298 42.1907 108.298 44.076C108.298 44.3 108.196 44.496 107.99 44.664C107.804 44.832 107.589 44.916 107.346 44.916L106.842 44.552ZM112.942 45.392C112.606 45.336 112.317 45.2147 112.074 45.028C111.85 44.8413 111.72 44.5987 111.682 44.3L111.99 43.824C112.102 43.824 112.28 43.8613 112.522 43.936C112.802 43.992 113.017 44.02 113.166 44.02C113.502 44.02 113.801 43.8707 114.062 43.572C114.342 43.2733 114.548 42.8813 114.678 42.396C114.921 41.5 115.042 40.6973 115.042 39.988C115.042 38.756 114.65 37.4587 113.866 36.096L113.558 35.564C113.204 34.948 112.905 34.3973 112.662 33.912C112.42 33.4267 112.214 32.904 112.046 32.344C111.822 31.616 111.71 30.888 111.71 30.16C111.71 29.3387 111.897 28.48 112.27 27.584C112.457 27.1547 112.718 26.8093 113.054 26.548C113.409 26.268 113.801 26.128 114.23 26.128C114.566 26.128 114.874 26.24 115.154 26.464C115.453 26.6693 115.602 26.9213 115.602 27.22C115.602 27.388 115.537 27.5187 115.406 27.612C115.276 27.7053 115.117 27.752 114.93 27.752C114.725 27.752 114.529 27.696 114.342 27.584C113.932 27.6027 113.605 27.9667 113.362 28.676C113.157 29.3293 113.054 29.8707 113.054 30.3C113.054 30.8413 113.138 31.392 113.306 31.952C113.474 32.4933 113.689 32.988 113.95 33.436L114.566 34.556L115.546 36.404C115.808 36.9267 116.013 37.5333 116.162 38.224C116.33 38.9147 116.414 39.6147 116.414 40.324C116.414 41.4627 116.153 42.5453 115.63 43.572C115.369 44.0947 114.996 44.5147 114.51 44.832C114.044 45.1493 113.521 45.308 112.942 45.308V45.392ZM129.986 45.252C129.556 45.252 129.239 45.1867 129.034 45.056C128.828 44.9253 128.726 44.6827 128.726 44.328C128.726 43.768 128.632 42.816 128.446 41.472L128.334 40.884L125.562 40.464C125.45 40.8933 125.291 41.7613 125.086 43.068C124.974 43.9827 124.796 44.5893 124.554 44.888C124.423 45.056 124.236 45.14 123.994 45.14C123.77 45.14 123.564 45.0747 123.378 44.944C123.191 44.7947 123.098 44.6173 123.098 44.412L123.154 44.272L123.182 44.16C124.414 39.3627 125.347 34.6307 125.982 29.964C125.982 29.8893 125.991 29.768 126.01 29.6C126.028 29.4133 126.047 29.152 126.066 28.816C126.122 28.1253 126.178 27.5747 126.234 27.164C126.308 26.7533 126.42 26.4453 126.57 26.24L127.522 26.24C127.783 26.24 128.007 26.3053 128.194 26.436C128.38 26.548 128.474 26.716 128.474 26.94C128.474 28.3587 128.67 30.468 129.062 33.268C129.435 36.1427 129.622 38.1587 129.622 39.316C129.622 39.428 129.668 39.7173 129.762 40.184C129.855 40.6133 129.902 40.8933 129.902 41.024C129.902 41.1547 129.995 41.7147 130.182 42.704C130.35 43.6 130.434 44.1787 130.434 44.44V44.468C130.434 44.8787 130.284 45.14 129.986 45.252ZM128.138 39.876C128.082 39.596 128.054 39.2507 128.054 38.84C128.054 37.16 127.904 35.0133 127.606 32.4L127.326 29.488C126.523 33.8747 125.972 37.188 125.674 39.428C125.954 39.6147 126.775 39.764 128.138 39.876ZM140.481 45.084C140.257 45.084 140.089 45.028 139.977 44.916C139.865 44.7853 139.781 44.5707 139.725 44.272L139.557 43.74V43.684V43.6C139.557 42.984 138.913 40.884 137.625 37.3C136.356 33.716 135.357 31.0653 134.629 29.348L134.629 43.432L134.741 43.628C134.76 43.6653 134.797 43.7307 134.853 43.824C134.909 43.9173 134.937 44.0107 134.937 44.104C134.937 44.3467 134.853 44.552 134.685 44.72C134.517 44.888 134.312 44.972 134.069 44.972C133.472 44.972 133.173 44.4027 133.173 43.264L133.145 38.476C133.126 37.0387 133.117 35.4333 133.117 33.66C133.117 33.0627 133.145 32.1947 133.201 31.056C133.257 29.88 133.285 29.012 133.285 28.452C133.285 27.5747 133.621 26.884 134.293 26.38V26.548C134.405 26.5107 134.48 26.492 134.517 26.492C134.946 26.492 135.488 27.2387 136.141 28.732C136.664 29.9267 137.13 31.1867 137.541 32.512C137.97 33.8373 138.53 35.7227 139.221 38.168L139.501 39.176C139.93 40.688 140.257 41.7707 140.481 42.424C140.854 38.4107 141.041 33.6693 141.041 28.2V27.836C141.022 27.724 141.013 27.6027 141.013 27.472C141.013 26.912 141.237 26.632 141.685 26.632C141.946 26.632 142.142 26.7347 142.273 26.94C142.422 27.1453 142.497 27.4067 142.497 27.724V29.824C142.46 32.6987 142.348 35.816 142.161 39.176C141.974 42.536 141.75 44.4307 141.489 44.86C140.948 45.0093 140.612 45.084 140.481 45.084ZM147.131 45.168C146.646 45.168 146.403 43.9453 146.403 41.5L146.459 37.076C146.478 35.7693 146.487 34.304 146.487 32.68C146.487 32.0827 146.431 31.1587 146.319 29.908C146.226 28.5453 146.179 27.7147 146.179 27.416C146.179 27.1733 146.282 26.9587 146.487 26.772C146.693 26.5853 146.917 26.492 147.159 26.492C147.813 26.492 148.438 26.6413 149.035 26.94C149.651 27.22 150.193 27.6213 150.659 28.144C151.649 29.2827 152.302 30.5333 152.619 31.896C152.787 32.5867 152.871 33.268 152.871 33.94C152.871 34.1827 152.862 34.4067 152.843 34.612L152.815 35.368V36.908C152.815 38.1027 152.778 39.0453 152.703 39.736C152.591 40.6693 152.377 41.5 152.059 42.228C151.686 43.012 151.145 43.712 150.435 44.328C150.099 44.608 149.67 44.888 149.147 45.168H147.131ZM148.363 43.74C148.737 43.74 149.082 43.6467 149.399 43.46C149.717 43.2547 149.987 42.984 150.211 42.648C150.398 42.3493 150.566 41.976 150.715 41.528C150.883 41.0613 151.005 40.6133 151.079 40.184C151.247 39.344 151.35 38.4853 151.387 37.608C151.406 37.384 151.415 37.0573 151.415 36.628C151.415 30.9907 150.323 28.0507 148.139 27.808C148.009 28.648 147.943 29.6187 147.943 30.72C147.943 31.896 148.018 33.9493 148.167 36.88C148.298 39.4747 148.363 41.5373 148.363 43.068V43.74ZM46.276 72.552L46.248 71.46C46.2293 71.1427 46.22 70.788 46.22 70.396L46.248 69.444C46.192 69.2387 46.052 67.1947 45.828 63.312C45.604 59.4293 45.4733 56.9373 45.436 55.836C44.3533 55.7987 43.6627 55.6867 43.364 55.5C43.1587 55.3507 43.056 55.1827 43.056 54.996C43.056 54.8467 43.1493 54.716 43.336 54.604C43.5413 54.4733 43.7467 54.408 43.952 54.408C44.4747 54.408 45.1093 54.4453 45.856 54.52C46.5653 54.6133 47.2 54.66 47.76 54.66H47.984H48.208C48.7867 54.66 49.076 54.884 49.076 55.332C49.076 55.556 48.9827 55.7427 48.796 55.892C48.6093 56.0227 48.3947 56.088 48.152 56.088C47.984 56.088 47.7413 56.06 47.424 56.004L46.864 55.892L46.836 56.032L46.808 56.172C46.808 57.8333 46.9667 60.484 47.284 64.124C47.5827 67.54 47.732 70.1907 47.732 72.076C47.732 72.3 47.6293 72.496 47.424 72.664C47.2373 72.832 47.0227 72.916 46.78 72.916L46.276 72.552ZM56.7721 73.476C56.3614 73.476 55.9881 73.028 55.6521 72.132C55.2601 71.1613 54.9707 70.1627 54.7841 69.136L54.5881 68.184C54.0467 65.5147 53.7014 63.9933 53.5521 63.62H53.2161C53.2161 64.1613 53.2067 64.656 53.1881 65.104L53.1881 66.644C53.1881 69.1453 53.3654 71.096 53.7201 72.496L53.4121 73.252H52.6281L52.2641 72.832L52.2921 70.956C52.2921 69.276 52.2081 66.728 52.0401 63.312C51.8907 59.672 51.8161 57.124 51.8161 55.668C51.8161 54.772 52.1241 54.324 52.7401 54.324C53.7481 54.324 54.5694 54.5853 55.2041 55.108C55.8574 55.6307 56.1841 56.3587 56.1841 57.292L56.1841 59.252C56.1841 59.532 56.1374 59.8587 56.0441 60.232C55.9507 60.5867 55.8481 60.876 55.7361 61.1L55.2041 62.108L54.7561 62.948L54.8961 63.62L55.2881 65.608C55.5494 67.0453 55.8014 68.212 56.0441 69.108C56.2867 70.004 56.5854 70.816 56.9401 71.544L57.1081 71.88C57.2947 72.2533 57.3881 72.552 57.3881 72.776C57.3881 72.9627 57.3321 73.1213 57.2201 73.252C57.1081 73.4013 56.9587 73.476 56.7721 73.476ZM53.3281 62.248C53.7387 62.0427 54.0841 61.4827 54.3641 60.568C54.6627 59.6347 54.8121 58.776 54.8121 57.992C54.8121 57.3947 54.7374 56.8347 54.5881 56.312C54.4947 56.0133 54.3361 55.7893 54.1121 55.64C53.9067 55.472 53.6454 55.388 53.3281 55.388L53.2721 55.528L53.2161 55.78L53.2721 59.084C53.3094 60.0547 53.3281 61.1093 53.3281 62.248ZM65.6459 73.252C65.2165 73.252 64.8992 73.1867 64.6939 73.056C64.4885 72.9253 64.3859 72.6827 64.3859 72.328C64.3859 71.768 64.2925 70.816 64.1059 69.472L63.9939 68.884L61.2219 68.464C61.1099 68.8933 60.9512 69.7613 60.7459 71.068C60.6339 71.9827 60.4565 72.5893 60.2139 72.888C60.0832 73.056 59.8965 73.14 59.6539 73.14C59.4299 73.14 59.2245 73.0747 59.0379 72.944C58.8512 72.7947 58.7579 72.6173 58.7579 72.412L58.8139 72.272L58.8419 72.16C60.0739 67.3627 61.0072 62.6307 61.6419 57.964C61.6419 57.8893 61.6512 57.768 61.6699 57.6C61.6885 57.4133 61.7072 57.152 61.7259 56.816C61.7819 56.1253 61.8379 55.5747 61.8939 55.164C61.9685 54.7533 62.0805 54.4453 62.2299 54.24H63.1819C63.4432 54.24 63.6672 54.3053 63.8539 54.436C64.0405 54.548 64.1339 54.716 64.1339 54.94C64.1339 56.3587 64.3299 58.468 64.7219 61.268C65.0952 64.1427 65.2819 66.1587 65.2819 67.316C65.2819 67.428 65.3285 67.7173 65.4219 68.184C65.5152 68.6133 65.5619 68.8933 65.5619 69.024C65.5619 69.1547 65.6552 69.7147 65.8419 70.704C66.0099 71.6 66.0939 72.1787 66.0939 72.44V72.468C66.0939 72.8787 65.9445 73.14 65.6459 73.252ZM63.7979 67.876C63.7419 67.596 63.7139 67.2507 63.7139 66.84C63.7139 65.16 63.5645 63.0133 63.2659 60.4L62.9859 57.488C62.1832 61.8747 61.6325 65.188 61.3339 67.428C61.6139 67.6147 62.4352 67.764 63.7979 67.876ZM76.1411 73.084C75.9171 73.084 75.7491 73.028 75.6371 72.916C75.5251 72.7853 75.4411 72.5707 75.3851 72.272L75.2171 71.74V71.684V71.6C75.2171 70.984 74.5731 68.884 73.2851 65.3C72.0157 61.716 71.0171 59.0653 70.2891 57.348L70.2891 71.432L70.4011 71.628C70.4197 71.6653 70.4571 71.7307 70.5131 71.824C70.5691 71.9173 70.5971 72.0107 70.5971 72.104C70.5971 72.3467 70.5131 72.552 70.3451 72.72C70.1771 72.888 69.9717 72.972 69.7291 72.972C69.1317 72.972 68.8331 72.4027 68.8331 71.264L68.8051 66.476C68.7864 65.0387 68.7771 63.4333 68.7771 61.66C68.7771 61.0627 68.8051 60.1947 68.8611 59.056C68.9171 57.88 68.9451 57.012 68.9451 56.452C68.9451 55.5747 69.2811 54.884 69.9531 54.38V54.548C70.0651 54.5107 70.1397 54.492 70.1771 54.492C70.6064 54.492 71.1477 55.2387 71.8011 56.732C72.3237 57.9267 72.7904 59.1867 73.2011 60.512C73.6304 61.8373 74.1904 63.7227 74.8811 66.168L75.1611 67.176C75.5904 68.688 75.9171 69.7707 76.1411 70.424C76.5144 66.4107 76.7011 61.6693 76.7011 56.2V55.836C76.6824 55.724 76.6731 55.6027 76.6731 55.472C76.6731 54.912 76.8971 54.632 77.3451 54.632C77.6064 54.632 77.8024 54.7347 77.9331 54.94C78.0824 55.1453 78.1571 55.4067 78.1571 55.724V57.824C78.1197 60.6987 78.0077 63.816 77.8211 67.176C77.6344 70.536 77.4104 72.4307 77.1491 72.86C76.6077 73.0093 76.2717 73.084 76.1411 73.084ZM82.3995 73.392C82.0635 73.336 81.7742 73.2147 81.5315 73.028C81.3075 72.8413 81.1768 72.5987 81.1395 72.3L81.4475 71.824C81.5595 71.824 81.7368 71.8613 81.9795 71.936C82.2595 71.992 82.4742 72.02 82.6235 72.02C82.9595 72.02 83.2582 71.8707 83.5195 71.572C83.7995 71.2733 84.0048 70.8813 84.1355 70.396C84.3782 69.5 84.4995 68.6973 84.4995 67.988C84.4995 66.756 84.1075 65.4587 83.3235 64.096L83.0155 63.564C82.6608 62.948 82.3622 62.3973 82.1195 61.912C81.8768 61.4267 81.6715 60.904 81.5035 60.344C81.2795 59.616 81.1675 58.888 81.1675 58.16C81.1675 57.3387 81.3542 56.48 81.7275 55.584C81.9142 55.1547 82.1755 54.8093 82.5115 54.548C82.8662 54.268 83.2582 54.128 83.6875 54.128C84.0235 54.128 84.3315 54.24 84.6115 54.464C84.9102 54.6693 85.0595 54.9213 85.0595 55.22C85.0595 55.388 84.9942 55.5187 84.8635 55.612C84.7328 55.7053 84.5742 55.752 84.3875 55.752C84.1822 55.752 83.9862 55.696 83.7995 55.584C83.3888 55.6027 83.0622 55.9667 82.8195 56.676C82.6142 57.3293 82.5115 57.8707 82.5115 58.3C82.5115 58.8413 82.5955 59.392 82.7635 59.952C82.9315 60.4933 83.1462 60.988 83.4075 61.436L84.0235 62.556L85.0035 64.404C85.2648 64.9267 85.4702 65.5333 85.6195 66.224C85.7875 66.9147 85.8715 67.6147 85.8715 68.324C85.8715 69.4627 85.6102 70.5453 85.0875 71.572C84.8262 72.0947 84.4528 72.5147 83.9675 72.832C83.5008 73.1493 82.9782 73.308 82.3995 73.308V73.392ZM89.4015 73.252C89.1215 73.252 88.7855 73.112 88.3935 72.832C88.5428 71.2827 88.6641 68.9027 88.7575 65.692C88.8508 62.3507 88.9161 60.344 88.9535 59.672L88.9535 59C89.0281 57.1707 89.0655 55.9013 89.0655 55.192C89.0655 54.9307 89.1681 54.7253 89.3735 54.576C89.5975 54.4267 89.8495 54.352 90.1295 54.352C90.7828 54.352 91.4828 54.408 92.2295 54.52C92.7148 54.5947 93.0975 54.716 93.3775 54.884C93.6761 55.052 93.8255 55.2573 93.8255 55.5C93.8255 56.0227 93.3495 56.284 92.3975 56.284C92.0428 56.0973 91.5575 56.004 90.9415 56.004H90.6055V56.34C90.6055 57.068 90.5681 57.992 90.4935 59.112C90.4001 60.1573 90.3535 61.1 90.3535 61.94V62.696H90.5775H90.8575C91.7721 62.696 92.2295 62.9387 92.2295 63.424C92.2295 63.6667 92.1268 63.8627 91.9215 64.012C91.7348 64.1613 91.5015 64.236 91.2215 64.236C90.7735 64.236 90.4095 64.1893 90.1295 64.096V72.02C90.1295 72.8413 89.8868 73.252 89.4015 73.252ZM97.0194 73.364C96.7768 73.364 96.5528 73.28 96.3474 73.112C96.1608 72.944 96.0581 72.7387 96.0394 72.496V71.768V71.208C96.0208 71.04 96.0114 70.844 96.0114 70.62C96.0114 70.228 95.9834 69.6307 95.9274 68.828L95.8714 67.036C95.8714 66.1213 95.8994 64.7587 95.9554 62.948C96.0301 61.324 96.0674 59.9613 96.0674 58.86C96.0674 58.5987 96.0394 58.2067 95.9834 57.684C95.9274 57.1427 95.8994 56.7507 95.8994 56.508C95.8994 55.1827 96.2914 54.52 97.0754 54.52C97.6914 54.52 98.4008 54.6413 99.2034 54.884C100.025 55.1267 100.435 55.416 100.435 55.752C100.435 55.9387 100.351 56.116 100.183 56.284C100.034 56.4333 99.8474 56.5547 99.6234 56.648C98.8394 56.368 98.1301 56.1813 97.4954 56.088C97.5141 56.368 97.5234 56.7693 97.5234 57.292C97.5234 58.0387 97.5141 58.7107 97.4954 59.308C97.4394 60.204 97.4114 60.876 97.4114 61.324L97.4954 61.772L97.9434 61.744C98.0928 61.7253 98.2794 61.716 98.5034 61.716C99.3994 61.716 99.8474 61.9773 99.8474 62.5C99.8474 62.7053 99.7634 62.8827 99.5954 63.032C99.4274 63.1627 99.2128 63.228 98.9514 63.228C98.6154 63.228 98.3541 63.2093 98.1674 63.172H97.4674C97.5048 63.6573 97.5234 64.3667 97.5234 65.3C97.5234 66.2333 97.5141 67.0733 97.4954 67.82C97.4394 68.9587 97.4114 69.808 97.4114 70.368C97.4114 71.4133 97.4301 71.936 97.4674 71.936L98.3914 71.908C98.7088 71.8893 99.0914 71.88 99.5394 71.88C100.249 71.88 100.603 72.104 100.603 72.552C100.603 72.8133 100.482 73.0093 100.239 73.14C100.015 73.2893 99.7354 73.364 99.3994 73.364L97.0194 73.364ZM108.588 73.476C108.178 73.476 107.804 73.028 107.468 72.132C107.076 71.1613 106.787 70.1627 106.6 69.136L106.404 68.184C105.863 65.5147 105.518 63.9933 105.368 63.62H105.032C105.032 64.1613 105.023 64.656 105.004 65.104V66.644C105.004 69.1453 105.182 71.096 105.536 72.496L105.228 73.252H104.444L104.08 72.832L104.108 70.956C104.108 69.276 104.024 66.728 103.856 63.312C103.707 59.672 103.632 57.124 103.632 55.668C103.632 54.772 103.94 54.324 104.556 54.324C105.564 54.324 106.386 54.5853 107.02 55.108C107.674 55.6307 108 56.3587 108 57.292V59.252C108 59.532 107.954 59.8587 107.86 60.232C107.767 60.5867 107.664 60.876 107.552 61.1L107.02 62.108L106.572 62.948L106.712 63.62L107.104 65.608C107.366 67.0453 107.618 68.212 107.86 69.108C108.103 70.004 108.402 70.816 108.756 71.544L108.924 71.88C109.111 72.2533 109.204 72.552 109.204 72.776C109.204 72.9627 109.148 73.1213 109.036 73.252C108.924 73.4013 108.775 73.476 108.588 73.476ZM105.144 62.248C105.555 62.0427 105.9 61.4827 106.18 60.568C106.479 59.6347 106.628 58.776 106.628 57.992C106.628 57.3947 106.554 56.8347 106.404 56.312C106.311 56.0133 106.152 55.7893 105.928 55.64C105.723 55.472 105.462 55.388 105.144 55.388L105.088 55.528L105.032 55.78L105.088 59.084C105.126 60.0547 105.144 61.1093 105.144 62.248ZM112.45 73.392C112.114 73.336 111.825 73.2147 111.582 73.028C111.358 72.8413 111.228 72.5987 111.19 72.3L111.498 71.824C111.61 71.824 111.788 71.8613 112.03 71.936C112.31 71.992 112.525 72.02 112.674 72.02C113.01 72.02 113.309 71.8707 113.57 71.572C113.85 71.2733 114.056 70.8813 114.186 70.396C114.429 69.5 114.55 68.6973 114.55 67.988C114.55 66.756 114.158 65.4587 113.374 64.096L113.066 63.564C112.712 62.948 112.413 62.3973 112.17 61.912C111.928 61.4267 111.722 60.904 111.554 60.344C111.33 59.616 111.218 58.888 111.218 58.16C111.218 57.3387 111.405 56.48 111.778 55.584C111.965 55.1547 112.226 54.8093 112.562 54.548C112.917 54.268 113.309 54.128 113.738 54.128C114.074 54.128 114.382 54.24 114.662 54.464C114.961 54.6693 115.11 54.9213 115.11 55.22C115.11 55.388 115.045 55.5187 114.914 55.612C114.784 55.7053 114.625 55.752 114.438 55.752C114.233 55.752 114.037 55.696 113.85 55.584C113.44 55.6027 113.113 55.9667 112.87 56.676C112.665 57.3293 112.562 57.8707 112.562 58.3C112.562 58.8413 112.646 59.392 112.814 59.952C112.982 60.4933 113.197 60.988 113.458 61.436L114.074 62.556L115.054 64.404C115.316 64.9267 115.521 65.5333 115.67 66.224C115.838 66.9147 115.922 67.6147 115.922 68.324C115.922 69.4627 115.661 70.5453 115.138 71.572C114.877 72.0947 114.504 72.5147 114.018 72.832C113.552 73.1493 113.029 73.308 112.45 73.308V73.392ZM120.712 69.948C120.339 69.948 120.115 69.7427 120.04 69.332C120.04 68.1933 120.124 66.952 120.292 65.608C120.479 64.264 120.74 62.6307 121.076 60.708L121.216 59.896C121.478 58.272 121.608 56.9093 121.608 55.808C121.608 54.072 121.328 53.204 120.768 53.204C120.414 53.204 120.236 53.624 120.236 54.464C120.236 54.6693 120.302 55.1733 120.432 55.976C120.432 55.9947 120.386 56.0507 120.292 56.144C119.975 56.424 119.742 56.564 119.592 56.564C119.07 56.564 118.808 55.9387 118.808 54.688V54.408C118.808 53.9227 118.855 53.512 118.948 53.176C119.06 52.8213 119.256 52.5133 119.536 52.252C119.854 51.9907 120.246 51.86 120.712 51.86C121.123 51.86 121.478 51.9347 121.776 52.084C122.075 52.2333 122.318 52.4387 122.504 52.7C122.803 53.148 122.99 53.8107 123.064 54.688C123.083 54.8933 123.092 55.2573 123.092 55.78C123.092 57.4227 122.812 59.2147 122.252 61.156C122.01 61.9587 121.804 62.976 121.636 64.208C121.468 65.4213 121.384 66.6813 121.384 67.988C121.384 69.0147 121.394 69.64 121.412 69.864C121.076 69.864 120.89 69.8827 120.852 69.92C120.815 69.9387 120.768 69.948 120.712 69.948ZM120.712 73.112C120.432 73.112 120.208 73 120.04 72.776C119.835 72.5893 119.732 72.356 119.732 72.076C119.732 71.8147 119.844 71.572 120.068 71.348C120.292 71.1053 120.544 70.984 120.824 70.984C121.048 70.984 121.272 71.1053 121.496 71.348C121.72 71.5907 121.832 71.824 121.832 72.048C121.832 72.7573 121.459 73.112 120.712 73.112ZM46.276 101.168C45.9213 101.168 45.6133 101.121 45.352 101.028C45.0347 100.935 44.876 100.673 44.876 100.244L44.876 83.976C44.876 83.6587 44.82 83.1827 44.708 82.548C44.5773 81.9693 44.512 81.4933 44.512 81.12V81.036C44.8293 80.5133 45.0627 80.1773 45.212 80.028C45.4733 80.028 45.8187 79.9907 46.248 79.916C46.64 79.8413 46.9853 79.804 47.284 79.804C47.5827 79.804 47.872 79.8973 48.152 80.084C48.432 80.252 48.572 80.4573 48.572 80.7C48.572 81.26 48.1427 81.54 47.284 81.54H46.892C46.78 81.5213 46.6493 81.512 46.5 81.512C46.332 81.512 46.2293 81.5213 46.192 81.54C46.192 82.1747 46.2293 82.94 46.304 83.836L46.36 84.62L46.416 86.16C46.416 86.5147 46.388 87.056 46.332 87.784L46.276 89.352L46.668 89.268C47.0413 89.156 47.3493 89.1 47.592 89.1C47.7973 89.1 47.984 89.184 48.152 89.352C48.32 89.5013 48.404 89.6787 48.404 89.884C48.404 90.108 48.3293 90.3133 48.18 90.5C48.0493 90.668 47.8813 90.752 47.676 90.752L47.34 90.724H46.976C46.696 90.724 46.5 90.7893 46.388 90.92L46.388 99.572L47.956 99.488C49.02 99.488 49.552 99.7307 49.552 100.216V100.328C49.44 100.552 49.2347 100.739 48.936 100.888C48.6373 101.019 48.348 101.103 48.068 101.14L47.144 101.168L46.276 101.168ZM58.017 101.252C57.5876 101.252 57.2703 101.187 57.065 101.056C56.8596 100.925 56.757 100.683 56.757 100.328C56.757 99.768 56.6636 98.816 56.477 97.472L56.365 96.884L53.593 96.464C53.481 96.8933 53.3223 97.7613 53.117 99.068C53.005 99.9827 52.8276 100.589 52.585 100.888C52.4543 101.056 52.2676 101.14 52.025 101.14C51.801 101.14 51.5956 101.075 51.409 100.944C51.2223 100.795 51.129 100.617 51.129 100.412L51.185 100.272L51.213 100.16C52.445 95.3627 53.3783 90.6307 54.013 85.964C54.013 85.8893 54.0223 85.768 54.041 85.6C54.0596 85.4133 54.0783 85.152 54.097 84.816C54.153 84.1253 54.209 83.5747 54.265 83.164C54.3396 82.7533 54.4516 82.4453 54.601 82.24H55.553C55.8143 82.24 56.0383 82.3053 56.225 82.436C56.4116 82.548 56.505 82.716 56.505 82.94C56.505 84.3587 56.701 86.468 57.093 89.268C57.4663 92.1427 57.653 94.1587 57.653 95.316C57.653 95.428 57.6996 95.7173 57.793 96.184C57.8863 96.6133 57.933 96.8933 57.933 97.024C57.933 97.1547 58.0263 97.7147 58.213 98.704C58.381 99.6 58.465 100.179 58.465 100.44V100.468C58.465 100.879 58.3156 101.14 58.017 101.252ZM56.169 95.876C56.113 95.596 56.085 95.2507 56.085 94.84C56.085 93.16 55.9356 91.0133 55.637 88.4L55.357 85.488C54.5543 89.8747 54.0036 93.188 53.705 95.428C53.985 95.6147 54.8063 95.764 56.169 95.876ZM61.3722 101.392C61.0362 101.336 60.7468 101.215 60.5042 101.028C60.2802 100.841 60.1495 100.599 60.1122 100.3L60.4202 99.824C60.5322 99.824 60.7095 99.8613 60.9522 99.936C61.2322 99.992 61.4468 100.02 61.5962 100.02C61.9322 100.02 62.2308 99.8707 62.4922 99.572C62.7722 99.2733 62.9775 98.8813 63.1082 98.396C63.3508 97.5 63.4722 96.6973 63.4722 95.988C63.4722 94.756 63.0802 93.4587 62.2962 92.096L61.9882 91.564C61.6335 90.948 61.3348 90.3973 61.0922 89.912C60.8495 89.4267 60.6442 88.904 60.4762 88.344C60.2522 87.616 60.1402 86.888 60.1402 86.16C60.1402 85.3387 60.3268 84.48 60.7002 83.584C60.8868 83.1547 61.1482 82.8093 61.4842 82.548C61.8388 82.268 62.2308 82.128 62.6602 82.128C62.9962 82.128 63.3042 82.24 63.5842 82.464C63.8828 82.6693 64.0322 82.9213 64.0322 83.22C64.0322 83.388 63.9668 83.5187 63.8362 83.612C63.7055 83.7053 63.5468 83.752 63.3602 83.752C63.1548 83.752 62.9588 83.696 62.7722 83.584C62.3615 83.6027 62.0348 83.9667 61.7922 84.676C61.5868 85.3293 61.4842 85.8707 61.4842 86.3C61.4842 86.8413 61.5682 87.392 61.7362 87.952C61.9042 88.4933 62.1188 88.988 62.3802 89.436L62.9962 90.556L63.9762 92.404C64.2375 92.9267 64.4428 93.5333 64.5922 94.224C64.7602 94.9147 64.8442 95.6147 64.8442 96.324C64.8442 97.4627 64.5828 98.5453 64.0602 99.572C63.7988 100.095 63.4255 100.515 62.9402 100.832C62.4735 101.149 61.9508 101.308 61.3722 101.308V101.392ZM70.0821 101.392C69.7648 101.392 69.5035 101.187 69.2981 100.776C69.5035 100.384 69.6061 98.7973 69.6061 96.016C69.6061 95.3627 69.5595 94.6533 69.4661 93.888L69.3821 93.076C69.3261 92.572 69.2981 92.1893 69.2981 91.928V91.2C69.1115 90.7333 68.7661 89.8653 68.2621 88.596C67.7768 87.3267 67.3848 86.2627 67.0861 85.404C66.7315 84.4147 66.5541 83.7427 66.5541 83.388V83.248L67.1981 82.772C67.5155 82.8093 67.8515 83.22 68.2061 84.004C68.5048 84.6947 68.8315 85.684 69.1861 86.972C69.5595 88.26 69.7461 88.9413 69.7461 89.016C69.8208 88.8107 69.9701 88.1107 70.1941 86.916C70.4181 85.7213 70.6701 84.6667 70.9501 83.752C71.2675 82.8373 71.5941 82.38 71.9301 82.38C72.1168 82.38 72.2755 82.436 72.4061 82.548C72.5555 82.66 72.6301 82.8 72.6301 82.968C72.6301 83.92 72.3688 85.264 71.8461 87C71.2861 88.8853 71.0061 90.248 71.0061 91.088L71.0061 99.516C71.0061 100.767 70.6981 101.392 70.0821 101.392ZM77.0878 96.828C76.9011 96.828 76.7238 96.5947 76.5558 96.128C76.3878 95.6427 76.3038 94.924 76.3038 93.972C76.3038 93.636 76.3225 93.0013 76.3598 92.068C76.3971 91.3773 76.4158 90.612 76.4158 89.772L76.3598 85.18L76.3038 80.588C76.3038 80.2893 76.4251 80.0373 76.6678 79.832C76.9105 79.608 77.1811 79.496 77.4798 79.496C77.6665 79.496 77.8251 79.5613 77.9558 79.692C78.0865 79.8227 78.1518 79.9907 78.1518 80.196C78.1518 81.8387 78.0585 84.0693 77.8718 86.888C77.6665 90.0053 77.5638 92.236 77.5638 93.58C77.5638 94.5693 77.5451 95.288 77.5078 95.736C77.4891 96.1653 77.4425 96.4547 77.3678 96.604C77.3118 96.7533 77.2185 96.828 77.0878 96.828ZM76.5838 101.616C76.3598 101.616 76.1451 101.513 75.9398 101.308C75.7531 101.103 75.6598 100.851 75.6598 100.552C75.6598 100.216 75.7718 99.9267 75.9958 99.684C76.2198 99.4227 76.4905 99.292 76.8078 99.292C77.1438 99.292 77.4145 99.4227 77.6198 99.684C77.8438 99.9267 77.9558 100.244 77.9558 100.636C77.9558 101.289 77.4985 101.616 76.5838 101.616Z" fill="#292D32"/>
<defs>
<filter id="filter0_d_0_4476" x="0" y="0" width="196" height="162" filterUnits="userSpaceOnUse" color-interpolation-filters="sRGB">
<feFlood flood-opacity="0" result="BackgroundImageFix"/>
<feColorMatrix in="SourceAlpha" type="matrix" values="0 0 0 0 0 0 0 0 0 0 0 0 0 0 0 0 0 0 127 0" result="hardAlpha"/>
<feOffset dy="12"/>
<feGaussianBlur stdDeviation="10"/>
<feComposite in2="hardAlpha" operator="out"/>
<feColorMatrix type="matrix" values="0 0 0 0 0 0 0 0 0 0 0 0 0 0 0 0 0 0 0.08 0"/>
<feBlend mode="normal" in2="BackgroundImageFix" result="effect1_dropShadow_0_4476"/>
<feBlend mode="normal" in="SourceGraphic" in2="effect1_dropShadow_0_4476" result="shape"/>
</filter>
</defs>
</svg>
