<svg width="172" height="152" viewBox="0 0 172 152" fill="none" xmlns="http://www.w3.org/2000/svg">
<g filter="url(#filter0_d_0_4467)">
<path d="M47.4961 24.554C72.6429 8.03348 108.405 0.168779 134.911 18.7253C170.932 43.9598 144.327 81.0263 107.564 98.559C107.601 105.388 109.727 113.788 118.673 118.279C118.673 118.279 90.2643 126.248 76.3995 107.89C62.2135 109.6 48.5835 107.494 38.154 99.9783C6.09952 77.3499 21.1259 41.8656 47.4961 24.5424V24.554Z" fill="white"/>
</g>
<path d="M52.48 53.392C51.7893 53.392 51.444 52.6827 51.444 51.264C51.444 50.368 51.052 47.1667 50.268 41.66C49.5027 36.1347 49.0173 33.12 48.812 32.616C49.0547 32.168 49.3813 31.944 49.792 31.944C50.2213 31.944 50.6227 32.9147 50.996 34.856C51.3507 36.9093 51.6493 39.2613 51.892 41.912L52.088 44.18C52.2 45.4493 52.2653 46.0933 52.284 46.112L52.564 43.76L52.732 42.304C52.9747 40.176 53.1333 38.6733 53.208 37.796C53.3013 36.6387 53.348 35.8453 53.348 35.416V34.884C53.348 34.6787 53.4227 34.4827 53.572 34.296C53.7213 34.1093 53.8893 34.016 54.076 34.016C54.748 34.016 55.084 34.296 55.084 34.856V35.276C55.084 36.34 55.1867 37.488 55.392 38.72C55.616 39.9333 55.9333 41.3893 56.344 43.088C56.6053 44.0773 56.8667 45.2813 57.128 46.7C57.184 46.084 57.3613 44.5907 57.66 42.22C57.9587 40.0547 58.1733 38.216 58.304 36.704C58.4533 35.1733 58.528 33.7453 58.528 32.42C58.528 31.9907 58.5933 31.692 58.724 31.524C58.8733 31.3373 59.144 31.244 59.536 31.244C59.76 31.244 59.956 31.3187 60.124 31.468C60.3107 31.5987 60.404 31.776 60.404 32C60.404 32.2053 60.3107 32.42 60.124 32.644C60.124 33.988 60.0213 35.5653 59.816 37.376C59.6107 39.168 59.3587 40.876 59.06 42.5C58.7613 44.0867 58.5093 45.7947 58.304 47.624C58.0987 49.4347 57.996 51.0307 57.996 52.412C57.996 52.7107 57.9213 52.944 57.772 53.112C57.6413 53.2987 57.436 53.392 57.156 53.392C56.9507 53.392 56.708 53.0093 56.428 52.244C56.0733 51.18 55.6347 49.0613 55.112 45.888L54.608 42.612L54.356 40.792C54.1133 42.4907 53.9267 43.8627 53.796 44.908C53.684 45.9347 53.572 47.1573 53.46 48.576C53.3293 49.9387 53.264 51.2827 53.264 52.608C53.264 52.7947 53.18 52.972 53.012 53.14C52.8627 53.308 52.6853 53.392 52.48 53.392ZM69.0599 53.252C68.6306 53.252 68.3133 53.1867 68.1079 53.056C67.9026 52.9253 67.7999 52.6827 67.7999 52.328C67.7999 51.768 67.7066 50.816 67.5199 49.472L67.4079 48.884L64.6359 48.464C64.5239 48.8933 64.3653 49.7613 64.1599 51.068C64.0479 51.9827 63.8706 52.5893 63.6279 52.888C63.4973 53.056 63.3106 53.14 63.0679 53.14C62.8439 53.14 62.6386 53.0747 62.4519 52.944C62.2653 52.7947 62.1719 52.6173 62.1719 52.412L62.2279 52.272L62.2559 52.16C63.4879 47.3627 64.4213 42.6307 65.0559 37.964C65.0559 37.8893 65.0653 37.768 65.0839 37.6C65.1026 37.4133 65.1213 37.152 65.1399 36.816C65.1959 36.1253 65.2519 35.5747 65.3079 35.164C65.3826 34.7533 65.4946 34.4453 65.6439 34.24H66.5959C66.8573 34.24 67.0813 34.3053 67.2679 34.436C67.4546 34.548 67.5479 34.716 67.5479 34.94C67.5479 36.3587 67.7439 38.468 68.1359 41.268C68.5093 44.1427 68.6959 46.1587 68.6959 47.316C68.6959 47.428 68.7426 47.7173 68.8359 48.184C68.9293 48.6133 68.9759 48.8933 68.9759 49.024C68.9759 49.1547 69.0693 49.7147 69.2559 50.704C69.4239 51.6 69.5079 52.1787 69.5079 52.44V52.468C69.5079 52.8787 69.3586 53.14 69.0599 53.252ZM67.2119 47.876C67.1559 47.596 67.1279 47.2507 67.1279 46.84C67.1279 45.16 66.9786 43.0133 66.6799 40.4L66.3999 37.488C65.5973 41.8747 65.0466 45.188 64.7479 47.428C65.0279 47.6147 65.8493 47.764 67.2119 47.876ZM72.4151 53.392C72.0791 53.336 71.7898 53.2147 71.5471 53.028C71.3231 52.8413 71.1925 52.5987 71.1551 52.3L71.4631 51.824C71.5751 51.824 71.7525 51.8613 71.9951 51.936C72.2751 51.992 72.4898 52.02 72.6391 52.02C72.9751 52.02 73.2738 51.8707 73.5351 51.572C73.8151 51.2733 74.0205 50.8813 74.1511 50.396C74.3938 49.5 74.5151 48.6973 74.5151 47.988C74.5151 46.756 74.1231 45.4587 73.3391 44.096L73.0311 43.564C72.6765 42.948 72.3778 42.3973 72.1351 41.912C71.8925 41.4267 71.6871 40.904 71.5191 40.344C71.2951 39.616 71.1831 38.888 71.1831 38.16C71.1831 37.3387 71.3698 36.48 71.7431 35.584C71.9298 35.1547 72.1911 34.8093 72.5271 34.548C72.8818 34.268 73.2738 34.128 73.7031 34.128C74.0391 34.128 74.3471 34.24 74.6271 34.464C74.9258 34.6693 75.0751 34.9213 75.0751 35.22C75.0751 35.388 75.0098 35.5187 74.8791 35.612C74.7485 35.7053 74.5898 35.752 74.4031 35.752C74.1978 35.752 74.0018 35.696 73.8151 35.584C73.4045 35.6027 73.0778 35.9667 72.8351 36.676C72.6298 37.3293 72.5271 37.8707 72.5271 38.3C72.5271 38.8413 72.6111 39.392 72.7791 39.952C72.9471 40.4933 73.1618 40.988 73.4231 41.436L74.0391 42.556L75.0191 44.404C75.2805 44.9267 75.4858 45.5333 75.6351 46.224C75.8031 46.9147 75.8871 47.6147 75.8871 48.324C75.8871 49.4627 75.6258 50.5453 75.1031 51.572C74.8418 52.0947 74.4685 52.5147 73.9831 52.832C73.5165 53.1493 72.9938 53.308 72.4151 53.308V53.392ZM85.3424 52.972C83.7184 52.972 82.9064 52.692 82.9064 52.132C82.9064 51.684 83.1957 51.46 83.7744 51.46H84.0824L84.3624 51.488C84.5117 51.488 84.6144 51.4413 84.6704 51.348C84.7264 51.2547 84.7544 51.0867 84.7544 50.844C84.7544 50.5267 84.7357 50.032 84.6984 49.36C84.6424 48.912 84.577 48.1093 84.5024 46.952C84.3344 44.096 84.2504 41.94 84.2504 40.484C84.2504 39.9613 84.2597 39.4853 84.2784 39.056L84.3064 37.628C84.3064 37.012 84.2784 36.4987 84.2224 36.088C83.9237 36.1627 83.709 36.2 83.5784 36.2C83.1304 36.2 82.9064 35.976 82.9064 35.528C82.9064 35.304 83.0464 35.108 83.3264 34.94C83.6064 34.772 83.961 34.6507 84.3904 34.576C85.137 34.4267 85.7997 34.352 86.3784 34.352C86.6024 34.352 86.789 34.436 86.9384 34.604C87.1064 34.7533 87.1904 34.9307 87.1904 35.136C87.1904 35.3413 87.125 35.5187 86.9944 35.668C86.8824 35.8173 86.733 35.892 86.5464 35.892C86.4344 35.892 86.341 35.8827 86.2664 35.864H86.0424C85.8557 35.864 85.7157 35.9107 85.6224 36.004C85.5477 36.0787 85.5104 36.228 85.5104 36.452C85.5104 38.2627 85.6224 40.988 85.8464 44.628C85.8837 45.3 85.9584 46.2893 86.0704 47.596C86.1637 48.4547 86.2104 49.332 86.2104 50.228V51.292C86.3224 51.2733 86.509 51.264 86.7704 51.264C87.5544 51.264 87.9464 51.5907 87.9464 52.244L87.9464 52.412L87.2464 52.888C87.2277 52.888 87.1624 52.8973 87.0504 52.916C86.957 52.916 86.7704 52.916 86.4904 52.916C85.893 52.9533 85.5104 52.972 85.3424 52.972ZM91.8268 52.552L91.7988 51.46C91.7801 51.1427 91.7708 50.788 91.7708 50.396L91.7988 49.444C91.7428 49.2387 91.6028 47.1947 91.3788 43.312C91.1548 39.4293 91.0241 36.9373 90.9868 35.836C89.9041 35.7987 89.2134 35.6867 88.9148 35.5C88.7094 35.3507 88.6068 35.1827 88.6068 34.996C88.6068 34.8467 88.7001 34.716 88.8868 34.604C89.0921 34.4733 89.2974 34.408 89.5028 34.408C90.0254 34.408 90.6601 34.4453 91.4068 34.52C92.1161 34.6133 92.7508 34.66 93.3108 34.66H93.5348H93.7588C94.3374 34.66 94.6268 34.884 94.6268 35.332C94.6268 35.556 94.5334 35.7427 94.3468 35.892C94.1601 36.0227 93.9454 36.088 93.7028 36.088C93.5348 36.088 93.2921 36.06 92.9748 36.004L92.4148 35.892L92.3868 36.032L92.3588 36.172C92.3588 37.8333 92.5174 40.484 92.8348 44.124C93.1334 47.54 93.2828 50.1907 93.2828 52.076C93.2828 52.3 93.1801 52.496 92.9748 52.664C92.7881 52.832 92.5734 52.916 92.3308 52.916L91.8268 52.552ZM50.324 81.196C50.0813 80.2067 49.96 78.8347 49.96 77.08L50.016 74.588C50.0533 73.8413 50.072 73.0107 50.072 72.096C49.96 71.8347 49.904 71.6013 49.904 71.396V71.312C50.0907 70.9573 50.184 70.1547 50.184 68.904L50.212 67.616C50.2307 67.2053 50.24 66.748 50.24 66.244C50.24 65.1427 50.1653 64.2747 50.016 63.64C50.072 63.3787 50.1653 63.1547 50.296 62.968C50.4267 62.7627 50.5853 62.66 50.772 62.66H52.004C52.5267 62.66 52.984 62.7813 53.376 63.024C53.768 63.248 54.0667 63.5747 54.272 64.004C54.6453 64.7693 54.832 65.6747 54.832 66.72C54.832 67.4667 54.8227 68.0547 54.804 68.484C54.7667 69.0253 54.6733 69.52 54.524 69.968C54.468 70.2107 54.384 70.416 54.272 70.584C54.1787 70.7333 54.0387 70.92 53.852 71.144C53.5907 71.4613 53.1613 71.76 52.564 72.04C52.3213 72.1707 52.004 72.292 51.612 72.404L51.612 75.4L51.668 77.192L51.724 78.06C51.7987 79.1053 51.836 79.992 51.836 80.72C51.836 80.944 51.7427 81.1307 51.556 81.28C51.3693 81.448 51.1547 81.532 50.912 81.532L50.324 81.196ZM51.64 71.256C52.7413 71.088 53.292 69.5107 53.292 66.524C53.292 65.9827 53.264 65.5627 53.208 65.264C53.152 65.04 53.0773 64.8627 52.984 64.732C52.8907 64.5827 52.7507 64.4613 52.564 64.368C52.3587 64.256 52.1347 64.2 51.892 64.2C51.892 64.1813 51.7893 64.172 51.584 64.172L51.584 65.768C51.584 66.8693 51.5933 67.8493 51.612 68.708C51.612 69.6787 51.6213 70.3133 51.64 70.612V71.2V71.256ZM60.859 81.532C60.3737 81.532 59.9257 81.3733 59.515 81.056C59.1043 80.7573 58.7683 80.3467 58.507 79.824C57.9657 78.6853 57.6297 77.444 57.499 76.1C57.331 74.8307 57.247 73.608 57.247 72.432C57.247 72.208 57.2563 72.0213 57.275 71.872V71.368C57.275 71.2747 57.2657 71.228 57.247 71.228V70.724L57.275 68.764C57.2937 68.1667 57.3683 67.2147 57.499 65.908C57.5923 65.012 57.807 64.144 58.143 63.304C58.2737 62.9307 58.4417 62.6507 58.647 62.464C58.8523 62.2587 59.0857 62.156 59.347 62.156C60.0937 62.156 60.7657 62.296 61.363 62.576C61.9603 62.8373 62.4643 63.2107 62.875 63.696C63.2483 64.1627 63.5657 64.7413 63.827 65.432C64.0883 66.104 64.275 66.8227 64.387 67.588C64.499 68.372 64.555 69.2027 64.555 70.08L64.555 70.304C64.555 70.8827 64.5643 71.4053 64.583 71.872L64.611 73.468C64.611 78.844 63.3603 81.532 60.859 81.532ZM60.747 80.356C61.083 80.356 61.391 80.2253 61.671 79.964C61.951 79.684 62.1657 79.3107 62.315 78.844C62.6697 77.892 62.8843 76.8653 62.959 75.764C63.0523 74.812 63.099 73.9907 63.099 73.3C63.099 72.46 63.0337 71.3587 62.903 69.996C62.791 68.5587 62.735 67.4853 62.735 66.776V66.272C62.6977 65.5627 62.455 64.9467 62.007 64.424C61.5777 63.9013 61.0457 63.64 60.411 63.64C59.7763 63.64 59.3563 64.004 59.151 64.732C58.9643 65.3107 58.871 66.0573 58.871 66.972C58.871 67.3267 58.8803 67.6253 58.899 67.868V68.624L58.843 69.912C58.8057 70.304 58.787 70.7333 58.787 71.2C58.787 72.208 58.815 73.2067 58.871 74.196C58.9457 75.596 59.1323 76.9587 59.431 78.284C59.7297 79.6653 60.1683 80.356 60.747 80.356ZM68.1768 81.392C67.8408 81.336 67.5515 81.2147 67.3088 81.028C67.0848 80.8413 66.9542 80.5987 66.9168 80.3L67.2248 79.824C67.3368 79.824 67.5142 79.8613 67.7568 79.936C68.0368 79.992 68.2515 80.02 68.4008 80.02C68.7368 80.02 69.0355 79.8707 69.2968 79.572C69.5768 79.2733 69.7822 78.8813 69.9128 78.396C70.1555 77.5 70.2768 76.6973 70.2768 75.988C70.2768 74.756 69.8848 73.4587 69.1008 72.096L68.7928 71.564C68.4382 70.948 68.1395 70.3973 67.8968 69.912C67.6542 69.4267 67.4488 68.904 67.2808 68.344C67.0568 67.616 66.9448 66.888 66.9448 66.16C66.9448 65.3387 67.1315 64.48 67.5048 63.584C67.6915 63.1547 67.9528 62.8093 68.2888 62.548C68.6435 62.268 69.0355 62.128 69.4648 62.128C69.8008 62.128 70.1088 62.24 70.3888 62.464C70.6875 62.6693 70.8368 62.9213 70.8368 63.22C70.8368 63.388 70.7715 63.5187 70.6408 63.612C70.5102 63.7053 70.3515 63.752 70.1648 63.752C69.9595 63.752 69.7635 63.696 69.5768 63.584C69.1662 63.6027 68.8395 63.9667 68.5968 64.676C68.3915 65.3293 68.2888 65.8707 68.2888 66.3C68.2888 66.8413 68.3728 67.392 68.5408 67.952C68.7088 68.4933 68.9235 68.988 69.1848 69.436L69.8008 70.556L70.7808 72.404C71.0422 72.9267 71.2475 73.5333 71.3968 74.224C71.5648 74.9147 71.6488 75.6147 71.6488 76.324C71.6488 77.4627 71.3875 78.5453 70.8648 79.572C70.6035 80.0947 70.2302 80.5147 69.7448 80.832C69.2782 81.1493 68.7555 81.308 68.1768 81.308V81.392ZM75.0948 81.392C74.7588 81.336 74.4695 81.2147 74.2268 81.028C74.0028 80.8413 73.8721 80.5987 73.8348 80.3L74.1428 79.824C74.2548 79.824 74.4321 79.8613 74.6748 79.936C74.9548 79.992 75.1695 80.02 75.3188 80.02C75.6548 80.02 75.9535 79.8707 76.2148 79.572C76.4948 79.2733 76.7001 78.8813 76.8308 78.396C77.0735 77.5 77.1948 76.6973 77.1948 75.988C77.1948 74.756 76.8028 73.4587 76.0188 72.096L75.7108 71.564C75.3561 70.948 75.0575 70.3973 74.8148 69.912C74.5721 69.4267 74.3668 68.904 74.1988 68.344C73.9748 67.616 73.8628 66.888 73.8628 66.16C73.8628 65.3387 74.0495 64.48 74.4228 63.584C74.6095 63.1547 74.8708 62.8093 75.2068 62.548C75.5615 62.268 75.9535 62.128 76.3828 62.128C76.7188 62.128 77.0268 62.24 77.3068 62.464C77.6055 62.6693 77.7548 62.9213 77.7548 63.22C77.7548 63.388 77.6895 63.5187 77.5588 63.612C77.4281 63.7053 77.2695 63.752 77.0828 63.752C76.8775 63.752 76.6815 63.696 76.4948 63.584C76.0841 63.6027 75.7575 63.9667 75.5148 64.676C75.3095 65.3293 75.2068 65.8707 75.2068 66.3C75.2068 66.8413 75.2908 67.392 75.4588 67.952C75.6268 68.4933 75.8415 68.988 76.1028 69.436L76.7188 70.556L77.6988 72.404C77.9601 72.9267 78.1655 73.5333 78.3148 74.224C78.4828 74.9147 78.5668 75.6147 78.5668 76.324C78.5668 77.4627 78.3055 78.5453 77.7828 79.572C77.5215 80.0947 77.1481 80.5147 76.6628 80.832C76.1961 81.1493 75.6735 81.308 75.0948 81.308V81.392ZM82.9088 80.972C81.2848 80.972 80.4728 80.692 80.4728 80.132C80.4728 79.684 80.7621 79.46 81.3408 79.46H81.6488L81.9288 79.488C82.0781 79.488 82.1808 79.4413 82.2368 79.348C82.2928 79.2547 82.3208 79.0867 82.3208 78.844C82.3208 78.5267 82.3021 78.032 82.2648 77.36C82.2088 76.912 82.1434 76.1093 82.0688 74.952C81.9008 72.096 81.8168 69.94 81.8168 68.484C81.8168 67.9613 81.8261 67.4853 81.8448 67.056L81.8728 65.628C81.8728 65.012 81.8448 64.4987 81.7888 64.088C81.4901 64.1627 81.2754 64.2 81.1448 64.2C80.6968 64.2 80.4728 63.976 80.4728 63.528C80.4728 63.304 80.6128 63.108 80.8928 62.94C81.1728 62.772 81.5274 62.6507 81.9568 62.576C82.7034 62.4267 83.3661 62.352 83.9448 62.352C84.1688 62.352 84.3554 62.436 84.5048 62.604C84.6728 62.7533 84.7568 62.9307 84.7568 63.136C84.7568 63.3413 84.6914 63.5187 84.5608 63.668C84.4488 63.8173 84.2994 63.892 84.1128 63.892C84.0008 63.892 83.9074 63.8827 83.8328 63.864L83.6088 63.864C83.4221 63.864 83.2821 63.9107 83.1888 64.004C83.1141 64.0787 83.0768 64.228 83.0768 64.452C83.0768 66.2627 83.1888 68.988 83.4128 72.628C83.4501 73.3 83.5248 74.2893 83.6368 75.596C83.7301 76.4547 83.7768 77.332 83.7768 78.228V79.292C83.8888 79.2733 84.0754 79.264 84.3368 79.264C85.1208 79.264 85.5128 79.5907 85.5128 80.244V80.412L84.8128 80.888C84.7941 80.888 84.7288 80.8973 84.6168 80.916C84.5234 80.916 84.3368 80.916 84.0568 80.916C83.4594 80.9533 83.0768 80.972 82.9088 80.972ZM88.6372 81.28C88.2265 81.28 87.9745 81.1027 87.8812 80.748C87.8065 80.524 87.7692 80.2067 87.7692 79.796C87.7692 78.9933 87.8065 78.004 87.8812 76.828C87.9745 75.708 88.0212 74.7093 88.0212 73.832C88.0212 72.8427 88.0492 71.3587 88.1052 69.38L88.1612 64.956C88.1612 64.788 88.1332 64.536 88.0772 64.2L87.9932 63.5V63.36C87.9932 62.9307 88.0585 62.6133 88.1892 62.408C88.3199 62.2027 88.5625 62.1 88.9172 62.1C89.4025 62.1 89.9345 62.24 90.5132 62.52C91.0919 62.8 91.5119 63.1547 91.7732 63.584C92.3145 64.48 92.5852 65.6 92.5852 66.944C92.5852 67.952 92.5012 68.8013 92.3332 69.492C92.1652 70.164 91.8759 70.7893 91.4652 71.368C91.9692 71.8533 92.3052 72.4787 92.4732 73.244C92.6599 73.9907 92.7532 74.9333 92.7532 76.072C92.7532 77.2107 92.5572 78.2 92.1652 79.04C91.7172 79.992 91.0639 80.6453 90.2052 81C89.6825 81.1867 89.1599 81.28 88.6372 81.28ZM89.5332 70.556C90.5039 70.5373 90.9892 69.408 90.9892 67.168C90.9892 64.76 90.6065 63.5 89.8412 63.388C89.6359 63.8173 89.5332 64.8253 89.5332 66.412L89.5332 70.556ZM89.3652 79.852C89.9625 79.7213 90.4292 79.3667 90.7652 78.788C91.1012 78.2093 91.2692 77.5467 91.2692 76.8C91.2692 76.016 91.2225 75.3253 91.1292 74.728C91.0545 74.2613 90.9519 73.8787 90.8212 73.58C90.7092 73.2627 90.5505 72.9733 90.3452 72.712C90.1212 72.432 89.8599 72.264 89.5612 72.208C89.4865 73.272 89.4492 74.6813 89.4492 76.436C89.4492 76.548 89.4305 76.9027 89.3932 77.5L89.3372 78.452C89.3372 78.4893 89.3465 78.5173 89.3652 78.536V78.592L89.3652 79.852ZM100.122 81.448C99.4496 81.224 98.6189 81.112 97.6296 81.112C97.3309 81.2987 97.0136 81.392 96.6776 81.392C96.4536 81.392 96.2576 81.2893 96.0896 81.084C95.9402 80.8973 95.8656 80.692 95.8656 80.468C95.8656 78.9 95.9309 76.8093 96.0616 74.196C96.1736 71.4147 96.2296 69.3333 96.2296 67.952V67.756C96.1176 66.58 96.0616 65.7027 96.0616 65.124C96.0616 63.3507 96.3882 62.464 97.0416 62.464C97.2282 62.464 97.3869 62.5387 97.5176 62.688C97.6669 62.8187 97.7416 62.9773 97.7416 63.164C97.7416 63.388 97.7136 63.7427 97.6576 64.228C97.6016 64.6947 97.5736 65.0493 97.5736 65.292C97.5736 66.5427 97.5829 67.672 97.6016 68.68C97.6202 69.6693 97.6296 70.7893 97.6296 72.04C97.5362 72.32 97.4896 72.712 97.4896 73.216V73.552L97.4336 75.764C97.3962 76.4173 97.3776 77.164 97.3776 78.004C97.3776 79.292 97.6856 79.936 98.3016 79.936C98.3389 79.936 98.3949 79.936 98.4696 79.936C98.5629 79.9173 98.6842 79.908 98.8336 79.908C99.0016 79.8893 99.2162 79.88 99.4776 79.88C100.486 79.88 100.99 80.16 100.99 80.72C100.99 80.9067 100.906 81.0653 100.738 81.196C100.57 81.3267 100.364 81.4107 100.122 81.448ZM104.59 81.364C104.347 81.364 104.123 81.28 103.918 81.112C103.731 80.944 103.628 80.7387 103.61 80.496V79.768V79.208C103.591 79.04 103.582 78.844 103.582 78.62C103.582 78.228 103.554 77.6307 103.498 76.828L103.442 75.036C103.442 74.1213 103.47 72.7587 103.526 70.948C103.6 69.324 103.638 67.9613 103.638 66.86C103.638 66.5987 103.61 66.2067 103.554 65.684C103.498 65.1427 103.47 64.7507 103.47 64.508C103.47 63.1827 103.862 62.52 104.646 62.52C105.262 62.52 105.971 62.6413 106.774 62.884C107.595 63.1267 108.006 63.416 108.006 63.752C108.006 63.9387 107.922 64.116 107.754 64.284C107.604 64.4333 107.418 64.5547 107.194 64.648C106.41 64.368 105.7 64.1813 105.066 64.088C105.084 64.368 105.094 64.7693 105.094 65.292C105.094 66.0387 105.084 66.7107 105.066 67.308C105.01 68.204 104.982 68.876 104.982 69.324L105.066 69.772L105.514 69.744C105.663 69.7253 105.85 69.716 106.074 69.716C106.97 69.716 107.418 69.9773 107.418 70.5C107.418 70.7053 107.334 70.8827 107.166 71.032C106.998 71.1627 106.783 71.228 106.522 71.228C106.186 71.228 105.924 71.2093 105.738 71.172H105.038C105.075 71.6573 105.094 72.3667 105.094 73.3C105.094 74.2333 105.084 75.0733 105.066 75.82C105.01 76.9587 104.982 77.808 104.982 78.368C104.982 79.4133 105 79.936 105.038 79.936L105.962 79.908C106.279 79.8893 106.662 79.88 107.11 79.88C107.819 79.88 108.174 80.104 108.174 80.552C108.174 80.8133 108.052 81.0093 107.81 81.14C107.586 81.2893 107.306 81.364 106.97 81.364L104.59 81.364ZM113.107 77.948C112.733 77.948 112.509 77.7427 112.435 77.332C112.435 76.1933 112.519 74.952 112.687 73.608C112.873 72.264 113.135 70.6307 113.471 68.708L113.611 67.896C113.872 66.272 114.003 64.9093 114.003 63.808C114.003 62.072 113.723 61.204 113.163 61.204C112.808 61.204 112.631 61.624 112.631 62.464C112.631 62.6693 112.696 63.1733 112.827 63.976C112.827 63.9947 112.78 64.0507 112.687 64.144C112.369 64.424 112.136 64.564 111.987 64.564C111.464 64.564 111.203 63.9387 111.203 62.688V62.408C111.203 61.9227 111.249 61.512 111.343 61.176C111.455 60.8213 111.651 60.5133 111.931 60.252C112.248 59.9907 112.64 59.86 113.107 59.86C113.517 59.86 113.872 59.9347 114.171 60.084C114.469 60.2333 114.712 60.4387 114.899 60.7C115.197 61.148 115.384 61.8107 115.459 62.688C115.477 62.8933 115.487 63.2573 115.487 63.78C115.487 65.4227 115.207 67.2147 114.647 69.156C114.404 69.9587 114.199 70.976 114.031 72.208C113.863 73.4213 113.779 74.6813 113.779 75.988C113.779 77.0147 113.788 77.64 113.807 77.864C113.471 77.864 113.284 77.8827 113.247 77.92C113.209 77.9387 113.163 77.948 113.107 77.948ZM113.107 81.112C112.827 81.112 112.603 81 112.435 80.776C112.229 80.5893 112.127 80.356 112.127 80.076C112.127 79.8147 112.239 79.572 112.463 79.348C112.687 79.1053 112.939 78.984 113.219 78.984C113.443 78.984 113.667 79.1053 113.891 79.348C114.115 79.5907 114.227 79.824 114.227 80.048C114.227 80.7573 113.853 81.112 113.107 81.112Z" fill="#292D32"/>
<defs>
<filter id="filter0_d_0_4467" x="0" y="0" width="172" height="152" filterUnits="userSpaceOnUse" color-interpolation-filters="sRGB">
<feFlood flood-opacity="0" result="BackgroundImageFix"/>
<feColorMatrix in="SourceAlpha" type="matrix" values="0 0 0 0 0 0 0 0 0 0 0 0 0 0 0 0 0 0 127 0" result="hardAlpha"/>
<feOffset dy="12"/>
<feGaussianBlur stdDeviation="10"/>
<feComposite in2="hardAlpha" operator="out"/>
<feColorMatrix type="matrix" values="0 0 0 0 0 0 0 0 0 0 0 0 0 0 0 0 0 0 0.08 0"/>
<feBlend mode="normal" in2="BackgroundImageFix" result="effect1_dropShadow_0_4467"/>
<feBlend mode="normal" in="SourceGraphic" in2="effect1_dropShadow_0_4467" result="shape"/>
</filter>
</defs>
</svg>
