<svg width="247" height="182" viewBox="0 0 247 182" fill="none" xmlns="http://www.w3.org/2000/svg">
<g filter="url(#filter0_d_0_3481)">
<path d="M85.4054 8.00537C112.474 8.37283 139.959 6.85286 166.845 10.6611C199.005 15.2378 227.926 28.9028 226.978 61.9412C225.221 122.896 179.156 123.26 98.9158 126.677C90.9798 134.478 72.4427 148.664 49.949 150C49.949 150 61.198 138.472 61.5807 117.794C43.9715 114.039 27.318 97.0424 21.9004 79.4608C11.258 44.9228 47.0814 7.48473 85.4054 8.00537Z" fill="white"/>
</g>
<path d="M54.2763 58.616C53.6043 58.616 53.0256 58.4947 52.5403 58.252C52.2416 58.084 52.0923 57.888 52.0923 57.664C52.0923 57.44 52.1483 57.2627 52.2603 57.132C52.3723 56.9827 52.531 56.908 52.7363 56.908C52.923 56.908 53.1936 56.9827 53.5483 57.132C53.9403 57.2813 54.183 57.356 54.2763 57.356C54.631 57.356 54.9483 57.2067 55.2283 56.908C55.527 56.5907 55.7603 56.18 55.9283 55.676C56.2643 54.7427 56.4323 53.9027 56.4323 53.156C56.4323 52.3533 56.3016 51.5133 56.0403 50.636C55.7976 49.74 55.4616 48.872 55.0323 48.032L54.5843 47.136C54.1176 46.2027 53.7536 45.4653 53.4923 44.924C53.2496 44.3827 53.035 43.7947 52.8483 43.16C52.5683 42.264 52.4283 41.396 52.4283 40.556C52.4283 39.884 52.5403 39.2493 52.7643 38.652C53.007 38.0547 53.3616 37.5507 53.8283 37.14C54.295 36.692 54.8736 36.468 55.5643 36.468C55.9003 36.468 56.227 36.5707 56.5443 36.776C56.8616 36.9627 57.0856 37.2053 57.2163 37.504L56.7403 38.092C56.255 38.092 55.891 37.9987 55.6483 37.812C55.3123 37.8493 55.0136 38.0173 54.7523 38.316C54.5096 38.596 54.323 38.9227 54.1923 39.296C54.0803 39.6507 54.0243 40.0053 54.0243 40.36C54.0243 41.0693 54.1176 41.7973 54.3043 42.544C54.5096 43.272 54.771 43.9627 55.0883 44.616L57.0483 48.536C57.3656 49.208 57.6176 49.964 57.8043 50.804C57.991 51.644 58.0843 52.484 58.0843 53.324C58.0843 54.556 57.7856 55.7133 57.1883 56.796C56.871 57.356 56.4603 57.7947 55.9563 58.112C55.4523 58.448 54.8923 58.616 54.2763 58.616ZM66.8102 58.252C66.3809 58.252 66.0636 58.1867 65.8582 58.056C65.6529 57.9253 65.5502 57.6827 65.5502 57.328C65.5502 56.768 65.4569 55.816 65.2702 54.472L65.1582 53.884L62.3862 53.464C62.2742 53.8933 62.1156 54.7613 61.9102 56.068C61.7982 56.9827 61.6209 57.5893 61.3782 57.888C61.2476 58.056 61.0609 58.14 60.8182 58.14C60.5942 58.14 60.3889 58.0747 60.2022 57.944C60.0156 57.7947 59.9222 57.6173 59.9222 57.412L59.9782 57.272L60.0062 57.16C61.2382 52.3627 62.1716 47.6307 62.8062 42.964C62.8062 42.8893 62.8156 42.768 62.8342 42.6C62.8529 42.4133 62.8716 42.152 62.8902 41.816C62.9462 41.1253 63.0022 40.5747 63.0582 40.164C63.1329 39.7533 63.2449 39.4453 63.3942 39.24L64.3462 39.24C64.6076 39.24 64.8316 39.3053 65.0182 39.436C65.2049 39.548 65.2982 39.716 65.2982 39.94C65.2982 41.3587 65.4942 43.468 65.8862 46.268C66.2596 49.1427 66.4462 51.1587 66.4462 52.316C66.4462 52.428 66.4929 52.7173 66.5862 53.184C66.6796 53.6133 66.7262 53.8933 66.7262 54.024C66.7262 54.1547 66.8196 54.7147 67.0062 55.704C67.1742 56.6 67.2582 57.1787 67.2582 57.44V57.468C67.2582 57.8787 67.1089 58.14 66.8102 58.252ZM64.9622 52.876C64.9062 52.596 64.8782 52.2507 64.8782 51.84C64.8782 50.16 64.7289 48.0133 64.4302 45.4L64.1502 42.488C63.3476 46.8747 62.7969 50.188 62.4982 52.428C62.7782 52.6147 63.5996 52.764 64.9622 52.876ZM73.9734 58.448C73.3014 58.224 72.4708 58.112 71.4814 58.112C71.1828 58.2987 70.8654 58.392 70.5294 58.392C70.3054 58.392 70.1094 58.2893 69.9414 58.084C69.7921 57.8973 69.7174 57.692 69.7174 57.468C69.7174 55.9 69.7828 53.8093 69.9134 51.196C70.0254 48.4147 70.0814 46.3333 70.0814 44.952V44.756C69.9694 43.58 69.9134 42.7027 69.9134 42.124C69.9134 40.3507 70.2401 39.464 70.8934 39.464C71.0801 39.464 71.2388 39.5387 71.3694 39.688C71.5188 39.8187 71.5934 39.9773 71.5934 40.164C71.5934 40.388 71.5654 40.7427 71.5094 41.228C71.4534 41.6947 71.4254 42.0493 71.4254 42.292C71.4254 43.5427 71.4348 44.672 71.4534 45.68C71.4721 46.6693 71.4814 47.7893 71.4814 49.04C71.3881 49.32 71.3414 49.712 71.3414 50.216V50.552L71.2854 52.764C71.2481 53.4173 71.2294 54.164 71.2294 55.004C71.2294 56.292 71.5374 56.936 72.1534 56.936C72.1908 56.936 72.2468 56.936 72.3214 56.936C72.4148 56.9173 72.5361 56.908 72.6854 56.908C72.8534 56.8893 73.0681 56.88 73.3294 56.88C74.3374 56.88 74.8414 57.16 74.8414 57.72C74.8414 57.9067 74.7574 58.0653 74.5894 58.196C74.4214 58.3267 74.2161 58.4107 73.9734 58.448ZM80.4296 58.532C79.9443 58.532 79.4963 58.3733 79.0856 58.056C78.6749 57.7573 78.3389 57.3467 78.0776 56.824C77.5363 55.6853 77.2003 54.444 77.0696 53.1C76.9016 51.8307 76.8176 50.608 76.8176 49.432C76.8176 49.208 76.8269 49.0213 76.8456 48.872V48.368C76.8456 48.2747 76.8363 48.228 76.8176 48.228V47.724L76.8456 45.764C76.8643 45.1667 76.9389 44.2147 77.0696 42.908C77.1629 42.012 77.3776 41.144 77.7136 40.304C77.8443 39.9307 78.0123 39.6507 78.2176 39.464C78.4229 39.2587 78.6563 39.156 78.9176 39.156C79.6643 39.156 80.3363 39.296 80.9336 39.576C81.5309 39.8373 82.0349 40.2107 82.4456 40.696C82.8189 41.1627 83.1363 41.7413 83.3976 42.432C83.6589 43.104 83.8456 43.8227 83.9576 44.588C84.0696 45.372 84.1256 46.2027 84.1256 47.08V47.304C84.1256 47.8827 84.1349 48.4053 84.1536 48.872L84.1816 50.468C84.1816 55.844 82.9309 58.532 80.4296 58.532ZM80.3176 57.356C80.6536 57.356 80.9616 57.2253 81.2416 56.964C81.5216 56.684 81.7363 56.3107 81.8856 55.844C82.2403 54.892 82.4549 53.8653 82.5296 52.764C82.6229 51.812 82.6696 50.9907 82.6696 50.3C82.6696 49.46 82.6043 48.3587 82.4736 46.996C82.3616 45.5587 82.3056 44.4853 82.3056 43.776L82.3056 43.272C82.2683 42.5627 82.0256 41.9467 81.5776 41.424C81.1483 40.9013 80.6163 40.64 79.9816 40.64C79.3469 40.64 78.9269 41.004 78.7216 41.732C78.5349 42.3107 78.4416 43.0573 78.4416 43.972C78.4416 44.3267 78.4509 44.6253 78.4696 44.868V45.624L78.4136 46.912C78.3763 47.304 78.3576 47.7333 78.3576 48.2C78.3576 49.208 78.3856 50.2067 78.4416 51.196C78.5163 52.596 78.7029 53.9587 79.0016 55.284C79.3003 56.6653 79.7389 57.356 80.3176 57.356ZM98.5275 59.456C97.9488 59.456 97.6595 58.8773 97.6595 57.72V55.928V54.136C97.6595 53.2027 97.5941 51.98 97.4635 50.468C97.3141 48.7693 97.2395 47.6027 97.2395 46.968L97.2955 45.232C97.3328 44.728 97.3515 44.1587 97.3515 43.524C97.2768 43.7667 96.9688 45.0547 96.4275 47.388C95.8861 49.6467 95.3261 51.7373 94.7475 53.66C94.1875 55.508 93.7301 56.432 93.3755 56.432C93.0208 56.432 92.7315 56.3293 92.5075 56.124C92.3021 55.9 92.1995 55.6013 92.1995 55.228C92.1995 54.4067 91.8635 52.6613 91.1915 49.992C90.5381 47.3227 89.9408 45.1387 89.3995 43.44L89.2315 46.604C89.0821 49.2733 88.9795 51.4947 88.9235 53.268C88.8861 54.9853 88.8675 56.1613 88.8675 56.796C88.8675 56.9453 88.8768 57.0853 88.8955 57.216L88.8955 57.608C88.8955 57.9253 88.8301 58.1587 88.6995 58.308C88.5688 58.476 88.3261 58.56 87.9715 58.56C87.7848 58.56 87.6075 58.4853 87.4395 58.336C87.2715 58.2053 87.1875 58.056 87.1875 57.888C87.1875 55.984 87.3275 53.128 87.6075 49.32C87.8875 45.512 88.0275 42.656 88.0275 40.752C87.9155 40.584 87.8595 40.4067 87.8595 40.22C87.8595 39.996 87.9621 39.828 88.1675 39.716C88.3915 39.5853 88.6528 39.52 88.9515 39.52C89.1941 39.52 89.6421 40.3973 90.2955 42.152C90.9488 43.9067 91.6021 45.8947 92.2555 48.116C92.9088 50.3373 93.3288 51.9427 93.5155 52.932C93.6648 52.428 93.7861 51.9613 93.8795 51.532L94.0475 50.86C94.6448 48.2467 95.2421 45.8853 95.8395 43.776C96.1941 42.488 96.5395 41.48 96.8755 40.752C97.2115 39.968 97.5195 39.576 97.7995 39.576C98.0608 39.576 98.2941 39.6507 98.4995 39.8C98.7235 39.9307 98.8355 40.108 98.8355 40.332C98.8355 41.676 98.8915 43.692 99.0035 46.38C99.1341 48.8813 99.1995 50.8227 99.1995 52.204L99.1715 53.688L99.1155 55.172C99.1155 55.396 99.1435 55.732 99.1995 56.18L99.2835 57.16C99.3021 57.328 99.3115 57.4587 99.3115 57.552C99.3301 57.6453 99.3395 57.7013 99.3395 57.72C99.4328 57.9627 99.4795 58.14 99.4795 58.252C99.4795 58.5693 99.3861 58.8493 99.1995 59.092C99.0128 59.3347 98.7888 59.456 98.5275 59.456ZM103.359 60.632C103.172 60.632 103.06 60.548 103.023 60.38V60.212L103.695 59.372C103.937 59.036 104.096 58.728 104.171 58.448C104.189 58.392 104.199 58.308 104.199 58.196C104.199 58.084 104.189 58 104.171 57.944C103.872 57.944 103.639 57.86 103.471 57.692C103.321 57.5053 103.219 57.2253 103.163 56.852C103.107 56.516 103.2 56.264 103.443 56.096C103.704 55.9093 104.031 55.816 104.423 55.816C105.001 55.816 105.347 56.124 105.459 56.74C105.533 57.2067 105.403 57.8227 105.067 58.588C104.731 59.3533 104.301 59.9787 103.779 60.464C103.667 60.5573 103.555 60.6133 103.443 60.632H103.359ZM53.2123 86.392C52.8763 86.336 52.587 86.2147 52.3443 86.028C52.1203 85.8413 51.9896 85.5987 51.9523 85.3L52.2603 84.824C52.3723 84.824 52.5496 84.8613 52.7923 84.936C53.0723 84.992 53.287 85.02 53.4363 85.02C53.7723 85.02 54.071 84.8707 54.3323 84.572C54.6123 84.2733 54.8176 83.8813 54.9483 83.396C55.191 82.5 55.3123 81.6973 55.3123 80.988C55.3123 79.756 54.9203 78.4587 54.1363 77.096L53.8283 76.564C53.4736 75.948 53.175 75.3973 52.9323 74.912C52.6896 74.4267 52.4843 73.904 52.3163 73.344C52.0923 72.616 51.9803 71.888 51.9803 71.16C51.9803 70.3387 52.167 69.48 52.5403 68.584C52.727 68.1547 52.9883 67.8093 53.3243 67.548C53.679 67.268 54.071 67.128 54.5003 67.128C54.8363 67.128 55.1443 67.24 55.4243 67.464C55.723 67.6693 55.8723 67.9213 55.8723 68.22C55.8723 68.388 55.807 68.5187 55.6763 68.612C55.5456 68.7053 55.387 68.752 55.2003 68.752C54.995 68.752 54.799 68.696 54.6123 68.584C54.2016 68.6027 53.875 68.9667 53.6323 69.676C53.427 70.3293 53.3243 70.8707 53.3243 71.3C53.3243 71.8413 53.4083 72.392 53.5763 72.952C53.7443 73.4933 53.959 73.988 54.2203 74.436L54.8363 75.556L55.8163 77.404C56.0776 77.9267 56.283 78.5333 56.4323 79.224C56.6003 79.9147 56.6843 80.6147 56.6843 81.324C56.6843 82.4627 56.423 83.5453 55.9003 84.572C55.639 85.0947 55.2656 85.5147 54.7803 85.832C54.3136 86.1493 53.791 86.308 53.2123 86.308V86.392ZM61.0263 85.972C59.4023 85.972 58.5903 85.692 58.5903 85.132C58.5903 84.684 58.8796 84.46 59.4583 84.46H59.7663L60.0463 84.488C60.1956 84.488 60.2983 84.4413 60.3543 84.348C60.4103 84.2547 60.4383 84.0867 60.4383 83.844C60.4383 83.5267 60.4196 83.032 60.3823 82.36C60.3263 81.912 60.2609 81.1093 60.1863 79.952C60.0183 77.096 59.9343 74.94 59.9343 73.484C59.9343 72.9613 59.9436 72.4853 59.9623 72.056L59.9903 70.628C59.9903 70.012 59.9623 69.4987 59.9063 69.088C59.6076 69.1627 59.3929 69.2 59.2623 69.2C58.8143 69.2 58.5903 68.976 58.5903 68.528C58.5903 68.304 58.7303 68.108 59.0103 67.94C59.2903 67.772 59.6449 67.6507 60.0743 67.576C60.8209 67.4267 61.4836 67.352 62.0623 67.352C62.2863 67.352 62.4729 67.436 62.6223 67.604C62.7903 67.7533 62.8743 67.9307 62.8743 68.136C62.8743 68.3413 62.8089 68.5187 62.6783 68.668C62.5663 68.8173 62.4169 68.892 62.2303 68.892C62.1183 68.892 62.0249 68.8827 61.9503 68.864H61.7263C61.5396 68.864 61.3996 68.9107 61.3063 69.004C61.2316 69.0787 61.1943 69.228 61.1943 69.452C61.1943 71.2627 61.3063 73.988 61.5303 77.628C61.5676 78.3 61.6423 79.2893 61.7543 80.596C61.8476 81.4547 61.8943 82.332 61.8943 83.228V84.292C62.0063 84.2733 62.1929 84.264 62.4543 84.264C63.2383 84.264 63.6303 84.5907 63.6303 85.244V85.412L62.9303 85.888C62.9116 85.888 62.8463 85.8973 62.7343 85.916C62.6409 85.916 62.4543 85.916 62.1743 85.916C61.5769 85.9533 61.1943 85.972 61.0263 85.972ZM66.3627 86.056C66.1573 86.056 65.98 86 65.8307 85.888C65.6813 85.7573 65.6067 85.5987 65.6067 85.412C65.6067 84.292 65.8213 82.8173 66.2507 80.988C66.6987 79.1587 67.3427 76.9 68.1827 74.212C69.0227 71.4307 69.5453 69.6387 69.7507 68.836C69.5267 68.836 69.1627 68.864 68.6587 68.92C68.1547 68.976 67.7533 69.004 67.4547 69.004C67.268 69.004 67.1 68.9293 66.9507 68.78C66.8013 68.612 66.7267 68.4253 66.7267 68.22C66.7267 67.6787 67.7533 67.408 69.8067 67.408C70.74 67.408 71.2067 67.6693 71.2067 68.192C71.2067 68.7893 71.0013 69.676 70.5907 70.852C70.1987 71.8973 69.956 72.6907 69.8627 73.232C69.676 74.5573 69.1907 76.7227 68.4067 79.728L67.1747 84.572H67.6787L68.2667 84.516C68.4347 84.4973 68.6307 84.488 68.8547 84.488V84.46C69.6013 84.46 69.9747 84.6933 69.9747 85.16C69.9747 85.3653 69.8813 85.5333 69.6947 85.664C69.508 85.776 69.2747 85.832 68.9947 85.832C68.696 85.832 68.4253 85.8227 68.1827 85.804L67.3427 85.748C67.2307 85.748 67.072 85.804 66.8667 85.916C66.624 86.0093 66.456 86.056 66.3627 86.056ZM82.2277 86.42C81.7797 86.42 81.3784 86.3173 81.0237 86.112C80.6691 85.9253 80.3797 85.6453 80.1557 85.272C79.7077 84.488 79.4184 83.6013 79.2877 82.612C79.1571 81.7533 79.0917 80.7267 79.0917 79.532C79.0357 77.516 79.0077 75.052 79.0077 72.14L78.9797 69.984C78.9611 69.872 78.9517 69.6853 78.9517 69.424C78.9144 68.7147 78.8957 68.2853 78.8957 68.136C79.0637 67.744 79.2597 67.548 79.4837 67.548C79.7077 67.548 79.9037 67.716 80.0717 68.052C80.2584 68.388 80.3517 68.752 80.3517 69.144L80.3517 76.76C80.3517 77.5067 80.4171 78.496 80.5477 79.728C80.6784 81.2587 80.7437 82.248 80.7437 82.696C80.7437 84.0773 81.3317 84.768 82.5077 84.768C83.8517 84.768 84.5237 79.7467 84.5237 69.704L84.5237 68.136V67.884C84.5051 67.828 84.4957 67.7533 84.4957 67.66C84.4957 67.436 84.5424 67.2773 84.6357 67.184C84.7477 67.072 84.9531 67.016 85.2517 67.016C85.4944 67.016 85.6811 67.0907 85.8117 67.24C85.9611 67.3707 86.0544 67.5293 86.0917 67.716C86.1104 67.828 86.1197 68.0427 86.1197 68.36C86.1197 68.6587 86.0917 69.1347 86.0357 69.788C85.9611 70.3293 85.9237 70.796 85.9237 71.188C85.9237 71.6173 85.9051 72 85.8677 72.336L85.8117 73.512V73.736C85.8304 73.8107 85.8397 73.8947 85.8397 73.988C85.8397 82.276 84.6357 86.42 82.2277 86.42ZM93.1009 86.392C92.6903 86.392 92.2516 86.3267 91.7849 86.196C91.3369 86.084 90.9916 85.9533 90.7489 85.804C89.4983 85.0013 88.8729 82.808 88.8729 79.224V78.468V77.6V76.928C88.8729 76.1813 88.8823 75.5187 88.9009 74.94C88.9196 74.3427 88.9569 73.6987 89.0129 73.008C89.0689 72.28 89.1529 71.692 89.2649 71.244C89.3769 70.7773 89.5636 70.2547 89.8249 69.676C90.0489 69.1347 90.3196 68.7147 90.6369 68.416C90.9729 68.1173 91.4023 67.8653 91.9249 67.66C92.3916 67.4547 92.9703 67.352 93.6609 67.352C93.9409 67.352 94.1556 67.4173 94.3049 67.548C94.4543 67.6787 94.5289 67.8467 94.5289 68.052C94.5289 68.2387 94.4636 68.4067 94.3329 68.556C94.2209 68.7053 94.0809 68.7893 93.9129 68.808H92.5969C92.2236 68.808 91.8969 69.0413 91.6169 69.508C91.3369 69.9747 91.1409 70.5813 91.0289 71.328C90.7863 72.7093 90.6649 73.8293 90.6649 74.688V74.828L90.6089 77.516C90.5716 78.3187 90.5529 79.224 90.5529 80.232C90.5529 80.9413 90.5809 81.52 90.6369 81.968C90.7303 82.64 90.8889 83.2 91.1129 83.648C91.3369 84.152 91.7196 84.516 92.2609 84.74C92.5409 84.852 92.8489 84.908 93.1849 84.908C93.3903 84.908 93.5956 84.8333 93.8009 84.684C94.0436 84.684 94.2396 84.74 94.3889 84.852C94.5569 84.9453 94.6409 85.0947 94.6409 85.3C94.6409 86.028 94.1276 86.392 93.1009 86.392ZM102.097 86C101.463 86 101.145 84.46 101.145 81.38L101.173 79.784L101.201 78.496V78.412V78.132C101.22 77.9827 101.229 77.8053 101.229 77.6C101.229 77.5627 101.201 77.516 101.145 77.46C101.089 77.404 101.061 77.3573 101.061 77.32V77.292C100.968 77.3293 100.8 77.348 100.557 77.348C100.315 77.348 100.016 77.3107 99.6612 77.236C99.5492 77.2173 99.2506 77.1707 98.7652 77.096V80.316C98.7652 80.8013 98.7932 81.5667 98.8492 82.612C98.9052 83.6387 98.9332 84.404 98.9332 84.908C98.9332 85.188 98.8586 85.4307 98.7092 85.636C98.5599 85.8413 98.3639 85.944 98.1212 85.944C97.7666 85.944 97.5146 85.5987 97.3652 84.908C97.2159 84.1987 97.1412 83.2747 97.1412 82.136L97.1972 79.868C97.2159 79.2333 97.2252 78.5613 97.2252 77.852V77.376V76.984C97.2252 76.6853 97.2159 76.4893 97.1972 76.396V76.256L97.2812 74.632C97.2812 73.9227 97.2532 72.868 97.1972 71.468C97.1412 70.068 97.1132 69.0133 97.1132 68.304C97.1132 68.08 97.1879 67.884 97.3372 67.716C97.4866 67.548 97.6732 67.464 97.8972 67.464C98.4946 67.464 98.7932 68.024 98.7932 69.144L98.7372 72.616C98.6999 73.6613 98.6812 74.828 98.6812 76.116C98.9612 76.2093 99.4652 76.256 100.193 76.256H101.229C101.267 76.144 101.285 76.032 101.285 75.92C101.285 75.024 101.229 73.6987 101.117 71.944C100.987 70.3013 100.921 68.9667 100.921 67.94C100.921 67.7347 100.996 67.5667 101.145 67.436C101.313 67.2867 101.509 67.212 101.733 67.212C101.864 67.212 102.051 67.2587 102.293 67.352L102.545 67.464C102.545 70.1147 102.639 73.652 102.825 78.076L103.077 85.16C103.077 85.4213 102.975 85.6267 102.769 85.776C102.583 85.9253 102.359 86 102.097 86ZM109.435 86.42C108.987 86.42 108.585 86.3173 108.231 86.112C107.876 85.9253 107.587 85.6453 107.363 85.272C106.915 84.488 106.625 83.6013 106.495 82.612C106.364 81.7533 106.299 80.7267 106.299 79.532C106.243 77.516 106.215 75.052 106.215 72.14L106.187 69.984C106.168 69.872 106.159 69.6853 106.159 69.424C106.121 68.7147 106.103 68.2853 106.103 68.136C106.271 67.744 106.467 67.548 106.691 67.548C106.915 67.548 107.111 67.716 107.279 68.052C107.465 68.388 107.559 68.752 107.559 69.144L107.559 76.76C107.559 77.5067 107.624 78.496 107.755 79.728C107.885 81.2587 107.951 82.248 107.951 82.696C107.951 84.0773 108.539 84.768 109.715 84.768C111.059 84.768 111.731 79.7467 111.731 69.704L111.731 68.136V67.884C111.712 67.828 111.703 67.7533 111.703 67.66C111.703 67.436 111.749 67.2773 111.843 67.184C111.955 67.072 112.16 67.016 112.459 67.016C112.701 67.016 112.888 67.0907 113.019 67.24C113.168 67.3707 113.261 67.5293 113.299 67.716C113.317 67.828 113.327 68.0427 113.327 68.36C113.327 68.6587 113.299 69.1347 113.243 69.788C113.168 70.3293 113.131 70.796 113.131 71.188C113.131 71.6173 113.112 72 113.075 72.336L113.019 73.512V73.736C113.037 73.8107 113.047 73.8947 113.047 73.988C113.047 82.276 111.843 86.42 109.435 86.42ZM124.2 86.084C123.976 86.084 123.808 86.028 123.696 85.916C123.584 85.7853 123.5 85.5707 123.444 85.272L123.276 84.74V84.684V84.6C123.276 83.984 122.632 81.884 121.344 78.3C120.075 74.716 119.076 72.0653 118.348 70.348L118.348 84.432L118.46 84.628C118.479 84.6653 118.516 84.7307 118.572 84.824C118.628 84.9173 118.656 85.0107 118.656 85.104C118.656 85.3467 118.572 85.552 118.404 85.72C118.236 85.888 118.031 85.972 117.788 85.972C117.191 85.972 116.892 85.4027 116.892 84.264L116.864 79.476C116.845 78.0387 116.836 76.4333 116.836 74.66C116.836 74.0627 116.864 73.1947 116.92 72.056C116.976 70.88 117.004 70.012 117.004 69.452C117.004 68.5747 117.34 67.884 118.012 67.38V67.548C118.124 67.5107 118.199 67.492 118.236 67.492C118.665 67.492 119.207 68.2387 119.86 69.732C120.383 70.9267 120.849 72.1867 121.26 73.512C121.689 74.8373 122.249 76.7227 122.94 79.168L123.22 80.176C123.649 81.688 123.976 82.7707 124.2 83.424C124.573 79.4107 124.76 74.6693 124.76 69.2V68.836C124.741 68.724 124.732 68.6027 124.732 68.472C124.732 67.912 124.956 67.632 125.404 67.632C125.665 67.632 125.861 67.7347 125.992 67.94C126.141 68.1453 126.216 68.4067 126.216 68.724V70.824C126.179 73.6987 126.067 76.816 125.88 80.176C125.693 83.536 125.469 85.4307 125.208 85.86C124.667 86.0093 124.331 86.084 124.2 86.084ZM137.364 86.392C137.046 86.392 136.785 86.1867 136.58 85.776C136.785 85.384 136.888 83.7973 136.888 81.016C136.888 80.3627 136.841 79.6533 136.748 78.888L136.664 78.076C136.608 77.572 136.58 77.1893 136.58 76.928V76.2C136.393 75.7333 136.048 74.8653 135.544 73.596C135.058 72.3267 134.666 71.2627 134.368 70.404C134.013 69.4147 133.836 68.7427 133.836 68.388V68.248L134.48 67.772C134.797 67.8093 135.133 68.22 135.488 69.004C135.786 69.6947 136.113 70.684 136.468 71.972C136.841 73.26 137.028 73.9413 137.028 74.016C137.102 73.8107 137.252 73.1107 137.476 71.916C137.7 70.7213 137.952 69.6667 138.232 68.752C138.549 67.8373 138.876 67.38 139.212 67.38C139.398 67.38 139.557 67.436 139.688 67.548C139.837 67.66 139.912 67.8 139.912 67.968C139.912 68.92 139.65 70.264 139.128 72C138.568 73.8853 138.288 75.248 138.288 76.088L138.288 84.516C138.288 85.7667 137.98 86.392 137.364 86.392ZM146.273 86.532C145.788 86.532 145.34 86.3733 144.929 86.056C144.519 85.7573 144.183 85.3467 143.921 84.824C143.38 83.6853 143.044 82.444 142.913 81.1C142.745 79.8307 142.661 78.608 142.661 77.432C142.661 77.208 142.671 77.0213 142.689 76.872V76.368C142.689 76.2747 142.68 76.228 142.661 76.228V75.724L142.689 73.764C142.708 73.1667 142.783 72.2147 142.913 70.908C143.007 70.012 143.221 69.144 143.557 68.304C143.688 67.9307 143.856 67.6507 144.061 67.464C144.267 67.2587 144.5 67.156 144.761 67.156C145.508 67.156 146.18 67.296 146.777 67.576C147.375 67.8373 147.879 68.2107 148.289 68.696C148.663 69.1627 148.98 69.7413 149.241 70.432C149.503 71.104 149.689 71.8227 149.801 72.588C149.913 73.372 149.969 74.2027 149.969 75.08V75.304C149.969 75.8827 149.979 76.4053 149.997 76.872L150.025 78.468C150.025 83.844 148.775 86.532 146.273 86.532ZM146.161 85.356C146.497 85.356 146.805 85.2253 147.085 84.964C147.365 84.684 147.58 84.3107 147.729 83.844C148.084 82.892 148.299 81.8653 148.373 80.764C148.467 79.812 148.513 78.9907 148.513 78.3C148.513 77.46 148.448 76.3587 148.317 74.996C148.205 73.5587 148.149 72.4853 148.149 71.776V71.272C148.112 70.5627 147.869 69.9467 147.421 69.424C146.992 68.9013 146.46 68.64 145.825 68.64C145.191 68.64 144.771 69.004 144.565 69.732C144.379 70.3107 144.285 71.0573 144.285 71.972C144.285 72.3267 144.295 72.6253 144.313 72.868V73.624L144.257 74.912C144.22 75.304 144.201 75.7333 144.201 76.2C144.201 77.208 144.229 78.2067 144.285 79.196C144.36 80.596 144.547 81.9587 144.845 83.284C145.144 84.6653 145.583 85.356 146.161 85.356ZM157.987 86.476C157.577 86.476 157.203 86.028 156.867 85.132C156.475 84.1613 156.186 83.1627 155.999 82.136L155.803 81.184C155.262 78.5147 154.917 76.9933 154.767 76.62H154.431C154.431 77.1613 154.422 77.656 154.403 78.104V79.644C154.403 82.1453 154.581 84.096 154.935 85.496L154.627 86.252L153.843 86.252L153.479 85.832L153.507 83.956C153.507 82.276 153.423 79.728 153.255 76.312C153.106 72.672 153.031 70.124 153.031 68.668C153.031 67.772 153.339 67.324 153.955 67.324C154.963 67.324 155.785 67.5853 156.419 68.108C157.073 68.6307 157.399 69.3587 157.399 70.292V72.252C157.399 72.532 157.353 72.8587 157.259 73.232C157.166 73.5867 157.063 73.876 156.951 74.1L156.419 75.108L155.971 75.948L156.111 76.62L156.503 78.608C156.765 80.0453 157.017 81.212 157.259 82.108C157.502 83.004 157.801 83.816 158.155 84.544L158.323 84.88C158.51 85.2533 158.603 85.552 158.603 85.776C158.603 85.9627 158.547 86.1213 158.435 86.252C158.323 86.4013 158.174 86.476 157.987 86.476ZM154.543 75.248C154.954 75.0427 155.299 74.4827 155.579 73.568C155.878 72.6347 156.027 71.776 156.027 70.992C156.027 70.3947 155.953 69.8347 155.803 69.312C155.71 69.0133 155.551 68.7893 155.327 68.64C155.122 68.472 154.861 68.388 154.543 68.388L154.487 68.528L154.431 68.78L154.487 72.084C154.525 73.0547 154.543 74.1093 154.543 75.248ZM162.241 86.168C161.756 86.168 161.513 84.9453 161.513 82.5L161.569 78.076C161.588 76.7693 161.597 75.304 161.597 73.68C161.597 73.0827 161.541 72.1587 161.429 70.908C161.336 69.5453 161.289 68.7147 161.289 68.416C161.289 68.1733 161.392 67.9587 161.597 67.772C161.802 67.5853 162.026 67.492 162.269 67.492C162.922 67.492 163.548 67.6413 164.145 67.94C164.761 68.22 165.302 68.6213 165.769 69.144C166.758 70.2827 167.412 71.5333 167.729 72.896C167.897 73.5867 167.981 74.268 167.981 74.94C167.981 75.1827 167.972 75.4067 167.953 75.612L167.925 76.368V77.908C167.925 79.1027 167.888 80.0453 167.813 80.736C167.701 81.6693 167.486 82.5 167.169 83.228C166.796 84.012 166.254 84.712 165.545 85.328C165.209 85.608 164.78 85.888 164.257 86.168H162.241ZM163.473 84.74C163.846 84.74 164.192 84.6467 164.509 84.46C164.826 84.2547 165.097 83.984 165.321 83.648C165.508 83.3493 165.676 82.976 165.825 82.528C165.993 82.0613 166.114 81.6133 166.189 81.184C166.357 80.344 166.46 79.4853 166.497 78.608C166.516 78.384 166.525 78.0573 166.525 77.628C166.525 71.9907 165.433 69.0507 163.249 68.808C163.118 69.648 163.053 70.6187 163.053 71.72C163.053 72.896 163.128 74.9493 163.277 77.88C163.408 80.4747 163.473 82.5373 163.473 84.068V84.74ZM176.541 86.252C176.111 86.252 175.794 86.1867 175.589 86.056C175.383 85.9253 175.281 85.6827 175.281 85.328C175.281 84.768 175.187 83.816 175.001 82.472L174.889 81.884L172.117 81.464C172.005 81.8933 171.846 82.7613 171.641 84.068C171.529 84.9827 171.351 85.5893 171.109 85.888C170.978 86.056 170.791 86.14 170.549 86.14C170.325 86.14 170.119 86.0747 169.933 85.944C169.746 85.7947 169.653 85.6173 169.653 85.412L169.709 85.272L169.737 85.16C170.969 80.3627 171.902 75.6307 172.537 70.964C172.537 70.8893 172.546 70.768 172.565 70.6C172.583 70.4133 172.602 70.152 172.621 69.816C172.677 69.1253 172.733 68.5747 172.789 68.164C172.863 67.7533 172.975 67.4453 173.125 67.24H174.077C174.338 67.24 174.562 67.3053 174.749 67.436C174.935 67.548 175.029 67.716 175.029 67.94C175.029 69.3587 175.225 71.468 175.617 74.268C175.99 77.1427 176.177 79.1587 176.177 80.316C176.177 80.428 176.223 80.7173 176.317 81.184C176.41 81.6133 176.457 81.8933 176.457 82.024C176.457 82.1547 176.55 82.7147 176.737 83.704C176.905 84.6 176.989 85.1787 176.989 85.44V85.468C176.989 85.8787 176.839 86.14 176.541 86.252ZM174.693 80.876C174.637 80.596 174.609 80.2507 174.609 79.84C174.609 78.16 174.459 76.0133 174.161 73.4L173.881 70.488C173.078 74.8747 172.527 78.188 172.229 80.428C172.509 80.6147 173.33 80.764 174.693 80.876ZM190.676 87.456C190.097 87.456 189.808 86.8773 189.808 85.72L189.808 83.928V82.136C189.808 81.2027 189.743 79.98 189.612 78.468C189.463 76.7693 189.388 75.6027 189.388 74.968L189.444 73.232C189.481 72.728 189.5 72.1587 189.5 71.524C189.425 71.7667 189.117 73.0547 188.576 75.388C188.035 77.6467 187.475 79.7373 186.896 81.66C186.336 83.508 185.879 84.432 185.524 84.432C185.169 84.432 184.88 84.3293 184.656 84.124C184.451 83.9 184.348 83.6013 184.348 83.228C184.348 82.4067 184.012 80.6613 183.34 77.992C182.687 75.3227 182.089 73.1387 181.548 71.44L181.38 74.604C181.231 77.2733 181.128 79.4947 181.072 81.268C181.035 82.9853 181.016 84.1613 181.016 84.796C181.016 84.9453 181.025 85.0853 181.044 85.216L181.044 85.608C181.044 85.9253 180.979 86.1587 180.848 86.308C180.717 86.476 180.475 86.56 180.12 86.56C179.933 86.56 179.756 86.4853 179.588 86.336C179.42 86.2053 179.336 86.056 179.336 85.888C179.336 83.984 179.476 81.128 179.756 77.32C180.036 73.512 180.176 70.656 180.176 68.752C180.064 68.584 180.008 68.4067 180.008 68.22C180.008 67.996 180.111 67.828 180.316 67.716C180.54 67.5853 180.801 67.52 181.1 67.52C181.343 67.52 181.791 68.3973 182.444 70.152C183.097 71.9067 183.751 73.8947 184.404 76.116C185.057 78.3373 185.477 79.9427 185.664 80.932C185.813 80.428 185.935 79.9613 186.028 79.532L186.196 78.86C186.793 76.2467 187.391 73.8853 187.988 71.776C188.343 70.488 188.688 69.48 189.024 68.752C189.36 67.968 189.668 67.576 189.948 67.576C190.209 67.576 190.443 67.6507 190.648 67.8C190.872 67.9307 190.984 68.108 190.984 68.332C190.984 69.676 191.04 71.692 191.152 74.38C191.283 76.8813 191.348 78.8227 191.348 80.204L191.32 81.688L191.264 83.172C191.264 83.396 191.292 83.732 191.348 84.18L191.432 85.16C191.451 85.328 191.46 85.4587 191.46 85.552C191.479 85.6453 191.488 85.7013 191.488 85.72C191.581 85.9627 191.628 86.14 191.628 86.252C191.628 86.5693 191.535 86.8493 191.348 87.092C191.161 87.3347 190.937 87.456 190.676 87.456Z" fill="#292D32"/>
<defs>
<filter id="filter0_d_0_3481" x="0.000244141" y="0" width="247" height="182" filterUnits="userSpaceOnUse" color-interpolation-filters="sRGB">
<feFlood flood-opacity="0" result="BackgroundImageFix"/>
<feColorMatrix in="SourceAlpha" type="matrix" values="0 0 0 0 0 0 0 0 0 0 0 0 0 0 0 0 0 0 127 0" result="hardAlpha"/>
<feOffset dy="12"/>
<feGaussianBlur stdDeviation="10"/>
<feComposite in2="hardAlpha" operator="out"/>
<feColorMatrix type="matrix" values="0 0 0 0 0 0 0 0 0 0 0 0 0 0 0 0 0 0 0.08 0"/>
<feBlend mode="normal" in2="BackgroundImageFix" result="effect1_dropShadow_0_3481"/>
<feBlend mode="normal" in="SourceGraphic" in2="effect1_dropShadow_0_3481" result="shape"/>
</filter>
</defs>
</svg>
