<svg width="193" height="204" viewBox="0 0 193 204" fill="none" xmlns="http://www.w3.org/2000/svg">
<g filter="url(#filter0_d_0_3614)">
<path d="M95.275 8.73804C148.13 0.333109 184.288 65.5736 169.774 109.881C165.711 121.559 157.6 131.255 147.165 138.668C146.533 147.655 148.478 162.073 164.778 171.092C164.778 171.092 128.034 178.206 116.161 152.613C84.3499 160.593 47.8118 153.794 31.3846 128.186C31.3846 128.186 -19.9048 27.0432 95.2434 8.73804H95.275Z" fill="white"/>
</g>
<path d="M53.276 70.616C52.604 70.616 52.0253 70.4947 51.54 70.252C51.2413 70.084 51.092 69.888 51.092 69.664C51.092 69.44 51.148 69.2627 51.26 69.132C51.372 68.9827 51.5307 68.908 51.736 68.908C51.9227 68.908 52.1933 68.9827 52.548 69.132C52.94 69.2813 53.1827 69.356 53.276 69.356C53.6307 69.356 53.948 69.2067 54.228 68.908C54.5267 68.5907 54.76 68.18 54.928 67.676C55.264 66.7427 55.432 65.9027 55.432 65.156C55.432 64.3533 55.3013 63.5133 55.04 62.636C54.7973 61.74 54.4613 60.872 54.032 60.032L53.584 59.136C53.1173 58.2027 52.7533 57.4653 52.492 56.924C52.2493 56.3827 52.0347 55.7947 51.848 55.16C51.568 54.264 51.428 53.396 51.428 52.556C51.428 51.884 51.54 51.2493 51.764 50.652C52.0067 50.0547 52.3613 49.5507 52.828 49.14C53.2947 48.692 53.8733 48.468 54.564 48.468C54.9 48.468 55.2267 48.5707 55.544 48.776C55.8613 48.9627 56.0853 49.2053 56.216 49.504L55.74 50.092C55.2547 50.092 54.8907 49.9987 54.648 49.812C54.312 49.8493 54.0133 50.0173 53.752 50.316C53.5093 50.596 53.3227 50.9227 53.192 51.296C53.08 51.6507 53.024 52.0053 53.024 52.36C53.024 53.0693 53.1173 53.7973 53.304 54.544C53.5093 55.272 53.7707 55.9627 54.088 56.616L56.048 60.536C56.3653 61.208 56.6173 61.964 56.804 62.804C56.9907 63.644 57.084 64.484 57.084 65.324C57.084 66.556 56.7853 67.7133 56.188 68.796C55.8707 69.356 55.46 69.7947 54.956 70.112C54.452 70.448 53.892 70.616 53.276 70.616ZM61.6939 69.972C60.0699 69.972 59.2579 69.692 59.2579 69.132C59.2579 68.684 59.5473 68.46 60.1259 68.46H60.4339L60.7139 68.488C60.8633 68.488 60.9659 68.4413 61.0219 68.348C61.0779 68.2547 61.1059 68.0867 61.1059 67.844C61.1059 67.5267 61.0873 67.032 61.0499 66.36C60.9939 65.912 60.9286 65.1093 60.8539 63.952C60.6859 61.096 60.6019 58.94 60.6019 57.484C60.6019 56.9613 60.6113 56.4853 60.6299 56.056L60.6579 54.628C60.6579 54.012 60.6299 53.4987 60.5739 53.088C60.2753 53.1627 60.0606 53.2 59.9299 53.2C59.4819 53.2 59.2579 52.976 59.2579 52.528C59.2579 52.304 59.3979 52.108 59.6779 51.94C59.9579 51.772 60.3126 51.6507 60.7419 51.576C61.4886 51.4267 62.1513 51.352 62.7299 51.352C62.9539 51.352 63.1406 51.436 63.2899 51.604C63.4579 51.7533 63.5419 51.9307 63.5419 52.136C63.5419 52.3413 63.4766 52.5187 63.3459 52.668C63.2339 52.8173 63.0846 52.892 62.8979 52.892C62.7859 52.892 62.6926 52.8827 62.6179 52.864H62.3939C62.2073 52.864 62.0673 52.9107 61.9739 53.004C61.8993 53.0787 61.8619 53.228 61.8619 53.452C61.8619 55.2627 61.9739 57.988 62.1979 61.628C62.2353 62.3 62.3099 63.2893 62.4219 64.596C62.5153 65.4547 62.5619 66.332 62.5619 67.228L62.5619 68.292C62.6739 68.2733 62.8606 68.264 63.1219 68.264C63.9059 68.264 64.2979 68.5907 64.2979 69.244V69.412L63.5979 69.888C63.5793 69.888 63.5139 69.8973 63.4019 69.916C63.3086 69.916 63.1219 69.916 62.8419 69.916C62.2446 69.9533 61.8619 69.972 61.6939 69.972ZM67.0303 70.056C66.825 70.056 66.6477 70 66.4983 69.888C66.349 69.7573 66.2743 69.5987 66.2743 69.412C66.2743 68.292 66.489 66.8173 66.9183 64.988C67.3663 63.1587 68.0103 60.9 68.8503 58.212C69.6903 55.4307 70.213 53.6387 70.4183 52.836C70.1943 52.836 69.8303 52.864 69.3263 52.92C68.8223 52.976 68.421 53.004 68.1223 53.004C67.9357 53.004 67.7677 52.9293 67.6183 52.78C67.469 52.612 67.3943 52.4253 67.3943 52.22C67.3943 51.6787 68.421 51.408 70.4743 51.408C71.4077 51.408 71.8743 51.6693 71.8743 52.192C71.8743 52.7893 71.669 53.676 71.2583 54.852C70.8663 55.8973 70.6237 56.6907 70.5303 57.232C70.3437 58.5573 69.8583 60.7227 69.0743 63.728L67.8423 68.572H68.3463L68.9343 68.516C69.1023 68.4973 69.2983 68.488 69.5223 68.488V68.46C70.269 68.46 70.6423 68.6933 70.6423 69.16C70.6423 69.3653 70.549 69.5333 70.3623 69.664C70.1757 69.776 69.9423 69.832 69.6623 69.832C69.3637 69.832 69.093 69.8227 68.8503 69.804L68.0103 69.748C67.8983 69.748 67.7397 69.804 67.5343 69.916C67.2917 70.0093 67.1237 70.056 67.0303 70.056ZM86.5074 70.476C86.0781 70.476 85.6207 70.0093 85.1354 69.076C84.4074 67.676 83.6887 65.3707 82.9794 62.16C82.7741 61.2827 82.6061 60.4707 82.4754 59.724C81.8034 61.068 81.4674 62.692 81.4674 64.596L81.4674 69.776C81.4674 70.2053 81.2807 70.42 80.9074 70.42C80.6274 70.42 80.3941 70.336 80.2074 70.168C80.0394 70.0187 79.9554 69.804 79.9554 69.524L79.9554 61.04C79.9554 60.2187 80.0487 58.7067 80.2354 56.504C80.4221 54.5813 80.5154 53.0693 80.5154 51.968C80.6647 51.6133 80.9354 51.436 81.3274 51.436C81.5701 51.436 81.7754 51.52 81.9434 51.688C82.1114 51.856 82.1954 52.0613 82.1954 52.304V52.388C81.9527 52.7987 81.8314 54.4973 81.8314 57.484V58.492L82.8674 56.448C83.5021 55.1227 84.0994 53.984 84.6594 53.032C85.1821 52.0987 85.5647 51.632 85.8074 51.632C86.1061 51.632 86.3581 51.6973 86.5634 51.828C86.7874 51.9587 86.8994 52.1453 86.8994 52.388L86.2274 53.508C84.8274 55.7667 84.0434 57.0733 83.8754 57.428C83.8754 57.7453 83.8661 58.0253 83.8474 58.268L83.8194 59.108C83.8194 59.9107 84.1367 61.4133 84.7714 63.616C85.4247 65.8 85.9661 67.2467 86.3954 67.956L86.7594 68.46C87.1141 68.9453 87.2914 69.3747 87.2914 69.748C87.2914 69.9533 87.2074 70.1213 87.0394 70.252C86.8901 70.4013 86.7127 70.476 86.5074 70.476ZM90.9765 70.364C90.7338 70.364 90.5098 70.28 90.3045 70.112C90.1178 69.944 90.0151 69.7387 89.9965 69.496L89.9965 68.768V68.208C89.9778 68.04 89.9685 67.844 89.9685 67.62C89.9685 67.228 89.9405 66.6307 89.8845 65.828L89.8285 64.036C89.8285 63.1213 89.8565 61.7587 89.9125 59.948C89.9871 58.324 90.0245 56.9613 90.0245 55.86C90.0245 55.5987 89.9965 55.2067 89.9405 54.684C89.8845 54.1427 89.8565 53.7507 89.8565 53.508C89.8565 52.1827 90.2485 51.52 91.0325 51.52C91.6485 51.52 92.3578 51.6413 93.1605 51.884C93.9818 52.1267 94.3925 52.416 94.3925 52.752C94.3925 52.9387 94.3085 53.116 94.1405 53.284C93.9911 53.4333 93.8045 53.5547 93.5805 53.648C92.7965 53.368 92.0871 53.1813 91.4525 53.088C91.4711 53.368 91.4805 53.7693 91.4805 54.292C91.4805 55.0387 91.4711 55.7107 91.4525 56.308C91.3965 57.204 91.3685 57.876 91.3685 58.324L91.4525 58.772L91.9005 58.744C92.0498 58.7253 92.2365 58.716 92.4605 58.716C93.3565 58.716 93.8045 58.9773 93.8045 59.5C93.8045 59.7053 93.7205 59.8827 93.5525 60.032C93.3845 60.1627 93.1698 60.228 92.9085 60.228C92.5725 60.228 92.3111 60.2093 92.1245 60.172H91.4245C91.4618 60.6573 91.4805 61.3667 91.4805 62.3C91.4805 63.2333 91.4711 64.0733 91.4525 64.82C91.3965 65.9587 91.3685 66.808 91.3685 67.368C91.3685 68.4133 91.3871 68.936 91.4245 68.936L92.3485 68.908C92.6658 68.8893 93.0485 68.88 93.4965 68.88C94.2058 68.88 94.5605 69.104 94.5605 69.552C94.5605 69.8133 94.4391 70.0093 94.1965 70.14C93.9725 70.2893 93.6925 70.364 93.3565 70.364H90.9765ZM102.545 70.476C102.135 70.476 101.761 70.028 101.425 69.132C101.033 68.1613 100.744 67.1627 100.557 66.136L100.361 65.184C99.8202 62.5147 99.4748 60.9933 99.3255 60.62H98.9895C98.9895 61.1613 98.9802 61.656 98.9615 62.104V63.644C98.9615 66.1453 99.1388 68.096 99.4935 69.496L99.1855 70.252H98.4015L98.0375 69.832L98.0655 67.956C98.0655 66.276 97.9815 63.728 97.8135 60.312C97.6642 56.672 97.5895 54.124 97.5895 52.668C97.5895 51.772 97.8975 51.324 98.5135 51.324C99.5215 51.324 100.343 51.5853 100.977 52.108C101.631 52.6307 101.957 53.3587 101.957 54.292V56.252C101.957 56.532 101.911 56.8587 101.817 57.232C101.724 57.5867 101.621 57.876 101.509 58.1L100.977 59.108L100.529 59.948L100.669 60.62L101.061 62.608C101.323 64.0453 101.575 65.212 101.817 66.108C102.06 67.004 102.359 67.816 102.713 68.544L102.881 68.88C103.068 69.2533 103.161 69.552 103.161 69.776C103.161 69.9627 103.105 70.1213 102.993 70.252C102.881 70.4013 102.732 70.476 102.545 70.476ZM99.1015 59.248C99.5122 59.0427 99.8575 58.4827 100.137 57.568C100.436 56.6347 100.585 55.776 100.585 54.992C100.585 54.3947 100.511 53.8347 100.361 53.312C100.268 53.0133 100.109 52.7893 99.8855 52.64C99.6802 52.472 99.4188 52.388 99.1015 52.388L99.0455 52.528L98.9895 52.78L99.0455 56.084C99.0828 57.0547 99.1015 58.1093 99.1015 59.248ZM111.419 70.252C110.99 70.252 110.673 70.1867 110.467 70.056C110.262 69.9253 110.159 69.6827 110.159 69.328C110.159 68.768 110.066 67.816 109.879 66.472L109.767 65.884L106.995 65.464C106.883 65.8933 106.725 66.7613 106.519 68.068C106.407 68.9827 106.23 69.5893 105.987 69.888C105.857 70.056 105.67 70.14 105.427 70.14C105.203 70.14 104.998 70.0747 104.811 69.944C104.625 69.7947 104.531 69.6173 104.531 69.412L104.587 69.272L104.615 69.16C105.847 64.3627 106.781 59.6307 107.415 54.964C107.415 54.8893 107.425 54.768 107.443 54.6C107.462 54.4133 107.481 54.152 107.499 53.816C107.555 53.1253 107.611 52.5747 107.667 52.164C107.742 51.7533 107.854 51.4453 108.003 51.24H108.955C109.217 51.24 109.441 51.3053 109.627 51.436C109.814 51.548 109.907 51.716 109.907 51.94C109.907 53.3587 110.103 55.468 110.495 58.268C110.869 61.1427 111.055 63.1587 111.055 64.316C111.055 64.428 111.102 64.7173 111.195 65.184C111.289 65.6133 111.335 65.8933 111.335 66.024C111.335 66.1547 111.429 66.7147 111.615 67.704C111.783 68.6 111.867 69.1787 111.867 69.44V69.468C111.867 69.8787 111.718 70.14 111.419 70.252ZM109.571 64.876C109.515 64.596 109.487 64.2507 109.487 63.84C109.487 62.16 109.338 60.0133 109.039 57.4L108.759 54.488C107.957 58.8747 107.406 62.188 107.107 64.428C107.387 64.6147 108.209 64.764 109.571 64.876ZM120.878 70.476C120.449 70.476 119.992 70.0093 119.506 69.076C118.778 67.676 118.06 65.3707 117.35 62.16C117.145 61.2827 116.977 60.4707 116.846 59.724C116.174 61.068 115.838 62.692 115.838 64.596V69.776C115.838 70.2053 115.652 70.42 115.278 70.42C114.998 70.42 114.765 70.336 114.578 70.168C114.41 70.0187 114.326 69.804 114.326 69.524L114.326 61.04C114.326 60.2187 114.42 58.7067 114.606 56.504C114.793 54.5813 114.886 53.0693 114.886 51.968C115.036 51.6133 115.306 51.436 115.698 51.436C115.941 51.436 116.146 51.52 116.314 51.688C116.482 51.856 116.566 52.0613 116.566 52.304V52.388C116.324 52.7987 116.202 54.4973 116.202 57.484V58.492L117.238 56.448C117.873 55.1227 118.47 53.984 119.03 53.032C119.553 52.0987 119.936 51.632 120.178 51.632C120.477 51.632 120.729 51.6973 120.934 51.828C121.158 51.9587 121.27 52.1453 121.27 52.388L120.598 53.508C119.198 55.7667 118.414 57.0733 118.246 57.428C118.246 57.7453 118.237 58.0253 118.218 58.268L118.19 59.108C118.19 59.9107 118.508 61.4133 119.142 63.616C119.796 65.8 120.337 67.2467 120.766 67.956L121.13 68.46C121.485 68.9453 121.662 69.3747 121.662 69.748C121.662 69.9533 121.578 70.1213 121.41 70.252C121.261 70.4013 121.084 70.476 120.878 70.476ZM128.372 70.448C127.7 70.224 126.869 70.112 125.88 70.112C125.581 70.2987 125.264 70.392 124.928 70.392C124.704 70.392 124.508 70.2893 124.34 70.084C124.19 69.8973 124.116 69.692 124.116 69.468C124.116 67.9 124.181 65.8093 124.312 63.196C124.424 60.4147 124.48 58.3333 124.48 56.952V56.756C124.368 55.58 124.312 54.7027 124.312 54.124C124.312 52.3507 124.638 51.464 125.292 51.464C125.478 51.464 125.637 51.5387 125.768 51.688C125.917 51.8187 125.992 51.9773 125.992 52.164C125.992 52.388 125.964 52.7427 125.908 53.228C125.852 53.6947 125.824 54.0493 125.824 54.292C125.824 55.5427 125.833 56.672 125.852 57.68C125.87 58.6693 125.88 59.7893 125.88 61.04C125.786 61.32 125.74 61.712 125.74 62.216V62.552L125.684 64.764C125.646 65.4173 125.628 66.164 125.628 67.004C125.628 68.292 125.936 68.936 126.552 68.936C126.589 68.936 126.645 68.936 126.72 68.936C126.813 68.9173 126.934 68.908 127.084 68.908C127.252 68.8893 127.466 68.88 127.728 68.88C128.736 68.88 129.24 69.16 129.24 69.72C129.24 69.9067 129.156 70.0653 128.988 70.196C128.82 70.3267 128.614 70.4107 128.372 70.448ZM132.952 69.972C131.328 69.972 130.516 69.692 130.516 69.132C130.516 68.684 130.805 68.46 131.384 68.46L131.692 68.46L131.972 68.488C132.121 68.488 132.224 68.4413 132.28 68.348C132.336 68.2547 132.364 68.0867 132.364 67.844C132.364 67.5267 132.345 67.032 132.308 66.36C132.252 65.912 132.186 65.1093 132.112 63.952C131.944 61.096 131.86 58.94 131.86 57.484C131.86 56.9613 131.869 56.4853 131.888 56.056L131.916 54.628C131.916 54.012 131.888 53.4987 131.832 53.088C131.533 53.1627 131.318 53.2 131.188 53.2C130.74 53.2 130.516 52.976 130.516 52.528C130.516 52.304 130.656 52.108 130.936 51.94C131.216 51.772 131.57 51.6507 132 51.576C132.746 51.4267 133.409 51.352 133.988 51.352C134.212 51.352 134.398 51.436 134.548 51.604C134.716 51.7533 134.8 51.9307 134.8 52.136C134.8 52.3413 134.734 52.5187 134.604 52.668C134.492 52.8173 134.342 52.892 134.156 52.892C134.044 52.892 133.95 52.8827 133.876 52.864H133.652C133.465 52.864 133.325 52.9107 133.232 53.004C133.157 53.0787 133.12 53.228 133.12 53.452C133.12 55.2627 133.232 57.988 133.456 61.628C133.493 62.3 133.568 63.2893 133.68 64.596C133.773 65.4547 133.82 66.332 133.82 67.228V68.292C133.932 68.2733 134.118 68.264 134.38 68.264C135.164 68.264 135.556 68.5907 135.556 69.244V69.412L134.856 69.888C134.837 69.888 134.772 69.8973 134.66 69.916C134.566 69.916 134.38 69.916 134.1 69.916C133.502 69.9533 133.12 69.972 132.952 69.972ZM50.252 100.632C50.0467 100.632 49.944 100.52 49.944 100.296V100.072C49.9627 99.9973 49.972 99.9133 49.972 99.82C49.972 99.7453 50.1027 99.652 50.364 99.54C51.26 99.26 51.8667 98.952 52.184 98.616C52.7067 98.0373 52.968 96.9827 52.968 95.452C52.968 94.22 52.9213 91.8307 52.828 88.284C52.716 85.1667 52.66 82.7867 52.66 81.144V81.032C52.604 81.032 52.5107 81.0227 52.38 81.004C52.268 80.9853 52.1373 80.976 51.988 80.976C51.652 80.9387 51.3813 80.892 51.176 80.836C50.896 80.7613 50.7 80.668 50.588 80.556C50.5507 80.4813 50.532 80.4067 50.532 80.332C50.532 80.164 50.6253 80.0147 50.812 79.884C51.0173 79.7533 51.2227 79.688 51.428 79.688C52.3613 79.688 53.4253 79.7533 54.62 79.884C55.8147 80.0147 56.412 80.164 56.412 80.332C56.412 80.5187 56.3373 80.6773 56.188 80.808C56.0573 80.92 55.88 80.976 55.656 80.976L54.228 80.976C54.228 81.9653 54.2747 83.9347 54.368 86.884C54.4613 89.068 54.508 91.028 54.508 92.764L54.508 95.76C54.508 96.4133 54.4613 96.964 54.368 97.412C54.2373 98.1027 53.976 98.7 53.584 99.204C53.1733 99.7827 52.5573 100.193 51.736 100.436C51.3253 100.567 50.8307 100.632 50.252 100.632ZM62.0934 98.532C61.608 98.532 61.16 98.3733 60.7494 98.056C60.3387 97.7573 60.0027 97.3467 59.7414 96.824C59.2 95.6853 58.864 94.444 58.7334 93.1C58.5654 91.8307 58.4814 90.608 58.4814 89.432C58.4814 89.208 58.4907 89.0213 58.5094 88.872V88.368C58.5094 88.2747 58.5 88.228 58.4814 88.228V87.724L58.5094 85.764C58.528 85.1667 58.6027 84.2147 58.7334 82.908C58.8267 82.012 59.0414 81.144 59.3774 80.304C59.508 79.9307 59.676 79.6507 59.8814 79.464C60.0867 79.2587 60.32 79.156 60.5814 79.156C61.328 79.156 62 79.296 62.5974 79.576C63.1947 79.8373 63.6987 80.2107 64.1094 80.696C64.4827 81.1627 64.8 81.7413 65.0614 82.432C65.3227 83.104 65.5094 83.8227 65.6214 84.588C65.7334 85.372 65.7894 86.2027 65.7894 87.08V87.304C65.7894 87.8827 65.7987 88.4053 65.8174 88.872L65.8454 90.468C65.8454 95.844 64.5947 98.532 62.0934 98.532ZM61.9814 97.356C62.3174 97.356 62.6254 97.2253 62.9054 96.964C63.1854 96.684 63.4 96.3107 63.5494 95.844C63.904 94.892 64.1187 93.8653 64.1934 92.764C64.2867 91.812 64.3334 90.9907 64.3334 90.3C64.3334 89.46 64.268 88.3587 64.1374 86.996C64.0254 85.5587 63.9694 84.4853 63.9694 83.776V83.272C63.932 82.5627 63.6894 81.9467 63.2414 81.424C62.812 80.9013 62.28 80.64 61.6454 80.64C61.0107 80.64 60.5907 81.004 60.3854 81.732C60.1987 82.3107 60.1054 83.0573 60.1054 83.972C60.1054 84.3267 60.1147 84.6253 60.1334 84.868V85.624L60.0774 86.912C60.04 87.304 60.0214 87.7333 60.0214 88.2C60.0214 89.208 60.0494 90.2067 60.1054 91.196C60.18 92.596 60.3667 93.9587 60.6654 95.284C60.964 96.6653 61.4027 97.356 61.9814 97.356ZM71.2032 98.392C70.8859 98.392 70.6246 98.1867 70.4192 97.776C70.6246 97.384 70.7272 95.7973 70.7272 93.016C70.7272 92.3627 70.6806 91.6533 70.5872 90.888L70.5032 90.076C70.4472 89.572 70.4192 89.1893 70.4192 88.928V88.2C70.2326 87.7333 69.8872 86.8653 69.3832 85.596C68.8979 84.3267 68.5059 83.2627 68.2072 82.404C67.8526 81.4147 67.6752 80.7427 67.6752 80.388V80.248L68.3192 79.772C68.6366 79.8093 68.9726 80.22 69.3272 81.004C69.6259 81.6947 69.9526 82.684 70.3072 83.972C70.6806 85.26 70.8672 85.9413 70.8672 86.016C70.9419 85.8107 71.0912 85.1107 71.3152 83.916C71.5392 82.7213 71.7912 81.6667 72.0712 80.752C72.3886 79.8373 72.7152 79.38 73.0512 79.38C73.2379 79.38 73.3966 79.436 73.5272 79.548C73.6766 79.66 73.7512 79.8 73.7512 79.968C73.7512 80.92 73.4899 82.264 72.9672 84C72.4072 85.8853 72.1272 87.248 72.1272 88.088V96.516C72.1272 97.7667 71.8192 98.392 71.2032 98.392ZM77.7329 98.168C77.2476 98.168 77.0049 96.9453 77.0049 94.5L77.0609 90.076C77.0796 88.7693 77.0889 87.304 77.0889 85.68C77.0889 85.0827 77.0329 84.1587 76.9209 82.908C76.8276 81.5453 76.7809 80.7147 76.7809 80.416C76.7809 80.1733 76.8836 79.9587 77.0889 79.772C77.2942 79.5853 77.5182 79.492 77.7609 79.492C78.4142 79.492 79.0396 79.6413 79.6369 79.94C80.2529 80.22 80.7942 80.6213 81.2609 81.144C82.2502 82.2827 82.9036 83.5333 83.2209 84.896C83.3889 85.5867 83.4729 86.268 83.4729 86.94C83.4729 87.1827 83.4636 87.4067 83.4449 87.612L83.4169 88.368V89.908C83.4169 91.1027 83.3796 92.0453 83.3049 92.736C83.1929 93.6693 82.9782 94.5 82.6609 95.228C82.2876 96.012 81.7462 96.712 81.0369 97.328C80.7009 97.608 80.2716 97.888 79.7489 98.168L77.7329 98.168ZM78.9649 96.74C79.3382 96.74 79.6836 96.6467 80.0009 96.46C80.3182 96.2547 80.5889 95.984 80.8129 95.648C80.9996 95.3493 81.1676 94.976 81.3169 94.528C81.4849 94.0613 81.6062 93.6133 81.6809 93.184C81.8489 92.344 81.9516 91.4853 81.9889 90.608C82.0076 90.384 82.0169 90.0573 82.0169 89.628C82.0169 83.9907 80.9249 81.0507 78.7409 80.808C78.6102 81.648 78.5449 82.6187 78.5449 83.72C78.5449 84.896 78.6196 86.9493 78.7689 89.88C78.8996 92.4747 78.9649 94.5373 78.9649 96.068V96.74ZM92.0326 98.252C91.6033 98.252 91.2859 98.1867 91.0806 98.056C90.8753 97.9253 90.7726 97.6827 90.7726 97.328C90.7726 96.768 90.6793 95.816 90.4926 94.472L90.3806 93.884L87.6086 93.464C87.4966 93.8933 87.3379 94.7613 87.1326 96.068C87.0206 96.9827 86.8433 97.5893 86.6006 97.888C86.4699 98.056 86.2833 98.14 86.0406 98.14C85.8166 98.14 85.6113 98.0747 85.4246 97.944C85.2379 97.7947 85.1446 97.6173 85.1446 97.412L85.2006 97.272L85.2286 97.16C86.4606 92.3627 87.3939 87.6307 88.0286 82.964C88.0286 82.8893 88.0379 82.768 88.0566 82.6C88.0753 82.4133 88.0939 82.152 88.1126 81.816C88.1686 81.1253 88.2246 80.5747 88.2806 80.164C88.3553 79.7533 88.4673 79.4453 88.6166 79.24H89.5686C89.8299 79.24 90.0539 79.3053 90.2406 79.436C90.4273 79.548 90.5206 79.716 90.5206 79.94C90.5206 81.3587 90.7166 83.468 91.1086 86.268C91.4819 89.1427 91.6686 91.1587 91.6686 92.316C91.6686 92.428 91.7153 92.7173 91.8086 93.184C91.9019 93.6133 91.9486 93.8933 91.9486 94.024C91.9486 94.1547 92.0419 94.7147 92.2286 95.704C92.3966 96.6 92.4806 97.1787 92.4806 97.44V97.468C92.4806 97.8787 92.3313 98.14 92.0326 98.252ZM90.1846 92.876C90.1286 92.596 90.1006 92.2507 90.1006 91.84C90.1006 90.16 89.9513 88.0133 89.6526 85.4L89.3726 82.488C88.5699 86.8747 88.0193 90.188 87.7206 92.428C88.0006 92.6147 88.8219 92.764 90.1846 92.876ZM95.3878 98.392C95.0518 98.336 94.7624 98.2147 94.5198 98.028C94.2958 97.8413 94.1651 97.5987 94.1278 97.3L94.4358 96.824C94.5478 96.824 94.7251 96.8613 94.9678 96.936C95.2478 96.992 95.4624 97.02 95.6118 97.02C95.9478 97.02 96.2464 96.8707 96.5078 96.572C96.7878 96.2733 96.9931 95.8813 97.1238 95.396C97.3664 94.5 97.4878 93.6973 97.4878 92.988C97.4878 91.756 97.0958 90.4587 96.3118 89.096L96.0038 88.564C95.6491 87.948 95.3504 87.3973 95.1078 86.912C94.8651 86.4267 94.6598 85.904 94.4918 85.344C94.2678 84.616 94.1558 83.888 94.1558 83.16C94.1558 82.3387 94.3424 81.48 94.7158 80.584C94.9024 80.1547 95.1638 79.8093 95.4998 79.548C95.8544 79.268 96.2464 79.128 96.6758 79.128C97.0118 79.128 97.3198 79.24 97.5998 79.464C97.8984 79.6693 98.0478 79.9213 98.0478 80.22C98.0478 80.388 97.9824 80.5187 97.8518 80.612C97.7211 80.7053 97.5624 80.752 97.3758 80.752C97.1704 80.752 96.9744 80.696 96.7878 80.584C96.3771 80.6027 96.0504 80.9667 95.8078 81.676C95.6024 82.3293 95.4998 82.8707 95.4998 83.3C95.4998 83.8413 95.5838 84.392 95.7518 84.952C95.9198 85.4933 96.1344 85.988 96.3958 86.436L97.0118 87.556L97.9918 89.404C98.2531 89.9267 98.4584 90.5333 98.6078 91.224C98.7758 91.9147 98.8598 92.6147 98.8598 93.324C98.8598 94.4627 98.5984 95.5453 98.0758 96.572C97.8144 97.0947 97.4411 97.5147 96.9558 97.832C96.4891 98.1493 95.9664 98.308 95.3878 98.308V98.392ZM103.202 97.972C101.578 97.972 100.766 97.692 100.766 97.132C100.766 96.684 101.055 96.46 101.634 96.46H101.942L102.222 96.488C102.371 96.488 102.474 96.4413 102.53 96.348C102.586 96.2547 102.614 96.0867 102.614 95.844C102.614 95.5267 102.595 95.032 102.558 94.36C102.502 93.912 102.436 93.1093 102.362 91.952C102.194 89.096 102.11 86.94 102.11 85.484C102.11 84.9613 102.119 84.4853 102.138 84.056L102.166 82.628C102.166 82.012 102.138 81.4987 102.082 81.088C101.783 81.1627 101.568 81.2 101.438 81.2C100.99 81.2 100.766 80.976 100.766 80.528C100.766 80.304 100.906 80.108 101.186 79.94C101.466 79.772 101.82 79.6507 102.25 79.576C102.996 79.4267 103.659 79.352 104.238 79.352C104.462 79.352 104.648 79.436 104.798 79.604C104.966 79.7533 105.05 79.9307 105.05 80.136C105.05 80.3413 104.984 80.5187 104.854 80.668C104.742 80.8173 104.592 80.892 104.406 80.892C104.294 80.892 104.2 80.8827 104.126 80.864H103.902C103.715 80.864 103.575 80.9107 103.482 81.004C103.407 81.0787 103.37 81.228 103.37 81.452C103.37 83.2627 103.482 85.988 103.706 89.628C103.743 90.3 103.818 91.2893 103.93 92.596C104.023 93.4547 104.07 94.332 104.07 95.228V96.292C104.182 96.2733 104.368 96.264 104.63 96.264C105.414 96.264 105.806 96.5907 105.806 97.244V97.412L105.106 97.888C105.087 97.888 105.022 97.8973 104.91 97.916C104.816 97.916 104.63 97.916 104.35 97.916C103.752 97.9533 103.37 97.972 103.202 97.972ZM108.538 98.056C108.333 98.056 108.155 98 108.006 97.888C107.857 97.7573 107.782 97.5987 107.782 97.412C107.782 96.292 107.997 94.8173 108.426 92.988C108.874 91.1587 109.518 88.9 110.358 86.212C111.198 83.4307 111.721 81.6387 111.926 80.836C111.702 80.836 111.338 80.864 110.834 80.92C110.33 80.976 109.929 81.004 109.63 81.004C109.443 81.004 109.275 80.9293 109.126 80.78C108.977 80.612 108.902 80.4253 108.902 80.22C108.902 79.6787 109.929 79.408 111.982 79.408C112.915 79.408 113.382 79.6693 113.382 80.192C113.382 80.7893 113.177 81.676 112.766 82.852C112.374 83.8973 112.131 84.6907 112.038 85.232C111.851 86.5573 111.366 88.7227 110.582 91.728L109.35 96.572H109.854L110.442 96.516C110.61 96.4973 110.806 96.488 111.03 96.488V96.46C111.777 96.46 112.15 96.6933 112.15 97.16C112.15 97.3653 112.057 97.5333 111.87 97.664C111.683 97.776 111.45 97.832 111.17 97.832C110.871 97.832 110.601 97.8227 110.358 97.804L109.518 97.748C109.406 97.748 109.247 97.804 109.042 97.916C108.799 98.0093 108.631 98.056 108.538 98.056ZM116.714 100.632C116.527 100.632 116.415 100.548 116.378 100.38V100.212L117.05 99.372C117.293 99.036 117.451 98.728 117.526 98.448C117.545 98.392 117.554 98.308 117.554 98.196C117.554 98.084 117.545 98 117.526 97.944C117.227 97.944 116.994 97.86 116.826 97.692C116.677 97.5053 116.574 97.2253 116.518 96.852C116.462 96.516 116.555 96.264 116.798 96.096C117.059 95.9093 117.386 95.816 117.778 95.816C118.357 95.816 118.702 96.124 118.814 96.74C118.889 97.2067 118.758 97.8227 118.422 98.588C118.086 99.3533 117.657 99.9787 117.134 100.464C117.022 100.557 116.91 100.613 116.798 100.632H116.714ZM50.252 128.632C50.0467 128.632 49.944 128.52 49.944 128.296V128.072C49.9627 127.997 49.972 127.913 49.972 127.82C49.972 127.745 50.1027 127.652 50.364 127.54C51.26 127.26 51.8667 126.952 52.184 126.616C52.7067 126.037 52.968 124.983 52.968 123.452C52.968 122.22 52.9213 119.831 52.828 116.284C52.716 113.167 52.66 110.787 52.66 109.144V109.032C52.604 109.032 52.5107 109.023 52.38 109.004C52.268 108.985 52.1373 108.976 51.988 108.976C51.652 108.939 51.3813 108.892 51.176 108.836C50.896 108.761 50.7 108.668 50.588 108.556C50.5507 108.481 50.532 108.407 50.532 108.332C50.532 108.164 50.6253 108.015 50.812 107.884C51.0173 107.753 51.2227 107.688 51.428 107.688C52.3613 107.688 53.4253 107.753 54.62 107.884C55.8147 108.015 56.412 108.164 56.412 108.332C56.412 108.519 56.3373 108.677 56.188 108.808C56.0573 108.92 55.88 108.976 55.656 108.976L54.228 108.976C54.228 109.965 54.2747 111.935 54.368 114.884C54.4613 117.068 54.508 119.028 54.508 120.764L54.508 123.76C54.508 124.413 54.4613 124.964 54.368 125.412C54.2373 126.103 53.976 126.7 53.584 127.204C53.1733 127.783 52.5573 128.193 51.736 128.436C51.3253 128.567 50.8307 128.632 50.252 128.632ZM64.3334 126.252C63.904 126.252 63.5867 126.187 63.3814 126.056C63.176 125.925 63.0734 125.683 63.0734 125.328C63.0734 124.768 62.98 123.816 62.7934 122.472L62.6814 121.884L59.9094 121.464C59.7974 121.893 59.6387 122.761 59.4334 124.068C59.3214 124.983 59.144 125.589 58.9014 125.888C58.7707 126.056 58.584 126.14 58.3414 126.14C58.1174 126.14 57.912 126.075 57.7254 125.944C57.5387 125.795 57.4454 125.617 57.4454 125.412L57.5014 125.272L57.5294 125.16C58.7614 120.363 59.6947 115.631 60.3294 110.964C60.3294 110.889 60.3387 110.768 60.3574 110.6C60.376 110.413 60.3947 110.152 60.4134 109.816C60.4694 109.125 60.5254 108.575 60.5814 108.164C60.656 107.753 60.768 107.445 60.9174 107.24H61.8694C62.1307 107.24 62.3547 107.305 62.5414 107.436C62.728 107.548 62.8214 107.716 62.8214 107.94C62.8214 109.359 63.0174 111.468 63.4094 114.268C63.7827 117.143 63.9694 119.159 63.9694 120.316C63.9694 120.428 64.016 120.717 64.1094 121.184C64.2027 121.613 64.2494 121.893 64.2494 122.024C64.2494 122.155 64.3427 122.715 64.5294 123.704C64.6974 124.6 64.7814 125.179 64.7814 125.44V125.468C64.7814 125.879 64.632 126.14 64.3334 126.252ZM62.4854 120.876C62.4294 120.596 62.4014 120.251 62.4014 119.84C62.4014 118.16 62.252 116.013 61.9534 113.4L61.6734 110.488C60.8707 114.875 60.32 118.188 60.0214 120.428C60.3014 120.615 61.1227 120.764 62.4854 120.876ZM74.8286 126.084C74.6046 126.084 74.4366 126.028 74.3246 125.916C74.2126 125.785 74.1286 125.571 74.0726 125.272L73.9046 124.74V124.684V124.6C73.9046 123.984 73.2606 121.884 71.9726 118.3C70.7032 114.716 69.7046 112.065 68.9766 110.348L68.9766 124.432L69.0886 124.628C69.1072 124.665 69.1446 124.731 69.2006 124.824C69.2566 124.917 69.2846 125.011 69.2846 125.104C69.2846 125.347 69.2006 125.552 69.0326 125.72C68.8646 125.888 68.6592 125.972 68.4166 125.972C67.8192 125.972 67.5206 125.403 67.5206 124.264L67.4926 119.476C67.4739 118.039 67.4646 116.433 67.4646 114.66C67.4646 114.063 67.4926 113.195 67.5486 112.056C67.6046 110.88 67.6326 110.012 67.6326 109.452C67.6326 108.575 67.9686 107.884 68.6406 107.38V107.548C68.7526 107.511 68.8272 107.492 68.8646 107.492C69.2939 107.492 69.8352 108.239 70.4886 109.732C71.0112 110.927 71.4779 112.187 71.8886 113.512C72.3179 114.837 72.8779 116.723 73.5686 119.168L73.8486 120.176C74.2779 121.688 74.6046 122.771 74.8286 123.424C75.2019 119.411 75.3886 114.669 75.3886 109.2V108.836C75.3699 108.724 75.3606 108.603 75.3606 108.472C75.3606 107.912 75.5846 107.632 76.0326 107.632C76.2939 107.632 76.4899 107.735 76.6206 107.94C76.7699 108.145 76.8446 108.407 76.8446 108.724L76.8446 110.824C76.8072 113.699 76.6952 116.816 76.5086 120.176C76.3219 123.536 76.0979 125.431 75.8366 125.86C75.2952 126.009 74.9592 126.084 74.8286 126.084ZM83.859 126.532C83.3737 126.532 82.9257 126.373 82.515 126.056C82.1043 125.757 81.7683 125.347 81.507 124.824C80.9657 123.685 80.6297 122.444 80.499 121.1C80.331 119.831 80.247 118.608 80.247 117.432C80.247 117.208 80.2563 117.021 80.275 116.872V116.368C80.275 116.275 80.2657 116.228 80.247 116.228V115.724L80.275 113.764C80.2937 113.167 80.3683 112.215 80.499 110.908C80.5923 110.012 80.807 109.144 81.143 108.304C81.2737 107.931 81.4417 107.651 81.647 107.464C81.8523 107.259 82.0857 107.156 82.347 107.156C83.0937 107.156 83.7657 107.296 84.363 107.576C84.9603 107.837 85.4643 108.211 85.875 108.696C86.2483 109.163 86.5657 109.741 86.827 110.432C87.0883 111.104 87.275 111.823 87.387 112.588C87.499 113.372 87.555 114.203 87.555 115.08V115.304C87.555 115.883 87.5643 116.405 87.583 116.872L87.611 118.468C87.611 123.844 86.3603 126.532 83.859 126.532ZM83.747 125.356C84.083 125.356 84.391 125.225 84.671 124.964C84.951 124.684 85.1657 124.311 85.315 123.844C85.6697 122.892 85.8843 121.865 85.959 120.764C86.0523 119.812 86.099 118.991 86.099 118.3C86.099 117.46 86.0337 116.359 85.903 114.996C85.791 113.559 85.735 112.485 85.735 111.776V111.272C85.6977 110.563 85.455 109.947 85.007 109.424C84.5777 108.901 84.0457 108.64 83.411 108.64C82.7763 108.64 82.3563 109.004 82.151 109.732C81.9643 110.311 81.871 111.057 81.871 111.972C81.871 112.327 81.8803 112.625 81.899 112.868L81.899 113.624L81.843 114.912C81.8057 115.304 81.787 115.733 81.787 116.2C81.787 117.208 81.815 118.207 81.871 119.196C81.9457 120.596 82.1323 121.959 82.431 123.284C82.7297 124.665 83.1683 125.356 83.747 125.356ZM91.4848 126.28C91.0742 126.28 90.8222 126.103 90.7288 125.748C90.6542 125.524 90.6168 125.207 90.6168 124.796C90.6168 123.993 90.6542 123.004 90.7288 121.828C90.8222 120.708 90.8688 119.709 90.8688 118.832C90.8688 117.843 90.8968 116.359 90.9528 114.38L91.0088 109.956C91.0088 109.788 90.9808 109.536 90.9248 109.2L90.8408 108.5V108.36C90.8408 107.931 90.9062 107.613 91.0368 107.408C91.1675 107.203 91.4102 107.1 91.7648 107.1C92.2502 107.1 92.7822 107.24 93.3608 107.52C93.9395 107.8 94.3595 108.155 94.6208 108.584C95.1622 109.48 95.4328 110.6 95.4328 111.944C95.4328 112.952 95.3488 113.801 95.1808 114.492C95.0128 115.164 94.7235 115.789 94.3128 116.368C94.8168 116.853 95.1528 117.479 95.3208 118.244C95.5075 118.991 95.6008 119.933 95.6008 121.072C95.6008 122.211 95.4048 123.2 95.0128 124.04C94.5648 124.992 93.9115 125.645 93.0528 126C92.5302 126.187 92.0075 126.28 91.4848 126.28ZM92.3808 115.556C93.3515 115.537 93.8368 114.408 93.8368 112.168C93.8368 109.76 93.4542 108.5 92.6888 108.388C92.4835 108.817 92.3808 109.825 92.3808 111.412L92.3808 115.556ZM92.2128 124.852C92.8102 124.721 93.2768 124.367 93.6128 123.788C93.9488 123.209 94.1168 122.547 94.1168 121.8C94.1168 121.016 94.0702 120.325 93.9768 119.728C93.9022 119.261 93.7995 118.879 93.6688 118.58C93.5568 118.263 93.3982 117.973 93.1928 117.712C92.9688 117.432 92.7075 117.264 92.4088 117.208C92.3342 118.272 92.2968 119.681 92.2968 121.436C92.2968 121.548 92.2782 121.903 92.2408 122.5L92.1848 123.452C92.1848 123.489 92.1942 123.517 92.2128 123.536V123.592V124.852Z" fill="#292D32"/>
<defs>
<filter id="filter0_d_0_3614" x="0" y="0" width="193" height="204" filterUnits="userSpaceOnUse" color-interpolation-filters="sRGB">
<feFlood flood-opacity="0" result="BackgroundImageFix"/>
<feColorMatrix in="SourceAlpha" type="matrix" values="0 0 0 0 0 0 0 0 0 0 0 0 0 0 0 0 0 0 127 0" result="hardAlpha"/>
<feOffset dy="12"/>
<feGaussianBlur stdDeviation="10"/>
<feComposite in2="hardAlpha" operator="out"/>
<feColorMatrix type="matrix" values="0 0 0 0 0 0 0 0 0 0 0 0 0 0 0 0 0 0 0.08 0"/>
<feBlend mode="normal" in2="BackgroundImageFix" result="effect1_dropShadow_0_3614"/>
<feBlend mode="normal" in="SourceGraphic" in2="effect1_dropShadow_0_3614" result="shape"/>
</filter>
</defs>
</svg>
