<svg width="220" height="181" viewBox="0 0 220 181" fill="none" xmlns="http://www.w3.org/2000/svg">
<g filter="url(#filter0_d_0_3869)">
<path d="M192.771 77.8289C216.881 38.1849 175.815 7.53525 141.106 8.00534C115.633 8.35007 89.7695 6.92414 64.4693 10.4968C34.2062 14.7903 19.1451 31.0553 20.0375 62.0496C20.742 86.4158 32.484 116.031 54.9818 128.677C79.3895 142.387 106.991 140.758 131.853 130.244C139.321 137.561 153.364 147.746 174.531 149C174.531 149 163.885 130.4 163.525 111.001C175.283 101.412 185.365 89.9885 192.755 77.8289H192.771Z" fill="white"/>
</g>
<path d="M43.78 49.196C43.5 49.196 43.276 49.0653 43.108 48.804C42.9587 48.524 42.884 48.188 42.884 47.796C42.884 47.18 42.9213 46.424 42.996 45.528L43.052 44.8L43.108 43.316C43.108 42.6627 43.0427 41.2067 42.912 38.948C42.7813 36.6893 42.716 35.2333 42.716 34.58C42.716 34.524 42.716 34.4213 42.716 34.272C42.7347 34.104 42.744 33.852 42.744 33.516C42.7627 33.1427 42.772 32.6853 42.772 32.144C42.772 30.7813 42.6787 29.9133 42.492 29.54C42.38 29.54 42.1373 29.568 41.764 29.624L40.98 29.68C40.7373 29.68 40.5227 29.6147 40.336 29.484C40.1493 29.3347 40.056 29.148 40.056 28.924C40.056 28.7 40.28 28.504 40.728 28.336C41.3813 28.112 42.492 27.9533 44.06 27.86C44.6947 27.8227 45.0773 27.804 45.208 27.804C45.432 27.804 45.6373 27.8787 45.824 28.028C46.0107 28.1773 46.104 28.364 46.104 28.588C46.104 28.812 46.02 28.9987 45.852 29.148C45.7027 29.2787 45.5067 29.344 45.264 29.344L44.76 29.316C44.6107 29.2973 44.4427 29.288 44.256 29.288H43.976C44.1067 30.5573 44.172 31.7053 44.172 32.732L44.144 34.524C44.1253 35.0653 44.116 35.672 44.116 36.344C44.116 37.24 44.1533 38.3133 44.228 39.564C44.3213 41.1133 44.368 42.1867 44.368 42.784C44.368 43.4933 44.4053 44.3333 44.48 45.304C44.5547 46.2933 44.592 47.1333 44.592 47.824C44.592 48.7387 44.3213 49.196 43.78 49.196ZM52.3121 49.532C51.8268 49.532 51.3788 49.3733 50.9681 49.056C50.5575 48.7573 50.2215 48.3467 49.9601 47.824C49.4188 46.6853 49.0828 45.444 48.9521 44.1C48.7841 42.8307 48.7001 41.608 48.7001 40.432C48.7001 40.208 48.7095 40.0213 48.7281 39.872V39.368C48.7281 39.2747 48.7188 39.228 48.7001 39.228V38.724L48.7281 36.764C48.7468 36.1667 48.8215 35.2147 48.9521 33.908C49.0455 33.012 49.2601 32.144 49.5961 31.304C49.7268 30.9307 49.8948 30.6507 50.1001 30.464C50.3055 30.2587 50.5388 30.156 50.8001 30.156C51.5468 30.156 52.2188 30.296 52.8161 30.576C53.4135 30.8373 53.9175 31.2107 54.3281 31.696C54.7015 32.1627 55.0188 32.7413 55.2801 33.432C55.5415 34.104 55.7281 34.8227 55.8401 35.588C55.9521 36.372 56.0081 37.2027 56.0081 38.08V38.304C56.0081 38.8827 56.0175 39.4053 56.0361 39.872L56.0641 41.468C56.0641 46.844 54.8135 49.532 52.3121 49.532ZM52.2001 48.356C52.5361 48.356 52.8441 48.2253 53.1241 47.964C53.4041 47.684 53.6188 47.3107 53.7681 46.844C54.1228 45.892 54.3375 44.8653 54.4121 43.764C54.5055 42.812 54.5521 41.9907 54.5521 41.3C54.5521 40.46 54.4868 39.3587 54.3561 37.996C54.2441 36.5587 54.1881 35.4853 54.1881 34.776V34.272C54.1508 33.5627 53.9081 32.9467 53.4601 32.424C53.0308 31.9013 52.4988 31.64 51.8641 31.64C51.2295 31.64 50.8095 32.004 50.6041 32.732C50.4175 33.3107 50.3241 34.0573 50.3241 34.972C50.3241 35.3267 50.3335 35.6253 50.3521 35.868V36.624L50.2961 37.912C50.2588 38.304 50.2401 38.7333 50.2401 39.2C50.2401 40.208 50.2681 41.2067 50.3241 42.196C50.3988 43.596 50.5855 44.9587 50.8841 46.284C51.1828 47.6653 51.6215 48.356 52.2001 48.356ZM60.722 32.676C60.6473 32.676 60.5633 32.1067 60.47 30.968C60.3766 29.8293 60.33 28.8587 60.33 28.056C60.33 27.888 60.414 27.7387 60.582 27.608C60.75 27.4773 60.9366 27.412 61.142 27.412C61.478 27.412 61.73 27.6267 61.898 28.056L61.814 28.14L61.842 28.252V28.336C61.842 29.1947 61.73 30.1373 61.506 31.164C61.282 32.172 61.0486 32.676 60.806 32.676H60.722ZM70.7934 49.448C70.1214 49.224 69.2908 49.112 68.3014 49.112C68.0028 49.2987 67.6854 49.392 67.3494 49.392C67.1254 49.392 66.9294 49.2893 66.7614 49.084C66.6121 48.8973 66.5374 48.692 66.5374 48.468C66.5374 46.9 66.6028 44.8093 66.7334 42.196C66.8454 39.4147 66.9014 37.3333 66.9014 35.952V35.756C66.7894 34.58 66.7334 33.7027 66.7334 33.124C66.7334 31.3507 67.0601 30.464 67.7134 30.464C67.9001 30.464 68.0588 30.5387 68.1894 30.688C68.3388 30.8187 68.4134 30.9773 68.4134 31.164C68.4134 31.388 68.3854 31.7427 68.3294 32.228C68.2734 32.6947 68.2454 33.0493 68.2454 33.292C68.2454 34.5427 68.2548 35.672 68.2734 36.68C68.2921 37.6693 68.3014 38.7893 68.3014 40.04C68.2081 40.32 68.1614 40.712 68.1614 41.216V41.552L68.1054 43.764C68.0681 44.4173 68.0494 45.164 68.0494 46.004C68.0494 47.292 68.3574 47.936 68.9734 47.936C69.0108 47.936 69.0668 47.936 69.1414 47.936C69.2348 47.9173 69.3561 47.908 69.5054 47.908C69.6734 47.8893 69.8881 47.88 70.1494 47.88C71.1574 47.88 71.6614 48.16 71.6614 48.72C71.6614 48.9067 71.5774 49.0653 71.4094 49.196C71.2414 49.3267 71.0361 49.4107 70.7934 49.448ZM77.2496 49.532C76.7643 49.532 76.3163 49.3733 75.9056 49.056C75.495 48.7573 75.159 48.3467 74.8976 47.824C74.3563 46.6853 74.0203 45.444 73.8896 44.1C73.7216 42.8307 73.6376 41.608 73.6376 40.432C73.6376 40.208 73.647 40.0213 73.6656 39.872V39.368C73.6656 39.2747 73.6563 39.228 73.6376 39.228V38.724L73.6656 36.764C73.6843 36.1667 73.759 35.2147 73.8896 33.908C73.983 33.012 74.1976 32.144 74.5336 31.304C74.6643 30.9307 74.8323 30.6507 75.0376 30.464C75.243 30.2587 75.4763 30.156 75.7376 30.156C76.4843 30.156 77.1563 30.296 77.7536 30.576C78.351 30.8373 78.855 31.2107 79.2656 31.696C79.639 32.1627 79.9563 32.7413 80.2176 33.432C80.479 34.104 80.6656 34.8227 80.7776 35.588C80.8896 36.372 80.9456 37.2027 80.9456 38.08V38.304C80.9456 38.8827 80.955 39.4053 80.9736 39.872L81.0016 41.468C81.0016 46.844 79.751 49.532 77.2496 49.532ZM77.1376 48.356C77.4736 48.356 77.7816 48.2253 78.0616 47.964C78.3416 47.684 78.5563 47.3107 78.7056 46.844C79.0603 45.892 79.275 44.8653 79.3496 43.764C79.443 42.812 79.4896 41.9907 79.4896 41.3C79.4896 40.46 79.4243 39.3587 79.2936 37.996C79.1816 36.5587 79.1256 35.4853 79.1256 34.776V34.272C79.0883 33.5627 78.8456 32.9467 78.3976 32.424C77.9683 31.9013 77.4363 31.64 76.8016 31.64C76.167 31.64 75.747 32.004 75.5416 32.732C75.355 33.3107 75.2616 34.0573 75.2616 34.972C75.2616 35.3267 75.271 35.6253 75.2896 35.868V36.624L75.2336 37.912C75.1963 38.304 75.1776 38.7333 75.1776 39.2C75.1776 40.208 75.2056 41.2067 75.2616 42.196C75.3363 43.596 75.523 44.9587 75.8216 46.284C76.1203 47.6653 76.559 48.356 77.1376 48.356ZM86.2195 48.916C86.2195 46.7693 86.0141 44.548 85.6035 42.252C85.2115 39.956 84.5861 37.1467 83.7275 33.824C83.6901 33.6373 83.6061 33.348 83.4755 32.956C83.1395 31.9107 82.9715 31.248 82.9715 30.968C82.9715 30.8 83.0368 30.6507 83.1675 30.52C83.3168 30.3893 83.4755 30.324 83.6435 30.324C83.9235 30.324 84.1848 30.5573 84.4275 31.024C84.6701 31.472 84.8941 32.0787 85.0995 32.844C85.3048 33.5907 85.5288 34.524 85.7715 35.644C85.9955 36.708 86.2661 38.3413 86.5835 40.544L86.7515 41.636L87.0875 44.128C87.1621 44.8187 87.2275 45.3133 87.2835 45.612C87.6755 43.5587 88.1795 40.5907 88.7955 36.708C89.2995 33.3853 89.6541 31.1173 89.8595 29.904L90.4755 29.904C90.6435 29.904 90.7928 29.9693 90.9235 30.1C91.0541 30.212 91.1195 30.352 91.1195 30.52C91.1195 31.192 91.0355 31.92 90.8675 32.704C90.7181 33.4693 90.4848 34.3933 90.1675 35.476C89.9061 36.4093 89.7288 37.1093 89.6355 37.576C89.5608 38.0427 89.4861 38.78 89.4115 39.788C89.2621 42.0467 89.0288 44.072 88.7115 45.864C88.5061 46.9467 88.2355 47.796 87.8995 48.412C87.5635 49.028 87.1808 49.336 86.7515 49.336L86.2195 48.916ZM101.176 48.916C101.176 46.7693 100.971 44.548 100.56 42.252C100.168 39.956 99.5432 37.1467 98.6845 33.824C98.6472 33.6373 98.5632 33.348 98.4325 32.956C98.0965 31.9107 97.9285 31.248 97.9285 30.968C97.9285 30.8 97.9938 30.6507 98.1245 30.52C98.2738 30.3893 98.4325 30.324 98.6005 30.324C98.8805 30.324 99.1418 30.5573 99.3845 31.024C99.6272 31.472 99.8512 32.0787 100.056 32.844C100.262 33.5907 100.486 34.524 100.728 35.644C100.952 36.708 101.223 38.3413 101.54 40.544L101.708 41.636L102.044 44.128C102.119 44.8187 102.184 45.3133 102.24 45.612C102.632 43.5587 103.136 40.5907 103.752 36.708C104.256 33.3853 104.611 31.1173 104.816 29.904L105.432 29.904C105.6 29.904 105.75 29.9693 105.88 30.1C106.011 30.212 106.076 30.352 106.076 30.52C106.076 31.192 105.992 31.92 105.824 32.704C105.675 33.4693 105.442 34.3933 105.124 35.476C104.863 36.4093 104.686 37.1093 104.592 37.576C104.518 38.0427 104.443 38.78 104.368 39.788C104.219 42.0467 103.986 44.072 103.668 45.864C103.463 46.9467 103.192 47.796 102.856 48.412C102.52 49.028 102.138 49.336 101.708 49.336L101.176 48.916ZM114.38 49.252C113.951 49.252 113.634 49.1867 113.428 49.056C113.223 48.9253 113.12 48.6827 113.12 48.328C113.12 47.768 113.027 46.816 112.84 45.472L112.728 44.884L109.956 44.464C109.844 44.8933 109.686 45.7613 109.48 47.068C109.368 47.9827 109.191 48.5893 108.948 48.888C108.818 49.056 108.631 49.14 108.388 49.14C108.164 49.14 107.959 49.0747 107.772 48.944C107.586 48.7947 107.492 48.6173 107.492 48.412L107.548 48.272L107.576 48.16C108.808 43.3627 109.742 38.6307 110.376 33.964C110.376 33.8893 110.386 33.768 110.404 33.6C110.423 33.4133 110.442 33.152 110.46 32.816C110.516 32.1253 110.572 31.5747 110.628 31.164C110.703 30.7533 110.815 30.4453 110.964 30.24H111.916C112.178 30.24 112.402 30.3053 112.588 30.436C112.775 30.548 112.868 30.716 112.868 30.94C112.868 32.3587 113.064 34.468 113.456 37.268C113.83 40.1427 114.016 42.1587 114.016 43.316C114.016 43.428 114.063 43.7173 114.156 44.184C114.25 44.6133 114.296 44.8933 114.296 45.024C114.296 45.1547 114.39 45.7147 114.576 46.704C114.744 47.6 114.828 48.1787 114.828 48.44V48.468C114.828 48.8787 114.679 49.14 114.38 49.252ZM112.532 43.876C112.476 43.596 112.448 43.2507 112.448 42.84C112.448 41.16 112.299 39.0133 112 36.4L111.72 33.488C110.918 37.8747 110.367 41.188 110.068 43.428C110.348 43.6147 111.17 43.764 112.532 43.876ZM44.984 77.532C44.4987 77.532 44.0507 77.3733 43.64 77.056C43.2293 76.7573 42.8933 76.3467 42.632 75.824C42.0907 74.6853 41.7547 73.444 41.624 72.1C41.456 70.8307 41.372 69.608 41.372 68.432C41.372 68.208 41.3813 68.0213 41.4 67.872V67.368C41.4 67.2747 41.3907 67.228 41.372 67.228V66.724L41.4 64.764C41.4187 64.1667 41.4933 63.2147 41.624 61.908C41.7173 61.012 41.932 60.144 42.268 59.304C42.3987 58.9307 42.5667 58.6507 42.772 58.464C42.9773 58.2587 43.2107 58.156 43.472 58.156C44.2187 58.156 44.8907 58.296 45.488 58.576C46.0853 58.8373 46.5893 59.2107 47 59.696C47.3733 60.1627 47.6907 60.7413 47.952 61.432C48.2133 62.104 48.4 62.8227 48.512 63.588C48.624 64.372 48.68 65.2027 48.68 66.08V66.304C48.68 66.8827 48.6893 67.4053 48.708 67.872L48.736 69.468C48.736 74.844 47.4853 77.532 44.984 77.532ZM44.872 76.356C45.208 76.356 45.516 76.2253 45.796 75.964C46.076 75.684 46.2907 75.3107 46.44 74.844C46.7947 73.892 47.0093 72.8653 47.084 71.764C47.1773 70.812 47.224 69.9907 47.224 69.3C47.224 68.46 47.1587 67.3587 47.028 65.996C46.916 64.5587 46.86 63.4853 46.86 62.776V62.272C46.8227 61.5627 46.58 60.9467 46.132 60.424C45.7027 59.9013 45.1707 59.64 44.536 59.64C43.9013 59.64 43.4813 60.004 43.276 60.732C43.0893 61.3107 42.996 62.0573 42.996 62.972C42.996 63.3267 43.0053 63.6253 43.024 63.868V64.624L42.968 65.912C42.9307 66.304 42.912 66.7333 42.912 67.2C42.912 68.208 42.94 69.2067 42.996 70.196C43.0707 71.596 43.2573 72.9587 43.556 74.284C43.8547 75.6653 44.2933 76.356 44.872 76.356ZM53.3938 60.676C53.3192 60.676 53.2352 60.1067 53.1418 58.968C53.0485 57.8293 53.0018 56.8587 53.0018 56.056C53.0018 55.888 53.0858 55.7387 53.2538 55.608C53.4218 55.4773 53.6085 55.412 53.8138 55.412C54.1498 55.412 54.4018 55.6267 54.5698 56.056L54.4858 56.14L54.5138 56.252V56.336C54.5138 57.1947 54.4018 58.1373 54.1778 59.164C53.9538 60.172 53.7205 60.676 53.4778 60.676H53.3938ZM60.7213 76.552L60.6933 75.46C60.6746 75.1427 60.6653 74.788 60.6653 74.396L60.6933 73.444C60.6373 73.2387 60.4973 71.1947 60.2733 67.312C60.0493 63.4293 59.9186 60.9373 59.8813 59.836C58.7986 59.7987 58.108 59.6867 57.8093 59.5C57.604 59.3507 57.5013 59.1827 57.5013 58.996C57.5013 58.8467 57.5946 58.716 57.7813 58.604C57.9866 58.4733 58.192 58.408 58.3973 58.408C58.92 58.408 59.5546 58.4453 60.3013 58.52C61.0106 58.6133 61.6453 58.66 62.2053 58.66H62.4293H62.6533C63.232 58.66 63.5213 58.884 63.5213 59.332C63.5213 59.556 63.428 59.7427 63.2413 59.892C63.0546 60.0227 62.84 60.088 62.5973 60.088C62.4293 60.088 62.1866 60.06 61.8693 60.004L61.3093 59.892L61.2813 60.032L61.2533 60.172C61.2533 61.8333 61.412 64.484 61.7293 68.124C62.028 71.54 62.1773 74.1907 62.1773 76.076C62.1773 76.3 62.0746 76.496 61.8693 76.664C61.6826 76.832 61.468 76.916 61.2253 76.916L60.7213 76.552ZM72.9254 77.476C72.496 77.476 72.0387 77.0093 71.5534 76.076C70.8254 74.676 70.1067 72.3707 69.3974 69.16C69.192 68.2827 69.024 67.4707 68.8934 66.724C68.2214 68.068 67.8854 69.692 67.8854 71.596L67.8854 76.776C67.8854 77.2053 67.6987 77.42 67.3254 77.42C67.0454 77.42 66.812 77.336 66.6254 77.168C66.4574 77.0187 66.3734 76.804 66.3734 76.524L66.3734 68.04C66.3734 67.2187 66.4667 65.7067 66.6534 63.504C66.84 61.5813 66.9334 60.0693 66.9334 58.968C67.0827 58.6133 67.3534 58.436 67.7454 58.436C67.988 58.436 68.1934 58.52 68.3614 58.688C68.5294 58.856 68.6134 59.0613 68.6134 59.304V59.388C68.3707 59.7987 68.2494 61.4973 68.2494 64.484V65.492L69.2854 63.448C69.92 62.1227 70.5174 60.984 71.0774 60.032C71.6 59.0987 71.9827 58.632 72.2254 58.632C72.524 58.632 72.776 58.6973 72.9814 58.828C73.2054 58.9587 73.3174 59.1453 73.3174 59.388L72.6454 60.508C71.2454 62.7667 70.4614 64.0733 70.2934 64.428C70.2934 64.7453 70.284 65.0253 70.2654 65.268L70.2374 66.108C70.2374 66.9107 70.5547 68.4133 71.1894 70.616C71.8427 72.8 72.384 74.2467 72.8134 74.956L73.1774 75.46C73.532 75.9453 73.7094 76.3747 73.7094 76.748C73.7094 76.9533 73.6254 77.1213 73.4574 77.252C73.308 77.4013 73.1307 77.476 72.9254 77.476ZM81.6224 77.252C81.1931 77.252 80.8758 77.1867 80.6704 77.056C80.4651 76.9253 80.3624 76.6827 80.3624 76.328C80.3624 75.768 80.2691 74.816 80.0824 73.472L79.9704 72.884L77.1984 72.464C77.0864 72.8933 76.9278 73.7613 76.7224 75.068C76.6104 75.9827 76.4331 76.5893 76.1904 76.888C76.0598 77.056 75.8731 77.14 75.6304 77.14C75.4064 77.14 75.2011 77.0747 75.0144 76.944C74.8278 76.7947 74.7344 76.6173 74.7344 76.412L74.7904 76.272L74.8184 76.16C76.0504 71.3627 76.9838 66.6307 77.6184 61.964C77.6184 61.8893 77.6278 61.768 77.6464 61.6C77.6651 61.4133 77.6838 61.152 77.7024 60.816C77.7584 60.1253 77.8144 59.5747 77.8704 59.164C77.9451 58.7533 78.0571 58.4453 78.2064 58.24H79.1584C79.4198 58.24 79.6438 58.3053 79.8304 58.436C80.0171 58.548 80.1104 58.716 80.1104 58.94C80.1104 60.3587 80.3064 62.468 80.6984 65.268C81.0718 68.1427 81.2584 70.1587 81.2584 71.316C81.2584 71.428 81.3051 71.7173 81.3984 72.184C81.4918 72.6133 81.5384 72.8933 81.5384 73.024C81.5384 73.1547 81.6318 73.7147 81.8184 74.704C81.9864 75.6 82.0704 76.1787 82.0704 76.44V76.468C82.0704 76.8787 81.9211 77.14 81.6224 77.252ZM79.7744 71.876C79.7184 71.596 79.6904 71.2507 79.6904 70.84C79.6904 69.16 79.5411 67.0133 79.2424 64.4L78.9624 61.488C78.1598 65.8747 77.6091 69.188 77.3104 71.428C77.5904 71.6147 78.4118 71.764 79.7744 71.876ZM84.8936 77.056C84.6883 77.056 84.511 77 84.3616 76.888C84.2123 76.7573 84.1376 76.5987 84.1376 76.412C84.1376 75.292 84.3523 73.8173 84.7816 71.988C85.2296 70.1587 85.8736 67.9 86.7136 65.212C87.5536 62.4307 88.0763 60.6387 88.2816 59.836C88.0576 59.836 87.6936 59.864 87.1896 59.92C86.6856 59.976 86.2843 60.004 85.9856 60.004C85.799 60.004 85.631 59.9293 85.4816 59.78C85.3323 59.612 85.2576 59.4253 85.2576 59.22C85.2576 58.6787 86.2843 58.408 88.3376 58.408C89.271 58.408 89.7376 58.6693 89.7376 59.192C89.7376 59.7893 89.5323 60.676 89.1216 61.852C88.7296 62.8973 88.487 63.6907 88.3936 64.232C88.207 65.5573 87.7216 67.7227 86.9376 70.728L85.7056 75.572H86.2096L86.7976 75.516C86.9656 75.4973 87.1616 75.488 87.3856 75.488V75.46C88.1323 75.46 88.5056 75.6933 88.5056 76.16C88.5056 76.3653 88.4123 76.5333 88.2256 76.664C88.039 76.776 87.8056 76.832 87.5256 76.832C87.227 76.832 86.9563 76.8227 86.7136 76.804L85.8736 76.748C85.7616 76.748 85.603 76.804 85.3976 76.916C85.155 77.0093 84.987 77.056 84.8936 77.056ZM103.933 78.456C103.355 78.456 103.065 77.8773 103.065 76.72V74.928V73.136C103.065 72.2027 103 70.98 102.869 69.468C102.72 67.7693 102.645 66.6027 102.645 65.968L102.701 64.232C102.739 63.728 102.757 63.1587 102.757 62.524C102.683 62.7667 102.375 64.0547 101.833 66.388C101.292 68.6467 100.732 70.7373 100.153 72.66C99.5934 74.508 99.1361 75.432 98.7814 75.432C98.4267 75.432 98.1374 75.3293 97.9134 75.124C97.7081 74.9 97.6054 74.6013 97.6054 74.228C97.6054 73.4067 97.2694 71.6613 96.5974 68.992C95.9441 66.3227 95.3467 64.1387 94.8054 62.44L94.6374 65.604C94.4881 68.2733 94.3854 70.4947 94.3294 72.268C94.2921 73.9853 94.2734 75.1613 94.2734 75.796C94.2734 75.9453 94.2827 76.0853 94.3014 76.216V76.608C94.3014 76.9253 94.2361 77.1587 94.1054 77.308C93.9747 77.476 93.7321 77.56 93.3774 77.56C93.1907 77.56 93.0134 77.4853 92.8454 77.336C92.6774 77.2053 92.5934 77.056 92.5934 76.888C92.5934 74.984 92.7334 72.128 93.0134 68.32C93.2934 64.512 93.4334 61.656 93.4334 59.752C93.3214 59.584 93.2654 59.4067 93.2654 59.22C93.2654 58.996 93.3681 58.828 93.5734 58.716C93.7974 58.5853 94.0587 58.52 94.3574 58.52C94.6001 58.52 95.0481 59.3973 95.7014 61.152C96.3547 62.9067 97.0081 64.8947 97.6614 67.116C98.3147 69.3373 98.7347 70.9427 98.9214 71.932C99.0707 71.428 99.1921 70.9613 99.2854 70.532L99.4534 69.86C100.051 67.2467 100.648 64.8853 101.245 62.776C101.6 61.488 101.945 60.48 102.281 59.752C102.617 58.968 102.925 58.576 103.205 58.576C103.467 58.576 103.7 58.6507 103.905 58.8C104.129 58.9307 104.241 59.108 104.241 59.332C104.241 60.676 104.297 62.692 104.409 65.38C104.54 67.8813 104.605 69.8227 104.605 71.204L104.577 72.688L104.521 74.172C104.521 74.396 104.549 74.732 104.605 75.18L104.689 76.16C104.708 76.328 104.717 76.4587 104.717 76.552C104.736 76.6453 104.745 76.7013 104.745 76.72C104.839 76.9627 104.885 77.14 104.885 77.252C104.885 77.5693 104.792 77.8493 104.605 78.092C104.419 78.3347 104.195 78.456 103.933 78.456ZM113.861 77.252C113.431 77.252 113.114 77.1867 112.909 77.056C112.703 76.9253 112.601 76.6827 112.601 76.328C112.601 75.768 112.507 74.816 112.321 73.472L112.209 72.884L109.437 72.464C109.325 72.8933 109.166 73.7613 108.961 75.068C108.849 75.9827 108.671 76.5893 108.429 76.888C108.298 77.056 108.111 77.14 107.869 77.14C107.645 77.14 107.439 77.0747 107.253 76.944C107.066 76.7947 106.973 76.6173 106.973 76.412L107.029 76.272L107.057 76.16C108.289 71.3627 109.222 66.6307 109.857 61.964C109.857 61.8893 109.866 61.768 109.885 61.6C109.903 61.4133 109.922 61.152 109.941 60.816C109.997 60.1253 110.053 59.5747 110.109 59.164C110.183 58.7533 110.295 58.4453 110.445 58.24H111.397C111.658 58.24 111.882 58.3053 112.069 58.436C112.255 58.548 112.349 58.716 112.349 58.94C112.349 60.3587 112.545 62.468 112.937 65.268C113.31 68.1427 113.497 70.1587 113.497 71.316C113.497 71.428 113.543 71.7173 113.637 72.184C113.73 72.6133 113.777 72.8933 113.777 73.024C113.777 73.1547 113.87 73.7147 114.057 74.704C114.225 75.6 114.309 76.1787 114.309 76.44V76.468C114.309 76.8787 114.159 77.14 113.861 77.252ZM112.013 71.876C111.957 71.596 111.929 71.2507 111.929 70.84C111.929 69.16 111.779 67.0133 111.481 64.4L111.201 61.488C110.398 65.8747 109.847 69.188 109.549 71.428C109.829 71.6147 110.65 71.764 112.013 71.876ZM121.024 77.448C120.352 77.224 119.521 77.112 118.532 77.112C118.233 77.2987 117.916 77.392 117.58 77.392C117.356 77.392 117.16 77.2893 116.992 77.084C116.843 76.8973 116.768 76.692 116.768 76.468C116.768 74.9 116.833 72.8093 116.964 70.196C117.076 67.4147 117.132 65.3333 117.132 63.952V63.756C117.02 62.58 116.964 61.7027 116.964 61.124C116.964 59.3507 117.291 58.464 117.944 58.464C118.131 58.464 118.289 58.5387 118.42 58.688C118.569 58.8187 118.644 58.9773 118.644 59.164C118.644 59.388 118.616 59.7427 118.56 60.228C118.504 60.6947 118.476 61.0493 118.476 61.292C118.476 62.5427 118.485 63.672 118.504 64.68C118.523 65.6693 118.532 66.7893 118.532 68.04C118.439 68.32 118.392 68.712 118.392 69.216V69.552L118.336 71.764C118.299 72.4173 118.28 73.164 118.28 74.004C118.28 75.292 118.588 75.936 119.204 75.936C119.241 75.936 119.297 75.936 119.372 75.936C119.465 75.9173 119.587 75.908 119.736 75.908C119.904 75.8893 120.119 75.88 120.38 75.88C121.388 75.88 121.892 76.16 121.892 76.72C121.892 76.9067 121.808 77.0653 121.64 77.196C121.472 77.3267 121.267 77.4107 121.024 77.448ZM129.72 77.252C129.291 77.252 128.973 77.1867 128.768 77.056C128.563 76.9253 128.46 76.6827 128.46 76.328C128.46 75.768 128.367 74.816 128.18 73.472L128.068 72.884L125.296 72.464C125.184 72.8933 125.025 73.7613 124.82 75.068C124.708 75.9827 124.531 76.5893 124.288 76.888C124.157 77.056 123.971 77.14 123.728 77.14C123.504 77.14 123.299 77.0747 123.112 76.944C122.925 76.7947 122.832 76.6173 122.832 76.412L122.888 76.272L122.916 76.16C124.148 71.3627 125.081 66.6307 125.716 61.964C125.716 61.8893 125.725 61.768 125.744 61.6C125.763 61.4133 125.781 61.152 125.8 60.816C125.856 60.1253 125.912 59.5747 125.968 59.164C126.043 58.7533 126.155 58.4453 126.304 58.24H127.256C127.517 58.24 127.741 58.3053 127.928 58.436C128.115 58.548 128.208 58.716 128.208 58.94C128.208 60.3587 128.404 62.468 128.796 65.268C129.169 68.1427 129.356 70.1587 129.356 71.316C129.356 71.428 129.403 71.7173 129.496 72.184C129.589 72.6133 129.636 72.8933 129.636 73.024C129.636 73.1547 129.729 73.7147 129.916 74.704C130.084 75.6 130.168 76.1787 130.168 76.44V76.468C130.168 76.8787 130.019 77.14 129.72 77.252ZM127.872 71.876C127.816 71.596 127.788 71.2507 127.788 70.84C127.788 69.16 127.639 67.0133 127.34 64.4L127.06 61.488C126.257 65.8747 125.707 69.188 125.408 71.428C125.688 71.6147 126.509 71.764 127.872 71.876ZM137.471 77.476C137.061 77.476 136.687 77.028 136.351 76.132C135.959 75.1613 135.67 74.1627 135.483 73.136L135.287 72.184C134.746 69.5147 134.401 67.9933 134.251 67.62H133.915C133.915 68.1613 133.906 68.656 133.887 69.104V70.644C133.887 73.1453 134.065 75.096 134.419 76.496L134.111 77.252H133.327L132.963 76.832L132.991 74.956C132.991 73.276 132.907 70.728 132.739 67.312C132.59 63.672 132.515 61.124 132.515 59.668C132.515 58.772 132.823 58.324 133.439 58.324C134.447 58.324 135.269 58.5853 135.903 59.108C136.557 59.6307 136.883 60.3587 136.883 61.292V63.252C136.883 63.532 136.837 63.8587 136.743 64.232C136.65 64.5867 136.547 64.876 136.435 65.1L135.903 66.108L135.455 66.948L135.595 67.62L135.987 69.608C136.249 71.0453 136.501 72.212 136.743 73.108C136.986 74.004 137.285 74.816 137.639 75.544L137.807 75.88C137.994 76.2533 138.087 76.552 138.087 76.776C138.087 76.9627 138.031 77.1213 137.919 77.252C137.807 77.4013 137.658 77.476 137.471 77.476ZM134.027 66.248C134.438 66.0427 134.783 65.4827 135.063 64.568C135.362 63.6347 135.511 62.776 135.511 61.992C135.511 61.3947 135.437 60.8347 135.287 60.312C135.194 60.0133 135.035 59.7893 134.811 59.64C134.606 59.472 134.345 59.388 134.027 59.388L133.971 59.528L133.915 59.78L133.971 63.084C134.009 64.0547 134.027 65.1093 134.027 66.248ZM142.677 73.948C142.304 73.948 142.08 73.7427 142.005 73.332C142.005 72.1933 142.089 70.952 142.257 69.608C142.444 68.264 142.705 66.6307 143.041 64.708L143.181 63.896C143.442 62.272 143.573 60.9093 143.573 59.808C143.573 58.072 143.293 57.204 142.733 57.204C142.378 57.204 142.201 57.624 142.201 58.464C142.201 58.6693 142.266 59.1733 142.397 59.976C142.397 59.9947 142.35 60.0507 142.257 60.144C141.94 60.424 141.706 60.564 141.557 60.564C141.034 60.564 140.773 59.9387 140.773 58.688V58.408C140.773 57.9227 140.82 57.512 140.913 57.176C141.025 56.8213 141.221 56.5133 141.501 56.252C141.818 55.9907 142.21 55.86 142.677 55.86C143.088 55.86 143.442 55.9347 143.741 56.084C144.04 56.2333 144.282 56.4387 144.469 56.7C144.768 57.148 144.954 57.8107 145.029 58.688C145.048 58.8933 145.057 59.2573 145.057 59.78C145.057 61.4227 144.777 63.2147 144.217 65.156C143.974 65.9587 143.769 66.976 143.601 68.208C143.433 69.4213 143.349 70.6813 143.349 71.988C143.349 73.0147 143.358 73.64 143.377 73.864C143.041 73.864 142.854 73.8827 142.817 73.92C142.78 73.9387 142.733 73.948 142.677 73.948ZM142.677 77.112C142.397 77.112 142.173 77 142.005 76.776C141.8 76.5893 141.697 76.356 141.697 76.076C141.697 75.8147 141.809 75.572 142.033 75.348C142.257 75.1053 142.509 74.984 142.789 74.984C143.013 74.984 143.237 75.1053 143.461 75.348C143.685 75.5907 143.797 75.824 143.797 76.048C143.797 76.7573 143.424 77.112 142.677 77.112ZM49.744 105.728C49.5573 105.728 49.408 105.635 49.296 105.448C49.184 105.261 49.128 104.991 49.128 104.636L49.1 100.492C49.0813 100.137 49.072 99.5493 49.072 98.728C49.0347 96.992 49.016 95.032 49.016 92.848V91.42C48.848 92.316 48.5587 93.576 48.148 95.2C47.7373 96.88 47.448 98.2613 47.28 99.344V99.512L47.196 100.044C47.1587 100.455 47.0653 100.875 46.916 101.304C46.7293 101.752 46.44 101.976 46.048 101.976C45.376 101.976 45.04 101.099 45.04 99.344C45.04 98.3733 44.9373 97.3373 44.732 96.236C44.5453 95.116 44.2373 93.744 43.808 92.12L42.968 88.984L42.912 92.344C42.912 93.352 42.9587 95.2747 43.052 98.112L43.108 100.016L43.164 103.852C43.164 104.244 43.024 104.599 42.744 104.916C42.2773 104.916 41.9507 104.776 41.764 104.496C41.596 104.197 41.512 103.768 41.512 103.208L41.568 100.912C41.624 99.904 41.652 99.148 41.652 98.644L41.596 93.24L41.54 87.808C41.54 87.0053 41.5587 85.8013 41.596 84.196L42.352 83.748C42.5013 83.7667 42.6507 83.8787 42.8 84.084C42.9493 84.2707 43.1173 84.5787 43.304 85.008C43.7707 86.1653 44.3773 88.48 45.124 91.952C45.236 92.4373 45.3107 92.8387 45.348 93.156C45.572 94.2387 45.7307 95.06 45.824 95.62L46.244 97.776L46.44 96.852L46.972 94.556C47.2707 93.212 47.5133 92.036 47.7 91.028C47.9053 90.02 48.1013 88.928 48.288 87.752C48.4933 86.352 48.624 85.1853 48.68 84.252V84.084C48.7173 83.8413 48.8293 83.6547 49.016 83.524C49.2027 83.3747 49.4267 83.3 49.688 83.3C49.856 83.3 50.0053 83.3747 50.136 83.524C50.2667 83.6733 50.332 83.832 50.332 84C50.332 86.24 50.416 89.5907 50.584 94.052C50.6773 96.236 50.7427 98.3733 50.78 100.464C50.8173 101.416 50.836 102.62 50.836 104.076C50.836 104.505 50.724 104.888 50.5 105.224C50.276 105.56 50.024 105.728 49.744 105.728ZM57.3915 105.42C56.9435 105.42 56.5422 105.317 56.1875 105.112C55.8328 104.925 55.5435 104.645 55.3195 104.272C54.8715 103.488 54.5822 102.601 54.4515 101.612C54.3208 100.753 54.2555 99.7267 54.2555 98.532C54.1995 96.516 54.1715 94.052 54.1715 91.14L54.1435 88.984C54.1248 88.872 54.1155 88.6853 54.1155 88.424C54.0782 87.7147 54.0595 87.2853 54.0595 87.136C54.2275 86.744 54.4235 86.548 54.6475 86.548C54.8715 86.548 55.0675 86.716 55.2355 87.052C55.4222 87.388 55.5155 87.752 55.5155 88.144L55.5155 95.76C55.5155 96.5067 55.5808 97.496 55.7115 98.728C55.8422 100.259 55.9075 101.248 55.9075 101.696C55.9075 103.077 56.4955 103.768 57.6715 103.768C59.0155 103.768 59.6875 98.7467 59.6875 88.704L59.6875 87.136V86.884C59.6688 86.828 59.6595 86.7533 59.6595 86.66C59.6595 86.436 59.7062 86.2773 59.7995 86.184C59.9115 86.072 60.1168 86.016 60.4155 86.016C60.6582 86.016 60.8448 86.0907 60.9755 86.24C61.1248 86.3707 61.2182 86.5293 61.2555 86.716C61.2742 86.828 61.2835 87.0427 61.2835 87.36C61.2835 87.6587 61.2555 88.1347 61.1995 88.788C61.1248 89.3293 61.0875 89.796 61.0875 90.188C61.0875 90.6173 61.0688 91 61.0315 91.336L60.9755 92.512V92.736C60.9942 92.8107 61.0035 92.8947 61.0035 92.988C61.0035 101.276 59.7995 105.42 57.3915 105.42ZM70.0287 105.252C69.5994 105.252 69.282 105.187 69.0767 105.056C68.8714 104.925 68.7687 104.683 68.7687 104.328C68.7687 103.768 68.6754 102.816 68.4887 101.472L68.3767 100.884L65.6047 100.464C65.4927 100.893 65.334 101.761 65.1287 103.068C65.0167 103.983 64.8394 104.589 64.5967 104.888C64.466 105.056 64.2794 105.14 64.0367 105.14C63.8127 105.14 63.6074 105.075 63.4207 104.944C63.234 104.795 63.1407 104.617 63.1407 104.412L63.1967 104.272L63.2247 104.16C64.4567 99.3627 65.39 94.6307 66.0247 89.964C66.0247 89.8893 66.034 89.768 66.0527 89.6C66.0714 89.4133 66.09 89.152 66.1087 88.816C66.1647 88.1253 66.2207 87.5747 66.2767 87.164C66.3514 86.7533 66.4634 86.4453 66.6127 86.24H67.5647C67.826 86.24 68.05 86.3053 68.2367 86.436C68.4234 86.548 68.5167 86.716 68.5167 86.94C68.5167 88.3587 68.7127 90.468 69.1047 93.268C69.478 96.1427 69.6647 98.1587 69.6647 99.316C69.6647 99.428 69.7114 99.7173 69.8047 100.184C69.898 100.613 69.9447 100.893 69.9447 101.024C69.9447 101.155 70.038 101.715 70.2247 102.704C70.3927 103.6 70.4767 104.179 70.4767 104.44V104.468C70.4767 104.879 70.3274 105.14 70.0287 105.252ZM68.1807 99.876C68.1247 99.596 68.0967 99.2507 68.0967 98.84C68.0967 97.16 67.9474 95.0133 67.6487 92.4L67.3687 89.488C66.566 93.8747 66.0154 97.188 65.7167 99.428C65.9967 99.6147 66.818 99.764 68.1807 99.876ZM84.1639 106.456C83.5852 106.456 83.2959 105.877 83.2959 104.72V102.928V101.136C83.2959 100.203 83.2305 98.98 83.0999 97.468C82.9505 95.7693 82.8759 94.6027 82.8759 93.968L82.9319 92.232C82.9692 91.728 82.9879 91.1587 82.9879 90.524C82.9132 90.7667 82.6052 92.0547 82.0639 94.388C81.5225 96.6467 80.9625 98.7373 80.3839 100.66C79.8239 102.508 79.3665 103.432 79.0119 103.432C78.6572 103.432 78.3679 103.329 78.1439 103.124C77.9385 102.9 77.8359 102.601 77.8359 102.228C77.8359 101.407 77.4999 99.6613 76.8279 96.992C76.1745 94.3227 75.5772 92.1387 75.0359 90.44L74.8679 93.604C74.7185 96.2733 74.6159 98.4947 74.5599 100.268C74.5225 101.985 74.5039 103.161 74.5039 103.796C74.5039 103.945 74.5132 104.085 74.5319 104.216V104.608C74.5319 104.925 74.4665 105.159 74.3359 105.308C74.2052 105.476 73.9625 105.56 73.6079 105.56C73.4212 105.56 73.2439 105.485 73.0759 105.336C72.9079 105.205 72.8239 105.056 72.8239 104.888C72.8239 102.984 72.9639 100.128 73.2439 96.32C73.5239 92.512 73.6639 89.656 73.6639 87.752C73.5519 87.584 73.4959 87.4067 73.4959 87.22C73.4959 86.996 73.5985 86.828 73.8039 86.716C74.0279 86.5853 74.2892 86.52 74.5879 86.52C74.8305 86.52 75.2785 87.3973 75.9319 89.152C76.5852 90.9067 77.2385 92.8947 77.8919 95.116C78.5452 97.3373 78.9652 98.9427 79.1519 99.932C79.3012 99.428 79.4225 98.9613 79.5159 98.532L79.6839 97.86C80.2812 95.2467 80.8785 92.8853 81.4759 90.776C81.8305 89.488 82.1759 88.48 82.5119 87.752C82.8479 86.968 83.1559 86.576 83.4359 86.576C83.6972 86.576 83.9305 86.6507 84.1359 86.8C84.3599 86.9307 84.4719 87.108 84.4719 87.332C84.4719 88.676 84.5279 90.692 84.6399 93.38C84.7705 95.8813 84.8359 97.8227 84.8359 99.204L84.8079 100.688L84.7519 102.172C84.7519 102.396 84.7799 102.732 84.8359 103.18L84.9199 104.16C84.9385 104.328 84.9479 104.459 84.9479 104.552C84.9665 104.645 84.9759 104.701 84.9759 104.72C85.0692 104.963 85.1159 105.14 85.1159 105.252C85.1159 105.569 85.0225 105.849 84.8359 106.092C84.6492 106.335 84.4252 106.456 84.1639 106.456ZM99.8592 106.456C99.2805 106.456 98.9912 105.877 98.9912 104.72V102.928V101.136C98.9912 100.203 98.9259 98.98 98.7952 97.468C98.6459 95.7693 98.5712 94.6027 98.5712 93.968L98.6272 92.232C98.6645 91.728 98.6832 91.1587 98.6832 90.524C98.6085 90.7667 98.3005 92.0547 97.7592 94.388C97.2179 96.6467 96.6579 98.7373 96.0792 100.66C95.5192 102.508 95.0619 103.432 94.7072 103.432C94.3525 103.432 94.0632 103.329 93.8392 103.124C93.6339 102.9 93.5312 102.601 93.5312 102.228C93.5312 101.407 93.1952 99.6613 92.5232 96.992C91.8699 94.3227 91.2725 92.1387 90.7312 90.44L90.5632 93.604C90.4139 96.2733 90.3112 98.4947 90.2552 100.268C90.2179 101.985 90.1992 103.161 90.1992 103.796C90.1992 103.945 90.2085 104.085 90.2272 104.216V104.608C90.2272 104.925 90.1619 105.159 90.0312 105.308C89.9005 105.476 89.6579 105.56 89.3032 105.56C89.1165 105.56 88.9392 105.485 88.7712 105.336C88.6032 105.205 88.5192 105.056 88.5192 104.888C88.5192 102.984 88.6592 100.128 88.9392 96.32C89.2192 92.512 89.3592 89.656 89.3592 87.752C89.2472 87.584 89.1912 87.4067 89.1912 87.22C89.1912 86.996 89.2939 86.828 89.4992 86.716C89.7232 86.5853 89.9845 86.52 90.2832 86.52C90.5259 86.52 90.9739 87.3973 91.6272 89.152C92.2805 90.9067 92.9339 92.8947 93.5872 95.116C94.2405 97.3373 94.6605 98.9427 94.8472 99.932C94.9965 99.428 95.1179 98.9613 95.2112 98.532L95.3792 97.86C95.9765 95.2467 96.5739 92.8853 97.1712 90.776C97.5259 89.488 97.8712 88.48 98.2072 87.752C98.5432 86.968 98.8512 86.576 99.1312 86.576C99.3925 86.576 99.6259 86.6507 99.8312 86.8C100.055 86.9307 100.167 87.108 100.167 87.332C100.167 88.676 100.223 90.692 100.335 93.38C100.466 95.8813 100.531 97.8227 100.531 99.204L100.503 100.688L100.447 102.172C100.447 102.396 100.475 102.732 100.531 103.18L100.615 104.16C100.634 104.328 100.643 104.459 100.643 104.552C100.662 104.645 100.671 104.701 100.671 104.72C100.765 104.963 100.811 105.14 100.811 105.252C100.811 105.569 100.718 105.849 100.531 106.092C100.345 106.335 100.121 106.456 99.8592 106.456ZM107.546 105.532C107.061 105.532 106.613 105.373 106.202 105.056C105.792 104.757 105.456 104.347 105.194 103.824C104.653 102.685 104.317 101.444 104.186 100.1C104.018 98.8307 103.934 97.608 103.934 96.432C103.934 96.208 103.944 96.0213 103.962 95.872V95.368C103.962 95.2747 103.953 95.228 103.934 95.228V94.724L103.962 92.764C103.981 92.1667 104.056 91.2147 104.186 89.908C104.28 89.012 104.494 88.144 104.83 87.304C104.961 86.9307 105.129 86.6507 105.334 86.464C105.54 86.2587 105.773 86.156 106.034 86.156C106.781 86.156 107.453 86.296 108.05 86.576C108.648 86.8373 109.152 87.2107 109.562 87.696C109.936 88.1627 110.253 88.7413 110.514 89.432C110.776 90.104 110.962 90.8227 111.074 91.588C111.186 92.372 111.242 93.2027 111.242 94.08V94.304C111.242 94.8827 111.252 95.4053 111.27 95.872L111.298 97.468C111.298 102.844 110.048 105.532 107.546 105.532ZM107.434 104.356C107.77 104.356 108.078 104.225 108.358 103.964C108.638 103.684 108.853 103.311 109.002 102.844C109.357 101.892 109.572 100.865 109.646 99.764C109.74 98.812 109.786 97.9907 109.786 97.3C109.786 96.46 109.721 95.3587 109.59 93.996C109.478 92.5587 109.422 91.4853 109.422 90.776V90.272C109.385 89.5627 109.142 88.9467 108.694 88.424C108.265 87.9013 107.733 87.64 107.098 87.64C106.464 87.64 106.044 88.004 105.838 88.732C105.652 89.3107 105.558 90.0573 105.558 90.972C105.558 91.3267 105.568 91.6253 105.586 91.868V92.624L105.53 93.912C105.493 94.304 105.474 94.7333 105.474 95.2C105.474 96.208 105.502 97.2067 105.558 98.196C105.633 99.596 105.82 100.959 106.118 102.284C106.417 103.665 106.856 104.356 107.434 104.356ZM120.762 105.364C120.519 105.364 120.295 105.28 120.09 105.112C119.903 104.944 119.8 104.739 119.782 104.496V103.768V103.208C119.763 103.04 119.754 102.844 119.754 102.62C119.754 102.228 119.726 101.631 119.67 100.828L119.614 99.036C119.614 98.1213 119.642 96.7587 119.698 94.948C119.772 93.324 119.81 91.9613 119.81 90.86C119.81 90.5987 119.782 90.2067 119.726 89.684C119.67 89.1427 119.642 88.7507 119.642 88.508C119.642 87.1827 120.034 86.52 120.818 86.52C121.434 86.52 122.143 86.6413 122.946 86.884C123.767 87.1267 124.178 87.416 124.178 87.752C124.178 87.9387 124.094 88.116 123.926 88.284C123.776 88.4333 123.59 88.5547 123.366 88.648C122.582 88.368 121.872 88.1813 121.238 88.088C121.256 88.368 121.266 88.7693 121.266 89.292C121.266 90.0387 121.256 90.7107 121.238 91.308C121.182 92.204 121.154 92.876 121.154 93.324L121.238 93.772L121.686 93.744C121.835 93.7253 122.022 93.716 122.246 93.716C123.142 93.716 123.59 93.9773 123.59 94.5C123.59 94.7053 123.506 94.8827 123.338 95.032C123.17 95.1627 122.955 95.228 122.694 95.228C122.358 95.228 122.096 95.2093 121.91 95.172H121.21C121.247 95.6573 121.266 96.3667 121.266 97.3C121.266 98.2333 121.256 99.0733 121.238 99.82C121.182 100.959 121.154 101.808 121.154 102.368C121.154 103.413 121.172 103.936 121.21 103.936L122.134 103.908C122.451 103.889 122.834 103.88 123.282 103.88C123.991 103.88 124.346 104.104 124.346 104.552C124.346 104.813 124.224 105.009 123.982 105.14C123.758 105.289 123.478 105.364 123.142 105.364H120.762ZM138.715 106.456C138.136 106.456 137.847 105.877 137.847 104.72V102.928V101.136C137.847 100.203 137.781 98.98 137.651 97.468C137.501 95.7693 137.427 94.6027 137.427 93.968L137.483 92.232C137.52 91.728 137.539 91.1587 137.539 90.524C137.464 90.7667 137.156 92.0547 136.615 94.388C136.073 96.6467 135.513 98.7373 134.935 100.66C134.375 102.508 133.917 103.432 133.563 103.432C133.208 103.432 132.919 103.329 132.695 103.124C132.489 102.9 132.387 102.601 132.387 102.228C132.387 101.407 132.051 99.6613 131.379 96.992C130.725 94.3227 130.128 92.1387 129.587 90.44L129.419 93.604C129.269 96.2733 129.167 98.4947 129.111 100.268C129.073 101.985 129.055 103.161 129.055 103.796C129.055 103.945 129.064 104.085 129.083 104.216V104.608C129.083 104.925 129.017 105.159 128.887 105.308C128.756 105.476 128.513 105.56 128.159 105.56C127.972 105.56 127.795 105.485 127.627 105.336C127.459 105.205 127.375 105.056 127.375 104.888C127.375 102.984 127.515 100.128 127.795 96.32C128.075 92.512 128.215 89.656 128.215 87.752C128.103 87.584 128.047 87.4067 128.047 87.22C128.047 86.996 128.149 86.828 128.355 86.716C128.579 86.5853 128.84 86.52 129.139 86.52C129.381 86.52 129.829 87.3973 130.483 89.152C131.136 90.9067 131.789 92.8947 132.443 95.116C133.096 97.3373 133.516 98.9427 133.703 99.932C133.852 99.428 133.973 98.9613 134.067 98.532L134.235 97.86C134.832 95.2467 135.429 92.8853 136.027 90.776C136.381 89.488 136.727 88.48 137.063 87.752C137.399 86.968 137.707 86.576 137.987 86.576C138.248 86.576 138.481 86.6507 138.687 86.8C138.911 86.9307 139.023 87.108 139.023 87.332C139.023 88.676 139.079 90.692 139.191 93.38C139.321 95.8813 139.387 97.8227 139.387 99.204L139.359 100.688L139.303 102.172C139.303 102.396 139.331 102.732 139.387 103.18L139.471 104.16C139.489 104.328 139.499 104.459 139.499 104.552C139.517 104.645 139.527 104.701 139.527 104.72C139.62 104.963 139.667 105.14 139.667 105.252C139.667 105.569 139.573 105.849 139.387 106.092C139.2 106.335 138.976 106.456 138.715 106.456ZM148.642 105.252C148.213 105.252 147.895 105.187 147.69 105.056C147.485 104.925 147.382 104.683 147.382 104.328C147.382 103.768 147.289 102.816 147.102 101.472L146.99 100.884L144.218 100.464C144.106 100.893 143.947 101.761 143.742 103.068C143.63 103.983 143.453 104.589 143.21 104.888C143.079 105.056 142.893 105.14 142.65 105.14C142.426 105.14 142.221 105.075 142.034 104.944C141.847 104.795 141.754 104.617 141.754 104.412L141.81 104.272L141.838 104.16C143.07 99.3627 144.003 94.6307 144.638 89.964C144.638 89.8893 144.647 89.768 144.666 89.6C144.685 89.4133 144.703 89.152 144.722 88.816C144.778 88.1253 144.834 87.5747 144.89 87.164C144.965 86.7533 145.077 86.4453 145.226 86.24H146.178C146.439 86.24 146.663 86.3053 146.85 86.436C147.037 86.548 147.13 86.716 147.13 86.94C147.13 88.3587 147.326 90.468 147.718 93.268C148.091 96.1427 148.278 98.1587 148.278 99.316C148.278 99.428 148.325 99.7173 148.418 100.184C148.511 100.613 148.558 100.893 148.558 101.024C148.558 101.155 148.651 101.715 148.838 102.704C149.006 103.6 149.09 104.179 149.09 104.44V104.468C149.09 104.879 148.941 105.14 148.642 105.252ZM146.794 99.876C146.738 99.596 146.71 99.2507 146.71 98.84C146.71 97.16 146.561 95.0133 146.262 92.4L145.982 89.488C145.179 93.8747 144.629 97.188 144.33 99.428C144.61 99.6147 145.431 99.764 146.794 99.876ZM151.997 105.392C151.661 105.336 151.372 105.215 151.129 105.028C150.905 104.841 150.774 104.599 150.737 104.3L151.045 103.824C151.157 103.824 151.334 103.861 151.577 103.936C151.857 103.992 152.072 104.02 152.221 104.02C152.557 104.02 152.856 103.871 153.117 103.572C153.397 103.273 153.602 102.881 153.733 102.396C153.976 101.5 154.097 100.697 154.097 99.988C154.097 98.756 153.705 97.4587 152.921 96.096L152.613 95.564C152.258 94.948 151.96 94.3973 151.717 93.912C151.474 93.4267 151.269 92.904 151.101 92.344C150.877 91.616 150.765 90.888 150.765 90.16C150.765 89.3387 150.952 88.48 151.325 87.584C151.512 87.1547 151.773 86.8093 152.109 86.548C152.464 86.268 152.856 86.128 153.285 86.128C153.621 86.128 153.929 86.24 154.209 86.464C154.508 86.6693 154.657 86.9213 154.657 87.22C154.657 87.388 154.592 87.5187 154.461 87.612C154.33 87.7053 154.172 87.752 153.985 87.752C153.78 87.752 153.584 87.696 153.397 87.584C152.986 87.6027 152.66 87.9667 152.417 88.676C152.212 89.3293 152.109 89.8707 152.109 90.3C152.109 90.8413 152.193 91.392 152.361 91.952C152.529 92.4933 152.744 92.988 153.005 93.436L153.621 94.556L154.601 96.404C154.862 96.9267 155.068 97.5333 155.217 98.224C155.385 98.9147 155.469 99.6147 155.469 100.324C155.469 101.463 155.208 102.545 154.685 103.572C154.424 104.095 154.05 104.515 153.565 104.832C153.098 105.149 152.576 105.308 151.997 105.308V105.392ZM159.783 100.828C159.596 100.828 159.419 100.595 159.251 100.128C159.083 99.6427 158.999 98.924 158.999 97.972C158.999 97.636 159.018 97.0013 159.055 96.068C159.092 95.3773 159.111 94.612 159.111 93.772L159.055 89.18L158.999 84.588C158.999 84.2893 159.12 84.0373 159.363 83.832C159.606 83.608 159.876 83.496 160.175 83.496C160.362 83.496 160.52 83.5613 160.651 83.692C160.782 83.8227 160.847 83.9907 160.847 84.196C160.847 85.8387 160.754 88.0693 160.567 90.888C160.362 94.0053 160.259 96.236 160.259 97.58C160.259 98.5693 160.24 99.288 160.203 99.736C160.184 100.165 160.138 100.455 160.063 100.604C160.007 100.753 159.914 100.828 159.783 100.828ZM159.279 105.616C159.055 105.616 158.84 105.513 158.635 105.308C158.448 105.103 158.355 104.851 158.355 104.552C158.355 104.216 158.467 103.927 158.691 103.684C158.915 103.423 159.186 103.292 159.503 103.292C159.839 103.292 160.11 103.423 160.315 103.684C160.539 103.927 160.651 104.244 160.651 104.636C160.651 105.289 160.194 105.616 159.279 105.616Z" fill="#292D32"/>
<defs>
<filter id="filter0_d_0_3869" x="0" y="0" width="220" height="181" filterUnits="userSpaceOnUse" color-interpolation-filters="sRGB">
<feFlood flood-opacity="0" result="BackgroundImageFix"/>
<feColorMatrix in="SourceAlpha" type="matrix" values="0 0 0 0 0 0 0 0 0 0 0 0 0 0 0 0 0 0 127 0" result="hardAlpha"/>
<feOffset dy="12"/>
<feGaussianBlur stdDeviation="10"/>
<feComposite in2="hardAlpha" operator="out"/>
<feColorMatrix type="matrix" values="0 0 0 0 0 0 0 0 0 0 0 0 0 0 0 0 0 0 0.08 0"/>
<feBlend mode="normal" in2="BackgroundImageFix" result="effect1_dropShadow_0_3869"/>
<feBlend mode="normal" in="SourceGraphic" in2="effect1_dropShadow_0_3869" result="shape"/>
</filter>
</defs>
</svg>
