<svg width="210" height="184" viewBox="0 0 210 184" fill="none" xmlns="http://www.w3.org/2000/svg">
<g filter="url(#filter0_d_0_3860)">
<path d="M55.4116 29.2837C87.7977 8.04304 133.854 -2.06871 167.991 21.7896C214.382 54.234 180.118 101.891 132.772 124.433C132.82 133.213 135.557 144.013 147.079 149.787C147.079 149.787 110.492 160.034 92.6357 136.429C74.3658 138.628 56.8121 135.921 43.3802 126.258C2.09787 97.1641 21.45 51.5415 55.4116 29.2688V29.2837Z" fill="white"/>
</g>
<path d="M44.276 68.616C43.604 68.616 43.0253 68.4947 42.54 68.252C42.2413 68.084 42.092 67.888 42.092 67.664C42.092 67.44 42.148 67.2627 42.26 67.132C42.372 66.9827 42.5307 66.908 42.736 66.908C42.9227 66.908 43.1933 66.9827 43.548 67.132C43.94 67.2813 44.1827 67.356 44.276 67.356C44.6307 67.356 44.948 67.2067 45.228 66.908C45.5267 66.5907 45.76 66.18 45.928 65.676C46.264 64.7427 46.432 63.9027 46.432 63.156C46.432 62.3533 46.3013 61.5133 46.04 60.636C45.7973 59.74 45.4613 58.872 45.032 58.032L44.584 57.136C44.1173 56.2027 43.7533 55.4653 43.492 54.924C43.2493 54.3827 43.0347 53.7947 42.848 53.16C42.568 52.264 42.428 51.396 42.428 50.556C42.428 49.884 42.54 49.2493 42.764 48.652C43.0067 48.0547 43.3613 47.5507 43.828 47.14C44.2947 46.692 44.8733 46.468 45.564 46.468C45.9 46.468 46.2267 46.5707 46.544 46.776C46.8613 46.9627 47.0853 47.2053 47.216 47.504L46.74 48.092C46.2547 48.092 45.8907 47.9987 45.648 47.812C45.312 47.8493 45.0133 48.0173 44.752 48.316C44.5093 48.596 44.3227 48.9227 44.192 49.296C44.08 49.6507 44.024 50.0053 44.024 50.36C44.024 51.0693 44.1173 51.7973 44.304 52.544C44.5093 53.272 44.7707 53.9627 45.088 54.616L47.048 58.536C47.3653 59.208 47.6173 59.964 47.804 60.804C47.9907 61.644 48.084 62.484 48.084 63.324C48.084 64.556 47.7853 65.7133 47.188 66.796C46.8707 67.356 46.46 67.7947 45.956 68.112C45.452 68.448 44.892 68.616 44.276 68.616ZM56.2219 68C55.5873 68 55.2699 66.46 55.2699 63.38L55.2979 61.784L55.3259 60.496V60.412V60.132C55.3446 59.9827 55.3539 59.8053 55.3539 59.6C55.3539 59.5627 55.3259 59.516 55.2699 59.46C55.2139 59.404 55.1859 59.3573 55.1859 59.32V59.292C55.0926 59.3293 54.9246 59.348 54.6819 59.348C54.4393 59.348 54.1406 59.3107 53.7859 59.236C53.6739 59.2173 53.3753 59.1707 52.8899 59.096L52.8899 62.316C52.8899 62.8013 52.9179 63.5667 52.9739 64.612C53.0299 65.6387 53.0579 66.404 53.0579 66.908C53.0579 67.188 52.9833 67.4307 52.8339 67.636C52.6846 67.8413 52.4886 67.944 52.2459 67.944C51.8913 67.944 51.6393 67.5987 51.4899 66.908C51.3406 66.1987 51.2659 65.2747 51.2659 64.136L51.3219 61.868C51.3406 61.2333 51.3499 60.5613 51.3499 59.852V59.376V58.984C51.3499 58.6853 51.3406 58.4893 51.3219 58.396V58.256L51.4059 56.632C51.4059 55.9227 51.3779 54.868 51.3219 53.468C51.2659 52.068 51.2379 51.0133 51.2379 50.304C51.2379 50.08 51.3126 49.884 51.4619 49.716C51.6113 49.548 51.7979 49.464 52.0219 49.464C52.6193 49.464 52.9179 50.024 52.9179 51.144L52.8619 54.616C52.8246 55.6613 52.8059 56.828 52.8059 58.116C53.0859 58.2093 53.5899 58.256 54.3179 58.256L55.3539 58.256C55.3913 58.144 55.4099 58.032 55.4099 57.92C55.4099 57.024 55.3539 55.6987 55.2419 53.944C55.1113 52.3013 55.0459 50.9667 55.0459 49.94C55.0459 49.7347 55.1206 49.5667 55.2699 49.436C55.4379 49.2867 55.6339 49.212 55.8579 49.212C55.9886 49.212 56.1753 49.2587 56.4179 49.352L56.6699 49.464C56.6699 52.1147 56.7633 55.652 56.9499 60.076L57.2019 67.16C57.2019 67.4213 57.0993 67.6267 56.8939 67.776C56.7073 67.9253 56.4833 68 56.2219 68ZM63.5595 68.42C63.1115 68.42 62.7101 68.3173 62.3555 68.112C62.0008 67.9253 61.7115 67.6453 61.4875 67.272C61.0395 66.488 60.7501 65.6013 60.6195 64.612C60.4888 63.7533 60.4235 62.7267 60.4235 61.532C60.3675 59.516 60.3395 57.052 60.3395 54.14L60.3115 51.984C60.2928 51.872 60.2835 51.6853 60.2835 51.424C60.2461 50.7147 60.2275 50.2853 60.2275 50.136C60.3955 49.744 60.5915 49.548 60.8155 49.548C61.0395 49.548 61.2355 49.716 61.4035 50.052C61.5901 50.388 61.6835 50.752 61.6835 51.144L61.6835 58.76C61.6835 59.5067 61.7488 60.496 61.8795 61.728C62.0101 63.2587 62.0755 64.248 62.0755 64.696C62.0755 66.0773 62.6635 66.768 63.8395 66.768C65.1835 66.768 65.8555 61.7467 65.8555 51.704V50.136V49.884C65.8368 49.828 65.8275 49.7533 65.8275 49.66C65.8275 49.436 65.8741 49.2773 65.9675 49.184C66.0795 49.072 66.2848 49.016 66.5835 49.016C66.8261 49.016 67.0128 49.0907 67.1435 49.24C67.2928 49.3707 67.3861 49.5293 67.4235 49.716C67.4421 49.828 67.4515 50.0427 67.4515 50.36C67.4515 50.6587 67.4235 51.1347 67.3675 51.788C67.2928 52.3293 67.2555 52.796 67.2555 53.188C67.2555 53.6173 67.2368 54 67.1995 54.336L67.1435 55.512V55.736C67.1621 55.8107 67.1715 55.8947 67.1715 55.988C67.1715 64.276 65.9675 68.42 63.5595 68.42ZM78.3247 68.084C78.1007 68.084 77.9327 68.028 77.8207 67.916C77.7087 67.7853 77.6247 67.5707 77.5687 67.272L77.4007 66.74V66.684V66.6C77.4007 65.984 76.7567 63.884 75.4687 60.3C74.1993 56.716 73.2007 54.0653 72.4727 52.348L72.4727 66.432L72.5847 66.628C72.6033 66.6653 72.6407 66.7307 72.6967 66.824C72.7527 66.9173 72.7807 67.0107 72.7807 67.104C72.7807 67.3467 72.6967 67.552 72.5287 67.72C72.3607 67.888 72.1553 67.972 71.9127 67.972C71.3153 67.972 71.0167 67.4027 71.0167 66.264L70.9887 61.476C70.97 60.0387 70.9607 58.4333 70.9607 56.66C70.9607 56.0627 70.9887 55.1947 71.0447 54.056C71.1007 52.88 71.1287 52.012 71.1287 51.452C71.1287 50.5747 71.4647 49.884 72.1367 49.38V49.548C72.2487 49.5107 72.3233 49.492 72.3607 49.492C72.79 49.492 73.3313 50.2387 73.9847 51.732C74.5073 52.9267 74.974 54.1867 75.3847 55.512C75.814 56.8373 76.374 58.7227 77.0647 61.168L77.3447 62.176C77.774 63.688 78.1007 64.7707 78.3247 65.424C78.698 61.4107 78.8847 56.6693 78.8847 51.2V50.836C78.866 50.724 78.8567 50.6027 78.8567 50.472C78.8567 49.912 79.0807 49.632 79.5287 49.632C79.79 49.632 79.986 49.7347 80.1167 49.94C80.266 50.1453 80.3407 50.4067 80.3407 50.724L80.3407 52.824C80.3033 55.6987 80.1913 58.816 80.0047 62.176C79.818 65.536 79.594 67.4307 79.3327 67.86C78.7913 68.0093 78.4553 68.084 78.3247 68.084ZM89.5951 68.252C89.1658 68.252 88.8484 68.1867 88.6431 68.056C88.4378 67.9253 88.3351 67.6827 88.3351 67.328C88.3351 66.768 88.2418 65.816 88.0551 64.472L87.9431 63.884L85.1711 63.464C85.0591 63.8933 84.9004 64.7613 84.6951 66.068C84.5831 66.9827 84.4058 67.5893 84.1631 67.888C84.0324 68.056 83.8458 68.14 83.6031 68.14C83.3791 68.14 83.1738 68.0747 82.9871 67.944C82.8004 67.7947 82.7071 67.6173 82.7071 67.412L82.7631 67.272L82.7911 67.16C84.0231 62.3627 84.9564 57.6307 85.5911 52.964C85.5911 52.8893 85.6004 52.768 85.6191 52.6C85.6378 52.4133 85.6564 52.152 85.6751 51.816C85.7311 51.1253 85.7871 50.5747 85.8431 50.164C85.9178 49.7533 86.0298 49.4453 86.1791 49.24H87.1311C87.3924 49.24 87.6164 49.3053 87.8031 49.436C87.9898 49.548 88.0831 49.716 88.0831 49.94C88.0831 51.3587 88.2791 53.468 88.6711 56.268C89.0444 59.1427 89.2311 61.1587 89.2311 62.316C89.2311 62.428 89.2778 62.7173 89.3711 63.184C89.4644 63.6133 89.5111 63.8933 89.5111 64.024C89.5111 64.1547 89.6044 64.7147 89.7911 65.704C89.9591 66.6 90.0431 67.1787 90.0431 67.44V67.468C90.0431 67.8787 89.8938 68.14 89.5951 68.252ZM87.7471 62.876C87.6911 62.596 87.6631 62.2507 87.6631 61.84C87.6631 60.16 87.5138 58.0133 87.2151 55.4L86.9351 52.488C86.1324 56.8747 85.5818 60.188 85.2831 62.428C85.5631 62.6147 86.3844 62.764 87.7471 62.876ZM98.2983 73.908C97.2529 73.908 96.5343 73.6933 96.1423 73.264C96.1423 72.8907 96.1143 72.4613 96.0583 71.976L96.0023 71.388C95.8716 70.6227 95.7969 70.2027 95.7783 70.128L95.6383 69.456C95.5636 69.0453 95.5263 68.84 95.5263 68.84C94.4996 68.5973 93.7529 68.0933 93.2863 67.328C92.7823 66.5253 92.4556 65.5827 92.3063 64.5C92.1756 63.5853 92.1103 62.428 92.1103 61.028C92.1103 60.3933 92.1196 59.824 92.1383 59.32V57.696C92.1383 57.0427 92.1943 56.016 92.3063 54.616C92.4369 53.328 92.7263 52.1333 93.1743 51.032C93.3983 50.472 93.6876 50.0427 94.0423 49.744C94.4156 49.4453 94.8356 49.296 95.3023 49.296C95.4516 49.352 95.6756 49.408 95.9743 49.464C96.2916 49.5573 96.4876 49.6227 96.5623 49.66C97.4396 49.996 98.0836 50.6027 98.4943 51.48C98.9049 52.3387 99.1569 53.244 99.2503 54.196C99.3436 55.0733 99.3903 55.9787 99.3903 56.912L99.3623 59.6C99.3063 60.776 99.2036 61.9987 99.0543 63.268C98.9423 64.4253 98.6996 65.5733 98.3263 66.712C97.9716 67.7573 97.4956 68.4107 96.8983 68.672C96.8983 69.2693 97.0476 70.1373 97.3463 71.276C97.4583 71.612 97.5609 72.004 97.6543 72.452C98.5129 72.452 98.9423 72.7227 98.9423 73.264C98.9423 73.4507 98.8769 73.6093 98.7463 73.74C98.6343 73.8707 98.4849 73.936 98.2983 73.936V73.908ZM95.4423 67.916C95.7036 67.804 95.9743 67.748 96.2543 67.748C96.4596 67.748 96.6929 67.3093 96.9543 66.432C97.2156 65.5547 97.4396 64.556 97.6263 63.436C97.8129 62.316 97.9063 61.504 97.9063 61L97.9063 56.128C97.9063 52.3013 96.9823 50.388 95.1343 50.388C94.8169 50.388 94.5463 50.7427 94.3223 51.452C93.9676 52.4973 93.7249 54.2333 93.5943 56.66C93.5383 57.4067 93.5103 58.004 93.5103 58.452L93.5383 60.524C93.5569 61.0093 93.6036 61.7747 93.6783 62.82C93.6783 63.0067 93.6969 63.3053 93.7343 63.716C93.8089 64.6307 94.0049 65.6013 94.3223 66.628C94.5836 67.4867 94.9569 67.916 95.4423 67.916ZM107.997 68.252C107.568 68.252 107.251 68.1867 107.045 68.056C106.84 67.9253 106.737 67.6827 106.737 67.328C106.737 66.768 106.644 65.816 106.457 64.472L106.345 63.884L103.573 63.464C103.461 63.8933 103.303 64.7613 103.097 66.068C102.985 66.9827 102.808 67.5893 102.565 67.888C102.435 68.056 102.248 68.14 102.005 68.14C101.781 68.14 101.576 68.0747 101.389 67.944C101.203 67.7947 101.109 67.6173 101.109 67.412L101.165 67.272L101.193 67.16C102.425 62.3627 103.359 57.6307 103.993 52.964C103.993 52.8893 104.003 52.768 104.021 52.6C104.04 52.4133 104.059 52.152 104.077 51.816C104.133 51.1253 104.189 50.5747 104.245 50.164C104.32 49.7533 104.432 49.4453 104.581 49.24H105.533C105.795 49.24 106.019 49.3053 106.205 49.436C106.392 49.548 106.485 49.716 106.485 49.94C106.485 51.3587 106.681 53.468 107.073 56.268C107.447 59.1427 107.633 61.1587 107.633 62.316C107.633 62.428 107.68 62.7173 107.773 63.184C107.867 63.6133 107.913 63.8933 107.913 64.024C107.913 64.1547 108.007 64.7147 108.193 65.704C108.361 66.6 108.445 67.1787 108.445 67.44V67.468C108.445 67.8787 108.296 68.14 107.997 68.252ZM106.149 62.876C106.093 62.596 106.065 62.2507 106.065 61.84C106.065 60.16 105.916 58.0133 105.617 55.4L105.337 52.488C104.535 56.8747 103.984 60.188 103.685 62.428C103.965 62.6147 104.787 62.764 106.149 62.876ZM121.814 73.908C120.769 73.908 120.05 73.6933 119.658 73.264C119.658 72.8907 119.63 72.4613 119.574 71.976L119.518 71.388C119.387 70.6227 119.313 70.2027 119.294 70.128L119.154 69.456C119.079 69.0453 119.042 68.84 119.042 68.84C118.015 68.5973 117.269 68.0933 116.802 67.328C116.298 66.5253 115.971 65.5827 115.822 64.5C115.691 63.5853 115.626 62.428 115.626 61.028C115.626 60.3933 115.635 59.824 115.654 59.32V57.696C115.654 57.0427 115.71 56.016 115.822 54.616C115.953 53.328 116.242 52.1333 116.69 51.032C116.914 50.472 117.203 50.0427 117.558 49.744C117.931 49.4453 118.351 49.296 118.818 49.296C118.967 49.352 119.191 49.408 119.49 49.464C119.807 49.5573 120.003 49.6227 120.078 49.66C120.955 49.996 121.599 50.6027 122.01 51.48C122.421 52.3387 122.673 53.244 122.766 54.196C122.859 55.0733 122.906 55.9787 122.906 56.912L122.878 59.6C122.822 60.776 122.719 61.9987 122.57 63.268C122.458 64.4253 122.215 65.5733 121.842 66.712C121.487 67.7573 121.011 68.4107 120.414 68.672C120.414 69.2693 120.563 70.1373 120.862 71.276C120.974 71.612 121.077 72.004 121.17 72.452C122.029 72.452 122.458 72.7227 122.458 73.264C122.458 73.4507 122.393 73.6093 122.262 73.74C122.15 73.8707 122.001 73.936 121.814 73.936V73.908ZM118.958 67.916C119.219 67.804 119.49 67.748 119.77 67.748C119.975 67.748 120.209 67.3093 120.47 66.432C120.731 65.5547 120.955 64.556 121.142 63.436C121.329 62.316 121.422 61.504 121.422 61V56.128C121.422 52.3013 120.498 50.388 118.65 50.388C118.333 50.388 118.062 50.7427 117.838 51.452C117.483 52.4973 117.241 54.2333 117.11 56.66C117.054 57.4067 117.026 58.004 117.026 58.452L117.054 60.524C117.073 61.0093 117.119 61.7747 117.194 62.82C117.194 63.0067 117.213 63.3053 117.25 63.716C117.325 64.6307 117.521 65.6013 117.838 66.628C118.099 67.4867 118.473 67.916 118.958 67.916ZM127.397 67.972C125.773 67.972 124.961 67.692 124.961 67.132C124.961 66.684 125.25 66.46 125.829 66.46H126.137L126.417 66.488C126.566 66.488 126.669 66.4413 126.725 66.348C126.781 66.2547 126.809 66.0867 126.809 65.844C126.809 65.5267 126.79 65.032 126.753 64.36C126.697 63.912 126.632 63.1093 126.557 61.952C126.389 59.096 126.305 56.94 126.305 55.484C126.305 54.9613 126.314 54.4853 126.333 54.056L126.361 52.628C126.361 52.012 126.333 51.4987 126.277 51.088C125.978 51.1627 125.764 51.2 125.633 51.2C125.185 51.2 124.961 50.976 124.961 50.528C124.961 50.304 125.101 50.108 125.381 49.94C125.661 49.772 126.016 49.6507 126.445 49.576C127.192 49.4267 127.854 49.352 128.433 49.352C128.657 49.352 128.844 49.436 128.993 49.604C129.161 49.7533 129.245 49.9307 129.245 50.136C129.245 50.3413 129.18 50.5187 129.049 50.668C128.937 50.8173 128.788 50.892 128.601 50.892C128.489 50.892 128.396 50.8827 128.321 50.864H128.097C127.91 50.864 127.77 50.9107 127.677 51.004C127.602 51.0787 127.565 51.228 127.565 51.452C127.565 53.2627 127.677 55.988 127.901 59.628C127.938 60.3 128.013 61.2893 128.125 62.596C128.218 63.4547 128.265 64.332 128.265 65.228V66.292C128.377 66.2733 128.564 66.264 128.825 66.264C129.609 66.264 130.001 66.5907 130.001 67.244V67.412L129.301 67.888C129.282 67.888 129.217 67.8973 129.105 67.916C129.012 67.916 128.825 67.916 128.545 67.916C127.948 67.9533 127.565 67.972 127.397 67.972ZM136.625 68.448C135.953 68.224 135.123 68.112 134.133 68.112C133.835 68.2987 133.517 68.392 133.181 68.392C132.957 68.392 132.761 68.2893 132.593 68.084C132.444 67.8973 132.369 67.692 132.369 67.468C132.369 65.9 132.435 63.8093 132.565 61.196C132.677 58.4147 132.733 56.3333 132.733 54.952V54.756C132.621 53.58 132.565 52.7027 132.565 52.124C132.565 50.3507 132.892 49.464 133.545 49.464C133.732 49.464 133.891 49.5387 134.021 49.688C134.171 49.8187 134.245 49.9773 134.245 50.164C134.245 50.388 134.217 50.7427 134.161 51.228C134.105 51.6947 134.077 52.0493 134.077 52.292C134.077 53.5427 134.087 54.672 134.105 55.68C134.124 56.6693 134.133 57.7893 134.133 59.04C134.04 59.32 133.993 59.712 133.993 60.216V60.552L133.937 62.764C133.9 63.4173 133.881 64.164 133.881 65.004C133.881 66.292 134.189 66.936 134.805 66.936C134.843 66.936 134.899 66.936 134.973 66.936C135.067 66.9173 135.188 66.908 135.337 66.908C135.505 66.8893 135.72 66.88 135.981 66.88C136.989 66.88 137.493 67.16 137.493 67.72C137.493 67.9067 137.409 68.0653 137.241 68.196C137.073 68.3267 136.868 68.4107 136.625 68.448ZM141.206 67.972C139.582 67.972 138.77 67.692 138.77 67.132C138.77 66.684 139.059 66.46 139.638 66.46H139.946L140.226 66.488C140.375 66.488 140.478 66.4413 140.534 66.348C140.59 66.2547 140.618 66.0867 140.618 65.844C140.618 65.5267 140.599 65.032 140.562 64.36C140.506 63.912 140.44 63.1093 140.366 61.952C140.198 59.096 140.114 56.94 140.114 55.484C140.114 54.9613 140.123 54.4853 140.142 54.056L140.17 52.628C140.17 52.012 140.142 51.4987 140.086 51.088C139.787 51.1627 139.572 51.2 139.442 51.2C138.994 51.2 138.77 50.976 138.77 50.528C138.77 50.304 138.91 50.108 139.19 49.94C139.47 49.772 139.824 49.6507 140.254 49.576C141 49.4267 141.663 49.352 142.242 49.352C142.466 49.352 142.652 49.436 142.802 49.604C142.97 49.7533 143.054 49.9307 143.054 50.136C143.054 50.3413 142.988 50.5187 142.858 50.668C142.746 50.8173 142.596 50.892 142.41 50.892C142.298 50.892 142.204 50.8827 142.13 50.864H141.906C141.719 50.864 141.579 50.9107 141.486 51.004C141.411 51.0787 141.374 51.228 141.374 51.452C141.374 53.2627 141.486 55.988 141.71 59.628C141.747 60.3 141.822 61.2893 141.934 62.596C142.027 63.4547 142.074 64.332 142.074 65.228V66.292C142.186 66.2733 142.372 66.264 142.634 66.264C143.418 66.264 143.81 66.5907 143.81 67.244V67.412L143.11 67.888C143.091 67.888 143.026 67.8973 142.914 67.916C142.82 67.916 142.634 67.916 142.354 67.916C141.756 67.9533 141.374 67.972 141.206 67.972ZM146.626 68.392C146.29 68.336 146.001 68.2147 145.758 68.028C145.534 67.8413 145.403 67.5987 145.366 67.3L145.674 66.824C145.786 66.824 145.963 66.8613 146.206 66.936C146.486 66.992 146.701 67.02 146.85 67.02C147.186 67.02 147.485 66.8707 147.746 66.572C148.026 66.2733 148.231 65.8813 148.362 65.396C148.605 64.5 148.726 63.6973 148.726 62.988C148.726 61.756 148.334 60.4587 147.55 59.096L147.242 58.564C146.887 57.948 146.589 57.3973 146.346 56.912C146.103 56.4267 145.898 55.904 145.73 55.344C145.506 54.616 145.394 53.888 145.394 53.16C145.394 52.3387 145.581 51.48 145.954 50.584C146.141 50.1547 146.402 49.8093 146.738 49.548C147.093 49.268 147.485 49.128 147.914 49.128C148.25 49.128 148.558 49.24 148.838 49.464C149.137 49.6693 149.286 49.9213 149.286 50.22C149.286 50.388 149.221 50.5187 149.09 50.612C148.959 50.7053 148.801 50.752 148.614 50.752C148.409 50.752 148.213 50.696 148.026 50.584C147.615 50.6027 147.289 50.9667 147.046 51.676C146.841 52.3293 146.738 52.8707 146.738 53.3C146.738 53.8413 146.822 54.392 146.99 54.952C147.158 55.4933 147.373 55.988 147.634 56.436L148.25 57.556L149.23 59.404C149.491 59.9267 149.697 60.5333 149.846 61.224C150.014 61.9147 150.098 62.6147 150.098 63.324C150.098 64.4627 149.837 65.5453 149.314 66.572C149.053 67.0947 148.679 67.5147 148.194 67.832C147.727 68.1493 147.205 68.308 146.626 68.308V68.392ZM157.968 68C157.333 68 157.016 66.46 157.016 63.38L157.044 61.784L157.072 60.496V60.412V60.132C157.091 59.9827 157.1 59.8053 157.1 59.6C157.1 59.5627 157.072 59.516 157.016 59.46C156.96 59.404 156.932 59.3573 156.932 59.32V59.292C156.839 59.3293 156.671 59.348 156.428 59.348C156.185 59.348 155.887 59.3107 155.532 59.236C155.42 59.2173 155.121 59.1707 154.636 59.096V62.316C154.636 62.8013 154.664 63.5667 154.72 64.612C154.776 65.6387 154.804 66.404 154.804 66.908C154.804 67.188 154.729 67.4307 154.58 67.636C154.431 67.8413 154.235 67.944 153.992 67.944C153.637 67.944 153.385 67.5987 153.236 66.908C153.087 66.1987 153.012 65.2747 153.012 64.136L153.068 61.868C153.087 61.2333 153.096 60.5613 153.096 59.852V59.376V58.984C153.096 58.6853 153.087 58.4893 153.068 58.396V58.256L153.152 56.632C153.152 55.9227 153.124 54.868 153.068 53.468C153.012 52.068 152.984 51.0133 152.984 50.304C152.984 50.08 153.059 49.884 153.208 49.716C153.357 49.548 153.544 49.464 153.768 49.464C154.365 49.464 154.664 50.024 154.664 51.144L154.608 54.616C154.571 55.6613 154.552 56.828 154.552 58.116C154.832 58.2093 155.336 58.256 156.064 58.256H157.1C157.137 58.144 157.156 58.032 157.156 57.92C157.156 57.024 157.1 55.6987 156.988 53.944C156.857 52.3013 156.792 50.9667 156.792 49.94C156.792 49.7347 156.867 49.5667 157.016 49.436C157.184 49.2867 157.38 49.212 157.604 49.212C157.735 49.212 157.921 49.2587 158.164 49.352L158.416 49.464C158.416 52.1147 158.509 55.652 158.696 60.076L158.948 67.16C158.948 67.4213 158.845 67.6267 158.64 67.776C158.453 67.9253 158.229 68 157.968 68ZM53.992 97.456C53.4133 97.456 53.124 96.8773 53.124 95.72V93.928L53.124 92.136C53.124 91.2027 53.0587 89.98 52.928 88.468C52.7787 86.7693 52.704 85.6027 52.704 84.968L52.76 83.232C52.7973 82.728 52.816 82.1587 52.816 81.524C52.7413 81.7667 52.4333 83.0547 51.892 85.388C51.3507 87.6467 50.7907 89.7373 50.212 91.66C49.652 93.508 49.1947 94.432 48.84 94.432C48.4853 94.432 48.196 94.3293 47.972 94.124C47.7667 93.9 47.664 93.6013 47.664 93.228C47.664 92.4067 47.328 90.6613 46.656 87.992C46.0027 85.3227 45.4053 83.1387 44.864 81.44L44.696 84.604C44.5467 87.2733 44.444 89.4947 44.388 91.268C44.3507 92.9853 44.332 94.1613 44.332 94.796C44.332 94.9453 44.3413 95.0853 44.36 95.216V95.608C44.36 95.9253 44.2947 96.1587 44.164 96.308C44.0333 96.476 43.7907 96.56 43.436 96.56C43.2493 96.56 43.072 96.4853 42.904 96.336C42.736 96.2053 42.652 96.056 42.652 95.888C42.652 93.984 42.792 91.128 43.072 87.32C43.352 83.512 43.492 80.656 43.492 78.752C43.38 78.584 43.324 78.4067 43.324 78.22C43.324 77.996 43.4267 77.828 43.632 77.716C43.856 77.5853 44.1173 77.52 44.416 77.52C44.6587 77.52 45.1067 78.3973 45.76 80.152C46.4133 81.9067 47.0667 83.8947 47.72 86.116C48.3733 88.3373 48.7933 89.9427 48.98 90.932C49.1293 90.428 49.2507 89.9613 49.344 89.532L49.512 88.86C50.1093 86.2467 50.7067 83.8853 51.304 81.776C51.6587 80.488 52.004 79.48 52.34 78.752C52.676 77.968 52.984 77.576 53.264 77.576C53.5253 77.576 53.7587 77.6507 53.964 77.8C54.188 77.9307 54.3 78.108 54.3 78.332C54.3 79.676 54.356 81.692 54.468 84.38C54.5987 86.8813 54.664 88.8227 54.664 90.204L54.636 91.688L54.58 93.172C54.58 93.396 54.608 93.732 54.664 94.18L54.748 95.16C54.7667 95.328 54.776 95.4587 54.776 95.552C54.7947 95.6453 54.804 95.7013 54.804 95.72C54.8973 95.9627 54.944 96.14 54.944 96.252C54.944 96.5693 54.8507 96.8493 54.664 97.092C54.4773 97.3347 54.2533 97.456 53.992 97.456ZM61.3993 96.42C60.9513 96.42 60.55 96.3173 60.1953 96.112C59.8406 95.9253 59.5513 95.6453 59.3273 95.272C58.8793 94.488 58.59 93.6013 58.4593 92.612C58.3286 91.7533 58.2633 90.7267 58.2633 89.532C58.2073 87.516 58.1793 85.052 58.1793 82.14L58.1513 79.984C58.1326 79.872 58.1233 79.6853 58.1233 79.424C58.086 78.7147 58.0673 78.2853 58.0673 78.136C58.2353 77.744 58.4313 77.548 58.6553 77.548C58.8793 77.548 59.0753 77.716 59.2433 78.052C59.43 78.388 59.5233 78.752 59.5233 79.144L59.5233 86.76C59.5233 87.5067 59.5886 88.496 59.7193 89.728C59.85 91.2587 59.9153 92.248 59.9153 92.696C59.9153 94.0773 60.5033 94.768 61.6793 94.768C63.0233 94.768 63.6953 89.7467 63.6953 79.704V78.136V77.884C63.6766 77.828 63.6673 77.7533 63.6673 77.66C63.6673 77.436 63.714 77.2773 63.8073 77.184C63.9193 77.072 64.1246 77.016 64.4233 77.016C64.666 77.016 64.8526 77.0907 64.9833 77.24C65.1326 77.3707 65.226 77.5293 65.2633 77.716C65.282 77.828 65.2913 78.0427 65.2913 78.36C65.2913 78.6587 65.2633 79.1347 65.2073 79.788C65.1326 80.3293 65.0953 80.796 65.0953 81.188C65.0953 81.6173 65.0766 82 65.0393 82.336L64.9833 83.512V83.736C65.002 83.8107 65.0113 83.8947 65.0113 83.988C65.0113 92.276 63.8073 96.42 61.3993 96.42ZM79.8045 97.456C79.2258 97.456 78.9365 96.8773 78.9365 95.72V93.928V92.136C78.9365 91.2027 78.8712 89.98 78.7405 88.468C78.5912 86.7693 78.5165 85.6027 78.5165 84.968L78.5725 83.232C78.6098 82.728 78.6285 82.1587 78.6285 81.524C78.5538 81.7667 78.2458 83.0547 77.7045 85.388C77.1632 87.6467 76.6032 89.7373 76.0245 91.66C75.4645 93.508 75.0072 94.432 74.6525 94.432C74.2978 94.432 74.0085 94.3293 73.7845 94.124C73.5792 93.9 73.4765 93.6013 73.4765 93.228C73.4765 92.4067 73.1405 90.6613 72.4685 87.992C71.8152 85.3227 71.2178 83.1387 70.6765 81.44L70.5085 84.604C70.3592 87.2733 70.2565 89.4947 70.2005 91.268C70.1632 92.9853 70.1445 94.1613 70.1445 94.796C70.1445 94.9453 70.1538 95.0853 70.1725 95.216V95.608C70.1725 95.9253 70.1072 96.1587 69.9765 96.308C69.8458 96.476 69.6032 96.56 69.2485 96.56C69.0618 96.56 68.8845 96.4853 68.7165 96.336C68.5485 96.2053 68.4645 96.056 68.4645 95.888C68.4645 93.984 68.6045 91.128 68.8845 87.32C69.1645 83.512 69.3045 80.656 69.3045 78.752C69.1925 78.584 69.1365 78.4067 69.1365 78.22C69.1365 77.996 69.2392 77.828 69.4445 77.716C69.6685 77.5853 69.9298 77.52 70.2285 77.52C70.4712 77.52 70.9192 78.3973 71.5725 80.152C72.2258 81.9067 72.8792 83.8947 73.5325 86.116C74.1858 88.3373 74.6058 89.9427 74.7925 90.932C74.9418 90.428 75.0632 89.9613 75.1565 89.532L75.3245 88.86C75.9218 86.2467 76.5192 83.8853 77.1165 81.776C77.4712 80.488 77.8165 79.48 78.1525 78.752C78.4885 77.968 78.7965 77.576 79.0765 77.576C79.3378 77.576 79.5712 77.6507 79.7765 77.8C80.0005 77.9307 80.1125 78.108 80.1125 78.332C80.1125 79.676 80.1685 81.692 80.2805 84.38C80.4112 86.8813 80.4765 88.8227 80.4765 90.204L80.4485 91.688L80.3925 93.172C80.3925 93.396 80.4205 93.732 80.4765 94.18L80.5605 95.16C80.5792 95.328 80.5885 95.4587 80.5885 95.552C80.6072 95.6453 80.6165 95.7013 80.6165 95.72C80.7098 95.9627 80.7565 96.14 80.7565 96.252C80.7565 96.5693 80.6632 96.8493 80.4765 97.092C80.2898 97.3347 80.0658 97.456 79.8045 97.456ZM90.8238 96.476C90.3945 96.476 89.9371 96.0093 89.4518 95.076C88.7238 93.676 88.0051 91.3707 87.2958 88.16C87.0905 87.2827 86.9225 86.4707 86.7918 85.724C86.1198 87.068 85.7838 88.692 85.7838 90.596L85.7838 95.776C85.7838 96.2053 85.5971 96.42 85.2238 96.42C84.9438 96.42 84.7105 96.336 84.5238 96.168C84.3558 96.0187 84.2718 95.804 84.2718 95.524L84.2718 87.04C84.2718 86.2187 84.3651 84.7067 84.5518 82.504C84.7385 80.5813 84.8318 79.0693 84.8318 77.968C84.9811 77.6133 85.2518 77.436 85.6438 77.436C85.8865 77.436 86.0918 77.52 86.2598 77.688C86.4278 77.856 86.5118 78.0613 86.5118 78.304V78.388C86.2691 78.7987 86.1478 80.4973 86.1478 83.484V84.492L87.1838 82.448C87.8185 81.1227 88.4158 79.984 88.9758 79.032C89.4985 78.0987 89.8811 77.632 90.1238 77.632C90.4225 77.632 90.6745 77.6973 90.8798 77.828C91.1038 77.9587 91.2158 78.1453 91.2158 78.388L90.5438 79.508C89.1438 81.7667 88.3598 83.0733 88.1918 83.428C88.1918 83.7453 88.1825 84.0253 88.1638 84.268L88.1358 85.108C88.1358 85.9107 88.4531 87.4133 89.0878 89.616C89.7411 91.8 90.2825 93.2467 90.7118 93.956L91.0758 94.46C91.4305 94.9453 91.6078 95.3747 91.6078 95.748C91.6078 95.9533 91.5238 96.1213 91.3558 96.252C91.2065 96.4013 91.0291 96.476 90.8238 96.476ZM95.4049 95.972C93.7809 95.972 92.9689 95.692 92.9689 95.132C92.9689 94.684 93.2582 94.46 93.8369 94.46H94.1449L94.4249 94.488C94.5742 94.488 94.6769 94.4413 94.7329 94.348C94.7889 94.2547 94.8169 94.0867 94.8169 93.844C94.8169 93.5267 94.7982 93.032 94.7609 92.36C94.7049 91.912 94.6395 91.1093 94.5649 89.952C94.3969 87.096 94.3129 84.94 94.3129 83.484C94.3129 82.9613 94.3222 82.4853 94.3409 82.056L94.3689 80.628C94.3689 80.012 94.3409 79.4987 94.2849 79.088C93.9862 79.1627 93.7715 79.2 93.6409 79.2C93.1929 79.2 92.9689 78.976 92.9689 78.528C92.9689 78.304 93.1089 78.108 93.3889 77.94C93.6689 77.772 94.0235 77.6507 94.4529 77.576C95.1995 77.4267 95.8622 77.352 96.4409 77.352C96.6649 77.352 96.8515 77.436 97.0009 77.604C97.1689 77.7533 97.2529 77.9307 97.2529 78.136C97.2529 78.3413 97.1875 78.5187 97.0569 78.668C96.9449 78.8173 96.7955 78.892 96.6089 78.892C96.4969 78.892 96.4035 78.8827 96.3289 78.864H96.1049C95.9182 78.864 95.7782 78.9107 95.6849 79.004C95.6102 79.0787 95.5729 79.228 95.5729 79.452C95.5729 81.2627 95.6849 83.988 95.9089 87.628C95.9462 88.3 96.0209 89.2893 96.1329 90.596C96.2262 91.4547 96.2729 92.332 96.2729 93.228V94.292C96.3849 94.2733 96.5715 94.264 96.8329 94.264C97.6169 94.264 98.0089 94.5907 98.0089 95.244V95.412L97.3089 95.888C97.2902 95.888 97.2249 95.8973 97.1129 95.916C97.0195 95.916 96.8329 95.916 96.5529 95.916C95.9555 95.9533 95.5729 95.972 95.4049 95.972ZM107.965 96.084C107.741 96.084 107.573 96.028 107.461 95.916C107.349 95.7853 107.265 95.5707 107.209 95.272L107.041 94.74V94.684V94.6C107.041 93.984 106.397 91.884 105.109 88.3C103.84 84.716 102.841 82.0653 102.113 80.348L102.113 94.432L102.225 94.628C102.244 94.6653 102.281 94.7307 102.337 94.824C102.393 94.9173 102.421 95.0107 102.421 95.104C102.421 95.3467 102.337 95.552 102.169 95.72C102.001 95.888 101.796 95.972 101.553 95.972C100.956 95.972 100.657 95.4027 100.657 94.264L100.629 89.476C100.611 88.0387 100.601 86.4333 100.601 84.66C100.601 84.0627 100.629 83.1947 100.685 82.056C100.741 80.88 100.769 80.012 100.769 79.452C100.769 78.5747 101.105 77.884 101.777 77.38V77.548C101.889 77.5107 101.964 77.492 102.001 77.492C102.431 77.492 102.972 78.2387 103.625 79.732C104.148 80.9267 104.615 82.1867 105.025 83.512C105.455 84.8373 106.015 86.7227 106.705 89.168L106.985 90.176C107.415 91.688 107.741 92.7707 107.965 93.424C108.339 89.4107 108.525 84.6693 108.525 79.2V78.836C108.507 78.724 108.497 78.6027 108.497 78.472C108.497 77.912 108.721 77.632 109.169 77.632C109.431 77.632 109.627 77.7347 109.757 77.94C109.907 78.1453 109.981 78.4067 109.981 78.724V80.824C109.944 83.6987 109.832 86.816 109.645 90.176C109.459 93.536 109.235 95.4307 108.973 95.86C108.432 96.0093 108.096 96.084 107.965 96.084ZM120.121 96.364C119.878 96.364 119.654 96.28 119.449 96.112C119.262 95.944 119.16 95.7387 119.141 95.496V94.768V94.208C119.122 94.04 119.113 93.844 119.113 93.62C119.113 93.228 119.085 92.6307 119.029 91.828L118.973 90.036C118.973 89.1213 119.001 87.7587 119.057 85.948C119.132 84.324 119.169 82.9613 119.169 81.86C119.169 81.5987 119.141 81.2067 119.085 80.684C119.029 80.1427 119.001 79.7507 119.001 79.508C119.001 78.1827 119.393 77.52 120.177 77.52C120.793 77.52 121.502 77.6413 122.305 77.884C123.126 78.1267 123.537 78.416 123.537 78.752C123.537 78.9387 123.453 79.116 123.285 79.284C123.136 79.4333 122.949 79.5547 122.725 79.648C121.941 79.368 121.232 79.1813 120.597 79.088C120.616 79.368 120.625 79.7693 120.625 80.292C120.625 81.0387 120.616 81.7107 120.597 82.308C120.541 83.204 120.513 83.876 120.513 84.324L120.597 84.772L121.045 84.744C121.194 84.7253 121.381 84.716 121.605 84.716C122.501 84.716 122.949 84.9773 122.949 85.5C122.949 85.7053 122.865 85.8827 122.697 86.032C122.529 86.1627 122.314 86.228 122.053 86.228C121.717 86.228 121.456 86.2093 121.269 86.172H120.569C120.606 86.6573 120.625 87.3667 120.625 88.3C120.625 89.2333 120.616 90.0733 120.597 90.82C120.541 91.9587 120.513 92.808 120.513 93.368C120.513 94.4133 120.532 94.936 120.569 94.936L121.493 94.908C121.81 94.8893 122.193 94.88 122.641 94.88C123.35 94.88 123.705 95.104 123.705 95.552C123.705 95.8133 123.584 96.0093 123.341 96.14C123.117 96.2893 122.837 96.364 122.501 96.364H120.121ZM127.686 96.168C127.201 96.168 126.958 94.9453 126.958 92.5L127.014 88.076C127.033 86.7693 127.042 85.304 127.042 83.68C127.042 83.0827 126.986 82.1587 126.874 80.908C126.781 79.5453 126.734 78.7147 126.734 78.416C126.734 78.1733 126.837 77.9587 127.042 77.772C127.247 77.5853 127.471 77.492 127.714 77.492C128.367 77.492 128.993 77.6413 129.59 77.94C130.206 78.22 130.747 78.6213 131.214 79.144C132.203 80.2827 132.857 81.5333 133.174 82.896C133.342 83.5867 133.426 84.268 133.426 84.94C133.426 85.1827 133.417 85.4067 133.398 85.612L133.37 86.368V87.908C133.37 89.1027 133.333 90.0453 133.258 90.736C133.146 91.6693 132.931 92.5 132.614 93.228C132.241 94.012 131.699 94.712 130.99 95.328C130.654 95.608 130.225 95.888 129.702 96.168L127.686 96.168ZM128.918 94.74C129.291 94.74 129.637 94.6467 129.954 94.46C130.271 94.2547 130.542 93.984 130.766 93.648C130.953 93.3493 131.121 92.976 131.27 92.528C131.438 92.0613 131.559 91.6133 131.634 91.184C131.802 90.344 131.905 89.4853 131.942 88.608C131.961 88.384 131.97 88.0573 131.97 87.628C131.97 81.9907 130.878 79.0507 128.694 78.808C128.563 79.648 128.498 80.6187 128.498 81.72C128.498 82.896 128.573 84.9493 128.722 87.88C128.853 90.4747 128.918 92.5373 128.918 94.068V94.74ZM137.87 95.972C136.246 95.972 135.434 95.692 135.434 95.132C135.434 94.684 135.723 94.46 136.302 94.46H136.61L136.89 94.488C137.039 94.488 137.142 94.4413 137.198 94.348C137.254 94.2547 137.282 94.0867 137.282 93.844C137.282 93.5267 137.263 93.032 137.226 92.36C137.17 91.912 137.104 91.1093 137.03 89.952C136.862 87.096 136.778 84.94 136.778 83.484C136.778 82.9613 136.787 82.4853 136.806 82.056L136.834 80.628C136.834 80.012 136.806 79.4987 136.75 79.088C136.451 79.1627 136.236 79.2 136.106 79.2C135.658 79.2 135.434 78.976 135.434 78.528C135.434 78.304 135.574 78.108 135.854 77.94C136.134 77.772 136.488 77.6507 136.918 77.576C137.664 77.4267 138.327 77.352 138.906 77.352C139.13 77.352 139.316 77.436 139.466 77.604C139.634 77.7533 139.718 77.9307 139.718 78.136C139.718 78.3413 139.652 78.5187 139.522 78.668C139.41 78.8173 139.26 78.892 139.074 78.892C138.962 78.892 138.868 78.8827 138.794 78.864H138.57C138.383 78.864 138.243 78.9107 138.15 79.004C138.075 79.0787 138.038 79.228 138.038 79.452C138.038 81.2627 138.15 83.988 138.374 87.628C138.411 88.3 138.486 89.2893 138.598 90.596C138.691 91.4547 138.738 92.332 138.738 93.228V94.292C138.85 94.2733 139.036 94.264 139.298 94.264C140.082 94.264 140.474 94.5907 140.474 95.244V95.412L139.774 95.888C139.755 95.888 139.69 95.8973 139.578 95.916C139.484 95.916 139.298 95.916 139.018 95.916C138.42 95.9533 138.038 95.972 137.87 95.972ZM154.07 97.456C153.491 97.456 153.202 96.8773 153.202 95.72V93.928V92.136C153.202 91.2027 153.137 89.98 153.006 88.468C152.857 86.7693 152.782 85.6027 152.782 84.968L152.838 83.232C152.875 82.728 152.894 82.1587 152.894 81.524C152.819 81.7667 152.511 83.0547 151.97 85.388C151.429 87.6467 150.869 89.7373 150.29 91.66C149.73 93.508 149.273 94.432 148.918 94.432C148.563 94.432 148.274 94.3293 148.05 94.124C147.845 93.9 147.742 93.6013 147.742 93.228C147.742 92.4067 147.406 90.6613 146.734 87.992C146.081 85.3227 145.483 83.1387 144.942 81.44L144.774 84.604C144.625 87.2733 144.522 89.4947 144.466 91.268C144.429 92.9853 144.41 94.1613 144.41 94.796C144.41 94.9453 144.419 95.0853 144.438 95.216V95.608C144.438 95.9253 144.373 96.1587 144.242 96.308C144.111 96.476 143.869 96.56 143.514 96.56C143.327 96.56 143.15 96.4853 142.982 96.336C142.814 96.2053 142.73 96.056 142.73 95.888C142.73 93.984 142.87 91.128 143.15 87.32C143.43 83.512 143.57 80.656 143.57 78.752C143.458 78.584 143.402 78.4067 143.402 78.22C143.402 77.996 143.505 77.828 143.71 77.716C143.934 77.5853 144.195 77.52 144.494 77.52C144.737 77.52 145.185 78.3973 145.838 80.152C146.491 81.9067 147.145 83.8947 147.798 86.116C148.451 88.3373 148.871 89.9427 149.058 90.932C149.207 90.428 149.329 89.9613 149.422 89.532L149.59 88.86C150.187 86.2467 150.785 83.8853 151.382 81.776C151.737 80.488 152.082 79.48 152.418 78.752C152.754 77.968 153.062 77.576 153.342 77.576C153.603 77.576 153.837 77.6507 154.042 77.8C154.266 77.9307 154.378 78.108 154.378 78.332C154.378 79.676 154.434 81.692 154.546 84.38C154.677 86.8813 154.742 88.8227 154.742 90.204L154.714 91.688L154.658 93.172C154.658 93.396 154.686 93.732 154.742 94.18L154.826 95.16C154.845 95.328 154.854 95.4587 154.854 95.552C154.873 95.6453 154.882 95.7013 154.882 95.72C154.975 95.9627 155.022 96.14 155.022 96.252C155.022 96.5693 154.929 96.8493 154.742 97.092C154.555 97.3347 154.331 97.456 154.07 97.456ZM159.881 95.972C158.257 95.972 157.445 95.692 157.445 95.132C157.445 94.684 157.735 94.46 158.313 94.46H158.621L158.901 94.488C159.051 94.488 159.153 94.4413 159.209 94.348C159.265 94.2547 159.293 94.0867 159.293 93.844C159.293 93.5267 159.275 93.032 159.237 92.36C159.181 91.912 159.116 91.1093 159.041 89.952C158.873 87.096 158.789 84.94 158.789 83.484C158.789 82.9613 158.799 82.4853 158.817 82.056L158.845 80.628C158.845 80.012 158.817 79.4987 158.761 79.088C158.463 79.1627 158.248 79.2 158.117 79.2C157.669 79.2 157.445 78.976 157.445 78.528C157.445 78.304 157.585 78.108 157.865 77.94C158.145 77.772 158.5 77.6507 158.929 77.576C159.676 77.4267 160.339 77.352 160.917 77.352C161.141 77.352 161.328 77.436 161.477 77.604C161.645 77.7533 161.729 77.9307 161.729 78.136C161.729 78.3413 161.664 78.5187 161.533 78.668C161.421 78.8173 161.272 78.892 161.085 78.892C160.973 78.892 160.88 78.8827 160.805 78.864H160.581C160.395 78.864 160.255 78.9107 160.161 79.004C160.087 79.0787 160.049 79.228 160.049 79.452C160.049 81.2627 160.161 83.988 160.385 87.628C160.423 88.3 160.497 89.2893 160.609 90.596C160.703 91.4547 160.749 92.332 160.749 93.228V94.292C160.861 94.2733 161.048 94.264 161.309 94.264C162.093 94.264 162.485 94.5907 162.485 95.244V95.412L161.785 95.888C161.767 95.888 161.701 95.8973 161.589 95.916C161.496 95.916 161.309 95.916 161.029 95.916C160.432 95.9533 160.049 95.972 159.881 95.972ZM166.646 92.948C166.273 92.948 166.049 92.7427 165.974 92.332C165.974 91.1933 166.058 89.952 166.226 88.608C166.413 87.264 166.674 85.6307 167.01 83.708L167.15 82.896C167.411 81.272 167.542 79.9093 167.542 78.808C167.542 77.072 167.262 76.204 166.702 76.204C166.347 76.204 166.17 76.624 166.17 77.464C166.17 77.6693 166.235 78.1733 166.366 78.976C166.366 78.9947 166.319 79.0507 166.226 79.144C165.909 79.424 165.675 79.564 165.526 79.564C165.003 79.564 164.742 78.9387 164.742 77.688V77.408C164.742 76.9227 164.789 76.512 164.882 76.176C164.994 75.8213 165.19 75.5133 165.47 75.252C165.787 74.9907 166.179 74.86 166.646 74.86C167.057 74.86 167.411 74.9347 167.71 75.084C168.009 75.2333 168.251 75.4387 168.438 75.7C168.737 76.148 168.923 76.8107 168.998 77.688C169.017 77.8933 169.026 78.2573 169.026 78.78C169.026 80.4227 168.746 82.2147 168.186 84.156C167.943 84.9587 167.738 85.976 167.57 87.208C167.402 88.4213 167.318 89.6813 167.318 90.988C167.318 92.0147 167.327 92.64 167.346 92.864C167.01 92.864 166.823 92.8827 166.786 92.92C166.749 92.9387 166.702 92.948 166.646 92.948ZM166.646 96.112C166.366 96.112 166.142 96 165.974 95.776C165.769 95.5893 165.666 95.356 165.666 95.076C165.666 94.8147 165.778 94.572 166.002 94.348C166.226 94.1053 166.478 93.984 166.758 93.984C166.982 93.984 167.206 94.1053 167.43 94.348C167.654 94.5907 167.766 94.824 167.766 95.048C167.766 95.7573 167.393 96.112 166.646 96.112Z" fill="#292D32"/>
<defs>
<filter id="filter0_d_0_3860" x="0" y="0" width="210" height="184" filterUnits="userSpaceOnUse" color-interpolation-filters="sRGB">
<feFlood flood-opacity="0" result="BackgroundImageFix"/>
<feColorMatrix in="SourceAlpha" type="matrix" values="0 0 0 0 0 0 0 0 0 0 0 0 0 0 0 0 0 0 127 0" result="hardAlpha"/>
<feOffset dy="12"/>
<feGaussianBlur stdDeviation="10"/>
<feComposite in2="hardAlpha" operator="out"/>
<feColorMatrix type="matrix" values="0 0 0 0 0 0 0 0 0 0 0 0 0 0 0 0 0 0 0.08 0"/>
<feBlend mode="normal" in2="BackgroundImageFix" result="effect1_dropShadow_0_3860"/>
<feBlend mode="normal" in="SourceGraphic" in2="effect1_dropShadow_0_3860" result="shape"/>
</filter>
</defs>
</svg>
