<svg width="228" height="138" viewBox="0 0 228 138" fill="none" xmlns="http://www.w3.org/2000/svg">
<g filter="url(#filter0_d_0_4254)">
<path d="M42.5692 108H185.431C197.891 108 208 97.8288 208 85.2925V51.6837C208 39.1474 197.891 28.9762 185.431 28.9762H178.655C177.058 23.0095 176.735 15.0178 182.527 8C182.527 8 159.144 13.1784 153.874 28.9762H42.5692C30.1093 28.9762 20 39.1474 20 51.6837V85.2925C20 97.8288 30.1093 108 42.5692 108Z" fill="white"/>
</g>
<path d="M49.744 64.192C49.3387 64.192 48.9867 64.1387 48.688 64.032C48.3253 63.9253 48.144 63.6267 48.144 63.136L48.144 44.544C48.144 44.1813 48.08 43.6373 47.952 42.912C47.8027 42.2507 47.728 41.7067 47.728 41.28V41.184C48.0907 40.5867 48.3573 40.2027 48.528 40.032C48.8267 40.032 49.2213 39.9893 49.712 39.904C50.16 39.8187 50.5547 39.776 50.896 39.776C51.2373 39.776 51.568 39.8827 51.888 40.096C52.208 40.288 52.368 40.5227 52.368 40.8C52.368 41.44 51.8773 41.76 50.896 41.76H50.448C50.32 41.7387 50.1707 41.728 50 41.728C49.808 41.728 49.6907 41.7387 49.648 41.76C49.648 42.4853 49.6907 43.36 49.776 44.384L49.84 45.28L49.904 47.04C49.904 47.4453 49.872 48.064 49.808 48.896L49.744 50.688L50.192 50.592C50.6187 50.464 50.9707 50.4 51.248 50.4C51.4827 50.4 51.696 50.496 51.888 50.688C52.08 50.8587 52.176 51.0613 52.176 51.296C52.176 51.552 52.0907 51.7867 51.92 52C51.7707 52.192 51.5787 52.288 51.344 52.288L50.96 52.256L50.544 52.256C50.224 52.256 50 52.3307 49.872 52.48L49.872 62.368L51.664 62.272C52.88 62.272 53.488 62.5493 53.488 63.104V63.232C53.36 63.488 53.1253 63.7013 52.784 63.872C52.4427 64.0213 52.112 64.1173 51.792 64.16L50.736 64.192H49.744ZM59.3222 63.904C59.3222 61.4507 59.0876 58.912 58.6182 56.288C58.1702 53.664 57.4556 50.4533 56.4742 46.656C56.4316 46.4427 56.3356 46.112 56.1862 45.664C55.8022 44.4693 55.6102 43.712 55.6102 43.392C55.6102 43.2 55.6849 43.0293 55.8342 42.88C56.0049 42.7307 56.1862 42.656 56.3782 42.656C56.6982 42.656 56.9969 42.9227 57.2742 43.456C57.5516 43.968 57.8076 44.6613 58.0422 45.536C58.2769 46.3893 58.5329 47.456 58.8102 48.736C59.0662 49.952 59.3756 51.8187 59.7382 54.336L59.9302 55.584L60.3142 58.432C60.3996 59.2213 60.4742 59.7867 60.5382 60.128C60.9862 57.7813 61.5622 54.3893 62.2662 49.952C62.8422 46.1547 63.2476 43.5627 63.4822 42.176H64.1862C64.3782 42.176 64.5489 42.2507 64.6982 42.4C64.8476 42.528 64.9222 42.688 64.9222 42.88C64.9222 43.648 64.8262 44.48 64.6342 45.376C64.4636 46.2507 64.1969 47.3067 63.8342 48.544C63.5356 49.6107 63.3329 50.4107 63.2262 50.944C63.1409 51.4773 63.0556 52.32 62.9702 53.472C62.7996 56.0533 62.5329 58.368 62.1702 60.416C61.9356 61.6533 61.6262 62.624 61.2422 63.328C60.8582 64.032 60.4209 64.384 59.9302 64.384L59.3222 63.904ZM69.5802 64.416C69.3029 64.416 69.0469 64.32 68.8122 64.128C68.5989 63.936 68.4816 63.7013 68.4602 63.424L68.4602 62.592V61.952C68.4389 61.76 68.4282 61.536 68.4282 61.28C68.4282 60.832 68.3962 60.1493 68.3322 59.232L68.2682 57.184C68.2682 56.1387 68.3002 54.5813 68.3642 52.512C68.4496 50.656 68.4922 49.0987 68.4922 47.84C68.4922 47.5413 68.4602 47.0933 68.3962 46.496C68.3322 45.8773 68.3002 45.4293 68.3002 45.152C68.3002 43.6373 68.7482 42.88 69.6442 42.88C70.3482 42.88 71.1589 43.0187 72.0762 43.296C73.0149 43.5733 73.4842 43.904 73.4842 44.288C73.4842 44.5013 73.3882 44.704 73.1962 44.896C73.0256 45.0667 72.8122 45.2053 72.5562 45.312C71.6602 44.992 70.8496 44.7787 70.1242 44.672C70.1456 44.992 70.1562 45.4507 70.1562 46.048C70.1562 46.9013 70.1456 47.6693 70.1242 48.352C70.0602 49.376 70.0282 50.144 70.0282 50.656L70.1242 51.168L70.6362 51.136C70.8069 51.1147 71.0202 51.104 71.2762 51.104C72.3002 51.104 72.8122 51.4027 72.8122 52C72.8122 52.2347 72.7162 52.4373 72.5242 52.608C72.3322 52.7573 72.0869 52.832 71.7882 52.832C71.4042 52.832 71.1056 52.8107 70.8922 52.768H70.0922C70.1349 53.3227 70.1562 54.1333 70.1562 55.2C70.1562 56.2667 70.1456 57.2267 70.1242 58.08C70.0602 59.3813 70.0282 60.352 70.0282 60.992C70.0282 62.1867 70.0496 62.784 70.0922 62.784L71.1482 62.752C71.5109 62.7307 71.9482 62.72 72.4602 62.72C73.2709 62.72 73.6762 62.976 73.6762 63.488C73.6762 63.7867 73.5376 64.0107 73.2602 64.16C73.0042 64.3307 72.6842 64.416 72.3002 64.416H69.5802ZM85.938 64.096C85.682 64.096 85.49 64.032 85.362 63.904C85.234 63.7547 85.138 63.5093 85.074 63.168L84.882 62.56V62.496V62.4C84.882 61.696 84.146 59.296 82.674 55.2C81.2233 51.104 80.082 48.0747 79.25 46.112L79.25 62.208L79.378 62.432C79.3993 62.4747 79.442 62.5493 79.506 62.656C79.57 62.7627 79.602 62.8693 79.602 62.976C79.602 63.2533 79.506 63.488 79.314 63.68C79.122 63.872 78.8873 63.968 78.61 63.968C77.9273 63.968 77.586 63.3173 77.586 62.016L77.554 56.544C77.5327 54.9013 77.522 53.0667 77.522 51.04C77.522 50.3573 77.554 49.3653 77.618 48.064C77.682 46.72 77.714 45.728 77.714 45.088C77.714 44.0853 78.098 43.296 78.866 42.72V42.912C78.994 42.8693 79.0793 42.848 79.122 42.848C79.6127 42.848 80.2313 43.7013 80.978 45.408C81.5753 46.7733 82.1087 48.2133 82.578 49.728C83.0687 51.2427 83.7087 53.3973 84.498 56.192L84.818 57.344C85.3087 59.072 85.682 60.3093 85.938 61.056C86.3647 56.4693 86.578 51.0507 86.578 44.8V44.384C86.5567 44.256 86.546 44.1173 86.546 43.968C86.546 43.328 86.802 43.008 87.314 43.008C87.6127 43.008 87.8367 43.1253 87.986 43.36C88.1567 43.5947 88.242 43.8933 88.242 44.256L88.242 46.656C88.1993 49.9413 88.0713 53.504 87.858 57.344C87.6447 61.184 87.3887 63.3493 87.09 63.84C86.4713 64.0107 86.0873 64.096 85.938 64.096ZM48.624 96.288C48.304 96.288 47.92 96.128 47.472 95.808C47.6427 94.0373 47.7813 91.3173 47.888 87.648C47.9947 83.8293 48.0693 81.536 48.112 80.768V80C48.1973 77.9093 48.24 76.4587 48.24 75.648C48.24 75.3493 48.3573 75.1147 48.592 74.944C48.848 74.7733 49.136 74.688 49.456 74.688C50.2027 74.688 51.0027 74.752 51.856 74.88C52.4107 74.9653 52.848 75.104 53.168 75.296C53.5093 75.488 53.68 75.7227 53.68 76C53.68 76.5973 53.136 76.896 52.048 76.896C51.6427 76.6827 51.088 76.576 50.384 76.576H50V76.96C50 77.792 49.9573 78.848 49.872 80.128C49.7653 81.3227 49.712 82.4 49.712 83.36V84.224H49.968H50.288C51.3333 84.224 51.856 84.5013 51.856 85.056C51.856 85.3333 51.7387 85.5573 51.504 85.728C51.2907 85.8987 51.024 85.984 50.704 85.984C50.192 85.984 49.776 85.9307 49.456 85.824L49.456 94.88C49.456 95.8187 49.1787 96.288 48.624 96.288ZM59.6022 96.608C59.0476 96.608 58.5356 96.4267 58.0662 96.064C57.5969 95.7227 57.2129 95.2533 56.9142 94.656C56.2956 93.3547 55.9116 91.936 55.7622 90.4C55.5702 88.9493 55.4742 87.552 55.4742 86.208C55.4742 85.952 55.4849 85.7387 55.5062 85.568V84.992C55.5062 84.8853 55.4956 84.832 55.4742 84.832V84.256L55.5062 82.016C55.5276 81.3333 55.6129 80.2453 55.7622 78.752C55.8689 77.728 56.1142 76.736 56.4982 75.776C56.6476 75.3493 56.8396 75.0293 57.0742 74.816C57.3089 74.5813 57.5756 74.464 57.8742 74.464C58.7276 74.464 59.4956 74.624 60.1782 74.944C60.8609 75.2427 61.4369 75.6693 61.9062 76.224C62.3329 76.7573 62.6956 77.4187 62.9942 78.208C63.2929 78.976 63.5062 79.7973 63.6342 80.672C63.7622 81.568 63.8262 82.5173 63.8262 83.52V83.776C63.8262 84.4373 63.8369 85.0347 63.8582 85.568L63.8902 87.392C63.8902 93.536 62.4609 96.608 59.6022 96.608ZM59.4742 95.264C59.8582 95.264 60.2102 95.1147 60.5302 94.816C60.8502 94.496 61.0956 94.0693 61.2662 93.536C61.6716 92.448 61.9169 91.2747 62.0022 90.016C62.1089 88.928 62.1622 87.9893 62.1622 87.2C62.1622 86.24 62.0876 84.9813 61.9382 83.424C61.8102 81.7813 61.7462 80.5547 61.7462 79.744V79.168C61.7036 78.3573 61.4262 77.6533 60.9142 77.056C60.4236 76.4587 59.8156 76.16 59.0902 76.16C58.3649 76.16 57.8849 76.576 57.6502 77.408C57.4369 78.0693 57.3302 78.9227 57.3302 79.968C57.3302 80.3733 57.3409 80.7147 57.3622 80.992V81.856L57.2982 83.328C57.2556 83.776 57.2342 84.2667 57.2342 84.8C57.2342 85.952 57.2662 87.0933 57.3302 88.224C57.4156 89.824 57.6289 91.3813 57.9702 92.896C58.3116 94.4747 58.8129 95.264 59.4742 95.264ZM72.9895 96.544C72.5202 96.544 72.0935 96.032 71.7095 95.008C71.2615 93.8987 70.9308 92.7573 70.7175 91.584L70.4935 90.496C69.8748 87.4453 69.4802 85.7067 69.3095 85.28H68.9255C68.9255 85.8987 68.9148 86.464 68.8935 86.976V88.736C68.8935 91.5947 69.0962 93.824 69.5015 95.424L69.1495 96.288H68.2535L67.8375 95.808L67.8695 93.664C67.8695 91.744 67.7735 88.832 67.5815 84.928C67.4108 80.768 67.3255 77.856 67.3255 76.192C67.3255 75.168 67.6775 74.656 68.3815 74.656C69.5335 74.656 70.4722 74.9547 71.1975 75.552C71.9442 76.1493 72.3175 76.9813 72.3175 78.048V80.288C72.3175 80.608 72.2642 80.9813 72.1575 81.408C72.0508 81.8133 71.9335 82.144 71.8055 82.4L71.1975 83.552L70.6855 84.512L70.8455 85.28L71.2935 87.552C71.5922 89.1947 71.8802 90.528 72.1575 91.552C72.4348 92.576 72.7762 93.504 73.1815 94.336L73.3735 94.72C73.5868 95.1467 73.6935 95.488 73.6935 95.744C73.6935 95.9573 73.6295 96.1387 73.5015 96.288C73.3735 96.4587 73.2028 96.544 72.9895 96.544ZM69.0535 83.712C69.5228 83.4773 69.9175 82.8373 70.2375 81.792C70.5788 80.7253 70.7495 79.744 70.7495 78.848C70.7495 78.1653 70.6642 77.5253 70.4935 76.928C70.3868 76.5867 70.2055 76.3307 69.9495 76.16C69.7148 75.968 69.4162 75.872 69.0535 75.872L68.9895 76.032L68.9255 76.32L68.9895 80.096C69.0322 81.2053 69.0535 82.4107 69.0535 83.712ZM88.9747 96C88.6334 96 88.3774 95.936 88.2067 95.808C88.0574 95.68 87.9827 95.4667 87.9827 95.168V90.976C87.7054 90.784 87.1827 90.6133 86.4147 90.464C85.6467 90.3147 84.9214 90.2187 84.2387 90.176C84.0041 90.624 83.8334 91.168 83.7267 91.808L83.5987 92.448C83.5774 92.5973 83.5134 92.928 83.4067 93.44C83.3001 93.952 83.1827 94.4 83.0547 94.784C82.9267 95.1467 82.7987 95.4347 82.6707 95.648C81.8601 95.648 81.3907 95.4347 81.2627 95.008C81.4974 94.6667 81.7641 93.664 82.0627 92L83.1187 86.144C83.5881 83.3707 84.0147 81.0027 84.3987 79.04C84.8041 77.0773 85.2307 75.4347 85.6787 74.112C86.1694 72.64 86.6387 71.904 87.0867 71.904C87.5347 71.904 87.8761 71.9893 88.1107 72.16C88.1107 73.0133 88.3134 75.072 88.7187 78.336C89.1454 81.536 89.3587 83.7227 89.3587 84.896C89.3587 86.0267 89.4761 87.648 89.7107 89.76C89.9241 91.9147 90.0307 93.632 90.0307 94.912C90.0307 95.6373 89.6787 96 88.9747 96ZM87.3107 89.12C87.4814 89.12 87.6947 89.088 87.9507 89.024C87.8867 88.0853 87.7801 86.9227 87.6307 85.536C87.1401 80.7147 86.8947 77.76 86.8947 76.672V76.416C86.6814 76.6293 86.3827 77.6 85.9987 79.328C85.6361 81.0347 85.2947 82.8693 84.9747 84.832C84.6547 86.7947 84.4841 88.096 84.4627 88.736C85.3587 88.992 86.3081 89.12 87.3107 89.12ZM102.594 96.096C102.338 96.096 102.146 96.032 102.018 95.904C101.89 95.7547 101.794 95.5093 101.73 95.168L101.538 94.56V94.496V94.4C101.538 93.696 100.802 91.296 99.3302 87.2C97.8796 83.104 96.7382 80.0747 95.9062 78.112L95.9062 94.208L96.0342 94.432C96.0556 94.4747 96.0982 94.5493 96.1622 94.656C96.2262 94.7627 96.2582 94.8693 96.2582 94.976C96.2582 95.2533 96.1622 95.488 95.9702 95.68C95.7782 95.872 95.5436 95.968 95.2662 95.968C94.5836 95.968 94.2422 95.3173 94.2422 94.016L94.2102 88.544C94.1889 86.9013 94.1782 85.0667 94.1782 83.04C94.1782 82.3573 94.2102 81.3653 94.2742 80.064C94.3382 78.72 94.3702 77.728 94.3702 77.088C94.3702 76.0853 94.7542 75.296 95.5222 74.72V74.912C95.6502 74.8693 95.7356 74.848 95.7782 74.848C96.2689 74.848 96.8876 75.7013 97.6342 77.408C98.2316 78.7733 98.7649 80.2133 99.2342 81.728C99.7249 83.2427 100.365 85.3973 101.154 88.192L101.474 89.344C101.965 91.072 102.338 92.3093 102.594 93.056C103.021 88.4693 103.234 83.0507 103.234 76.8V76.384C103.213 76.256 103.202 76.1173 103.202 75.968C103.202 75.328 103.458 75.008 103.97 75.008C104.269 75.008 104.493 75.1253 104.642 75.36C104.813 75.5947 104.898 75.8933 104.898 76.256V78.656C104.856 81.9413 104.728 85.504 104.514 89.344C104.301 93.184 104.045 95.3493 103.746 95.84C103.128 96.0107 102.744 96.096 102.594 96.096ZM110.195 96.192C109.64 96.192 109.363 94.7947 109.363 92L109.427 86.944C109.448 85.4507 109.459 83.776 109.459 81.92C109.459 81.2373 109.395 80.1813 109.267 78.752C109.16 77.1947 109.107 76.2453 109.107 75.904C109.107 75.6267 109.224 75.3813 109.459 75.168C109.693 74.9547 109.949 74.848 110.227 74.848C110.973 74.848 111.688 75.0187 112.371 75.36C113.075 75.68 113.693 76.1387 114.227 76.736C115.357 78.0373 116.104 79.4667 116.467 81.024C116.659 81.8133 116.755 82.592 116.755 83.36C116.755 83.6373 116.744 83.8933 116.723 84.128L116.691 84.992V86.752C116.691 88.1173 116.648 89.1947 116.563 89.984C116.435 91.0507 116.189 92 115.827 92.832C115.4 93.728 114.781 94.528 113.971 95.232C113.587 95.552 113.096 95.872 112.499 96.192H110.195ZM111.603 94.56C112.029 94.56 112.424 94.4533 112.787 94.24C113.149 94.0053 113.459 93.696 113.715 93.312C113.928 92.9707 114.12 92.544 114.291 92.032C114.483 91.4987 114.621 90.9867 114.707 90.496C114.899 89.536 115.016 88.5547 115.059 87.552C115.08 87.296 115.091 86.9227 115.091 86.432C115.091 79.9893 113.843 76.6293 111.347 76.352C111.197 77.312 111.123 78.4213 111.123 79.68C111.123 81.024 111.208 83.3707 111.379 86.72C111.528 89.6853 111.603 92.0427 111.603 93.792V94.56ZM125.833 96.544C125.364 96.544 124.937 96.032 124.553 95.008C124.105 93.8987 123.775 92.7573 123.561 91.584L123.337 90.496C122.719 87.4453 122.324 85.7067 122.153 85.28H121.769C121.769 85.8987 121.759 86.464 121.737 86.976V88.736C121.737 91.5947 121.94 93.824 122.345 95.424L121.993 96.288H121.097L120.681 95.808L120.713 93.664C120.713 91.744 120.617 88.832 120.425 84.928C120.255 80.768 120.169 77.856 120.169 76.192C120.169 75.168 120.521 74.656 121.225 74.656C122.377 74.656 123.316 74.9547 124.041 75.552C124.788 76.1493 125.161 76.9813 125.161 78.048V80.288C125.161 80.608 125.108 80.9813 125.001 81.408C124.895 81.8133 124.777 82.144 124.649 82.4L124.041 83.552L123.529 84.512L123.689 85.28L124.137 87.552C124.436 89.1947 124.724 90.528 125.001 91.552C125.279 92.576 125.62 93.504 126.025 94.336L126.217 94.72C126.431 95.1467 126.537 95.488 126.537 95.744C126.537 95.9573 126.473 96.1387 126.345 96.288C126.217 96.4587 126.047 96.544 125.833 96.544ZM121.897 83.712C122.367 83.4773 122.761 82.8373 123.081 81.792C123.423 80.7253 123.593 79.744 123.593 78.848C123.593 78.1653 123.508 77.5253 123.337 76.928C123.231 76.5867 123.049 76.3307 122.793 76.16C122.559 75.968 122.26 75.872 121.897 75.872L121.833 76.032L121.769 76.32L121.833 80.096C121.876 81.2053 121.897 82.4107 121.897 83.712ZM133.415 96.608C132.86 96.608 132.348 96.4267 131.879 96.064C131.409 95.7227 131.025 95.2533 130.727 94.656C130.108 93.3547 129.724 91.936 129.575 90.4C129.383 88.9493 129.287 87.552 129.287 86.208C129.287 85.952 129.297 85.7387 129.319 85.568V84.992C129.319 84.8853 129.308 84.832 129.287 84.832V84.256L129.319 82.016C129.34 81.3333 129.425 80.2453 129.575 78.752C129.681 77.728 129.927 76.736 130.311 75.776C130.46 75.3493 130.652 75.0293 130.887 74.816C131.121 74.5813 131.388 74.464 131.687 74.464C132.54 74.464 133.308 74.624 133.991 74.944C134.673 75.2427 135.249 75.6693 135.719 76.224C136.145 76.7573 136.508 77.4187 136.807 78.208C137.105 78.976 137.319 79.7973 137.447 80.672C137.575 81.568 137.639 82.5173 137.639 83.52V83.776C137.639 84.4373 137.649 85.0347 137.671 85.568L137.703 87.392C137.703 93.536 136.273 96.608 133.415 96.608ZM133.287 95.264C133.671 95.264 134.023 95.1147 134.343 94.816C134.663 94.496 134.908 94.0693 135.079 93.536C135.484 92.448 135.729 91.2747 135.815 90.016C135.921 88.928 135.975 87.9893 135.975 87.2C135.975 86.24 135.9 84.9813 135.751 83.424C135.623 81.7813 135.559 80.5547 135.559 79.744V79.168C135.516 78.3573 135.239 77.6533 134.727 77.056C134.236 76.4587 133.628 76.16 132.903 76.16C132.177 76.16 131.697 76.576 131.463 77.408C131.249 78.0693 131.143 78.9227 131.143 79.968C131.143 80.3733 131.153 80.7147 131.175 80.992V81.856L131.111 83.328C131.068 83.776 131.047 84.2667 131.047 84.8C131.047 85.952 131.079 87.0933 131.143 88.224C131.228 89.824 131.441 91.3813 131.783 92.896C132.124 94.4747 132.625 95.264 133.287 95.264ZM142.802 95.968C140.946 95.968 140.018 95.648 140.018 95.008C140.018 94.496 140.349 94.24 141.01 94.24H141.362L141.682 94.272C141.853 94.272 141.97 94.2187 142.034 94.112C142.098 94.0053 142.13 93.8133 142.13 93.536C142.13 93.1733 142.109 92.608 142.066 91.84C142.002 91.328 141.927 90.4107 141.842 89.088C141.65 85.824 141.554 83.36 141.554 81.696C141.554 81.0987 141.565 80.5547 141.586 80.064L141.618 78.432C141.618 77.728 141.586 77.1413 141.522 76.672C141.181 76.7573 140.935 76.8 140.786 76.8C140.274 76.8 140.018 76.544 140.018 76.032C140.018 75.776 140.178 75.552 140.498 75.36C140.818 75.168 141.223 75.0293 141.714 74.944C142.567 74.7733 143.325 74.688 143.986 74.688C144.242 74.688 144.455 74.784 144.626 74.976C144.818 75.1467 144.914 75.3493 144.914 75.584C144.914 75.8187 144.839 76.0213 144.69 76.192C144.562 76.3627 144.391 76.448 144.178 76.448C144.05 76.448 143.943 76.4373 143.858 76.416H143.602C143.389 76.416 143.229 76.4693 143.122 76.576C143.037 76.6613 142.994 76.832 142.994 77.088C142.994 79.1573 143.122 82.272 143.378 86.432C143.421 87.2 143.506 88.3307 143.634 89.824C143.741 90.8053 143.794 91.808 143.794 92.832V94.048C143.922 94.0267 144.135 94.016 144.434 94.016C145.33 94.016 145.778 94.3893 145.778 95.136V95.328L144.978 95.872C144.957 95.872 144.882 95.8827 144.754 95.904C144.647 95.904 144.434 95.904 144.114 95.904C143.431 95.9467 142.994 95.968 142.802 95.968ZM149.445 96.192C148.89 96.192 148.613 94.7947 148.613 92L148.677 86.944C148.698 85.4507 148.709 83.776 148.709 81.92C148.709 81.2373 148.645 80.1813 148.517 78.752C148.41 77.1947 148.357 76.2453 148.357 75.904C148.357 75.6267 148.474 75.3813 148.709 75.168C148.943 74.9547 149.199 74.848 149.477 74.848C150.223 74.848 150.938 75.0187 151.621 75.36C152.325 75.68 152.943 76.1387 153.477 76.736C154.607 78.0373 155.354 79.4667 155.717 81.024C155.909 81.8133 156.005 82.592 156.005 83.36C156.005 83.6373 155.994 83.8933 155.973 84.128L155.941 84.992V86.752C155.941 88.1173 155.898 89.1947 155.813 89.984C155.685 91.0507 155.439 92 155.077 92.832C154.65 93.728 154.031 94.528 153.221 95.232C152.837 95.552 152.346 95.872 151.749 96.192H149.445ZM150.853 94.56C151.279 94.56 151.674 94.4533 152.037 94.24C152.399 94.0053 152.709 93.696 152.965 93.312C153.178 92.9707 153.37 92.544 153.541 92.032C153.733 91.4987 153.871 90.9867 153.957 90.496C154.149 89.536 154.266 88.5547 154.309 87.552C154.33 87.296 154.341 86.9227 154.341 86.432C154.341 79.9893 153.093 76.6293 150.597 76.352C150.447 77.312 150.373 78.4213 150.373 79.68C150.373 81.024 150.458 83.3707 150.629 86.72C150.778 89.6853 150.853 92.0427 150.853 93.792V94.56ZM161.595 92.512C161.169 92.512 160.913 92.2773 160.827 91.808C160.827 90.5067 160.923 89.088 161.115 87.552C161.329 86.016 161.627 84.1493 162.011 81.952L162.171 81.024C162.47 79.168 162.619 77.6107 162.619 76.352C162.619 74.368 162.299 73.376 161.659 73.376C161.254 73.376 161.051 73.856 161.051 74.816C161.051 75.0507 161.126 75.6267 161.275 76.544C161.275 76.5653 161.222 76.6293 161.115 76.736C160.753 77.056 160.486 77.216 160.315 77.216C159.718 77.216 159.419 76.5013 159.419 75.072V74.752C159.419 74.1973 159.473 73.728 159.579 73.344C159.707 72.9387 159.931 72.5867 160.251 72.288C160.614 71.9893 161.062 71.84 161.595 71.84C162.065 71.84 162.47 71.9253 162.811 72.096C163.153 72.2667 163.43 72.5013 163.643 72.8C163.985 73.312 164.198 74.0693 164.283 75.072C164.305 75.3067 164.315 75.7227 164.315 76.32C164.315 78.1973 163.995 80.2453 163.355 82.464C163.078 83.3813 162.843 84.544 162.651 85.952C162.459 87.3387 162.363 88.7787 162.363 90.272C162.363 91.4453 162.374 92.16 162.395 92.416C162.011 92.416 161.798 92.4373 161.755 92.48C161.713 92.5013 161.659 92.512 161.595 92.512ZM161.595 96.128C161.275 96.128 161.019 96 160.827 95.744C160.593 95.5307 160.475 95.264 160.475 94.944C160.475 94.6453 160.603 94.368 160.859 94.112C161.115 93.8347 161.403 93.696 161.723 93.696C161.979 93.696 162.235 93.8347 162.491 94.112C162.747 94.3893 162.875 94.656 162.875 94.912C162.875 95.7227 162.449 96.128 161.595 96.128ZM169.551 91.232C169.338 91.232 169.135 90.9653 168.943 90.432C168.751 89.8773 168.655 89.056 168.655 87.968C168.655 87.584 168.677 86.8587 168.719 85.792C168.762 85.0027 168.783 84.128 168.783 83.168L168.719 77.92L168.655 72.672C168.655 72.3307 168.794 72.0427 169.071 71.808C169.349 71.552 169.658 71.424 169.999 71.424C170.213 71.424 170.394 71.4987 170.543 71.648C170.693 71.7973 170.767 71.9893 170.767 72.224C170.767 74.1013 170.661 76.6507 170.447 79.872C170.213 83.4347 170.095 85.984 170.095 87.52C170.095 88.6507 170.074 89.472 170.031 89.984C170.01 90.4747 169.957 90.8053 169.871 90.976C169.807 91.1467 169.701 91.232 169.551 91.232ZM168.975 96.704C168.719 96.704 168.474 96.5867 168.239 96.352C168.026 96.1173 167.919 95.8293 167.919 95.488C167.919 95.104 168.047 94.7733 168.303 94.496C168.559 94.1973 168.869 94.048 169.231 94.048C169.615 94.048 169.925 94.1973 170.159 94.496C170.415 94.7733 170.543 95.136 170.543 95.584C170.543 96.3307 170.021 96.704 168.975 96.704Z" fill="#292D32"/>
<defs>
<filter id="filter0_d_0_4254" x="0" y="0" width="228" height="140" filterUnits="userSpaceOnUse" color-interpolation-filters="sRGB">
<feFlood flood-opacity="0" result="BackgroundImageFix"/>
<feColorMatrix in="SourceAlpha" type="matrix" values="0 0 0 0 0 0 0 0 0 0 0 0 0 0 0 0 0 0 127 0" result="hardAlpha"/>
<feOffset dy="12"/>
<feGaussianBlur stdDeviation="10"/>
<feComposite in2="hardAlpha" operator="out"/>
<feColorMatrix type="matrix" values="0 0 0 0 0 0 0 0 0 0 0 0 0 0 0 0 0 0 0.08 0"/>
<feBlend mode="normal" in2="BackgroundImageFix" result="effect1_dropShadow_0_4254"/>
<feBlend mode="normal" in="SourceGraphic" in2="effect1_dropShadow_0_4254" result="shape"/>
</filter>
</defs>
</svg>
