<svg width="176" height="146" viewBox="0 0 176 146" fill="none" xmlns="http://www.w3.org/2000/svg">
<g filter="url(#filter0_d_0_4251)">
<path d="M150.538 60.4955C168.755 30.6922 137.727 7.65061 111.502 8.00401C92.2563 8.26317 72.7147 7.19119 53.599 9.87702C30.7336 13.1047 19.354 25.3323 20.0283 48.6331C20.5606 66.9509 29.4324 89.215 46.4307 98.7214C64.8721 109.029 85.7267 107.804 104.511 99.8994C110.154 105.401 120.764 113.058 136.757 114C136.757 114 128.713 100.017 128.441 85.4336C137.325 78.2243 144.943 69.6367 150.526 60.4955H150.538Z" fill="white"/>
</g>
<path d="M42.108 64.056C41.7347 64.056 41.408 63.972 41.128 63.804C40.8667 63.636 40.736 63.4027 40.736 63.104C41.1467 62.6933 41.352 61.6013 41.352 59.828C41.352 58.764 41.268 57.2147 41.1 55.18C40.9133 53.2387 40.82 51.708 40.82 50.588L40.876 49.048C40.8947 48.6 40.904 48.0867 40.904 47.508C40.904 46.9853 40.8107 46.3227 40.624 45.52C40.4 44.68 40.288 44.092 40.288 43.756C40.288 43.1027 41.0067 42.776 42.444 42.776H42.864C43.872 42.776 44.7493 43.084 45.496 43.7C46.0933 44.2227 46.5973 44.9787 47.008 45.968C47.288 46.64 47.5307 47.5733 47.736 48.768C47.848 49.8133 47.904 50.6347 47.904 51.232L47.904 52.128V53.444C47.8667 53.5187 47.848 53.5933 47.848 53.668C47.848 53.8173 47.8573 53.9293 47.876 54.004C47.8947 54.0787 47.904 54.172 47.904 54.284C47.904 54.8813 47.8107 55.6 47.624 56.44C47.456 57.2613 47.204 58.1013 46.868 58.96C46.028 61.0133 45.0853 62.4693 44.04 63.328C43.424 63.8133 42.78 64.056 42.108 64.056ZM42.696 62.432C43.3867 62.0027 43.9933 61.3867 44.516 60.584C45.0387 59.7627 45.44 58.8573 45.72 57.868C46.224 56.0387 46.476 54.1907 46.476 52.324C46.476 51.316 46.3827 50.2147 46.196 49.02C45.9907 47.8627 45.552 46.8173 44.88 45.884C44.5627 45.436 44.1613 45.0907 43.676 44.848C43.1907 44.5867 42.64 44.456 42.024 44.456V44.484C42.024 46.164 42.136 48.7027 42.36 52.1C42.584 55.4787 42.696 58.036 42.696 59.772V62.432ZM54.5934 64.532C54.108 64.532 53.66 64.3733 53.2494 64.056C52.8387 63.7573 52.5027 63.3467 52.2414 62.824C51.7 61.6853 51.364 60.444 51.2334 59.1C51.0654 57.8307 50.9814 56.608 50.9814 55.432C50.9814 55.208 50.9907 55.0213 51.0094 54.872V54.368C51.0094 54.2747 51 54.228 50.9814 54.228V53.724L51.0094 51.764C51.028 51.1667 51.1027 50.2147 51.2334 48.908C51.3267 48.012 51.5414 47.144 51.8774 46.304C52.008 45.9307 52.176 45.6507 52.3814 45.464C52.5867 45.2587 52.82 45.156 53.0814 45.156C53.828 45.156 54.5 45.296 55.0974 45.576C55.6947 45.8373 56.1987 46.2107 56.6094 46.696C56.9827 47.1627 57.3 47.7413 57.5614 48.432C57.8227 49.104 58.0094 49.8227 58.1214 50.588C58.2334 51.372 58.2894 52.2027 58.2894 53.08V53.304C58.2894 53.8827 58.2987 54.4053 58.3174 54.872L58.3454 56.468C58.3454 61.844 57.0947 64.532 54.5934 64.532ZM54.4814 63.356C54.8174 63.356 55.1254 63.2253 55.4054 62.964C55.6854 62.684 55.9 62.3107 56.0494 61.844C56.404 60.892 56.6187 59.8653 56.6934 58.764C56.7867 57.812 56.8334 56.9907 56.8334 56.3C56.8334 55.46 56.768 54.3587 56.6374 52.996C56.5254 51.5587 56.4694 50.4853 56.4694 49.776L56.4694 49.272C56.432 48.5627 56.1894 47.9467 55.7414 47.424C55.312 46.9013 54.78 46.64 54.1454 46.64C53.5107 46.64 53.0907 47.004 52.8854 47.732C52.6987 48.3107 52.6054 49.0573 52.6054 49.972C52.6054 50.3267 52.6147 50.6253 52.6334 50.868V51.624L52.5774 52.912C52.54 53.304 52.5214 53.7333 52.5214 54.2C52.5214 55.208 52.5494 56.2067 52.6054 57.196C52.68 58.596 52.8667 59.9587 53.1654 61.284C53.464 62.6653 53.9027 63.356 54.4814 63.356ZM67.9205 63.972C66.2965 63.972 65.4845 63.692 65.4845 63.132C65.4845 62.684 65.7738 62.46 66.3525 62.46H66.6605L66.9405 62.488C67.0898 62.488 67.1925 62.4413 67.2485 62.348C67.3045 62.2547 67.3325 62.0867 67.3325 61.844C67.3325 61.5267 67.3138 61.032 67.2765 60.36C67.2205 59.912 67.1552 59.1093 67.0805 57.952C66.9125 55.096 66.8285 52.94 66.8285 51.484C66.8285 50.9613 66.8378 50.4853 66.8565 50.056L66.8845 48.628C66.8845 48.012 66.8565 47.4987 66.8005 47.088C66.5018 47.1627 66.2872 47.2 66.1565 47.2C65.7085 47.2 65.4845 46.976 65.4845 46.528C65.4845 46.304 65.6245 46.108 65.9045 45.94C66.1845 45.772 66.5392 45.6507 66.9685 45.576C67.7152 45.4267 68.3778 45.352 68.9565 45.352C69.1805 45.352 69.3672 45.436 69.5165 45.604C69.6845 45.7533 69.7685 45.9307 69.7685 46.136C69.7685 46.3413 69.7032 46.5187 69.5725 46.668C69.4605 46.8173 69.3112 46.892 69.1245 46.892C69.0125 46.892 68.9192 46.8827 68.8445 46.864H68.6205C68.4338 46.864 68.2938 46.9107 68.2005 47.004C68.1258 47.0787 68.0885 47.228 68.0885 47.452C68.0885 49.2627 68.2005 51.988 68.4245 55.628C68.4618 56.3 68.5365 57.2893 68.6485 58.596C68.7418 59.4547 68.7885 60.332 68.7885 61.228V62.292C68.9005 62.2733 69.0872 62.264 69.3485 62.264C70.1325 62.264 70.5245 62.5907 70.5245 63.244V63.412L69.8245 63.888C69.8058 63.888 69.7405 63.8973 69.6285 63.916C69.5352 63.916 69.3485 63.916 69.0685 63.916C68.4712 63.9533 68.0885 63.972 67.9205 63.972ZM80.4809 64.084C80.2569 64.084 80.0889 64.028 79.9769 63.916C79.8649 63.7853 79.7809 63.5707 79.7249 63.272L79.5569 62.74V62.684V62.6C79.5569 61.984 78.9129 59.884 77.6249 56.3C76.3556 52.716 75.3569 50.0653 74.6289 48.348L74.6289 62.432L74.7409 62.628C74.7596 62.6653 74.7969 62.7307 74.8529 62.824C74.9089 62.9173 74.9369 63.0107 74.9369 63.104C74.9369 63.3467 74.8529 63.552 74.6849 63.72C74.5169 63.888 74.3116 63.972 74.0689 63.972C73.4716 63.972 73.1729 63.4027 73.1729 62.264L73.1449 57.476C73.1262 56.0387 73.1169 54.4333 73.1169 52.66C73.1169 52.0627 73.1449 51.1947 73.2009 50.056C73.2569 48.88 73.2849 48.012 73.2849 47.452C73.2849 46.5747 73.6209 45.884 74.2929 45.38V45.548C74.4049 45.5107 74.4796 45.492 74.5169 45.492C74.9462 45.492 75.4876 46.2387 76.1409 47.732C76.6636 48.9267 77.1302 50.1867 77.5409 51.512C77.9702 52.8373 78.5302 54.7227 79.2209 57.168L79.5009 58.176C79.9302 59.688 80.2569 60.7707 80.4809 61.424C80.8542 57.4107 81.0409 52.6693 81.0409 47.2V46.836C81.0222 46.724 81.0129 46.6027 81.0129 46.472C81.0129 45.912 81.2369 45.632 81.6849 45.632C81.9462 45.632 82.1422 45.7347 82.2729 45.94C82.4222 46.1453 82.4969 46.4067 82.4969 46.724L82.4969 48.824C82.4596 51.6987 82.3476 54.816 82.1609 58.176C81.9742 61.536 81.7502 63.4307 81.4889 63.86C80.9476 64.0093 80.6116 64.084 80.4809 64.084ZM86.7393 64.392C86.4033 64.336 86.114 64.2147 85.8713 64.028C85.6473 63.8413 85.5167 63.5987 85.4793 63.3L85.7873 62.824C85.8993 62.824 86.0767 62.8613 86.3193 62.936C86.5993 62.992 86.814 63.02 86.9633 63.02C87.2993 63.02 87.598 62.8707 87.8593 62.572C88.1393 62.2733 88.3447 61.8813 88.4753 61.396C88.718 60.5 88.8393 59.6973 88.8393 58.988C88.8393 57.756 88.4473 56.4587 87.6633 55.096L87.3553 54.564C87.0007 53.948 86.702 53.3973 86.4593 52.912C86.2167 52.4267 86.0113 51.904 85.8433 51.344C85.6193 50.616 85.5073 49.888 85.5073 49.16C85.5073 48.3387 85.694 47.48 86.0673 46.584C86.254 46.1547 86.5153 45.8093 86.8513 45.548C87.206 45.268 87.598 45.128 88.0273 45.128C88.3633 45.128 88.6713 45.24 88.9513 45.464C89.25 45.6693 89.3993 45.9213 89.3993 46.22C89.3993 46.388 89.334 46.5187 89.2033 46.612C89.0727 46.7053 88.914 46.752 88.7273 46.752C88.522 46.752 88.326 46.696 88.1393 46.584C87.7287 46.6027 87.402 46.9667 87.1593 47.676C86.954 48.3293 86.8513 48.8707 86.8513 49.3C86.8513 49.8413 86.9353 50.392 87.1033 50.952C87.2713 51.4933 87.486 51.988 87.7473 52.436L88.3633 53.556L89.3433 55.404C89.6047 55.9267 89.81 56.5333 89.9593 57.224C90.1273 57.9147 90.2113 58.6147 90.2113 59.324C90.2113 60.4627 89.95 61.5453 89.4273 62.572C89.166 63.0947 88.7927 63.5147 88.3073 63.832C87.8407 64.1493 87.318 64.308 86.7393 64.308V64.392ZM94.7213 63.552L94.6933 62.46C94.6746 62.1427 94.6653 61.788 94.6653 61.396L94.6933 60.444C94.6373 60.2387 94.4973 58.1947 94.2733 54.312C94.0493 50.4293 93.9186 47.9373 93.8813 46.836C92.7986 46.7987 92.108 46.6867 91.8093 46.5C91.604 46.3507 91.5013 46.1827 91.5013 45.996C91.5013 45.8467 91.5946 45.716 91.7813 45.604C91.9866 45.4733 92.192 45.408 92.3973 45.408C92.92 45.408 93.5546 45.4453 94.3013 45.52C95.0106 45.6133 95.6453 45.66 96.2053 45.66H96.4293H96.6533C97.232 45.66 97.5213 45.884 97.5213 46.332C97.5213 46.556 97.428 46.7427 97.2413 46.892C97.0546 47.0227 96.84 47.088 96.5973 47.088C96.4293 47.088 96.1866 47.06 95.8693 47.004L95.3093 46.892L95.2813 47.032L95.2533 47.172C95.2533 48.8333 95.412 51.484 95.7293 55.124C96.028 58.54 96.1773 61.1907 96.1773 63.076C96.1773 63.3 96.0746 63.496 95.8693 63.664C95.6826 63.832 95.468 63.916 95.2253 63.916L94.7213 63.552ZM105.833 64.252C105.404 64.252 105.087 64.1867 104.881 64.056C104.676 63.9253 104.573 63.6827 104.573 63.328C104.573 62.768 104.48 61.816 104.293 60.472L104.181 59.884L101.409 59.464C101.297 59.8933 101.139 60.7613 100.933 62.068C100.821 62.9827 100.644 63.5893 100.401 63.888C100.271 64.056 100.084 64.14 99.8414 64.14C99.6174 64.14 99.412 64.0747 99.2254 63.944C99.0387 63.7947 98.9454 63.6173 98.9454 63.412L99.0014 63.272L99.0294 63.16C100.261 58.3627 101.195 53.6307 101.829 48.964C101.829 48.8893 101.839 48.768 101.857 48.6C101.876 48.4133 101.895 48.152 101.913 47.816C101.969 47.1253 102.025 46.5747 102.081 46.164C102.156 45.7533 102.268 45.4453 102.417 45.24H103.369C103.631 45.24 103.855 45.3053 104.041 45.436C104.228 45.548 104.321 45.716 104.321 45.94C104.321 47.3587 104.517 49.468 104.909 52.268C105.283 55.1427 105.469 57.1587 105.469 58.316C105.469 58.428 105.516 58.7173 105.609 59.184C105.703 59.6133 105.749 59.8933 105.749 60.024C105.749 60.1547 105.843 60.7147 106.029 61.704C106.197 62.6 106.281 63.1787 106.281 63.44V63.468C106.281 63.8787 106.132 64.14 105.833 64.252ZM103.985 58.876C103.929 58.596 103.901 58.2507 103.901 57.84C103.901 56.16 103.752 54.0133 103.453 51.4L103.173 48.488C102.371 52.8747 101.82 56.188 101.521 58.428C101.801 58.6147 102.623 58.764 103.985 58.876ZM112.997 64.448C112.325 64.224 111.494 64.112 110.505 64.112C110.206 64.2987 109.889 64.392 109.553 64.392C109.329 64.392 109.133 64.2893 108.965 64.084C108.815 63.8973 108.741 63.692 108.741 63.468C108.741 61.9 108.806 59.8093 108.937 57.196C109.049 54.4147 109.105 52.3333 109.105 50.952V50.756C108.993 49.58 108.937 48.7027 108.937 48.124C108.937 46.3507 109.263 45.464 109.917 45.464C110.103 45.464 110.262 45.5387 110.393 45.688C110.542 45.8187 110.617 45.9773 110.617 46.164C110.617 46.388 110.589 46.7427 110.533 47.228C110.477 47.6947 110.449 48.0493 110.449 48.292C110.449 49.5427 110.458 50.672 110.477 51.68C110.495 52.6693 110.505 53.7893 110.505 55.04C110.411 55.32 110.365 55.712 110.365 56.216V56.552L110.309 58.764C110.271 59.4173 110.253 60.164 110.253 61.004C110.253 62.292 110.561 62.936 111.177 62.936C111.214 62.936 111.27 62.936 111.345 62.936C111.438 62.9173 111.559 62.908 111.709 62.908C111.877 62.8893 112.091 62.88 112.353 62.88C113.361 62.88 113.865 63.16 113.865 63.72C113.865 63.9067 113.781 64.0653 113.613 64.196C113.445 64.3267 113.239 64.4107 112.997 64.448ZM120.489 64.448C119.817 64.224 118.986 64.112 117.997 64.112C117.698 64.2987 117.381 64.392 117.045 64.392C116.821 64.392 116.625 64.2893 116.457 64.084C116.307 63.8973 116.233 63.692 116.233 63.468C116.233 61.9 116.298 59.8093 116.429 57.196C116.541 54.4147 116.597 52.3333 116.597 50.952V50.756C116.485 49.58 116.429 48.7027 116.429 48.124C116.429 46.3507 116.755 45.464 117.409 45.464C117.595 45.464 117.754 45.5387 117.885 45.688C118.034 45.8187 118.109 45.9773 118.109 46.164C118.109 46.388 118.081 46.7427 118.025 47.228C117.969 47.6947 117.941 48.0493 117.941 48.292C117.941 49.5427 117.95 50.672 117.969 51.68C117.987 52.6693 117.997 53.7893 117.997 55.04C117.903 55.32 117.857 55.712 117.857 56.216V56.552L117.801 58.764C117.763 59.4173 117.745 60.164 117.745 61.004C117.745 62.292 118.053 62.936 118.669 62.936C118.706 62.936 118.762 62.936 118.837 62.936C118.93 62.9173 119.051 62.908 119.201 62.908C119.369 62.8893 119.583 62.88 119.845 62.88C120.853 62.88 121.357 63.16 121.357 63.72C121.357 63.9067 121.273 64.0653 121.105 64.196C120.937 64.3267 120.731 64.4107 120.489 64.448ZM125.041 59.828C124.854 59.828 124.677 59.5947 124.509 59.128C124.341 58.6427 124.257 57.924 124.257 56.972C124.257 56.636 124.276 56.0013 124.313 55.068C124.35 54.3773 124.369 53.612 124.369 52.772L124.313 48.18L124.257 43.588C124.257 43.2893 124.378 43.0373 124.621 42.832C124.864 42.608 125.134 42.496 125.433 42.496C125.62 42.496 125.778 42.5613 125.909 42.692C126.04 42.8227 126.105 42.9907 126.105 43.196C126.105 44.8387 126.012 47.0693 125.825 49.888C125.62 53.0053 125.517 55.236 125.517 56.58C125.517 57.5693 125.498 58.288 125.461 58.736C125.442 59.1653 125.396 59.4547 125.321 59.604C125.265 59.7533 125.172 59.828 125.041 59.828ZM124.537 64.616C124.313 64.616 124.098 64.5133 123.893 64.308C123.706 64.1027 123.613 63.8507 123.613 63.552C123.613 63.216 123.725 62.9267 123.949 62.684C124.173 62.4227 124.444 62.292 124.761 62.292C125.097 62.292 125.368 62.4227 125.573 62.684C125.797 62.9267 125.909 63.244 125.909 63.636C125.909 64.2893 125.452 64.616 124.537 64.616Z" fill="#292D32"/>
<defs>
<filter id="filter0_d_0_4251" x="0" y="0" width="176" height="146" filterUnits="userSpaceOnUse" color-interpolation-filters="sRGB">
<feFlood flood-opacity="0" result="BackgroundImageFix"/>
<feColorMatrix in="SourceAlpha" type="matrix" values="0 0 0 0 0 0 0 0 0 0 0 0 0 0 0 0 0 0 127 0" result="hardAlpha"/>
<feOffset dy="12"/>
<feGaussianBlur stdDeviation="10"/>
<feComposite in2="hardAlpha" operator="out"/>
<feColorMatrix type="matrix" values="0 0 0 0 0 0 0 0 0 0 0 0 0 0 0 0 0 0 0.08 0"/>
<feBlend mode="normal" in2="BackgroundImageFix" result="effect1_dropShadow_0_4251"/>
<feBlend mode="normal" in="SourceGraphic" in2="effect1_dropShadow_0_4251" result="shape"/>
</filter>
</defs>
</svg>
