<svg width="196" height="161" viewBox="0 0 196 161" fill="none" xmlns="http://www.w3.org/2000/svg">
<g filter="url(#filter0_d_0_2685)">
<path d="M50.5703 16.1283L116.703 8.28483C133.229 7.1035 158.033 9.06781 169.835 24.3839C182.822 42.0488 173.375 89.1645 159.203 102.118C155.003 105.95 148.613 108.231 141.231 109.549C140.914 116.211 142.264 124.728 150.031 129C150.031 129 124.608 128.148 114.954 111.17C104.432 111.033 94.3375 110.36 87.1623 110.36C63.5434 110.36 32.832 107.997 23.3982 80.909C13.9507 56.1698 24.5826 23.1888 50.5565 16.1283H50.5703Z" fill="white"/>
</g>
<path d="M47.544 58.448C47.0213 58.448 46.536 58.3267 46.088 58.084C45.6587 57.8413 45.2853 57.5147 44.968 57.104C44.688 56.712 44.436 56.2173 44.212 55.62C43.988 55.004 43.82 54.3693 43.708 53.716C43.484 52.6147 43.3347 51.168 43.26 49.376C43.2413 48.9467 43.232 48.2093 43.232 47.164L43.232 45.4C43.2507 44.896 43.26 44.3733 43.26 43.832C43.26 42.7307 43.3253 41.8627 43.456 41.228C43.4 40.948 43.372 40.6587 43.372 40.36C43.372 39.24 43.792 38.3347 44.632 37.644C45.472 36.9533 46.536 36.608 47.824 36.608C48.3093 36.608 48.7573 36.7387 49.168 37C49.5787 37.2613 49.784 37.588 49.784 37.98C49.784 38.1667 49.7093 38.316 49.56 38.428C49.4107 38.54 49.224 38.596 49 38.596C48.8133 38.596 48.608 38.568 48.384 38.512C48.1787 38.456 48.048 38.372 47.992 38.26H47.628V38.204C46.9373 38.204 46.3587 38.3533 45.892 38.652C45.556 38.8947 45.2947 39.296 45.108 39.856C45.0333 40.0613 44.9773 40.3227 44.94 40.64C44.9027 40.9573 44.884 41.2467 44.884 41.508C44.8653 41.6573 44.856 41.956 44.856 42.404L44.912 43.384L44.94 44.336C44.94 44.616 44.9027 44.9427 44.828 45.316C44.7347 45.7827 44.688 46.1093 44.688 46.296V46.968C44.688 47.696 44.716 48.6947 44.772 49.964C44.7907 51.028 44.912 52.092 45.136 53.156C45.304 54.1453 45.6213 54.9853 46.088 55.676C46.536 56.3853 47.1427 56.74 47.908 56.74C48.2253 56.74 48.6173 56.572 49.084 56.236C49.588 55.9 49.9427 55.732 50.148 55.732C50.4093 55.732 50.68 55.872 50.96 56.152C50.96 56.8427 50.6987 57.3747 50.176 57.748C49.6907 58.084 49.112 58.2987 48.44 58.392C48.0667 58.4293 47.768 58.448 47.544 58.448ZM54.2896 58.056C54.2149 58.0373 54.0936 58.0187 53.9256 58C53.7576 57.9813 53.6176 57.9347 53.5056 57.86C53.2256 57.6733 53.1136 57.356 53.1696 56.908L53.1976 56.292C53.2723 55.284 53.3096 54.528 53.3096 54.024C53.3096 51.0933 53.2816 48.144 53.2256 45.176C53.2256 43.6453 53.1789 42.0213 53.0856 40.304C53.0669 40.0053 53.1323 39.7533 53.2816 39.548C53.4496 39.3427 53.6549 39.24 53.8976 39.24C54.1216 39.24 54.3456 39.3427 54.5696 39.548C54.8123 39.7533 54.9243 39.996 54.9056 40.276C54.7749 40.836 54.7096 41.956 54.7096 43.636L54.7096 45.876C54.7096 46.2867 54.7283 46.94 54.7656 47.836C54.8216 47.7613 54.9989 47.416 55.2976 46.8C55.3349 46.7253 55.4003 46.6133 55.4936 46.464C55.5869 46.296 55.6523 46.128 55.6896 45.96C56.3056 44.0933 56.8096 42.656 57.2016 41.648C57.3696 41.1067 57.5936 40.6493 57.8736 40.276C58.1536 39.884 58.5363 39.6133 59.0216 39.464C59.1896 39.408 59.4136 39.4267 59.6936 39.52C59.9923 39.6133 60.1883 39.7253 60.2816 39.856C60.3936 39.9867 60.4496 40.1453 60.4496 40.332C60.4496 40.5187 60.3843 40.6867 60.2536 40.836C60.1416 40.9853 59.9923 41.0787 59.8056 41.116C59.3389 41.1907 58.9749 41.3587 58.7136 41.62C58.4523 41.8813 58.2563 42.1613 58.1256 42.46C58.0136 42.74 57.8736 43.1693 57.7056 43.748L56.5856 46.492C56.5296 46.6227 56.4456 46.8467 56.3336 47.164C56.2403 47.4813 56.1469 47.724 56.0536 47.892C56.0163 47.948 55.9603 48.004 55.8856 48.06C55.8109 48.116 55.7456 48.172 55.6896 48.228C55.8203 48.1347 55.9883 48.1627 56.1936 48.312C56.4176 48.4613 56.6416 48.6667 56.8656 48.928C57.0149 49.2267 57.1176 49.5533 57.1736 49.908C57.2483 50.2627 57.2949 50.468 57.3136 50.524C57.3509 50.8227 57.3883 51.0467 57.4256 51.196C57.6496 51.7933 57.8083 52.344 57.9016 52.848C57.9949 53.3333 58.0603 53.912 58.0976 54.584C58.1536 55.256 58.3403 55.844 58.6576 56.348C58.7509 56.3667 58.8536 56.3853 58.9656 56.404C59.0963 56.4227 59.2363 56.4413 59.3856 56.46C59.6843 56.4787 59.8803 56.6653 59.9736 57.02C59.9923 57.0573 60.0016 57.1227 60.0016 57.216C60.0016 57.4213 59.9083 57.6173 59.7216 57.804C59.4416 58.084 59.0869 58.224 58.6576 58.224C58.3403 58.224 58.0323 58.14 57.7336 57.972C57.4536 57.804 57.2483 57.58 57.1176 57.3C57.0056 57.1133 56.9123 56.8613 56.8376 56.544C56.7069 55.7413 56.5949 54.9293 56.5016 54.108C56.4269 52.9693 56.3429 52.1107 56.2496 51.532C56.1749 50.9347 55.9976 50.3653 55.7176 49.824C55.6429 49.6933 55.5683 49.6 55.4936 49.544C55.4189 49.4693 55.3163 49.432 55.1856 49.432C55.0736 49.432 54.9336 49.46 54.7656 49.516C54.7283 50.86 54.7096 52.1667 54.7096 53.436C54.7096 54.2387 54.7469 55.4613 54.8216 57.104C54.8403 57.3093 54.8029 57.4773 54.7096 57.608C54.6349 57.72 54.4949 57.8693 54.2896 58.056ZM63.7446 57.944C63.502 57.8693 63.3713 57.7107 63.3526 57.468V57.048C63.3153 56.264 63.278 55.088 63.2406 53.52C63.166 52.1573 63.1193 51.112 63.1006 50.384C63.0446 49.2453 62.9793 47.5373 62.9046 45.26C62.886 44.868 62.8673 44.3267 62.8486 43.636C62.83 42.9453 62.8206 42.4227 62.8206 42.068C62.802 41.8627 62.7926 41.5733 62.7926 41.2C62.7926 40.7707 62.8113 40.4533 62.8486 40.248C62.9233 39.6693 63.2406 39.3987 63.8006 39.436C64.3233 39.436 64.6033 39.7347 64.6406 40.332V40.668L64.6126 47.724V51.056L64.6126 52.736C64.6126 52.9973 64.6313 53.3053 64.6686 53.66C64.706 53.996 64.734 54.2387 64.7526 54.388C64.846 53.8467 64.9953 53.296 65.2006 52.736C65.4246 52.1573 65.5646 51.8027 65.6206 51.672C65.9006 51 66.106 50.4493 66.2366 50.02C66.6846 48.5827 67.2633 46.8187 67.9726 44.728C68.122 44.2987 68.29 43.776 68.4766 43.16C68.9806 41.5733 69.326 40.5467 69.5126 40.08C69.6806 39.632 69.9326 39.352 70.2686 39.24C70.4366 39.184 70.6046 39.156 70.7726 39.156C71.034 39.156 71.3046 39.24 71.5846 39.408V40.752C71.5846 42.152 71.6126 43.5987 71.6686 45.092C71.6873 45.4093 71.6966 45.8853 71.6966 46.52L71.6966 47.332C71.6966 47.5 71.6873 47.724 71.6686 48.004C71.6686 48.284 71.678 48.6107 71.6966 48.984L71.7806 56.544C71.7806 56.824 71.7153 57.132 71.5846 57.468C71.5286 57.6173 71.4353 57.7387 71.3046 57.832C71.174 57.9067 71.034 57.944 70.8846 57.944C70.362 57.944 70.1006 57.7013 70.1006 57.216C70.1006 56.656 70.1286 56.1147 70.1846 55.592C70.222 54.8827 70.2406 54.3413 70.2406 53.968C70.2033 50.272 70.1566 47.5093 70.1006 45.68C70.1006 45.4 70.0633 44.9427 69.9886 44.308L69.9046 43.3C69.7366 43.4867 69.6433 43.608 69.6246 43.664L69.1766 45.036C68.878 46.0067 68.6446 46.7253 68.4766 47.192L66.0406 53.968L64.7806 57.412C64.6313 57.804 64.4073 58 64.1086 58C64.0526 58 63.9313 57.9813 63.7446 57.944ZM85.7653 61.444C85.616 61.4813 85.504 61.5 85.4293 61.5C85.2053 61.5 85.0466 61.36 84.9533 61.08C84.8786 60.856 84.8413 60.576 84.8413 60.24L84.8693 58.308C84.8693 58.196 84.86 58.0933 84.8413 58C84.8226 57.9067 84.804 57.8133 84.7853 57.72L81.5653 57.72C81.752 57.72 81.304 57.8133 80.2213 58C79.1573 58.168 78.3266 58.28 77.7293 58.336L76.4693 58.448L75.0693 58.588C75.0693 58.756 75.0693 58.9613 75.0693 59.204C75.088 59.4467 75.088 59.736 75.0693 60.072V60.212C75.0693 60.5107 74.9946 60.7347 74.8453 60.884C74.696 61.0333 74.556 61.108 74.4253 61.108C74.3506 61.108 74.2386 61.0707 74.0893 60.996C73.7533 60.7533 73.5666 60.4173 73.5293 59.988L73.4453 57.944C73.408 57.216 73.7066 56.852 74.3413 56.852C74.696 56.8333 74.976 56.74 75.1813 56.572C75.3866 56.404 75.6293 56.1427 75.9093 55.788C76.1893 55.4147 76.404 55.004 76.5533 54.556C76.7213 54.0893 76.88 53.5293 77.0293 52.876C77.1973 52.1667 77.3186 51.476 77.3933 50.804C77.468 50.132 77.5613 49.1707 77.6733 47.92C77.8413 45.96 77.9253 43.9907 77.9253 42.012L77.8973 40.444C77.8973 40.0893 78 39.8 78.2053 39.576C78.4106 39.3333 78.6906 39.212 79.0453 39.212C79.1573 39.212 79.2413 39.2213 79.2973 39.24C80.156 39.3893 80.856 39.4827 81.3973 39.52H81.5373C81.78 39.52 81.92 39.4733 81.9573 39.38C82.1253 39.156 82.3306 39.044 82.5733 39.044C82.7413 39.044 82.8906 39.0813 83.0213 39.156C83.32 39.268 83.516 39.548 83.6093 39.996L83.4693 44.784C83.4693 47.3787 83.4786 49.32 83.4973 50.608C83.4973 51.28 83.516 52.3067 83.5533 53.688L83.5813 55.228C83.5813 55.3773 83.5906 55.5173 83.6093 55.648C83.628 55.7787 83.6466 55.9093 83.6653 56.04C84.0386 56.0773 84.3186 56.096 84.5053 56.096C84.6546 56.096 84.7666 56.0867 84.8413 56.068C85.252 56.012 85.616 56.1147 85.9333 56.376C86.2693 56.6187 86.4373 56.936 86.4373 57.328C86.4373 57.832 86.4 58.588 86.3253 59.596C86.3253 59.8573 86.3066 60.2307 86.2693 60.716C86.232 61.108 86.064 61.3507 85.7653 61.444ZM77.7013 56.992C78.7466 56.8987 79.568 56.8147 80.1653 56.74C80.7813 56.6467 81.388 56.5067 81.9853 56.32C82.172 54.0613 82.2653 51.644 82.2653 49.068C82.2653 46.6787 82.172 44.056 81.9853 41.2C81.5 41.1813 80.5946 41.1347 79.2693 41.06L79.2413 42.376C79.092 45.2507 78.9893 47.3973 78.9333 48.816C78.8586 50.944 78.4946 53.0347 77.8413 55.088C77.804 55.2 77.72 55.48 77.5893 55.928C77.4773 56.3573 77.3 56.7307 77.0573 57.048L77.7013 56.992ZM95.6456 58.28C95.1043 58.28 94.8336 58.0747 94.8336 57.664C94.8336 57.5707 94.8336 57.3747 94.8336 57.076C94.8336 56.7773 94.8523 56.4973 94.8896 56.236C94.9643 55.564 95.0016 54.7707 95.0016 53.856C95.0016 52.9787 94.9643 51.7933 94.8896 50.3C94.8523 49.46 94.8149 48.1627 94.7776 46.408L94.6936 42.992L94.6656 41.816L94.6376 39.716C94.6376 39.4173 94.8056 39.2493 95.1416 39.212C95.4776 39.1933 95.7576 39.2867 95.9816 39.492C96.2056 39.6973 96.3176 39.9587 96.3176 40.276C96.3176 40.7427 96.2989 41.48 96.2616 42.488L96.1776 49.684C96.1589 49.9267 96.1496 50.2533 96.1496 50.664C96.1683 51.0747 96.1776 51.476 96.1776 51.868V53.548L96.1776 54.556C96.1403 55.732 96.1869 56.712 96.3176 57.496C96.3549 57.7573 96.3083 57.9533 96.1776 58.084C96.0656 58.2147 95.8883 58.28 95.6456 58.28ZM89.0656 58.28C88.8043 58.28 88.5709 58.2427 88.3656 58.168C88.1603 58.0933 88.0669 57.9067 88.0856 57.608C88.1229 57.1787 88.1509 56.6467 88.1696 56.012C88.1883 55.3773 88.1976 54.9387 88.1976 54.696C88.1976 53.632 88.2256 52.512 88.2816 51.336C88.3189 50.888 88.3376 50.1787 88.3376 49.208C88.3376 48.6667 88.3283 48.0227 88.3096 47.276C88.2909 46.5293 88.2723 45.9693 88.2536 45.596C88.2349 45.2787 88.2163 44.9053 88.1976 44.476C88.1789 44.0467 88.1696 43.5707 88.1696 43.048C88.1323 42.4133 88.1136 41.9187 88.1136 41.564L88.0856 40.836C88.0856 40.7427 88.0856 40.556 88.0856 40.276C88.0856 39.9773 88.1323 39.744 88.2256 39.576C88.3376 39.408 88.5243 39.324 88.7856 39.324C89.0283 39.324 89.2336 39.4267 89.4016 39.632C89.5696 39.8187 89.6536 40.0427 89.6536 40.304C89.6536 40.5093 89.6723 40.8547 89.7096 41.34C89.7469 42.1987 89.7656 42.88 89.7656 43.384C89.7656 44 89.7189 44.6067 89.6256 45.204C89.5883 45.316 89.5696 45.5027 89.5696 45.764C89.5696 45.988 89.5883 46.3053 89.6256 46.716C89.7749 46.772 90.0923 46.8933 90.5776 47.08C91.0629 47.248 91.4829 47.4533 91.8376 47.696C92.1923 47.92 92.4723 48.1813 92.6776 48.48C93.3123 49.5067 93.6296 50.3933 93.6296 51.14C93.6296 52.2973 93.5456 53.5853 93.3776 55.004C93.2843 55.844 93.0136 56.4693 92.5656 56.88C92.1176 57.2907 91.4643 57.6453 90.6056 57.944C90.3816 58.0187 90.1109 58.084 89.7936 58.14C89.4763 58.196 89.2336 58.2427 89.0656 58.28ZM89.6256 56.768C89.8496 56.8053 90.0176 56.824 90.1296 56.824C90.5029 56.824 90.8109 56.6933 91.0536 56.432C91.7069 55.7973 92.0336 55.0413 92.0336 54.164C92.0709 53.3053 92.0896 52.5307 92.0896 51.84C92.0896 50.608 91.9963 49.8147 91.8096 49.46C91.6789 49.0493 91.4176 48.704 91.0256 48.424C90.6336 48.144 90.1856 47.948 89.6816 47.836C89.5509 49.1613 89.4856 50.6453 89.4856 52.288C89.4856 53.688 89.5323 55.1813 89.6256 56.768ZM100.493 58.28C100.082 58.28 99.83 58.1027 99.7367 57.748C99.662 57.524 99.6247 57.2067 99.6247 56.796C99.6247 55.9933 99.662 55.004 99.7367 53.828C99.83 52.708 99.8767 51.7093 99.8767 50.832C99.8767 49.8427 99.9047 48.3587 99.9607 46.38L100.017 41.956C100.017 41.788 99.9887 41.536 99.9327 41.2L99.8487 40.5V40.36C99.8487 39.9307 99.914 39.6133 100.045 39.408C100.175 39.2027 100.418 39.1 100.773 39.1C101.258 39.1 101.79 39.24 102.369 39.52C102.947 39.8 103.367 40.1547 103.629 40.584C104.17 41.48 104.441 42.6 104.441 43.944C104.441 44.952 104.357 45.8013 104.189 46.492C104.021 47.164 103.731 47.7893 103.321 48.368C103.825 48.8533 104.161 49.4787 104.329 50.244C104.515 50.9907 104.609 51.9333 104.609 53.072C104.609 54.2107 104.413 55.2 104.021 56.04C103.573 56.992 102.919 57.6453 102.061 58C101.538 58.1867 101.015 58.28 100.493 58.28ZM101.389 47.556C102.359 47.5373 102.845 46.408 102.845 44.168C102.845 41.76 102.462 40.5 101.697 40.388C101.491 40.8173 101.389 41.8253 101.389 43.412L101.389 47.556ZM101.221 56.852C101.818 56.7213 102.285 56.3667 102.621 55.788C102.957 55.2093 103.125 54.5467 103.125 53.8C103.125 53.016 103.078 52.3253 102.985 51.728C102.91 51.2613 102.807 50.8787 102.677 50.58C102.565 50.2627 102.406 49.9733 102.201 49.712C101.977 49.432 101.715 49.264 101.417 49.208C101.342 50.272 101.305 51.6813 101.305 53.436C101.305 53.548 101.286 53.9027 101.249 54.5L101.193 55.452C101.193 55.4893 101.202 55.5173 101.221 55.536V55.592V56.852ZM113.181 58.252C112.752 58.252 112.434 58.1867 112.229 58.056C112.024 57.9253 111.921 57.6827 111.921 57.328C111.921 56.768 111.828 55.816 111.641 54.472L111.529 53.884L108.757 53.464C108.645 53.8933 108.486 54.7613 108.281 56.068C108.169 56.9827 107.992 57.5893 107.749 57.888C107.618 58.056 107.432 58.14 107.189 58.14C106.965 58.14 106.76 58.0747 106.573 57.944C106.386 57.7947 106.293 57.6173 106.293 57.412L106.349 57.272L106.377 57.16C107.609 52.3627 108.542 47.6307 109.177 42.964C109.177 42.8893 109.186 42.768 109.205 42.6C109.224 42.4133 109.242 42.152 109.261 41.816C109.317 41.1253 109.373 40.5747 109.429 40.164C109.504 39.7533 109.616 39.4453 109.765 39.24H110.717C110.978 39.24 111.202 39.3053 111.389 39.436C111.576 39.548 111.669 39.716 111.669 39.94C111.669 41.3587 111.865 43.468 112.257 46.268C112.63 49.1427 112.817 51.1587 112.817 52.316C112.817 52.428 112.864 52.7173 112.957 53.184C113.05 53.6133 113.097 53.8933 113.097 54.024C113.097 54.1547 113.19 54.7147 113.377 55.704C113.545 56.6 113.629 57.1787 113.629 57.44V57.468C113.629 57.8787 113.48 58.14 113.181 58.252ZM111.333 52.876C111.277 52.596 111.249 52.2507 111.249 51.84C111.249 50.16 111.1 48.0133 110.801 45.4L110.521 42.488C109.718 46.8747 109.168 50.188 108.869 52.428C109.149 52.6147 109.97 52.764 111.333 52.876ZM117.32 58.364C117.078 58.364 116.854 58.28 116.648 58.112C116.462 57.944 116.359 57.7387 116.34 57.496V56.768V56.208C116.322 56.04 116.312 55.844 116.312 55.62C116.312 55.228 116.284 54.6307 116.228 53.828L116.172 52.036C116.172 51.1213 116.2 49.7587 116.256 47.948C116.331 46.324 116.368 44.9613 116.368 43.86C116.368 43.5987 116.34 43.2067 116.284 42.684C116.228 42.1427 116.2 41.7507 116.2 41.508C116.2 40.1827 116.592 39.52 117.376 39.52C117.992 39.52 118.702 39.6413 119.504 39.884C120.326 40.1267 120.736 40.416 120.736 40.752C120.736 40.9387 120.652 41.116 120.484 41.284C120.335 41.4333 120.148 41.5547 119.924 41.648C119.14 41.368 118.431 41.1813 117.796 41.088C117.815 41.368 117.824 41.7693 117.824 42.292C117.824 43.0387 117.815 43.7107 117.796 44.308C117.74 45.204 117.712 45.876 117.712 46.324L117.796 46.772L118.244 46.744C118.394 46.7253 118.58 46.716 118.804 46.716C119.7 46.716 120.148 46.9773 120.148 47.5C120.148 47.7053 120.064 47.8827 119.896 48.032C119.728 48.1627 119.514 48.228 119.252 48.228C118.916 48.228 118.655 48.2093 118.468 48.172H117.768C117.806 48.6573 117.824 49.3667 117.824 50.3C117.824 51.2333 117.815 52.0733 117.796 52.82C117.74 53.9587 117.712 54.808 117.712 55.368C117.712 56.4133 117.731 56.936 117.768 56.936L118.692 56.908C119.01 56.8893 119.392 56.88 119.84 56.88C120.55 56.88 120.904 57.104 120.904 57.552C120.904 57.8133 120.783 58.0093 120.54 58.14C120.316 58.2893 120.036 58.364 119.7 58.364L117.32 58.364ZM135.273 59.456C134.695 59.456 134.405 58.8773 134.405 57.72V55.928V54.136C134.405 53.2027 134.34 51.98 134.209 50.468C134.06 48.7693 133.985 47.6027 133.985 46.968L134.041 45.232C134.079 44.728 134.097 44.1587 134.097 43.524C134.023 43.7667 133.715 45.0547 133.173 47.388C132.632 49.6467 132.072 51.7373 131.493 53.66C130.933 55.508 130.476 56.432 130.121 56.432C129.767 56.432 129.477 56.3293 129.253 56.124C129.048 55.9 128.945 55.6013 128.945 55.228C128.945 54.4067 128.609 52.6613 127.937 49.992C127.284 47.3227 126.687 45.1387 126.145 43.44L125.977 46.604C125.828 49.2733 125.725 51.4947 125.669 53.268C125.632 54.9853 125.613 56.1613 125.613 56.796C125.613 56.9453 125.623 57.0853 125.641 57.216V57.608C125.641 57.9253 125.576 58.1587 125.445 58.308C125.315 58.476 125.072 58.56 124.717 58.56C124.531 58.56 124.353 58.4853 124.185 58.336C124.017 58.2053 123.933 58.056 123.933 57.888C123.933 55.984 124.073 53.128 124.353 49.32C124.633 45.512 124.773 42.656 124.773 40.752C124.661 40.584 124.605 40.4067 124.605 40.22C124.605 39.996 124.708 39.828 124.913 39.716C125.137 39.5853 125.399 39.52 125.697 39.52C125.94 39.52 126.388 40.3973 127.041 42.152C127.695 43.9067 128.348 45.8947 129.001 48.116C129.655 50.3373 130.075 51.9427 130.261 52.932C130.411 52.428 130.532 51.9613 130.625 51.532L130.793 50.86C131.391 48.2467 131.988 45.8853 132.585 43.776C132.94 42.488 133.285 41.48 133.621 40.752C133.957 39.968 134.265 39.576 134.545 39.576C134.807 39.576 135.04 39.6507 135.245 39.8C135.469 39.9307 135.581 40.108 135.581 40.332C135.581 41.676 135.637 43.692 135.749 46.38C135.88 48.8813 135.945 50.8227 135.945 52.204L135.917 53.688L135.861 55.172C135.861 55.396 135.889 55.732 135.945 56.18L136.029 57.16C136.048 57.328 136.057 57.4587 136.057 57.552C136.076 57.6453 136.085 57.7013 136.085 57.72C136.179 57.9627 136.225 58.14 136.225 58.252C136.225 58.5693 136.132 58.8493 135.945 59.092C135.759 59.3347 135.535 59.456 135.273 59.456ZM143.437 58.392C143.026 58.392 142.587 58.3267 142.121 58.196C141.673 58.084 141.327 57.9533 141.085 57.804C139.834 57.0013 139.209 54.808 139.209 51.224V50.468V49.6V48.928C139.209 48.1813 139.218 47.5187 139.237 46.94C139.255 46.3427 139.293 45.6987 139.349 45.008C139.405 44.28 139.489 43.692 139.601 43.244C139.713 42.7773 139.899 42.2547 140.161 41.676C140.385 41.1347 140.655 40.7147 140.973 40.416C141.309 40.1173 141.738 39.8653 142.261 39.66C142.727 39.4547 143.306 39.352 143.997 39.352C144.277 39.352 144.491 39.4173 144.641 39.548C144.79 39.6787 144.865 39.8467 144.865 40.052C144.865 40.2387 144.799 40.4067 144.669 40.556C144.557 40.7053 144.417 40.7893 144.249 40.808H142.933C142.559 40.808 142.233 41.0413 141.953 41.508C141.673 41.9747 141.477 42.5813 141.365 43.328C141.122 44.7093 141.001 45.8293 141.001 46.688V46.828L140.945 49.516C140.907 50.3187 140.889 51.224 140.889 52.232C140.889 52.9413 140.917 53.52 140.973 53.968C141.066 54.64 141.225 55.2 141.449 55.648C141.673 56.152 142.055 56.516 142.597 56.74C142.877 56.852 143.185 56.908 143.521 56.908C143.726 56.908 143.931 56.8333 144.137 56.684C144.379 56.684 144.575 56.74 144.725 56.852C144.893 56.9453 144.977 57.0947 144.977 57.3C144.977 58.028 144.463 58.392 143.437 58.392ZM146.917 58.252C146.749 58.2147 146.609 58.1587 146.497 58.084C146.404 58.028 146.348 57.916 146.329 57.748C146.348 57.636 146.394 57.5147 146.469 57.384C146.544 57.2533 146.618 57.1787 146.693 57.16C146.861 57.1413 146.982 57.0853 147.057 56.992C147.132 56.8987 147.197 56.768 147.253 56.6C147.272 56.488 147.328 56.208 147.421 55.76C147.514 55.312 147.57 54.8827 147.589 54.472L147.617 53.996C147.617 53.772 147.598 53.4547 147.561 53.044C147.524 52.6333 147.505 52.3347 147.505 52.148C147.505 51.0653 147.906 50.0013 148.709 48.956C147.626 47.9667 147.085 46.884 147.085 45.708V44.812C147.085 43.8413 147.16 43.1133 147.309 42.628C147.44 42.124 147.682 41.5733 148.037 40.976C148.168 40.696 148.345 40.4813 148.569 40.332C148.793 40.164 149.036 40.0147 149.297 39.884C149.577 39.7533 149.792 39.6507 149.941 39.576C150.053 39.52 150.212 39.464 150.417 39.408C150.641 39.352 150.818 39.2493 150.949 39.1C151.192 39.0067 151.434 38.96 151.677 38.96C152.032 38.96 152.34 39.044 152.601 39.212C152.881 39.38 153.021 39.576 153.021 39.8C153.021 40.6027 153.002 41.8627 152.965 43.58L152.881 47.556L152.853 49.124L152.881 50.692C152.918 51.5507 152.993 52.764 153.105 54.332L153.217 56.152C153.236 56.32 153.264 56.5067 153.301 56.712C153.338 56.9173 153.357 57.0853 153.357 57.216C153.357 57.72 153.096 57.972 152.573 57.972C152.349 57.972 152.144 57.916 151.957 57.804C151.789 57.692 151.696 57.5333 151.677 57.328C151.621 56.8987 151.593 56.46 151.593 56.012L151.509 49.04C150.856 49.152 150.37 49.2733 150.053 49.404C149.736 49.5347 149.502 49.712 149.353 49.936C149.222 50.1413 149.12 50.44 149.045 50.832C148.989 51.0747 148.961 51.4387 148.961 51.924C148.961 52.1667 148.98 52.512 149.017 52.96L149.045 54.024C149.045 54.8267 148.998 55.508 148.905 56.068C148.812 56.6093 148.606 57.1227 148.289 57.608C148.14 57.8507 147.934 58.028 147.673 58.14C147.412 58.252 147.16 58.2893 146.917 58.252ZM149.689 48.2C149.764 48.2187 149.885 48.228 150.053 48.228C150.445 48.228 150.949 48.144 151.565 47.976C151.565 47.4907 151.546 46.744 151.509 45.736C151.453 44.784 151.425 43.8413 151.425 42.908C151.425 42.124 151.453 41.3307 151.509 40.528C151.005 40.6027 150.557 40.7333 150.165 40.92C149.773 41.1067 149.512 41.312 149.381 41.536C148.896 42.4507 148.644 43.3467 148.625 44.224C148.625 45.2133 148.644 45.9413 148.681 46.408C148.7 46.8187 148.793 47.2013 148.961 47.556C149.129 47.9107 149.372 48.1253 149.689 48.2ZM48.636 86C48.0013 86 47.684 84.46 47.684 81.38L47.712 79.784L47.74 78.496V78.412V78.132C47.7587 77.9827 47.768 77.8053 47.768 77.6C47.768 77.5627 47.74 77.516 47.684 77.46C47.628 77.404 47.6 77.3573 47.6 77.32V77.292C47.5067 77.3293 47.3387 77.348 47.096 77.348C46.8533 77.348 46.5547 77.3107 46.2 77.236C46.088 77.2173 45.7893 77.1707 45.304 77.096L45.304 80.316C45.304 80.8013 45.332 81.5667 45.388 82.612C45.444 83.6387 45.472 84.404 45.472 84.908C45.472 85.188 45.3973 85.4307 45.248 85.636C45.0987 85.8413 44.9027 85.944 44.66 85.944C44.3053 85.944 44.0533 85.5987 43.904 84.908C43.7547 84.1987 43.68 83.2747 43.68 82.136L43.736 79.868C43.7547 79.2333 43.764 78.5613 43.764 77.852V77.376L43.764 76.984C43.764 76.6853 43.7547 76.4893 43.736 76.396V76.256L43.82 74.632C43.82 73.9227 43.792 72.868 43.736 71.468C43.68 70.068 43.652 69.0133 43.652 68.304C43.652 68.08 43.7267 67.884 43.876 67.716C44.0253 67.548 44.212 67.464 44.436 67.464C45.0333 67.464 45.332 68.024 45.332 69.144L45.276 72.616C45.2387 73.6613 45.22 74.828 45.22 76.116C45.5 76.2093 46.004 76.256 46.732 76.256L47.768 76.256C47.8053 76.144 47.824 76.032 47.824 75.92C47.824 75.024 47.768 73.6987 47.656 71.944C47.5253 70.3013 47.46 68.9667 47.46 67.94C47.46 67.7347 47.5347 67.5667 47.684 67.436C47.852 67.2867 48.048 67.212 48.272 67.212C48.4027 67.212 48.5893 67.2587 48.832 67.352L49.084 67.464C49.084 70.1147 49.1773 73.652 49.364 78.076L49.616 85.16C49.616 85.4213 49.5133 85.6267 49.308 85.776C49.1213 85.9253 48.8973 86 48.636 86ZM58.4935 86.252C58.0642 86.252 57.7469 86.1867 57.5415 86.056C57.3362 85.9253 57.2335 85.6827 57.2335 85.328C57.2335 84.768 57.1402 83.816 56.9535 82.472L56.8415 81.884L54.0695 81.464C53.9575 81.8933 53.7989 82.7613 53.5935 84.068C53.4815 84.9827 53.3042 85.5893 53.0615 85.888C52.9309 86.056 52.7442 86.14 52.5015 86.14C52.2775 86.14 52.0722 86.0747 51.8855 85.944C51.6989 85.7947 51.6055 85.6173 51.6055 85.412L51.6615 85.272L51.6895 85.16C52.9215 80.3627 53.8549 75.6307 54.4895 70.964C54.4895 70.8893 54.4989 70.768 54.5175 70.6C54.5362 70.4133 54.5549 70.152 54.5735 69.816C54.6295 69.1253 54.6855 68.5747 54.7415 68.164C54.8162 67.7533 54.9282 67.4453 55.0775 67.24L56.0295 67.24C56.2909 67.24 56.5149 67.3053 56.7015 67.436C56.8882 67.548 56.9815 67.716 56.9815 67.94C56.9815 69.3587 57.1775 71.468 57.5695 74.268C57.9429 77.1427 58.1295 79.1587 58.1295 80.316C58.1295 80.428 58.1762 80.7173 58.2695 81.184C58.3629 81.6133 58.4095 81.8933 58.4095 82.024C58.4095 82.1547 58.5029 82.7147 58.6895 83.704C58.8575 84.6 58.9415 85.1787 58.9415 85.44V85.468C58.9415 85.8787 58.7922 86.14 58.4935 86.252ZM56.6455 80.876C56.5895 80.596 56.5615 80.2507 56.5615 79.84C56.5615 78.16 56.4122 76.0133 56.1135 73.4L55.8335 70.488C55.0309 74.8747 54.4802 78.188 54.1815 80.428C54.4615 80.6147 55.2829 80.764 56.6455 80.876ZM69.23 87.12C68.8193 87.12 68.4553 86.9893 68.138 86.728C67.8393 86.4667 67.606 86.1213 67.438 85.692C67.158 84.9453 67.018 84.1427 67.018 83.284C67.018 82.164 67.2327 80.596 67.662 78.58C68.0913 76.6013 68.306 75.1453 68.306 74.212C68.306 73.708 68.2127 73.12 68.026 72.448C67.8393 71.776 67.6153 71.1227 67.354 70.488C67.0927 69.8347 66.8687 69.1627 66.682 68.472C66.4953 67.7627 66.402 67.128 66.402 66.568C66.402 65.84 66.57 65.2333 66.906 64.748C67.242 64.2627 67.718 64.02 68.334 64.02H68.922C69.5193 64.412 69.9207 64.7667 70.126 65.084C70.2753 65.308 70.3873 65.504 70.462 65.672C70.5367 65.8213 70.5833 66.036 70.602 66.316C70.6393 66.6893 70.658 67.268 70.658 68.052C70.658 68.6493 70.6393 69.116 70.602 69.452L70.518 70.096C70.4993 70.3573 70.4247 70.8147 70.294 71.468C70.2193 71.804 70.182 72 70.182 72.056C70.1633 72.1493 70.1073 72.4107 70.014 72.84L69.846 73.568L69.678 74.212C70.3313 75.7053 70.8633 77.3947 71.274 79.28C71.6847 81.1653 71.89 82.864 71.89 84.376C71.89 84.4507 71.8993 84.516 71.918 84.572V84.768L71.89 85.048L71.862 85.16V85.188C71.302 86.476 70.4247 87.12 69.23 87.12ZM68.81 72.224C69.2207 70.824 69.426 69.4333 69.426 68.052C69.426 67.5667 69.3513 66.988 69.202 66.316C69.0713 65.6253 68.9127 65.28 68.726 65.28H68.138C67.8767 65.5787 67.746 66.0453 67.746 66.68C67.746 67.2587 67.858 68.1453 68.082 69.34C68.3247 70.516 68.5673 71.4773 68.81 72.224ZM69.258 85.916C69.7247 85.916 70.0607 85.7573 70.266 85.44C70.49 85.104 70.602 84.656 70.602 84.096C70.602 82.8827 70.4807 81.6507 70.238 80.4C69.9953 79.1307 69.6127 77.5813 69.09 75.752C68.8287 76.6107 68.6327 77.7493 68.502 79.168C68.3713 80.568 68.306 81.9773 68.306 83.396V83.424C68.306 83.9093 68.4273 84.3947 68.67 84.88V85.02C68.6887 85.244 68.754 85.4493 68.866 85.636C68.978 85.8227 69.1087 85.916 69.258 85.916ZM91.66 87.456C91.0813 87.456 90.792 86.8773 90.792 85.72V83.928V82.136C90.792 81.2027 90.7266 79.98 90.596 78.468C90.4466 76.7693 90.372 75.6027 90.372 74.968L90.428 73.232C90.4653 72.728 90.484 72.1587 90.484 71.524C90.4093 71.7667 90.1013 73.0547 89.56 75.388C89.0186 77.6467 88.4586 79.7373 87.88 81.66C87.32 83.508 86.8626 84.432 86.508 84.432C86.1533 84.432 85.864 84.3293 85.64 84.124C85.4346 83.9 85.332 83.6013 85.332 83.228C85.332 82.4067 84.996 80.6613 84.324 77.992C83.6706 75.3227 83.0733 73.1387 82.532 71.44L82.364 74.604C82.2146 77.2733 82.112 79.4947 82.056 81.268C82.0186 82.9853 82 84.1613 82 84.796C82 84.9453 82.0093 85.0853 82.028 85.216V85.608C82.028 85.9253 81.9626 86.1587 81.832 86.308C81.7013 86.476 81.4586 86.56 81.104 86.56C80.9173 86.56 80.74 86.4853 80.572 86.336C80.404 86.2053 80.32 86.056 80.32 85.888C80.32 83.984 80.46 81.128 80.74 77.32C81.02 73.512 81.16 70.656 81.16 68.752C81.048 68.584 80.992 68.4067 80.992 68.22C80.992 67.996 81.0946 67.828 81.3 67.716C81.524 67.5853 81.7853 67.52 82.084 67.52C82.3266 67.52 82.7746 68.3973 83.428 70.152C84.0813 71.9067 84.7346 73.8947 85.388 76.116C86.0413 78.3373 86.4613 79.9427 86.648 80.932C86.7973 80.428 86.9186 79.9613 87.012 79.532L87.18 78.86C87.7773 76.2467 88.3746 73.8853 88.972 71.776C89.3266 70.488 89.672 69.48 90.008 68.752C90.344 67.968 90.652 67.576 90.932 67.576C91.1933 67.576 91.4266 67.6507 91.632 67.8C91.856 67.9307 91.968 68.108 91.968 68.332C91.968 69.676 92.024 71.692 92.136 74.38C92.2666 76.8813 92.332 78.8227 92.332 80.204L92.304 81.688L92.248 83.172C92.248 83.396 92.276 83.732 92.332 84.18L92.416 85.16C92.4346 85.328 92.444 85.4587 92.444 85.552C92.4626 85.6453 92.472 85.7013 92.472 85.72C92.5653 85.9627 92.612 86.14 92.612 86.252C92.612 86.5693 92.5186 86.8493 92.332 87.092C92.1453 87.3347 91.9213 87.456 91.66 87.456ZM101.587 86.252C101.158 86.252 100.841 86.1867 100.635 86.056C100.43 85.9253 100.327 85.6827 100.327 85.328C100.327 84.768 100.234 83.816 100.047 82.472L99.9353 81.884L97.1633 81.464C97.0513 81.8933 96.8926 82.7613 96.6873 84.068C96.5753 84.9827 96.3979 85.5893 96.1553 85.888C96.0246 86.056 95.8379 86.14 95.5953 86.14C95.3713 86.14 95.1659 86.0747 94.9793 85.944C94.7926 85.7947 94.6993 85.6173 94.6993 85.412L94.7553 85.272L94.7833 85.16C96.0153 80.3627 96.9486 75.6307 97.5833 70.964C97.5833 70.8893 97.5926 70.768 97.6113 70.6C97.6299 70.4133 97.6486 70.152 97.6673 69.816C97.7233 69.1253 97.7793 68.5747 97.8353 68.164C97.9099 67.7533 98.0219 67.4453 98.1713 67.24H99.1233C99.3846 67.24 99.6086 67.3053 99.7953 67.436C99.9819 67.548 100.075 67.716 100.075 67.94C100.075 69.3587 100.271 71.468 100.663 74.268C101.037 77.1427 101.223 79.1587 101.223 80.316C101.223 80.428 101.27 80.7173 101.363 81.184C101.457 81.6133 101.503 81.8933 101.503 82.024C101.503 82.1547 101.597 82.7147 101.783 83.704C101.951 84.6 102.035 85.1787 102.035 85.44V85.468C102.035 85.8787 101.886 86.14 101.587 86.252ZM99.7393 80.876C99.6833 80.596 99.6553 80.2507 99.6553 79.84C99.6553 78.16 99.5059 76.0133 99.2073 73.4L98.9273 70.488C98.1246 74.8747 97.5739 78.188 97.2753 80.428C97.5553 80.6147 98.3766 80.764 99.7393 80.876ZM105.054 86.196C104.812 85.2067 104.69 83.8347 104.69 82.08L104.746 79.588C104.784 78.8413 104.802 78.0107 104.802 77.096C104.69 76.8347 104.634 76.6013 104.634 76.396V76.312C104.821 75.9573 104.914 75.1547 104.914 73.904L104.942 72.616C104.961 72.2053 104.97 71.748 104.97 71.244C104.97 70.1427 104.896 69.2747 104.746 68.64C104.802 68.3787 104.896 68.1547 105.026 67.968C105.157 67.7627 105.316 67.66 105.502 67.66H106.734C107.257 67.66 107.714 67.7813 108.106 68.024C108.498 68.248 108.797 68.5747 109.002 69.004C109.376 69.7693 109.562 70.6747 109.562 71.72C109.562 72.4667 109.553 73.0547 109.534 73.484C109.497 74.0253 109.404 74.52 109.254 74.968C109.198 75.2107 109.114 75.416 109.002 75.584C108.909 75.7333 108.769 75.92 108.582 76.144C108.321 76.4613 107.892 76.76 107.294 77.04C107.052 77.1707 106.734 77.292 106.342 77.404V80.4L106.398 82.192L106.454 83.06C106.529 84.1053 106.566 84.992 106.566 85.72C106.566 85.944 106.473 86.1307 106.286 86.28C106.1 86.448 105.885 86.532 105.642 86.532L105.054 86.196ZM106.37 76.256C107.472 76.088 108.022 74.5107 108.022 71.524C108.022 70.9827 107.994 70.5627 107.938 70.264C107.882 70.04 107.808 69.8627 107.714 69.732C107.621 69.5827 107.481 69.4613 107.294 69.368C107.089 69.256 106.865 69.2 106.622 69.2C106.622 69.1813 106.52 69.172 106.314 69.172V70.768C106.314 71.8693 106.324 72.8493 106.342 73.708C106.342 74.6787 106.352 75.3133 106.37 75.612V76.2V76.256ZM113.881 85.552L113.853 84.46C113.835 84.1427 113.825 83.788 113.825 83.396L113.853 82.444C113.797 82.2387 113.657 80.1947 113.433 76.312C113.209 72.4293 113.079 69.9373 113.041 68.836C111.959 68.7987 111.268 68.6867 110.969 68.5C110.764 68.3507 110.661 68.1827 110.661 67.996C110.661 67.8467 110.755 67.716 110.941 67.604C111.147 67.4733 111.352 67.408 111.557 67.408C112.08 67.408 112.715 67.4453 113.461 67.52C114.171 67.6133 114.805 67.66 115.365 67.66H115.589H115.813C116.392 67.66 116.681 67.884 116.681 68.332C116.681 68.556 116.588 68.7427 116.401 68.892C116.215 69.0227 116 69.088 115.757 69.088C115.589 69.088 115.347 69.06 115.029 69.004L114.469 68.892L114.441 69.032L114.413 69.172C114.413 70.8333 114.572 73.484 114.889 77.124C115.188 80.54 115.337 83.1907 115.337 85.076C115.337 85.3 115.235 85.496 115.029 85.664C114.843 85.832 114.628 85.916 114.385 85.916L113.881 85.552ZM124.994 86.252C124.564 86.252 124.247 86.1867 124.042 86.056C123.836 85.9253 123.734 85.6827 123.734 85.328C123.734 84.768 123.64 83.816 123.454 82.472L123.342 81.884L120.57 81.464C120.458 81.8933 120.299 82.7613 120.094 84.068C119.982 84.9827 119.804 85.5893 119.562 85.888C119.431 86.056 119.244 86.14 119.002 86.14C118.778 86.14 118.572 86.0747 118.386 85.944C118.199 85.7947 118.106 85.6173 118.106 85.412L118.162 85.272L118.19 85.16C119.422 80.3627 120.355 75.6307 120.99 70.964C120.99 70.8893 120.999 70.768 121.018 70.6C121.036 70.4133 121.055 70.152 121.074 69.816C121.13 69.1253 121.186 68.5747 121.242 68.164C121.316 67.7533 121.428 67.4453 121.578 67.24H122.53C122.791 67.24 123.015 67.3053 123.202 67.436C123.388 67.548 123.482 67.716 123.482 67.94C123.482 69.3587 123.678 71.468 124.07 74.268C124.443 77.1427 124.63 79.1587 124.63 80.316C124.63 80.428 124.676 80.7173 124.77 81.184C124.863 81.6133 124.91 81.8933 124.91 82.024C124.91 82.1547 125.003 82.7147 125.19 83.704C125.358 84.6 125.442 85.1787 125.442 85.44V85.468C125.442 85.8787 125.292 86.14 124.994 86.252ZM123.146 80.876C123.09 80.596 123.062 80.2507 123.062 79.84C123.062 78.16 122.912 76.0133 122.614 73.4L122.334 70.488C121.531 74.8747 120.98 78.188 120.682 80.428C120.962 80.6147 121.783 80.764 123.146 80.876ZM135.786 72.98C135.543 72.98 135.329 72.8867 135.142 72.7C134.955 72.4947 134.862 72.2613 134.862 72C134.862 71.72 134.965 71.468 135.17 71.244C135.375 71.02 135.618 70.908 135.898 70.908C136.159 70.908 136.393 71.02 136.598 71.244C136.803 71.4493 136.906 71.692 136.906 71.972C136.906 72.2707 136.803 72.5133 136.598 72.7C136.393 72.8867 136.122 72.98 135.786 72.98ZM134.974 85.58C134.881 85.58 134.806 85.552 134.75 85.496C134.694 85.44 134.666 85.3747 134.666 85.3V85.132L135.338 84.292C135.618 83.9 135.777 83.592 135.814 83.368C135.833 83.312 135.842 83.228 135.842 83.116C135.842 83.004 135.833 82.92 135.814 82.864C135.515 82.864 135.282 82.78 135.114 82.612C134.965 82.4253 134.862 82.1453 134.806 81.772C134.75 81.436 134.843 81.184 135.086 81.016C135.329 80.8293 135.646 80.736 136.038 80.736C136.766 80.736 137.13 81.128 137.13 81.912C137.13 82.3973 136.962 82.9853 136.626 83.676C136.309 84.3667 135.907 84.936 135.422 85.384C135.31 85.4587 135.198 85.5147 135.086 85.552L134.974 85.58ZM141.41 90.144C141.223 90.144 141.055 90.0787 140.906 89.948C140.757 89.836 140.682 89.6867 140.682 89.5C140.682 89.22 140.943 88.6227 141.466 87.708C141.709 87.2787 141.839 87.036 141.858 86.98C142.53 85.5053 143.09 83.5733 143.538 81.184C144.005 78.7947 144.238 76.6853 144.238 74.856C144.238 73.3813 144.126 71.8973 143.902 70.404C143.697 68.892 143.398 67.6413 143.006 66.652C142.913 66.428 142.773 66.1573 142.586 65.84C142.362 65.4107 142.203 65.0653 142.11 64.804C142.017 64.524 141.97 64.2533 141.97 63.992V63.824L142.502 63.432C143.025 63.432 143.501 63.9267 143.93 64.916C144.602 66.4653 145.106 68.9013 145.442 72.224C145.573 73.288 145.638 74.156 145.638 74.828V74.856C145.638 75.5093 145.517 76.6387 145.274 78.244C145.05 79.8493 144.761 81.5387 144.406 83.312C144.051 85.0853 143.603 86.672 143.062 88.072C142.502 89.4533 141.951 90.144 141.41 90.144Z" fill="#292D32"/>
<defs>
<filter id="filter0_d_0_2685" x="0" y="0" width="196" height="161" filterUnits="userSpaceOnUse" color-interpolation-filters="sRGB">
<feFlood flood-opacity="0" result="BackgroundImageFix"/>
<feColorMatrix in="SourceAlpha" type="matrix" values="0 0 0 0 0 0 0 0 0 0 0 0 0 0 0 0 0 0 127 0" result="hardAlpha"/>
<feOffset dy="12"/>
<feGaussianBlur stdDeviation="10"/>
<feComposite in2="hardAlpha" operator="out"/>
<feColorMatrix type="matrix" values="0 0 0 0 0 0 0 0 0 0 0 0 0 0 0 0 0 0 0.08 0"/>
<feBlend mode="normal" in2="BackgroundImageFix" result="effect1_dropShadow_0_2685"/>
<feBlend mode="normal" in="SourceGraphic" in2="effect1_dropShadow_0_2685" result="shape"/>
</filter>
</defs>
</svg>
