<svg width="196" height="162" viewBox="0 0 196 162" fill="none" xmlns="http://www.w3.org/2000/svg">
<g filter="url(#filter0_d_0_3262)">
<path d="M169.735 68.4193C190.63 34.1174 155.04 7.59787 124.958 8.00462C102.882 8.30289 80.4669 7.06911 58.5401 10.1603C32.312 13.8753 19.2591 27.9485 20.0325 54.7664C20.643 75.8491 30.8195 101.474 50.3175 112.415C71.4709 124.278 95.3923 122.868 116.939 113.771C123.411 120.103 135.582 128.915 153.927 130C153.927 130 144.701 113.907 144.388 97.1217C154.578 88.8242 163.317 78.9404 169.721 68.4193H169.735Z" fill="white"/>
</g>
<path d="M54.224 45.28C53.9253 45.28 53.72 45.224 53.608 45.112C53.5147 45 53.4493 44.7853 53.412 44.468L53.16 39.176L53.188 38.392L53.216 35.788C53.216 33.0813 53.2067 31.0467 53.188 29.684C53.1693 29.236 53.16 28.2187 53.16 26.632L53.188 25.512C53.188 25.3067 53.1507 25.1853 53.076 25.148C53.0013 25.092 52.796 25.0453 52.46 25.008C52.0867 24.9707 51.816 24.952 51.648 24.952C51.1253 24.952 50.6307 25.0547 50.164 25.26C50.052 25.5213 49.9867 26.0627 49.968 26.884C49.9493 27.7053 49.94 28.7133 49.94 29.908C49.9213 30.188 49.9307 31.4107 49.968 33.576V35.844C49.968 36.1987 50.0053 36.712 50.08 37.384C50.1547 38.168 50.192 38.7653 50.192 39.176C50.192 39.4373 50.1733 39.7733 50.136 40.184L50.108 41.052L50.248 44.244C50.248 44.5053 50.1733 44.7013 50.024 44.832C49.8747 44.9627 49.6693 45.0187 49.408 45C48.8853 45 48.624 44.748 48.624 44.244C48.68 42.284 48.708 40.3147 48.708 38.336V37.02C48.6707 35.564 48.6333 34.4813 48.596 33.772C48.5587 33.212 48.5213 32.4093 48.484 31.364C48.428 29.8893 48.3627 27.724 48.288 24.868C48.288 24.5507 48.3533 24.3173 48.484 24.168C48.6333 24 48.8573 23.9067 49.156 23.888C51.0973 23.8507 52.5627 23.832 53.552 23.832C53.9067 23.832 54.196 23.944 54.42 24.168C54.6627 24.392 54.7467 24.6627 54.672 24.98C54.5973 25.428 54.56 25.9413 54.56 26.52C54.56 26.9493 54.5693 27.276 54.588 27.5C54.588 27.668 54.588 27.8733 54.588 28.116C54.6067 28.3587 54.6067 28.6387 54.588 28.956C54.5693 29.3667 54.56 29.88 54.56 30.496C54.5227 31.84 54.476 32.792 54.42 33.352C54.4387 33.7813 54.4573 34.472 54.476 35.424C54.5133 36.3573 54.5507 37.02 54.588 37.412C54.532 37.7667 54.504 38.1307 54.504 38.504C54.504 38.9333 54.56 39.596 54.672 40.492C54.7467 41.1453 54.7933 41.6587 54.812 42.032L54.84 42.704C54.8773 43.3013 54.896 43.74 54.896 44.02L54.868 44.636C54.8867 45.0653 54.672 45.28 54.224 45.28ZM58.2464 45.616C58.097 45.616 57.9664 45.5693 57.8544 45.476C57.7424 45.3827 57.6584 45.2613 57.6024 45.112C57.5837 45.0747 57.5744 45.0187 57.5744 44.944C57.5744 44.7013 57.705 44.5053 57.9664 44.356C58.489 44.132 58.881 43.796 59.1424 43.348C59.4224 42.8813 59.6184 42.34 59.7304 41.724C60.0664 39.8947 60.2344 37.9067 60.2344 35.76C60.2344 34.9573 60.225 34.3507 60.2064 33.94C60.0757 30.7853 59.9637 28.564 59.8704 27.276V27.164C59.8704 26.996 59.9077 26.8653 59.9824 26.772C60.057 26.6787 60.1877 26.6133 60.3744 26.576C61.569 26.352 62.521 26.24 63.2304 26.24C63.6037 26.24 63.8837 26.2493 64.0704 26.268C64.4997 26.2867 64.8264 26.4173 65.0504 26.66C65.2744 26.9027 65.3864 27.2387 65.3864 27.668L65.4144 29.152C65.4517 30.4587 65.4704 31.4387 65.4704 32.092L65.4424 33.436C65.4424 35.4147 65.517 37.916 65.6664 40.94C65.741 42.3027 65.8064 43.3573 65.8624 44.104C65.881 44.44 65.825 44.6827 65.6944 44.832C65.5824 44.9813 65.3864 45.0747 65.1064 45.112C64.4904 45.1493 64.1637 44.86 64.1264 44.244C64.1824 43.7027 64.2104 43.1613 64.2104 42.62C64.2104 42.0787 64.201 41.6307 64.1824 41.276L64.1544 38.084C64.1544 36.5347 64.1264 34.948 64.0704 33.324C64.033 31.98 63.977 30.7107 63.9024 29.516C63.8277 28.3213 63.753 27.5933 63.6784 27.332C63.5664 27.3507 63.333 27.3973 62.9784 27.472C62.6237 27.5467 62.1384 27.612 61.5224 27.668C61.4664 28.5267 61.4384 29.1427 61.4384 29.516C61.4384 29.9453 61.4664 30.3187 61.5224 30.636C61.5597 31.14 61.597 31.8773 61.6344 32.848V33.464C61.6344 36.488 61.6064 38.532 61.5504 39.596C61.513 39.8947 61.4944 40.128 61.4944 40.296C61.4197 41.08 61.345 41.6773 61.2704 42.088C61.0837 43.0773 60.5144 44.0853 59.5624 45.112C59.301 45.4107 58.881 45.5787 58.3024 45.616H58.2464ZM74.9232 45.252C74.4939 45.252 74.1766 45.1867 73.9712 45.056C73.7659 44.9253 73.6632 44.6827 73.6632 44.328C73.6632 43.768 73.5699 42.816 73.3832 41.472L73.2712 40.884L70.4992 40.464C70.3872 40.8933 70.2286 41.7613 70.0232 43.068C69.9112 43.9827 69.7339 44.5893 69.4912 44.888C69.3606 45.056 69.1739 45.14 68.9312 45.14C68.7072 45.14 68.5019 45.0747 68.3152 44.944C68.1286 44.7947 68.0352 44.6173 68.0352 44.412L68.0912 44.272L68.1192 44.16C69.3512 39.3627 70.2846 34.6307 70.9192 29.964C70.9192 29.8893 70.9286 29.768 70.9472 29.6C70.9659 29.4133 70.9846 29.152 71.0032 28.816C71.0592 28.1253 71.1152 27.5747 71.1712 27.164C71.2459 26.7533 71.3579 26.4453 71.5072 26.24L72.4592 26.24C72.7206 26.24 72.9446 26.3053 73.1312 26.436C73.3179 26.548 73.4112 26.716 73.4112 26.94C73.4112 28.3587 73.6072 30.468 73.9992 33.268C74.3726 36.1427 74.5592 38.1587 74.5592 39.316C74.5592 39.428 74.6059 39.7173 74.6992 40.184C74.7926 40.6133 74.8392 40.8933 74.8392 41.024C74.8392 41.1547 74.9326 41.7147 75.1192 42.704C75.2872 43.6 75.3712 44.1787 75.3712 44.44V44.468C75.3712 44.8787 75.2219 45.14 74.9232 45.252ZM73.0752 39.876C73.0192 39.596 72.9912 39.2507 72.9912 38.84C72.9912 37.16 72.8419 35.0133 72.5432 32.4L72.2632 29.488C71.4606 33.8747 70.9099 37.188 70.6112 39.428C70.8912 39.6147 71.7126 39.764 73.0752 39.876ZM79.3424 44.552L79.3144 43.46C79.2957 43.1427 79.2864 42.788 79.2864 42.396L79.3144 41.444C79.2584 41.2387 79.1184 39.1947 78.8944 35.312C78.6704 31.4293 78.5397 28.9373 78.5024 27.836C77.4197 27.7987 76.7291 27.6867 76.4304 27.5C76.2251 27.3507 76.1224 27.1827 76.1224 26.996C76.1224 26.8467 76.2157 26.716 76.4024 26.604C76.6077 26.4733 76.8131 26.408 77.0184 26.408C77.5411 26.408 78.1757 26.4453 78.9224 26.52C79.6317 26.6133 80.2664 26.66 80.8264 26.66H81.0504H81.2744C81.8531 26.66 82.1424 26.884 82.1424 27.332C82.1424 27.556 82.0491 27.7427 81.8624 27.892C81.6757 28.0227 81.4611 28.088 81.2184 28.088C81.0504 28.088 80.8077 28.06 80.4904 28.004L79.9304 27.892L79.9024 28.032L79.8744 28.172C79.8744 29.8333 80.0331 32.484 80.3504 36.124C80.6491 39.54 80.7984 42.1907 80.7984 44.076C80.7984 44.3 80.6957 44.496 80.4904 44.664C80.3037 44.832 80.0891 44.916 79.8464 44.916L79.3424 44.552ZM86.2265 45.364C85.9838 45.364 85.7598 45.28 85.5545 45.112C85.3678 44.944 85.2651 44.7387 85.2465 44.496L85.2465 43.768V43.208C85.2278 43.04 85.2185 42.844 85.2185 42.62C85.2185 42.228 85.1905 41.6307 85.1345 40.828L85.0785 39.036C85.0785 38.1213 85.1065 36.7587 85.1625 34.948C85.2371 33.324 85.2745 31.9613 85.2745 30.86C85.2745 30.5987 85.2465 30.2067 85.1905 29.684C85.1345 29.1427 85.1065 28.7507 85.1065 28.508C85.1065 27.1827 85.4985 26.52 86.2825 26.52C86.8985 26.52 87.6078 26.6413 88.4105 26.884C89.2318 27.1267 89.6425 27.416 89.6425 27.752C89.6425 27.9387 89.5585 28.116 89.3905 28.284C89.2411 28.4333 89.0545 28.5547 88.8305 28.648C88.0465 28.368 87.3371 28.1813 86.7025 28.088C86.7211 28.368 86.7305 28.7693 86.7305 29.292C86.7305 30.0387 86.7211 30.7107 86.7025 31.308C86.6465 32.204 86.6185 32.876 86.6185 33.324L86.7025 33.772L87.1505 33.744C87.2998 33.7253 87.4865 33.716 87.7105 33.716C88.6065 33.716 89.0545 33.9773 89.0545 34.5C89.0545 34.7053 88.9705 34.8827 88.8025 35.032C88.6345 35.1627 88.4198 35.228 88.1585 35.228C87.8225 35.228 87.5611 35.2093 87.3745 35.172L86.6745 35.172C86.7118 35.6573 86.7305 36.3667 86.7305 37.3C86.7305 38.2333 86.7211 39.0733 86.7025 39.82C86.6465 40.9587 86.6185 41.808 86.6185 42.368C86.6185 43.4133 86.6371 43.936 86.6745 43.936L87.5985 43.908C87.9158 43.8893 88.2985 43.88 88.7465 43.88C89.4558 43.88 89.8105 44.104 89.8105 44.552C89.8105 44.8133 89.6891 45.0093 89.4465 45.14C89.2225 45.2893 88.9425 45.364 88.6065 45.364L86.2265 45.364ZM93.5395 45.42C92.7742 45.42 92.2702 45.0467 92.0275 44.3C91.9342 44.0573 91.8875 43.768 91.8875 43.432C91.8875 43.1707 91.9155 42.872 91.9715 42.536C92.0275 42.2 92.0648 41.976 92.0835 41.864C92.1022 41.7147 92.1675 41.5933 92.2795 41.5C92.4102 41.4067 92.5595 41.3507 92.7275 41.332C92.8955 41.332 93.0542 41.388 93.2035 41.5C93.3528 41.612 93.4555 41.7427 93.5115 41.892C93.5488 42.0787 93.5675 42.564 93.5675 43.348C93.6608 43.404 93.7542 43.4227 93.8475 43.404C93.9035 43.2547 93.9688 43.0773 94.0435 42.872C94.1368 42.648 94.2022 42.4613 94.2395 42.312C94.6128 40.5947 94.8742 39.2973 95.0235 38.42C95.1355 37.8413 95.3035 37.3373 95.5275 36.908C95.7702 36.4787 96.1248 36.096 96.5915 35.76C96.2742 35.3493 96.0315 34.7893 95.8635 34.08C95.6955 33.352 95.6115 32.6333 95.6115 31.924V30.496C95.6115 29.8427 95.6022 29.3573 95.5835 29.04C95.5835 28.816 95.5088 28.5267 95.3595 28.172C95.2288 27.8173 95.0982 27.64 94.9675 27.64C94.7995 27.6773 94.6408 27.78 94.4915 27.948C94.3982 28.172 94.3422 28.452 94.3235 28.788C94.3048 29.1053 94.2955 29.3013 94.2955 29.376C94.2395 29.8987 93.9595 30.132 93.4555 30.076C93.2688 30.0573 93.1008 29.964 92.9515 29.796C92.8022 29.6093 92.7275 29.404 92.7275 29.18C92.7275 28.788 92.8488 28.3773 93.0915 27.948C93.3342 27.5187 93.6235 27.164 93.9595 26.884C94.3142 26.604 94.6502 26.464 94.9675 26.464C95.2102 26.464 95.4622 26.548 95.7235 26.716C96.0035 26.8653 96.2368 27.0613 96.4235 27.304C96.7782 27.808 96.9555 28.6107 96.9555 29.712C96.9555 30.0293 96.9368 30.5053 96.8995 31.14L96.8715 31.7C96.8715 32.372 96.9182 33.0627 97.0115 33.772C97.1235 34.4627 97.3008 34.9947 97.5435 35.368C97.5622 35.3867 97.6088 35.396 97.6835 35.396C97.7768 35.396 97.8515 35.4053 97.9075 35.424V35.284C97.9075 33.828 97.8888 31.98 97.8515 29.74C97.8515 29.516 97.8702 29.18 97.9075 28.732L97.9355 27.78C97.9355 27.5 97.9262 27.2853 97.9075 27.136C97.8888 27.08 97.8795 27.0053 97.8795 26.912C97.8795 26.4827 98.1128 26.2213 98.5795 26.128C98.7288 26.0907 98.9062 26.156 99.1115 26.324C99.3355 26.4733 99.4848 26.66 99.5595 26.884C99.6155 27.052 99.6435 27.2387 99.6435 27.444C99.6435 27.5747 99.6342 27.668 99.6155 27.724C99.3542 28.9933 99.2235 30.188 99.2235 31.308L99.2235 35.564C99.4848 35.6573 99.7088 35.7227 99.8955 35.76C100.306 35.816 100.549 35.5547 100.623 34.976C100.679 34.7333 100.745 34.2667 100.819 33.576C100.838 33.464 100.847 33.3613 100.847 33.268C100.847 33.1747 100.857 33.0813 100.875 32.988L101.015 31.812C101.071 31.1587 101.155 30.5147 101.267 29.88C101.491 28.7413 101.949 27.808 102.639 27.08C102.919 26.8 103.255 26.66 103.647 26.66C103.946 26.66 104.226 26.744 104.487 26.912C104.767 27.0613 104.973 27.276 105.103 27.556C105.271 27.9293 105.383 28.312 105.439 28.704C105.514 29.0773 105.57 29.5627 105.607 30.16C105.626 30.384 105.57 30.5427 105.439 30.636C105.309 30.7107 105.094 30.804 104.795 30.916C104.534 30.8413 104.329 30.7013 104.179 30.496C104.049 30.2907 104.002 30.0293 104.039 29.712C104.095 29.1893 103.937 28.6947 103.563 28.228C103.265 28.4893 103.041 28.7787 102.891 29.096C102.742 29.3947 102.63 29.796 102.555 30.3C102.481 30.804 102.415 31.1493 102.359 31.336C102.21 32.0453 102.135 32.5867 102.135 32.96C102.135 33.3333 102.079 33.8 101.967 34.36C101.855 34.92 101.725 35.3773 101.575 35.732C101.519 35.844 101.491 35.9467 101.491 36.04C101.491 36.208 101.566 36.3667 101.715 36.516C101.977 36.796 102.173 37.2533 102.303 37.888C102.359 38.1867 102.387 38.56 102.387 39.008L102.359 40.1C102.322 40.66 102.303 41.08 102.303 41.36C102.303 41.696 102.369 42.0133 102.499 42.312C102.649 42.592 102.863 42.9373 103.143 43.348C103.218 43.46 103.33 43.516 103.479 43.516C103.685 43.516 103.862 43.4133 104.011 43.208C104.217 42.7413 104.347 42.3493 104.403 42.032C104.459 41.7147 104.497 41.5093 104.515 41.416C104.571 40.9493 104.795 40.716 105.187 40.716C105.318 40.716 105.421 40.7253 105.495 40.744L105.859 40.884C105.934 41.164 105.971 41.472 105.971 41.808C105.971 42.648 105.663 43.516 105.047 44.412C104.898 44.636 104.683 44.8133 104.403 44.944C104.142 45.0747 103.843 45.14 103.507 45.14C103.153 45.14 102.845 45.0653 102.583 44.916C102.322 44.748 102.117 44.5333 101.967 44.272C101.725 43.7867 101.538 43.3387 101.407 42.928C101.277 42.5173 101.211 42.088 101.211 41.64C101.211 41.08 101.193 40.464 101.155 39.792C101.118 39.12 101.09 38.6533 101.071 38.392L101.015 37.636C101.015 37.3373 100.903 37.132 100.679 37.02C100.474 36.8893 100.222 36.796 99.9235 36.74C99.6248 36.6653 99.3915 36.6093 99.2235 36.572C99.1862 37.2067 99.1675 37.6733 99.1675 37.972C99.1675 38.3267 99.1488 38.84 99.1115 39.512C99.0742 40.52 99.0648 41.2667 99.0835 41.752C99.1022 41.9947 99.1395 42.2653 99.1955 42.564C99.2515 42.8627 99.2888 43.068 99.3075 43.18C99.3822 43.4413 99.4288 43.6373 99.4475 43.768C99.4848 43.9173 99.5035 44.0387 99.5035 44.132C99.5035 44.3933 99.4288 44.608 99.2795 44.776C99.1302 44.9253 98.9062 45.0093 98.6075 45.028C98.3648 45.0467 98.2062 45 98.1315 44.888C98.0568 44.7573 98.0102 44.552 97.9915 44.272L98.0195 42.956C98.0195 42.396 98.0008 41.5373 97.9635 40.38C97.9262 39.6333 97.9075 39.064 97.9075 38.672V36.404C97.7022 36.3853 97.5342 36.432 97.4035 36.544C97.2915 36.656 97.1795 36.8053 97.0675 36.992C96.7875 37.4213 96.5822 37.8787 96.4515 38.364C96.3208 38.8493 96.1902 39.4747 96.0595 40.24L95.9475 40.884C95.7235 42.228 95.4062 43.3853 94.9955 44.356C94.8648 44.692 94.6688 44.9533 94.4075 45.14C94.1462 45.3267 93.8568 45.42 93.5395 45.42ZM109.268 44.944C109.025 44.8693 108.895 44.7107 108.876 44.468V44.048C108.839 43.264 108.801 42.088 108.764 40.52C108.689 39.1573 108.643 38.112 108.624 37.384C108.568 36.2453 108.503 34.5373 108.428 32.26C108.409 31.868 108.391 31.3267 108.372 30.636C108.353 29.9453 108.344 29.4227 108.344 29.068C108.325 28.8627 108.316 28.5733 108.316 28.2C108.316 27.7707 108.335 27.4533 108.372 27.248C108.447 26.6693 108.764 26.3987 109.324 26.436C109.847 26.436 110.127 26.7347 110.164 27.332V27.668L110.136 34.724V38.056V39.736C110.136 39.9973 110.155 40.3053 110.192 40.66C110.229 40.996 110.257 41.2387 110.276 41.388C110.369 40.8467 110.519 40.296 110.724 39.736C110.948 39.1573 111.088 38.8027 111.144 38.672C111.424 38 111.629 37.4493 111.76 37.02C112.208 35.5827 112.787 33.8187 113.496 31.728C113.645 31.2987 113.813 30.776 114 30.16C114.504 28.5733 114.849 27.5467 115.036 27.08C115.204 26.632 115.456 26.352 115.792 26.24C115.96 26.184 116.128 26.156 116.296 26.156C116.557 26.156 116.828 26.24 117.108 26.408V27.752C117.108 29.152 117.136 30.5987 117.192 32.092C117.211 32.4093 117.22 32.8853 117.22 33.52V34.332C117.22 34.5 117.211 34.724 117.192 35.004C117.192 35.284 117.201 35.6107 117.22 35.984L117.304 43.544C117.304 43.824 117.239 44.132 117.108 44.468C117.052 44.6173 116.959 44.7387 116.828 44.832C116.697 44.9067 116.557 44.944 116.408 44.944C115.885 44.944 115.624 44.7013 115.624 44.216C115.624 43.656 115.652 43.1147 115.708 42.592C115.745 41.8827 115.764 41.3413 115.764 40.968C115.727 37.272 115.68 34.5093 115.624 32.68C115.624 32.4 115.587 31.9427 115.512 31.308L115.428 30.3C115.26 30.4867 115.167 30.608 115.148 30.664L114.7 32.036C114.401 33.0067 114.168 33.7253 114 34.192L111.564 40.968L110.304 44.412C110.155 44.804 109.931 45 109.632 45C109.576 45 109.455 44.9813 109.268 44.944ZM49.604 72.944C49.3613 72.8693 49.2307 72.7107 49.212 72.468V72.048C49.1747 71.264 49.1373 70.088 49.1 68.52C49.0253 67.1573 48.9787 66.112 48.96 65.384C48.904 64.2453 48.8387 62.5373 48.764 60.26C48.7453 59.868 48.7267 59.3267 48.708 58.636C48.6893 57.9453 48.68 57.4227 48.68 57.068C48.6613 56.8627 48.652 56.5733 48.652 56.2C48.652 55.7707 48.6707 55.4533 48.708 55.248C48.7827 54.6693 49.1 54.3987 49.66 54.436C50.1827 54.436 50.4627 54.7347 50.5 55.332L50.5 55.668L50.472 62.724V66.056L50.472 67.736C50.472 67.9973 50.4907 68.3053 50.528 68.66C50.5653 68.996 50.5933 69.2387 50.612 69.388C50.7053 68.8467 50.8547 68.296 51.06 67.736C51.284 67.1573 51.424 66.8027 51.48 66.672C51.76 66 51.9653 65.4493 52.096 65.02C52.544 63.5827 53.1227 61.8187 53.832 59.728C53.9813 59.2987 54.1493 58.776 54.336 58.16C54.84 56.5733 55.1853 55.5467 55.372 55.08C55.54 54.632 55.792 54.352 56.128 54.24C56.296 54.184 56.464 54.156 56.632 54.156C56.8933 54.156 57.164 54.24 57.444 54.408L57.444 55.752C57.444 57.152 57.472 58.5987 57.528 60.092C57.5467 60.4093 57.556 60.8853 57.556 61.52V62.332C57.556 62.5 57.5467 62.724 57.528 63.004C57.528 63.284 57.5373 63.6107 57.556 63.984L57.64 71.544C57.64 71.824 57.5747 72.132 57.444 72.468C57.388 72.6173 57.2947 72.7387 57.164 72.832C57.0333 72.9067 56.8933 72.944 56.744 72.944C56.2213 72.944 55.96 72.7013 55.96 72.216C55.96 71.656 55.988 71.1147 56.044 70.592C56.0813 69.8827 56.1 69.3413 56.1 68.968C56.0627 65.272 56.016 62.5093 55.96 60.68C55.96 60.4 55.9227 59.9427 55.848 59.308L55.764 58.3C55.596 58.4867 55.5027 58.608 55.484 58.664L55.036 60.036C54.7373 61.0067 54.504 61.7253 54.336 62.192L51.9 68.968L50.64 72.412C50.4907 72.804 50.2667 73 49.968 73C49.912 73 49.7907 72.9813 49.604 72.944ZM71.558 72.972C71.3153 73.0093 71.11 72.9533 70.942 72.804C70.774 72.636 70.69 72.412 70.69 72.132C70.634 71.236 70.606 70.3493 70.606 69.472C70.606 68.2773 70.634 67.092 70.69 65.916C70.7273 64.7213 70.746 63.844 70.746 63.284C70.5406 61.9587 70.4193 59.8213 70.382 56.872C70.382 56.1813 70.3726 55.6213 70.354 55.192C69.402 55.192 68.7113 55.1733 68.282 55.136H68.114C67.834 55.136 67.6846 55.2853 67.666 55.584L67.638 57.6C67.638 58.5707 67.666 59.1587 67.722 59.364C67.7593 59.588 67.778 59.7373 67.778 59.812C67.778 59.9613 67.7593 60.1853 67.722 60.484C67.6846 60.7827 67.666 61.0067 67.666 61.156C67.666 61.436 67.7126 61.6787 67.806 61.884C67.8806 62.052 67.9086 62.2853 67.89 62.584C67.89 62.8827 67.89 63.1067 67.89 63.256C67.9086 63.8347 67.8993 64.684 67.862 65.804C67.8246 66.7 67.806 67.3627 67.806 67.792C67.806 68.3333 67.8246 68.9493 67.862 69.64C67.8993 70.312 67.9273 70.788 67.946 71.068L68.002 71.852C68.0206 72.1507 67.9553 72.3933 67.806 72.58C67.6753 72.748 67.4793 72.832 67.218 72.832C67.1246 72.832 67.0033 72.8133 66.854 72.776C66.686 72.72 66.574 72.6267 66.518 72.496C66.462 72.3653 66.4246 72.1973 66.406 71.992L66.322 69.64L66.35 66.252C66.3126 64.236 66.294 62.7333 66.294 61.744L66.266 59.476C66.2473 58.412 66.2006 57.2827 66.126 56.088L66.07 54.94V54.772C66.07 54.5853 66.1073 54.4547 66.182 54.38C66.2566 54.2867 66.3966 54.212 66.602 54.156C66.9753 54.0627 67.3113 54.016 67.61 54.016C67.778 54.016 67.8993 54.0253 67.974 54.044C68.1233 54.044 68.3473 54.0627 68.646 54.1C69.0566 54.1373 69.3833 54.156 69.626 54.156C69.9806 54.156 70.3073 54.1187 70.606 54.044C70.8113 53.988 71.0726 54.0347 71.39 54.184C71.7073 54.3147 71.8846 54.5107 71.922 54.772C71.9593 55.0333 71.978 55.2387 71.978 55.388C71.978 55.5373 71.9686 55.6493 71.95 55.724C71.8753 55.948 71.838 56.2187 71.838 56.536C71.838 56.704 71.8473 56.8907 71.866 57.096C71.8846 57.3013 71.894 57.516 71.894 57.74C71.894 57.9267 71.8846 58.076 71.866 58.188C71.8473 58.356 71.838 58.6267 71.838 59C71.838 59.616 71.894 60.484 72.006 61.604L72.09 62.36C72.1086 62.528 72.118 62.78 72.118 63.116C72.118 63.508 72.1086 63.7973 72.09 63.984C72.09 64.1333 72.0806 64.32 72.062 64.544C72.062 64.7493 72.0713 65.0013 72.09 65.3C72.0713 65.7293 72.0806 66.3733 72.118 67.232L72.146 67.848L72.314 72.244C72.314 72.4493 72.258 72.6173 72.146 72.748C72.0526 72.86 71.8566 72.9347 71.558 72.972ZM76.9569 73.364C76.7143 73.364 76.4903 73.28 76.2849 73.112C76.0983 72.944 75.9956 72.7387 75.9769 72.496V71.768V71.208C75.9583 71.04 75.9489 70.844 75.9489 70.62C75.9489 70.228 75.9209 69.6307 75.8649 68.828L75.8089 67.036C75.8089 66.1213 75.8369 64.7587 75.8929 62.948C75.9676 61.324 76.0049 59.9613 76.0049 58.86C76.0049 58.5987 75.9769 58.2067 75.9209 57.684C75.8649 57.1427 75.8369 56.7507 75.8369 56.508C75.8369 55.1827 76.2289 54.52 77.0129 54.52C77.6289 54.52 78.3383 54.6413 79.1409 54.884C79.9623 55.1267 80.3729 55.416 80.3729 55.752C80.3729 55.9387 80.2889 56.116 80.1209 56.284C79.9716 56.4333 79.7849 56.5547 79.5609 56.648C78.7769 56.368 78.0676 56.1813 77.4329 56.088C77.4516 56.368 77.4609 56.7693 77.4609 57.292C77.4609 58.0387 77.4516 58.7107 77.4329 59.308C77.3769 60.204 77.3489 60.876 77.3489 61.324L77.4329 61.772L77.8809 61.744C78.0303 61.7253 78.2169 61.716 78.4409 61.716C79.3369 61.716 79.7849 61.9773 79.7849 62.5C79.7849 62.7053 79.7009 62.8827 79.5329 63.032C79.3649 63.1627 79.1503 63.228 78.8889 63.228C78.5529 63.228 78.2916 63.2093 78.1049 63.172H77.4049C77.4423 63.6573 77.4609 64.3667 77.4609 65.3C77.4609 66.2333 77.4516 67.0733 77.4329 67.82C77.3769 68.9587 77.3489 69.808 77.3489 70.368C77.3489 71.4133 77.3676 71.936 77.4049 71.936L78.3289 71.908C78.6463 71.8893 79.0289 71.88 79.4769 71.88C80.1863 71.88 80.5409 72.104 80.5409 72.552C80.5409 72.8133 80.4196 73.0093 80.1769 73.14C79.9529 73.2893 79.6729 73.364 79.3369 73.364H76.9569ZM84.242 73.196C83.9993 72.2067 83.878 70.8347 83.878 69.08L83.934 66.588C83.9713 65.8413 83.99 65.0107 83.99 64.096C83.878 63.8347 83.822 63.6013 83.822 63.396V63.312C84.0086 62.9573 84.102 62.1547 84.102 60.904L84.13 59.616C84.1486 59.2053 84.158 58.748 84.158 58.244C84.158 57.1427 84.0833 56.2747 83.934 55.64C83.99 55.3787 84.0833 55.1547 84.214 54.968C84.3446 54.7627 84.5033 54.66 84.69 54.66H85.922C86.4446 54.66 86.902 54.7813 87.294 55.024C87.686 55.248 87.9846 55.5747 88.19 56.004C88.5633 56.7693 88.75 57.6747 88.75 58.72C88.75 59.4667 88.7406 60.0547 88.722 60.484C88.6846 61.0253 88.5913 61.52 88.442 61.968C88.386 62.2107 88.302 62.416 88.19 62.584C88.0966 62.7333 87.9566 62.92 87.77 63.144C87.5086 63.4613 87.0793 63.76 86.482 64.04C86.2393 64.1707 85.922 64.292 85.53 64.404L85.53 67.4L85.586 69.192L85.642 70.06C85.7166 71.1053 85.754 71.992 85.754 72.72C85.754 72.944 85.6606 73.1307 85.474 73.28C85.2873 73.448 85.0726 73.532 84.83 73.532L84.242 73.196ZM85.558 63.256C86.6593 63.088 87.21 61.5107 87.21 58.524C87.21 57.9827 87.182 57.5627 87.126 57.264C87.07 57.04 86.9953 56.8627 86.902 56.732C86.8086 56.5827 86.6686 56.4613 86.482 56.368C86.2766 56.256 86.0526 56.2 85.81 56.2C85.81 56.1813 85.7073 56.172 85.502 56.172V57.768C85.502 58.8693 85.5113 59.8493 85.53 60.708C85.53 61.6787 85.5393 62.3133 85.558 62.612V63.2V63.256ZM92.789 73.364C92.5463 73.364 92.3223 73.28 92.117 73.112C91.9303 72.944 91.8276 72.7387 91.809 72.496V71.768V71.208C91.7903 71.04 91.781 70.844 91.781 70.62C91.781 70.228 91.753 69.6307 91.697 68.828L91.641 67.036C91.641 66.1213 91.669 64.7587 91.725 62.948C91.7996 61.324 91.837 59.9613 91.837 58.86C91.837 58.5987 91.809 58.2067 91.753 57.684C91.697 57.1427 91.669 56.7507 91.669 56.508C91.669 55.1827 92.061 54.52 92.845 54.52C93.461 54.52 94.1703 54.6413 94.973 54.884C95.7943 55.1267 96.205 55.416 96.205 55.752C96.205 55.9387 96.121 56.116 95.953 56.284C95.8036 56.4333 95.617 56.5547 95.393 56.648C94.609 56.368 93.8996 56.1813 93.265 56.088C93.2836 56.368 93.293 56.7693 93.293 57.292C93.293 58.0387 93.2836 58.7107 93.265 59.308C93.209 60.204 93.181 60.876 93.181 61.324L93.265 61.772L93.713 61.744C93.8623 61.7253 94.049 61.716 94.273 61.716C95.169 61.716 95.617 61.9773 95.617 62.5C95.617 62.7053 95.533 62.8827 95.365 63.032C95.197 63.1627 94.9823 63.228 94.721 63.228C94.385 63.228 94.1236 63.2093 93.937 63.172L93.237 63.172C93.2743 63.6573 93.293 64.3667 93.293 65.3C93.293 66.2333 93.2836 67.0733 93.265 67.82C93.209 68.9587 93.181 69.808 93.181 70.368C93.181 71.4133 93.1996 71.936 93.237 71.936L94.161 71.908C94.4783 71.8893 94.861 71.88 95.309 71.88C96.0183 71.88 96.373 72.104 96.373 72.552C96.373 72.8133 96.2516 73.0093 96.009 73.14C95.785 73.2893 95.505 73.364 95.169 73.364H92.789ZM100.27 73.28C99.8593 73.28 99.6073 73.1027 99.514 72.748C99.4393 72.524 99.402 72.2067 99.402 71.796C99.402 70.9933 99.4393 70.004 99.514 68.828C99.6073 67.708 99.654 66.7093 99.654 65.832C99.654 64.8427 99.682 63.3587 99.738 61.38L99.794 56.956C99.794 56.788 99.766 56.536 99.71 56.2L99.626 55.5V55.36C99.626 54.9307 99.6913 54.6133 99.822 54.408C99.9527 54.2027 100.195 54.1 100.55 54.1C101.035 54.1 101.567 54.24 102.146 54.52C102.725 54.8 103.145 55.1547 103.406 55.584C103.947 56.48 104.218 57.6 104.218 58.944C104.218 59.952 104.134 60.8013 103.966 61.492C103.798 62.164 103.509 62.7893 103.098 63.368C103.602 63.8533 103.938 64.4787 104.106 65.244C104.293 65.9907 104.386 66.9333 104.386 68.072C104.386 69.2107 104.19 70.2 103.798 71.04C103.35 71.992 102.697 72.6453 101.838 73C101.315 73.1867 100.793 73.28 100.27 73.28ZM101.166 62.556C102.137 62.5373 102.622 61.408 102.622 59.168C102.622 56.76 102.239 55.5 101.474 55.388C101.269 55.8173 101.166 56.8253 101.166 58.412L101.166 62.556ZM100.998 71.852C101.595 71.7213 102.062 71.3667 102.398 70.788C102.734 70.2093 102.902 69.5467 102.902 68.8C102.902 68.016 102.855 67.3253 102.762 66.728C102.687 66.2613 102.585 65.8787 102.454 65.58C102.342 65.2627 102.183 64.9733 101.978 64.712C101.754 64.432 101.493 64.264 101.194 64.208C101.119 65.272 101.082 66.6813 101.082 68.436C101.082 68.548 101.063 68.9027 101.026 69.5L100.97 70.452C100.97 70.4893 100.979 70.5173 100.998 70.536V70.592L100.998 71.852ZM110.718 73.532C110.233 73.532 109.785 73.3733 109.374 73.056C108.964 72.7573 108.628 72.3467 108.366 71.824C107.825 70.6853 107.489 69.444 107.358 68.1C107.19 66.8307 107.106 65.608 107.106 64.432C107.106 64.208 107.116 64.0213 107.134 63.872V63.368C107.134 63.2747 107.125 63.228 107.106 63.228L107.106 62.724L107.134 60.764C107.153 60.1667 107.228 59.2147 107.358 57.908C107.452 57.012 107.666 56.144 108.002 55.304C108.133 54.9307 108.301 54.6507 108.506 54.464C108.712 54.2587 108.945 54.156 109.206 54.156C109.953 54.156 110.625 54.296 111.222 54.576C111.82 54.8373 112.324 55.2107 112.734 55.696C113.108 56.1627 113.425 56.7413 113.686 57.432C113.948 58.104 114.134 58.8227 114.246 59.588C114.358 60.372 114.414 61.2027 114.414 62.08V62.304C114.414 62.8827 114.424 63.4053 114.442 63.872L114.47 65.468C114.47 70.844 113.22 73.532 110.718 73.532ZM110.606 72.356C110.942 72.356 111.25 72.2253 111.53 71.964C111.81 71.684 112.025 71.3107 112.174 70.844C112.529 69.892 112.744 68.8653 112.818 67.764C112.912 66.812 112.958 65.9907 112.958 65.3C112.958 64.46 112.893 63.3587 112.762 61.996C112.65 60.5587 112.594 59.4853 112.594 58.776V58.272C112.557 57.5627 112.314 56.9467 111.866 56.424C111.437 55.9013 110.905 55.64 110.27 55.64C109.636 55.64 109.216 56.004 109.01 56.732C108.824 57.3107 108.73 58.0573 108.73 58.972C108.73 59.3267 108.74 59.6253 108.758 59.868V60.624L108.702 61.912C108.665 62.304 108.646 62.7333 108.646 63.2C108.646 64.208 108.674 65.2067 108.73 66.196C108.805 67.596 108.992 68.9587 109.29 70.284C109.589 71.6653 110.028 72.356 110.606 72.356ZM127.297 76.444C127.147 76.4813 127.035 76.5 126.961 76.5C126.737 76.5 126.578 76.36 126.485 76.08C126.41 75.856 126.373 75.576 126.373 75.24L126.401 73.308C126.401 73.196 126.391 73.0933 126.373 73C126.354 72.9067 126.335 72.8133 126.317 72.72L123.097 72.72C123.283 72.72 122.835 72.8133 121.753 73C120.689 73.168 119.858 73.28 119.261 73.336L118.001 73.448L116.601 73.588C116.601 73.756 116.601 73.9613 116.601 74.204C116.619 74.4467 116.619 74.736 116.601 75.072V75.212C116.601 75.5107 116.526 75.7347 116.377 75.884C116.227 76.0333 116.087 76.108 115.957 76.108C115.882 76.108 115.77 76.0707 115.621 75.996C115.285 75.7533 115.098 75.4173 115.061 74.988L114.977 72.944C114.939 72.216 115.238 71.852 115.873 71.852C116.227 71.8333 116.507 71.74 116.713 71.572C116.918 71.404 117.161 71.1427 117.441 70.788C117.721 70.4147 117.935 70.004 118.085 69.556C118.253 69.0893 118.411 68.5293 118.561 67.876C118.729 67.1667 118.85 66.476 118.925 65.804C118.999 65.132 119.093 64.1707 119.205 62.92C119.373 60.96 119.457 58.9907 119.457 57.012L119.429 55.444C119.429 55.0893 119.531 54.8 119.737 54.576C119.942 54.3333 120.222 54.212 120.577 54.212C120.689 54.212 120.773 54.2213 120.829 54.24C121.687 54.3893 122.387 54.4827 122.929 54.52H123.069C123.311 54.52 123.451 54.4733 123.489 54.38C123.657 54.156 123.862 54.044 124.105 54.044C124.273 54.044 124.422 54.0813 124.553 54.156C124.851 54.268 125.047 54.548 125.141 54.996L125.001 59.784C125.001 62.3787 125.01 64.32 125.029 65.608C125.029 66.28 125.047 67.3067 125.085 68.688L125.113 70.228C125.113 70.3773 125.122 70.5173 125.141 70.648C125.159 70.7787 125.178 70.9093 125.197 71.04C125.57 71.0773 125.85 71.096 126.037 71.096C126.186 71.096 126.298 71.0867 126.373 71.068C126.783 71.012 127.147 71.1147 127.465 71.376C127.801 71.6187 127.969 71.936 127.969 72.328C127.969 72.832 127.931 73.588 127.857 74.596C127.857 74.8573 127.838 75.2307 127.801 75.716C127.763 76.108 127.595 76.3507 127.297 76.444ZM119.233 71.992C120.278 71.8987 121.099 71.8147 121.697 71.74C122.313 71.6467 122.919 71.5067 123.517 71.32C123.703 69.0613 123.797 66.644 123.797 64.068C123.797 61.6787 123.703 59.056 123.517 56.2C123.031 56.1813 122.126 56.1347 120.801 56.06L120.773 57.376C120.623 60.2507 120.521 62.3973 120.465 63.816C120.39 65.944 120.026 68.0347 119.373 70.088C119.335 70.2 119.251 70.48 119.121 70.928C119.009 71.3573 118.831 71.7307 118.589 72.048L119.233 71.992ZM137.177 73.28C136.636 73.28 136.365 73.0747 136.365 72.664C136.365 72.5707 136.365 72.3747 136.365 72.076C136.365 71.7773 136.384 71.4973 136.421 71.236C136.496 70.564 136.533 69.7707 136.533 68.856C136.533 67.9787 136.496 66.7933 136.421 65.3C136.384 64.46 136.346 63.1627 136.309 61.408L136.225 57.992L136.197 56.816L136.169 54.716C136.169 54.4173 136.337 54.2493 136.673 54.212C137.009 54.1933 137.289 54.2867 137.513 54.492C137.737 54.6973 137.849 54.9587 137.849 55.276C137.849 55.7427 137.83 56.48 137.793 57.488L137.709 64.684C137.69 64.9267 137.681 65.2533 137.681 65.664C137.7 66.0747 137.709 66.476 137.709 66.868V68.548L137.709 69.556C137.672 70.732 137.718 71.712 137.849 72.496C137.886 72.7573 137.84 72.9533 137.709 73.084C137.597 73.2147 137.42 73.28 137.177 73.28ZM130.597 73.28C130.336 73.28 130.102 73.2427 129.897 73.168C129.692 73.0933 129.598 72.9067 129.617 72.608C129.654 72.1787 129.682 71.6467 129.701 71.012C129.72 70.3773 129.729 69.9387 129.729 69.696C129.729 68.632 129.757 67.512 129.813 66.336C129.85 65.888 129.869 65.1787 129.869 64.208C129.869 63.6667 129.86 63.0227 129.841 62.276C129.822 61.5293 129.804 60.9693 129.785 60.596C129.766 60.2787 129.748 59.9053 129.729 59.476C129.71 59.0467 129.701 58.5707 129.701 58.048C129.664 57.4133 129.645 56.9187 129.645 56.564L129.617 55.836C129.617 55.7427 129.617 55.556 129.617 55.276C129.617 54.9773 129.664 54.744 129.757 54.576C129.869 54.408 130.056 54.324 130.317 54.324C130.56 54.324 130.765 54.4267 130.933 54.632C131.101 54.8187 131.185 55.0427 131.185 55.304C131.185 55.5093 131.204 55.8547 131.241 56.34C131.278 57.1987 131.297 57.88 131.297 58.384C131.297 59 131.25 59.6067 131.157 60.204C131.12 60.316 131.101 60.5027 131.101 60.764C131.101 60.988 131.12 61.3053 131.157 61.716C131.306 61.772 131.624 61.8933 132.109 62.08C132.594 62.248 133.014 62.4533 133.369 62.696C133.724 62.92 134.004 63.1813 134.209 63.48C134.844 64.5067 135.161 65.3933 135.161 66.14C135.161 67.2973 135.077 68.5853 134.909 70.004C134.816 70.844 134.545 71.4693 134.097 71.88C133.649 72.2907 132.996 72.6453 132.137 72.944C131.913 73.0187 131.642 73.084 131.325 73.14C131.008 73.196 130.765 73.2427 130.597 73.28ZM131.157 71.768C131.381 71.8053 131.549 71.824 131.661 71.824C132.034 71.824 132.342 71.6933 132.585 71.432C133.238 70.7973 133.565 70.0413 133.565 69.164C133.602 68.3053 133.621 67.5307 133.621 66.84C133.621 65.608 133.528 64.8147 133.341 64.46C133.21 64.0493 132.949 63.704 132.557 63.424C132.165 63.144 131.717 62.948 131.213 62.836C131.082 64.1613 131.017 65.6453 131.017 67.288C131.017 68.688 131.064 70.1813 131.157 71.768ZM143.06 69.948C142.687 69.948 142.463 69.7427 142.388 69.332C142.388 68.1933 142.472 66.952 142.64 65.608C142.827 64.264 143.088 62.6307 143.424 60.708L143.564 59.896C143.825 58.272 143.956 56.9093 143.956 55.808C143.956 54.072 143.676 53.204 143.116 53.204C142.761 53.204 142.584 53.624 142.584 54.464C142.584 54.6693 142.649 55.1733 142.78 55.976C142.78 55.9947 142.733 56.0507 142.64 56.144C142.323 56.424 142.089 56.564 141.94 56.564C141.417 56.564 141.156 55.9387 141.156 54.688V54.408C141.156 53.9227 141.203 53.512 141.296 53.176C141.408 52.8213 141.604 52.5133 141.884 52.252C142.201 51.9907 142.593 51.86 143.06 51.86C143.471 51.86 143.825 51.9347 144.124 52.084C144.423 52.2333 144.665 52.4387 144.852 52.7C145.151 53.148 145.337 53.8107 145.412 54.688C145.431 54.8933 145.44 55.2573 145.44 55.78C145.44 57.4227 145.16 59.2147 144.6 61.156C144.357 61.9587 144.152 62.976 143.984 64.208C143.816 65.4213 143.732 66.6813 143.732 67.988C143.732 69.0147 143.741 69.64 143.76 69.864C143.424 69.864 143.237 69.8827 143.2 69.92C143.163 69.9387 143.116 69.948 143.06 69.948ZM143.06 73.112C142.78 73.112 142.556 73 142.388 72.776C142.183 72.5893 142.08 72.356 142.08 72.076C142.08 71.8147 142.192 71.572 142.416 71.348C142.64 71.1053 142.892 70.984 143.172 70.984C143.396 70.984 143.62 71.1053 143.844 71.348C144.068 71.5907 144.18 71.824 144.18 72.048C144.18 72.7573 143.807 73.112 143.06 73.112ZM51.2 101.224C50.5467 101.149 50.08 100.813 49.8 100.216C49.688 99.992 49.6133 99.824 49.576 99.712C49.3893 99.3387 49.2493 99.012 49.156 98.732C49.0627 98.452 49.016 98.1627 49.016 97.864L49.044 97.556C49.0627 97.3507 49.1187 97.1733 49.212 97.024C49.3053 96.8747 49.4267 96.7813 49.576 96.744C49.7813 96.7067 49.9867 96.7627 50.192 96.912C50.416 97.0427 50.556 97.2107 50.612 97.416C50.6867 97.6027 50.7613 97.864 50.836 98.2C50.948 98.704 51.0973 99.1893 51.284 99.656C51.396 99.8987 51.5827 100.02 51.844 100.02C51.9187 100.02 52.0307 100.001 52.18 99.964C52.852 99.684 53.3093 99.264 53.552 98.704C54 97.6213 54.224 96.576 54.224 95.568C54.224 95.176 54.1773 94.7187 54.084 94.196C54.0653 94.0093 54.0467 93.832 54.028 93.664C54.0093 93.4773 53.9907 93.2907 53.972 93.104C53.8787 92.4693 53.664 91.9653 53.328 91.592C52.992 91.2187 52.5067 90.948 51.872 90.78C51.816 90.7613 51.6667 90.7333 51.424 90.696C51.1813 90.64 50.976 90.5467 50.808 90.416C50.6587 90.2667 50.584 90.0893 50.584 89.884C50.5467 89.3613 50.9667 89.0067 51.844 88.82C52.3293 88.6893 52.7213 88.4 53.02 87.952C53.7293 87.2987 54.084 86.3467 54.084 85.096C54.084 84.3493 53.9627 83.584 53.72 82.8C53.608 82.3707 53.356 82.044 52.964 81.82C52.572 81.5773 52.152 81.456 51.704 81.456C51.0693 81.456 50.5373 81.7267 50.108 82.268C50.0333 82.3613 49.9027 82.5573 49.716 82.856C49.3987 83.3787 49.1747 83.6867 49.044 83.78C48.8947 83.9293 48.7453 84.004 48.596 84.004C48.372 84.004 48.1947 83.948 48.064 83.836C47.952 83.7053 47.8867 83.5653 47.868 83.416C47.8493 83.3413 47.84 83.2293 47.84 83.08C47.84 82.464 48.0173 81.904 48.372 81.4C48.7453 80.896 49.212 80.4947 49.772 80.196C50.3507 79.8973 50.92 79.748 51.48 79.748C52.1333 79.748 52.8147 79.9253 53.524 80.28C54.5133 80.7653 55.12 81.54 55.344 82.604C55.4747 83.1827 55.54 83.7707 55.54 84.368C55.54 85.1893 55.4187 86.0293 55.176 86.888C54.952 87.7467 54.4667 88.568 53.72 89.352L53.16 89.604C53.776 89.7347 54.3267 90.1827 54.812 90.948C55.2973 91.7133 55.54 92.4787 55.54 93.244C55.54 93.5613 55.568 93.8787 55.624 94.196C55.6613 94.532 55.68 94.7653 55.68 94.896C55.6987 95.0827 55.708 95.3533 55.708 95.708C55.708 96.772 55.5587 97.752 55.26 98.648C54.7 100.421 53.636 101.308 52.068 101.308C51.8067 101.308 51.5173 101.28 51.2 101.224ZM63.8763 101.252C63.447 101.252 63.1297 101.187 62.9243 101.056C62.719 100.925 62.6163 100.683 62.6163 100.328C62.6163 99.768 62.523 98.816 62.3363 97.472L62.2243 96.884L59.4523 96.464C59.3403 96.8933 59.1817 97.7613 58.9763 99.068C58.8643 99.9827 58.687 100.589 58.4443 100.888C58.3137 101.056 58.127 101.14 57.8843 101.14C57.6603 101.14 57.455 101.075 57.2683 100.944C57.0817 100.795 56.9883 100.617 56.9883 100.412L57.0443 100.272L57.0723 100.16C58.3043 95.3627 59.2377 90.6307 59.8723 85.964C59.8723 85.8893 59.8817 85.768 59.9003 85.6C59.919 85.4133 59.9377 85.152 59.9563 84.816C60.0123 84.1253 60.0683 83.5747 60.1243 83.164C60.199 82.7533 60.311 82.4453 60.4603 82.24H61.4123C61.6737 82.24 61.8977 82.3053 62.0843 82.436C62.271 82.548 62.3643 82.716 62.3643 82.94C62.3643 84.3587 62.5603 86.468 62.9523 89.268C63.3257 92.1427 63.5123 94.1587 63.5123 95.316C63.5123 95.428 63.559 95.7173 63.6523 96.184C63.7457 96.6133 63.7923 96.8933 63.7923 97.024C63.7923 97.1547 63.8857 97.7147 64.0723 98.704C64.2403 99.6 64.3243 100.179 64.3243 100.44V100.468C64.3243 100.879 64.175 101.14 63.8763 101.252ZM62.0283 95.876C61.9723 95.596 61.9443 95.2507 61.9443 94.84C61.9443 93.16 61.795 91.0133 61.4963 88.4L61.2163 85.488C60.4137 89.8747 59.863 93.188 59.5643 95.428C59.8443 95.6147 60.6657 95.764 62.0283 95.876ZM72.1595 100.972C71.9169 101.009 71.7115 100.953 71.5435 100.804C71.3755 100.636 71.2915 100.412 71.2915 100.132C71.2355 99.236 71.2075 98.3493 71.2075 97.472C71.2075 96.2773 71.2355 95.092 71.2915 93.916C71.3289 92.7213 71.3475 91.844 71.3475 91.284C71.1422 89.9587 71.0209 87.8213 70.9835 84.872C70.9835 84.1813 70.9742 83.6213 70.9555 83.192C70.0035 83.192 69.3129 83.1733 68.8835 83.136H68.7155C68.4355 83.136 68.2862 83.2853 68.2675 83.584L68.2395 85.6C68.2395 86.5707 68.2675 87.1587 68.3235 87.364C68.3609 87.588 68.3795 87.7373 68.3795 87.812C68.3795 87.9613 68.3609 88.1853 68.3235 88.484C68.2862 88.7827 68.2675 89.0067 68.2675 89.156C68.2675 89.436 68.3142 89.6787 68.4075 89.884C68.4822 90.052 68.5102 90.2853 68.4915 90.584C68.4915 90.8827 68.4915 91.1067 68.4915 91.256C68.5102 91.8347 68.5009 92.684 68.4635 93.804C68.4262 94.7 68.4075 95.3627 68.4075 95.792C68.4075 96.3333 68.4262 96.9493 68.4635 97.64C68.5009 98.312 68.5289 98.788 68.5475 99.068L68.6035 99.852C68.6222 100.151 68.5569 100.393 68.4075 100.58C68.2769 100.748 68.0809 100.832 67.8195 100.832C67.7262 100.832 67.6049 100.813 67.4555 100.776C67.2875 100.72 67.1755 100.627 67.1195 100.496C67.0635 100.365 67.0262 100.197 67.0075 99.992L66.9235 97.64L66.9515 94.252C66.9142 92.236 66.8955 90.7333 66.8955 89.744L66.8675 87.476C66.8489 86.412 66.8022 85.2827 66.7275 84.088L66.6715 82.94V82.772C66.6715 82.5853 66.7089 82.4547 66.7835 82.38C66.8582 82.2867 66.9982 82.212 67.2035 82.156C67.5769 82.0627 67.9129 82.016 68.2115 82.016C68.3795 82.016 68.5009 82.0253 68.5755 82.044C68.7249 82.044 68.9489 82.0627 69.2475 82.1C69.6582 82.1373 69.9849 82.156 70.2275 82.156C70.5822 82.156 70.9089 82.1187 71.2075 82.044C71.4129 81.988 71.6742 82.0347 71.9915 82.184C72.3089 82.3147 72.4862 82.5107 72.5235 82.772C72.5609 83.0333 72.5795 83.2387 72.5795 83.388C72.5795 83.5373 72.5702 83.6493 72.5515 83.724C72.4769 83.948 72.4395 84.2187 72.4395 84.536C72.4395 84.704 72.4489 84.8907 72.4675 85.096C72.4862 85.3013 72.4955 85.516 72.4955 85.74C72.4955 85.9267 72.4862 86.076 72.4675 86.188C72.4489 86.356 72.4395 86.6267 72.4395 87C72.4395 87.616 72.4955 88.484 72.6075 89.604L72.6915 90.36C72.7102 90.528 72.7195 90.78 72.7195 91.116C72.7195 91.508 72.7102 91.7973 72.6915 91.984C72.6915 92.1333 72.6822 92.32 72.6635 92.544C72.6635 92.7493 72.6729 93.0013 72.6915 93.3C72.6729 93.7293 72.6822 94.3733 72.7195 95.232L72.7475 95.848L72.9155 100.244C72.9155 100.449 72.8595 100.617 72.7475 100.748C72.6542 100.86 72.4582 100.935 72.1595 100.972ZM76.8865 101.196C76.6438 100.207 76.5225 98.8347 76.5225 97.08L76.5785 94.588C76.6158 93.8413 76.6345 93.0107 76.6345 92.096C76.5225 91.8347 76.4665 91.6013 76.4665 91.396V91.312C76.6532 90.9573 76.7465 90.1547 76.7465 88.904L76.7745 87.616C76.7932 87.2053 76.8025 86.748 76.8025 86.244C76.8025 85.1427 76.7278 84.2747 76.5785 83.64C76.6345 83.3787 76.7278 83.1547 76.8585 82.968C76.9892 82.7627 77.1478 82.66 77.3345 82.66H78.5665C79.0892 82.66 79.5465 82.7813 79.9385 83.024C80.3305 83.248 80.6292 83.5747 80.8345 84.004C81.2078 84.7693 81.3945 85.6747 81.3945 86.72C81.3945 87.4667 81.3852 88.0547 81.3665 88.484C81.3292 89.0253 81.2358 89.52 81.0865 89.968C81.0305 90.2107 80.9465 90.416 80.8345 90.584C80.7412 90.7333 80.6012 90.92 80.4145 91.144C80.1532 91.4613 79.7238 91.76 79.1265 92.04C78.8838 92.1707 78.5665 92.292 78.1745 92.404V95.4L78.2305 97.192L78.2865 98.06C78.3612 99.1053 78.3985 99.992 78.3985 100.72C78.3985 100.944 78.3052 101.131 78.1185 101.28C77.9318 101.448 77.7172 101.532 77.4745 101.532L76.8865 101.196ZM78.2025 91.256C79.3038 91.088 79.8545 89.5107 79.8545 86.524C79.8545 85.9827 79.8265 85.5627 79.7705 85.264C79.7145 85.04 79.6398 84.8627 79.5465 84.732C79.4532 84.5827 79.3132 84.4613 79.1265 84.368C78.9212 84.256 78.6972 84.2 78.4545 84.2C78.4545 84.1813 78.3518 84.172 78.1465 84.172V85.768C78.1465 86.8693 78.1558 87.8493 78.1745 88.708C78.1745 89.6787 78.1838 90.3133 78.2025 90.612V91.2V91.256ZM87.4215 101.532C86.9362 101.532 86.4882 101.373 86.0775 101.056C85.6668 100.757 85.3308 100.347 85.0695 99.824C84.5282 98.6853 84.1922 97.444 84.0615 96.1C83.8935 94.8307 83.8095 93.608 83.8095 92.432C83.8095 92.208 83.8188 92.0213 83.8375 91.872V91.368C83.8375 91.2747 83.8282 91.228 83.8095 91.228V90.724L83.8375 88.764C83.8562 88.1667 83.9308 87.2147 84.0615 85.908C84.1548 85.012 84.3695 84.144 84.7055 83.304C84.8362 82.9307 85.0042 82.6507 85.2095 82.464C85.4148 82.2587 85.6482 82.156 85.9095 82.156C86.6562 82.156 87.3282 82.296 87.9255 82.576C88.5228 82.8373 89.0268 83.2107 89.4375 83.696C89.8108 84.1627 90.1282 84.7413 90.3895 85.432C90.6508 86.104 90.8375 86.8227 90.9495 87.588C91.0615 88.372 91.1175 89.2027 91.1175 90.08V90.304C91.1175 90.8827 91.1268 91.4053 91.1455 91.872L91.1735 93.468C91.1735 98.844 89.9228 101.532 87.4215 101.532ZM87.3095 100.356C87.6455 100.356 87.9535 100.225 88.2335 99.964C88.5135 99.684 88.7282 99.3107 88.8775 98.844C89.2322 97.892 89.4468 96.8653 89.5215 95.764C89.6148 94.812 89.6615 93.9907 89.6615 93.3C89.6615 92.46 89.5962 91.3587 89.4655 89.996C89.3535 88.5587 89.2975 87.4853 89.2975 86.776V86.272C89.2602 85.5627 89.0175 84.9467 88.5695 84.424C88.1402 83.9013 87.6082 83.64 86.9735 83.64C86.3388 83.64 85.9188 84.004 85.7135 84.732C85.5268 85.3107 85.4335 86.0573 85.4335 86.972C85.4335 87.3267 85.4428 87.6253 85.4615 87.868V88.624L85.4055 89.912C85.3682 90.304 85.3495 90.7333 85.3495 91.2C85.3495 92.208 85.3775 93.2067 85.4335 94.196C85.5082 95.596 85.6948 96.9587 85.9935 98.284C86.2922 99.6653 86.7308 100.356 87.3095 100.356ZM97.9873 101.392C97.5767 101.392 97.138 101.327 96.6713 101.196C96.2233 101.084 95.878 100.953 95.6353 100.804C94.3847 100.001 93.7593 97.808 93.7593 94.224V93.468L93.7593 92.6V91.928C93.7593 91.1813 93.7687 90.5187 93.7873 89.94C93.806 89.3427 93.8433 88.6987 93.8993 88.008C93.9553 87.28 94.0393 86.692 94.1513 86.244C94.2633 85.7773 94.45 85.2547 94.7113 84.676C94.9353 84.1347 95.206 83.7147 95.5233 83.416C95.8593 83.1173 96.2887 82.8653 96.8113 82.66C97.278 82.4547 97.8567 82.352 98.5473 82.352C98.8273 82.352 99.042 82.4173 99.1913 82.548C99.3407 82.6787 99.4153 82.8467 99.4153 83.052C99.4153 83.2387 99.35 83.4067 99.2193 83.556C99.1073 83.7053 98.9673 83.7893 98.7993 83.808H97.4833C97.11 83.808 96.7833 84.0413 96.5033 84.508C96.2233 84.9747 96.0273 85.5813 95.9153 86.328C95.6727 87.7093 95.5513 88.8293 95.5513 89.688V89.828L95.4953 92.516C95.458 93.3187 95.4393 94.224 95.4393 95.232C95.4393 95.9413 95.4673 96.52 95.5233 96.968C95.6167 97.64 95.7753 98.2 95.9993 98.648C96.2233 99.152 96.606 99.516 97.1473 99.74C97.4273 99.852 97.7353 99.908 98.0713 99.908C98.2767 99.908 98.482 99.8333 98.6873 99.684C98.93 99.684 99.126 99.74 99.2753 99.852C99.4433 99.9453 99.5273 100.095 99.5273 100.3C99.5273 101.028 99.014 101.392 97.9873 101.392ZM103.624 100.552L103.596 99.46C103.577 99.1427 103.568 98.788 103.568 98.396L103.596 97.444C103.54 97.2387 103.4 95.1947 103.176 91.312C102.952 87.4293 102.821 84.9373 102.784 83.836C101.701 83.7987 101.01 83.6867 100.712 83.5C100.506 83.3507 100.404 83.1827 100.404 82.996C100.404 82.8467 100.497 82.716 100.684 82.604C100.889 82.4733 101.094 82.408 101.3 82.408C101.822 82.408 102.457 82.4453 103.204 82.52C103.913 82.6133 104.548 82.66 105.108 82.66L105.332 82.66H105.556C106.134 82.66 106.424 82.884 106.424 83.332C106.424 83.556 106.33 83.7427 106.144 83.892C105.957 84.0227 105.742 84.088 105.5 84.088C105.332 84.088 105.089 84.06 104.772 84.004L104.212 83.892L104.184 84.032L104.156 84.172C104.156 85.8333 104.314 88.484 104.632 92.124C104.93 95.54 105.08 98.1907 105.08 100.076C105.08 100.3 104.977 100.496 104.772 100.664C104.585 100.832 104.37 100.916 104.128 100.916L103.624 100.552ZM112.496 101.532C112.01 101.532 111.562 101.373 111.152 101.056C110.741 100.757 110.405 100.347 110.144 99.824C109.602 98.6853 109.266 97.444 109.136 96.1C108.968 94.8307 108.884 93.608 108.884 92.432C108.884 92.208 108.893 92.0213 108.912 91.872V91.368C108.912 91.2747 108.902 91.228 108.884 91.228V90.724L108.912 88.764C108.93 88.1667 109.005 87.2147 109.136 85.908C109.229 85.012 109.444 84.144 109.78 83.304C109.91 82.9307 110.078 82.6507 110.284 82.464C110.489 82.2587 110.722 82.156 110.984 82.156C111.73 82.156 112.402 82.296 113 82.576C113.597 82.8373 114.101 83.2107 114.512 83.696C114.885 84.1627 115.202 84.7413 115.464 85.432C115.725 86.104 115.912 86.8227 116.024 87.588C116.136 88.372 116.192 89.2027 116.192 90.08V90.304C116.192 90.8827 116.201 91.4053 116.22 91.872L116.248 93.468C116.248 98.844 114.997 101.532 112.496 101.532ZM112.384 100.356C112.72 100.356 113.028 100.225 113.308 99.964C113.588 99.684 113.802 99.3107 113.952 98.844C114.306 97.892 114.521 96.8653 114.596 95.764C114.689 94.812 114.736 93.9907 114.736 93.3C114.736 92.46 114.67 91.3587 114.54 89.996C114.428 88.5587 114.372 87.4853 114.372 86.776V86.272C114.334 85.5627 114.092 84.9467 113.644 84.424C113.214 83.9013 112.682 83.64 112.048 83.64C111.413 83.64 110.993 84.004 110.788 84.732C110.601 85.3107 110.508 86.0573 110.508 86.972C110.508 87.3267 110.517 87.6253 110.536 87.868V88.624L110.48 89.912C110.442 90.304 110.424 90.7333 110.424 91.2C110.424 92.208 110.452 93.2067 110.508 94.196C110.582 95.596 110.769 96.9587 111.068 98.284C111.366 99.6653 111.805 100.356 112.384 100.356ZM120.682 96.828C120.495 96.828 120.318 96.5947 120.15 96.128C119.982 95.6427 119.898 94.924 119.898 93.972C119.898 93.636 119.916 93.0013 119.954 92.068C119.991 91.3773 120.01 90.612 120.01 89.772L119.954 85.18L119.898 80.588C119.898 80.2893 120.019 80.0373 120.262 79.832C120.504 79.608 120.775 79.496 121.074 79.496C121.26 79.496 121.419 79.5613 121.55 79.692C121.68 79.8227 121.746 79.9907 121.746 80.196C121.746 81.8387 121.652 84.0693 121.466 86.888C121.26 90.0053 121.158 92.236 121.158 93.58C121.158 94.5693 121.139 95.288 121.102 95.736C121.083 96.1653 121.036 96.4547 120.962 96.604C120.906 96.7533 120.812 96.828 120.682 96.828ZM120.178 101.616C119.954 101.616 119.739 101.513 119.534 101.308C119.347 101.103 119.254 100.851 119.254 100.552C119.254 100.216 119.366 99.9267 119.59 99.684C119.814 99.4227 120.084 99.292 120.402 99.292C120.738 99.292 121.008 99.4227 121.214 99.684C121.438 99.9267 121.55 100.244 121.55 100.636C121.55 101.289 121.092 101.616 120.178 101.616Z" fill="#292D32"/>
<defs>
<filter id="filter0_d_0_3262" x="0" y="0" width="196" height="162" filterUnits="userSpaceOnUse" color-interpolation-filters="sRGB">
<feFlood flood-opacity="0" result="BackgroundImageFix"/>
<feColorMatrix in="SourceAlpha" type="matrix" values="0 0 0 0 0 0 0 0 0 0 0 0 0 0 0 0 0 0 127 0" result="hardAlpha"/>
<feOffset dy="12"/>
<feGaussianBlur stdDeviation="10"/>
<feComposite in2="hardAlpha" operator="out"/>
<feColorMatrix type="matrix" values="0 0 0 0 0 0 0 0 0 0 0 0 0 0 0 0 0 0 0.08 0"/>
<feBlend mode="normal" in2="BackgroundImageFix" result="effect1_dropShadow_0_3262"/>
<feBlend mode="normal" in="SourceGraphic" in2="effect1_dropShadow_0_3262" result="shape"/>
</filter>
</defs>
</svg>
