<svg width="210" height="184" viewBox="0 0 210 184" fill="none" xmlns="http://www.w3.org/2000/svg">
<g filter="url(#filter0_d_0_3253)">
<path d="M55.4116 29.2837C87.7977 8.04304 133.854 -2.06871 167.991 21.7896C214.382 54.234 180.118 101.891 132.772 124.433C132.82 133.213 135.557 144.013 147.079 149.787C147.079 149.787 110.492 160.034 92.6357 136.429C74.3658 138.628 56.8121 135.921 43.3802 126.258C2.09787 97.1641 21.45 51.5415 55.4116 29.2688V29.2837Z" fill="white"/>
</g>
<path d="M51.224 68C50.9253 68 50.7013 67.944 50.552 67.832C50.4213 67.72 50.356 67.5333 50.356 67.272L50.356 63.604C50.1133 63.436 49.656 63.2867 48.984 63.156C48.312 63.0253 47.6773 62.9413 47.08 62.904C46.8747 63.296 46.7253 63.772 46.632 64.332L46.52 64.892C46.5013 65.0227 46.4453 65.312 46.352 65.76C46.2587 66.208 46.156 66.6 46.044 66.936C45.932 67.2533 45.82 67.5053 45.708 67.692C44.9987 67.692 44.588 67.5053 44.476 67.132C44.6813 66.8333 44.9147 65.956 45.176 64.5L46.1 59.376C46.5107 56.9493 46.884 54.8773 47.22 53.16C47.5747 51.4427 47.948 50.0053 48.34 48.848C48.7693 47.56 49.18 46.916 49.572 46.916C49.964 46.916 50.2627 46.9907 50.468 47.14C50.468 47.8867 50.6453 49.688 51 52.544C51.3733 55.344 51.56 57.2573 51.56 58.284C51.56 59.2733 51.6627 60.692 51.868 62.54C52.0547 64.4253 52.148 65.928 52.148 67.048C52.148 67.6827 51.84 68 51.224 68ZM49.768 61.98C49.9173 61.98 50.104 61.952 50.328 61.896C50.272 61.0747 50.1787 60.0573 50.048 58.844C49.6187 54.6253 49.404 52.04 49.404 51.088V50.864C49.2173 51.0507 48.956 51.9 48.62 53.412C48.3027 54.9053 48.004 56.5107 47.724 58.228C47.444 59.9453 47.2947 61.084 47.276 61.644C48.06 61.868 48.8907 61.98 49.768 61.98ZM65.8743 67.916C65.7997 67.972 65.669 68 65.4823 68C65.333 68 65.1743 67.9813 65.0063 67.944C64.857 67.9067 64.745 67.8507 64.6703 67.776C64.577 67.6453 64.5117 67.4493 64.4743 67.188C64.4557 66.908 64.4463 66.516 64.4463 66.012L64.3623 62.064C64.3437 61.6347 64.3157 60.972 64.2783 60.076C64.2597 59.18 64.2597 58.6947 64.2783 58.62L63.5223 60.16C63.2237 60.72 62.8223 61 62.3183 61C62.0197 61 61.7117 60.9067 61.3943 60.72C60.517 60.1973 60.0597 59.376 60.0223 58.256L60.0223 57.024C60.0223 55.9973 60.041 54.7933 60.0783 53.412L60.1623 51.34C60.1623 51.2467 60.1623 51.0787 60.1623 50.836C60.181 50.5933 60.2183 50.3787 60.2743 50.192C60.3303 50.0053 60.4237 49.8467 60.5543 49.716C60.7037 49.5667 60.8903 49.492 61.1143 49.492C61.245 49.492 61.3663 49.52 61.4783 49.576C61.8143 49.744 61.9823 50.0987 61.9823 50.64C61.9823 50.8267 61.9637 51.0133 61.9263 51.2C61.9077 51.3867 61.8983 51.5547 61.8983 51.704L61.8423 52.544C61.805 53.328 61.7677 53.8973 61.7303 54.252L61.6463 55.316C61.553 56.4733 61.5063 57.22 61.5063 57.556C61.5063 57.9853 61.5343 58.368 61.5903 58.704C61.609 58.9653 61.6743 59.2267 61.7863 59.488C61.917 59.7307 62.0663 59.852 62.2343 59.852C62.365 59.852 62.5143 59.7587 62.6823 59.572C63.037 59.1053 63.289 58.6853 63.4383 58.312C63.6623 57.7333 63.8583 57.0987 64.0263 56.408C64.1943 55.6987 64.2783 55.0827 64.2783 54.56C64.3157 53.4587 64.3717 52.348 64.4463 51.228C64.4463 51.004 64.465 50.6493 64.5023 50.164C64.5023 50.108 64.5023 50.024 64.5023 49.912C64.521 49.8 64.549 49.716 64.5863 49.66C64.7543 49.4547 64.8943 49.3427 65.0063 49.324C65.305 49.2493 65.585 49.3333 65.8463 49.576C66.1077 49.8187 66.229 50.0893 66.2103 50.388L66.1263 51.62C66.0517 52.7027 65.9677 53.5147 65.8743 54.056C65.7623 54.616 65.669 55.652 65.5943 57.164L65.5103 58.676C65.4917 58.8253 65.4823 59.0493 65.4823 59.348C65.4823 59.796 65.5197 60.4493 65.5943 61.308C65.6317 61.6253 65.669 62.064 65.7063 62.624C65.7437 63.24 65.837 64.164 65.9863 65.396C66.0237 65.732 66.0983 66.236 66.2103 66.908C66.2663 67.356 66.1543 67.692 65.8743 67.916ZM71.1744 67.552L71.1464 66.46C71.1278 66.1427 71.1184 65.788 71.1184 65.396L71.1464 64.444C71.0904 64.2387 70.9504 62.1947 70.7264 58.312C70.5024 54.4293 70.3718 51.9373 70.3344 50.836C69.2518 50.7987 68.5611 50.6867 68.2624 50.5C68.0571 50.3507 67.9544 50.1827 67.9544 49.996C67.9544 49.8467 68.0478 49.716 68.2344 49.604C68.4398 49.4733 68.6451 49.408 68.8504 49.408C69.3731 49.408 70.0078 49.4453 70.7544 49.52C71.4638 49.6133 72.0984 49.66 72.6584 49.66H72.8824H73.1064C73.6851 49.66 73.9744 49.884 73.9744 50.332C73.9744 50.556 73.8811 50.7427 73.6944 50.892C73.5078 51.0227 73.2931 51.088 73.0504 51.088C72.8824 51.088 72.6398 51.06 72.3224 51.004L71.7624 50.892L71.7344 51.032L71.7064 51.172C71.7064 52.8333 71.8651 55.484 72.1824 59.124C72.4811 62.54 72.6304 65.1907 72.6304 67.076C72.6304 67.3 72.5278 67.496 72.3224 67.664C72.1358 67.832 71.9211 67.916 71.6784 67.916L71.1744 67.552ZM80.0465 68.532C79.5612 68.532 79.1132 68.3733 78.7025 68.056C78.2918 67.7573 77.9558 67.3467 77.6945 66.824C77.1532 65.6853 76.8172 64.444 76.6865 63.1C76.5185 61.8307 76.4345 60.608 76.4345 59.432C76.4345 59.208 76.4438 59.0213 76.4625 58.872V58.368C76.4625 58.2747 76.4532 58.228 76.4345 58.228V57.724L76.4625 55.764C76.4812 55.1667 76.5558 54.2147 76.6865 52.908C76.7798 52.012 76.9945 51.144 77.3305 50.304C77.4612 49.9307 77.6292 49.6507 77.8345 49.464C78.0398 49.2587 78.2732 49.156 78.5345 49.156C79.2812 49.156 79.9532 49.296 80.5505 49.576C81.1478 49.8373 81.6518 50.2107 82.0625 50.696C82.4358 51.1627 82.7532 51.7413 83.0145 52.432C83.2758 53.104 83.4625 53.8227 83.5745 54.588C83.6865 55.372 83.7425 56.2027 83.7425 57.08V57.304C83.7425 57.8827 83.7518 58.4053 83.7705 58.872L83.7985 60.468C83.7985 65.844 82.5478 68.532 80.0465 68.532ZM79.9345 67.356C80.2705 67.356 80.5785 67.2253 80.8585 66.964C81.1385 66.684 81.3532 66.3107 81.5025 65.844C81.8572 64.892 82.0718 63.8653 82.1465 62.764C82.2398 61.812 82.2865 60.9907 82.2865 60.3C82.2865 59.46 82.2212 58.3587 82.0905 56.996C81.9785 55.5587 81.9225 54.4853 81.9225 53.776V53.272C81.8852 52.5627 81.6425 51.9467 81.1945 51.424C80.7652 50.9013 80.2332 50.64 79.5985 50.64C78.9638 50.64 78.5438 51.004 78.3385 51.732C78.1518 52.3107 78.0585 53.0573 78.0585 53.972C78.0585 54.3267 78.0678 54.6253 78.0865 54.868V55.624L78.0305 56.912C77.9932 57.304 77.9745 57.7333 77.9745 58.2C77.9745 59.208 78.0025 60.2067 78.0585 61.196C78.1332 62.596 78.3198 63.9587 78.6185 65.284C78.9172 66.6653 79.3558 67.356 79.9345 67.356ZM87.2803 70.632C87.0937 70.632 86.9817 70.548 86.9443 70.38V70.212L87.6163 69.372C87.859 69.036 88.0177 68.728 88.0923 68.448C88.111 68.392 88.1203 68.308 88.1203 68.196C88.1203 68.084 88.111 68 88.0923 67.944C87.7937 67.944 87.5603 67.86 87.3923 67.692C87.243 67.5053 87.1403 67.2253 87.0843 66.852C87.0283 66.516 87.1217 66.264 87.3643 66.096C87.6257 65.9093 87.9523 65.816 88.3443 65.816C88.923 65.816 89.2683 66.124 89.3803 66.74C89.455 67.2067 89.3243 67.8227 88.9883 68.588C88.6523 69.3533 88.223 69.9787 87.7003 70.464C87.5883 70.5573 87.4763 70.6133 87.3643 70.632H87.2803ZM99.1197 67.552L99.0917 66.46C99.0731 66.1427 99.0637 65.788 99.0637 65.396L99.0917 64.444C99.0357 64.2387 98.8957 62.1947 98.6717 58.312C98.4477 54.4293 98.3171 51.9373 98.2797 50.836C97.1971 50.7987 96.5064 50.6867 96.2077 50.5C96.0024 50.3507 95.8997 50.1827 95.8997 49.996C95.8997 49.8467 95.9931 49.716 96.1797 49.604C96.3851 49.4733 96.5904 49.408 96.7957 49.408C97.3184 49.408 97.9531 49.4453 98.6997 49.52C99.4091 49.6133 100.044 49.66 100.604 49.66H100.828H101.052C101.63 49.66 101.92 49.884 101.92 50.332C101.92 50.556 101.826 50.7427 101.64 50.892C101.453 51.0227 101.238 51.088 100.996 51.088C100.828 51.088 100.585 51.06 100.268 51.004L99.7077 50.892L99.6797 51.032L99.6517 51.172C99.6517 52.8333 99.8104 55.484 100.128 59.124C100.426 62.54 100.576 65.1907 100.576 67.076C100.576 67.3 100.473 67.496 100.268 67.664C100.081 67.832 99.8664 67.916 99.6237 67.916L99.1197 67.552ZM110.232 68.252C109.802 68.252 109.485 68.1867 109.28 68.056C109.074 67.9253 108.972 67.6827 108.972 67.328C108.972 66.768 108.878 65.816 108.692 64.472L108.58 63.884L105.808 63.464C105.696 63.8933 105.537 64.7613 105.332 66.068C105.22 66.9827 105.042 67.5893 104.8 67.888C104.669 68.056 104.482 68.14 104.24 68.14C104.016 68.14 103.81 68.0747 103.624 67.944C103.437 67.7947 103.344 67.6173 103.344 67.412L103.4 67.272L103.428 67.16C104.66 62.3627 105.593 57.6307 106.228 52.964C106.228 52.8893 106.237 52.768 106.256 52.6C106.274 52.4133 106.293 52.152 106.312 51.816C106.368 51.1253 106.424 50.5747 106.48 50.164C106.554 49.7533 106.666 49.4453 106.816 49.24H107.768C108.029 49.24 108.253 49.3053 108.44 49.436C108.626 49.548 108.72 49.716 108.72 49.94C108.72 51.3587 108.916 53.468 109.308 56.268C109.681 59.1427 109.868 61.1587 109.868 62.316C109.868 62.428 109.914 62.7173 110.008 63.184C110.101 63.6133 110.148 63.8933 110.148 64.024C110.148 64.1547 110.241 64.7147 110.428 65.704C110.596 66.6 110.68 67.1787 110.68 67.44V67.468C110.68 67.8787 110.53 68.14 110.232 68.252ZM108.384 62.876C108.328 62.596 108.3 62.2507 108.3 61.84C108.3 60.16 108.15 58.0133 107.852 55.4L107.572 52.488C106.769 56.8747 106.218 60.188 105.92 62.428C106.2 62.6147 107.021 62.764 108.384 62.876ZM114.231 68.056C114.156 68.0373 114.035 68.0187 113.867 68C113.699 67.9813 113.559 67.9347 113.447 67.86C113.167 67.6733 113.055 67.356 113.111 66.908L113.139 66.292C113.214 65.284 113.251 64.528 113.251 64.024C113.251 61.0933 113.223 58.144 113.167 55.176C113.167 53.6453 113.12 52.0213 113.027 50.304C113.008 50.0053 113.074 49.7533 113.223 49.548C113.391 49.3427 113.596 49.24 113.839 49.24C114.063 49.24 114.287 49.3427 114.511 49.548C114.754 49.7533 114.866 49.996 114.847 50.276C114.716 50.836 114.651 51.956 114.651 53.636L114.651 55.876C114.651 56.2867 114.67 56.94 114.707 57.836C114.763 57.7613 114.94 57.416 115.239 56.8C115.276 56.7253 115.342 56.6133 115.435 56.464C115.528 56.296 115.594 56.128 115.631 55.96C116.247 54.0933 116.751 52.656 117.143 51.648C117.311 51.1067 117.535 50.6493 117.815 50.276C118.095 49.884 118.478 49.6133 118.963 49.464C119.131 49.408 119.355 49.4267 119.635 49.52C119.934 49.6133 120.13 49.7253 120.223 49.856C120.335 49.9867 120.391 50.1453 120.391 50.332C120.391 50.5187 120.326 50.6867 120.195 50.836C120.083 50.9853 119.934 51.0787 119.747 51.116C119.28 51.1907 118.916 51.3587 118.655 51.62C118.394 51.8813 118.198 52.1613 118.067 52.46C117.955 52.74 117.815 53.1693 117.647 53.748L116.527 56.492C116.471 56.6227 116.387 56.8467 116.275 57.164C116.182 57.4813 116.088 57.724 115.995 57.892C115.958 57.948 115.902 58.004 115.827 58.06C115.752 58.116 115.687 58.172 115.631 58.228C115.762 58.1347 115.93 58.1627 116.135 58.312C116.359 58.4613 116.583 58.6667 116.807 58.928C116.956 59.2267 117.059 59.5533 117.115 59.908C117.19 60.2627 117.236 60.468 117.255 60.524C117.292 60.8227 117.33 61.0467 117.367 61.196C117.591 61.7933 117.75 62.344 117.843 62.848C117.936 63.3333 118.002 63.912 118.039 64.584C118.095 65.256 118.282 65.844 118.599 66.348C118.692 66.3667 118.795 66.3853 118.907 66.404C119.038 66.4227 119.178 66.4413 119.327 66.46C119.626 66.4787 119.822 66.6653 119.915 67.02C119.934 67.0573 119.943 67.1227 119.943 67.216C119.943 67.4213 119.85 67.6173 119.663 67.804C119.383 68.084 119.028 68.224 118.599 68.224C118.282 68.224 117.974 68.14 117.675 67.972C117.395 67.804 117.19 67.58 117.059 67.3C116.947 67.1133 116.854 66.8613 116.779 66.544C116.648 65.7413 116.536 64.9293 116.443 64.108C116.368 62.9693 116.284 62.1107 116.191 61.532C116.116 60.9347 115.939 60.3653 115.659 59.824C115.584 59.6933 115.51 59.6 115.435 59.544C115.36 59.4693 115.258 59.432 115.127 59.432C115.015 59.432 114.875 59.46 114.707 59.516C114.67 60.86 114.651 62.1667 114.651 63.436C114.651 64.2387 114.688 65.4613 114.763 67.104C114.782 67.3093 114.744 67.4773 114.651 67.608C114.576 67.72 114.436 67.8693 114.231 68.056ZM56.992 97.456C56.4133 97.456 56.124 96.8773 56.124 95.72V93.928L56.124 92.136C56.124 91.2027 56.0587 89.98 55.928 88.468C55.7787 86.7693 55.704 85.6027 55.704 84.968L55.76 83.232C55.7973 82.728 55.816 82.1587 55.816 81.524C55.7413 81.7667 55.4333 83.0547 54.892 85.388C54.3507 87.6467 53.7907 89.7373 53.212 91.66C52.652 93.508 52.1947 94.432 51.84 94.432C51.4853 94.432 51.196 94.3293 50.972 94.124C50.7667 93.9 50.664 93.6013 50.664 93.228C50.664 92.4067 50.328 90.6613 49.656 87.992C49.0027 85.3227 48.4053 83.1387 47.864 81.44L47.696 84.604C47.5467 87.2733 47.444 89.4947 47.388 91.268C47.3507 92.9853 47.332 94.1613 47.332 94.796C47.332 94.9453 47.3413 95.0853 47.36 95.216V95.608C47.36 95.9253 47.2947 96.1587 47.164 96.308C47.0333 96.476 46.7907 96.56 46.436 96.56C46.2493 96.56 46.072 96.4853 45.904 96.336C45.736 96.2053 45.652 96.056 45.652 95.888C45.652 93.984 45.792 91.128 46.072 87.32C46.352 83.512 46.492 80.656 46.492 78.752C46.38 78.584 46.324 78.4067 46.324 78.22C46.324 77.996 46.4267 77.828 46.632 77.716C46.856 77.5853 47.1173 77.52 47.416 77.52C47.6587 77.52 48.1067 78.3973 48.76 80.152C49.4133 81.9067 50.0667 83.8947 50.72 86.116C51.3733 88.3373 51.7933 89.9427 51.98 90.932C52.1293 90.428 52.2507 89.9613 52.344 89.532L52.512 88.86C53.1093 86.2467 53.7067 83.8853 54.304 81.776C54.6587 80.488 55.004 79.48 55.34 78.752C55.676 77.968 55.984 77.576 56.264 77.576C56.5253 77.576 56.7587 77.6507 56.964 77.8C57.188 77.9307 57.3 78.108 57.3 78.332C57.3 79.676 57.356 81.692 57.468 84.38C57.5987 86.8813 57.664 88.8227 57.664 90.204L57.636 91.688L57.58 93.172C57.58 93.396 57.608 93.732 57.664 94.18L57.748 95.16C57.7667 95.328 57.776 95.4587 57.776 95.552C57.7947 95.6453 57.804 95.7013 57.804 95.72C57.8973 95.9627 57.944 96.14 57.944 96.252C57.944 96.5693 57.8507 96.8493 57.664 97.092C57.4773 97.3347 57.2533 97.456 56.992 97.456ZM64.6793 96.532C64.194 96.532 63.746 96.3733 63.3353 96.056C62.9246 95.7573 62.5886 95.3467 62.3273 94.824C61.786 93.6853 61.45 92.444 61.3193 91.1C61.1513 89.8307 61.0673 88.608 61.0673 87.432C61.0673 87.208 61.0766 87.0213 61.0953 86.872V86.368C61.0953 86.2747 61.086 86.228 61.0673 86.228V85.724L61.0953 83.764C61.114 83.1667 61.1886 82.2147 61.3193 80.908C61.4126 80.012 61.6273 79.144 61.9633 78.304C62.094 77.9307 62.262 77.6507 62.4673 77.464C62.6726 77.2587 62.906 77.156 63.1673 77.156C63.914 77.156 64.586 77.296 65.1833 77.576C65.7806 77.8373 66.2846 78.2107 66.6953 78.696C67.0686 79.1627 67.386 79.7413 67.6473 80.432C67.9086 81.104 68.0953 81.8227 68.2073 82.588C68.3193 83.372 68.3753 84.2027 68.3753 85.08L68.3753 85.304C68.3753 85.8827 68.3846 86.4053 68.4033 86.872L68.4313 88.468C68.4313 93.844 67.1806 96.532 64.6793 96.532ZM64.5673 95.356C64.9033 95.356 65.2113 95.2253 65.4913 94.964C65.7713 94.684 65.986 94.3107 66.1353 93.844C66.49 92.892 66.7046 91.8653 66.7793 90.764C66.8726 89.812 66.9193 88.9907 66.9193 88.3C66.9193 87.46 66.854 86.3587 66.7233 84.996C66.6113 83.5587 66.5553 82.4853 66.5553 81.776V81.272C66.518 80.5627 66.2753 79.9467 65.8273 79.424C65.398 78.9013 64.866 78.64 64.2313 78.64C63.5966 78.64 63.1766 79.004 62.9713 79.732C62.7846 80.3107 62.6913 81.0573 62.6913 81.972C62.6913 82.3267 62.7006 82.6253 62.7193 82.868V83.624L62.6633 84.912C62.626 85.304 62.6073 85.7333 62.6073 86.2C62.6073 87.208 62.6353 88.2067 62.6913 89.196C62.766 90.596 62.9526 91.9587 63.2513 93.284C63.55 94.6653 63.9886 95.356 64.5673 95.356ZM72.1372 96.42C71.3718 96.42 70.8678 96.0467 70.6252 95.3C70.5318 95.0573 70.4852 94.768 70.4852 94.432C70.4852 94.1707 70.5132 93.872 70.5692 93.536C70.6252 93.2 70.6625 92.976 70.6812 92.864C70.6998 92.7147 70.7652 92.5933 70.8772 92.5C71.0078 92.4067 71.1572 92.3507 71.3252 92.332C71.4932 92.332 71.6518 92.388 71.8012 92.5C71.9505 92.612 72.0532 92.7427 72.1092 92.892C72.1465 93.0787 72.1652 93.564 72.1652 94.348C72.2585 94.404 72.3518 94.4227 72.4452 94.404C72.5012 94.2547 72.5665 94.0773 72.6412 93.872C72.7345 93.648 72.7998 93.4613 72.8372 93.312C73.2105 91.5947 73.4718 90.2973 73.6212 89.42C73.7332 88.8413 73.9012 88.3373 74.1252 87.908C74.3678 87.4787 74.7225 87.096 75.1892 86.76C74.8718 86.3493 74.6292 85.7893 74.4612 85.08C74.2932 84.352 74.2092 83.6333 74.2092 82.924V81.496C74.2092 80.8427 74.1998 80.3573 74.1812 80.04C74.1812 79.816 74.1065 79.5267 73.9572 79.172C73.8265 78.8173 73.6958 78.64 73.5652 78.64C73.3972 78.6773 73.2385 78.78 73.0892 78.948C72.9958 79.172 72.9398 79.452 72.9212 79.788C72.9025 80.1053 72.8932 80.3013 72.8932 80.376C72.8372 80.8987 72.5572 81.132 72.0532 81.076C71.8665 81.0573 71.6985 80.964 71.5492 80.796C71.3998 80.6093 71.3252 80.404 71.3252 80.18C71.3252 79.788 71.4465 79.3773 71.6892 78.948C71.9318 78.5187 72.2212 78.164 72.5572 77.884C72.9118 77.604 73.2478 77.464 73.5652 77.464C73.8078 77.464 74.0598 77.548 74.3212 77.716C74.6012 77.8653 74.8345 78.0613 75.0212 78.304C75.3758 78.808 75.5532 79.6107 75.5532 80.712C75.5532 81.0293 75.5345 81.5053 75.4972 82.14L75.4692 82.7C75.4692 83.372 75.5158 84.0627 75.6092 84.772C75.7212 85.4627 75.8985 85.9947 76.1412 86.368C76.1598 86.3867 76.2065 86.396 76.2812 86.396C76.3745 86.396 76.4492 86.4053 76.5052 86.424V86.284C76.5052 84.828 76.4865 82.98 76.4492 80.74C76.4492 80.516 76.4678 80.18 76.5052 79.732L76.5332 78.78C76.5332 78.5 76.5238 78.2853 76.5052 78.136C76.4865 78.08 76.4772 78.0053 76.4772 77.912C76.4772 77.4827 76.7105 77.2213 77.1772 77.128C77.3265 77.0907 77.5038 77.156 77.7092 77.324C77.9332 77.4733 78.0825 77.66 78.1572 77.884C78.2132 78.052 78.2412 78.2387 78.2412 78.444C78.2412 78.5747 78.2318 78.668 78.2132 78.724C77.9518 79.9933 77.8212 81.188 77.8212 82.308L77.8212 86.564C78.0825 86.6573 78.3065 86.7227 78.4932 86.76C78.9038 86.816 79.1465 86.5547 79.2212 85.976C79.2772 85.7333 79.3425 85.2667 79.4172 84.576C79.4358 84.464 79.4452 84.3613 79.4452 84.268C79.4452 84.1747 79.4545 84.0813 79.4732 83.988L79.6132 82.812C79.6692 82.1587 79.7532 81.5147 79.8652 80.88C80.0892 79.7413 80.5465 78.808 81.2372 78.08C81.5172 77.8 81.8532 77.66 82.2452 77.66C82.5438 77.66 82.8238 77.744 83.0852 77.912C83.3652 78.0613 83.5705 78.276 83.7012 78.556C83.8692 78.9293 83.9812 79.312 84.0372 79.704C84.1118 80.0773 84.1678 80.5627 84.2052 81.16C84.2238 81.384 84.1678 81.5427 84.0372 81.636C83.9065 81.7107 83.6918 81.804 83.3932 81.916C83.1318 81.8413 82.9265 81.7013 82.7772 81.496C82.6465 81.2907 82.5998 81.0293 82.6372 80.712C82.6932 80.1893 82.5345 79.6947 82.1612 79.228C81.8625 79.4893 81.6385 79.7787 81.4892 80.096C81.3398 80.3947 81.2278 80.796 81.1532 81.3C81.0785 81.804 81.0132 82.1493 80.9572 82.336C80.8078 83.0453 80.7332 83.5867 80.7332 83.96C80.7332 84.3333 80.6772 84.8 80.5652 85.36C80.4532 85.92 80.3225 86.3773 80.1732 86.732C80.1172 86.844 80.0892 86.9467 80.0892 87.04C80.0892 87.208 80.1638 87.3667 80.3132 87.516C80.5745 87.796 80.7705 88.2533 80.9012 88.888C80.9572 89.1867 80.9852 89.56 80.9852 90.008L80.9572 91.1C80.9198 91.66 80.9012 92.08 80.9012 92.36C80.9012 92.696 80.9665 93.0133 81.0972 93.312C81.2465 93.592 81.4612 93.9373 81.7412 94.348C81.8158 94.46 81.9278 94.516 82.0772 94.516C82.2825 94.516 82.4598 94.4133 82.6092 94.208C82.8145 93.7413 82.9452 93.3493 83.0012 93.032C83.0572 92.7147 83.0945 92.5093 83.1132 92.416C83.1692 91.9493 83.3932 91.716 83.7852 91.716C83.9158 91.716 84.0185 91.7253 84.0932 91.744L84.4572 91.884C84.5318 92.164 84.5692 92.472 84.5692 92.808C84.5692 93.648 84.2612 94.516 83.6452 95.412C83.4958 95.636 83.2812 95.8133 83.0012 95.944C82.7398 96.0747 82.4412 96.14 82.1052 96.14C81.7505 96.14 81.4425 96.0653 81.1812 95.916C80.9198 95.748 80.7145 95.5333 80.5652 95.272C80.3225 94.7867 80.1358 94.3387 80.0052 93.928C79.8745 93.5173 79.8092 93.088 79.8092 92.64C79.8092 92.08 79.7905 91.464 79.7532 90.792C79.7158 90.12 79.6878 89.6533 79.6692 89.392L79.6132 88.636C79.6132 88.3373 79.5012 88.132 79.2772 88.02C79.0718 87.8893 78.8198 87.796 78.5212 87.74C78.2225 87.6653 77.9892 87.6093 77.8212 87.572C77.7838 88.2067 77.7652 88.6733 77.7652 88.972C77.7652 89.3267 77.7465 89.84 77.7092 90.512C77.6718 91.52 77.6625 92.2667 77.6812 92.752C77.6998 92.9947 77.7372 93.2653 77.7932 93.564C77.8492 93.8627 77.8865 94.068 77.9052 94.18C77.9798 94.4413 78.0265 94.6373 78.0452 94.768C78.0825 94.9173 78.1012 95.0387 78.1012 95.132C78.1012 95.3933 78.0265 95.608 77.8772 95.776C77.7278 95.9253 77.5038 96.0093 77.2052 96.028C76.9625 96.0467 76.8038 96 76.7292 95.888C76.6545 95.7573 76.6078 95.552 76.5892 95.272L76.6172 93.956C76.6172 93.396 76.5985 92.5373 76.5612 91.38C76.5238 90.6333 76.5052 90.064 76.5052 89.672V87.404C76.2998 87.3853 76.1318 87.432 76.0012 87.544C75.8892 87.656 75.7772 87.8053 75.6652 87.992C75.3852 88.4213 75.1798 88.8787 75.0492 89.364C74.9185 89.8493 74.7878 90.4747 74.6572 91.24L74.5452 91.884C74.3212 93.228 74.0038 94.3853 73.5932 95.356C73.4625 95.692 73.2665 95.9533 73.0052 96.14C72.7438 96.3267 72.4545 96.42 72.1372 96.42ZM91.8977 96C91.263 96 90.9457 94.46 90.9457 91.38L90.9737 89.784L91.0017 88.496V88.412V88.132C91.0204 87.9827 91.0297 87.8053 91.0297 87.6C91.0297 87.5627 91.0017 87.516 90.9457 87.46C90.8897 87.404 90.8617 87.3573 90.8617 87.32V87.292C90.7684 87.3293 90.6004 87.348 90.3577 87.348C90.115 87.348 89.8164 87.3107 89.4617 87.236C89.3497 87.2173 89.051 87.1707 88.5657 87.096V90.316C88.5657 90.8013 88.5937 91.5667 88.6497 92.612C88.7057 93.6387 88.7337 94.404 88.7337 94.908C88.7337 95.188 88.659 95.4307 88.5097 95.636C88.3604 95.8413 88.1644 95.944 87.9217 95.944C87.567 95.944 87.315 95.5987 87.1657 94.908C87.0164 94.1987 86.9417 93.2747 86.9417 92.136L86.9977 89.868C87.0164 89.2333 87.0257 88.5613 87.0257 87.852V87.376V86.984C87.0257 86.6853 87.0164 86.4893 86.9977 86.396V86.256L87.0817 84.632C87.0817 83.9227 87.0537 82.868 86.9977 81.468C86.9417 80.068 86.9137 79.0133 86.9137 78.304C86.9137 78.08 86.9884 77.884 87.1377 77.716C87.287 77.548 87.4737 77.464 87.6977 77.464C88.295 77.464 88.5937 78.024 88.5937 79.144L88.5377 82.616C88.5004 83.6613 88.4817 84.828 88.4817 86.116C88.7617 86.2093 89.2657 86.256 89.9937 86.256L91.0297 86.256C91.067 86.144 91.0857 86.032 91.0857 85.92C91.0857 85.024 91.0297 83.6987 90.9177 81.944C90.787 80.3013 90.7217 78.9667 90.7217 77.94C90.7217 77.7347 90.7964 77.5667 90.9457 77.436C91.1137 77.2867 91.3097 77.212 91.5337 77.212C91.6644 77.212 91.851 77.2587 92.0937 77.352L92.3457 77.464C92.3457 80.1147 92.439 83.652 92.6257 88.076L92.8777 95.16C92.8777 95.4213 92.775 95.6267 92.5697 95.776C92.383 95.9253 92.159 96 91.8977 96ZM99.5152 96.532C99.0299 96.532 98.5819 96.3733 98.1712 96.056C97.7606 95.7573 97.4246 95.3467 97.1632 94.824C96.6219 93.6853 96.2859 92.444 96.1552 91.1C95.9872 89.8307 95.9032 88.608 95.9032 87.432C95.9032 87.208 95.9126 87.0213 95.9312 86.872V86.368C95.9312 86.2747 95.9219 86.228 95.9032 86.228L95.9032 85.724L95.9312 83.764C95.9499 83.1667 96.0246 82.2147 96.1552 80.908C96.2486 80.012 96.4632 79.144 96.7992 78.304C96.9299 77.9307 97.0979 77.6507 97.3032 77.464C97.5086 77.2587 97.7419 77.156 98.0032 77.156C98.7499 77.156 99.4219 77.296 100.019 77.576C100.617 77.8373 101.121 78.2107 101.531 78.696C101.905 79.1627 102.222 79.7413 102.483 80.432C102.745 81.104 102.931 81.8227 103.043 82.588C103.155 83.372 103.211 84.2027 103.211 85.08V85.304C103.211 85.8827 103.221 86.4053 103.239 86.872L103.267 88.468C103.267 93.844 102.017 96.532 99.5152 96.532ZM99.4032 95.356C99.7392 95.356 100.047 95.2253 100.327 94.964C100.607 94.684 100.822 94.3107 100.971 93.844C101.326 92.892 101.541 91.8653 101.615 90.764C101.709 89.812 101.755 88.9907 101.755 88.3C101.755 87.46 101.69 86.3587 101.559 84.996C101.447 83.5587 101.391 82.4853 101.391 81.776V81.272C101.354 80.5627 101.111 79.9467 100.663 79.424C100.234 78.9013 99.7019 78.64 99.0672 78.64C98.4326 78.64 98.0126 79.004 97.8072 79.732C97.6206 80.3107 97.5272 81.0573 97.5272 81.972C97.5272 82.3267 97.5366 82.6253 97.5552 82.868V83.624L97.4992 84.912C97.4619 85.304 97.4432 85.7333 97.4432 86.2C97.4432 87.208 97.4712 88.2067 97.5272 89.196C97.6019 90.596 97.7886 91.9587 98.0872 93.284C98.3859 94.6653 98.8246 95.356 99.4032 95.356ZM112.534 96C111.937 96.0373 111.657 95.7387 111.694 95.104L111.722 93.172C111.741 92.7613 111.75 92.1267 111.75 91.268V89.196C111.75 88.2813 111.741 87.5907 111.722 87.124C111.704 86.5267 111.694 85.64 111.694 84.464L111.694 81.832V81.132C111.694 80.628 111.676 80.208 111.638 79.872C111.62 79.536 111.554 79.1813 111.442 78.808C111.405 78.6587 111.386 78.5467 111.386 78.472C111.386 78.1547 111.498 77.8747 111.722 77.632C111.965 77.3893 112.264 77.2587 112.618 77.24C113.122 77.2213 113.608 77.1933 114.074 77.156C114.56 77.1187 115.026 77.0533 115.474 76.96C115.642 76.8853 115.829 76.932 116.034 77.1C116.24 77.2493 116.361 77.4173 116.398 77.604C116.436 77.7533 116.398 77.9027 116.286 78.052C116.174 78.1827 116.025 78.276 115.838 78.332C115.446 78.444 114.597 78.5747 113.29 78.724L113.038 85.64C113.897 85.7333 114.56 85.976 115.026 86.368C115.493 86.76 115.81 87.4413 115.978 88.412C116.184 89.1773 116.286 89.9987 116.286 90.876C116.286 91.436 116.23 92.0147 116.118 92.612C115.857 93.8253 115.232 94.7213 114.242 95.3C114.13 95.3747 113.962 95.4773 113.738 95.608C113.533 95.7387 113.328 95.8413 113.122 95.916C112.936 95.972 112.74 96 112.534 96ZM113.094 94.488C113.468 94.376 113.804 94.152 114.102 93.816C114.401 93.48 114.597 93.116 114.69 92.724C114.858 91.996 114.942 91.2867 114.942 90.596C114.942 89.868 114.858 89.1587 114.69 88.468C114.578 88.02 114.401 87.6747 114.158 87.432C113.934 87.1707 113.58 87.0307 113.094 87.012L113.094 94.488ZM126.548 96.28C126.007 96.28 125.736 96.0747 125.736 95.664C125.736 95.5707 125.736 95.3747 125.736 95.076C125.736 94.7773 125.755 94.4973 125.792 94.236C125.867 93.564 125.904 92.7707 125.904 91.856C125.904 90.9787 125.867 89.7933 125.792 88.3C125.755 87.46 125.717 86.1627 125.68 84.408L125.596 80.992L125.568 79.816L125.54 77.716C125.54 77.4173 125.708 77.2493 126.044 77.212C126.38 77.1933 126.66 77.2867 126.884 77.492C127.108 77.6973 127.22 77.9587 127.22 78.276C127.22 78.7427 127.201 79.48 127.164 80.488L127.08 87.684C127.061 87.9267 127.052 88.2533 127.052 88.664C127.071 89.0747 127.08 89.476 127.08 89.868V91.548L127.08 92.556C127.043 93.732 127.089 94.712 127.22 95.496C127.257 95.7573 127.211 95.9533 127.08 96.084C126.968 96.2147 126.791 96.28 126.548 96.28ZM119.968 96.28C119.707 96.28 119.473 96.2427 119.268 96.168C119.063 96.0933 118.969 95.9067 118.988 95.608C119.025 95.1787 119.053 94.6467 119.072 94.012C119.091 93.3773 119.1 92.9387 119.1 92.696C119.1 91.632 119.128 90.512 119.184 89.336C119.221 88.888 119.24 88.1787 119.24 87.208C119.24 86.6667 119.231 86.0227 119.212 85.276C119.193 84.5293 119.175 83.9693 119.156 83.596C119.137 83.2787 119.119 82.9053 119.1 82.476C119.081 82.0467 119.072 81.5707 119.072 81.048C119.035 80.4133 119.016 79.9187 119.016 79.564L118.988 78.836C118.988 78.7427 118.988 78.556 118.988 78.276C118.988 77.9773 119.035 77.744 119.128 77.576C119.24 77.408 119.427 77.324 119.688 77.324C119.931 77.324 120.136 77.4267 120.304 77.632C120.472 77.8187 120.556 78.0427 120.556 78.304C120.556 78.5093 120.575 78.8547 120.612 79.34C120.649 80.1987 120.668 80.88 120.668 81.384C120.668 82 120.621 82.6067 120.528 83.204C120.491 83.316 120.472 83.5027 120.472 83.764C120.472 83.988 120.491 84.3053 120.528 84.716C120.677 84.772 120.995 84.8933 121.48 85.08C121.965 85.248 122.385 85.4533 122.74 85.696C123.095 85.92 123.375 86.1813 123.58 86.48C124.215 87.5067 124.532 88.3933 124.532 89.14C124.532 90.2973 124.448 91.5853 124.28 93.004C124.187 93.844 123.916 94.4693 123.468 94.88C123.02 95.2907 122.367 95.6453 121.508 95.944C121.284 96.0187 121.013 96.084 120.696 96.14C120.379 96.196 120.136 96.2427 119.968 96.28ZM120.528 94.768C120.752 94.8053 120.92 94.824 121.032 94.824C121.405 94.824 121.713 94.6933 121.956 94.432C122.609 93.7973 122.936 93.0413 122.936 92.164C122.973 91.3053 122.992 90.5307 122.992 89.84C122.992 88.608 122.899 87.8147 122.712 87.46C122.581 87.0493 122.32 86.704 121.928 86.424C121.536 86.144 121.088 85.948 120.584 85.836C120.453 87.1613 120.388 88.6453 120.388 90.288C120.388 91.688 120.435 93.1813 120.528 94.768ZM130.387 96.616C130.238 96.616 130.107 96.5693 129.995 96.476C129.883 96.3827 129.799 96.2613 129.743 96.112C129.724 96.0747 129.715 96.0187 129.715 95.944C129.715 95.7013 129.846 95.5053 130.107 95.356C130.63 95.132 131.022 94.796 131.283 94.348C131.563 93.8813 131.759 93.34 131.871 92.724C132.207 90.8947 132.375 88.9067 132.375 86.76C132.375 85.9573 132.366 85.3507 132.347 84.94C132.216 81.7853 132.104 79.564 132.011 78.276V78.164C132.011 77.996 132.048 77.8653 132.123 77.772C132.198 77.6787 132.328 77.6133 132.515 77.576C133.71 77.352 134.662 77.24 135.371 77.24C135.744 77.24 136.024 77.2493 136.211 77.268C136.64 77.2867 136.967 77.4173 137.191 77.66C137.415 77.9027 137.527 78.2387 137.527 78.668L137.555 80.152C137.592 81.4587 137.611 82.4387 137.611 83.092L137.583 84.436C137.583 86.4147 137.658 88.916 137.807 91.94C137.882 93.3027 137.947 94.3573 138.003 95.104C138.022 95.44 137.966 95.6827 137.835 95.832C137.723 95.9813 137.527 96.0747 137.247 96.112C136.631 96.1493 136.304 95.86 136.267 95.244C136.323 94.7027 136.351 94.1613 136.351 93.62C136.351 93.0787 136.342 92.6307 136.323 92.276L136.295 89.084C136.295 87.5347 136.267 85.948 136.211 84.324C136.174 82.98 136.118 81.7107 136.043 80.516C135.968 79.3213 135.894 78.5933 135.819 78.332C135.707 78.3507 135.474 78.3973 135.119 78.472C134.764 78.5467 134.279 78.612 133.663 78.668C133.607 79.5267 133.579 80.1427 133.579 80.516C133.579 80.9453 133.607 81.3187 133.663 81.636C133.7 82.14 133.738 82.8773 133.775 83.848V84.464C133.775 87.488 133.747 89.532 133.691 90.596C133.654 90.8947 133.635 91.128 133.635 91.296C133.56 92.08 133.486 92.6773 133.411 93.088C133.224 94.0773 132.655 95.0853 131.703 96.112C131.442 96.4107 131.022 96.5787 130.443 96.616H130.387ZM144.824 96.532C144.339 96.532 143.891 96.3733 143.48 96.056C143.069 95.7573 142.733 95.3467 142.472 94.824C141.931 93.6853 141.595 92.444 141.464 91.1C141.296 89.8307 141.212 88.608 141.212 87.432C141.212 87.208 141.221 87.0213 141.24 86.872V86.368C141.24 86.2747 141.231 86.228 141.212 86.228V85.724L141.24 83.764C141.259 83.1667 141.333 82.2147 141.464 80.908C141.557 80.012 141.772 79.144 142.108 78.304C142.239 77.9307 142.407 77.6507 142.612 77.464C142.817 77.2587 143.051 77.156 143.312 77.156C144.059 77.156 144.731 77.296 145.328 77.576C145.925 77.8373 146.429 78.2107 146.84 78.696C147.213 79.1627 147.531 79.7413 147.792 80.432C148.053 81.104 148.24 81.8227 148.352 82.588C148.464 83.372 148.52 84.2027 148.52 85.08V85.304C148.52 85.8827 148.529 86.4053 148.548 86.872L148.576 88.468C148.576 93.844 147.325 96.532 144.824 96.532ZM144.712 95.356C145.048 95.356 145.356 95.2253 145.636 94.964C145.916 94.684 146.131 94.3107 146.28 93.844C146.635 92.892 146.849 91.8653 146.924 90.764C147.017 89.812 147.064 88.9907 147.064 88.3C147.064 87.46 146.999 86.3587 146.868 84.996C146.756 83.5587 146.7 82.4853 146.7 81.776V81.272C146.663 80.5627 146.42 79.9467 145.972 79.424C145.543 78.9013 145.011 78.64 144.376 78.64C143.741 78.64 143.321 79.004 143.116 79.732C142.929 80.3107 142.836 81.0573 142.836 81.972C142.836 82.3267 142.845 82.6253 142.864 82.868V83.624L142.808 84.912C142.771 85.304 142.752 85.7333 142.752 86.2C142.752 87.208 142.78 88.2067 142.836 89.196C142.911 90.596 143.097 91.9587 143.396 93.284C143.695 94.6653 144.133 95.356 144.712 95.356ZM153.486 92.948C153.112 92.948 152.888 92.7427 152.814 92.332C152.814 91.1933 152.898 89.952 153.066 88.608C153.252 87.264 153.514 85.6307 153.85 83.708L153.99 82.896C154.251 81.272 154.382 79.9093 154.382 78.808C154.382 77.072 154.102 76.204 153.542 76.204C153.187 76.204 153.01 76.624 153.01 77.464C153.01 77.6693 153.075 78.1733 153.206 78.976C153.206 78.9947 153.159 79.0507 153.066 79.144C152.748 79.424 152.515 79.564 152.366 79.564C151.843 79.564 151.582 78.9387 151.582 77.688V77.408C151.582 76.9227 151.628 76.512 151.722 76.176C151.834 75.8213 152.03 75.5133 152.31 75.252C152.627 74.9907 153.019 74.86 153.486 74.86C153.896 74.86 154.251 74.9347 154.55 75.084C154.848 75.2333 155.091 75.4387 155.278 75.7C155.576 76.148 155.763 76.8107 155.838 77.688C155.856 77.8933 155.866 78.2573 155.866 78.78C155.866 80.4227 155.586 82.2147 155.026 84.156C154.783 84.9587 154.578 85.976 154.41 87.208C154.242 88.4213 154.158 89.6813 154.158 90.988C154.158 92.0147 154.167 92.64 154.186 92.864C153.85 92.864 153.663 92.8827 153.626 92.92C153.588 92.9387 153.542 92.948 153.486 92.948ZM153.486 96.112C153.206 96.112 152.982 96 152.814 95.776C152.608 95.5893 152.506 95.356 152.506 95.076C152.506 94.8147 152.618 94.572 152.842 94.348C153.066 94.1053 153.318 93.984 153.598 93.984C153.822 93.984 154.046 94.1053 154.27 94.348C154.494 94.5907 154.606 94.824 154.606 95.048C154.606 95.7573 154.232 96.112 153.486 96.112ZM160.447 91.828C160.261 91.828 160.083 91.5947 159.915 91.128C159.747 90.6427 159.663 89.924 159.663 88.972C159.663 88.636 159.682 88.0013 159.719 87.068C159.757 86.3773 159.775 85.612 159.775 84.772L159.719 80.18L159.663 75.588C159.663 75.2893 159.785 75.0373 160.027 74.832C160.27 74.608 160.541 74.496 160.839 74.496C161.026 74.496 161.185 74.5613 161.315 74.692C161.446 74.8227 161.511 74.9907 161.511 75.196C161.511 76.8387 161.418 79.0693 161.231 81.888C161.026 85.0053 160.923 87.236 160.923 88.58C160.923 89.5693 160.905 90.288 160.867 90.736C160.849 91.1653 160.802 91.4547 160.727 91.604C160.671 91.7533 160.578 91.828 160.447 91.828ZM159.943 96.616C159.719 96.616 159.505 96.5133 159.299 96.308C159.113 96.1027 159.019 95.8507 159.019 95.552C159.019 95.216 159.131 94.9267 159.355 94.684C159.579 94.4227 159.85 94.292 160.167 94.292C160.503 94.292 160.774 94.4227 160.979 94.684C161.203 94.9267 161.315 95.244 161.315 95.636C161.315 96.2893 160.858 96.616 159.943 96.616Z" fill="#292D32"/>
<defs>
<filter id="filter0_d_0_3253" x="0" y="0" width="210" height="184" filterUnits="userSpaceOnUse" color-interpolation-filters="sRGB">
<feFlood flood-opacity="0" result="BackgroundImageFix"/>
<feColorMatrix in="SourceAlpha" type="matrix" values="0 0 0 0 0 0 0 0 0 0 0 0 0 0 0 0 0 0 127 0" result="hardAlpha"/>
<feOffset dy="12"/>
<feGaussianBlur stdDeviation="10"/>
<feComposite in2="hardAlpha" operator="out"/>
<feColorMatrix type="matrix" values="0 0 0 0 0 0 0 0 0 0 0 0 0 0 0 0 0 0 0.08 0"/>
<feBlend mode="normal" in2="BackgroundImageFix" result="effect1_dropShadow_0_3253"/>
<feBlend mode="normal" in="SourceGraphic" in2="effect1_dropShadow_0_3253" result="shape"/>
</filter>
</defs>
</svg>
