<svg width="196" height="161" viewBox="0 0 196 161" fill="none" xmlns="http://www.w3.org/2000/svg">
<g filter="url(#filter0_d_0_3291)">
<path d="M50.5703 16.1283L116.703 8.28483C133.229 7.1035 158.033 9.06781 169.835 24.3839C182.822 42.0488 173.375 89.1645 159.203 102.118C155.003 105.95 148.613 108.231 141.231 109.549C140.914 116.211 142.264 124.728 150.031 129C150.031 129 124.608 128.148 114.954 111.17C104.432 111.033 94.3375 110.36 87.1623 110.36C63.5434 110.36 32.832 107.997 23.3982 80.909C13.9507 56.1698 24.5826 23.1888 50.5565 16.1283H50.5703Z" fill="white"/>
</g>
<path d="M46.48 59.12C46.0693 59.12 45.7053 58.9893 45.388 58.728C45.0893 58.4667 44.856 58.1213 44.688 57.692C44.408 56.9453 44.268 56.1427 44.268 55.284C44.268 54.164 44.4827 52.596 44.912 50.58C45.3413 48.6013 45.556 47.1453 45.556 46.212C45.556 45.708 45.4627 45.12 45.276 44.448C45.0893 43.776 44.8653 43.1227 44.604 42.488C44.3427 41.8347 44.1187 41.1627 43.932 40.472C43.7453 39.7627 43.652 39.128 43.652 38.568C43.652 37.84 43.82 37.2333 44.156 36.748C44.492 36.2627 44.968 36.02 45.584 36.02H46.172C46.7693 36.412 47.1707 36.7667 47.376 37.084C47.5253 37.308 47.6373 37.504 47.712 37.672C47.7867 37.8213 47.8333 38.036 47.852 38.316C47.8893 38.6893 47.908 39.268 47.908 40.052C47.908 40.6493 47.8893 41.116 47.852 41.452L47.768 42.096C47.7493 42.3573 47.6747 42.8147 47.544 43.468C47.4693 43.804 47.432 44 47.432 44.056C47.4133 44.1493 47.3573 44.4107 47.264 44.84L47.096 45.568L46.928 46.212C47.5813 47.7053 48.1133 49.3947 48.524 51.28C48.9347 53.1653 49.14 54.864 49.14 56.376C49.14 56.4507 49.1493 56.516 49.168 56.572V56.768L49.14 57.048L49.112 57.16V57.188C48.552 58.476 47.6747 59.12 46.48 59.12ZM46.06 44.224C46.4707 42.824 46.676 41.4333 46.676 40.052C46.676 39.5667 46.6013 38.988 46.452 38.316C46.3213 37.6253 46.1627 37.28 45.976 37.28H45.388C45.1267 37.5787 44.996 38.0453 44.996 38.68C44.996 39.2587 45.108 40.1453 45.332 41.34C45.5747 42.516 45.8173 43.4773 46.06 44.224ZM46.508 57.916C46.9747 57.916 47.3107 57.7573 47.516 57.44C47.74 57.104 47.852 56.656 47.852 56.096C47.852 54.8827 47.7307 53.6507 47.488 52.4C47.2453 51.1307 46.8627 49.5813 46.34 47.752C46.0787 48.6107 45.8827 49.7493 45.752 51.168C45.6213 52.568 45.556 53.9773 45.556 55.396V55.424C45.556 55.9093 45.6773 56.3947 45.92 56.88V57.02C45.9387 57.244 46.004 57.4493 46.116 57.636C46.228 57.8227 46.3587 57.916 46.508 57.916ZM53.9687 49.04C53.726 49.04 53.5114 48.9653 53.3247 48.816C53.138 48.648 53.0447 48.452 53.0447 48.228C53.0447 48.004 53.2687 47.808 53.7167 47.64C54.3514 47.3973 55.4527 47.2293 57.0207 47.136C57.618 47.0987 58.0007 47.08 58.1687 47.08C58.4114 47.08 58.626 47.164 58.8127 47.332C58.9994 47.4813 59.0927 47.668 59.0927 47.892C59.0927 48.116 58.8687 48.312 58.4207 48.48C57.786 48.7227 56.6847 48.8907 55.1167 48.984C54.5194 49.0213 54.1367 49.04 53.9687 49.04ZM74.3514 59.456C73.7727 59.456 73.4834 58.8773 73.4834 57.72V55.928V54.136C73.4834 53.2027 73.418 51.98 73.2874 50.468C73.138 48.7693 73.0634 47.6027 73.0634 46.968L73.1194 45.232C73.1567 44.728 73.1754 44.1587 73.1754 43.524C73.1007 43.7667 72.7927 45.0547 72.2514 47.388C71.71 49.6467 71.15 51.7373 70.5714 53.66C70.0114 55.508 69.554 56.432 69.1994 56.432C68.8447 56.432 68.5554 56.3293 68.3314 56.124C68.126 55.9 68.0234 55.6013 68.0234 55.228C68.0234 54.4067 67.6874 52.6613 67.0154 49.992C66.362 47.3227 65.7647 45.1387 65.2234 43.44L65.0554 46.604C64.906 49.2733 64.8034 51.4947 64.7474 53.268C64.71 54.9853 64.6914 56.1613 64.6914 56.796C64.6914 56.9453 64.7007 57.0853 64.7194 57.216V57.608C64.7194 57.9253 64.654 58.1587 64.5234 58.308C64.3927 58.476 64.15 58.56 63.7954 58.56C63.6087 58.56 63.4314 58.4853 63.2634 58.336C63.0954 58.2053 63.0114 58.056 63.0114 57.888C63.0114 55.984 63.1514 53.128 63.4314 49.32C63.7114 45.512 63.8514 42.656 63.8514 40.752C63.7394 40.584 63.6834 40.4067 63.6834 40.22C63.6834 39.996 63.786 39.828 63.9914 39.716C64.2154 39.5853 64.4767 39.52 64.7754 39.52C65.018 39.52 65.466 40.3973 66.1194 42.152C66.7727 43.9067 67.426 45.8947 68.0794 48.116C68.7327 50.3373 69.1527 51.9427 69.3394 52.932C69.4887 52.428 69.61 51.9613 69.7034 51.532L69.8714 50.86C70.4687 48.2467 71.066 45.8853 71.6634 43.776C72.018 42.488 72.3634 41.48 72.6994 40.752C73.0354 39.968 73.3434 39.576 73.6234 39.576C73.8847 39.576 74.118 39.6507 74.3234 39.8C74.5474 39.9307 74.6594 40.108 74.6594 40.332C74.6594 41.676 74.7154 43.692 74.8274 46.38C74.958 48.8813 75.0234 50.8227 75.0234 52.204L74.9954 53.688L74.9394 55.172C74.9394 55.396 74.9674 55.732 75.0234 56.18L75.1074 57.16C75.126 57.328 75.1354 57.4587 75.1354 57.552C75.154 57.6453 75.1634 57.7013 75.1634 57.72C75.2567 57.9627 75.3034 58.14 75.3034 58.252C75.3034 58.5693 75.21 58.8493 75.0234 59.092C74.8367 59.3347 74.6127 59.456 74.3514 59.456ZM84.2787 58.252C83.8494 58.252 83.532 58.1867 83.3267 58.056C83.1214 57.9253 83.0187 57.6827 83.0187 57.328C83.0187 56.768 82.9254 55.816 82.7387 54.472L82.6267 53.884L79.8547 53.464C79.7427 53.8933 79.584 54.7613 79.3787 56.068C79.2667 56.9827 79.0894 57.5893 78.8467 57.888C78.716 58.056 78.5294 58.14 78.2867 58.14C78.0627 58.14 77.8574 58.0747 77.6707 57.944C77.484 57.7947 77.3907 57.6173 77.3907 57.412L77.4467 57.272L77.4747 57.16C78.7067 52.3627 79.64 47.6307 80.2747 42.964C80.2747 42.8893 80.284 42.768 80.3027 42.6C80.3214 42.4133 80.34 42.152 80.3587 41.816C80.4147 41.1253 80.4707 40.5747 80.5267 40.164C80.6014 39.7533 80.7134 39.4453 80.8627 39.24L81.8147 39.24C82.076 39.24 82.3 39.3053 82.4867 39.436C82.6734 39.548 82.7667 39.716 82.7667 39.94C82.7667 41.3587 82.9627 43.468 83.3547 46.268C83.728 49.1427 83.9147 51.1587 83.9147 52.316C83.9147 52.428 83.9614 52.7173 84.0547 53.184C84.148 53.6133 84.1947 53.8933 84.1947 54.024C84.1947 54.1547 84.288 54.7147 84.4747 55.704C84.6427 56.6 84.7267 57.1787 84.7267 57.44V57.468C84.7267 57.8787 84.5774 58.14 84.2787 58.252ZM82.4307 52.876C82.3747 52.596 82.3467 52.2507 82.3467 51.84C82.3467 50.16 82.1974 48.0133 81.8987 45.4L81.6187 42.488C80.816 46.8747 80.2654 50.188 79.9667 52.428C80.2467 52.6147 81.068 52.764 82.4307 52.876ZM92.0299 58.476C91.6192 58.476 91.2459 58.028 90.9099 57.132C90.5179 56.1613 90.2285 55.1627 90.0419 54.136L89.8459 53.184C89.3045 50.5147 88.9592 48.9933 88.8099 48.62H88.4739C88.4739 49.1613 88.4645 49.656 88.4459 50.104V51.644C88.4459 54.1453 88.6232 56.096 88.9779 57.496L88.6699 58.252L87.8859 58.252L87.5219 57.832L87.5499 55.956C87.5499 54.276 87.4659 51.728 87.2979 48.312C87.1485 44.672 87.0739 42.124 87.0739 40.668C87.0739 39.772 87.3819 39.324 87.9979 39.324C89.0059 39.324 89.8272 39.5853 90.4619 40.108C91.1152 40.6307 91.4419 41.3587 91.4419 42.292V44.252C91.4419 44.532 91.3952 44.8587 91.3019 45.232C91.2085 45.5867 91.1059 45.876 90.9939 46.1L90.4619 47.108L90.0139 47.948L90.1539 48.62L90.5459 50.608C90.8072 52.0453 91.0592 53.212 91.3019 54.108C91.5445 55.004 91.8432 55.816 92.1979 56.544L92.3659 56.88C92.5525 57.2533 92.6459 57.552 92.6459 57.776C92.6459 57.9627 92.5899 58.1213 92.4779 58.252C92.3659 58.4013 92.2165 58.476 92.0299 58.476ZM88.5859 47.248C88.9965 47.0427 89.3419 46.4827 89.6219 45.568C89.9205 44.6347 90.0699 43.776 90.0699 42.992C90.0699 42.3947 89.9952 41.8347 89.8459 41.312C89.7525 41.0133 89.5939 40.7893 89.3699 40.64C89.1645 40.472 88.9032 40.388 88.5859 40.388L88.5299 40.528L88.4739 40.78L88.5299 44.084C88.5672 45.0547 88.5859 46.1093 88.5859 47.248ZM96.9557 57.552L96.9277 56.46C96.909 56.1427 96.8997 55.788 96.8997 55.396L96.9277 54.444C96.8717 54.2387 96.7317 52.1947 96.5077 48.312C96.2837 44.4293 96.153 41.9373 96.1157 40.836C95.033 40.7987 94.3424 40.6867 94.0437 40.5C93.8384 40.3507 93.7357 40.1827 93.7357 39.996C93.7357 39.8467 93.829 39.716 94.0157 39.604C94.221 39.4733 94.4264 39.408 94.6317 39.408C95.1544 39.408 95.789 39.4453 96.5357 39.52C97.245 39.6133 97.8797 39.66 98.4397 39.66H98.6637H98.8877C99.4664 39.66 99.7557 39.884 99.7557 40.332C99.7557 40.556 99.6624 40.7427 99.4757 40.892C99.289 41.0227 99.0744 41.088 98.8317 41.088C98.6637 41.088 98.421 41.06 98.1037 41.004L97.5437 40.892L97.5157 41.032L97.4877 41.172C97.4877 42.8333 97.6464 45.484 97.9637 49.124C98.2624 52.54 98.4117 55.1907 98.4117 57.076C98.4117 57.3 98.309 57.496 98.1037 57.664C97.917 57.832 97.7024 57.916 97.4597 57.916L96.9557 57.552ZM106.192 58.224C105.669 58.224 105.193 58.1307 104.764 57.944C104.334 57.7387 103.97 57.4773 103.672 57.16C103.429 56.8987 103.205 56.516 103 56.012C102.794 55.508 102.645 55.0227 102.552 54.556C102.458 54.2013 102.384 53.688 102.328 53.016C102.272 52.344 102.234 51.7653 102.216 51.28V49.656V48.536C102.216 47.4533 102.234 46.5667 102.272 45.876C102.309 45.036 102.43 44.1493 102.636 43.216C102.804 42.376 103.093 41.6387 103.504 41.004C103.896 40.3693 104.446 39.9307 105.156 39.688C105.492 39.5573 105.884 39.492 106.332 39.492C107.134 39.492 107.536 39.7253 107.536 40.192C107.536 40.416 107.442 40.6027 107.256 40.752C107.088 40.8827 106.882 40.948 106.64 40.948C106.528 40.948 106.425 40.9387 106.332 40.92C106.257 40.9013 106.164 40.892 106.052 40.892C105.734 40.892 105.454 41.06 105.212 41.396C104.969 41.732 104.764 42.1987 104.596 42.796C104.297 43.9533 104.092 45.2133 103.98 46.576C103.905 47.8453 103.868 48.788 103.868 49.404C103.868 50.0387 103.896 50.9067 103.952 52.008C104.026 53.0347 104.185 53.9307 104.428 54.696C104.558 55.144 104.708 55.508 104.876 55.788C105.062 56.0493 105.296 56.2733 105.576 56.46C105.893 56.6653 106.22 56.768 106.556 56.768C107.452 56.768 107.9 55.2747 107.9 52.288L107.9 51C107.769 50.944 107.554 50.916 107.256 50.916H107.004H106.696C106.042 50.916 105.716 50.7013 105.716 50.272C105.716 50.0107 105.8 49.8147 105.968 49.684C106.154 49.5347 106.388 49.46 106.668 49.46V49.488L107.06 49.488C108.74 49.488 109.58 49.7773 109.58 50.356C109.58 50.524 109.533 50.86 109.44 51.364C109.328 51.812 109.272 52.148 109.272 52.372C109.272 52.6893 109.3 53.184 109.356 53.856L109.412 55.34C109.412 56.236 109.094 56.9453 108.46 57.468C107.844 57.972 107.088 58.224 106.192 58.224ZM117.747 58.252C117.318 58.252 117.001 58.1867 116.795 58.056C116.59 57.9253 116.487 57.6827 116.487 57.328C116.487 56.768 116.394 55.816 116.207 54.472L116.095 53.884L113.323 53.464C113.211 53.8933 113.053 54.7613 112.847 56.068C112.735 56.9827 112.558 57.5893 112.315 57.888C112.185 58.056 111.998 58.14 111.755 58.14C111.531 58.14 111.326 58.0747 111.139 57.944C110.953 57.7947 110.859 57.6173 110.859 57.412L110.915 57.272L110.943 57.16C112.175 52.3627 113.109 47.6307 113.743 42.964C113.743 42.8893 113.753 42.768 113.771 42.6C113.79 42.4133 113.809 42.152 113.827 41.816C113.883 41.1253 113.939 40.5747 113.995 40.164C114.07 39.7533 114.182 39.4453 114.331 39.24L115.283 39.24C115.545 39.24 115.769 39.3053 115.955 39.436C116.142 39.548 116.235 39.716 116.235 39.94C116.235 41.3587 116.431 43.468 116.823 46.268C117.197 49.1427 117.383 51.1587 117.383 52.316C117.383 52.428 117.43 52.7173 117.523 53.184C117.617 53.6133 117.663 53.8933 117.663 54.024C117.663 54.1547 117.757 54.7147 117.943 55.704C118.111 56.6 118.195 57.1787 118.195 57.44V57.468C118.195 57.8787 118.046 58.14 117.747 58.252ZM115.899 52.876C115.843 52.596 115.815 52.2507 115.815 51.84C115.815 50.16 115.666 48.0133 115.367 45.4L115.087 42.488C114.285 46.8747 113.734 50.188 113.435 52.428C113.715 52.6147 114.537 52.764 115.899 52.876ZM45.276 85.552L45.248 84.46C45.2293 84.1427 45.22 83.788 45.22 83.396L45.248 82.444C45.192 82.2387 45.052 80.1947 44.828 76.312C44.604 72.4293 44.4733 69.9373 44.436 68.836C43.3533 68.7987 42.6627 68.6867 42.364 68.5C42.1587 68.3507 42.056 68.1827 42.056 67.996C42.056 67.8467 42.1493 67.716 42.336 67.604C42.5413 67.4733 42.7467 67.408 42.952 67.408C43.4747 67.408 44.1093 67.4453 44.856 67.52C45.5653 67.6133 46.2 67.66 46.76 67.66H46.984H47.208C47.7867 67.66 48.076 67.884 48.076 68.332C48.076 68.556 47.9827 68.7427 47.796 68.892C47.6093 69.0227 47.3947 69.088 47.152 69.088C46.984 69.088 46.7413 69.06 46.424 69.004L45.864 68.892L45.836 69.032L45.808 69.172C45.808 70.8333 45.9667 73.484 46.284 77.124C46.5827 80.54 46.732 83.1907 46.732 85.076C46.732 85.3 46.6293 85.496 46.424 85.664C46.2373 85.832 46.0227 85.916 45.78 85.916L45.276 85.552ZM56.3881 86.252C55.9587 86.252 55.6414 86.1867 55.4361 86.056C55.2307 85.9253 55.1281 85.6827 55.1281 85.328C55.1281 84.768 55.0347 83.816 54.8481 82.472L54.7361 81.884L51.9641 81.464C51.8521 81.8933 51.6934 82.7613 51.4881 84.068C51.3761 84.9827 51.1987 85.5893 50.9561 85.888C50.8254 86.056 50.6387 86.14 50.3961 86.14C50.1721 86.14 49.9667 86.0747 49.7801 85.944C49.5934 85.7947 49.5001 85.6173 49.5001 85.412L49.5561 85.272L49.5841 85.16C50.8161 80.3627 51.7494 75.6307 52.3841 70.964C52.3841 70.8893 52.3934 70.768 52.4121 70.6C52.4307 70.4133 52.4494 70.152 52.4681 69.816C52.5241 69.1253 52.5801 68.5747 52.6361 68.164C52.7107 67.7533 52.8227 67.4453 52.9721 67.24H53.9241C54.1854 67.24 54.4094 67.3053 54.5961 67.436C54.7827 67.548 54.8761 67.716 54.8761 67.94C54.8761 69.3587 55.0721 71.468 55.4641 74.268C55.8374 77.1427 56.0241 79.1587 56.0241 80.316C56.0241 80.428 56.0707 80.7173 56.1641 81.184C56.2574 81.6133 56.3041 81.8933 56.3041 82.024C56.3041 82.1547 56.3974 82.7147 56.5841 83.704C56.7521 84.6 56.8361 85.1787 56.8361 85.44V85.468C56.8361 85.8787 56.6867 86.14 56.3881 86.252ZM54.5401 80.876C54.4841 80.596 54.4561 80.2507 54.4561 79.84C54.4561 78.16 54.3067 76.0133 54.0081 73.4L53.7281 70.488C52.9254 74.8747 52.3747 78.188 52.0761 80.428C52.3561 80.6147 53.1774 80.764 54.5401 80.876ZM59.7432 86.392C59.4072 86.336 59.1179 86.2147 58.8752 86.028C58.6512 85.8413 58.5206 85.5987 58.4832 85.3L58.7912 84.824C58.9032 84.824 59.0806 84.8613 59.3232 84.936C59.6032 84.992 59.8179 85.02 59.9672 85.02C60.3032 85.02 60.6019 84.8707 60.8632 84.572C61.1432 84.2733 61.3486 83.8813 61.4792 83.396C61.7219 82.5 61.8432 81.6973 61.8432 80.988C61.8432 79.756 61.4512 78.4587 60.6672 77.096L60.3592 76.564C60.0046 75.948 59.7059 75.3973 59.4632 74.912C59.2206 74.4267 59.0152 73.904 58.8472 73.344C58.6232 72.616 58.5112 71.888 58.5112 71.16C58.5112 70.3387 58.6979 69.48 59.0712 68.584C59.2579 68.1547 59.5192 67.8093 59.8552 67.548C60.2099 67.268 60.6019 67.128 61.0312 67.128C61.3672 67.128 61.6752 67.24 61.9552 67.464C62.2539 67.6693 62.4032 67.9213 62.4032 68.22C62.4032 68.388 62.3379 68.5187 62.2072 68.612C62.0766 68.7053 61.9179 68.752 61.7312 68.752C61.5259 68.752 61.3299 68.696 61.1432 68.584C60.7326 68.6027 60.4059 68.9667 60.1632 69.676C59.9579 70.3293 59.8552 70.8707 59.8552 71.3C59.8552 71.8413 59.9392 72.392 60.1072 72.952C60.2752 73.4933 60.4899 73.988 60.7512 74.436L61.3672 75.556L62.3472 77.404C62.6086 77.9267 62.8139 78.5333 62.9632 79.224C63.1312 79.9147 63.2152 80.6147 63.2152 81.324C63.2152 82.4627 62.9539 83.5453 62.4312 84.572C62.1699 85.0947 61.7966 85.5147 61.3112 85.832C60.8446 86.1493 60.3219 86.308 59.7432 86.308V86.392ZM71.0852 86C70.4506 86 70.1332 84.46 70.1332 81.38L70.1612 79.784L70.1892 78.496V78.412V78.132C70.2079 77.9827 70.2172 77.8053 70.2172 77.6C70.2172 77.5627 70.1892 77.516 70.1332 77.46C70.0772 77.404 70.0492 77.3573 70.0492 77.32V77.292C69.9559 77.3293 69.7879 77.348 69.5452 77.348C69.3026 77.348 69.0039 77.3107 68.6492 77.236C68.5372 77.2173 68.2386 77.1707 67.7532 77.096V80.316C67.7532 80.8013 67.7812 81.5667 67.8372 82.612C67.8932 83.6387 67.9212 84.404 67.9212 84.908C67.9212 85.188 67.8466 85.4307 67.6972 85.636C67.5479 85.8413 67.3519 85.944 67.1092 85.944C66.7546 85.944 66.5026 85.5987 66.3532 84.908C66.2039 84.1987 66.1292 83.2747 66.1292 82.136L66.1852 79.868C66.2039 79.2333 66.2132 78.5613 66.2132 77.852V77.376V76.984C66.2132 76.6853 66.2039 76.4893 66.1852 76.396V76.256L66.2692 74.632C66.2692 73.9227 66.2412 72.868 66.1852 71.468C66.1292 70.068 66.1012 69.0133 66.1012 68.304C66.1012 68.08 66.1759 67.884 66.3252 67.716C66.4746 67.548 66.6612 67.464 66.8852 67.464C67.4826 67.464 67.7812 68.024 67.7812 69.144L67.7252 72.616C67.6879 73.6613 67.6692 74.828 67.6692 76.116C67.9492 76.2093 68.4532 76.256 69.1812 76.256H70.2172C70.2546 76.144 70.2732 76.032 70.2732 75.92C70.2732 75.024 70.2172 73.6987 70.1052 71.944C69.9746 70.3013 69.9092 68.9667 69.9092 67.94C69.9092 67.7347 69.9839 67.5667 70.1332 67.436C70.3012 67.2867 70.4972 67.212 70.7212 67.212C70.8519 67.212 71.0386 67.2587 71.2812 67.352L71.5332 67.464C71.5332 70.1147 71.6266 73.652 71.8132 78.076L72.0652 85.16C72.0652 85.4213 71.9626 85.6267 71.7572 85.776C71.5706 85.9253 71.3466 86 71.0852 86ZM80.9427 86.252C80.5134 86.252 80.1961 86.1867 79.9907 86.056C79.7854 85.9253 79.6827 85.6827 79.6827 85.328C79.6827 84.768 79.5894 83.816 79.4027 82.472L79.2907 81.884L76.5187 81.464C76.4067 81.8933 76.2481 82.7613 76.0427 84.068C75.9307 84.9827 75.7534 85.5893 75.5107 85.888C75.3801 86.056 75.1934 86.14 74.9507 86.14C74.7267 86.14 74.5214 86.0747 74.3347 85.944C74.1481 85.7947 74.0547 85.6173 74.0547 85.412L74.1107 85.272L74.1387 85.16C75.3707 80.3627 76.3041 75.6307 76.9387 70.964C76.9387 70.8893 76.9481 70.768 76.9667 70.6C76.9854 70.4133 77.0041 70.152 77.0227 69.816C77.0787 69.1253 77.1347 68.5747 77.1907 68.164C77.2654 67.7533 77.3774 67.4453 77.5267 67.24H78.4787C78.7401 67.24 78.9641 67.3053 79.1507 67.436C79.3374 67.548 79.4307 67.716 79.4307 67.94C79.4307 69.3587 79.6267 71.468 80.0187 74.268C80.3921 77.1427 80.5787 79.1587 80.5787 80.316C80.5787 80.428 80.6254 80.7173 80.7187 81.184C80.8121 81.6133 80.8587 81.8933 80.8587 82.024C80.8587 82.1547 80.9521 82.7147 81.1387 83.704C81.3067 84.6 81.3907 85.1787 81.3907 85.44V85.468C81.3907 85.8787 81.2414 86.14 80.9427 86.252ZM79.0947 80.876C79.0387 80.596 79.0107 80.2507 79.0107 79.84C79.0107 78.16 78.8614 76.0133 78.5627 73.4L78.2827 70.488C77.4801 74.8747 76.9294 78.188 76.6307 80.428C76.9107 80.6147 77.7321 80.764 79.0947 80.876ZM84.2979 86.392C83.9619 86.336 83.6726 86.2147 83.4299 86.028C83.2059 85.8413 83.0753 85.5987 83.0379 85.3L83.3459 84.824C83.4579 84.824 83.6353 84.8613 83.8779 84.936C84.1579 84.992 84.3726 85.02 84.5219 85.02C84.8579 85.02 85.1566 84.8707 85.4179 84.572C85.6979 84.2733 85.9033 83.8813 86.0339 83.396C86.2766 82.5 86.3979 81.6973 86.3979 80.988C86.3979 79.756 86.0059 78.4587 85.2219 77.096L84.9139 76.564C84.5593 75.948 84.2606 75.3973 84.0179 74.912C83.7753 74.4267 83.5699 73.904 83.4019 73.344C83.1779 72.616 83.0659 71.888 83.0659 71.16C83.0659 70.3387 83.2526 69.48 83.6259 68.584C83.8126 68.1547 84.0739 67.8093 84.4099 67.548C84.7646 67.268 85.1566 67.128 85.5859 67.128C85.9219 67.128 86.2299 67.24 86.5099 67.464C86.8086 67.6693 86.9579 67.9213 86.9579 68.22C86.9579 68.388 86.8926 68.5187 86.7619 68.612C86.6313 68.7053 86.4726 68.752 86.2859 68.752C86.0806 68.752 85.8846 68.696 85.6979 68.584C85.2873 68.6027 84.9606 68.9667 84.7179 69.676C84.5126 70.3293 84.4099 70.8707 84.4099 71.3C84.4099 71.8413 84.4939 72.392 84.6619 72.952C84.8299 73.4933 85.0446 73.988 85.3059 74.436L85.9219 75.556L86.9019 77.404C87.1633 77.9267 87.3686 78.5333 87.5179 79.224C87.6859 79.9147 87.7699 80.6147 87.7699 81.324C87.7699 82.4627 87.5086 83.5453 86.9859 84.572C86.7246 85.0947 86.3513 85.5147 85.8659 85.832C85.3993 86.1493 84.8766 86.308 84.2979 86.308V86.392ZM95.6399 86C95.0052 86 94.6879 84.46 94.6879 81.38L94.7159 79.784L94.7439 78.496V78.412V78.132C94.7626 77.9827 94.7719 77.8053 94.7719 77.6C94.7719 77.5627 94.7439 77.516 94.6879 77.46C94.6319 77.404 94.6039 77.3573 94.6039 77.32V77.292C94.5106 77.3293 94.3426 77.348 94.0999 77.348C93.8572 77.348 93.5586 77.3107 93.2039 77.236C93.0919 77.2173 92.7932 77.1707 92.3079 77.096V80.316C92.3079 80.8013 92.3359 81.5667 92.3919 82.612C92.4479 83.6387 92.4759 84.404 92.4759 84.908C92.4759 85.188 92.4012 85.4307 92.2519 85.636C92.1026 85.8413 91.9066 85.944 91.6639 85.944C91.3092 85.944 91.0572 85.5987 90.9079 84.908C90.7586 84.1987 90.6839 83.2747 90.6839 82.136L90.7399 79.868C90.7586 79.2333 90.7679 78.5613 90.7679 77.852V77.376V76.984C90.7679 76.6853 90.7586 76.4893 90.7399 76.396V76.256L90.8239 74.632C90.8239 73.9227 90.7959 72.868 90.7399 71.468C90.6839 70.068 90.6559 69.0133 90.6559 68.304C90.6559 68.08 90.7306 67.884 90.8799 67.716C91.0292 67.548 91.2159 67.464 91.4399 67.464C92.0372 67.464 92.3359 68.024 92.3359 69.144L92.2799 72.616C92.2426 73.6613 92.2239 74.828 92.2239 76.116C92.5039 76.2093 93.0079 76.256 93.7359 76.256H94.7719C94.8092 76.144 94.8279 76.032 94.8279 75.92C94.8279 75.024 94.7719 73.6987 94.6599 71.944C94.5292 70.3013 94.4639 68.9667 94.4639 67.94C94.4639 67.7347 94.5386 67.5667 94.6879 67.436C94.8559 67.2867 95.0519 67.212 95.2759 67.212C95.4066 67.212 95.5932 67.2587 95.8359 67.352L96.0879 67.464C96.0879 70.1147 96.1812 73.652 96.3679 78.076L96.6199 85.16C96.6199 85.4213 96.5172 85.6267 96.3119 85.776C96.1252 85.9253 95.9012 86 95.6399 86ZM105.497 86.252C105.068 86.252 104.751 86.1867 104.545 86.056C104.34 85.9253 104.237 85.6827 104.237 85.328C104.237 84.768 104.144 83.816 103.957 82.472L103.845 81.884L101.073 81.464C100.961 81.8933 100.803 82.7613 100.597 84.068C100.485 84.9827 100.308 85.5893 100.065 85.888C99.9348 86.056 99.7481 86.14 99.5054 86.14C99.2814 86.14 99.0761 86.0747 98.8894 85.944C98.7028 85.7947 98.6094 85.6173 98.6094 85.412L98.6654 85.272L98.6934 85.16C99.9254 80.3627 100.859 75.6307 101.493 70.964C101.493 70.8893 101.503 70.768 101.521 70.6C101.54 70.4133 101.559 70.152 101.577 69.816C101.633 69.1253 101.689 68.5747 101.745 68.164C101.82 67.7533 101.932 67.4453 102.081 67.24H103.033C103.295 67.24 103.519 67.3053 103.705 67.436C103.892 67.548 103.985 67.716 103.985 67.94C103.985 69.3587 104.181 71.468 104.573 74.268C104.947 77.1427 105.133 79.1587 105.133 80.316C105.133 80.428 105.18 80.7173 105.273 81.184C105.367 81.6133 105.413 81.8933 105.413 82.024C105.413 82.1547 105.507 82.7147 105.693 83.704C105.861 84.6 105.945 85.1787 105.945 85.44V85.468C105.945 85.8787 105.796 86.14 105.497 86.252ZM103.649 80.876C103.593 80.596 103.565 80.2507 103.565 79.84C103.565 78.16 103.416 76.0133 103.117 73.4L102.837 70.488C102.035 74.8747 101.484 78.188 101.185 80.428C101.465 80.6147 102.287 80.764 103.649 80.876ZM119.633 87.456C119.054 87.456 118.765 86.8773 118.765 85.72V83.928V82.136C118.765 81.2027 118.699 79.98 118.569 78.468C118.419 76.7693 118.345 75.6027 118.345 74.968L118.401 73.232C118.438 72.728 118.457 72.1587 118.457 71.524C118.382 71.7667 118.074 73.0547 117.533 75.388C116.991 77.6467 116.431 79.7373 115.853 81.66C115.293 83.508 114.835 84.432 114.481 84.432C114.126 84.432 113.837 84.3293 113.613 84.124C113.407 83.9 113.305 83.6013 113.305 83.228C113.305 82.4067 112.969 80.6613 112.297 77.992C111.643 75.3227 111.046 73.1387 110.505 71.44L110.337 74.604C110.187 77.2733 110.085 79.4947 110.029 81.268C109.991 82.9853 109.973 84.1613 109.973 84.796C109.973 84.9453 109.982 85.0853 110.001 85.216V85.608C110.001 85.9253 109.935 86.1587 109.805 86.308C109.674 86.476 109.431 86.56 109.077 86.56C108.89 86.56 108.713 86.4853 108.545 86.336C108.377 86.2053 108.293 86.056 108.293 85.888C108.293 83.984 108.433 81.128 108.713 77.32C108.993 73.512 109.133 70.656 109.133 68.752C109.021 68.584 108.965 68.4067 108.965 68.22C108.965 67.996 109.067 67.828 109.273 67.716C109.497 67.5853 109.758 67.52 110.057 67.52C110.299 67.52 110.747 68.3973 111.401 70.152C112.054 71.9067 112.707 73.8947 113.361 76.116C114.014 78.3373 114.434 79.9427 114.621 80.932C114.77 80.428 114.891 79.9613 114.985 79.532L115.153 78.86C115.75 76.2467 116.347 73.8853 116.945 71.776C117.299 70.488 117.645 69.48 117.981 68.752C118.317 67.968 118.625 67.576 118.905 67.576C119.166 67.576 119.399 67.6507 119.605 67.8C119.829 67.9307 119.941 68.108 119.941 68.332C119.941 69.676 119.997 71.692 120.109 74.38C120.239 76.8813 120.305 78.8227 120.305 80.204L120.277 81.688L120.221 83.172C120.221 83.396 120.249 83.732 120.305 84.18L120.389 85.16C120.407 85.328 120.417 85.4587 120.417 85.552C120.435 85.6453 120.445 85.7013 120.445 85.72C120.538 85.9627 120.585 86.14 120.585 86.252C120.585 86.5693 120.491 86.8493 120.305 87.092C120.118 87.3347 119.894 87.456 119.633 87.456ZM125.444 85.972C123.82 85.972 123.008 85.692 123.008 85.132C123.008 84.684 123.297 84.46 123.876 84.46H124.184L124.464 84.488C124.613 84.488 124.716 84.4413 124.772 84.348C124.828 84.2547 124.856 84.0867 124.856 83.844C124.856 83.5267 124.837 83.032 124.8 82.36C124.744 81.912 124.679 81.1093 124.604 79.952C124.436 77.096 124.352 74.94 124.352 73.484C124.352 72.9613 124.361 72.4853 124.38 72.056L124.408 70.628C124.408 70.012 124.38 69.4987 124.324 69.088C124.025 69.1627 123.811 69.2 123.68 69.2C123.232 69.2 123.008 68.976 123.008 68.528C123.008 68.304 123.148 68.108 123.428 67.94C123.708 67.772 124.063 67.6507 124.492 67.576C125.239 67.4267 125.901 67.352 126.48 67.352C126.704 67.352 126.891 67.436 127.04 67.604C127.208 67.7533 127.292 67.9307 127.292 68.136C127.292 68.3413 127.227 68.5187 127.096 68.668C126.984 68.8173 126.835 68.892 126.648 68.892C126.536 68.892 126.443 68.8827 126.368 68.864H126.144C125.957 68.864 125.817 68.9107 125.724 69.004C125.649 69.0787 125.612 69.228 125.612 69.452C125.612 71.2627 125.724 73.988 125.948 77.628C125.985 78.3 126.06 79.2893 126.172 80.596C126.265 81.4547 126.312 82.332 126.312 83.228V84.292C126.424 84.2733 126.611 84.264 126.872 84.264C127.656 84.264 128.048 84.5907 128.048 85.244V85.412L127.348 85.888C127.329 85.888 127.264 85.8973 127.152 85.916C127.059 85.916 126.872 85.916 126.592 85.916C125.995 85.9533 125.612 85.972 125.444 85.972ZM130.78 86.056C130.575 86.056 130.398 86 130.248 85.888C130.099 85.7573 130.024 85.5987 130.024 85.412C130.024 84.292 130.239 82.8173 130.668 80.988C131.116 79.1587 131.76 76.9 132.6 74.212C133.44 71.4307 133.963 69.6387 134.168 68.836C133.944 68.836 133.58 68.864 133.076 68.92C132.572 68.976 132.171 69.004 131.872 69.004C131.686 69.004 131.518 68.9293 131.368 68.78C131.219 68.612 131.144 68.4253 131.144 68.22C131.144 67.6787 132.171 67.408 134.224 67.408C135.158 67.408 135.624 67.6693 135.624 68.192C135.624 68.7893 135.419 69.676 135.008 70.852C134.616 71.8973 134.374 72.6907 134.28 73.232C134.094 74.5573 133.608 76.7227 132.824 79.728L131.592 84.572H132.096L132.684 84.516C132.852 84.4973 133.048 84.488 133.272 84.488V84.46C134.019 84.46 134.392 84.6933 134.392 85.16C134.392 85.3653 134.299 85.5333 134.112 85.664C133.926 85.776 133.692 85.832 133.412 85.832C133.114 85.832 132.843 85.8227 132.6 85.804L131.76 85.748C131.648 85.748 131.49 85.804 131.284 85.916C131.042 86.0093 130.874 86.056 130.78 86.056ZM146.477 72.98C146.235 72.98 146.02 72.8867 145.833 72.7C145.647 72.4947 145.553 72.2613 145.553 72C145.553 71.72 145.656 71.468 145.861 71.244C146.067 71.02 146.309 70.908 146.589 70.908C146.851 70.908 147.084 71.02 147.289 71.244C147.495 71.4493 147.597 71.692 147.597 71.972C147.597 72.2707 147.495 72.5133 147.289 72.7C147.084 72.8867 146.813 72.98 146.477 72.98ZM145.665 85.58C145.572 85.58 145.497 85.552 145.441 85.496C145.385 85.44 145.357 85.3747 145.357 85.3V85.132L146.029 84.292C146.309 83.9 146.468 83.592 146.505 83.368C146.524 83.312 146.533 83.228 146.533 83.116C146.533 83.004 146.524 82.92 146.505 82.864C146.207 82.864 145.973 82.78 145.805 82.612C145.656 82.4253 145.553 82.1453 145.497 81.772C145.441 81.436 145.535 81.184 145.777 81.016C146.02 80.8293 146.337 80.736 146.729 80.736C147.457 80.736 147.821 81.128 147.821 81.912C147.821 82.3973 147.653 82.9853 147.317 83.676C147 84.3667 146.599 84.936 146.113 85.384C146.001 85.4587 145.889 85.5147 145.777 85.552L145.665 85.58ZM152.101 90.144C151.915 90.144 151.747 90.0787 151.597 89.948C151.448 89.836 151.373 89.6867 151.373 89.5C151.373 89.22 151.635 88.6227 152.157 87.708C152.4 87.2787 152.531 87.036 152.549 86.98C153.221 85.5053 153.781 83.5733 154.229 81.184C154.696 78.7947 154.929 76.6853 154.929 74.856C154.929 73.3813 154.817 71.8973 154.593 70.404C154.388 68.892 154.089 67.6413 153.697 66.652C153.604 66.428 153.464 66.1573 153.277 65.84C153.053 65.4107 152.895 65.0653 152.801 64.804C152.708 64.524 152.661 64.2533 152.661 63.992V63.824L153.193 63.432C153.716 63.432 154.192 63.9267 154.621 64.916C155.293 66.4653 155.797 68.9013 156.133 72.224C156.264 73.288 156.329 74.156 156.329 74.828V74.856C156.329 75.5093 156.208 76.6387 155.965 78.244C155.741 79.8493 155.452 81.5387 155.097 83.312C154.743 85.0853 154.295 86.672 153.753 88.072C153.193 89.4533 152.643 90.144 152.101 90.144Z" fill="#292D32"/>
<defs>
<filter id="filter0_d_0_3291" x="0" y="0" width="196" height="161" filterUnits="userSpaceOnUse" color-interpolation-filters="sRGB">
<feFlood flood-opacity="0" result="BackgroundImageFix"/>
<feColorMatrix in="SourceAlpha" type="matrix" values="0 0 0 0 0 0 0 0 0 0 0 0 0 0 0 0 0 0 127 0" result="hardAlpha"/>
<feOffset dy="12"/>
<feGaussianBlur stdDeviation="10"/>
<feComposite in2="hardAlpha" operator="out"/>
<feColorMatrix type="matrix" values="0 0 0 0 0 0 0 0 0 0 0 0 0 0 0 0 0 0 0.08 0"/>
<feBlend mode="normal" in2="BackgroundImageFix" result="effect1_dropShadow_0_3291"/>
<feBlend mode="normal" in="SourceGraphic" in2="effect1_dropShadow_0_3291" result="shape"/>
</filter>
</defs>
</svg>
