<svg width="227" height="194" viewBox="0 0 227 194" fill="none" xmlns="http://www.w3.org/2000/svg">
<g filter="url(#filter0_d_0_4088)">
<path d="M92.0553 8.00631C121.49 8.40483 111.377 6.75641 140.613 10.8865C175.584 15.8499 207.032 30.6696 206.001 66.5C204.09 132.605 194 133 106.747 136.707C98.117 145.166 77.9598 160.551 53.5002 162C53.5002 162 65.7323 149.498 66.1484 127.073C47.0002 123 28.8912 104.567 23.0002 85.5C11.4276 48.0434 50.3819 7.44168 92.0553 8.00631Z" fill="white"/>
</g>
<path d="M58.5803 66.42C58.3376 66.42 58.151 66.3267 58.0203 66.14C57.9083 65.972 57.8523 65.7573 57.8523 65.496C57.8523 61.5947 57.7776 58.3 57.6283 55.612C57.1803 55.5373 56.863 55.5 56.6763 55.5C55.911 55.5 55.3603 55.5653 55.0243 55.696C55.0243 56.7413 55.1083 58.3187 55.2763 60.428C55.4256 62.668 55.5003 64.2547 55.5003 65.188C55.5003 65.3747 55.4443 65.552 55.3323 65.72C55.2203 65.8693 55.0803 65.944 54.9123 65.944C54.6696 65.944 54.4456 65.5147 54.2403 64.656C53.9416 63.3867 53.699 60.7267 53.5123 56.676C53.3816 53.932 53.3163 50.9827 53.3163 47.828C53.2976 47.2493 53.2883 46.428 53.2883 45.364C53.2883 45.028 53.447 44.86 53.7643 44.86C53.951 44.86 54.1376 44.9067 54.3243 45C54.5296 45.0933 54.679 45.196 54.7723 45.308C54.6976 45.9053 54.6603 46.6053 54.6603 47.408C54.6603 48.192 54.6976 49.144 54.7723 50.264C54.8283 51.552 54.8563 52.5227 54.8563 53.176V53.68C54.8376 53.8293 54.8283 54.0067 54.8283 54.212C54.8283 54.3987 54.847 54.6413 54.8843 54.94C54.9963 54.94 55.183 54.9307 55.4443 54.912C55.7056 54.8933 55.967 54.8653 56.2283 54.828C56.8443 54.772 57.3016 54.744 57.6003 54.744C57.6003 53.12 57.5816 51.6173 57.5443 50.236L57.4883 45.56V44.804C57.731 44.804 57.9456 44.8507 58.1323 44.944C58.319 45.0187 58.459 45.1213 58.5523 45.252C58.7203 45.4573 58.823 45.812 58.8603 46.316L58.8603 46.96C58.8603 48.5653 58.9536 51.636 59.1403 56.172C59.3083 60.2787 59.3923 63.3587 59.3923 65.412C59.3923 65.6733 59.3083 65.9067 59.1403 66.112C58.991 66.3173 58.8043 66.42 58.5803 66.42ZM64.3505 65.972C62.7265 65.972 61.9145 65.692 61.9145 65.132C61.9145 64.684 62.2038 64.46 62.7825 64.46H63.0905L63.3705 64.488C63.5198 64.488 63.6225 64.4413 63.6785 64.348C63.7345 64.2547 63.7625 64.0867 63.7625 63.844C63.7625 63.5267 63.7438 63.032 63.7065 62.36C63.6505 61.912 63.5852 61.1093 63.5105 59.952C63.3425 57.096 63.2585 54.94 63.2585 53.484C63.2585 52.9613 63.2678 52.4853 63.2865 52.056L63.3145 50.628C63.3145 50.012 63.2865 49.4987 63.2305 49.088C62.9318 49.1627 62.7172 49.2 62.5865 49.2C62.1385 49.2 61.9145 48.976 61.9145 48.528C61.9145 48.304 62.0545 48.108 62.3345 47.94C62.6145 47.772 62.9692 47.6507 63.3985 47.576C64.1452 47.4267 64.8078 47.352 65.3865 47.352C65.6105 47.352 65.7972 47.436 65.9465 47.604C66.1145 47.7533 66.1985 47.9307 66.1985 48.136C66.1985 48.3413 66.1332 48.5187 66.0025 48.668C65.8905 48.8173 65.7412 48.892 65.5545 48.892C65.4425 48.892 65.3492 48.8827 65.2745 48.864H65.0505C64.8638 48.864 64.7238 48.9107 64.6305 49.004C64.5558 49.0787 64.5185 49.228 64.5185 49.452C64.5185 51.2627 64.6305 53.988 64.8545 57.628C64.8918 58.3 64.9665 59.2893 65.0785 60.596C65.1718 61.4547 65.2185 62.332 65.2185 63.228V64.292C65.3305 64.2733 65.5172 64.264 65.7785 64.264C66.5625 64.264 66.9545 64.5907 66.9545 65.244V65.412L66.2545 65.888C66.2358 65.888 66.1705 65.8973 66.0585 65.916C65.9652 65.916 65.7785 65.916 65.4985 65.916C64.9012 65.9533 64.5185 65.972 64.3505 65.972ZM69.6869 68.632C69.5002 68.632 69.3882 68.548 69.3509 68.38V68.212L70.0229 67.372C70.2656 67.036 70.4242 66.728 70.4989 66.448C70.5176 66.392 70.5269 66.308 70.5269 66.196C70.5269 66.084 70.5176 66 70.4989 65.944C70.2002 65.944 69.9669 65.86 69.7989 65.692C69.6496 65.5053 69.5469 65.2253 69.4909 64.852C69.4349 64.516 69.5282 64.264 69.7709 64.096C70.0322 63.9093 70.3589 63.816 70.7509 63.816C71.3296 63.816 71.6749 64.124 71.7869 64.74C71.8616 65.2067 71.7309 65.8227 71.3949 66.588C71.0589 67.3533 70.6296 67.9787 70.1069 68.464C69.9949 68.5573 69.8829 68.6133 69.7709 68.632H69.6869ZM86.4716 65.972C84.8476 65.972 84.0356 65.692 84.0356 65.132C84.0356 64.684 84.3249 64.46 84.9036 64.46H85.2116L85.4916 64.488C85.6409 64.488 85.7436 64.4413 85.7996 64.348C85.8556 64.2547 85.8836 64.0867 85.8836 63.844C85.8836 63.5267 85.8649 63.032 85.8276 62.36C85.7716 61.912 85.7063 61.1093 85.6316 59.952C85.4636 57.096 85.3796 54.94 85.3796 53.484C85.3796 52.9613 85.3889 52.4853 85.4076 52.056L85.4356 50.628C85.4356 50.012 85.4076 49.4987 85.3516 49.088C85.0529 49.1627 84.8383 49.2 84.7076 49.2C84.2596 49.2 84.0356 48.976 84.0356 48.528C84.0356 48.304 84.1756 48.108 84.4556 47.94C84.7356 47.772 85.0903 47.6507 85.5196 47.576C86.2663 47.4267 86.9289 47.352 87.5076 47.352C87.7316 47.352 87.9183 47.436 88.0676 47.604C88.2356 47.7533 88.3196 47.9307 88.3196 48.136C88.3196 48.3413 88.2543 48.5187 88.1236 48.668C88.0116 48.8173 87.8623 48.892 87.6756 48.892C87.5636 48.892 87.4703 48.8827 87.3956 48.864L87.1716 48.864C86.9849 48.864 86.8449 48.9107 86.7516 49.004C86.6769 49.0787 86.6396 49.228 86.6396 49.452C86.6396 51.2627 86.7516 53.988 86.9756 57.628C87.0129 58.3 87.0876 59.2893 87.1996 60.596C87.2929 61.4547 87.3396 62.332 87.3396 63.228V64.292C87.4516 64.2733 87.6383 64.264 87.8996 64.264C88.6836 64.264 89.0756 64.5907 89.0756 65.244L89.0756 65.412L88.3756 65.888C88.3569 65.888 88.2916 65.8973 88.1796 65.916C88.0863 65.916 87.8996 65.916 87.6196 65.916C87.0223 65.9533 86.6396 65.972 86.4716 65.972ZM104.145 66.084C103.921 66.084 103.753 66.028 103.641 65.916C103.529 65.7853 103.445 65.5707 103.389 65.272L103.221 64.74V64.684V64.6C103.221 63.984 102.577 61.884 101.289 58.3C100.02 54.716 99.0213 52.0653 98.2933 50.348L98.2933 64.432L98.4053 64.628C98.4239 64.6653 98.4613 64.7307 98.5173 64.824C98.5733 64.9173 98.6013 65.0107 98.6013 65.104C98.6013 65.3467 98.5173 65.552 98.3493 65.72C98.1813 65.888 97.9759 65.972 97.7333 65.972C97.1359 65.972 96.8373 65.4027 96.8373 64.264L96.8093 59.476C96.7906 58.0387 96.7813 56.4333 96.7813 54.66C96.7813 54.0627 96.8093 53.1947 96.8653 52.056C96.9213 50.88 96.9493 50.012 96.9493 49.452C96.9493 48.5747 97.2853 47.884 97.9573 47.38V47.548C98.0693 47.5107 98.1439 47.492 98.1813 47.492C98.6106 47.492 99.1519 48.2387 99.8053 49.732C100.328 50.9267 100.795 52.1867 101.205 53.512C101.635 54.8373 102.195 56.7227 102.885 59.168L103.165 60.176C103.595 61.688 103.921 62.7707 104.145 63.424C104.519 59.4107 104.705 54.6693 104.705 49.2V48.836C104.687 48.724 104.677 48.6027 104.677 48.472C104.677 47.912 104.901 47.632 105.349 47.632C105.611 47.632 105.807 47.7347 105.937 47.94C106.087 48.1453 106.161 48.4067 106.161 48.724L106.161 50.824C106.124 53.6987 106.012 56.816 105.825 60.176C105.639 63.536 105.415 65.4307 105.153 65.86C104.612 66.0093 104.276 66.084 104.145 66.084ZM111.188 66.364C110.945 66.364 110.721 66.28 110.516 66.112C110.329 65.944 110.226 65.7387 110.208 65.496L110.208 64.768V64.208C110.189 64.04 110.18 63.844 110.18 63.62C110.18 63.228 110.152 62.6307 110.096 61.828L110.04 60.036C110.04 59.1213 110.068 57.7587 110.124 55.948C110.198 54.324 110.236 52.9613 110.236 51.86C110.236 51.5987 110.208 51.2067 110.152 50.684C110.096 50.1427 110.068 49.7507 110.068 49.508C110.068 48.1827 110.46 47.52 111.244 47.52C111.86 47.52 112.569 47.6413 113.372 47.884C114.193 48.1267 114.604 48.416 114.604 48.752C114.604 48.9387 114.52 49.116 114.352 49.284C114.202 49.4333 114.016 49.5547 113.792 49.648C113.008 49.368 112.298 49.1813 111.664 49.088C111.682 49.368 111.692 49.7693 111.692 50.292C111.692 51.0387 111.682 51.7107 111.664 52.308C111.608 53.204 111.58 53.876 111.58 54.324L111.664 54.772L112.112 54.744C112.261 54.7253 112.448 54.716 112.672 54.716C113.568 54.716 114.016 54.9773 114.016 55.5C114.016 55.7053 113.932 55.8827 113.764 56.032C113.596 56.1627 113.381 56.228 113.12 56.228C112.784 56.228 112.522 56.2093 112.336 56.172H111.636C111.673 56.6573 111.692 57.3667 111.692 58.3C111.692 59.2333 111.682 60.0733 111.664 60.82C111.608 61.9587 111.58 62.808 111.58 63.368C111.58 64.4133 111.598 64.936 111.636 64.936L112.56 64.908C112.877 64.8893 113.26 64.88 113.708 64.88C114.417 64.88 114.772 65.104 114.772 65.552C114.772 65.8133 114.65 66.0093 114.408 66.14C114.184 66.2893 113.904 66.364 113.568 66.364L111.188 66.364ZM119.145 66.364C118.902 66.364 118.678 66.28 118.473 66.112C118.286 65.944 118.183 65.7387 118.165 65.496V64.768V64.208C118.146 64.04 118.137 63.844 118.137 63.62C118.137 63.228 118.109 62.6307 118.053 61.828L117.997 60.036C117.997 59.1213 118.025 57.7587 118.081 55.948C118.155 54.324 118.193 52.9613 118.193 51.86C118.193 51.5987 118.165 51.2067 118.109 50.684C118.053 50.1427 118.025 49.7507 118.025 49.508C118.025 48.1827 118.417 47.52 119.201 47.52C119.817 47.52 120.526 47.6413 121.329 47.884C122.15 48.1267 122.561 48.416 122.561 48.752C122.561 48.9387 122.477 49.116 122.309 49.284C122.159 49.4333 121.973 49.5547 121.749 49.648C120.965 49.368 120.255 49.1813 119.621 49.088C119.639 49.368 119.649 49.7693 119.649 50.292C119.649 51.0387 119.639 51.7107 119.621 52.308C119.565 53.204 119.537 53.876 119.537 54.324L119.621 54.772L120.069 54.744C120.218 54.7253 120.405 54.716 120.629 54.716C121.525 54.716 121.973 54.9773 121.973 55.5C121.973 55.7053 121.889 55.8827 121.721 56.032C121.553 56.1627 121.338 56.228 121.077 56.228C120.741 56.228 120.479 56.2093 120.293 56.172H119.593C119.63 56.6573 119.649 57.3667 119.649 58.3C119.649 59.2333 119.639 60.0733 119.621 60.82C119.565 61.9587 119.537 62.808 119.537 63.368C119.537 64.4133 119.555 64.936 119.593 64.936L120.517 64.908C120.834 64.8893 121.217 64.88 121.665 64.88C122.374 64.88 122.729 65.104 122.729 65.552C122.729 65.8133 122.607 66.0093 122.365 66.14C122.141 66.2893 121.861 66.364 121.525 66.364H119.145ZM126.71 66.168C126.224 66.168 125.982 64.9453 125.982 62.5L126.038 58.076C126.056 56.7693 126.066 55.304 126.066 53.68C126.066 53.0827 126.01 52.1587 125.898 50.908C125.804 49.5453 125.758 48.7147 125.758 48.416C125.758 48.1733 125.86 47.9587 126.066 47.772C126.271 47.5853 126.495 47.492 126.738 47.492C127.391 47.492 128.016 47.6413 128.614 47.94C129.23 48.22 129.771 48.6213 130.238 49.144C131.227 50.2827 131.88 51.5333 132.198 52.896C132.366 53.5867 132.45 54.268 132.45 54.94C132.45 55.1827 132.44 55.4067 132.422 55.612L132.394 56.368V57.908C132.394 59.1027 132.356 60.0453 132.282 60.736C132.17 61.6693 131.955 62.5 131.638 63.228C131.264 64.012 130.723 64.712 130.014 65.328C129.678 65.608 129.248 65.888 128.726 66.168H126.71ZM127.942 64.74C128.315 64.74 128.66 64.6467 128.978 64.46C129.295 64.2547 129.566 63.984 129.79 63.648C129.976 63.3493 130.144 62.976 130.294 62.528C130.462 62.0613 130.583 61.6133 130.658 61.184C130.826 60.344 130.928 59.4853 130.966 58.608C130.984 58.384 130.994 58.0573 130.994 57.628C130.994 51.9907 129.902 49.0507 127.718 48.808C127.587 49.648 127.522 50.6187 127.522 51.72C127.522 52.896 127.596 54.9493 127.746 57.88C127.876 60.4747 127.942 62.5373 127.942 64.068V64.74ZM56.0043 94.392C55.687 94.392 55.4256 94.1867 55.2203 93.776C55.4256 93.384 55.5283 91.7973 55.5283 89.016C55.5283 88.3627 55.4816 87.6533 55.3883 86.888L55.3043 86.076C55.2483 85.572 55.2203 85.1893 55.2203 84.928V84.2C55.0336 83.7333 54.6883 82.8653 54.1843 81.596C53.699 80.3267 53.307 79.2627 53.0083 78.404C52.6536 77.4147 52.4763 76.7427 52.4763 76.388V76.248L53.1203 75.772C53.4376 75.8093 53.7736 76.22 54.1283 77.004C54.427 77.6947 54.7536 78.684 55.1083 79.972C55.4816 81.26 55.6683 81.9413 55.6683 82.016C55.743 81.8107 55.8923 81.1107 56.1163 79.916C56.3403 78.7213 56.5923 77.6667 56.8723 76.752C57.1896 75.8373 57.5163 75.38 57.8523 75.38C58.039 75.38 58.1976 75.436 58.3283 75.548C58.4776 75.66 58.5523 75.8 58.5523 75.968C58.5523 76.92 58.291 78.264 57.7683 80C57.2083 81.8853 56.9283 83.248 56.9283 84.088L56.9283 92.516C56.9283 93.7667 56.6203 94.392 56.0043 94.392ZM64.914 94.532C64.4287 94.532 63.9807 94.3733 63.57 94.056C63.1593 93.7573 62.8233 93.3467 62.562 92.824C62.0207 91.6853 61.6847 90.444 61.554 89.1C61.386 87.8307 61.302 86.608 61.302 85.432C61.302 85.208 61.3113 85.0213 61.33 84.872V84.368C61.33 84.2747 61.3207 84.228 61.302 84.228V83.724L61.33 81.764C61.3487 81.1667 61.4233 80.2147 61.554 78.908C61.6473 78.012 61.862 77.144 62.198 76.304C62.3287 75.9307 62.4967 75.6507 62.702 75.464C62.9073 75.2587 63.1407 75.156 63.402 75.156C64.1487 75.156 64.8207 75.296 65.418 75.576C66.0153 75.8373 66.5193 76.2107 66.93 76.696C67.3033 77.1627 67.6207 77.7413 67.882 78.432C68.1433 79.104 68.33 79.8227 68.442 80.588C68.554 81.372 68.61 82.2027 68.61 83.08L68.61 83.304C68.61 83.8827 68.6193 84.4053 68.638 84.872L68.666 86.468C68.666 91.844 67.4153 94.532 64.914 94.532ZM64.802 93.356C65.138 93.356 65.446 93.2253 65.726 92.964C66.006 92.684 66.2207 92.3107 66.37 91.844C66.7247 90.892 66.9393 89.8653 67.014 88.764C67.1073 87.812 67.154 86.9907 67.154 86.3C67.154 85.46 67.0887 84.3587 66.958 82.996C66.846 81.5587 66.79 80.4853 66.79 79.776V79.272C66.7527 78.5627 66.51 77.9467 66.062 77.424C65.6327 76.9013 65.1007 76.64 64.466 76.64C63.8313 76.64 63.4113 77.004 63.206 77.732C63.0193 78.3107 62.926 79.0573 62.926 79.972C62.926 80.3267 62.9353 80.6253 62.954 80.868V81.624L62.898 82.912C62.8607 83.304 62.842 83.7333 62.842 84.2C62.842 85.208 62.87 86.2067 62.926 87.196C63.0007 88.596 63.1873 89.9587 63.486 91.284C63.7847 92.6653 64.2233 93.356 64.802 93.356ZM74.7238 94.42C74.2758 94.42 73.8745 94.3173 73.5198 94.112C73.1652 93.9253 72.8758 93.6453 72.6518 93.272C72.2038 92.488 71.9145 91.6013 71.7838 90.612C71.6532 89.7533 71.5878 88.7267 71.5878 87.532C71.5318 85.516 71.5038 83.052 71.5038 80.14L71.4758 77.984C71.4572 77.872 71.4478 77.6853 71.4478 77.424C71.4105 76.7147 71.3918 76.2853 71.3918 76.136C71.5598 75.744 71.7558 75.548 71.9798 75.548C72.2038 75.548 72.3998 75.716 72.5678 76.052C72.7545 76.388 72.8478 76.752 72.8478 77.144L72.8478 84.76C72.8478 85.5067 72.9132 86.496 73.0438 87.728C73.1745 89.2587 73.2398 90.248 73.2398 90.696C73.2398 92.0773 73.8278 92.768 75.0038 92.768C76.3478 92.768 77.0198 87.7467 77.0198 77.704V76.136V75.884C77.0012 75.828 76.9918 75.7533 76.9918 75.66C76.9918 75.436 77.0385 75.2773 77.1318 75.184C77.2438 75.072 77.4492 75.016 77.7478 75.016C77.9905 75.016 78.1772 75.0907 78.3078 75.24C78.4572 75.3707 78.5505 75.5293 78.5878 75.716C78.6065 75.828 78.6158 76.0427 78.6158 76.36C78.6158 76.6587 78.5878 77.1347 78.5318 77.788C78.4572 78.3293 78.4198 78.796 78.4198 79.188C78.4198 79.6173 78.4012 80 78.3638 80.336L78.3078 81.512V81.736C78.3265 81.8107 78.3358 81.8947 78.3358 81.988C78.3358 90.276 77.1318 94.42 74.7238 94.42ZM86.745 94.476C86.3344 94.476 85.961 94.028 85.625 93.132C85.233 92.1613 84.9437 91.1627 84.757 90.136L84.561 89.184C84.0197 86.5147 83.6744 84.9933 83.525 84.62H83.189C83.189 85.1613 83.1797 85.656 83.161 86.104V87.644C83.161 90.1453 83.3384 92.096 83.693 93.496L83.385 94.252H82.601L82.237 93.832L82.265 91.956C82.265 90.276 82.181 87.728 82.013 84.312C81.8637 80.672 81.789 78.124 81.789 76.668C81.789 75.772 82.097 75.324 82.713 75.324C83.721 75.324 84.5424 75.5853 85.177 76.108C85.8304 76.6307 86.157 77.3587 86.157 78.292V80.252C86.157 80.532 86.1104 80.8587 86.017 81.232C85.9237 81.5867 85.821 81.876 85.709 82.1L85.177 83.108L84.729 83.948L84.869 84.62L85.261 86.608C85.5224 88.0453 85.7744 89.212 86.017 90.108C86.2597 91.004 86.5584 91.816 86.913 92.544L87.081 92.88C87.2677 93.2533 87.361 93.552 87.361 93.776C87.361 93.9627 87.305 94.1213 87.193 94.252C87.081 94.4013 86.9317 94.476 86.745 94.476ZM83.301 83.248C83.7117 83.0427 84.057 82.4827 84.337 81.568C84.6357 80.6347 84.785 79.776 84.785 78.992C84.785 78.3947 84.7104 77.8347 84.561 77.312C84.4677 77.0133 84.309 76.7893 84.085 76.64C83.8797 76.472 83.6184 76.388 83.301 76.388L83.245 76.528L83.189 76.78L83.245 80.084C83.2824 81.0547 83.301 82.1093 83.301 83.248ZM100.144 94C99.5094 94 99.1921 92.46 99.1921 89.38L99.2201 87.784L99.2481 86.496V86.412V86.132C99.2668 85.9827 99.2761 85.8053 99.2761 85.6C99.2761 85.5627 99.2481 85.516 99.1921 85.46C99.1361 85.404 99.1081 85.3573 99.1081 85.32V85.292C99.0148 85.3293 98.8468 85.348 98.6041 85.348C98.3614 85.348 98.0628 85.3107 97.7081 85.236C97.5961 85.2173 97.2974 85.1707 96.8121 85.096V88.316C96.8121 88.8013 96.8401 89.5667 96.8961 90.612C96.9521 91.6387 96.9801 92.404 96.9801 92.908C96.9801 93.188 96.9054 93.4307 96.7561 93.636C96.6068 93.8413 96.4108 93.944 96.1681 93.944C95.8134 93.944 95.5614 93.5987 95.4121 92.908C95.2628 92.1987 95.1881 91.2747 95.1881 90.136L95.2441 87.868C95.2628 87.2333 95.2721 86.5613 95.2721 85.852V85.376V84.984C95.2721 84.6853 95.2628 84.4893 95.2441 84.396V84.256L95.3281 82.632C95.3281 81.9227 95.3001 80.868 95.2441 79.468C95.1881 78.068 95.1601 77.0133 95.1601 76.304C95.1601 76.08 95.2348 75.884 95.3841 75.716C95.5334 75.548 95.7201 75.464 95.9441 75.464C96.5414 75.464 96.8401 76.024 96.8401 77.144L96.7841 80.616C96.7468 81.6613 96.7281 82.828 96.7281 84.116C97.0081 84.2093 97.5121 84.256 98.2401 84.256L99.2761 84.256C99.3134 84.144 99.3321 84.032 99.3321 83.92C99.3321 83.024 99.2761 81.6987 99.1641 79.944C99.0334 78.3013 98.9681 76.9667 98.9681 75.94C98.9681 75.7347 99.0428 75.5667 99.1921 75.436C99.3601 75.2867 99.5561 75.212 99.7801 75.212C99.9108 75.212 100.097 75.2587 100.34 75.352L100.592 75.464C100.592 78.1147 100.685 81.652 100.872 86.076L101.124 93.16C101.124 93.4213 101.021 93.6267 100.816 93.776C100.629 93.9253 100.405 94 100.144 94ZM105.774 94.364C105.531 94.364 105.307 94.28 105.102 94.112C104.915 93.944 104.812 93.7387 104.794 93.496V92.768V92.208C104.775 92.04 104.766 91.844 104.766 91.62C104.766 91.228 104.738 90.6307 104.682 89.828L104.626 88.036C104.626 87.1213 104.654 85.7587 104.71 83.948C104.784 82.324 104.822 80.9613 104.822 79.86C104.822 79.5987 104.794 79.2067 104.738 78.684C104.682 78.1427 104.654 77.7507 104.654 77.508C104.654 76.1827 105.046 75.52 105.83 75.52C106.446 75.52 107.155 75.6413 107.958 75.884C108.779 76.1267 109.19 76.416 109.19 76.752C109.19 76.9387 109.106 77.116 108.938 77.284C108.788 77.4333 108.602 77.5547 108.378 77.648C107.594 77.368 106.884 77.1813 106.25 77.088C106.268 77.368 106.278 77.7693 106.278 78.292C106.278 79.0387 106.268 79.7107 106.25 80.308C106.194 81.204 106.166 81.876 106.166 82.324L106.25 82.772L106.698 82.744C106.847 82.7253 107.034 82.716 107.258 82.716C108.154 82.716 108.602 82.9773 108.602 83.5C108.602 83.7053 108.518 83.8827 108.35 84.032C108.182 84.1627 107.967 84.228 107.706 84.228C107.37 84.228 107.108 84.2093 106.922 84.172H106.222C106.259 84.6573 106.278 85.3667 106.278 86.3C106.278 87.2333 106.268 88.0733 106.25 88.82C106.194 89.9587 106.166 90.808 106.166 91.368C106.166 92.4133 106.184 92.936 106.222 92.936L107.146 92.908C107.463 92.8893 107.846 92.88 108.294 92.88C109.003 92.88 109.358 93.104 109.358 93.552C109.358 93.8133 109.236 94.0093 108.994 94.14C108.77 94.2893 108.49 94.364 108.154 94.364L105.774 94.364ZM116.755 94.448C116.083 94.224 115.252 94.112 114.263 94.112C113.964 94.2987 113.647 94.392 113.311 94.392C113.087 94.392 112.891 94.2893 112.723 94.084C112.573 93.8973 112.499 93.692 112.499 93.468C112.499 91.9 112.564 89.8093 112.695 87.196C112.807 84.4147 112.863 82.3333 112.863 80.952V80.756C112.751 79.58 112.695 78.7027 112.695 78.124C112.695 76.3507 113.021 75.464 113.675 75.464C113.861 75.464 114.02 75.5387 114.151 75.688C114.3 75.8187 114.375 75.9773 114.375 76.164C114.375 76.388 114.347 76.7427 114.291 77.228C114.235 77.6947 114.207 78.0493 114.207 78.292C114.207 79.5427 114.216 80.672 114.235 81.68C114.253 82.6693 114.263 83.7893 114.263 85.04C114.169 85.32 114.123 85.712 114.123 86.216V86.552L114.067 88.764C114.029 89.4173 114.011 90.164 114.011 91.004C114.011 92.292 114.319 92.936 114.935 92.936C114.972 92.936 115.028 92.936 115.103 92.936C115.196 92.9173 115.317 92.908 115.467 92.908C115.635 92.8893 115.849 92.88 116.111 92.88C117.119 92.88 117.623 93.16 117.623 93.72C117.623 93.9067 117.539 94.0653 117.371 94.196C117.203 94.3267 116.997 94.4107 116.755 94.448ZM120.551 94.196C120.308 93.2067 120.187 91.8347 120.187 90.08L120.243 87.588C120.28 86.8413 120.299 86.0107 120.299 85.096C120.187 84.8347 120.131 84.6013 120.131 84.396V84.312C120.318 83.9573 120.411 83.1547 120.411 81.904L120.439 80.616C120.458 80.2053 120.467 79.748 120.467 79.244C120.467 78.1427 120.392 77.2747 120.243 76.64C120.299 76.3787 120.392 76.1547 120.523 75.968C120.654 75.7627 120.812 75.66 120.999 75.66H122.231C122.754 75.66 123.211 75.7813 123.603 76.024C123.995 76.248 124.294 76.5747 124.499 77.004C124.872 77.7693 125.059 78.6747 125.059 79.72C125.059 80.4667 125.05 81.0547 125.031 81.484C124.994 82.0253 124.9 82.52 124.751 82.968C124.695 83.2107 124.611 83.416 124.499 83.584C124.406 83.7333 124.266 83.92 124.079 84.144C123.818 84.4613 123.388 84.76 122.791 85.04C122.548 85.1707 122.231 85.292 121.839 85.404V88.4L121.895 90.192L121.951 91.06C122.026 92.1053 122.063 92.992 122.063 93.72C122.063 93.944 121.97 94.1307 121.783 94.28C121.596 94.448 121.382 94.532 121.139 94.532L120.551 94.196ZM121.867 84.256C122.968 84.088 123.519 82.5107 123.519 79.524C123.519 78.9827 123.491 78.5627 123.435 78.264C123.379 78.04 123.304 77.8627 123.211 77.732C123.118 77.5827 122.978 77.4613 122.791 77.368C122.586 77.256 122.362 77.2 122.119 77.2C122.119 77.1813 122.016 77.172 121.811 77.172V78.768C121.811 79.8693 121.82 80.8493 121.839 81.708C121.839 82.6787 121.848 83.3133 121.867 83.612V84.2V84.256Z" fill="#292D32"/>
<defs>
<filter id="filter0_d_0_4088" x="0.933899" y="0.000488281" width="225.091" height="194" filterUnits="userSpaceOnUse" color-interpolation-filters="sRGB">
<feFlood flood-opacity="0" result="BackgroundImageFix"/>
<feColorMatrix in="SourceAlpha" type="matrix" values="0 0 0 0 0 0 0 0 0 0 0 0 0 0 0 0 0 0 127 0" result="hardAlpha"/>
<feOffset dy="12"/>
<feGaussianBlur stdDeviation="10"/>
<feComposite in2="hardAlpha" operator="out"/>
<feColorMatrix type="matrix" values="0 0 0 0 0 0 0 0 0 0 0 0 0 0 0 0 0 0 0.08 0"/>
<feBlend mode="normal" in2="BackgroundImageFix" result="effect1_dropShadow_0_4088"/>
<feBlend mode="normal" in="SourceGraphic" in2="effect1_dropShadow_0_4088" result="shape"/>
</filter>
</defs>
</svg>
