<svg width="193" height="204" viewBox="0 0 193 204" fill="none" xmlns="http://www.w3.org/2000/svg">
<g filter="url(#filter0_d_0_4221)">
<path d="M95.275 8.73804C148.13 0.333109 184.288 65.5736 169.774 109.881C165.711 121.559 157.6 131.255 147.165 138.668C146.533 147.655 148.478 162.073 164.778 171.092C164.778 171.092 128.034 178.206 116.161 152.613C84.3499 160.593 47.8118 153.794 31.3846 128.186C31.3846 128.186 -19.9048 27.0432 95.2434 8.73804H95.275Z" fill="white"/>
</g>
<path d="M47.668 70.336C47.4813 70.336 47.3133 70.2707 47.164 70.14C47.0333 70.0093 46.968 69.8507 46.968 69.664L47.024 66.948C47.08 65.7347 47.108 64.8293 47.108 64.232C47.108 63.6907 47.024 62.888 46.856 61.824C46.6693 60.7787 46.576 59.9667 46.576 59.388C46.576 58.6787 46.4733 57.8667 46.268 56.952C46.0627 56.0373 45.8013 55.16 45.484 54.32C45.1853 53.5173 44.9333 52.6587 44.728 51.744C44.5227 50.8107 44.42 49.9987 44.42 49.308C44.42 49.1773 44.4947 49.0653 44.644 48.972C44.7933 48.8787 44.952 48.832 45.12 48.832C45.3253 48.832 45.5213 49.0467 45.708 49.476C45.932 49.9613 46.1467 50.6427 46.352 51.52C46.5573 52.3973 46.6787 52.92 46.716 53.088L47.08 55.02L47.36 56.252C47.416 55.9533 47.4627 55.5613 47.5 55.076C47.612 53.5267 47.752 52.2387 47.92 51.212C48.0507 50.5027 48.2 49.9613 48.368 49.588C48.5547 49.1773 48.7787 48.972 49.04 48.972C49.544 48.972 49.796 49.0653 49.796 49.252C49.796 50.316 49.572 51.884 49.124 53.956C48.676 56.028 48.452 57.6053 48.452 58.688L48.396 59.136C48.3587 59.416 48.3493 59.584 48.368 59.64V60.088C48.368 60.8907 48.396 62.1227 48.452 63.784L48.508 67.508L48.564 68.152L48.62 68.824V69.524C48.62 69.748 48.5267 69.9347 48.34 70.084C48.1533 70.252 47.9293 70.336 47.668 70.336ZM56.3942 70.532C55.9088 70.532 55.4608 70.3733 55.0502 70.056C54.6395 69.7573 54.3035 69.3467 54.0422 68.824C53.5008 67.6853 53.1648 66.444 53.0342 65.1C52.8662 63.8307 52.7822 62.608 52.7822 61.432C52.7822 61.208 52.7915 61.0213 52.8102 60.872V60.368C52.8102 60.2747 52.8008 60.228 52.7822 60.228V59.724L52.8102 57.764C52.8288 57.1667 52.9035 56.2147 53.0342 54.908C53.1275 54.012 53.3422 53.144 53.6782 52.304C53.8088 51.9307 53.9768 51.6507 54.1822 51.464C54.3875 51.2587 54.6208 51.156 54.8822 51.156C55.6288 51.156 56.3008 51.296 56.8982 51.576C57.4955 51.8373 57.9995 52.2107 58.4102 52.696C58.7835 53.1627 59.1008 53.7413 59.3622 54.432C59.6235 55.104 59.8102 55.8227 59.9222 56.588C60.0342 57.372 60.0902 58.2027 60.0902 59.08V59.304C60.0902 59.8827 60.0995 60.4053 60.1182 60.872L60.1462 62.468C60.1462 67.844 58.8955 70.532 56.3942 70.532ZM56.2822 69.356C56.6182 69.356 56.9262 69.2253 57.2062 68.964C57.4862 68.684 57.7008 68.3107 57.8502 67.844C58.2048 66.892 58.4195 65.8653 58.4942 64.764C58.5875 63.812 58.6342 62.9907 58.6342 62.3C58.6342 61.46 58.5688 60.3587 58.4382 58.996C58.3262 57.5587 58.2702 56.4853 58.2702 55.776V55.272C58.2328 54.5627 57.9902 53.9467 57.5422 53.424C57.1128 52.9013 56.5808 52.64 55.9462 52.64C55.3115 52.64 54.8915 53.004 54.6862 53.732C54.4995 54.3107 54.4062 55.0573 54.4062 55.972C54.4062 56.3267 54.4155 56.6253 54.4342 56.868V57.624L54.3782 58.912C54.3408 59.304 54.3222 59.7333 54.3222 60.2C54.3222 61.208 54.3502 62.2067 54.4062 63.196C54.4808 64.596 54.6675 65.9587 54.9662 67.284C55.2648 68.6653 55.7035 69.356 56.2822 69.356ZM66.204 70.42C65.756 70.42 65.3547 70.3173 65 70.112C64.6453 69.9253 64.356 69.6453 64.132 69.272C63.684 68.488 63.3947 67.6013 63.264 66.612C63.1333 65.7533 63.068 64.7267 63.068 63.532C63.012 61.516 62.984 59.052 62.984 56.14L62.956 53.984C62.9373 53.872 62.928 53.6853 62.928 53.424C62.8907 52.7147 62.872 52.2853 62.872 52.136C63.04 51.744 63.236 51.548 63.46 51.548C63.684 51.548 63.88 51.716 64.048 52.052C64.2347 52.388 64.328 52.752 64.328 53.144L64.328 60.76C64.328 61.5067 64.3933 62.496 64.524 63.728C64.6547 65.2587 64.72 66.248 64.72 66.696C64.72 68.0773 65.308 68.768 66.484 68.768C67.828 68.768 68.5 63.7467 68.5 53.704V52.136V51.884C68.4813 51.828 68.472 51.7533 68.472 51.66C68.472 51.436 68.5187 51.2773 68.612 51.184C68.724 51.072 68.9293 51.016 69.228 51.016C69.4707 51.016 69.6573 51.0907 69.788 51.24C69.9373 51.3707 70.0307 51.5293 70.068 51.716C70.0867 51.828 70.096 52.0427 70.096 52.36C70.096 52.6587 70.068 53.1347 70.012 53.788C69.9373 54.3293 69.9 54.796 69.9 55.188C69.9 55.6173 69.8813 56 69.844 56.336L69.788 57.512V57.736C69.8067 57.8107 69.816 57.8947 69.816 57.988C69.816 66.276 68.612 70.42 66.204 70.42ZM83.9545 70.252C83.5251 70.252 83.2078 70.1867 83.0025 70.056C82.7971 69.9253 82.6945 69.6827 82.6945 69.328C82.6945 68.768 82.6011 67.816 82.4145 66.472L82.3025 65.884L79.5305 65.464C79.4185 65.8933 79.2598 66.7613 79.0545 68.068C78.9425 68.9827 78.7651 69.5893 78.5225 69.888C78.3918 70.056 78.2051 70.14 77.9625 70.14C77.7385 70.14 77.5331 70.0747 77.3465 69.944C77.1598 69.7947 77.0665 69.6173 77.0665 69.412L77.1225 69.272L77.1505 69.16C78.3825 64.3627 79.3158 59.6307 79.9505 54.964C79.9505 54.8893 79.9598 54.768 79.9785 54.6C79.9971 54.4133 80.0158 54.152 80.0345 53.816C80.0905 53.1253 80.1465 52.5747 80.2025 52.164C80.2771 51.7533 80.3891 51.4453 80.5385 51.24H81.4905C81.7518 51.24 81.9758 51.3053 82.1625 51.436C82.3491 51.548 82.4425 51.716 82.4425 51.94C82.4425 53.3587 82.6385 55.468 83.0305 58.268C83.4038 61.1427 83.5905 63.1587 83.5905 64.316C83.5905 64.428 83.6371 64.7173 83.7305 65.184C83.8238 65.6133 83.8705 65.8933 83.8705 66.024C83.8705 66.1547 83.9638 66.7147 84.1505 67.704C84.3185 68.6 84.4025 69.1787 84.4025 69.44V69.468C84.4025 69.8787 84.2531 70.14 83.9545 70.252ZM82.1065 64.876C82.0505 64.596 82.0225 64.2507 82.0225 63.84C82.0225 62.16 81.8731 60.0133 81.5745 57.4L81.2945 54.488C80.4918 58.8747 79.9411 62.188 79.6425 64.428C79.9225 64.6147 80.7438 64.764 82.1065 64.876ZM91.7057 70.476C91.295 70.476 90.9217 70.028 90.5857 69.132C90.1937 68.1613 89.9043 67.1627 89.7177 66.136L89.5217 65.184C88.9803 62.5147 88.635 60.9933 88.4857 60.62H88.1497C88.1497 61.1613 88.1403 61.656 88.1217 62.104V63.644C88.1217 66.1453 88.299 68.096 88.6537 69.496L88.3457 70.252H87.5617L87.1977 69.832L87.2257 67.956C87.2257 66.276 87.1417 63.728 86.9737 60.312C86.8243 56.672 86.7497 54.124 86.7497 52.668C86.7497 51.772 87.0577 51.324 87.6737 51.324C88.6817 51.324 89.503 51.5853 90.1377 52.108C90.791 52.6307 91.1177 53.3587 91.1177 54.292V56.252C91.1177 56.532 91.071 56.8587 90.9777 57.232C90.8843 57.5867 90.7817 57.876 90.6697 58.1L90.1377 59.108L89.6897 59.948L89.8297 60.62L90.2217 62.608C90.483 64.0453 90.735 65.212 90.9777 66.108C91.2203 67.004 91.519 67.816 91.8737 68.544L92.0417 68.88C92.2283 69.2533 92.3217 69.552 92.3217 69.776C92.3217 69.9627 92.2657 70.1213 92.1537 70.252C92.0417 70.4013 91.8923 70.476 91.7057 70.476ZM88.2617 59.248C88.6723 59.0427 89.0177 58.4827 89.2977 57.568C89.5963 56.6347 89.7457 55.776 89.7457 54.992C89.7457 54.3947 89.671 53.8347 89.5217 53.312C89.4283 53.0133 89.2697 52.7893 89.0457 52.64C88.8403 52.472 88.579 52.388 88.2617 52.388L88.2057 52.528L88.1497 52.78L88.2057 56.084C88.243 57.0547 88.2617 58.1093 88.2617 59.248ZM96.3515 70.364C96.1088 70.364 95.8848 70.28 95.6795 70.112C95.4928 69.944 95.3901 69.7387 95.3715 69.496L95.3715 68.768V68.208C95.3528 68.04 95.3435 67.844 95.3435 67.62C95.3435 67.228 95.3155 66.6307 95.2595 65.828L95.2035 64.036C95.2035 63.1213 95.2315 61.7587 95.2875 59.948C95.3621 58.324 95.3995 56.9613 95.3995 55.86C95.3995 55.5987 95.3715 55.2067 95.3155 54.684C95.2595 54.1427 95.2315 53.7507 95.2315 53.508C95.2315 52.1827 95.6235 51.52 96.4075 51.52C97.0235 51.52 97.7328 51.6413 98.5355 51.884C99.3568 52.1267 99.7675 52.416 99.7675 52.752C99.7675 52.9387 99.6835 53.116 99.5155 53.284C99.3661 53.4333 99.1795 53.5547 98.9555 53.648C98.1715 53.368 97.4621 53.1813 96.8275 53.088C96.8461 53.368 96.8555 53.7693 96.8555 54.292C96.8555 55.0387 96.8461 55.7107 96.8275 56.308C96.7715 57.204 96.7435 57.876 96.7435 58.324L96.8275 58.772L97.2755 58.744C97.4248 58.7253 97.6115 58.716 97.8355 58.716C98.7315 58.716 99.1795 58.9773 99.1795 59.5C99.1795 59.7053 99.0955 59.8827 98.9275 60.032C98.7595 60.1627 98.5448 60.228 98.2835 60.228C97.9475 60.228 97.6861 60.2093 97.4995 60.172H96.7995C96.8368 60.6573 96.8555 61.3667 96.8555 62.3C96.8555 63.2333 96.8461 64.0733 96.8275 64.82C96.7715 65.9587 96.7435 66.808 96.7435 67.368C96.7435 68.4133 96.7621 68.936 96.7995 68.936L97.7235 68.908C98.0408 68.8893 98.4235 68.88 98.8715 68.88C99.5808 68.88 99.9355 69.104 99.9355 69.552C99.9355 69.8133 99.8141 70.0093 99.5715 70.14C99.3475 70.2893 99.0675 70.364 98.7315 70.364H96.3515ZM109.534 69.972C107.91 69.972 107.098 69.692 107.098 69.132C107.098 68.684 107.387 68.46 107.966 68.46H108.274L108.554 68.488C108.703 68.488 108.806 68.4413 108.862 68.348C108.918 68.2547 108.946 68.0867 108.946 67.844C108.946 67.5267 108.927 67.032 108.89 66.36C108.834 65.912 108.768 65.1093 108.694 63.952C108.526 61.096 108.442 58.94 108.442 57.484C108.442 56.9613 108.451 56.4853 108.47 56.056L108.498 54.628C108.498 54.012 108.47 53.4987 108.414 53.088C108.115 53.1627 107.9 53.2 107.77 53.2C107.322 53.2 107.098 52.976 107.098 52.528C107.098 52.304 107.238 52.108 107.518 51.94C107.798 51.772 108.152 51.6507 108.582 51.576C109.328 51.4267 109.991 51.352 110.57 51.352C110.794 51.352 110.98 51.436 111.13 51.604C111.298 51.7533 111.382 51.9307 111.382 52.136C111.382 52.3413 111.316 52.5187 111.186 52.668C111.074 52.8173 110.924 52.892 110.738 52.892C110.626 52.892 110.532 52.8827 110.458 52.864H110.234C110.047 52.864 109.907 52.9107 109.814 53.004C109.739 53.0787 109.702 53.228 109.702 53.452C109.702 55.2627 109.814 57.988 110.038 61.628C110.075 62.3 110.15 63.2893 110.262 64.596C110.355 65.4547 110.402 66.332 110.402 67.228V68.292C110.514 68.2733 110.7 68.264 110.962 68.264C111.746 68.264 112.138 68.5907 112.138 69.244V69.412L111.438 69.888C111.419 69.888 111.354 69.8973 111.242 69.916C111.148 69.916 110.962 69.916 110.682 69.916C110.084 69.9533 109.702 69.972 109.534 69.972ZM122.094 70.084C121.87 70.084 121.702 70.028 121.59 69.916C121.478 69.7853 121.394 69.5707 121.338 69.272L121.17 68.74V68.684V68.6C121.17 67.984 120.526 65.884 119.238 62.3C117.969 58.716 116.97 56.0653 116.242 54.348L116.242 68.432L116.354 68.628C116.373 68.6653 116.41 68.7307 116.466 68.824C116.522 68.9173 116.55 69.0107 116.55 69.104C116.55 69.3467 116.466 69.552 116.298 69.72C116.13 69.888 115.925 69.972 115.682 69.972C115.085 69.972 114.786 69.4027 114.786 68.264L114.758 63.476C114.74 62.0387 114.73 60.4333 114.73 58.66C114.73 58.0627 114.758 57.1947 114.814 56.056C114.87 54.88 114.898 54.012 114.898 53.452C114.898 52.5747 115.234 51.884 115.906 51.38V51.548C116.018 51.5107 116.093 51.492 116.13 51.492C116.56 51.492 117.101 52.2387 117.754 53.732C118.277 54.9267 118.744 56.1867 119.154 57.512C119.584 58.8373 120.144 60.7227 120.834 63.168L121.114 64.176C121.544 65.688 121.87 66.7707 122.094 67.424C122.468 63.4107 122.654 58.6693 122.654 53.2V52.836C122.636 52.724 122.626 52.6027 122.626 52.472C122.626 51.912 122.85 51.632 123.298 51.632C123.56 51.632 123.756 51.7347 123.886 51.94C124.036 52.1453 124.11 52.4067 124.11 52.724V54.824C124.073 57.6987 123.961 60.816 123.774 64.176C123.588 67.536 123.364 69.4307 123.102 69.86C122.561 70.0093 122.225 70.084 122.094 70.084ZM47.276 97.552L47.248 96.46C47.2293 96.1427 47.22 95.788 47.22 95.396L47.248 94.444C47.192 94.2387 47.052 92.1947 46.828 88.312C46.604 84.4293 46.4733 81.9373 46.436 80.836C45.3533 80.7987 44.6627 80.6867 44.364 80.5C44.1587 80.3507 44.056 80.1827 44.056 79.996C44.056 79.8467 44.1493 79.716 44.336 79.604C44.5413 79.4733 44.7467 79.408 44.952 79.408C45.4747 79.408 46.1093 79.4453 46.856 79.52C47.5653 79.6133 48.2 79.66 48.76 79.66H48.984H49.208C49.7867 79.66 50.076 79.884 50.076 80.332C50.076 80.556 49.9827 80.7427 49.796 80.892C49.6093 81.0227 49.3947 81.088 49.152 81.088C48.984 81.088 48.7413 81.06 48.424 81.004L47.864 80.892L47.836 81.032L47.808 81.172C47.808 82.8333 47.9667 85.484 48.284 89.124C48.5827 92.54 48.732 95.1907 48.732 97.076C48.732 97.3 48.6293 97.496 48.424 97.664C48.2373 97.832 48.0227 97.916 47.78 97.916L47.276 97.552ZM57.8001 98C57.1654 98 56.8481 96.46 56.8481 93.38L56.8761 91.784L56.9041 90.496V90.412V90.132C56.9227 89.9827 56.9321 89.8053 56.9321 89.6C56.9321 89.5627 56.9041 89.516 56.8481 89.46C56.7921 89.404 56.7641 89.3573 56.7641 89.32V89.292C56.6707 89.3293 56.5027 89.348 56.2601 89.348C56.0174 89.348 55.7187 89.3107 55.3641 89.236C55.2521 89.2173 54.9534 89.1707 54.4681 89.096L54.4681 92.316C54.4681 92.8013 54.4961 93.5667 54.5521 94.612C54.6081 95.6387 54.6361 96.404 54.6361 96.908C54.6361 97.188 54.5614 97.4307 54.4121 97.636C54.2627 97.8413 54.0667 97.944 53.8241 97.944C53.4694 97.944 53.2174 97.5987 53.0681 96.908C52.9187 96.1987 52.8441 95.2747 52.8441 94.136L52.9001 91.868C52.9187 91.2333 52.9281 90.5613 52.9281 89.852L52.9281 89.376V88.984C52.9281 88.6853 52.9187 88.4893 52.9001 88.396V88.256L52.9841 86.632C52.9841 85.9227 52.9561 84.868 52.9001 83.468C52.8441 82.068 52.8161 81.0133 52.8161 80.304C52.8161 80.08 52.8907 79.884 53.0401 79.716C53.1894 79.548 53.3761 79.464 53.6001 79.464C54.1974 79.464 54.4961 80.024 54.4961 81.144L54.4401 84.616C54.4027 85.6613 54.3841 86.828 54.3841 88.116C54.6641 88.2093 55.1681 88.256 55.8961 88.256H56.9321C56.9694 88.144 56.9881 88.032 56.9881 87.92C56.9881 87.024 56.9321 85.6987 56.8201 83.944C56.6894 82.3013 56.6241 80.9667 56.6241 79.94C56.6241 79.7347 56.6987 79.5667 56.8481 79.436C57.0161 79.2867 57.2121 79.212 57.4361 79.212C57.5667 79.212 57.7534 79.2587 57.9961 79.352L58.2481 79.464C58.2481 82.1147 58.3414 85.652 58.5281 90.076L58.7801 97.16C58.7801 97.4213 58.6774 97.6267 58.4721 97.776C58.2854 97.9253 58.0614 98 57.8001 98ZM63.4296 98.364C63.1869 98.364 62.9629 98.28 62.7576 98.112C62.5709 97.944 62.4683 97.7387 62.4496 97.496V96.768L62.4496 96.208C62.4309 96.04 62.4216 95.844 62.4216 95.62C62.4216 95.228 62.3936 94.6307 62.3376 93.828L62.2816 92.036C62.2816 91.1213 62.3096 89.7587 62.3656 87.948C62.4403 86.324 62.4776 84.9613 62.4776 83.86C62.4776 83.5987 62.4496 83.2067 62.3936 82.684C62.3376 82.1427 62.3096 81.7507 62.3096 81.508C62.3096 80.1827 62.7016 79.52 63.4856 79.52C64.1016 79.52 64.8109 79.6413 65.6136 79.884C66.4349 80.1267 66.8456 80.416 66.8456 80.752C66.8456 80.9387 66.7616 81.116 66.5936 81.284C66.4443 81.4333 66.2576 81.5547 66.0336 81.648C65.2496 81.368 64.5403 81.1813 63.9056 81.088C63.9243 81.368 63.9336 81.7693 63.9336 82.292C63.9336 83.0387 63.9243 83.7107 63.9056 84.308C63.8496 85.204 63.8216 85.876 63.8216 86.324L63.9056 86.772L64.3536 86.744C64.5029 86.7253 64.6896 86.716 64.9136 86.716C65.8096 86.716 66.2576 86.9773 66.2576 87.5C66.2576 87.7053 66.1736 87.8827 66.0056 88.032C65.8376 88.1627 65.6229 88.228 65.3616 88.228C65.0256 88.228 64.7643 88.2093 64.5776 88.172H63.8776C63.9149 88.6573 63.9336 89.3667 63.9336 90.3C63.9336 91.2333 63.9243 92.0733 63.9056 92.82C63.8496 93.9587 63.8216 94.808 63.8216 95.368C63.8216 96.4133 63.8403 96.936 63.8776 96.936L64.8016 96.908C65.1189 96.8893 65.5016 96.88 65.9496 96.88C66.6589 96.88 67.0136 97.104 67.0136 97.552C67.0136 97.8133 66.8923 98.0093 66.6496 98.14C66.4256 98.2893 66.1456 98.364 65.8096 98.364H63.4296ZM80.1119 98.476C79.7012 98.476 79.3279 98.028 78.9919 97.132C78.5999 96.1613 78.3106 95.1627 78.1239 94.136L77.9279 93.184C77.3866 90.5147 77.0412 88.9933 76.8919 88.62H76.5559C76.5559 89.1613 76.5466 89.656 76.5279 90.104V91.644C76.5279 94.1453 76.7052 96.096 77.0599 97.496L76.7519 98.252H75.9679L75.6039 97.832L75.6319 95.956C75.6319 94.276 75.5479 91.728 75.3799 88.312C75.2306 84.672 75.1559 82.124 75.1559 80.668C75.1559 79.772 75.4639 79.324 76.0799 79.324C77.0879 79.324 77.9092 79.5853 78.5439 80.108C79.1972 80.6307 79.5239 81.3587 79.5239 82.292V84.252C79.5239 84.532 79.4772 84.8587 79.3839 85.232C79.2906 85.5867 79.1879 85.876 79.0759 86.1L78.5439 87.108L78.0959 87.948L78.2359 88.62L78.6279 90.608C78.8892 92.0453 79.1412 93.212 79.3839 94.108C79.6266 95.004 79.9252 95.816 80.2799 96.544L80.4479 96.88C80.6346 97.2533 80.7279 97.552 80.7279 97.776C80.7279 97.9627 80.6719 98.1213 80.5599 98.252C80.4479 98.4013 80.2986 98.476 80.1119 98.476ZM76.6679 87.248C77.0786 87.0427 77.4239 86.4827 77.7039 85.568C78.0026 84.6347 78.1519 83.776 78.1519 82.992C78.1519 82.3947 78.0772 81.8347 77.9279 81.312C77.8346 81.0133 77.6759 80.7893 77.4519 80.64C77.2466 80.472 76.9852 80.388 76.6679 80.388L76.6119 80.528L76.5559 80.78L76.6119 84.084C76.6492 85.0547 76.6679 86.1093 76.6679 87.248ZM84.8697 97.972C83.2457 97.972 82.4337 97.692 82.4337 97.132C82.4337 96.684 82.723 96.46 83.3017 96.46H83.6097L83.8897 96.488C84.039 96.488 84.1417 96.4413 84.1977 96.348C84.2537 96.2547 84.2817 96.0867 84.2817 95.844C84.2817 95.5267 84.263 95.032 84.2257 94.36C84.1697 93.912 84.1044 93.1093 84.0297 91.952C83.8617 89.096 83.7777 86.94 83.7777 85.484C83.7777 84.9613 83.787 84.4853 83.8057 84.056L83.8337 82.628C83.8337 82.012 83.8057 81.4987 83.7497 81.088C83.451 81.1627 83.2364 81.2 83.1057 81.2C82.6577 81.2 82.4337 80.976 82.4337 80.528C82.4337 80.304 82.5737 80.108 82.8537 79.94C83.1337 79.772 83.4884 79.6507 83.9177 79.576C84.6644 79.4267 85.327 79.352 85.9057 79.352C86.1297 79.352 86.3164 79.436 86.4657 79.604C86.6337 79.7533 86.7177 79.9307 86.7177 80.136C86.7177 80.3413 86.6524 80.5187 86.5217 80.668C86.4097 80.8173 86.2604 80.892 86.0737 80.892C85.9617 80.892 85.8684 80.8827 85.7937 80.864H85.5697C85.383 80.864 85.243 80.9107 85.1497 81.004C85.075 81.0787 85.0377 81.228 85.0377 81.452C85.0377 83.2627 85.1497 85.988 85.3737 89.628C85.411 90.3 85.4857 91.2893 85.5977 92.596C85.691 93.4547 85.7377 94.332 85.7377 95.228V96.292C85.8497 96.2733 86.0364 96.264 86.2977 96.264C87.0817 96.264 87.4737 96.5907 87.4737 97.244V97.412L86.7737 97.888C86.755 97.888 86.6897 97.8973 86.5777 97.916C86.4844 97.916 86.2977 97.916 86.0177 97.916C85.4204 97.9533 85.0377 97.972 84.8697 97.972ZM93.4261 98.224C92.9035 98.224 92.4275 98.1307 91.9981 97.944C91.5688 97.7387 91.2048 97.4773 90.9061 97.16C90.6635 96.8987 90.4395 96.516 90.2341 96.012C90.0288 95.508 89.8795 95.0227 89.7861 94.556C89.6928 94.2013 89.6181 93.688 89.5621 93.016C89.5061 92.344 89.4688 91.7653 89.4501 91.28V89.656V88.536C89.4501 87.4533 89.4688 86.5667 89.5061 85.876C89.5435 85.036 89.6648 84.1493 89.8701 83.216C90.0381 82.376 90.3275 81.6387 90.7381 81.004C91.1301 80.3693 91.6808 79.9307 92.3901 79.688C92.7261 79.5573 93.1181 79.492 93.5661 79.492C94.3688 79.492 94.7701 79.7253 94.7701 80.192C94.7701 80.416 94.6768 80.6027 94.4901 80.752C94.3221 80.8827 94.1168 80.948 93.8741 80.948C93.7621 80.948 93.6595 80.9387 93.5661 80.92C93.4915 80.9013 93.3981 80.892 93.2861 80.892C92.9688 80.892 92.6888 81.06 92.4461 81.396C92.2035 81.732 91.9981 82.1987 91.8301 82.796C91.5315 83.9533 91.3261 85.2133 91.2141 86.576C91.1395 87.8453 91.1021 88.788 91.1021 89.404C91.1021 90.0387 91.1301 90.9067 91.1861 92.008C91.2608 93.0347 91.4195 93.9307 91.6621 94.696C91.7928 95.144 91.9421 95.508 92.1101 95.788C92.2968 96.0493 92.5301 96.2733 92.8101 96.46C93.1275 96.6653 93.4541 96.768 93.7901 96.768C94.6861 96.768 95.1341 95.2747 95.1341 92.288V91C95.0035 90.944 94.7888 90.916 94.4901 90.916H94.2381H93.9301C93.2768 90.916 92.9501 90.7013 92.9501 90.272C92.9501 90.0107 93.0341 89.8147 93.2021 89.684C93.3888 89.5347 93.6221 89.46 93.9021 89.46V89.488H94.2941C95.9741 89.488 96.8141 89.7773 96.8141 90.356C96.8141 90.524 96.7675 90.86 96.6741 91.364C96.5621 91.812 96.5061 92.148 96.5061 92.372C96.5061 92.6893 96.5341 93.184 96.5901 93.856L96.6461 95.34C96.6461 96.236 96.3288 96.9453 95.6941 97.468C95.0781 97.972 94.3221 98.224 93.4261 98.224ZM104.394 98C103.759 98 103.442 96.46 103.442 93.38L103.47 91.784L103.498 90.496V90.412V90.132C103.516 89.9827 103.526 89.8053 103.526 89.6C103.526 89.5627 103.498 89.516 103.442 89.46C103.386 89.404 103.358 89.3573 103.358 89.32V89.292C103.264 89.3293 103.096 89.348 102.854 89.348C102.611 89.348 102.312 89.3107 101.958 89.236C101.846 89.2173 101.547 89.1707 101.062 89.096V92.316C101.062 92.8013 101.09 93.5667 101.146 94.612C101.202 95.6387 101.23 96.404 101.23 96.908C101.23 97.188 101.155 97.4307 101.006 97.636C100.856 97.8413 100.66 97.944 100.418 97.944C100.063 97.944 99.8111 97.5987 99.6618 96.908C99.5125 96.1987 99.4378 95.2747 99.4378 94.136L99.4938 91.868C99.5125 91.2333 99.5218 90.5613 99.5218 89.852V89.376V88.984C99.5218 88.6853 99.5125 88.4893 99.4938 88.396V88.256L99.5778 86.632C99.5778 85.9227 99.5498 84.868 99.4938 83.468C99.4378 82.068 99.4098 81.0133 99.4098 80.304C99.4098 80.08 99.4845 79.884 99.6338 79.716C99.7831 79.548 99.9698 79.464 100.194 79.464C100.791 79.464 101.09 80.024 101.09 81.144L101.034 84.616C100.996 85.6613 100.978 86.828 100.978 88.116C101.258 88.2093 101.762 88.256 102.49 88.256H103.526C103.563 88.144 103.582 88.032 103.582 87.92C103.582 87.024 103.526 85.6987 103.414 83.944C103.283 82.3013 103.218 80.9667 103.218 79.94C103.218 79.7347 103.292 79.5667 103.442 79.436C103.61 79.2867 103.806 79.212 104.03 79.212C104.16 79.212 104.347 79.2587 104.59 79.352L104.842 79.464C104.842 82.1147 104.935 85.652 105.122 90.076L105.374 97.16C105.374 97.4213 105.271 97.6267 105.066 97.776C104.879 97.9253 104.655 98 104.394 98ZM110.303 97.552L110.275 96.46C110.257 96.1427 110.247 95.788 110.247 95.396L110.275 94.444C110.219 94.2387 110.079 92.1947 109.855 88.312C109.631 84.4293 109.501 81.9373 109.463 80.836C108.381 80.7987 107.69 80.6867 107.391 80.5C107.186 80.3507 107.083 80.1827 107.083 79.996C107.083 79.8467 107.177 79.716 107.363 79.604C107.569 79.4733 107.774 79.408 107.979 79.408C108.502 79.408 109.137 79.4453 109.883 79.52C110.593 79.6133 111.227 79.66 111.787 79.66H112.011H112.235C112.814 79.66 113.103 79.884 113.103 80.332C113.103 80.556 113.01 80.7427 112.823 80.892C112.637 81.0227 112.422 81.088 112.179 81.088C112.011 81.088 111.769 81.06 111.451 81.004L110.891 80.892L110.863 81.032L110.835 81.172C110.835 82.8333 110.994 85.484 111.311 89.124C111.61 92.54 111.759 95.1907 111.759 97.076C111.759 97.3 111.657 97.496 111.451 97.664C111.265 97.832 111.05 97.916 110.807 97.916L110.303 97.552ZM121.629 98.196C121.386 97.2067 121.265 95.8347 121.265 94.08L121.321 91.588C121.358 90.8413 121.377 90.0107 121.377 89.096C121.265 88.8347 121.209 88.6013 121.209 88.396V88.312C121.395 87.9573 121.489 87.1547 121.489 85.904L121.517 84.616C121.535 84.2053 121.545 83.748 121.545 83.244C121.545 82.1427 121.47 81.2747 121.321 80.64C121.377 80.3787 121.47 80.1547 121.601 79.968C121.731 79.7627 121.89 79.66 122.077 79.66H123.309C123.831 79.66 124.289 79.7813 124.681 80.024C125.073 80.248 125.371 80.5747 125.577 81.004C125.95 81.7693 126.137 82.6747 126.137 83.72C126.137 84.4667 126.127 85.0547 126.109 85.484C126.071 86.0253 125.978 86.52 125.829 86.968C125.773 87.2107 125.689 87.416 125.577 87.584C125.483 87.7333 125.343 87.92 125.157 88.144C124.895 88.4613 124.466 88.76 123.869 89.04C123.626 89.1707 123.309 89.292 122.917 89.404V92.4L122.973 94.192L123.029 95.06C123.103 96.1053 123.141 96.992 123.141 97.72C123.141 97.944 123.047 98.1307 122.861 98.28C122.674 98.448 122.459 98.532 122.217 98.532L121.629 98.196ZM122.945 88.256C124.046 88.088 124.597 86.5107 124.597 83.524C124.597 82.9827 124.569 82.5627 124.513 82.264C124.457 82.04 124.382 81.8627 124.289 81.732C124.195 81.5827 124.055 81.4613 123.869 81.368C123.663 81.256 123.439 81.2 123.197 81.2C123.197 81.1813 123.094 81.172 122.889 81.172V82.768C122.889 83.8693 122.898 84.8493 122.917 85.708C122.917 86.6787 122.926 87.3133 122.945 87.612V88.2V88.256ZM133.2 98.448C132.528 98.224 131.697 98.112 130.708 98.112C130.409 98.2987 130.092 98.392 129.756 98.392C129.532 98.392 129.336 98.2893 129.168 98.084C129.018 97.8973 128.944 97.692 128.944 97.468C128.944 95.9 129.009 93.8093 129.14 91.196C129.252 88.4147 129.308 86.3333 129.308 84.952V84.756C129.196 83.58 129.14 82.7027 129.14 82.124C129.14 80.3507 129.466 79.464 130.12 79.464C130.306 79.464 130.465 79.5387 130.596 79.688C130.745 79.8187 130.82 79.9773 130.82 80.164C130.82 80.388 130.792 80.7427 130.736 81.228C130.68 81.6947 130.652 82.0493 130.652 82.292C130.652 83.5427 130.661 84.672 130.68 85.68C130.698 86.6693 130.708 87.7893 130.708 89.04C130.614 89.32 130.568 89.712 130.568 90.216V90.552L130.512 92.764C130.474 93.4173 130.456 94.164 130.456 95.004C130.456 96.292 130.764 96.936 131.38 96.936C131.417 96.936 131.473 96.936 131.548 96.936C131.641 96.9173 131.762 96.908 131.912 96.908C132.08 96.8893 132.294 96.88 132.556 96.88C133.564 96.88 134.068 97.16 134.068 97.72C134.068 97.9067 133.984 98.0653 133.816 98.196C133.648 98.3267 133.442 98.4107 133.2 98.448ZM141.896 98.252C141.467 98.252 141.149 98.1867 140.944 98.056C140.739 97.9253 140.636 97.6827 140.636 97.328C140.636 96.768 140.543 95.816 140.356 94.472L140.244 93.884L137.472 93.464C137.36 93.8933 137.201 94.7613 136.996 96.068C136.884 96.9827 136.707 97.5893 136.464 97.888C136.333 98.056 136.147 98.14 135.904 98.14C135.68 98.14 135.475 98.0747 135.288 97.944C135.101 97.7947 135.008 97.6173 135.008 97.412L135.064 97.272L135.092 97.16C136.324 92.3627 137.257 87.6307 137.892 82.964C137.892 82.8893 137.901 82.768 137.92 82.6C137.939 82.4133 137.957 82.152 137.976 81.816C138.032 81.1253 138.088 80.5747 138.144 80.164C138.219 79.7533 138.331 79.4453 138.48 79.24H139.432C139.693 79.24 139.917 79.3053 140.104 79.436C140.291 79.548 140.384 79.716 140.384 79.94C140.384 81.3587 140.58 83.468 140.972 86.268C141.345 89.1427 141.532 91.1587 141.532 92.316C141.532 92.428 141.579 92.7173 141.672 93.184C141.765 93.6133 141.812 93.8933 141.812 94.024C141.812 94.1547 141.905 94.7147 142.092 95.704C142.26 96.6 142.344 97.1787 142.344 97.44V97.468C142.344 97.8787 142.195 98.14 141.896 98.252ZM140.048 92.876C139.992 92.596 139.964 92.2507 139.964 91.84C139.964 90.16 139.815 88.0133 139.516 85.4L139.236 82.488C138.433 86.8747 137.883 90.188 137.584 92.428C137.864 92.6147 138.685 92.764 140.048 92.876ZM148.499 98.392C148.088 98.392 147.65 98.3267 147.183 98.196C146.735 98.084 146.39 97.9533 146.147 97.804C144.896 97.0013 144.271 94.808 144.271 91.224V90.468V89.6V88.928C144.271 88.1813 144.28 87.5187 144.299 86.94C144.318 86.3427 144.355 85.6987 144.411 85.008C144.467 84.28 144.551 83.692 144.663 83.244C144.775 82.7773 144.962 82.2547 145.223 81.676C145.447 81.1347 145.718 80.7147 146.035 80.416C146.371 80.1173 146.8 79.8653 147.323 79.66C147.79 79.4547 148.368 79.352 149.059 79.352C149.339 79.352 149.554 79.4173 149.703 79.548C149.852 79.6787 149.927 79.8467 149.927 80.052C149.927 80.2387 149.862 80.4067 149.731 80.556C149.619 80.7053 149.479 80.7893 149.311 80.808H147.995C147.622 80.808 147.295 81.0413 147.015 81.508C146.735 81.9747 146.539 82.5813 146.427 83.328C146.184 84.7093 146.063 85.8293 146.063 86.688V86.828L146.007 89.516C145.97 90.3187 145.951 91.224 145.951 92.232C145.951 92.9413 145.979 93.52 146.035 93.968C146.128 94.64 146.287 95.2 146.511 95.648C146.735 96.152 147.118 96.516 147.659 96.74C147.939 96.852 148.247 96.908 148.583 96.908C148.788 96.908 148.994 96.8333 149.199 96.684C149.442 96.684 149.638 96.74 149.787 96.852C149.955 96.9453 150.039 97.0947 150.039 97.3C150.039 98.028 149.526 98.392 148.499 98.392ZM153.855 98.364C153.613 98.364 153.389 98.28 153.183 98.112C152.997 97.944 152.894 97.7387 152.875 97.496V96.768V96.208C152.857 96.04 152.847 95.844 152.847 95.62C152.847 95.228 152.819 94.6307 152.763 93.828L152.707 92.036C152.707 91.1213 152.735 89.7587 152.791 87.948C152.866 86.324 152.903 84.9613 152.903 83.86C152.903 83.5987 152.875 83.2067 152.819 82.684C152.763 82.1427 152.735 81.7507 152.735 81.508C152.735 80.1827 153.127 79.52 153.911 79.52C154.527 79.52 155.237 79.6413 156.039 79.884C156.861 80.1267 157.271 80.416 157.271 80.752C157.271 80.9387 157.187 81.116 157.019 81.284C156.87 81.4333 156.683 81.5547 156.459 81.648C155.675 81.368 154.966 81.1813 154.331 81.088C154.35 81.368 154.359 81.7693 154.359 82.292C154.359 83.0387 154.35 83.7107 154.331 84.308C154.275 85.204 154.247 85.876 154.247 86.324L154.331 86.772L154.779 86.744C154.929 86.7253 155.115 86.716 155.339 86.716C156.235 86.716 156.683 86.9773 156.683 87.5C156.683 87.7053 156.599 87.8827 156.431 88.032C156.263 88.1627 156.049 88.228 155.787 88.228C155.451 88.228 155.19 88.2093 155.003 88.172H154.303C154.341 88.6573 154.359 89.3667 154.359 90.3C154.359 91.2333 154.35 92.0733 154.331 92.82C154.275 93.9587 154.247 94.808 154.247 95.368C154.247 96.4133 154.266 96.936 154.303 96.936L155.227 96.908C155.545 96.8893 155.927 96.88 156.375 96.88C157.085 96.88 157.439 97.104 157.439 97.552C157.439 97.8133 157.318 98.0093 157.075 98.14C156.851 98.2893 156.571 98.364 156.235 98.364H153.855ZM160.944 100.632C160.758 100.632 160.646 100.548 160.608 100.38V100.212L161.28 99.372C161.523 99.036 161.682 98.728 161.756 98.448C161.775 98.392 161.784 98.308 161.784 98.196C161.784 98.084 161.775 98 161.756 97.944C161.458 97.944 161.224 97.86 161.056 97.692C160.907 97.5053 160.804 97.2253 160.748 96.852C160.692 96.516 160.786 96.264 161.028 96.096C161.29 95.9093 161.616 95.816 162.008 95.816C162.587 95.816 162.932 96.124 163.044 96.74C163.119 97.2067 162.988 97.8227 162.652 98.588C162.316 99.3533 161.887 99.9787 161.364 100.464C161.252 100.557 161.14 100.613 161.028 100.632H160.944ZM46.212 126.392C45.876 126.336 45.5867 126.215 45.344 126.028C45.12 125.841 44.9893 125.599 44.952 125.3L45.26 124.824C45.372 124.824 45.5493 124.861 45.792 124.936C46.072 124.992 46.2867 125.02 46.436 125.02C46.772 125.02 47.0707 124.871 47.332 124.572C47.612 124.273 47.8173 123.881 47.948 123.396C48.1907 122.5 48.312 121.697 48.312 120.988C48.312 119.756 47.92 118.459 47.136 117.096L46.828 116.564C46.4733 115.948 46.1747 115.397 45.932 114.912C45.6893 114.427 45.484 113.904 45.316 113.344C45.092 112.616 44.98 111.888 44.98 111.16C44.98 110.339 45.1667 109.48 45.54 108.584C45.7267 108.155 45.988 107.809 46.324 107.548C46.6787 107.268 47.0707 107.128 47.5 107.128C47.836 107.128 48.144 107.24 48.424 107.464C48.7227 107.669 48.872 107.921 48.872 108.22C48.872 108.388 48.8067 108.519 48.676 108.612C48.5453 108.705 48.3867 108.752 48.2 108.752C47.9947 108.752 47.7987 108.696 47.612 108.584C47.2013 108.603 46.8747 108.967 46.632 109.676C46.4267 110.329 46.324 110.871 46.324 111.3C46.324 111.841 46.408 112.392 46.576 112.952C46.744 113.493 46.9587 113.988 47.22 114.436L47.836 115.556L48.816 117.404C49.0773 117.927 49.2827 118.533 49.432 119.224C49.6 119.915 49.684 120.615 49.684 121.324C49.684 122.463 49.4227 123.545 48.9 124.572C48.6387 125.095 48.2653 125.515 47.78 125.832C47.3133 126.149 46.7907 126.308 46.212 126.308V126.392ZM54.026 125.972C52.402 125.972 51.59 125.692 51.59 125.132C51.59 124.684 51.8793 124.46 52.458 124.46H52.766L53.046 124.488C53.1953 124.488 53.298 124.441 53.354 124.348C53.41 124.255 53.438 124.087 53.438 123.844C53.438 123.527 53.4193 123.032 53.382 122.36C53.326 121.912 53.2606 121.109 53.186 119.952C53.018 117.096 52.934 114.94 52.934 113.484C52.934 112.961 52.9433 112.485 52.962 112.056L52.99 110.628C52.99 110.012 52.962 109.499 52.906 109.088C52.6073 109.163 52.3926 109.2 52.262 109.2C51.814 109.2 51.59 108.976 51.59 108.528C51.59 108.304 51.73 108.108 52.01 107.94C52.29 107.772 52.6446 107.651 53.074 107.576C53.8206 107.427 54.4833 107.352 55.062 107.352C55.286 107.352 55.4726 107.436 55.622 107.604C55.79 107.753 55.874 107.931 55.874 108.136C55.874 108.341 55.8086 108.519 55.678 108.668C55.566 108.817 55.4166 108.892 55.23 108.892C55.118 108.892 55.0246 108.883 54.95 108.864H54.726C54.5393 108.864 54.3993 108.911 54.306 109.004C54.2313 109.079 54.194 109.228 54.194 109.452C54.194 111.263 54.306 113.988 54.53 117.628C54.5673 118.3 54.642 119.289 54.754 120.596C54.8473 121.455 54.894 122.332 54.894 123.228L54.894 124.292C55.006 124.273 55.1926 124.264 55.454 124.264C56.238 124.264 56.63 124.591 56.63 125.244V125.412L55.93 125.888C55.9113 125.888 55.846 125.897 55.734 125.916C55.6406 125.916 55.454 125.916 55.174 125.916C54.5766 125.953 54.194 125.972 54.026 125.972ZM63.8424 126.476C63.4317 126.476 63.0584 126.028 62.7224 125.132C62.3304 124.161 62.041 123.163 61.8544 122.136L61.6584 121.184C61.117 118.515 60.7717 116.993 60.6224 116.62H60.2864C60.2864 117.161 60.277 117.656 60.2584 118.104L60.2584 119.644C60.2584 122.145 60.4357 124.096 60.7904 125.496L60.4824 126.252H59.6984L59.3344 125.832L59.3624 123.956C59.3624 122.276 59.2784 119.728 59.1104 116.312C58.961 112.672 58.8864 110.124 58.8864 108.668C58.8864 107.772 59.1944 107.324 59.8104 107.324C60.8184 107.324 61.6397 107.585 62.2744 108.108C62.9277 108.631 63.2544 109.359 63.2544 110.292L63.2544 112.252C63.2544 112.532 63.2077 112.859 63.1144 113.232C63.021 113.587 62.9184 113.876 62.8064 114.1L62.2744 115.108L61.8264 115.948L61.9664 116.62L62.3584 118.608C62.6197 120.045 62.8717 121.212 63.1144 122.108C63.357 123.004 63.6557 123.816 64.0104 124.544L64.1784 124.88C64.365 125.253 64.4584 125.552 64.4584 125.776C64.4584 125.963 64.4024 126.121 64.2904 126.252C64.1784 126.401 64.029 126.476 63.8424 126.476ZM60.3984 115.248C60.809 115.043 61.1544 114.483 61.4344 113.568C61.733 112.635 61.8824 111.776 61.8824 110.992C61.8824 110.395 61.8077 109.835 61.6584 109.312C61.565 109.013 61.4064 108.789 61.1824 108.64C60.977 108.472 60.7157 108.388 60.3984 108.388L60.3424 108.528L60.2864 108.78L60.3424 112.084C60.3797 113.055 60.3984 114.109 60.3984 115.248Z" fill="#292D32"/>
<defs>
<filter id="filter0_d_0_4221" x="0" y="0" width="193" height="204" filterUnits="userSpaceOnUse" color-interpolation-filters="sRGB">
<feFlood flood-opacity="0" result="BackgroundImageFix"/>
<feColorMatrix in="SourceAlpha" type="matrix" values="0 0 0 0 0 0 0 0 0 0 0 0 0 0 0 0 0 0 127 0" result="hardAlpha"/>
<feOffset dy="12"/>
<feGaussianBlur stdDeviation="10"/>
<feComposite in2="hardAlpha" operator="out"/>
<feColorMatrix type="matrix" values="0 0 0 0 0 0 0 0 0 0 0 0 0 0 0 0 0 0 0.08 0"/>
<feBlend mode="normal" in2="BackgroundImageFix" result="effect1_dropShadow_0_4221"/>
<feBlend mode="normal" in="SourceGraphic" in2="effect1_dropShadow_0_4221" result="shape"/>
</filter>
</defs>
</svg>
