<svg width="209" height="171" viewBox="0 0 209 171" fill="none" xmlns="http://www.w3.org/2000/svg">
<g filter="url(#filter0_d_0_3898)">
<path d="M53.1178 16.8001L124.762 8.30837C142.665 7.02941 169.535 9.15605 182.322 25.7379C196.391 44.8628 186.156 95.8724 170.804 109.896C166.253 114.045 159.33 116.514 151.334 117.942C150.99 125.155 152.453 134.375 160.867 139C160.867 139 133.326 138.078 122.867 119.697C111.468 119.548 100.532 118.819 92.7592 118.819C67.1721 118.819 33.9014 116.261 23.6814 86.9345C13.4466 60.1508 24.9645 24.4441 53.1029 16.8001H53.1178Z" fill="white"/>
</g>
<path d="M44.48 60.392C43.7894 60.392 43.444 59.6827 43.444 58.264C43.444 57.368 43.052 54.1667 42.268 48.66C41.5027 43.1347 41.0174 40.12 40.812 39.616C41.0547 39.168 41.3814 38.944 41.792 38.944C42.2214 38.944 42.6227 39.9147 42.996 41.856C43.3507 43.9093 43.6494 46.2613 43.892 48.912L44.088 51.18C44.2 52.4493 44.2654 53.0933 44.284 53.112L44.564 50.76L44.732 49.304C44.9747 47.176 45.1334 45.6733 45.208 44.796C45.3014 43.6387 45.348 42.8453 45.348 42.416V41.884C45.348 41.6787 45.4227 41.4827 45.572 41.296C45.7214 41.1093 45.8894 41.016 46.076 41.016C46.748 41.016 47.084 41.296 47.084 41.856V42.276C47.084 43.34 47.1867 44.488 47.392 45.72C47.616 46.9333 47.9334 48.3893 48.344 50.088C48.6054 51.0773 48.8667 52.2813 49.128 53.7C49.184 53.084 49.3614 51.5907 49.66 49.22C49.9587 47.0547 50.1734 45.216 50.304 43.704C50.4534 42.1733 50.528 40.7453 50.528 39.42C50.528 38.9907 50.5934 38.692 50.724 38.524C50.8734 38.3373 51.144 38.244 51.536 38.244C51.76 38.244 51.956 38.3187 52.124 38.468C52.3107 38.5987 52.404 38.776 52.404 39C52.404 39.2053 52.3107 39.42 52.124 39.644C52.124 40.988 52.0214 42.5653 51.816 44.376C51.6107 46.168 51.3587 47.876 51.06 49.5C50.7614 51.0867 50.5094 52.7947 50.304 54.624C50.0987 56.4347 49.996 58.0307 49.996 59.412C49.996 59.7107 49.9214 59.944 49.772 60.112C49.6414 60.2987 49.436 60.392 49.156 60.392C48.9507 60.392 48.708 60.0093 48.428 59.244C48.0734 58.18 47.6347 56.0613 47.112 52.888L46.608 49.612L46.356 47.792C46.1134 49.4907 45.9267 50.8627 45.796 51.908C45.684 52.9347 45.572 54.1573 45.46 55.576C45.3294 56.9387 45.264 58.2827 45.264 59.608C45.264 59.7947 45.18 59.972 45.012 60.14C44.8627 60.308 44.6854 60.392 44.48 60.392ZM56.832 60.364C56.5893 60.364 56.3653 60.28 56.16 60.112C55.9733 59.944 55.8706 59.7387 55.852 59.496V58.768V58.208C55.8333 58.04 55.824 57.844 55.824 57.62C55.824 57.228 55.796 56.6307 55.74 55.828L55.684 54.036C55.684 53.1213 55.712 51.7587 55.768 49.948C55.8426 48.324 55.88 46.9613 55.88 45.86C55.88 45.5987 55.852 45.2067 55.796 44.684C55.74 44.1427 55.712 43.7507 55.712 43.508C55.712 42.1827 56.104 41.52 56.888 41.52C57.504 41.52 58.2133 41.6413 59.016 41.884C59.8373 42.1267 60.248 42.416 60.248 42.752C60.248 42.9387 60.164 43.116 59.996 43.284C59.8466 43.4333 59.66 43.5547 59.436 43.648C58.652 43.368 57.9426 43.1813 57.308 43.088C57.3266 43.368 57.336 43.7693 57.336 44.292C57.336 45.0387 57.3266 45.7107 57.308 46.308C57.252 47.204 57.224 47.876 57.224 48.324L57.308 48.772L57.756 48.744C57.9053 48.7253 58.092 48.716 58.316 48.716C59.212 48.716 59.66 48.9773 59.66 49.5C59.66 49.7053 59.576 49.8827 59.408 50.032C59.24 50.1627 59.0253 50.228 58.764 50.228C58.428 50.228 58.1666 50.2093 57.98 50.172L57.28 50.172C57.3173 50.6573 57.336 51.3667 57.336 52.3C57.336 53.2333 57.3266 54.0733 57.308 54.82C57.252 55.9587 57.224 56.808 57.224 57.368C57.224 58.4133 57.2426 58.936 57.28 58.936L58.204 58.908C58.5213 58.8893 58.904 58.88 59.352 58.88C60.0613 58.88 60.416 59.104 60.416 59.552C60.416 59.8133 60.2946 60.0093 60.052 60.14C59.828 60.2893 59.548 60.364 59.212 60.364L56.832 60.364ZM74.1303 60.252C73.7009 60.252 73.3836 60.1867 73.1783 60.056C72.9729 59.9253 72.8703 59.6827 72.8703 59.328C72.8703 58.768 72.7769 57.816 72.5903 56.472L72.4783 55.884L69.7063 55.464C69.5943 55.8933 69.4356 56.7613 69.2303 58.068C69.1183 58.9827 68.9409 59.5893 68.6983 59.888C68.5676 60.056 68.3809 60.14 68.1383 60.14C67.9143 60.14 67.7089 60.0747 67.5223 59.944C67.3356 59.7947 67.2423 59.6173 67.2423 59.412L67.2983 59.272L67.3263 59.16C68.5583 54.3627 69.4916 49.6307 70.1263 44.964C70.1263 44.8893 70.1356 44.768 70.1543 44.6C70.1729 44.4133 70.1916 44.152 70.2103 43.816C70.2663 43.1253 70.3223 42.5747 70.3783 42.164C70.4529 41.7533 70.5649 41.4453 70.7143 41.24H71.6663C71.9276 41.24 72.1516 41.3053 72.3383 41.436C72.5249 41.548 72.6183 41.716 72.6183 41.94C72.6183 43.3587 72.8143 45.468 73.2063 48.268C73.5796 51.1427 73.7663 53.1587 73.7663 54.316C73.7663 54.428 73.8129 54.7173 73.9063 55.184C73.9996 55.6133 74.0463 55.8933 74.0463 56.024C74.0463 56.1547 74.1396 56.7147 74.3263 57.704C74.4943 58.6 74.5783 59.1787 74.5783 59.44V59.468C74.5783 59.8787 74.4289 60.14 74.1303 60.252ZM72.2823 54.876C72.2263 54.596 72.1983 54.2507 72.1983 53.84C72.1983 52.16 72.0489 50.0133 71.7503 47.4L71.4703 44.488C70.6676 48.8747 70.1169 52.188 69.8183 54.428C70.0983 54.6147 70.9196 54.764 72.2823 54.876ZM81.8815 60.476C81.4708 60.476 81.0975 60.028 80.7615 59.132C80.3695 58.1613 80.0801 57.1627 79.8935 56.136L79.6975 55.184C79.1561 52.5147 78.8108 50.9933 78.6615 50.62H78.3255C78.3255 51.1613 78.3161 51.656 78.2975 52.104V53.644C78.2975 56.1453 78.4748 58.096 78.8295 59.496L78.5215 60.252L77.7375 60.252L77.3735 59.832L77.4015 57.956C77.4015 56.276 77.3175 53.728 77.1495 50.312C77.0001 46.672 76.9255 44.124 76.9255 42.668C76.9255 41.772 77.2335 41.324 77.8495 41.324C78.8575 41.324 79.6788 41.5853 80.3135 42.108C80.9668 42.6307 81.2935 43.3587 81.2935 44.292V46.252C81.2935 46.532 81.2468 46.8587 81.1535 47.232C81.0601 47.5867 80.9575 47.876 80.8455 48.1L80.3135 49.108L79.8655 49.948L80.0055 50.62L80.3975 52.608C80.6588 54.0453 80.9108 55.212 81.1535 56.108C81.3961 57.004 81.6948 57.816 82.0495 58.544L82.2175 58.88C82.4041 59.2533 82.4975 59.552 82.4975 59.776C82.4975 59.9627 82.4415 60.1213 82.3295 60.252C82.2175 60.4013 82.0681 60.476 81.8815 60.476ZM78.4375 49.248C78.8481 49.0427 79.1935 48.4827 79.4735 47.568C79.7721 46.6347 79.9215 45.776 79.9215 44.992C79.9215 44.3947 79.8468 43.8347 79.6975 43.312C79.6041 43.0133 79.4455 42.7893 79.2215 42.64C79.0161 42.472 78.7548 42.388 78.4375 42.388L78.3815 42.528L78.3255 42.78L78.3815 46.084C78.4188 47.0547 78.4375 48.1093 78.4375 49.248ZM86.5273 60.364C86.2846 60.364 86.0606 60.28 85.8553 60.112C85.6686 59.944 85.5659 59.7387 85.5473 59.496L85.5473 58.768V58.208C85.5286 58.04 85.5193 57.844 85.5193 57.62C85.5193 57.228 85.4913 56.6307 85.4353 55.828L85.3793 54.036C85.3793 53.1213 85.4073 51.7587 85.4633 49.948C85.5379 48.324 85.5753 46.9613 85.5753 45.86C85.5753 45.5987 85.5473 45.2067 85.4913 44.684C85.4353 44.1427 85.4073 43.7507 85.4073 43.508C85.4073 42.1827 85.7993 41.52 86.5833 41.52C87.1993 41.52 87.9086 41.6413 88.7113 41.884C89.5326 42.1267 89.9433 42.416 89.9433 42.752C89.9433 42.9387 89.8593 43.116 89.6913 43.284C89.5419 43.4333 89.3553 43.5547 89.1313 43.648C88.3473 43.368 87.6379 43.1813 87.0033 43.088C87.0219 43.368 87.0313 43.7693 87.0313 44.292C87.0313 45.0387 87.0219 45.7107 87.0033 46.308C86.9473 47.204 86.9193 47.876 86.9193 48.324L87.0033 48.772L87.4513 48.744C87.6006 48.7253 87.7873 48.716 88.0113 48.716C88.9073 48.716 89.3553 48.9773 89.3553 49.5C89.3553 49.7053 89.2713 49.8827 89.1033 50.032C88.9353 50.1627 88.7206 50.228 88.4593 50.228C88.1233 50.228 87.8619 50.2093 87.6753 50.172L86.9753 50.172C87.0126 50.6573 87.0313 51.3667 87.0313 52.3C87.0313 53.2333 87.0219 54.0733 87.0033 54.82C86.9473 55.9587 86.9193 56.808 86.9193 57.368C86.9193 58.4133 86.9379 58.936 86.9753 58.936L87.8993 58.908C88.2166 58.8893 88.5993 58.88 89.0473 58.88C89.7566 58.88 90.1113 59.104 90.1113 59.552C90.1113 59.8133 89.9899 60.0093 89.7473 60.14C89.5233 60.2893 89.2433 60.364 88.9073 60.364L86.5273 60.364ZM99.8776 59.552L99.8496 58.46C99.8309 58.1427 99.8216 57.788 99.8216 57.396L99.8496 56.444C99.7936 56.2387 99.6536 54.1947 99.4296 50.312C99.2056 46.4293 99.0749 43.9373 99.0376 42.836C97.9549 42.7987 97.2643 42.6867 96.9656 42.5C96.7603 42.3507 96.6576 42.1827 96.6576 41.996C96.6576 41.8467 96.7509 41.716 96.9376 41.604C97.1429 41.4733 97.3483 41.408 97.5536 41.408C98.0763 41.408 98.7109 41.4453 99.4576 41.52C100.167 41.6133 100.802 41.66 101.362 41.66H101.586H101.81C102.388 41.66 102.678 41.884 102.678 42.332C102.678 42.556 102.584 42.7427 102.398 42.892C102.211 43.0227 101.996 43.088 101.754 43.088C101.586 43.088 101.343 43.06 101.026 43.004L100.466 42.892L100.438 43.032L100.41 43.172C100.41 44.8333 100.568 47.484 100.886 51.124C101.184 54.54 101.334 57.1907 101.334 59.076C101.334 59.3 101.231 59.496 101.026 59.664C100.839 59.832 100.624 59.916 100.382 59.916L99.8776 59.552ZM110.402 60C109.767 60 109.45 58.46 109.45 55.38L109.478 53.784L109.506 52.496V52.412V52.132C109.524 51.9827 109.534 51.8053 109.534 51.6C109.534 51.5627 109.506 51.516 109.45 51.46C109.394 51.404 109.366 51.3573 109.366 51.32V51.292C109.272 51.3293 109.104 51.348 108.862 51.348C108.619 51.348 108.32 51.3107 107.966 51.236C107.854 51.2173 107.555 51.1707 107.07 51.096L107.07 54.316C107.07 54.8013 107.098 55.5667 107.154 56.612C107.21 57.6387 107.238 58.404 107.238 58.908C107.238 59.188 107.163 59.4307 107.014 59.636C106.864 59.8413 106.668 59.944 106.426 59.944C106.071 59.944 105.819 59.5987 105.67 58.908C105.52 58.1987 105.446 57.2747 105.446 56.136L105.502 53.868C105.52 53.2333 105.53 52.5613 105.53 51.852V51.376V50.984C105.53 50.6853 105.52 50.4893 105.502 50.396V50.256L105.586 48.632C105.586 47.9227 105.558 46.868 105.502 45.468C105.446 44.068 105.418 43.0133 105.418 42.304C105.418 42.08 105.492 41.884 105.642 41.716C105.791 41.548 105.978 41.464 106.202 41.464C106.799 41.464 107.098 42.024 107.098 43.144L107.042 46.616C107.004 47.6613 106.986 48.828 106.986 50.116C107.266 50.2093 107.77 50.256 108.498 50.256L109.534 50.256C109.571 50.144 109.59 50.032 109.59 49.92C109.59 49.024 109.534 47.6987 109.422 45.944C109.291 44.3013 109.226 42.9667 109.226 41.94C109.226 41.7347 109.3 41.5667 109.45 41.436C109.618 41.2867 109.814 41.212 110.038 41.212C110.168 41.212 110.355 41.2587 110.598 41.352L110.85 41.464C110.85 44.1147 110.943 47.652 111.13 52.076L111.382 59.16C111.382 59.4213 111.279 59.6267 111.074 59.776C110.887 59.9253 110.663 60 110.402 60ZM119.643 60.476C119.233 60.476 118.859 60.028 118.523 59.132C118.131 58.1613 117.842 57.1627 117.655 56.136L117.459 55.184C116.918 52.5147 116.573 50.9933 116.423 50.62L116.087 50.62C116.087 51.1613 116.078 51.656 116.059 52.104V53.644C116.059 56.1453 116.237 58.096 116.591 59.496L116.283 60.252L115.499 60.252L115.135 59.832L115.163 57.956C115.163 56.276 115.079 53.728 114.911 50.312C114.762 46.672 114.687 44.124 114.687 42.668C114.687 41.772 114.995 41.324 115.611 41.324C116.619 41.324 117.441 41.5853 118.075 42.108C118.729 42.6307 119.055 43.3587 119.055 44.292L119.055 46.252C119.055 46.532 119.009 46.8587 118.915 47.232C118.822 47.5867 118.719 47.876 118.607 48.1L118.075 49.108L117.627 49.948L117.767 50.62L118.159 52.608C118.421 54.0453 118.673 55.212 118.915 56.108C119.158 57.004 119.457 57.816 119.811 58.544L119.979 58.88C120.166 59.2533 120.259 59.552 120.259 59.776C120.259 59.9627 120.203 60.1213 120.091 60.252C119.979 60.4013 119.83 60.476 119.643 60.476ZM116.199 49.248C116.61 49.0427 116.955 48.4827 117.235 47.568C117.534 46.6347 117.683 45.776 117.683 44.992C117.683 44.3947 117.609 43.8347 117.459 43.312C117.366 43.0133 117.207 42.7893 116.983 42.64C116.778 42.472 116.517 42.388 116.199 42.388L116.143 42.528L116.087 42.78L116.143 46.084C116.181 47.0547 116.199 48.1093 116.199 49.248ZM126.277 60.532C125.792 60.532 125.344 60.3733 124.933 60.056C124.522 59.7573 124.186 59.3467 123.925 58.824C123.384 57.6853 123.048 56.444 122.917 55.1C122.749 53.8307 122.665 52.608 122.665 51.432C122.665 51.208 122.674 51.0213 122.693 50.872V50.368C122.693 50.2747 122.684 50.228 122.665 50.228V49.724L122.693 47.764C122.712 47.1667 122.786 46.2147 122.917 44.908C123.01 44.012 123.225 43.144 123.561 42.304C123.692 41.9307 123.86 41.6507 124.065 41.464C124.27 41.2587 124.504 41.156 124.765 41.156C125.512 41.156 126.184 41.296 126.781 41.576C127.378 41.8373 127.882 42.2107 128.293 42.696C128.666 43.1627 128.984 43.7413 129.245 44.432C129.506 45.104 129.693 45.8227 129.805 46.588C129.917 47.372 129.973 48.2027 129.973 49.08V49.304C129.973 49.8827 129.982 50.4053 130.001 50.872L130.029 52.468C130.029 57.844 128.778 60.532 126.277 60.532ZM126.165 59.356C126.501 59.356 126.809 59.2253 127.089 58.964C127.369 58.684 127.584 58.3107 127.733 57.844C128.088 56.892 128.302 55.8653 128.377 54.764C128.47 53.812 128.517 52.9907 128.517 52.3C128.517 51.46 128.452 50.3587 128.321 48.996C128.209 47.5587 128.153 46.4853 128.153 45.776V45.272C128.116 44.5627 127.873 43.9467 127.425 43.424C126.996 42.9013 126.464 42.64 125.829 42.64C125.194 42.64 124.774 43.004 124.569 43.732C124.382 44.3107 124.289 45.0573 124.289 45.972C124.289 46.3267 124.298 46.6253 124.317 46.868V47.624L124.261 48.912C124.224 49.304 124.205 49.7333 124.205 50.2C124.205 51.208 124.233 52.2067 124.289 53.196C124.364 54.596 124.55 55.9587 124.849 57.284C125.148 58.6653 125.586 59.356 126.165 59.356ZM135.135 60.588C134.762 60.588 134.435 60.028 134.155 58.908C133.912 57.9187 133.707 56.696 133.539 55.24C133.39 53.7653 133.231 51.908 133.063 49.668C132.97 48.212 132.839 46.6533 132.671 44.992C132.54 43.6107 132.382 42.724 132.195 42.332C132.363 41.996 132.634 41.828 133.007 41.828C133.604 41.828 133.903 42.444 133.903 43.676C133.903 45.132 134.099 47.26 134.491 50.06C134.883 52.8413 135.107 54.8667 135.163 56.136L135.303 55.184C135.49 53.9333 135.648 52.7573 135.779 51.656C135.928 50.536 136.05 49.332 136.143 48.044C136.274 46.6067 136.339 45.188 136.339 43.788L137.095 43.452C137.338 43.452 137.534 43.5173 137.683 43.648C137.851 43.76 137.935 43.928 137.935 44.152V44.376C138.234 45.4213 138.476 46.5693 138.663 47.82C138.868 49.052 139.046 50.508 139.195 52.188C139.307 53.476 139.438 54.68 139.587 55.8C139.942 53.2987 140.119 50.2187 140.119 46.56C140.119 45.9813 140.194 45.272 140.343 44.432C140.474 43.5733 140.539 42.8733 140.539 42.332C140.483 42.164 140.455 42.0053 140.455 41.856C140.455 41.408 140.735 41.184 141.295 41.184C141.519 41.184 141.696 41.24 141.827 41.352C141.958 41.464 142.023 41.6227 142.023 41.828V42.248C142.023 42.528 141.995 42.7707 141.939 42.976V43.116C141.696 43.8627 141.575 44.7213 141.575 45.692L141.575 47.736C141.575 48.912 141.435 50.6667 141.155 53C140.856 55.2773 140.707 56.976 140.707 58.096V58.6C140.707 59.0293 140.66 59.3933 140.567 59.692C140.455 60.0653 140.184 60.252 139.755 60.252C139.456 60.252 139.223 60.1587 139.055 59.972C138.906 59.7667 138.831 59.5147 138.831 59.216C138.831 57.704 138.672 55.744 138.355 53.336C138.187 52.2533 138.01 51.1613 137.823 50.06L137.375 47.12C137.3 47.6613 137.263 48.1933 137.263 48.716C137.263 49.7613 137.188 51.1427 137.039 52.86C136.89 54.5773 136.656 56.248 136.339 57.872C135.984 59.6827 135.583 60.588 135.135 60.588ZM146.495 59.972C144.871 59.972 144.059 59.692 144.059 59.132C144.059 58.684 144.348 58.46 144.927 58.46H145.235L145.515 58.488C145.664 58.488 145.767 58.4413 145.823 58.348C145.879 58.2547 145.907 58.0867 145.907 57.844C145.907 57.5267 145.888 57.032 145.851 56.36C145.795 55.912 145.729 55.1093 145.655 53.952C145.487 51.096 145.403 48.94 145.403 47.484C145.403 46.9613 145.412 46.4853 145.431 46.056L145.459 44.628C145.459 44.012 145.431 43.4987 145.375 43.088C145.076 43.1627 144.861 43.2 144.731 43.2C144.283 43.2 144.059 42.976 144.059 42.528C144.059 42.304 144.199 42.108 144.479 41.94C144.759 41.772 145.113 41.6507 145.543 41.576C146.289 41.4267 146.952 41.352 147.531 41.352C147.755 41.352 147.941 41.436 148.091 41.604C148.259 41.7533 148.343 41.9307 148.343 42.136C148.343 42.3413 148.277 42.5187 148.147 42.668C148.035 42.8173 147.885 42.892 147.699 42.892C147.587 42.892 147.493 42.8827 147.419 42.864H147.195C147.008 42.864 146.868 42.9107 146.775 43.004C146.7 43.0787 146.663 43.228 146.663 43.452C146.663 45.2627 146.775 47.988 146.999 51.628C147.036 52.3 147.111 53.2893 147.223 54.596C147.316 55.4547 147.363 56.332 147.363 57.228V58.292C147.475 58.2733 147.661 58.264 147.923 58.264C148.707 58.264 149.099 58.5907 149.099 59.244V59.412L148.399 59.888C148.38 59.888 148.315 59.8973 148.203 59.916C148.109 59.916 147.923 59.916 147.643 59.916C147.045 59.9533 146.663 59.972 146.495 59.972ZM159.055 60.084C158.831 60.084 158.663 60.028 158.551 59.916C158.439 59.7853 158.355 59.5707 158.299 59.272L158.131 58.74V58.684V58.6C158.131 57.984 157.487 55.884 156.199 52.3C154.93 48.716 153.931 46.0653 153.203 44.348L153.203 58.432L153.315 58.628C153.334 58.6653 153.371 58.7307 153.427 58.824C153.483 58.9173 153.511 59.0107 153.511 59.104C153.511 59.3467 153.427 59.552 153.259 59.72C153.091 59.888 152.886 59.972 152.643 59.972C152.046 59.972 151.747 59.4027 151.747 58.264L151.719 53.476C151.7 52.0387 151.691 50.4333 151.691 48.66C151.691 48.0627 151.719 47.1947 151.775 46.056C151.831 44.88 151.859 44.012 151.859 43.452C151.859 42.5747 152.195 41.884 152.867 41.38V41.548C152.979 41.5107 153.054 41.492 153.091 41.492C153.52 41.492 154.062 42.2387 154.715 43.732C155.238 44.9267 155.704 46.1867 156.115 47.512C156.544 48.8373 157.104 50.7227 157.795 53.168L158.075 54.176C158.504 55.688 158.831 56.7707 159.055 57.424C159.428 53.4107 159.615 48.6693 159.615 43.2V42.836C159.596 42.724 159.587 42.6027 159.587 42.472C159.587 41.912 159.811 41.632 160.259 41.632C160.52 41.632 160.716 41.7347 160.847 41.94C160.996 42.1453 161.071 42.4067 161.071 42.724V44.824C161.034 47.6987 160.922 50.816 160.735 54.176C160.548 57.536 160.324 59.4307 160.063 59.86C159.522 60.0093 159.186 60.084 159.055 60.084ZM168.45 60.224C167.927 60.224 167.451 60.1307 167.022 59.944C166.592 59.7387 166.228 59.4773 165.93 59.16C165.687 58.8987 165.463 58.516 165.258 58.012C165.052 57.508 164.903 57.0227 164.81 56.556C164.716 56.2013 164.642 55.688 164.586 55.016C164.53 54.344 164.492 53.7653 164.474 53.28V51.656V50.536C164.474 49.4533 164.492 48.5667 164.53 47.876C164.567 47.036 164.688 46.1493 164.894 45.216C165.062 44.376 165.351 43.6387 165.762 43.004C166.154 42.3693 166.704 41.9307 167.414 41.688C167.75 41.5573 168.142 41.492 168.59 41.492C169.392 41.492 169.794 41.7253 169.794 42.192C169.794 42.416 169.7 42.6027 169.514 42.752C169.346 42.8827 169.14 42.948 168.898 42.948C168.786 42.948 168.683 42.9387 168.59 42.92C168.515 42.9013 168.422 42.892 168.31 42.892C167.992 42.892 167.712 43.06 167.47 43.396C167.227 43.732 167.022 44.1987 166.854 44.796C166.555 45.9533 166.35 47.2133 166.238 48.576C166.163 49.8453 166.126 50.788 166.126 51.404C166.126 52.0387 166.154 52.9067 166.21 54.008C166.284 55.0347 166.443 55.9307 166.686 56.696C166.816 57.144 166.966 57.508 167.134 57.788C167.32 58.0493 167.554 58.2733 167.834 58.46C168.151 58.6653 168.478 58.768 168.814 58.768C169.71 58.768 170.158 57.2747 170.158 54.288V53C170.027 52.944 169.812 52.916 169.514 52.916H169.262H168.954C168.3 52.916 167.974 52.7013 167.974 52.272C167.974 52.0107 168.058 51.8147 168.226 51.684C168.412 51.5347 168.646 51.46 168.926 51.46V51.488H169.318C170.998 51.488 171.838 51.7773 171.838 52.356C171.838 52.524 171.791 52.86 171.698 53.364C171.586 53.812 171.53 54.148 171.53 54.372C171.53 54.6893 171.558 55.184 171.614 55.856L171.67 57.34C171.67 58.236 171.352 58.9453 170.718 59.468C170.102 59.972 169.346 60.224 168.45 60.224ZM43.108 87.972C41.484 87.972 40.672 87.692 40.672 87.132C40.672 86.684 40.9614 86.46 41.54 86.46H41.848L42.128 86.488C42.2774 86.488 42.38 86.4413 42.436 86.348C42.492 86.2547 42.52 86.0867 42.52 85.844C42.52 85.5267 42.5014 85.032 42.464 84.36C42.408 83.912 42.3427 83.1093 42.268 81.952C42.1 79.096 42.016 76.94 42.016 75.484C42.016 74.9613 42.0254 74.4853 42.044 74.056L42.072 72.628C42.072 72.012 42.044 71.4987 41.988 71.088C41.6894 71.1627 41.4747 71.2 41.344 71.2C40.896 71.2 40.672 70.976 40.672 70.528C40.672 70.304 40.812 70.108 41.092 69.94C41.372 69.772 41.7267 69.6507 42.156 69.576C42.9027 69.4267 43.5654 69.352 44.144 69.352C44.368 69.352 44.5547 69.436 44.704 69.604C44.872 69.7533 44.956 69.9307 44.956 70.136C44.956 70.3413 44.8907 70.5187 44.76 70.668C44.648 70.8173 44.4987 70.892 44.312 70.892C44.2 70.892 44.1067 70.8827 44.032 70.864H43.808C43.6214 70.864 43.4814 70.9107 43.388 71.004C43.3134 71.0787 43.276 71.228 43.276 71.452C43.276 73.2627 43.388 75.988 43.612 79.628C43.6494 80.3 43.724 81.2893 43.836 82.596C43.9294 83.4547 43.976 84.332 43.976 85.228V86.292C44.088 86.2733 44.2747 86.264 44.536 86.264C45.32 86.264 45.712 86.5907 45.712 87.244L45.712 87.412L45.012 87.888C44.9934 87.888 44.928 87.8973 44.816 87.916C44.7227 87.916 44.536 87.916 44.256 87.916C43.6587 87.9533 43.276 87.972 43.108 87.972ZM55.6684 88.084C55.4444 88.084 55.2764 88.028 55.1644 87.916C55.0524 87.7853 54.9684 87.5707 54.9124 87.272L54.7444 86.74V86.684V86.6C54.7444 85.984 54.1004 83.884 52.8124 80.3C51.5431 76.716 50.5444 74.0653 49.8164 72.348L49.8164 86.432L49.9284 86.628C49.9471 86.6653 49.9844 86.7307 50.0404 86.824C50.0964 86.9173 50.1244 87.0107 50.1244 87.104C50.1244 87.3467 50.0404 87.552 49.8724 87.72C49.7044 87.888 49.4991 87.972 49.2564 87.972C48.6591 87.972 48.3604 87.4027 48.3604 86.264L48.3324 81.476C48.3138 80.0387 48.3044 78.4333 48.3044 76.66C48.3044 76.0627 48.3324 75.1947 48.3884 74.056C48.4444 72.88 48.4724 72.012 48.4724 71.452C48.4724 70.5747 48.8084 69.884 49.4804 69.38V69.548C49.5924 69.5107 49.6671 69.492 49.7044 69.492C50.1338 69.492 50.6751 70.2387 51.3284 71.732C51.8511 72.9267 52.3178 74.1867 52.7284 75.512C53.1578 76.8373 53.7178 78.7227 54.4084 81.168L54.6884 82.176C55.1178 83.688 55.4444 84.7707 55.6684 85.424C56.0418 81.4107 56.2284 76.6693 56.2284 71.2V70.836C56.2098 70.724 56.2004 70.6027 56.2004 70.472C56.2004 69.912 56.4244 69.632 56.8724 69.632C57.1338 69.632 57.3298 69.7347 57.4604 69.94C57.6098 70.1453 57.6844 70.4067 57.6844 70.724V72.824C57.6471 75.6987 57.5351 78.816 57.3484 82.176C57.1618 85.536 56.9378 87.4307 56.6764 87.86C56.1351 88.0093 55.7991 88.084 55.6684 88.084ZM69.8122 88.532C69.3268 88.532 68.8788 88.3733 68.4682 88.056C68.0575 87.7573 67.7215 87.3467 67.4602 86.824C66.9188 85.6853 66.5828 84.444 66.4522 83.1C66.2842 81.8307 66.2002 80.608 66.2002 79.432C66.2002 79.208 66.2095 79.0213 66.2282 78.872V78.368C66.2282 78.2747 66.2188 78.228 66.2002 78.228V77.724L66.2282 75.764C66.2468 75.1667 66.3215 74.2147 66.4522 72.908C66.5455 72.012 66.7602 71.144 67.0962 70.304C67.2268 69.9307 67.3948 69.6507 67.6002 69.464C67.8055 69.2587 68.0388 69.156 68.3002 69.156C69.0468 69.156 69.7188 69.296 70.3162 69.576C70.9135 69.8373 71.4175 70.2107 71.8282 70.696C72.2015 71.1627 72.5188 71.7413 72.7802 72.432C73.0415 73.104 73.2282 73.8227 73.3402 74.588C73.4522 75.372 73.5082 76.2027 73.5082 77.08V77.304C73.5082 77.8827 73.5175 78.4053 73.5362 78.872L73.5642 80.468C73.5642 85.844 72.3135 88.532 69.8122 88.532ZM69.7002 87.356C70.0362 87.356 70.3442 87.2253 70.6242 86.964C70.9042 86.684 71.1188 86.3107 71.2682 85.844C71.6228 84.892 71.8375 83.8653 71.9122 82.764C72.0055 81.812 72.0522 80.9907 72.0522 80.3C72.0522 79.46 71.9868 78.3587 71.8562 76.996C71.7442 75.5587 71.6882 74.4853 71.6882 73.776V73.272C71.6508 72.5627 71.4082 71.9467 70.9602 71.424C70.5308 70.9013 69.9988 70.64 69.3642 70.64C68.7295 70.64 68.3095 71.004 68.1042 71.732C67.9175 72.3107 67.8242 73.0573 67.8242 73.972C67.8242 74.3267 67.8335 74.6253 67.8522 74.868V75.624L67.7962 76.912C67.7588 77.304 67.7402 77.7333 67.7402 78.2C67.7402 79.208 67.7682 80.2067 67.8242 81.196C67.8988 82.596 68.0855 83.9587 68.3842 85.284C68.6828 86.6653 69.1215 87.356 69.7002 87.356ZM84.27 88.084C84.046 88.084 83.878 88.028 83.766 87.916C83.654 87.7853 83.57 87.5707 83.514 87.272L83.346 86.74V86.684V86.6C83.346 85.984 82.702 83.884 81.414 80.3C80.1447 76.716 79.146 74.0653 78.418 72.348L78.418 86.432L78.53 86.628C78.5487 86.6653 78.586 86.7307 78.642 86.824C78.698 86.9173 78.726 87.0107 78.726 87.104C78.726 87.3467 78.642 87.552 78.474 87.72C78.306 87.888 78.1007 87.972 77.858 87.972C77.2607 87.972 76.962 87.4027 76.962 86.264L76.934 81.476C76.9153 80.0387 76.906 78.4333 76.906 76.66C76.906 76.0627 76.934 75.1947 76.99 74.056C77.046 72.88 77.074 72.012 77.074 71.452C77.074 70.5747 77.41 69.884 78.082 69.38V69.548C78.194 69.5107 78.2687 69.492 78.306 69.492C78.7353 69.492 79.2767 70.2387 79.93 71.732C80.4527 72.9267 80.9193 74.1867 81.33 75.512C81.7593 76.8373 82.3193 78.7227 83.01 81.168L83.29 82.176C83.7193 83.688 84.046 84.7707 84.27 85.424C84.6433 81.4107 84.83 76.6693 84.83 71.2V70.836C84.8113 70.724 84.802 70.6027 84.802 70.472C84.802 69.912 85.026 69.632 85.474 69.632C85.7353 69.632 85.9313 69.7347 86.062 69.94C86.2113 70.1453 86.286 70.4067 86.286 70.724V72.824C86.2487 75.6987 86.1367 78.816 85.95 82.176C85.7633 85.536 85.5393 87.4307 85.278 87.86C84.7367 88.0093 84.4007 88.084 84.27 88.084ZM103.174 88.728C102.987 88.728 102.838 88.6347 102.726 88.448C102.614 88.2613 102.558 87.9907 102.558 87.636L102.53 83.492C102.511 83.1373 102.502 82.5493 102.502 81.728C102.464 79.992 102.446 78.032 102.446 75.848V74.42C102.278 75.316 101.988 76.576 101.578 78.2C101.167 79.88 100.878 81.2613 100.71 82.344V82.512L100.626 83.044C100.588 83.4547 100.495 83.8747 100.346 84.304C100.159 84.752 99.8697 84.976 99.4777 84.976C98.8057 84.976 98.4697 84.0987 98.4697 82.344C98.4697 81.3733 98.367 80.3373 98.1617 79.236C97.975 78.116 97.667 76.744 97.2377 75.12L96.3977 71.984L96.3417 75.344C96.3417 76.352 96.3884 78.2747 96.4817 81.112L96.5377 83.016L96.5937 86.852C96.5937 87.244 96.4537 87.5987 96.1737 87.916C95.707 87.916 95.3804 87.776 95.1937 87.496C95.0257 87.1973 94.9417 86.768 94.9417 86.208L94.9977 83.912C95.0537 82.904 95.0817 82.148 95.0817 81.644L95.0257 76.24L94.9697 70.808C94.9697 70.0053 94.9884 68.8013 95.0257 67.196L95.7817 66.748C95.931 66.7667 96.0804 66.8787 96.2297 67.084C96.379 67.2707 96.547 67.5787 96.7337 68.008C97.2004 69.1653 97.807 71.48 98.5537 74.952C98.6657 75.4373 98.7404 75.8387 98.7777 76.156C99.0017 77.2387 99.1604 78.06 99.2537 78.62L99.6737 80.776L99.8697 79.852L100.402 77.556C100.7 76.212 100.943 75.036 101.13 74.028C101.335 73.02 101.531 71.928 101.718 70.752C101.923 69.352 102.054 68.1853 102.11 67.252V67.084C102.147 66.8413 102.259 66.6547 102.446 66.524C102.632 66.3747 102.856 66.3 103.118 66.3C103.286 66.3 103.435 66.3747 103.566 66.524C103.696 66.6733 103.762 66.832 103.762 67C103.762 69.24 103.846 72.5907 104.014 77.052C104.107 79.236 104.172 81.3733 104.21 83.464C104.247 84.416 104.266 85.62 104.266 87.076C104.266 87.5053 104.154 87.888 103.93 88.224C103.706 88.56 103.454 88.728 103.174 88.728ZM113.341 88.252C112.912 88.252 112.595 88.1867 112.389 88.056C112.184 87.9253 112.081 87.6827 112.081 87.328C112.081 86.768 111.988 85.816 111.801 84.472L111.689 83.884L108.917 83.464C108.805 83.8933 108.647 84.7613 108.441 86.068C108.329 86.9827 108.152 87.5893 107.909 87.888C107.779 88.056 107.592 88.14 107.349 88.14C107.125 88.14 106.92 88.0747 106.733 87.944C106.547 87.7947 106.453 87.6173 106.453 87.412L106.509 87.272L106.537 87.16C107.769 82.3627 108.703 77.6307 109.337 72.964C109.337 72.8893 109.347 72.768 109.365 72.6C109.384 72.4133 109.403 72.152 109.421 71.816C109.477 71.1253 109.533 70.5747 109.589 70.164C109.664 69.7533 109.776 69.4453 109.925 69.24H110.877C111.139 69.24 111.363 69.3053 111.549 69.436C111.736 69.548 111.829 69.716 111.829 69.94C111.829 71.3587 112.025 73.468 112.417 76.268C112.791 79.1427 112.977 81.1587 112.977 82.316C112.977 82.428 113.024 82.7173 113.117 83.184C113.211 83.6133 113.257 83.8933 113.257 84.024C113.257 84.1547 113.351 84.7147 113.537 85.704C113.705 86.6 113.789 87.1787 113.789 87.44V87.468C113.789 87.8787 113.64 88.14 113.341 88.252ZM111.493 82.876C111.437 82.596 111.409 82.2507 111.409 81.84C111.409 80.16 111.26 78.0133 110.961 75.4L110.681 72.488C109.879 76.8747 109.328 80.188 109.029 82.428C109.309 82.6147 110.131 82.764 111.493 82.876ZM121.092 88.476C120.682 88.476 120.308 88.028 119.972 87.132C119.58 86.1613 119.291 85.1627 119.104 84.136L118.908 83.184C118.367 80.5147 118.022 78.9933 117.872 78.62H117.536C117.536 79.1613 117.527 79.656 117.508 80.104V81.644C117.508 84.1453 117.686 86.096 118.04 87.496L117.732 88.252H116.948L116.584 87.832L116.612 85.956C116.612 84.276 116.528 81.728 116.36 78.312C116.211 74.672 116.136 72.124 116.136 70.668C116.136 69.772 116.444 69.324 117.06 69.324C118.068 69.324 118.89 69.5853 119.524 70.108C120.178 70.6307 120.504 71.3587 120.504 72.292V74.252C120.504 74.532 120.458 74.8587 120.364 75.232C120.271 75.5867 120.168 75.876 120.056 76.1L119.524 77.108L119.076 77.948L119.216 78.62L119.608 80.608C119.87 82.0453 120.122 83.212 120.364 84.108C120.607 85.004 120.906 85.816 121.26 86.544L121.428 86.88C121.615 87.2533 121.708 87.552 121.708 87.776C121.708 87.9627 121.652 88.1213 121.54 88.252C121.428 88.4013 121.279 88.476 121.092 88.476ZM117.648 77.248C118.059 77.0427 118.404 76.4827 118.684 75.568C118.983 74.6347 119.132 73.776 119.132 72.992C119.132 72.3947 119.058 71.8347 118.908 71.312C118.815 71.0133 118.656 70.7893 118.432 70.64C118.227 70.472 117.966 70.388 117.648 70.388L117.592 70.528L117.536 70.78L117.592 74.084C117.63 75.0547 117.648 76.1093 117.648 77.248ZM128.202 88.392C127.792 88.392 127.353 88.3267 126.886 88.196C126.438 88.084 126.093 87.9533 125.85 87.804C124.6 87.0013 123.974 84.808 123.974 81.224V80.468V79.6V78.928C123.974 78.1813 123.984 77.5187 124.002 76.94C124.021 76.3427 124.058 75.6987 124.114 75.008C124.17 74.28 124.254 73.692 124.366 73.244C124.478 72.7773 124.665 72.2547 124.926 71.676C125.15 71.1347 125.421 70.7147 125.738 70.416C126.074 70.1173 126.504 69.8653 127.026 69.66C127.493 69.4547 128.072 69.352 128.762 69.352C129.042 69.352 129.257 69.4173 129.406 69.548C129.556 69.6787 129.63 69.8467 129.63 70.052C129.63 70.2387 129.565 70.4067 129.434 70.556C129.322 70.7053 129.182 70.7893 129.014 70.808L127.698 70.808C127.325 70.808 126.998 71.0413 126.718 71.508C126.438 71.9747 126.242 72.5813 126.13 73.328C125.888 74.7093 125.766 75.8293 125.766 76.688V76.828L125.71 79.516C125.673 80.3187 125.654 81.224 125.654 82.232C125.654 82.9413 125.682 83.52 125.738 83.968C125.832 84.64 125.99 85.2 126.214 85.648C126.438 86.152 126.821 86.516 127.362 86.74C127.642 86.852 127.95 86.908 128.286 86.908C128.492 86.908 128.697 86.8333 128.902 86.684C129.145 86.684 129.341 86.74 129.49 86.852C129.658 86.9453 129.742 87.0947 129.742 87.3C129.742 88.028 129.229 88.392 128.202 88.392ZM137.199 88C136.564 88 136.247 86.46 136.247 83.38L136.275 81.784L136.303 80.496V80.412V80.132C136.321 79.9827 136.331 79.8053 136.331 79.6C136.331 79.5627 136.303 79.516 136.247 79.46C136.191 79.404 136.163 79.3573 136.163 79.32V79.292C136.069 79.3293 135.901 79.348 135.659 79.348C135.416 79.348 135.117 79.3107 134.763 79.236C134.651 79.2173 134.352 79.1707 133.867 79.096V82.316C133.867 82.8013 133.895 83.5667 133.951 84.612C134.007 85.6387 134.035 86.404 134.035 86.908C134.035 87.188 133.96 87.4307 133.811 87.636C133.661 87.8413 133.465 87.944 133.223 87.944C132.868 87.944 132.616 87.5987 132.467 86.908C132.317 86.1987 132.243 85.2747 132.243 84.136L132.299 81.868C132.317 81.2333 132.327 80.5613 132.327 79.852V79.376V78.984C132.327 78.6853 132.317 78.4893 132.299 78.396V78.256L132.383 76.632C132.383 75.9227 132.355 74.868 132.299 73.468C132.243 72.068 132.215 71.0133 132.215 70.304C132.215 70.08 132.289 69.884 132.439 69.716C132.588 69.548 132.775 69.464 132.999 69.464C133.596 69.464 133.895 70.024 133.895 71.144L133.839 74.616C133.801 75.6613 133.783 76.828 133.783 78.116C134.063 78.2093 134.567 78.256 135.295 78.256L136.331 78.256C136.368 78.144 136.387 78.032 136.387 77.92C136.387 77.024 136.331 75.6987 136.219 73.944C136.088 72.3013 136.023 70.9667 136.023 69.94C136.023 69.7347 136.097 69.5667 136.247 69.436C136.415 69.2867 136.611 69.212 136.835 69.212C136.965 69.212 137.152 69.2587 137.395 69.352L137.647 69.464C137.647 72.1147 137.74 75.652 137.927 80.076L138.179 87.16C138.179 87.4213 138.076 87.6267 137.871 87.776C137.684 87.9253 137.46 88 137.199 88ZM149.425 89.12C149.015 89.12 148.651 88.9893 148.333 88.728C148.035 88.4667 147.801 88.1213 147.633 87.692C147.353 86.9453 147.213 86.1427 147.213 85.284C147.213 84.164 147.428 82.596 147.857 80.58C148.287 78.6013 148.501 77.1453 148.501 76.212C148.501 75.708 148.408 75.12 148.221 74.448C148.035 73.776 147.811 73.1227 147.549 72.488C147.288 71.8347 147.064 71.1627 146.877 70.472C146.691 69.7627 146.597 69.128 146.597 68.568C146.597 67.84 146.765 67.2333 147.101 66.748C147.437 66.2627 147.913 66.02 148.529 66.02H149.117C149.715 66.412 150.116 66.7667 150.321 67.084C150.471 67.308 150.583 67.504 150.657 67.672C150.732 67.8213 150.779 68.036 150.797 68.316C150.835 68.6893 150.853 69.268 150.853 70.052C150.853 70.6493 150.835 71.116 150.797 71.452L150.713 72.096C150.695 72.3573 150.62 72.8147 150.489 73.468C150.415 73.804 150.377 74 150.377 74.056C150.359 74.1493 150.303 74.4107 150.209 74.84L150.041 75.568L149.873 76.212C150.527 77.7053 151.059 79.3947 151.469 81.28C151.88 83.1653 152.085 84.864 152.085 86.376C152.085 86.4507 152.095 86.516 152.113 86.572V86.768L152.085 87.048L152.057 87.16V87.188C151.497 88.476 150.62 89.12 149.425 89.12ZM149.005 74.224C149.416 72.824 149.621 71.4333 149.621 70.052C149.621 69.5667 149.547 68.988 149.397 68.316C149.267 67.6253 149.108 67.28 148.921 67.28H148.333C148.072 67.5787 147.941 68.0453 147.941 68.68C147.941 69.2587 148.053 70.1453 148.277 71.34C148.52 72.516 148.763 73.4773 149.005 74.224ZM149.453 87.916C149.92 87.916 150.256 87.7573 150.461 87.44C150.685 87.104 150.797 86.656 150.797 86.096C150.797 84.8827 150.676 83.6507 150.433 82.4C150.191 81.1307 149.808 79.5813 149.285 77.752C149.024 78.6107 148.828 79.7493 148.697 81.168C148.567 82.568 148.501 83.9773 148.501 85.396V85.424C148.501 85.9093 148.623 86.3947 148.865 86.88V87.02C148.884 87.244 148.949 87.4493 149.061 87.636C149.173 87.8227 149.304 87.916 149.453 87.916ZM163.399 74.98C163.157 74.98 162.942 74.8867 162.755 74.7C162.569 74.4947 162.475 74.2613 162.475 74C162.475 73.72 162.578 73.468 162.783 73.244C162.989 73.02 163.231 72.908 163.511 72.908C163.773 72.908 164.006 73.02 164.211 73.244C164.417 73.4493 164.519 73.692 164.519 73.972C164.519 74.2707 164.417 74.5133 164.211 74.7C164.006 74.8867 163.735 74.98 163.399 74.98ZM162.587 87.58C162.494 87.58 162.419 87.552 162.363 87.496C162.307 87.44 162.279 87.3747 162.279 87.3V87.132L162.951 86.292C163.231 85.9 163.39 85.592 163.427 85.368C163.446 85.312 163.455 85.228 163.455 85.116C163.455 85.004 163.446 84.92 163.427 84.864C163.129 84.864 162.895 84.78 162.727 84.612C162.578 84.4253 162.475 84.1453 162.419 83.772C162.363 83.436 162.457 83.184 162.699 83.016C162.942 82.8293 163.259 82.736 163.651 82.736C164.379 82.736 164.743 83.128 164.743 83.912C164.743 84.3973 164.575 84.9853 164.239 85.676C163.922 86.3667 163.521 86.936 163.035 87.384C162.923 87.4587 162.811 87.5147 162.699 87.552L162.587 87.58ZM169.023 92.144C168.836 92.144 168.668 92.0787 168.519 91.948C168.37 91.836 168.295 91.6867 168.295 91.5C168.295 91.22 168.556 90.6227 169.079 89.708C169.322 89.2787 169.452 89.036 169.471 88.98C170.143 87.5053 170.703 85.5733 171.151 83.184C171.618 80.7947 171.851 78.6853 171.851 76.856C171.851 75.3813 171.739 73.8973 171.515 72.404C171.31 70.892 171.011 69.6413 170.619 68.652C170.526 68.428 170.386 68.1573 170.199 67.84C169.975 67.4107 169.816 67.0653 169.723 66.804C169.63 66.524 169.583 66.2533 169.583 65.992V65.824L170.115 65.432C170.638 65.432 171.114 65.9267 171.543 66.916C172.215 68.4653 172.719 70.9013 173.055 74.224C173.186 75.288 173.251 76.156 173.251 76.828V76.856C173.251 77.5093 173.13 78.6387 172.887 80.244C172.663 81.8493 172.374 83.5387 172.019 85.312C171.664 87.0853 171.216 88.672 170.675 90.072C170.115 91.4533 169.564 92.144 169.023 92.144Z" fill="#292D32"/>
<defs>
<filter id="filter0_d_0_3898" x="0" y="0" width="209" height="171" filterUnits="userSpaceOnUse" color-interpolation-filters="sRGB">
<feFlood flood-opacity="0" result="BackgroundImageFix"/>
<feColorMatrix in="SourceAlpha" type="matrix" values="0 0 0 0 0 0 0 0 0 0 0 0 0 0 0 0 0 0 127 0" result="hardAlpha"/>
<feOffset dy="12"/>
<feGaussianBlur stdDeviation="10"/>
<feComposite in2="hardAlpha" operator="out"/>
<feColorMatrix type="matrix" values="0 0 0 0 0 0 0 0 0 0 0 0 0 0 0 0 0 0 0.08 0"/>
<feBlend mode="normal" in2="BackgroundImageFix" result="effect1_dropShadow_0_3898"/>
<feBlend mode="normal" in="SourceGraphic" in2="effect1_dropShadow_0_3898" result="shape"/>
</filter>
</defs>
</svg>
