<svg width="228" height="138" viewBox="0 0 228 138" fill="none" xmlns="http://www.w3.org/2000/svg">
<g filter="url(#filter0_d_0_3041)">
<path d="M42.5692 108H185.431C197.891 108 208 97.8288 208 85.2925V51.6837C208 39.1474 197.891 28.9762 185.431 28.9762H178.655C177.058 23.0095 176.735 15.0178 182.527 8C182.527 8 159.144 13.1784 153.874 28.9762H42.5692C30.1093 28.9762 20 39.1474 20 51.6837V85.2925C20 97.8288 30.1093 108 42.5692 108Z" fill="white"/>
</g>
<path d="M42.976 63.936C42.6987 63.8507 42.5493 63.6693 42.528 63.392V62.912C42.4853 62.016 42.4427 60.672 42.4 58.88C42.3147 57.3227 42.2613 56.128 42.24 55.296C42.176 53.9947 42.1013 52.0427 42.016 49.44C41.9947 48.992 41.9733 48.3733 41.952 47.584C41.9307 46.7947 41.92 46.1973 41.92 45.792C41.8987 45.5573 41.888 45.2267 41.888 44.8C41.888 44.3093 41.9093 43.9467 41.952 43.712C42.0373 43.0507 42.4 42.7413 43.04 42.784C43.6373 42.784 43.9573 43.1253 44 43.808V44.192L43.968 52.256L43.968 56.064L43.968 57.984C43.968 58.2827 43.9893 58.6347 44.032 59.04C44.0747 59.424 44.1067 59.7013 44.128 59.872C44.2347 59.2533 44.4053 58.624 44.64 57.984C44.896 57.3227 45.056 56.9173 45.12 56.768C45.44 56 45.6747 55.3707 45.824 54.88C46.336 53.2373 46.9973 51.2213 47.808 48.832C47.9787 48.3413 48.1707 47.744 48.384 47.04C48.96 45.2267 49.3547 44.0533 49.568 43.52C49.76 43.008 50.048 42.688 50.432 42.56C50.624 42.496 50.816 42.464 51.008 42.464C51.3067 42.464 51.616 42.56 51.936 42.752V44.288C51.936 45.888 51.968 47.5413 52.032 49.248C52.0533 49.6107 52.064 50.1547 52.064 50.88V51.808C52.064 52 52.0533 52.256 52.032 52.576C52.032 52.896 52.0427 53.2693 52.064 53.696L52.16 62.336C52.16 62.656 52.0853 63.008 51.936 63.392C51.872 63.5627 51.7653 63.7013 51.616 63.808C51.4667 63.8933 51.3067 63.936 51.136 63.936C50.5387 63.936 50.24 63.6587 50.24 63.104C50.24 62.464 50.272 61.8453 50.336 61.248C50.3787 60.4373 50.4 59.8187 50.4 59.392C50.3573 55.168 50.304 52.0107 50.24 49.92C50.24 49.6 50.1973 49.0773 50.112 48.352L50.016 47.2C49.824 47.4133 49.7173 47.552 49.696 47.616L49.184 49.184C48.8427 50.2933 48.576 51.1147 48.384 51.648L45.6 59.392L44.16 63.328C43.9893 63.776 43.7333 64 43.392 64C43.328 64 43.1893 63.9787 42.976 63.936ZM73.9862 67.936C73.8156 67.9787 73.6876 68 73.6022 68C73.3462 68 73.1649 67.84 73.0582 67.52C72.9729 67.264 72.9302 66.944 72.9302 66.56L72.9622 64.352C72.9622 64.224 72.9516 64.1067 72.9302 64C72.9089 63.8933 72.8876 63.7867 72.8662 63.68L69.1862 63.68C69.3996 63.68 68.8876 63.7867 67.6502 64C66.4342 64.192 65.4849 64.32 64.8022 64.384L63.3622 64.512L61.7622 64.672C61.7622 64.864 61.7622 65.0987 61.7622 65.376C61.7836 65.6533 61.7836 65.984 61.7622 66.368V66.528C61.7622 66.8693 61.6769 67.1253 61.5062 67.296C61.3356 67.4667 61.1756 67.552 61.0262 67.552C60.9409 67.552 60.8129 67.5093 60.6422 67.424C60.2582 67.1467 60.0449 66.7627 60.0022 66.272L59.9062 63.936C59.8636 63.104 60.2049 62.688 60.9302 62.688C61.3356 62.6667 61.6556 62.56 61.8902 62.368C62.1249 62.176 62.4022 61.8773 62.7222 61.472C63.0422 61.0453 63.2876 60.576 63.4582 60.064C63.6502 59.5307 63.8316 58.8907 64.0022 58.144C64.1942 57.3333 64.3329 56.544 64.4182 55.776C64.5036 55.008 64.6102 53.9093 64.7382 52.48C64.9302 50.24 65.0262 47.9893 65.0262 45.728L64.9942 43.936C64.9942 43.5307 65.1116 43.2 65.3462 42.944C65.5809 42.6667 65.9009 42.528 66.3062 42.528C66.4342 42.528 66.5302 42.5387 66.5942 42.56C67.5756 42.7307 68.3756 42.8373 68.9942 42.88H69.1542C69.4316 42.88 69.5916 42.8267 69.6342 42.72C69.8262 42.464 70.0609 42.336 70.3382 42.336C70.5302 42.336 70.7009 42.3787 70.8502 42.464C71.1916 42.592 71.4156 42.912 71.5222 43.424L71.3622 48.896C71.3622 51.8613 71.3729 54.08 71.3942 55.552C71.3942 56.32 71.4156 57.4933 71.4582 59.072L71.4902 60.832C71.4902 61.0027 71.5009 61.1627 71.5222 61.312C71.5436 61.4613 71.5649 61.6107 71.5862 61.76C72.0129 61.8027 72.3329 61.824 72.5462 61.824C72.7169 61.824 72.8449 61.8133 72.9302 61.792C73.3996 61.728 73.8156 61.8453 74.1782 62.144C74.5622 62.4213 74.7542 62.784 74.7542 63.232C74.7542 63.808 74.7116 64.672 74.6262 65.824C74.6262 66.1227 74.6049 66.5493 74.5622 67.104C74.5196 67.552 74.3276 67.8293 73.9862 67.936ZM64.7702 62.848C65.9649 62.7413 66.9036 62.6453 67.5862 62.56C68.2902 62.4533 68.9836 62.2933 69.6662 62.08C69.8796 59.4987 69.9862 56.736 69.9862 53.792C69.9862 51.0613 69.8796 48.064 69.6662 44.8C69.1116 44.7787 68.0769 44.7253 66.5622 44.64L66.5302 46.144C66.3596 49.4293 66.2422 51.8827 66.1782 53.504C66.0929 55.936 65.6769 58.3253 64.9302 60.672C64.8876 60.8 64.7916 61.12 64.6422 61.632C64.5142 62.1227 64.3116 62.5493 64.0342 62.912L64.7702 62.848ZM83.006 64.288C82.5153 64.288 82.1527 64.2133 81.918 64.064C81.6833 63.9147 81.566 63.6373 81.566 63.232C81.566 62.592 81.4593 61.504 81.246 59.968L81.118 59.296L77.95 58.816C77.822 59.3067 77.6407 60.2987 77.406 61.792C77.278 62.8373 77.0753 63.5307 76.798 63.872C76.6487 64.064 76.4353 64.16 76.158 64.16C75.902 64.16 75.6673 64.0853 75.454 63.936C75.2407 63.7653 75.134 63.5627 75.134 63.328L75.198 63.168L75.23 63.04C76.638 57.5573 77.7047 52.1493 78.43 46.816C78.43 46.7307 78.4407 46.592 78.462 46.4C78.4833 46.1867 78.5047 45.888 78.526 45.504C78.59 44.7147 78.654 44.0853 78.718 43.616C78.8033 43.1467 78.9313 42.7947 79.102 42.56L80.19 42.56C80.4887 42.56 80.7447 42.6347 80.958 42.784C81.1713 42.912 81.278 43.104 81.278 43.36C81.278 44.9813 81.502 47.392 81.95 50.592C82.3767 53.8773 82.59 56.1813 82.59 57.504C82.59 57.632 82.6433 57.9627 82.75 58.496C82.8567 58.9867 82.91 59.3067 82.91 59.456C82.91 59.6053 83.0167 60.2453 83.23 61.376C83.422 62.4 83.518 63.0613 83.518 63.36V63.392C83.518 63.8613 83.3473 64.16 83.006 64.288ZM80.894 58.144C80.83 57.824 80.798 57.4293 80.798 56.96C80.798 55.04 80.6273 52.5867 80.286 49.6L79.966 46.272C79.0487 51.2853 78.4193 55.072 78.078 57.632C78.398 57.8453 79.3367 58.016 80.894 58.144ZM87.0005 64.48C86.1258 64.48 85.5498 64.0533 85.2725 63.2C85.1658 62.9227 85.1125 62.592 85.1125 62.208C85.1125 61.9093 85.1445 61.568 85.2085 61.184C85.2725 60.8 85.3152 60.544 85.3365 60.416C85.3578 60.2453 85.4325 60.1067 85.5605 60C85.7098 59.8933 85.8805 59.8293 86.0725 59.808C86.2645 59.808 86.4458 59.872 86.6165 60C86.7872 60.128 86.9045 60.2773 86.9685 60.448C87.0112 60.6613 87.0325 61.216 87.0325 62.112C87.1392 62.176 87.2458 62.1973 87.3525 62.176C87.4165 62.0053 87.4912 61.8027 87.5765 61.568C87.6832 61.312 87.7578 61.0987 87.8005 60.928C88.2272 58.9653 88.5258 57.4827 88.6965 56.48C88.8245 55.8187 89.0165 55.2427 89.2725 54.752C89.5498 54.2613 89.9552 53.824 90.4885 53.44C90.1258 52.9707 89.8485 52.3307 89.6565 51.52C89.4645 50.688 89.3685 49.8667 89.3685 49.056V47.424C89.3685 46.6773 89.3578 46.1227 89.3365 45.76C89.3365 45.504 89.2512 45.1733 89.0805 44.768C88.9312 44.3627 88.7818 44.16 88.6325 44.16C88.4405 44.2027 88.2592 44.32 88.0885 44.512C87.9818 44.768 87.9178 45.088 87.8965 45.472C87.8752 45.8347 87.8645 46.0587 87.8645 46.144C87.8005 46.7413 87.4805 47.008 86.9045 46.944C86.6912 46.9227 86.4992 46.816 86.3285 46.624C86.1578 46.4107 86.0725 46.176 86.0725 45.92C86.0725 45.472 86.2112 45.0027 86.4885 44.512C86.7658 44.0213 87.0965 43.616 87.4805 43.296C87.8858 42.976 88.2698 42.816 88.6325 42.816C88.9098 42.816 89.1978 42.912 89.4965 43.104C89.8165 43.2747 90.0832 43.4987 90.2965 43.776C90.7018 44.352 90.9045 45.2693 90.9045 46.528C90.9045 46.8907 90.8832 47.4347 90.8405 48.16L90.8085 48.8C90.8085 49.568 90.8618 50.3573 90.9685 51.168C91.0965 51.9573 91.2992 52.5653 91.5765 52.992C91.5978 53.0133 91.6512 53.024 91.7365 53.024C91.8432 53.024 91.9285 53.0347 91.9925 53.056V52.896C91.9925 51.232 91.9712 49.12 91.9285 46.56C91.9285 46.304 91.9498 45.92 91.9925 45.408L92.0245 44.32C92.0245 44 92.0138 43.7547 91.9925 43.584C91.9712 43.52 91.9605 43.4347 91.9605 43.328C91.9605 42.8373 92.2272 42.5387 92.7605 42.432C92.9312 42.3893 93.1338 42.464 93.3685 42.656C93.6245 42.8267 93.7952 43.04 93.8805 43.296C93.9445 43.488 93.9765 43.7013 93.9765 43.936C93.9765 44.0853 93.9658 44.192 93.9445 44.256C93.6458 45.7067 93.4965 47.072 93.4965 48.352V53.216C93.7952 53.3227 94.0512 53.3973 94.2645 53.44C94.7338 53.504 95.0112 53.2053 95.0965 52.544C95.1605 52.2667 95.2352 51.7333 95.3205 50.944C95.3418 50.816 95.3525 50.6987 95.3525 50.592C95.3525 50.4853 95.3632 50.3787 95.3845 50.272L95.5445 48.928C95.6085 48.1813 95.7045 47.4453 95.8325 46.72C96.0885 45.4187 96.6112 44.352 97.4005 43.52C97.7205 43.2 98.1045 43.04 98.5525 43.04C98.8938 43.04 99.2138 43.136 99.5125 43.328C99.8325 43.4987 100.067 43.744 100.216 44.064C100.408 44.4907 100.536 44.928 100.6 45.376C100.686 45.8027 100.75 46.3573 100.792 47.04C100.814 47.296 100.75 47.4773 100.6 47.584C100.451 47.6693 100.206 47.776 99.8645 47.904C99.5658 47.8187 99.3312 47.6587 99.1605 47.424C99.0112 47.1893 98.9578 46.8907 99.0005 46.528C99.0645 45.9307 98.8832 45.3653 98.4565 44.832C98.1152 45.1307 97.8592 45.4613 97.6885 45.824C97.5178 46.1653 97.3898 46.624 97.3045 47.2C97.2192 47.776 97.1445 48.1707 97.0805 48.384C96.9098 49.1947 96.8245 49.8133 96.8245 50.24C96.8245 50.6667 96.7605 51.2 96.6325 51.84C96.5045 52.48 96.3552 53.0027 96.1845 53.408C96.1205 53.536 96.0885 53.6533 96.0885 53.76C96.0885 53.952 96.1738 54.1333 96.3445 54.304C96.6432 54.624 96.8672 55.1467 97.0165 55.872C97.0805 56.2133 97.1125 56.64 97.1125 57.152L97.0805 58.4C97.0378 59.04 97.0165 59.52 97.0165 59.84C97.0165 60.224 97.0912 60.5867 97.2405 60.928C97.4112 61.248 97.6565 61.6427 97.9765 62.112C98.0618 62.24 98.1898 62.304 98.3605 62.304C98.5952 62.304 98.7978 62.1867 98.9685 61.952C99.2032 61.4187 99.3525 60.9707 99.4165 60.608C99.4805 60.2453 99.5232 60.0107 99.5445 59.904C99.6085 59.3707 99.8645 59.104 100.312 59.104C100.462 59.104 100.579 59.1147 100.664 59.136L101.08 59.296C101.166 59.616 101.208 59.968 101.208 60.352C101.208 61.312 100.856 62.304 100.152 63.328C99.9818 63.584 99.7365 63.7867 99.4165 63.936C99.1178 64.0853 98.7765 64.16 98.3925 64.16C97.9872 64.16 97.6352 64.0747 97.3365 63.904C97.0378 63.712 96.8032 63.4667 96.6325 63.168C96.3552 62.6133 96.1418 62.1013 95.9925 61.632C95.8432 61.1627 95.7685 60.672 95.7685 60.16C95.7685 59.52 95.7472 58.816 95.7045 58.048C95.6618 57.28 95.6298 56.7467 95.6085 56.448L95.5445 55.584C95.5445 55.2427 95.4165 55.008 95.1605 54.88C94.9258 54.7307 94.6378 54.624 94.2965 54.56C93.9552 54.4747 93.6885 54.4107 93.4965 54.368C93.4538 55.0933 93.4325 55.6267 93.4325 55.968C93.4325 56.3733 93.4112 56.96 93.3685 57.728C93.3258 58.88 93.3152 59.7333 93.3365 60.288C93.3578 60.5653 93.4005 60.8747 93.4645 61.216C93.5285 61.5573 93.5712 61.792 93.5925 61.92C93.6778 62.2187 93.7312 62.4427 93.7525 62.592C93.7952 62.7627 93.8165 62.9013 93.8165 63.008C93.8165 63.3067 93.7312 63.552 93.5605 63.744C93.3898 63.9147 93.1338 64.0107 92.7925 64.032C92.5152 64.0533 92.3338 64 92.2485 63.872C92.1632 63.7227 92.1098 63.488 92.0885 63.168L92.1205 61.664C92.1205 61.024 92.0992 60.0427 92.0565 58.72C92.0138 57.8667 91.9925 57.216 91.9925 56.768L91.9925 54.176C91.7578 54.1547 91.5658 54.208 91.4165 54.336C91.2885 54.464 91.1605 54.6347 91.0325 54.848C90.7125 55.3387 90.4778 55.8613 90.3285 56.416C90.1792 56.9707 90.0298 57.6853 89.8805 58.56L89.7525 59.296C89.4965 60.832 89.1338 62.1547 88.6645 63.264C88.5152 63.648 88.2912 63.9467 87.9925 64.16C87.6938 64.3733 87.3632 64.48 87.0005 64.48ZM105.424 64.416C105.147 64.416 104.891 64.32 104.656 64.128C104.443 63.936 104.325 63.7013 104.304 63.424V62.592L104.304 61.952C104.283 61.76 104.272 61.536 104.272 61.28C104.272 60.832 104.24 60.1493 104.176 59.232L104.112 57.184C104.112 56.1387 104.144 54.5813 104.208 52.512C104.293 50.656 104.336 49.0987 104.336 47.84C104.336 47.5413 104.304 47.0933 104.24 46.496C104.176 45.8773 104.144 45.4293 104.144 45.152C104.144 43.6373 104.592 42.88 105.488 42.88C106.192 42.88 107.003 43.0187 107.92 43.296C108.859 43.5733 109.328 43.904 109.328 44.288C109.328 44.5013 109.232 44.704 109.04 44.896C108.869 45.0667 108.656 45.2053 108.4 45.312C107.504 44.992 106.693 44.7787 105.968 44.672C105.989 44.992 106 45.4507 106 46.048C106 46.9013 105.989 47.6693 105.968 48.352C105.904 49.376 105.872 50.144 105.872 50.656L105.968 51.168L106.48 51.136C106.651 51.1147 106.864 51.104 107.12 51.104C108.144 51.104 108.656 51.4027 108.656 52C108.656 52.2347 108.56 52.4373 108.368 52.608C108.176 52.7573 107.931 52.832 107.632 52.832C107.248 52.832 106.949 52.8107 106.736 52.768H105.936C105.979 53.3227 106 54.1333 106 55.2C106 56.2667 105.989 57.2267 105.968 58.08C105.904 59.3813 105.872 60.352 105.872 60.992C105.872 62.1867 105.893 62.784 105.936 62.784L106.992 62.752C107.355 62.7307 107.792 62.72 108.304 62.72C109.115 62.72 109.52 62.976 109.52 63.488C109.52 63.7867 109.381 64.0107 109.104 64.16C108.848 64.3307 108.528 64.416 108.144 64.416H105.424ZM54.08 99.936C53.9093 99.9787 53.7813 100 53.696 100C53.44 100 53.2587 99.84 53.152 99.52C53.0667 99.264 53.024 98.944 53.024 98.56L53.056 96.352C53.056 96.224 53.0453 96.1067 53.024 96C53.0027 95.8933 52.9813 95.7867 52.96 95.68L49.28 95.68C49.4933 95.68 48.9813 95.7867 47.744 96C46.528 96.192 45.5787 96.32 44.896 96.384L43.456 96.512L41.856 96.672C41.856 96.864 41.856 97.0987 41.856 97.376C41.8773 97.6533 41.8773 97.984 41.856 98.368V98.528C41.856 98.8693 41.7707 99.1253 41.6 99.296C41.4293 99.4667 41.2693 99.552 41.12 99.552C41.0347 99.552 40.9067 99.5093 40.736 99.424C40.352 99.1467 40.1387 98.7627 40.096 98.272L40 95.936C39.9573 95.104 40.2987 94.688 41.024 94.688C41.4293 94.6667 41.7493 94.56 41.984 94.368C42.2187 94.176 42.496 93.8773 42.816 93.472C43.136 93.0453 43.3813 92.576 43.552 92.064C43.744 91.5307 43.9253 90.8907 44.096 90.144C44.288 89.3333 44.4267 88.544 44.512 87.776C44.5973 87.008 44.704 85.9093 44.832 84.48C45.024 82.24 45.12 79.9893 45.12 77.728L45.088 75.936C45.088 75.5307 45.2053 75.2 45.44 74.944C45.6747 74.6667 45.9947 74.528 46.4 74.528C46.528 74.528 46.624 74.5387 46.688 74.56C47.6693 74.7307 48.4693 74.8373 49.088 74.88H49.248C49.5253 74.88 49.6853 74.8267 49.728 74.72C49.92 74.464 50.1547 74.336 50.432 74.336C50.624 74.336 50.7947 74.3787 50.944 74.464C51.2853 74.592 51.5093 74.912 51.616 75.424L51.456 80.896C51.456 83.8613 51.4667 86.08 51.488 87.552C51.488 88.32 51.5093 89.4933 51.552 91.072L51.584 92.832C51.584 93.0027 51.5947 93.1627 51.616 93.312C51.6373 93.4613 51.6587 93.6107 51.68 93.76C52.1067 93.8027 52.4267 93.824 52.64 93.824C52.8107 93.824 52.9387 93.8133 53.024 93.792C53.4933 93.728 53.9093 93.8453 54.272 94.144C54.656 94.4213 54.848 94.784 54.848 95.232C54.848 95.808 54.8053 96.672 54.72 97.824C54.72 98.1227 54.6987 98.5493 54.656 99.104C54.6133 99.552 54.4213 99.8293 54.08 99.936ZM44.864 94.848C46.0587 94.7413 46.9973 94.6453 47.68 94.56C48.384 94.4533 49.0773 94.2933 49.76 94.08C49.9733 91.4987 50.08 88.736 50.08 85.792C50.08 83.0613 49.9733 80.064 49.76 76.8C49.2053 76.7787 48.1707 76.7253 46.656 76.64L46.624 78.144C46.4533 81.4293 46.336 83.8827 46.272 85.504C46.1867 87.936 45.7707 90.3253 45.024 92.672C44.9813 92.8 44.8853 93.12 44.736 93.632C44.608 94.1227 44.4053 94.5493 44.128 94.912L44.864 94.848ZM56.5717 96.704C56.4011 96.704 56.2517 96.6507 56.1237 96.544C55.9957 96.4373 55.8997 96.2987 55.8357 96.128C55.8144 96.0853 55.8037 96.0213 55.8037 95.936C55.8037 95.6587 55.9531 95.4347 56.2517 95.264C56.8491 95.008 57.2971 94.624 57.5957 94.112C57.9157 93.5787 58.1397 92.96 58.2677 92.256C58.6517 90.1653 58.8437 87.8933 58.8437 85.44C58.8437 84.5227 58.8331 83.8293 58.8117 83.36C58.6624 79.7547 58.5344 77.216 58.4277 75.744V75.616C58.4277 75.424 58.4704 75.2747 58.5557 75.168C58.6411 75.0613 58.7904 74.9867 59.0037 74.944C60.3691 74.688 61.4571 74.56 62.2677 74.56C62.6944 74.56 63.0144 74.5707 63.2277 74.592C63.7184 74.6133 64.0917 74.7627 64.3477 75.04C64.6037 75.3173 64.7317 75.7013 64.7317 76.192L64.7637 77.888C64.8064 79.3813 64.8277 80.5013 64.8277 81.248L64.7957 82.784C64.7957 85.0453 64.8811 87.904 65.0517 91.36C65.1371 92.9173 65.2117 94.1227 65.2757 94.976C65.2971 95.36 65.2331 95.6373 65.0837 95.808C64.9557 95.9787 64.7317 96.0853 64.4117 96.128C63.7077 96.1707 63.3344 95.84 63.2917 95.136C63.3557 94.5173 63.3877 93.8987 63.3877 93.28C63.3877 92.6613 63.3771 92.1493 63.3557 91.744L63.3237 88.096C63.3237 86.3253 63.2917 84.512 63.2277 82.656C63.1851 81.12 63.1211 79.6693 63.0357 78.304C62.9504 76.9387 62.8651 76.1067 62.7797 75.808C62.6517 75.8293 62.3851 75.8827 61.9797 75.968C61.5744 76.0533 61.0197 76.128 60.3157 76.192C60.2517 77.1733 60.2197 77.8773 60.2197 78.304C60.2197 78.7947 60.2517 79.2213 60.3157 79.584C60.3584 80.16 60.4011 81.0027 60.4437 82.112V82.816C60.4437 86.272 60.4117 88.608 60.3477 89.824C60.3051 90.1653 60.2837 90.432 60.2837 90.624C60.1984 91.52 60.1131 92.2027 60.0277 92.672C59.8144 93.8027 59.1637 94.9547 58.0757 96.128C57.7771 96.4693 57.2971 96.6613 56.6357 96.704H56.5717ZM68.655 96.288C68.463 96.2453 68.303 96.1813 68.175 96.096C68.0683 96.032 68.0043 95.904 67.983 95.712C68.0043 95.584 68.0577 95.4453 68.143 95.296C68.2283 95.1467 68.3137 95.0613 68.399 95.04C68.591 95.0187 68.7297 94.9547 68.815 94.848C68.9003 94.7413 68.975 94.592 69.039 94.4C69.0603 94.272 69.1243 93.952 69.231 93.44C69.3377 92.928 69.4017 92.4373 69.423 91.968L69.455 91.424C69.455 91.168 69.4337 90.8053 69.391 90.336C69.3483 89.8667 69.327 89.5253 69.327 89.312C69.327 88.0747 69.7857 86.8587 70.703 85.664C69.4657 84.5333 68.847 83.296 68.847 81.952V80.928C68.847 79.8187 68.9323 78.9867 69.103 78.432C69.2523 77.856 69.5297 77.2267 69.935 76.544C70.0843 76.224 70.287 75.9787 70.543 75.808C70.799 75.616 71.0763 75.4453 71.375 75.296C71.695 75.1467 71.9403 75.0293 72.111 74.944C72.239 74.88 72.4203 74.816 72.655 74.752C72.911 74.688 73.1137 74.5707 73.263 74.4C73.5403 74.2933 73.8177 74.24 74.095 74.24C74.5003 74.24 74.8523 74.336 75.151 74.528C75.471 74.72 75.631 74.944 75.631 75.2C75.631 76.1173 75.6097 77.5573 75.567 79.52L75.471 84.064L75.439 85.856L75.471 87.648C75.5137 88.6293 75.599 90.016 75.727 91.808L75.855 93.888C75.8763 94.08 75.9083 94.2933 75.951 94.528C75.9937 94.7627 76.015 94.9547 76.015 95.104C76.015 95.68 75.7163 95.968 75.119 95.968C74.863 95.968 74.6283 95.904 74.415 95.776C74.223 95.648 74.1163 95.4667 74.095 95.232C74.031 94.7413 73.999 94.24 73.999 93.728L73.903 85.76C73.1563 85.888 72.6017 86.0267 72.239 86.176C71.8763 86.3253 71.6097 86.528 71.439 86.784C71.2897 87.0187 71.1723 87.36 71.087 87.808C71.023 88.0853 70.991 88.5013 70.991 89.056C70.991 89.3333 71.0123 89.728 71.055 90.24L71.087 91.456C71.087 92.3733 71.0337 93.152 70.927 93.792C70.8203 94.4107 70.5857 94.9973 70.223 95.552C70.0523 95.8293 69.8177 96.032 69.519 96.16C69.2203 96.288 68.9323 96.3307 68.655 96.288ZM71.823 84.8C71.9083 84.8213 72.047 84.832 72.239 84.832C72.687 84.832 73.263 84.736 73.967 84.544C73.967 83.9893 73.9457 83.136 73.903 81.984C73.839 80.896 73.807 79.8187 73.807 78.752C73.807 77.856 73.839 76.9493 73.903 76.032C73.327 76.1173 72.815 76.2667 72.367 76.48C71.919 76.6933 71.6203 76.928 71.471 77.184C70.9163 78.2293 70.6283 79.2533 70.607 80.256C70.607 81.3867 70.6283 82.2187 70.671 82.752C70.6923 83.2213 70.799 83.6587 70.991 84.064C71.183 84.4693 71.4603 84.7147 71.823 84.8ZM92.006 96.288C91.5153 96.288 91.1527 96.2133 90.918 96.064C90.6833 95.9147 90.566 95.6373 90.566 95.232C90.566 94.592 90.4593 93.504 90.246 91.968L90.118 91.296L86.95 90.816C86.822 91.3067 86.6407 92.2987 86.406 93.792C86.278 94.8373 86.0753 95.5307 85.798 95.872C85.6487 96.064 85.4353 96.16 85.158 96.16C84.902 96.16 84.6673 96.0853 84.454 95.936C84.2407 95.7653 84.134 95.5627 84.134 95.328L84.198 95.168L84.23 95.04C85.638 89.5573 86.7047 84.1493 87.43 78.816C87.43 78.7307 87.4407 78.592 87.462 78.4C87.4833 78.1867 87.5047 77.888 87.526 77.504C87.59 76.7147 87.654 76.0853 87.718 75.616C87.8033 75.1467 87.9313 74.7947 88.102 74.56H89.19C89.4887 74.56 89.7447 74.6347 89.958 74.784C90.1713 74.912 90.278 75.104 90.278 75.36C90.278 76.9813 90.502 79.392 90.95 82.592C91.3767 85.8773 91.59 88.1813 91.59 89.504C91.59 89.632 91.6433 89.9627 91.75 90.496C91.8567 90.9867 91.91 91.3067 91.91 91.456C91.91 91.6053 92.0167 92.2453 92.23 93.376C92.422 94.4 92.518 95.0613 92.518 95.36V95.392C92.518 95.8613 92.3473 96.16 92.006 96.288ZM89.894 90.144C89.83 89.824 89.798 89.4293 89.798 88.96C89.798 87.04 89.6273 84.5867 89.286 81.6L88.966 78.272C88.0487 83.2853 87.4193 87.072 87.078 89.632C87.398 89.8453 88.3367 90.016 89.894 90.144ZM100.896 96C100.171 96 99.8085 94.24 99.8085 90.72L99.8405 88.896L99.8725 87.424V87.328V87.008C99.8938 86.8373 99.9045 86.6347 99.9045 86.4C99.9045 86.3573 99.8725 86.304 99.8085 86.24C99.7445 86.176 99.7125 86.1227 99.7125 86.08V86.048C99.6058 86.0907 99.4138 86.112 99.1365 86.112C98.8592 86.112 98.5178 86.0693 98.1125 85.984C97.9845 85.9627 97.6432 85.9093 97.0885 85.824V89.504C97.0885 90.0587 97.1205 90.9333 97.1845 92.128C97.2485 93.3013 97.2805 94.176 97.2805 94.752C97.2805 95.072 97.1952 95.3493 97.0245 95.584C96.8538 95.8187 96.6298 95.936 96.3525 95.936C95.9472 95.936 95.6592 95.5413 95.4885 94.752C95.3178 93.9413 95.2325 92.8853 95.2325 91.584L95.2965 88.992C95.3178 88.2667 95.3285 87.4987 95.3285 86.688V86.144V85.696C95.3285 85.3547 95.3178 85.1307 95.2965 85.024V84.864L95.3925 83.008C95.3925 82.1973 95.3605 80.992 95.2965 79.392C95.2325 77.792 95.2005 76.5867 95.2005 75.776C95.2005 75.52 95.2858 75.296 95.4565 75.104C95.6272 74.912 95.8405 74.816 96.0965 74.816C96.7792 74.816 97.1205 75.456 97.1205 76.736L97.0565 80.704C97.0138 81.8987 96.9925 83.232 96.9925 84.704C97.3125 84.8107 97.8885 84.864 98.7205 84.864H99.9045C99.9472 84.736 99.9685 84.608 99.9685 84.48C99.9685 83.456 99.9045 81.9413 99.7765 79.936C99.6272 78.0587 99.5525 76.5333 99.5525 75.36C99.5525 75.1253 99.6378 74.9333 99.8085 74.784C100 74.6133 100.224 74.528 100.48 74.528C100.63 74.528 100.843 74.5813 101.12 74.688L101.408 74.816C101.408 77.8453 101.515 81.888 101.728 86.944L102.016 95.04C102.016 95.3387 101.899 95.5733 101.664 95.744C101.451 95.9147 101.195 96 100.896 96ZM117.986 99.936C117.816 99.9787 117.688 100 117.602 100C117.346 100 117.165 99.84 117.058 99.52C116.973 99.264 116.93 98.944 116.93 98.56L116.962 96.352C116.962 96.224 116.952 96.1067 116.93 96C116.909 95.8933 116.888 95.7867 116.866 95.68H113.186C113.4 95.68 112.888 95.7867 111.65 96C110.434 96.192 109.485 96.32 108.802 96.384L107.362 96.512L105.762 96.672C105.762 96.864 105.762 97.0987 105.762 97.376C105.784 97.6533 105.784 97.984 105.762 98.368V98.528C105.762 98.8693 105.677 99.1253 105.506 99.296C105.336 99.4667 105.176 99.552 105.026 99.552C104.941 99.552 104.813 99.5093 104.642 99.424C104.258 99.1467 104.045 98.7627 104.002 98.272L103.906 95.936C103.864 95.104 104.205 94.688 104.93 94.688C105.336 94.6667 105.656 94.56 105.89 94.368C106.125 94.176 106.402 93.8773 106.722 93.472C107.042 93.0453 107.288 92.576 107.458 92.064C107.65 91.5307 107.832 90.8907 108.002 90.144C108.194 89.3333 108.333 88.544 108.418 87.776C108.504 87.008 108.61 85.9093 108.738 84.48C108.93 82.24 109.026 79.9893 109.026 77.728L108.994 75.936C108.994 75.5307 109.112 75.2 109.346 74.944C109.581 74.6667 109.901 74.528 110.306 74.528C110.434 74.528 110.53 74.5387 110.594 74.56C111.576 74.7307 112.376 74.8373 112.994 74.88H113.154C113.432 74.88 113.592 74.8267 113.634 74.72C113.826 74.464 114.061 74.336 114.338 74.336C114.53 74.336 114.701 74.3787 114.85 74.464C115.192 74.592 115.416 74.912 115.522 75.424L115.362 80.896C115.362 83.8613 115.373 86.08 115.394 87.552C115.394 88.32 115.416 89.4933 115.458 91.072L115.49 92.832C115.49 93.0027 115.501 93.1627 115.522 93.312C115.544 93.4613 115.565 93.6107 115.586 93.76C116.013 93.8027 116.333 93.824 116.546 93.824C116.717 93.824 116.845 93.8133 116.93 93.792C117.4 93.728 117.816 93.8453 118.178 94.144C118.562 94.4213 118.754 94.784 118.754 95.232C118.754 95.808 118.712 96.672 118.626 97.824C118.626 98.1227 118.605 98.5493 118.562 99.104C118.52 99.552 118.328 99.8293 117.986 99.936ZM108.77 94.848C109.965 94.7413 110.904 94.6453 111.586 94.56C112.29 94.4533 112.984 94.2933 113.666 94.08C113.88 91.4987 113.986 88.736 113.986 85.792C113.986 83.0613 113.88 80.064 113.666 76.8C113.112 76.7787 112.077 76.7253 110.562 76.64L110.53 78.144C110.36 81.4293 110.242 83.8827 110.178 85.504C110.093 87.936 109.677 90.3253 108.93 92.672C108.888 92.8 108.792 93.12 108.642 93.632C108.514 94.1227 108.312 94.5493 108.034 94.912L108.77 94.848ZM121.406 96.224C121.129 95.0933 120.99 93.5253 120.99 91.52L121.054 88.672C121.097 87.8187 121.118 86.8693 121.118 85.824C120.99 85.5253 120.926 85.2587 120.926 85.024V84.928C121.139 84.5227 121.246 83.6053 121.246 82.176L121.278 80.704C121.299 80.2347 121.31 79.712 121.31 79.136C121.31 77.8773 121.225 76.8853 121.054 76.16C121.118 75.8613 121.225 75.6053 121.374 75.392C121.523 75.1573 121.705 75.04 121.918 75.04H123.326C123.923 75.04 124.446 75.1787 124.894 75.456C125.342 75.712 125.683 76.0853 125.918 76.576C126.345 77.4507 126.558 78.4853 126.558 79.68C126.558 80.5333 126.547 81.2053 126.526 81.696C126.483 82.3147 126.377 82.88 126.206 83.392C126.142 83.6693 126.046 83.904 125.918 84.096C125.811 84.2667 125.651 84.48 125.438 84.736C125.139 85.0987 124.649 85.44 123.966 85.76C123.689 85.9093 123.326 86.048 122.878 86.176V89.6L122.942 91.648L123.006 92.64C123.091 93.8347 123.134 94.848 123.134 95.68C123.134 95.936 123.027 96.1493 122.814 96.32C122.601 96.512 122.355 96.608 122.078 96.608L121.406 96.224ZM122.91 84.864C124.169 84.672 124.798 82.8693 124.798 79.456C124.798 78.8373 124.766 78.3573 124.702 78.016C124.638 77.76 124.553 77.5573 124.446 77.408C124.339 77.2373 124.179 77.0987 123.966 76.992C123.731 76.864 123.475 76.8 123.198 76.8C123.198 76.7787 123.081 76.768 122.846 76.768L122.846 78.592C122.846 79.8507 122.857 80.9707 122.878 81.952C122.878 83.0613 122.889 83.7867 122.91 84.128L122.91 84.8V84.864ZM133.446 96.608C132.891 96.608 132.379 96.4267 131.91 96.064C131.441 95.7227 131.057 95.2533 130.758 94.656C130.139 93.3547 129.755 91.936 129.606 90.4C129.414 88.9493 129.318 87.552 129.318 86.208C129.318 85.952 129.329 85.7387 129.35 85.568V84.992C129.35 84.8853 129.339 84.832 129.318 84.832V84.256L129.35 82.016C129.371 81.3333 129.457 80.2453 129.606 78.752C129.713 77.728 129.958 76.736 130.342 75.776C130.491 75.3493 130.683 75.0293 130.918 74.816C131.153 74.5813 131.419 74.464 131.718 74.464C132.571 74.464 133.339 74.624 134.022 74.944C134.705 75.2427 135.281 75.6693 135.75 76.224C136.177 76.7573 136.539 77.4187 136.838 78.208C137.137 78.976 137.35 79.7973 137.478 80.672C137.606 81.568 137.67 82.5173 137.67 83.52V83.776C137.67 84.4373 137.681 85.0347 137.702 85.568L137.734 87.392C137.734 93.536 136.305 96.608 133.446 96.608ZM133.318 95.264C133.702 95.264 134.054 95.1147 134.374 94.816C134.694 94.496 134.939 94.0693 135.11 93.536C135.515 92.448 135.761 91.2747 135.846 90.016C135.953 88.928 136.006 87.9893 136.006 87.2C136.006 86.24 135.931 84.9813 135.782 83.424C135.654 81.7813 135.59 80.5547 135.59 79.744V79.168C135.547 78.3573 135.27 77.6533 134.758 77.056C134.267 76.4587 133.659 76.16 132.934 76.16C132.209 76.16 131.729 76.576 131.494 77.408C131.281 78.0693 131.174 78.9227 131.174 79.968C131.174 80.3733 131.185 80.7147 131.206 80.992V81.856L131.142 83.328C131.099 83.776 131.078 84.2667 131.078 84.8C131.078 85.952 131.11 87.0933 131.174 88.224C131.259 89.824 131.473 91.3813 131.814 92.896C132.155 94.4747 132.657 95.264 133.318 95.264ZM142.705 96.416C142.428 96.416 142.172 96.32 141.937 96.128C141.724 95.936 141.607 95.7013 141.585 95.424V94.592V93.952C141.564 93.76 141.553 93.536 141.553 93.28C141.553 92.832 141.521 92.1493 141.457 91.232L141.393 89.184C141.393 88.1387 141.425 86.5813 141.489 84.512C141.575 82.656 141.617 81.0987 141.617 79.84C141.617 79.5413 141.585 79.0933 141.521 78.496C141.457 77.8773 141.425 77.4293 141.425 77.152C141.425 75.6373 141.873 74.88 142.769 74.88C143.473 74.88 144.284 75.0187 145.201 75.296C146.14 75.5733 146.609 75.904 146.609 76.288C146.609 76.5013 146.513 76.704 146.321 76.896C146.151 77.0667 145.937 77.2053 145.681 77.312C144.785 76.992 143.975 76.7787 143.249 76.672C143.271 76.992 143.281 77.4507 143.281 78.048C143.281 78.9013 143.271 79.6693 143.249 80.352C143.185 81.376 143.153 82.144 143.153 82.656L143.249 83.168L143.761 83.136C143.932 83.1147 144.145 83.104 144.401 83.104C145.425 83.104 145.937 83.4027 145.937 84C145.937 84.2347 145.841 84.4373 145.649 84.608C145.457 84.7573 145.212 84.832 144.913 84.832C144.529 84.832 144.231 84.8107 144.017 84.768H143.217C143.26 85.3227 143.281 86.1333 143.281 87.2C143.281 88.2667 143.271 89.2267 143.249 90.08C143.185 91.3813 143.153 92.352 143.153 92.992C143.153 94.1867 143.175 94.784 143.217 94.784L144.273 94.752C144.636 94.7307 145.073 94.72 145.585 94.72C146.396 94.72 146.801 94.976 146.801 95.488C146.801 95.7867 146.663 96.0107 146.385 96.16C146.129 96.3307 145.809 96.416 145.425 96.416L142.705 96.416ZM162.455 99.936C162.284 99.9787 162.156 100 162.071 100C161.815 100 161.634 99.84 161.527 99.52C161.442 99.264 161.399 98.944 161.399 98.56L161.431 96.352C161.431 96.224 161.42 96.1067 161.399 96C161.378 95.8933 161.356 95.7867 161.335 95.68L157.655 95.68C157.868 95.68 157.356 95.7867 156.119 96C154.903 96.192 153.954 96.32 153.271 96.384L151.831 96.512L150.231 96.672C150.231 96.864 150.231 97.0987 150.231 97.376C150.252 97.6533 150.252 97.984 150.231 98.368V98.528C150.231 98.8693 150.146 99.1253 149.975 99.296C149.804 99.4667 149.644 99.552 149.495 99.552C149.41 99.552 149.282 99.5093 149.111 99.424C148.727 99.1467 148.514 98.7627 148.471 98.272L148.375 95.936C148.332 95.104 148.674 94.688 149.399 94.688C149.804 94.6667 150.124 94.56 150.359 94.368C150.594 94.176 150.871 93.8773 151.191 93.472C151.511 93.0453 151.756 92.576 151.927 92.064C152.119 91.5307 152.3 90.8907 152.471 90.144C152.663 89.3333 152.802 88.544 152.887 87.776C152.972 87.008 153.079 85.9093 153.207 84.48C153.399 82.24 153.495 79.9893 153.495 77.728L153.463 75.936C153.463 75.5307 153.58 75.2 153.815 74.944C154.05 74.6667 154.37 74.528 154.775 74.528C154.903 74.528 154.999 74.5387 155.063 74.56C156.044 74.7307 156.844 74.8373 157.463 74.88H157.623C157.9 74.88 158.06 74.8267 158.103 74.72C158.295 74.464 158.53 74.336 158.807 74.336C158.999 74.336 159.17 74.3787 159.319 74.464C159.66 74.592 159.884 74.912 159.991 75.424L159.831 80.896C159.831 83.8613 159.842 86.08 159.863 87.552C159.863 88.32 159.884 89.4933 159.927 91.072L159.959 92.832C159.959 93.0027 159.97 93.1627 159.991 93.312C160.012 93.4613 160.034 93.6107 160.055 93.76C160.482 93.8027 160.802 93.824 161.015 93.824C161.186 93.824 161.314 93.8133 161.399 93.792C161.868 93.728 162.284 93.8453 162.647 94.144C163.031 94.4213 163.223 94.784 163.223 95.232C163.223 95.808 163.18 96.672 163.095 97.824C163.095 98.1227 163.074 98.5493 163.031 99.104C162.988 99.552 162.796 99.8293 162.455 99.936ZM153.239 94.848C154.434 94.7413 155.372 94.6453 156.055 94.56C156.759 94.4533 157.452 94.2933 158.135 94.08C158.348 91.4987 158.455 88.736 158.455 85.792C158.455 83.0613 158.348 80.064 158.135 76.8C157.58 76.7787 156.546 76.7253 155.031 76.64L154.999 78.144C154.828 81.4293 154.711 83.8827 154.647 85.504C154.562 87.936 154.146 90.3253 153.399 92.672C153.356 92.8 153.26 93.12 153.111 93.632C152.983 94.1227 152.78 94.5493 152.503 94.912L153.239 94.848ZM171.475 96.288C170.984 96.288 170.621 96.2133 170.387 96.064C170.152 95.9147 170.035 95.6373 170.035 95.232C170.035 94.592 169.928 93.504 169.715 91.968L169.587 91.296L166.419 90.816C166.291 91.3067 166.109 92.2987 165.875 93.792C165.747 94.8373 165.544 95.5307 165.267 95.872C165.117 96.064 164.904 96.16 164.627 96.16C164.371 96.16 164.136 96.0853 163.923 95.936C163.709 95.7653 163.603 95.5627 163.603 95.328L163.667 95.168L163.699 95.04C165.107 89.5573 166.173 84.1493 166.899 78.816C166.899 78.7307 166.909 78.592 166.931 78.4C166.952 78.1867 166.973 77.888 166.995 77.504C167.059 76.7147 167.123 76.0853 167.187 75.616C167.272 75.1467 167.4 74.7947 167.571 74.56H168.659C168.957 74.56 169.213 74.6347 169.427 74.784C169.64 74.912 169.747 75.104 169.747 75.36C169.747 76.9813 169.971 79.392 170.419 82.592C170.845 85.8773 171.059 88.1813 171.059 89.504C171.059 89.632 171.112 89.9627 171.219 90.496C171.325 90.9867 171.379 91.3067 171.379 91.456C171.379 91.6053 171.485 92.2453 171.699 93.376C171.891 94.4 171.987 95.0613 171.987 95.36V95.392C171.987 95.8613 171.816 96.16 171.475 96.288ZM169.363 90.144C169.299 89.824 169.267 89.4293 169.267 88.96C169.267 87.04 169.096 84.5867 168.755 81.6L168.435 78.272C167.517 83.2853 166.888 87.072 166.547 89.632C166.867 89.8453 167.805 90.016 169.363 90.144ZM176.845 92.512C176.419 92.512 176.163 92.2773 176.077 91.808C176.077 90.5067 176.173 89.088 176.365 87.552C176.579 86.016 176.877 84.1493 177.261 81.952L177.421 81.024C177.72 79.168 177.869 77.6107 177.869 76.352C177.869 74.368 177.549 73.376 176.909 73.376C176.504 73.376 176.301 73.856 176.301 74.816C176.301 75.0507 176.376 75.6267 176.525 76.544C176.525 76.5653 176.472 76.6293 176.365 76.736C176.003 77.056 175.736 77.216 175.565 77.216C174.968 77.216 174.669 76.5013 174.669 75.072V74.752C174.669 74.1973 174.723 73.728 174.829 73.344C174.957 72.9387 175.181 72.5867 175.501 72.288C175.864 71.9893 176.312 71.84 176.845 71.84C177.315 71.84 177.72 71.9253 178.061 72.096C178.403 72.2667 178.68 72.5013 178.893 72.8C179.235 73.312 179.448 74.0693 179.533 75.072C179.555 75.3067 179.565 75.7227 179.565 76.32C179.565 78.1973 179.245 80.2453 178.605 82.464C178.328 83.3813 178.093 84.544 177.901 85.952C177.709 87.3387 177.613 88.7787 177.613 90.272C177.613 91.4453 177.624 92.16 177.645 92.416C177.261 92.416 177.048 92.4373 177.005 92.48C176.963 92.5013 176.909 92.512 176.845 92.512ZM176.845 96.128C176.525 96.128 176.269 96 176.077 95.744C175.843 95.5307 175.725 95.264 175.725 94.944C175.725 94.6453 175.853 94.368 176.109 94.112C176.365 93.8347 176.653 93.696 176.973 93.696C177.229 93.696 177.485 93.8347 177.741 94.112C177.997 94.3893 178.125 94.656 178.125 94.912C178.125 95.7227 177.699 96.128 176.845 96.128ZM184.801 91.232C184.588 91.232 184.385 90.9653 184.193 90.432C184.001 89.8773 183.905 89.056 183.905 87.968C183.905 87.584 183.927 86.8587 183.969 85.792C184.012 85.0027 184.033 84.128 184.033 83.168L183.969 77.92L183.905 72.672C183.905 72.3307 184.044 72.0427 184.321 71.808C184.599 71.552 184.908 71.424 185.249 71.424C185.463 71.424 185.644 71.4987 185.793 71.648C185.943 71.7973 186.017 71.9893 186.017 72.224C186.017 74.1013 185.911 76.6507 185.697 79.872C185.463 83.4347 185.345 85.984 185.345 87.52C185.345 88.6507 185.324 89.472 185.281 89.984C185.26 90.4747 185.207 90.8053 185.121 90.976C185.057 91.1467 184.951 91.232 184.801 91.232ZM184.225 96.704C183.969 96.704 183.724 96.5867 183.489 96.352C183.276 96.1173 183.169 95.8293 183.169 95.488C183.169 95.104 183.297 94.7733 183.553 94.496C183.809 94.1973 184.119 94.048 184.481 94.048C184.865 94.048 185.175 94.1973 185.409 94.496C185.665 94.7733 185.793 95.136 185.793 95.584C185.793 96.3307 185.271 96.704 184.225 96.704Z" fill="#292D32"/>
<defs>
<filter id="filter0_d_0_3041" x="0" y="0" width="228" height="140" filterUnits="userSpaceOnUse" color-interpolation-filters="sRGB">
<feFlood flood-opacity="0" result="BackgroundImageFix"/>
<feColorMatrix in="SourceAlpha" type="matrix" values="0 0 0 0 0 0 0 0 0 0 0 0 0 0 0 0 0 0 127 0" result="hardAlpha"/>
<feOffset dy="12"/>
<feGaussianBlur stdDeviation="10"/>
<feComposite in2="hardAlpha" operator="out"/>
<feColorMatrix type="matrix" values="0 0 0 0 0 0 0 0 0 0 0 0 0 0 0 0 0 0 0.08 0"/>
<feBlend mode="normal" in2="BackgroundImageFix" result="effect1_dropShadow_0_3041"/>
<feBlend mode="normal" in="SourceGraphic" in2="effect1_dropShadow_0_3041" result="shape"/>
</filter>
</defs>
</svg>
