<svg width="196" height="162" viewBox="0 0 196 162" fill="none" xmlns="http://www.w3.org/2000/svg">
<g filter="url(#filter0_d_0_3038)">
<path d="M169.735 68.4193C190.63 34.1174 155.04 7.59787 124.958 8.00462C102.882 8.30289 80.4669 7.06911 58.5401 10.1603C32.312 13.8753 19.2591 27.9485 20.0325 54.7664C20.643 75.8491 30.8195 101.474 50.3175 112.415C71.4709 124.278 95.3923 122.868 116.939 113.771C123.411 120.103 135.582 128.915 153.927 130C153.927 130 144.701 113.907 144.388 97.1217C154.578 88.8242 163.317 78.9404 169.721 68.4193H169.735Z" fill="white"/>
</g>
<path d="M45.86 66.476C45.3747 66.476 44.9547 66.2893 44.6 65.916C44.264 65.5427 44.0773 65.0853 44.04 64.544C43.928 63.76 43.8533 62.5 43.816 60.764L43.76 59.028C43.76 58.5427 43.6107 58.076 43.312 57.628C43.0133 57.1613 42.6307 56.8907 42.164 56.816C42.2947 60.6987 42.36 63.5733 42.36 65.44C42.36 65.9627 42.1733 66.224 41.8 66.224C41.6507 66.224 41.5013 66.1867 41.352 66.112C40.9973 65.944 40.848 65.6733 40.904 65.3C41.0533 64.1987 41.128 63.1067 41.128 62.024C41.128 61.24 41.1 60.4187 41.044 59.56C41.0253 59.1493 41.016 58.524 41.016 57.684C40.9973 57.4227 40.988 57.012 40.988 56.452C40.9133 53.3907 40.8293 51.0853 40.736 49.536C40.68 48.6027 40.54 47.408 40.316 45.952C40.2973 45.8773 40.288 45.7653 40.288 45.616C40.288 45.0373 40.5307 44.7013 41.016 44.608C41.296 44.552 41.52 44.636 41.688 44.86C41.8747 45.0653 41.9773 45.336 41.996 45.672C42.0147 45.9147 42.0333 46.204 42.052 46.54C42.0707 46.8573 42.08 47.1093 42.08 47.296L42.108 48.22C42.1453 49.3027 42.164 50.096 42.164 50.6L42.164 55.584C42.332 55.192 42.5373 54.5853 42.78 53.764C43.0227 52.9427 43.2093 52.2427 43.34 51.664C43.396 51.3653 43.452 51.0013 43.508 50.572C43.5827 50.1427 43.6387 49.816 43.676 49.592C43.8067 48.3973 43.9747 47.436 44.18 46.708C44.4227 45.8493 44.88 45.224 45.552 44.832C45.832 44.664 46.0653 44.58 46.252 44.58C46.3827 44.58 46.56 44.6267 46.784 44.72C47.0827 44.8507 47.232 45.1307 47.232 45.56C47.232 45.8773 47.036 46.0827 46.644 46.176C45.8973 46.3067 45.412 46.8013 45.188 47.66C45.0573 48.1827 44.936 48.752 44.824 49.368C44.6933 50.1893 44.5813 50.7213 44.488 50.964C44.1707 51.9347 43.9933 52.7187 43.956 53.316C43.9 53.82 43.816 54.268 43.704 54.66C43.592 55.0333 43.4147 55.3507 43.172 55.612C43.6387 55.6867 44.04 56.0133 44.376 56.592C44.712 57.1707 44.9267 57.9267 45.02 58.86C45.0947 59.5133 45.216 60.932 45.384 63.116L45.44 63.732C45.496 64.1987 45.72 64.46 46.112 64.516C46.4107 64.6093 46.6253 64.7307 46.756 64.88C46.8867 65.0107 46.952 65.1973 46.952 65.44C46.952 65.7387 46.8493 65.9813 46.644 66.168C46.4387 66.3733 46.1773 66.476 45.86 66.476ZM55.2748 66.252C54.8454 66.252 54.5281 66.1867 54.3228 66.056C54.1174 65.9253 54.0148 65.6827 54.0148 65.328C54.0148 64.768 53.9214 63.816 53.7348 62.472L53.6228 61.884L50.8508 61.464C50.7388 61.8933 50.5801 62.7613 50.3748 64.068C50.2628 64.9827 50.0854 65.5893 49.8428 65.888C49.7121 66.056 49.5254 66.14 49.2828 66.14C49.0588 66.14 48.8534 66.0747 48.6668 65.944C48.4801 65.7947 48.3868 65.6173 48.3868 65.412L48.4428 65.272L48.4708 65.16C49.7028 60.3627 50.6361 55.6307 51.2708 50.964C51.2708 50.8893 51.2801 50.768 51.2988 50.6C51.3174 50.4133 51.3361 50.152 51.3548 49.816C51.4108 49.1253 51.4668 48.5747 51.5228 48.164C51.5974 47.7533 51.7094 47.4453 51.8588 47.24L52.8108 47.24C53.0721 47.24 53.2961 47.3053 53.4828 47.436C53.6694 47.548 53.7628 47.716 53.7628 47.94C53.7628 49.3587 53.9588 51.468 54.3508 54.268C54.7241 57.1427 54.9108 59.1587 54.9108 60.316C54.9108 60.428 54.9574 60.7173 55.0508 61.184C55.1441 61.6133 55.1908 61.8933 55.1908 62.024C55.1908 62.1547 55.2841 62.7147 55.4708 63.704C55.6388 64.6 55.7228 65.1787 55.7228 65.44V65.468C55.7228 65.8787 55.5734 66.14 55.2748 66.252ZM53.4268 60.876C53.3708 60.596 53.3428 60.2507 53.3428 59.84C53.3428 58.16 53.1934 56.0133 52.8948 53.4L52.6148 50.488C51.8121 54.8747 51.2614 58.188 50.9628 60.428C51.2428 60.6147 52.0641 60.764 53.4268 60.876ZM63.39 65.916C63.3153 65.972 63.1846 66 62.998 66C62.8486 66 62.69 65.9813 62.522 65.944C62.3726 65.9067 62.2606 65.8507 62.186 65.776C62.0926 65.6453 62.0273 65.4493 61.99 65.188C61.9713 64.908 61.962 64.516 61.962 64.012L61.878 60.064C61.8593 59.6347 61.8313 58.972 61.794 58.076C61.7753 57.18 61.7753 56.6947 61.794 56.62L61.038 58.16C60.7393 58.72 60.338 59 59.834 59C59.5353 59 59.2273 58.9067 58.91 58.72C58.0326 58.1973 57.5753 57.376 57.538 56.256L57.538 55.024C57.538 53.9973 57.5566 52.7933 57.594 51.412L57.678 49.34C57.678 49.2467 57.678 49.0787 57.678 48.836C57.6966 48.5933 57.734 48.3787 57.79 48.192C57.846 48.0053 57.9393 47.8467 58.07 47.716C58.2193 47.5667 58.406 47.492 58.63 47.492C58.7606 47.492 58.882 47.52 58.994 47.576C59.33 47.744 59.498 48.0987 59.498 48.64C59.498 48.8267 59.4793 49.0133 59.442 49.2C59.4233 49.3867 59.414 49.5547 59.414 49.704L59.358 50.544C59.3206 51.328 59.2833 51.8973 59.246 52.252L59.162 53.316C59.0686 54.4733 59.022 55.22 59.022 55.556C59.022 55.9853 59.05 56.368 59.106 56.704C59.1246 56.9653 59.19 57.2267 59.302 57.488C59.4326 57.7307 59.582 57.852 59.75 57.852C59.8806 57.852 60.03 57.7587 60.198 57.572C60.5526 57.1053 60.8046 56.6853 60.954 56.312C61.178 55.7333 61.374 55.0987 61.542 54.408C61.71 53.6987 61.794 53.0827 61.794 52.56C61.8313 51.4587 61.8873 50.348 61.962 49.228C61.962 49.004 61.9806 48.6493 62.018 48.164C62.018 48.108 62.018 48.024 62.018 47.912C62.0366 47.8 62.0646 47.716 62.102 47.66C62.27 47.4547 62.41 47.3427 62.522 47.324C62.8206 47.2493 63.1006 47.3333 63.362 47.576C63.6233 47.8187 63.7446 48.0893 63.726 48.388L63.642 49.62C63.5673 50.7027 63.4833 51.5147 63.39 52.056C63.278 52.616 63.1846 53.652 63.11 55.164L63.026 56.676C63.0073 56.8253 62.998 57.0493 62.998 57.348C62.998 57.796 63.0353 58.4493 63.11 59.308C63.1473 59.6253 63.1846 60.064 63.222 60.624C63.2593 61.24 63.3526 62.164 63.502 63.396C63.5393 63.732 63.614 64.236 63.726 64.908C63.782 65.356 63.67 65.692 63.39 65.916ZM72.6381 66.252C72.2087 66.252 71.8914 66.1867 71.6861 66.056C71.4807 65.9253 71.3781 65.6827 71.3781 65.328C71.3781 64.768 71.2847 63.816 71.0981 62.472L70.9861 61.884L68.2141 61.464C68.1021 61.8933 67.9434 62.7613 67.7381 64.068C67.6261 64.9827 67.4487 65.5893 67.2061 65.888C67.0754 66.056 66.8887 66.14 66.6461 66.14C66.4221 66.14 66.2167 66.0747 66.0301 65.944C65.8434 65.7947 65.7501 65.6173 65.7501 65.412L65.8061 65.272L65.8341 65.16C67.0661 60.3627 67.9994 55.6307 68.6341 50.964C68.6341 50.8893 68.6434 50.768 68.6621 50.6C68.6807 50.4133 68.6994 50.152 68.7181 49.816C68.7741 49.1253 68.8301 48.5747 68.8861 48.164C68.9607 47.7533 69.0727 47.4453 69.2221 47.24H70.1741C70.4354 47.24 70.6594 47.3053 70.8461 47.436C71.0327 47.548 71.1261 47.716 71.1261 47.94C71.1261 49.3587 71.3221 51.468 71.7141 54.268C72.0874 57.1427 72.2741 59.1587 72.2741 60.316C72.2741 60.428 72.3207 60.7173 72.4141 61.184C72.5074 61.6133 72.5541 61.8933 72.5541 62.024C72.5541 62.1547 72.6474 62.7147 72.8341 63.704C73.0021 64.6 73.0861 65.1787 73.0861 65.44V65.468C73.0861 65.8787 72.9367 66.14 72.6381 66.252ZM70.7901 60.876C70.7341 60.596 70.7061 60.2507 70.7061 59.84C70.7061 58.16 70.5567 56.0133 70.2581 53.4L69.9781 50.488C69.1754 54.8747 68.6247 58.188 68.3261 60.428C68.6061 60.6147 69.4274 60.764 70.7901 60.876ZM76.3852 65.944C76.1426 65.8693 76.0119 65.7107 75.9932 65.468V65.048C75.9559 64.264 75.9186 63.088 75.8812 61.52C75.8066 60.1573 75.7599 59.112 75.7412 58.384C75.6852 57.2453 75.6199 55.5373 75.5452 53.26C75.5266 52.868 75.5079 52.3267 75.4892 51.636C75.4706 50.9453 75.4612 50.4227 75.4612 50.068C75.4426 49.8627 75.4332 49.5733 75.4332 49.2C75.4332 48.7707 75.4519 48.4533 75.4892 48.248C75.5639 47.6693 75.8812 47.3987 76.4412 47.436C76.9639 47.436 77.2439 47.7347 77.2812 48.332V48.668L77.2532 55.724V59.056V60.736C77.2532 60.9973 77.2719 61.3053 77.3092 61.66C77.3466 61.996 77.3746 62.2387 77.3932 62.388C77.4866 61.8467 77.6359 61.296 77.8412 60.736C78.0652 60.1573 78.2052 59.8027 78.2612 59.672C78.5412 59 78.7466 58.4493 78.8772 58.02C79.3252 56.5827 79.9039 54.8187 80.6132 52.728C80.7626 52.2987 80.9306 51.776 81.1172 51.16C81.6212 49.5733 81.9666 48.5467 82.1532 48.08C82.3212 47.632 82.5732 47.352 82.9092 47.24C83.0772 47.184 83.2452 47.156 83.4132 47.156C83.6746 47.156 83.9452 47.24 84.2252 47.408V48.752C84.2252 50.152 84.2532 51.5987 84.3092 53.092C84.3279 53.4093 84.3372 53.8853 84.3372 54.52V55.332C84.3372 55.5 84.3279 55.724 84.3092 56.004C84.3092 56.284 84.3186 56.6107 84.3372 56.984L84.4212 64.544C84.4212 64.824 84.3559 65.132 84.2252 65.468C84.1692 65.6173 84.0759 65.7387 83.9452 65.832C83.8146 65.9067 83.6746 65.944 83.5252 65.944C83.0026 65.944 82.7412 65.7013 82.7412 65.216C82.7412 64.656 82.7692 64.1147 82.8252 63.592C82.8626 62.8827 82.8812 62.3413 82.8812 61.968C82.8439 58.272 82.7972 55.5093 82.7412 53.68C82.7412 53.4 82.7039 52.9427 82.6292 52.308L82.5452 51.3C82.3772 51.4867 82.2839 51.608 82.2652 51.664L81.8172 53.036C81.5186 54.0067 81.2852 54.7253 81.1172 55.192L78.6812 61.968L77.4212 65.412C77.2719 65.804 77.0479 66 76.7492 66C76.6932 66 76.5719 65.9813 76.3852 65.944ZM79.2132 45.756C78.7652 45.756 78.3359 45.5787 77.9252 45.224C77.5332 44.8693 77.3372 44.4773 77.3372 44.048C77.3372 43.8613 77.3932 43.712 77.5052 43.6C77.6172 43.488 77.7759 43.4227 77.9812 43.404C78.2239 43.3853 78.4292 43.404 78.5972 43.46C78.7839 43.4973 78.9519 43.6093 79.1012 43.796C79.2692 44.0013 79.4466 44.104 79.6332 44.104C79.8386 44.104 80.0346 43.964 80.2212 43.684C80.2959 43.5533 80.3612 43.4413 80.4172 43.348C80.4732 43.236 80.5199 43.1427 80.5572 43.068C80.7626 42.7133 81.0052 42.536 81.2852 42.536C81.3226 42.536 81.3972 42.5547 81.5092 42.592C81.6586 42.6667 81.7799 42.7787 81.8732 42.928C81.9666 43.0587 82.0132 43.208 82.0132 43.376C82.0132 43.488 81.9852 43.6 81.9292 43.712C81.9106 43.768 81.8919 43.824 81.8732 43.88C81.8546 43.9173 81.8359 43.9547 81.8172 43.992C81.6119 44.6453 81.2852 45.1027 80.8372 45.364C80.4079 45.6253 79.8666 45.756 79.2132 45.756ZM88.2139 68.632C88.0273 68.632 87.9153 68.548 87.8779 68.38V68.212L88.5499 67.372C88.7926 67.036 88.9513 66.728 89.0259 66.448C89.0446 66.392 89.0539 66.308 89.0539 66.196C89.0539 66.084 89.0446 66 89.0259 65.944C88.7273 65.944 88.4939 65.86 88.3259 65.692C88.1766 65.5053 88.0739 65.2253 88.0179 64.852C87.9619 64.516 88.0553 64.264 88.2979 64.096C88.5593 63.9093 88.8859 63.816 89.2779 63.816C89.8566 63.816 90.2019 64.124 90.3139 64.74C90.3886 65.2067 90.2579 65.8227 89.9219 66.588C89.5859 67.3533 89.1566 67.9787 88.6339 68.464C88.5219 68.5573 88.4099 68.6133 88.2979 68.632H88.2139ZM99.6333 66.056C99.5587 66.0373 99.4373 66.0187 99.2693 66C99.1013 65.9813 98.9613 65.9347 98.8493 65.86C98.5693 65.6733 98.4573 65.356 98.5133 64.908L98.5413 64.292C98.616 63.284 98.6533 62.528 98.6533 62.024C98.6533 59.0933 98.6253 56.144 98.5693 53.176C98.5693 51.6453 98.5227 50.0213 98.4293 48.304C98.4107 48.0053 98.476 47.7533 98.6253 47.548C98.7933 47.3427 98.9987 47.24 99.2413 47.24C99.4653 47.24 99.6893 47.3427 99.9133 47.548C100.156 47.7533 100.268 47.996 100.249 48.276C100.119 48.836 100.053 49.956 100.053 51.636V53.876C100.053 54.2867 100.072 54.94 100.109 55.836C100.165 55.7613 100.343 55.416 100.641 54.8C100.679 54.7253 100.744 54.6133 100.837 54.464C100.931 54.296 100.996 54.128 101.033 53.96C101.649 52.0933 102.153 50.656 102.545 49.648C102.713 49.1067 102.937 48.6493 103.217 48.276C103.497 47.884 103.88 47.6133 104.365 47.464C104.533 47.408 104.757 47.4267 105.037 47.52C105.336 47.6133 105.532 47.7253 105.625 47.856C105.737 47.9867 105.793 48.1453 105.793 48.332C105.793 48.5187 105.728 48.6867 105.597 48.836C105.485 48.9853 105.336 49.0787 105.149 49.116C104.683 49.1907 104.319 49.3587 104.057 49.62C103.796 49.8813 103.6 50.1613 103.469 50.46C103.357 50.74 103.217 51.1693 103.049 51.748L101.929 54.492C101.873 54.6227 101.789 54.8467 101.677 55.164C101.584 55.4813 101.491 55.724 101.397 55.892C101.36 55.948 101.304 56.004 101.229 56.06C101.155 56.116 101.089 56.172 101.033 56.228C101.164 56.1347 101.332 56.1627 101.537 56.312C101.761 56.4613 101.985 56.6667 102.209 56.928C102.359 57.2267 102.461 57.5533 102.517 57.908C102.592 58.2627 102.639 58.468 102.657 58.524C102.695 58.8227 102.732 59.0467 102.769 59.196C102.993 59.7933 103.152 60.344 103.245 60.848C103.339 61.3333 103.404 61.912 103.441 62.584C103.497 63.256 103.684 63.844 104.001 64.348C104.095 64.3667 104.197 64.3853 104.309 64.404C104.44 64.4227 104.58 64.4413 104.729 64.46C105.028 64.4787 105.224 64.6653 105.317 65.02C105.336 65.0573 105.345 65.1227 105.345 65.216C105.345 65.4213 105.252 65.6173 105.065 65.804C104.785 66.084 104.431 66.224 104.001 66.224C103.684 66.224 103.376 66.14 103.077 65.972C102.797 65.804 102.592 65.58 102.461 65.3C102.349 65.1133 102.256 64.8613 102.181 64.544C102.051 63.7413 101.939 62.9293 101.845 62.108C101.771 60.9693 101.687 60.1107 101.593 59.532C101.519 58.9347 101.341 58.3653 101.061 57.824C100.987 57.6933 100.912 57.6 100.837 57.544C100.763 57.4693 100.66 57.432 100.529 57.432C100.417 57.432 100.277 57.46 100.109 57.516C100.072 58.86 100.053 60.1667 100.053 61.436C100.053 62.2387 100.091 63.4613 100.165 65.104C100.184 65.3093 100.147 65.4773 100.053 65.608C99.9787 65.72 99.8387 65.8693 99.6333 66.056ZM113.708 66.252C113.279 66.252 112.962 66.1867 112.756 66.056C112.551 65.9253 112.448 65.6827 112.448 65.328C112.448 64.768 112.355 63.816 112.168 62.472L112.056 61.884L109.284 61.464C109.172 61.8933 109.014 62.7613 108.808 64.068C108.696 64.9827 108.519 65.5893 108.276 65.888C108.146 66.056 107.959 66.14 107.716 66.14C107.492 66.14 107.287 66.0747 107.1 65.944C106.914 65.7947 106.82 65.6173 106.82 65.412L106.876 65.272L106.904 65.16C108.136 60.3627 109.07 55.6307 109.704 50.964C109.704 50.8893 109.714 50.768 109.732 50.6C109.751 50.4133 109.77 50.152 109.788 49.816C109.844 49.1253 109.9 48.5747 109.956 48.164C110.031 47.7533 110.143 47.4453 110.292 47.24H111.244C111.506 47.24 111.73 47.3053 111.916 47.436C112.103 47.548 112.196 47.716 112.196 47.94C112.196 49.3587 112.392 51.468 112.784 54.268C113.158 57.1427 113.344 59.1587 113.344 60.316C113.344 60.428 113.391 60.7173 113.484 61.184C113.578 61.6133 113.624 61.8933 113.624 62.024C113.624 62.1547 113.718 62.7147 113.904 63.704C114.072 64.6 114.156 65.1787 114.156 65.44V65.468C114.156 65.8787 114.007 66.14 113.708 66.252ZM111.86 60.876C111.804 60.596 111.776 60.2507 111.776 59.84C111.776 58.16 111.627 56.0133 111.328 53.4L111.048 50.488C110.246 54.8747 109.695 58.188 109.396 60.428C109.676 60.6147 110.498 60.764 111.86 60.876ZM121.824 65.916C121.749 65.972 121.618 66 121.432 66C121.282 66 121.124 65.9813 120.956 65.944C120.806 65.9067 120.694 65.8507 120.62 65.776C120.526 65.6453 120.461 65.4493 120.424 65.188C120.405 64.908 120.396 64.516 120.396 64.012L120.312 60.064C120.293 59.6347 120.265 58.972 120.228 58.076C120.209 57.18 120.209 56.6947 120.228 56.62L119.472 58.16C119.173 58.72 118.772 59 118.268 59C117.969 59 117.661 58.9067 117.344 58.72C116.466 58.1973 116.009 57.376 115.972 56.256V55.024C115.972 53.9973 115.99 52.7933 116.028 51.412L116.112 49.34C116.112 49.2467 116.112 49.0787 116.112 48.836C116.13 48.5933 116.168 48.3787 116.224 48.192C116.28 48.0053 116.373 47.8467 116.504 47.716C116.653 47.5667 116.84 47.492 117.064 47.492C117.194 47.492 117.316 47.52 117.428 47.576C117.764 47.744 117.932 48.0987 117.932 48.64C117.932 48.8267 117.913 49.0133 117.876 49.2C117.857 49.3867 117.848 49.5547 117.848 49.704L117.792 50.544C117.754 51.328 117.717 51.8973 117.68 52.252L117.596 53.316C117.502 54.4733 117.456 55.22 117.456 55.556C117.456 55.9853 117.484 56.368 117.54 56.704C117.558 56.9653 117.624 57.2267 117.736 57.488C117.866 57.7307 118.016 57.852 118.184 57.852C118.314 57.852 118.464 57.7587 118.632 57.572C118.986 57.1053 119.238 56.6853 119.388 56.312C119.612 55.7333 119.808 55.0987 119.976 54.408C120.144 53.6987 120.228 53.0827 120.228 52.56C120.265 51.4587 120.321 50.348 120.396 49.228C120.396 49.004 120.414 48.6493 120.452 48.164C120.452 48.108 120.452 48.024 120.452 47.912C120.47 47.8 120.498 47.716 120.536 47.66C120.704 47.4547 120.844 47.3427 120.956 47.324C121.254 47.2493 121.534 47.3333 121.796 47.576C122.057 47.8187 122.178 48.0893 122.16 48.388L122.076 49.62C122.001 50.7027 121.917 51.5147 121.824 52.056C121.712 52.616 121.618 53.652 121.544 55.164L121.46 56.676C121.441 56.8253 121.432 57.0493 121.432 57.348C121.432 57.796 121.469 58.4493 121.544 59.308C121.581 59.6253 121.618 60.064 121.656 60.624C121.693 61.24 121.786 62.164 121.936 63.396C121.973 63.732 122.048 64.236 122.16 64.908C122.216 65.356 122.104 65.692 121.824 65.916ZM131.072 66.252C130.642 66.252 130.325 66.1867 130.12 66.056C129.914 65.9253 129.812 65.6827 129.812 65.328C129.812 64.768 129.718 63.816 129.532 62.472L129.42 61.884L126.648 61.464C126.536 61.8933 126.377 62.7613 126.172 64.068C126.06 64.9827 125.882 65.5893 125.64 65.888C125.509 66.056 125.322 66.14 125.08 66.14C124.856 66.14 124.65 66.0747 124.464 65.944C124.277 65.7947 124.184 65.6173 124.184 65.412L124.24 65.272L124.268 65.16C125.5 60.3627 126.433 55.6307 127.068 50.964C127.068 50.8893 127.077 50.768 127.096 50.6C127.114 50.4133 127.133 50.152 127.152 49.816C127.208 49.1253 127.264 48.5747 127.32 48.164C127.394 47.7533 127.506 47.4453 127.656 47.24H128.608C128.869 47.24 129.093 47.3053 129.28 47.436C129.466 47.548 129.56 47.716 129.56 47.94C129.56 49.3587 129.756 51.468 130.148 54.268C130.521 57.1427 130.708 59.1587 130.708 60.316C130.708 60.428 130.754 60.7173 130.848 61.184C130.941 61.6133 130.988 61.8933 130.988 62.024C130.988 62.1547 131.081 62.7147 131.268 63.704C131.436 64.6 131.52 65.1787 131.52 65.44V65.468C131.52 65.8787 131.37 66.14 131.072 66.252ZM129.224 60.876C129.168 60.596 129.14 60.2507 129.14 59.84C129.14 58.16 128.99 56.0133 128.692 53.4L128.412 50.488C127.609 54.8747 127.058 58.188 126.76 60.428C127.04 60.6147 127.861 60.764 129.224 60.876ZM134.819 65.944C134.576 65.8693 134.446 65.7107 134.427 65.468V65.048C134.39 64.264 134.352 63.088 134.315 61.52C134.24 60.1573 134.194 59.112 134.175 58.384C134.119 57.2453 134.054 55.5373 133.979 53.26C133.96 52.868 133.942 52.3267 133.923 51.636C133.904 50.9453 133.895 50.4227 133.895 50.068C133.876 49.8627 133.867 49.5733 133.867 49.2C133.867 48.7707 133.886 48.4533 133.923 48.248C133.998 47.6693 134.315 47.3987 134.875 47.436C135.398 47.436 135.678 47.7347 135.715 48.332V48.668L135.687 55.724V59.056L135.687 60.736C135.687 60.9973 135.706 61.3053 135.743 61.66C135.78 61.996 135.808 62.2387 135.827 62.388C135.92 61.8467 136.07 61.296 136.275 60.736C136.499 60.1573 136.639 59.8027 136.695 59.672C136.975 59 137.18 58.4493 137.311 58.02C137.759 56.5827 138.338 54.8187 139.047 52.728C139.196 52.2987 139.364 51.776 139.551 51.16C140.055 49.5733 140.4 48.5467 140.587 48.08C140.755 47.632 141.007 47.352 141.343 47.24C141.511 47.184 141.679 47.156 141.847 47.156C142.108 47.156 142.379 47.24 142.659 47.408V48.752C142.659 50.152 142.687 51.5987 142.743 53.092C142.762 53.4093 142.771 53.8853 142.771 54.52V55.332C142.771 55.5 142.762 55.724 142.743 56.004C142.743 56.284 142.752 56.6107 142.771 56.984L142.855 64.544C142.855 64.824 142.79 65.132 142.659 65.468C142.603 65.6173 142.51 65.7387 142.379 65.832C142.248 65.9067 142.108 65.944 141.959 65.944C141.436 65.944 141.175 65.7013 141.175 65.216C141.175 64.656 141.203 64.1147 141.259 63.592C141.296 62.8827 141.315 62.3413 141.315 61.968C141.278 58.272 141.231 55.5093 141.175 53.68C141.175 53.4 141.138 52.9427 141.063 52.308L140.979 51.3C140.811 51.4867 140.718 51.608 140.699 51.664L140.251 53.036C139.952 54.0067 139.719 54.7253 139.551 55.192L137.115 61.968L135.855 65.412C135.706 65.804 135.482 66 135.183 66C135.127 66 135.006 65.9813 134.819 65.944ZM137.647 45.756C137.199 45.756 136.77 45.5787 136.359 45.224C135.967 44.8693 135.771 44.4773 135.771 44.048C135.771 43.8613 135.827 43.712 135.939 43.6C136.051 43.488 136.21 43.4227 136.415 43.404C136.658 43.3853 136.863 43.404 137.031 43.46C137.218 43.4973 137.386 43.6093 137.535 43.796C137.703 44.0013 137.88 44.104 138.067 44.104C138.272 44.104 138.468 43.964 138.655 43.684C138.73 43.5533 138.795 43.4413 138.851 43.348C138.907 43.236 138.954 43.1427 138.991 43.068C139.196 42.7133 139.439 42.536 139.719 42.536C139.756 42.536 139.831 42.5547 139.943 42.592C140.092 42.6667 140.214 42.7787 140.307 42.928C140.4 43.0587 140.447 43.208 140.447 43.376C140.447 43.488 140.419 43.6 140.363 43.712C140.344 43.768 140.326 43.824 140.307 43.88C140.288 43.9173 140.27 43.9547 140.251 43.992C140.046 44.6453 139.719 45.1027 139.271 45.364C138.842 45.6253 138.3 45.756 137.647 45.756ZM147.6 61.828C147.413 61.828 147.236 61.5947 147.068 61.128C146.9 60.6427 146.816 59.924 146.816 58.972C146.816 58.636 146.834 58.0013 146.872 57.068C146.909 56.3773 146.928 55.612 146.928 54.772L146.872 50.18L146.816 45.588C146.816 45.2893 146.937 45.0373 147.18 44.832C147.422 44.608 147.693 44.496 147.992 44.496C148.178 44.496 148.337 44.5613 148.468 44.692C148.598 44.8227 148.664 44.9907 148.664 45.196C148.664 46.8387 148.57 49.0693 148.384 51.888C148.178 55.0053 148.076 57.236 148.076 58.58C148.076 59.5693 148.057 60.288 148.02 60.736C148.001 61.1653 147.954 61.4547 147.88 61.604C147.824 61.7533 147.73 61.828 147.6 61.828ZM147.096 66.616C146.872 66.616 146.657 66.5133 146.452 66.308C146.265 66.1027 146.172 65.8507 146.172 65.552C146.172 65.216 146.284 64.9267 146.508 64.684C146.732 64.4227 147.002 64.292 147.32 64.292C147.656 64.292 147.926 64.4227 148.132 64.684C148.356 64.9267 148.468 65.244 148.468 65.636C148.468 66.2893 148.01 66.616 147.096 66.616Z" fill="#292D32"/>
<defs>
<filter id="filter0_d_0_3038" x="0" y="0" width="196" height="162" filterUnits="userSpaceOnUse" color-interpolation-filters="sRGB">
<feFlood flood-opacity="0" result="BackgroundImageFix"/>
<feColorMatrix in="SourceAlpha" type="matrix" values="0 0 0 0 0 0 0 0 0 0 0 0 0 0 0 0 0 0 127 0" result="hardAlpha"/>
<feOffset dy="12"/>
<feGaussianBlur stdDeviation="10"/>
<feComposite in2="hardAlpha" operator="out"/>
<feColorMatrix type="matrix" values="0 0 0 0 0 0 0 0 0 0 0 0 0 0 0 0 0 0 0.08 0"/>
<feBlend mode="normal" in2="BackgroundImageFix" result="effect1_dropShadow_0_3038"/>
<feBlend mode="normal" in="SourceGraphic" in2="effect1_dropShadow_0_3038" result="shape"/>
</filter>
</defs>
</svg>
