<svg width="228" height="138" viewBox="0 0 228 138" fill="none" xmlns="http://www.w3.org/2000/svg">
<g filter="url(#filter0_d_0_3647)">
<path d="M42.5692 108H185.431C197.891 108 208 97.8288 208 85.2925V51.6837C208 39.1474 197.891 28.9762 185.431 28.9762H178.655C177.058 23.0095 176.735 15.0178 182.527 8C182.527 8 159.144 13.1784 153.874 28.9762H42.5692C30.1093 28.9762 20 39.1474 20 51.6837V85.2925C20 97.8288 30.1093 108 42.5692 108Z" fill="white"/>
</g>
<path d="M45.6 64.544C45.3013 64.544 45.056 64.4267 44.864 64.192C44.3093 61.888 43.552 57.7173 42.592 51.68C41.5253 45.2373 40.8747 41.408 40.64 40.192C40.7253 39.7867 41.0133 39.584 41.504 39.584C41.8667 39.584 42.3147 40.9493 42.848 43.68C43.4027 46.432 43.9467 49.5467 44.48 53.024L45.344 58.688C45.6853 56.128 45.952 54.208 46.144 52.928C46.5493 49.984 46.848 47.552 47.04 45.632C47.232 43.6907 47.328 41.856 47.328 40.128C47.648 39.7013 48.032 39.488 48.48 39.488L49.152 39.84L48.672 44.16C48.5653 45.4827 48.2987 47.8827 47.872 51.36L47.584 53.472C47.3493 55.3493 47.1147 57.12 46.88 58.784C46.56 61.1947 46.2613 62.8693 45.984 63.808C45.856 64.2987 45.728 64.544 45.6 64.544ZM58.1622 64.288C57.6716 64.288 57.3089 64.2133 57.0742 64.064C56.8396 63.9147 56.7222 63.6373 56.7222 63.232C56.7222 62.592 56.6156 61.504 56.4022 59.968L56.2742 59.296L53.1062 58.816C52.9782 59.3067 52.7969 60.2987 52.5622 61.792C52.4342 62.8373 52.2316 63.5307 51.9542 63.872C51.8049 64.064 51.5916 64.16 51.3142 64.16C51.0582 64.16 50.8236 64.0853 50.6102 63.936C50.3969 63.7653 50.2902 63.5627 50.2902 63.328L50.3542 63.168L50.3862 63.04C51.7942 57.5573 52.8609 52.1493 53.5862 46.816C53.5862 46.7307 53.5969 46.592 53.6182 46.4C53.6396 46.1867 53.6609 45.888 53.6822 45.504C53.7462 44.7147 53.8102 44.0853 53.8742 43.616C53.9596 43.1467 54.0876 42.7947 54.2582 42.56H55.3462C55.6449 42.56 55.9009 42.6347 56.1142 42.784C56.3276 42.912 56.4342 43.104 56.4342 43.36C56.4342 44.9813 56.6582 47.392 57.1062 50.592C57.5329 53.8773 57.7462 56.1813 57.7462 57.504C57.7462 57.632 57.7996 57.9627 57.9062 58.496C58.0129 58.9867 58.0662 59.3067 58.0662 59.456C58.0662 59.6053 58.1729 60.2453 58.3862 61.376C58.5782 62.4 58.6742 63.0613 58.6742 63.36V63.392C58.6742 63.8613 58.5036 64.16 58.1622 64.288ZM56.0502 58.144C55.9862 57.824 55.9542 57.4293 55.9542 56.96C55.9542 55.04 55.7836 52.5867 55.4422 49.6L55.1222 46.272C54.2049 51.2853 53.5756 55.072 53.2342 57.632C53.5542 57.8453 54.4929 58.016 56.0502 58.144ZM72.8965 64C72.1712 64 71.8085 62.24 71.8085 58.72L71.8405 56.896L71.8725 55.424V55.328V55.008C71.8938 54.8373 71.9045 54.6347 71.9045 54.4C71.9045 54.3573 71.8725 54.304 71.8085 54.24C71.7445 54.176 71.7125 54.1227 71.7125 54.08V54.048C71.6058 54.0907 71.4138 54.112 71.1365 54.112C70.8592 54.112 70.5178 54.0693 70.1125 53.984C69.9845 53.9627 69.6432 53.9093 69.0885 53.824V57.504C69.0885 58.0587 69.1205 58.9333 69.1845 60.128C69.2485 61.3013 69.2805 62.176 69.2805 62.752C69.2805 63.072 69.1952 63.3493 69.0245 63.584C68.8538 63.8187 68.6298 63.936 68.3525 63.936C67.9472 63.936 67.6592 63.5413 67.4885 62.752C67.3178 61.9413 67.2325 60.8853 67.2325 59.584L67.2965 56.992C67.3178 56.2667 67.3285 55.4987 67.3285 54.688V54.144L67.3285 53.696C67.3285 53.3547 67.3178 53.1307 67.2965 53.024V52.864L67.3925 51.008C67.3925 50.1973 67.3605 48.992 67.2965 47.392C67.2325 45.792 67.2005 44.5867 67.2005 43.776C67.2005 43.52 67.2858 43.296 67.4565 43.104C67.6272 42.912 67.8405 42.816 68.0965 42.816C68.7792 42.816 69.1205 43.456 69.1205 44.736L69.0565 48.704C69.0138 49.8987 68.9925 51.232 68.9925 52.704C69.3125 52.8107 69.8885 52.864 70.7205 52.864H71.9045C71.9472 52.736 71.9685 52.608 71.9685 52.48C71.9685 51.456 71.9045 49.9413 71.7765 47.936C71.6272 46.0587 71.5525 44.5333 71.5525 43.36C71.5525 43.1253 71.6378 42.9333 71.8085 42.784C72.0005 42.6133 72.2245 42.528 72.4805 42.528C72.6298 42.528 72.8432 42.5813 73.1205 42.688L73.4085 42.816C73.4085 45.8453 73.5152 49.888 73.7285 54.944L74.0165 63.04C74.0165 63.3387 73.8992 63.5733 73.6645 63.744C73.4512 63.9147 73.1952 64 72.8965 64ZM84.1622 64.288C83.6716 64.288 83.3089 64.2133 83.0742 64.064C82.8396 63.9147 82.7222 63.6373 82.7222 63.232C82.7222 62.592 82.6156 61.504 82.4022 59.968L82.2742 59.296L79.1062 58.816C78.9782 59.3067 78.7969 60.2987 78.5622 61.792C78.4342 62.8373 78.2316 63.5307 77.9542 63.872C77.8049 64.064 77.5916 64.16 77.3142 64.16C77.0582 64.16 76.8236 64.0853 76.6102 63.936C76.3969 63.7653 76.2902 63.5627 76.2902 63.328L76.3542 63.168L76.3862 63.04C77.7942 57.5573 78.8609 52.1493 79.5862 46.816C79.5862 46.7307 79.5969 46.592 79.6182 46.4C79.6396 46.1867 79.6609 45.888 79.6822 45.504C79.7462 44.7147 79.8102 44.0853 79.8742 43.616C79.9596 43.1467 80.0876 42.7947 80.2582 42.56H81.3462C81.6449 42.56 81.9009 42.6347 82.1142 42.784C82.3276 42.912 82.4342 43.104 82.4342 43.36C82.4342 44.9813 82.6582 47.392 83.1062 50.592C83.5329 53.8773 83.7462 56.1813 83.7462 57.504C83.7462 57.632 83.7996 57.9627 83.9062 58.496C84.0129 58.9867 84.0662 59.3067 84.0662 59.456C84.0662 59.6053 84.1729 60.2453 84.3862 61.376C84.5782 62.4 84.6742 63.0613 84.6742 63.36V63.392C84.6742 63.8613 84.5036 64.16 84.1622 64.288ZM82.0502 58.144C81.9862 57.824 81.9542 57.4293 81.9542 56.96C81.9542 55.04 81.7836 52.5867 81.4422 49.6L81.1222 46.272C80.2049 51.2853 79.5756 55.072 79.2342 57.632C79.5542 57.8453 80.4929 58.016 82.0502 58.144ZM89.2127 63.488L89.1807 62.24C89.1594 61.8773 89.1487 61.472 89.1487 61.024L89.1807 59.936C89.1167 59.7013 88.9567 57.3653 88.7007 52.928C88.4447 48.4907 88.2954 45.6427 88.2527 44.384C87.0154 44.3413 86.2261 44.2133 85.8847 44C85.6501 43.8293 85.5327 43.6373 85.5327 43.424C85.5327 43.2533 85.6394 43.104 85.8527 42.976C86.0874 42.8267 86.3221 42.752 86.5567 42.752C87.1541 42.752 87.8794 42.7947 88.7327 42.88C89.5434 42.9867 90.2687 43.04 90.9087 43.04H91.1647H91.4207C92.0821 43.04 92.4127 43.296 92.4127 43.808C92.4127 44.064 92.3061 44.2773 92.0927 44.448C91.8794 44.5973 91.6341 44.672 91.3567 44.672C91.1647 44.672 90.8874 44.64 90.5247 44.576L89.8847 44.448L89.8527 44.608L89.8207 44.768C89.8207 46.6667 90.0021 49.696 90.3647 53.856C90.7061 57.76 90.8767 60.7893 90.8767 62.944C90.8767 63.2 90.7594 63.424 90.5247 63.616C90.3114 63.808 90.0661 63.904 89.7887 63.904L89.2127 63.488ZM97.4002 63.488L97.3682 62.24C97.3469 61.8773 97.3362 61.472 97.3362 61.024L97.3682 59.936C97.3042 59.7013 97.1442 57.3653 96.8882 52.928C96.6322 48.4907 96.4829 45.6427 96.4402 44.384C95.2029 44.3413 94.4136 44.2133 94.0722 44C93.8376 43.8293 93.7202 43.6373 93.7202 43.424C93.7202 43.2533 93.8269 43.104 94.0402 42.976C94.2749 42.8267 94.5096 42.752 94.7442 42.752C95.3416 42.752 96.0669 42.7947 96.9202 42.88C97.7309 42.9867 98.4562 43.04 99.0962 43.04H99.3522H99.6082C100.27 43.04 100.6 43.296 100.6 43.808C100.6 44.064 100.494 44.2773 100.28 44.448C100.067 44.5973 99.8216 44.672 99.5442 44.672C99.3522 44.672 99.0749 44.64 98.7122 44.576L98.0722 44.448L98.0402 44.608L98.0082 44.768C98.0082 46.6667 98.1896 49.696 98.5522 53.856C98.8936 57.76 99.0642 60.7893 99.0642 62.944C99.0642 63.2 98.9469 63.424 98.7122 63.616C98.4989 63.808 98.2536 63.904 97.9762 63.904L97.4002 63.488ZM107.54 64.608C106.985 64.608 106.473 64.4267 106.004 64.064C105.534 63.7227 105.15 63.2533 104.852 62.656C104.233 61.3547 103.849 59.936 103.7 58.4C103.508 56.9493 103.412 55.552 103.412 54.208C103.412 53.952 103.422 53.7387 103.444 53.568V52.992C103.444 52.8853 103.433 52.832 103.412 52.832V52.256L103.444 50.016C103.465 49.3333 103.55 48.2453 103.7 46.752C103.806 45.728 104.052 44.736 104.436 43.776C104.585 43.3493 104.777 43.0293 105.012 42.816C105.246 42.5813 105.513 42.464 105.812 42.464C106.665 42.464 107.433 42.624 108.116 42.944C108.798 43.2427 109.374 43.6693 109.844 44.224C110.27 44.7573 110.633 45.4187 110.932 46.208C111.23 46.976 111.444 47.7973 111.572 48.672C111.7 49.568 111.764 50.5173 111.764 51.52V51.776C111.764 52.4373 111.774 53.0347 111.796 53.568L111.828 55.392C111.828 61.536 110.398 64.608 107.54 64.608ZM107.412 63.264C107.796 63.264 108.148 63.1147 108.468 62.816C108.788 62.496 109.033 62.0693 109.204 61.536C109.609 60.448 109.854 59.2747 109.94 58.016C110.046 56.928 110.1 55.9893 110.1 55.2C110.1 54.24 110.025 52.9813 109.876 51.424C109.748 49.7813 109.684 48.5547 109.684 47.744L109.684 47.168C109.641 46.3573 109.364 45.6533 108.852 45.056C108.361 44.4587 107.753 44.16 107.028 44.16C106.302 44.16 105.822 44.576 105.588 45.408C105.374 46.0693 105.268 46.9227 105.268 47.968C105.268 48.3733 105.278 48.7147 105.3 48.992V49.856L105.236 51.328C105.193 51.776 105.172 52.2667 105.172 52.8C105.172 53.952 105.204 55.0933 105.268 56.224C105.353 57.824 105.566 59.3813 105.908 60.896C106.249 62.4747 106.75 63.264 107.412 63.264ZM122.879 64.544C122.388 64.544 121.866 64.0107 121.311 62.944C120.479 61.344 119.658 58.7093 118.847 55.04C118.612 54.0373 118.42 53.1093 118.271 52.256C117.503 53.792 117.119 55.648 117.119 57.824L117.119 63.744C117.119 64.2347 116.906 64.48 116.479 64.48C116.159 64.48 115.892 64.384 115.679 64.192C115.487 64.0213 115.391 63.776 115.391 63.456L115.391 53.76C115.391 52.8213 115.498 51.0933 115.711 48.576C115.924 46.3787 116.031 44.6507 116.031 43.392C116.202 42.9867 116.511 42.784 116.959 42.784C117.236 42.784 117.471 42.88 117.663 43.072C117.855 43.264 117.951 43.4987 117.951 43.776V43.872C117.674 44.3413 117.535 46.2827 117.535 49.696V50.848L118.719 48.512C119.444 46.9973 120.127 45.696 120.767 44.608C121.364 43.5413 121.802 43.008 122.079 43.008C122.42 43.008 122.708 43.0827 122.943 43.232C123.199 43.3813 123.327 43.5947 123.327 43.872L122.559 45.152C120.959 47.7333 120.063 49.2267 119.871 49.632C119.871 49.9947 119.86 50.3147 119.839 50.592L119.807 51.552C119.807 52.4693 120.17 54.1867 120.895 56.704C121.642 59.2 122.26 60.8533 122.751 61.664L123.167 62.24C123.572 62.7947 123.775 63.2853 123.775 63.712C123.775 63.9467 123.679 64.1387 123.487 64.288C123.316 64.4587 123.114 64.544 122.879 64.544ZM128.114 63.968C126.258 63.968 125.33 63.648 125.33 63.008C125.33 62.496 125.661 62.24 126.322 62.24H126.674L126.994 62.272C127.165 62.272 127.282 62.2187 127.346 62.112C127.41 62.0053 127.442 61.8133 127.442 61.536C127.442 61.1733 127.421 60.608 127.378 59.84C127.314 59.328 127.24 58.4107 127.154 57.088C126.962 53.824 126.866 51.36 126.866 49.696C126.866 49.0987 126.877 48.5547 126.898 48.064L126.93 46.432C126.93 45.728 126.898 45.1413 126.834 44.672C126.493 44.7573 126.248 44.8 126.098 44.8C125.586 44.8 125.33 44.544 125.33 44.032C125.33 43.776 125.49 43.552 125.81 43.36C126.13 43.168 126.536 43.0293 127.026 42.944C127.88 42.7733 128.637 42.688 129.298 42.688C129.554 42.688 129.768 42.784 129.938 42.976C130.13 43.1467 130.226 43.3493 130.226 43.584C130.226 43.8187 130.152 44.0213 130.002 44.192C129.874 44.3627 129.704 44.448 129.49 44.448C129.362 44.448 129.256 44.4373 129.17 44.416H128.914C128.701 44.416 128.541 44.4693 128.434 44.576C128.349 44.6613 128.306 44.832 128.306 45.088C128.306 47.1573 128.434 50.272 128.69 54.432C128.733 55.2 128.818 56.3307 128.946 57.824C129.053 58.8053 129.106 59.808 129.106 60.832V62.048C129.234 62.0267 129.448 62.016 129.746 62.016C130.642 62.016 131.09 62.3893 131.09 63.136V63.328L130.29 63.872C130.269 63.872 130.194 63.8827 130.066 63.904C129.96 63.904 129.746 63.904 129.426 63.904C128.744 63.9467 128.306 63.968 128.114 63.968ZM48.256 96C47.9147 96 47.6587 95.936 47.488 95.808C47.3387 95.68 47.264 95.4667 47.264 95.168L47.264 90.976C46.9867 90.784 46.464 90.6133 45.696 90.464C44.928 90.3147 44.2027 90.2187 43.52 90.176C43.2853 90.624 43.1147 91.168 43.008 91.808L42.88 92.448C42.8587 92.5973 42.7947 92.928 42.688 93.44C42.5813 93.952 42.464 94.4 42.336 94.784C42.208 95.1467 42.08 95.4347 41.952 95.648C41.1413 95.648 40.672 95.4347 40.544 95.008C40.7787 94.6667 41.0453 93.664 41.344 92L42.4 86.144C42.8693 83.3707 43.296 81.0027 43.68 79.04C44.0853 77.0773 44.512 75.4347 44.96 74.112C45.4507 72.64 45.92 71.904 46.368 71.904C46.816 71.904 47.1573 71.9893 47.392 72.16C47.392 73.0133 47.5947 75.072 48 78.336C48.4267 81.536 48.64 83.7227 48.64 84.896C48.64 86.0267 48.7573 87.648 48.992 89.76C49.2053 91.9147 49.312 93.632 49.312 94.912C49.312 95.6373 48.96 96 48.256 96ZM46.592 89.12C46.7627 89.12 46.976 89.088 47.232 89.024C47.168 88.0853 47.0613 86.9227 46.912 85.536C46.4213 80.7147 46.176 77.76 46.176 76.672V76.416C45.9627 76.6293 45.664 77.6 45.28 79.328C44.9173 81.0347 44.576 82.8693 44.256 84.832C43.936 86.7947 43.7653 88.096 43.744 88.736C44.64 88.992 45.5893 89.12 46.592 89.12ZM61.8755 96.096C61.6195 96.096 61.4275 96.032 61.2995 95.904C61.1715 95.7547 61.0755 95.5093 61.0115 95.168L60.8195 94.56V94.496V94.4C60.8195 93.696 60.0835 91.296 58.6115 87.2C57.1608 83.104 56.0195 80.0747 55.1875 78.112L55.1875 94.208L55.3155 94.432C55.3368 94.4747 55.3795 94.5493 55.4435 94.656C55.5075 94.7627 55.5395 94.8693 55.5395 94.976C55.5395 95.2533 55.4435 95.488 55.2515 95.68C55.0595 95.872 54.8248 95.968 54.5475 95.968C53.8648 95.968 53.5235 95.3173 53.5235 94.016L53.4915 88.544C53.4702 86.9013 53.4595 85.0667 53.4595 83.04C53.4595 82.3573 53.4915 81.3653 53.5555 80.064C53.6195 78.72 53.6515 77.728 53.6515 77.088C53.6515 76.0853 54.0355 75.296 54.8035 74.72V74.912C54.9315 74.8693 55.0168 74.848 55.0595 74.848C55.5502 74.848 56.1688 75.7013 56.9155 77.408C57.5128 78.7733 58.0462 80.2133 58.5155 81.728C59.0062 83.2427 59.6462 85.3973 60.4355 88.192L60.7555 89.344C61.2462 91.072 61.6195 92.3093 61.8755 93.056C62.3022 88.4693 62.5155 83.0507 62.5155 76.8V76.384C62.4942 76.256 62.4835 76.1173 62.4835 75.968C62.4835 75.328 62.7395 75.008 63.2515 75.008C63.5502 75.008 63.7742 75.1253 63.9235 75.36C64.0942 75.5947 64.1795 75.8933 64.1795 76.256L64.1795 78.656C64.1368 81.9413 64.0088 85.504 63.7955 89.344C63.5822 93.184 63.3262 95.3493 63.0275 95.84C62.4088 96.0107 62.0248 96.096 61.8755 96.096ZM69.476 96.192C68.9213 96.192 68.644 94.7947 68.644 92L68.708 86.944C68.7293 85.4507 68.74 83.776 68.74 81.92C68.74 81.2373 68.676 80.1813 68.548 78.752C68.4413 77.1947 68.388 76.2453 68.388 75.904C68.388 75.6267 68.5053 75.3813 68.74 75.168C68.9747 74.9547 69.2307 74.848 69.508 74.848C70.2547 74.848 70.9693 75.0187 71.652 75.36C72.356 75.68 72.9747 76.1387 73.508 76.736C74.6387 78.0373 75.3853 79.4667 75.748 81.024C75.94 81.8133 76.036 82.592 76.036 83.36C76.036 83.6373 76.0253 83.8933 76.004 84.128L75.972 84.992L75.972 86.752C75.972 88.1173 75.9293 89.1947 75.844 89.984C75.716 91.0507 75.4707 92 75.108 92.832C74.6813 93.728 74.0627 94.528 73.252 95.232C72.868 95.552 72.3773 95.872 71.78 96.192H69.476ZM70.884 94.56C71.3107 94.56 71.7053 94.4533 72.068 94.24C72.4307 94.0053 72.74 93.696 72.996 93.312C73.2093 92.9707 73.4013 92.544 73.572 92.032C73.764 91.4987 73.9027 90.9867 73.988 90.496C74.18 89.536 74.2973 88.5547 74.34 87.552C74.3613 87.296 74.372 86.9227 74.372 86.432C74.372 79.9893 73.124 76.6293 70.628 76.352C70.4787 77.312 70.404 78.4213 70.404 79.68C70.404 81.024 70.4893 83.3707 70.66 86.72C70.8093 89.6853 70.884 92.0427 70.884 93.792V94.56ZM85.1145 96.544C84.6452 96.544 84.2185 96.032 83.8345 95.008C83.3865 93.8987 83.0558 92.7573 82.8425 91.584L82.6185 90.496C81.9998 87.4453 81.6052 85.7067 81.4345 85.28H81.0505C81.0505 85.8987 81.0398 86.464 81.0185 86.976V88.736C81.0185 91.5947 81.2212 93.824 81.6265 95.424L81.2745 96.288H80.3785L79.9625 95.808L79.9945 93.664C79.9945 91.744 79.8985 88.832 79.7065 84.928C79.5358 80.768 79.4505 77.856 79.4505 76.192C79.4505 75.168 79.8025 74.656 80.5065 74.656C81.6585 74.656 82.5972 74.9547 83.3225 75.552C84.0692 76.1493 84.4425 76.9813 84.4425 78.048V80.288C84.4425 80.608 84.3892 80.9813 84.2825 81.408C84.1758 81.8133 84.0585 82.144 83.9305 82.4L83.3225 83.552L82.8105 84.512L82.9705 85.28L83.4185 87.552C83.7172 89.1947 84.0052 90.528 84.2825 91.552C84.5598 92.576 84.9012 93.504 85.3065 94.336L85.4985 94.72C85.7118 95.1467 85.8185 95.488 85.8185 95.744C85.8185 95.9573 85.7545 96.1387 85.6265 96.288C85.4985 96.4587 85.3278 96.544 85.1145 96.544ZM81.1785 83.712C81.6478 83.4773 82.0425 82.8373 82.3625 81.792C82.7038 80.7253 82.8745 79.744 82.8745 78.848C82.8745 78.1653 82.7892 77.5253 82.6185 76.928C82.5118 76.5867 82.3305 76.3307 82.0745 76.16C81.8398 75.968 81.5412 75.872 81.1785 75.872L81.1145 76.032L81.0505 76.32L81.1145 80.096C81.1572 81.2053 81.1785 82.4107 81.1785 83.712ZM92.696 96.608C92.1413 96.608 91.6293 96.4267 91.16 96.064C90.6907 95.7227 90.3067 95.2533 90.008 94.656C89.3893 93.3547 89.0053 91.936 88.856 90.4C88.664 88.9493 88.568 87.552 88.568 86.208C88.568 85.952 88.5787 85.7387 88.6 85.568V84.992C88.6 84.8853 88.5893 84.832 88.568 84.832V84.256L88.6 82.016C88.6213 81.3333 88.7067 80.2453 88.856 78.752C88.9627 77.728 89.208 76.736 89.592 75.776C89.7413 75.3493 89.9333 75.0293 90.168 74.816C90.4027 74.5813 90.6693 74.464 90.968 74.464C91.8213 74.464 92.5893 74.624 93.272 74.944C93.9547 75.2427 94.5307 75.6693 95 76.224C95.4267 76.7573 95.7893 77.4187 96.088 78.208C96.3867 78.976 96.6 79.7973 96.728 80.672C96.856 81.568 96.92 82.5173 96.92 83.52V83.776C96.92 84.4373 96.9307 85.0347 96.952 85.568L96.984 87.392C96.984 93.536 95.5547 96.608 92.696 96.608ZM92.568 95.264C92.952 95.264 93.304 95.1147 93.624 94.816C93.944 94.496 94.1893 94.0693 94.36 93.536C94.7653 92.448 95.0107 91.2747 95.096 90.016C95.2027 88.928 95.256 87.9893 95.256 87.2C95.256 86.24 95.1813 84.9813 95.032 83.424C94.904 81.7813 94.84 80.5547 94.84 79.744V79.168C94.7973 78.3573 94.52 77.6533 94.008 77.056C93.5173 76.4587 92.9093 76.16 92.184 76.16C91.4587 76.16 90.9787 76.576 90.744 77.408C90.5307 78.0693 90.424 78.9227 90.424 79.968C90.424 80.3733 90.4347 80.7147 90.456 80.992V81.856L90.392 83.328C90.3493 83.776 90.328 84.2667 90.328 84.8C90.328 85.952 90.36 87.0933 90.424 88.224C90.5093 89.824 90.7227 91.3813 91.064 92.896C91.4053 94.4747 91.9067 95.264 92.568 95.264ZM102.083 95.968C100.227 95.968 99.2992 95.648 99.2992 95.008C99.2992 94.496 99.6299 94.24 100.291 94.24H100.643L100.963 94.272C101.134 94.272 101.251 94.2187 101.315 94.112C101.379 94.0053 101.411 93.8133 101.411 93.536C101.411 93.1733 101.39 92.608 101.347 91.84C101.283 91.328 101.209 90.4107 101.123 89.088C100.931 85.824 100.835 83.36 100.835 81.696C100.835 81.0987 100.846 80.5547 100.867 80.064L100.899 78.432C100.899 77.728 100.867 77.1413 100.803 76.672C100.462 76.7573 100.217 76.8 100.067 76.8C99.5552 76.8 99.2992 76.544 99.2992 76.032C99.2992 75.776 99.4592 75.552 99.7792 75.36C100.099 75.168 100.505 75.0293 100.995 74.944C101.849 74.7733 102.606 74.688 103.267 74.688C103.523 74.688 103.737 74.784 103.907 74.976C104.099 75.1467 104.195 75.3493 104.195 75.584C104.195 75.8187 104.121 76.0213 103.971 76.192C103.843 76.3627 103.673 76.448 103.459 76.448C103.331 76.448 103.225 76.4373 103.139 76.416H102.883C102.67 76.416 102.51 76.4693 102.403 76.576C102.318 76.6613 102.275 76.832 102.275 77.088C102.275 79.1573 102.403 82.272 102.659 86.432C102.702 87.2 102.787 88.3307 102.915 89.824C103.022 90.8053 103.075 91.808 103.075 92.832V94.048C103.203 94.0267 103.417 94.016 103.715 94.016C104.611 94.016 105.059 94.3893 105.059 95.136V95.328L104.259 95.872C104.238 95.872 104.163 95.8827 104.035 95.904C103.929 95.904 103.715 95.904 103.395 95.904C102.713 95.9467 102.275 95.968 102.083 95.968ZM108.726 96.192C108.171 96.192 107.894 94.7947 107.894 92L107.958 86.944C107.979 85.4507 107.99 83.776 107.99 81.92C107.99 81.2373 107.926 80.1813 107.798 78.752C107.691 77.1947 107.638 76.2453 107.638 75.904C107.638 75.6267 107.755 75.3813 107.99 75.168C108.225 74.9547 108.481 74.848 108.758 74.848C109.505 74.848 110.219 75.0187 110.902 75.36C111.606 75.68 112.225 76.1387 112.758 76.736C113.889 78.0373 114.635 79.4667 114.998 81.024C115.19 81.8133 115.286 82.592 115.286 83.36C115.286 83.6373 115.275 83.8933 115.254 84.128L115.222 84.992V86.752C115.222 88.1173 115.179 89.1947 115.094 89.984C114.966 91.0507 114.721 92 114.358 92.832C113.931 93.728 113.313 94.528 112.502 95.232C112.118 95.552 111.627 95.872 111.03 96.192L108.726 96.192ZM110.134 94.56C110.561 94.56 110.955 94.4533 111.318 94.24C111.681 94.0053 111.99 93.696 112.246 93.312C112.459 92.9707 112.651 92.544 112.822 92.032C113.014 91.4987 113.153 90.9867 113.238 90.496C113.43 89.536 113.547 88.5547 113.59 87.552C113.611 87.296 113.622 86.9227 113.622 86.432C113.622 79.9893 112.374 76.6293 109.878 76.352C109.729 77.312 109.654 78.4213 109.654 79.68C109.654 81.024 109.739 83.3707 109.91 86.72C110.059 89.6853 110.134 92.0427 110.134 93.792V94.56ZM122.924 96.256C122.327 96.256 121.783 96.1493 121.292 95.936C120.802 95.7013 120.386 95.4027 120.044 95.04C119.767 94.7413 119.511 94.304 119.276 93.728C119.042 93.152 118.871 92.5973 118.764 92.064C118.658 91.6587 118.572 91.072 118.508 90.304C118.444 89.536 118.402 88.8747 118.38 88.32V86.464V85.184C118.38 83.9467 118.402 82.9333 118.444 82.144C118.487 81.184 118.626 80.1707 118.86 79.104C119.052 78.144 119.383 77.3013 119.852 76.576C120.3 75.8507 120.93 75.3493 121.74 75.072C122.124 74.9227 122.572 74.848 123.084 74.848C124.002 74.848 124.46 75.1147 124.46 75.648C124.46 75.904 124.354 76.1173 124.14 76.288C123.948 76.4373 123.714 76.512 123.436 76.512C123.308 76.512 123.191 76.5013 123.084 76.48C122.999 76.4587 122.892 76.448 122.764 76.448C122.402 76.448 122.082 76.64 121.804 77.024C121.527 77.408 121.292 77.9413 121.1 78.624C120.759 79.9467 120.524 81.3867 120.396 82.944C120.311 84.3947 120.268 85.472 120.268 86.176C120.268 86.9013 120.3 87.8933 120.364 89.152C120.45 90.3253 120.631 91.3493 120.908 92.224C121.058 92.736 121.228 93.152 121.42 93.472C121.634 93.7707 121.9 94.0267 122.22 94.24C122.583 94.4747 122.956 94.592 123.34 94.592C124.364 94.592 124.876 92.8853 124.876 89.472V88C124.727 87.936 124.482 87.904 124.14 87.904H123.852H123.5C122.754 87.904 122.38 87.6587 122.38 87.168C122.38 86.8693 122.476 86.6453 122.668 86.496C122.882 86.3253 123.148 86.24 123.468 86.24V86.272H123.916C125.836 86.272 126.796 86.6027 126.796 87.264C126.796 87.456 126.743 87.84 126.636 88.416C126.508 88.928 126.444 89.312 126.444 89.568C126.444 89.9307 126.476 90.496 126.54 91.264L126.604 92.96C126.604 93.984 126.242 94.7947 125.516 95.392C124.812 95.968 123.948 96.256 122.924 96.256ZM136.131 96.288C135.64 96.288 135.278 96.2133 135.043 96.064C134.808 95.9147 134.691 95.6373 134.691 95.232C134.691 94.592 134.584 93.504 134.371 91.968L134.243 91.296L131.075 90.816C130.947 91.3067 130.766 92.2987 130.531 93.792C130.403 94.8373 130.2 95.5307 129.923 95.872C129.774 96.064 129.56 96.16 129.283 96.16C129.027 96.16 128.792 96.0853 128.579 95.936C128.366 95.7653 128.259 95.5627 128.259 95.328L128.323 95.168L128.355 95.04C129.763 89.5573 130.83 84.1493 131.555 78.816C131.555 78.7307 131.566 78.592 131.587 78.4C131.608 78.1867 131.63 77.888 131.651 77.504C131.715 76.7147 131.779 76.0853 131.843 75.616C131.928 75.1467 132.056 74.7947 132.227 74.56H133.315C133.614 74.56 133.87 74.6347 134.083 74.784C134.296 74.912 134.403 75.104 134.403 75.36C134.403 76.9813 134.627 79.392 135.075 82.592C135.502 85.8773 135.715 88.1813 135.715 89.504C135.715 89.632 135.768 89.9627 135.875 90.496C135.982 90.9867 136.035 91.3067 136.035 91.456C136.035 91.6053 136.142 92.2453 136.355 93.376C136.547 94.4 136.643 95.0613 136.643 95.36V95.392C136.643 95.8613 136.472 96.16 136.131 96.288ZM134.019 90.144C133.955 89.824 133.923 89.4293 133.923 88.96C133.923 87.04 133.752 84.5867 133.411 81.6L133.091 78.272C132.174 83.2853 131.544 87.072 131.203 89.632C131.523 89.8453 132.462 90.016 134.019 90.144ZM141.501 92.512C141.075 92.512 140.819 92.2773 140.733 91.808C140.733 90.5067 140.829 89.088 141.021 87.552C141.235 86.016 141.533 84.1493 141.917 81.952L142.077 81.024C142.376 79.168 142.525 77.6107 142.525 76.352C142.525 74.368 142.205 73.376 141.565 73.376C141.16 73.376 140.957 73.856 140.957 74.816C140.957 75.0507 141.032 75.6267 141.181 76.544C141.181 76.5653 141.128 76.6293 141.021 76.736C140.659 77.056 140.392 77.216 140.221 77.216C139.624 77.216 139.325 76.5013 139.325 75.072V74.752C139.325 74.1973 139.379 73.728 139.485 73.344C139.613 72.9387 139.837 72.5867 140.157 72.288C140.52 71.9893 140.968 71.84 141.501 71.84C141.971 71.84 142.376 71.9253 142.717 72.096C143.059 72.2667 143.336 72.5013 143.549 72.8C143.891 73.312 144.104 74.0693 144.189 75.072C144.211 75.3067 144.221 75.7227 144.221 76.32C144.221 78.1973 143.901 80.2453 143.261 82.464C142.984 83.3813 142.749 84.544 142.557 85.952C142.365 87.3387 142.269 88.7787 142.269 90.272C142.269 91.4453 142.28 92.16 142.301 92.416C141.917 92.416 141.704 92.4373 141.661 92.48C141.619 92.5013 141.565 92.512 141.501 92.512ZM141.501 96.128C141.181 96.128 140.925 96 140.733 95.744C140.499 95.5307 140.381 95.264 140.381 94.944C140.381 94.6453 140.509 94.368 140.765 94.112C141.021 93.8347 141.309 93.696 141.629 93.696C141.885 93.696 142.141 93.8347 142.397 94.112C142.653 94.3893 142.781 94.656 142.781 94.912C142.781 95.7227 142.355 96.128 141.501 96.128ZM149.457 91.232C149.244 91.232 149.041 90.9653 148.849 90.432C148.657 89.8773 148.561 89.056 148.561 87.968C148.561 87.584 148.583 86.8587 148.625 85.792C148.668 85.0027 148.689 84.128 148.689 83.168L148.625 77.92L148.561 72.672C148.561 72.3307 148.7 72.0427 148.977 71.808C149.255 71.552 149.564 71.424 149.905 71.424C150.119 71.424 150.3 71.4987 150.449 71.648C150.599 71.7973 150.673 71.9893 150.673 72.224C150.673 74.1013 150.567 76.6507 150.353 79.872C150.119 83.4347 150.001 85.984 150.001 87.52C150.001 88.6507 149.98 89.472 149.937 89.984C149.916 90.4747 149.863 90.8053 149.777 90.976C149.713 91.1467 149.607 91.232 149.457 91.232ZM148.881 96.704C148.625 96.704 148.38 96.5867 148.145 96.352C147.932 96.1173 147.825 95.8293 147.825 95.488C147.825 95.104 147.953 94.7733 148.209 94.496C148.465 94.1973 148.775 94.048 149.137 94.048C149.521 94.048 149.831 94.1973 150.065 94.496C150.321 94.7733 150.449 95.136 150.449 95.584C150.449 96.3307 149.927 96.704 148.881 96.704Z" fill="#292D32"/>
<defs>
<filter id="filter0_d_0_3647" x="0" y="0" width="228" height="140" filterUnits="userSpaceOnUse" color-interpolation-filters="sRGB">
<feFlood flood-opacity="0" result="BackgroundImageFix"/>
<feColorMatrix in="SourceAlpha" type="matrix" values="0 0 0 0 0 0 0 0 0 0 0 0 0 0 0 0 0 0 127 0" result="hardAlpha"/>
<feOffset dy="12"/>
<feGaussianBlur stdDeviation="10"/>
<feComposite in2="hardAlpha" operator="out"/>
<feColorMatrix type="matrix" values="0 0 0 0 0 0 0 0 0 0 0 0 0 0 0 0 0 0 0.08 0"/>
<feBlend mode="normal" in2="BackgroundImageFix" result="effect1_dropShadow_0_3647"/>
<feBlend mode="normal" in="SourceGraphic" in2="effect1_dropShadow_0_3647" result="shape"/>
</filter>
</defs>
</svg>
