<svg width="196" height="162" viewBox="0 0 196 162" fill="none" xmlns="http://www.w3.org/2000/svg">
<g filter="url(#filter0_d_0_3644)">
<path d="M169.735 68.4193C190.63 34.1174 155.04 7.59787 124.958 8.00462C102.882 8.30289 80.4669 7.06911 58.5401 10.1603C32.312 13.8753 19.2591 27.9485 20.0325 54.7664C20.643 75.8491 30.8195 101.474 50.3175 112.415C71.4709 124.278 95.3923 122.868 116.939 113.771C123.411 120.103 135.582 128.915 153.927 130C153.927 130 144.701 113.907 144.388 97.1217C154.578 88.8242 163.317 78.9404 169.721 68.4193H169.735Z" fill="white"/>
</g>
<path d="M57.668 56.336C57.4813 56.336 57.3133 56.2707 57.164 56.14C57.0333 56.0093 56.968 55.8507 56.968 55.664L57.024 52.948C57.08 51.7347 57.108 50.8293 57.108 50.232C57.108 49.6907 57.024 48.888 56.856 47.824C56.6693 46.7787 56.576 45.9667 56.576 45.388C56.576 44.6787 56.4733 43.8667 56.268 42.952C56.0627 42.0373 55.8013 41.16 55.484 40.32C55.1853 39.5173 54.9333 38.6587 54.728 37.744C54.5227 36.8107 54.42 35.9987 54.42 35.308C54.42 35.1773 54.4947 35.0653 54.644 34.972C54.7933 34.8787 54.952 34.832 55.12 34.832C55.3253 34.832 55.5213 35.0467 55.708 35.476C55.932 35.9613 56.1467 36.6427 56.352 37.52C56.5573 38.3973 56.6787 38.92 56.716 39.088L57.08 41.02L57.36 42.252C57.416 41.9533 57.4627 41.5613 57.5 41.076C57.612 39.5267 57.752 38.2387 57.92 37.212C58.0507 36.5027 58.2 35.9613 58.368 35.588C58.5547 35.1773 58.7787 34.972 59.04 34.972C59.544 34.972 59.796 35.0653 59.796 35.252C59.796 36.316 59.572 37.884 59.124 39.956C58.676 42.028 58.452 43.6053 58.452 44.688L58.396 45.136C58.3587 45.416 58.3493 45.584 58.368 45.64V46.088C58.368 46.8907 58.396 48.1227 58.452 49.784L58.508 53.508L58.564 54.152L58.62 54.824V55.524C58.62 55.748 58.5267 55.9347 58.34 56.084C58.1533 56.252 57.9293 56.336 57.668 56.336ZM66.1142 56.42C65.6662 56.42 65.2648 56.3173 64.9102 56.112C64.5555 55.9253 64.2662 55.6453 64.0422 55.272C63.5942 54.488 63.3048 53.6013 63.1742 52.612C63.0435 51.7533 62.9782 50.7267 62.9782 49.532C62.9222 47.516 62.8942 45.052 62.8942 42.14L62.8662 39.984C62.8475 39.872 62.8382 39.6853 62.8382 39.424C62.8008 38.7147 62.7822 38.2853 62.7822 38.136C62.9502 37.744 63.1462 37.548 63.3702 37.548C63.5942 37.548 63.7902 37.716 63.9582 38.052C64.1448 38.388 64.2382 38.752 64.2382 39.144L64.2382 46.76C64.2382 47.5067 64.3035 48.496 64.4342 49.728C64.5648 51.2587 64.6302 52.248 64.6302 52.696C64.6302 54.0773 65.2182 54.768 66.3942 54.768C67.7382 54.768 68.4102 49.7467 68.4102 39.704V38.136V37.884C68.3915 37.828 68.3822 37.7533 68.3822 37.66C68.3822 37.436 68.4288 37.2773 68.5222 37.184C68.6342 37.072 68.8395 37.016 69.1382 37.016C69.3808 37.016 69.5675 37.0907 69.6982 37.24C69.8475 37.3707 69.9408 37.5293 69.9782 37.716C69.9968 37.828 70.0062 38.0427 70.0062 38.36C70.0062 38.6587 69.9782 39.1347 69.9222 39.788C69.8475 40.3293 69.8102 40.796 69.8102 41.188C69.8102 41.6173 69.7915 42 69.7542 42.336L69.6982 43.512V43.736C69.7168 43.8107 69.7262 43.8947 69.7262 43.988C69.7262 52.276 68.5222 56.42 66.1142 56.42ZM79.8433 56.476C79.414 56.476 78.9567 56.0093 78.4713 55.076C77.7433 53.676 77.0247 51.3707 76.3153 48.16C76.11 47.2827 75.942 46.4707 75.8113 45.724C75.1393 47.068 74.8033 48.692 74.8033 50.596L74.8033 55.776C74.8033 56.2053 74.6167 56.42 74.2433 56.42C73.9633 56.42 73.73 56.336 73.5433 56.168C73.3753 56.0187 73.2913 55.804 73.2913 55.524L73.2913 47.04C73.2913 46.2187 73.3847 44.7067 73.5713 42.504C73.758 40.5813 73.8513 39.0693 73.8513 37.968C74.0007 37.6133 74.2713 37.436 74.6633 37.436C74.906 37.436 75.1113 37.52 75.2793 37.688C75.4473 37.856 75.5313 38.0613 75.5313 38.304V38.388C75.2887 38.7987 75.1673 40.4973 75.1673 43.484V44.492L76.2033 42.448C76.838 41.1227 77.4353 39.984 77.9953 39.032C78.518 38.0987 78.9007 37.632 79.1433 37.632C79.442 37.632 79.694 37.6973 79.8993 37.828C80.1233 37.9587 80.2353 38.1453 80.2353 38.388L79.5633 39.508C78.1633 41.7667 77.3793 43.0733 77.2113 43.428C77.2113 43.7453 77.202 44.0253 77.1833 44.268L77.1553 45.108C77.1553 45.9107 77.4727 47.4133 78.1073 49.616C78.7607 51.8 79.302 53.2467 79.7313 53.956L80.0953 54.46C80.45 54.9453 80.6273 55.3747 80.6273 55.748C80.6273 55.9533 80.5433 56.1213 80.3753 56.252C80.226 56.4013 80.0487 56.476 79.8433 56.476ZM87.3364 56.448C86.6644 56.224 85.8337 56.112 84.8444 56.112C84.5457 56.2987 84.2284 56.392 83.8924 56.392C83.6684 56.392 83.4724 56.2893 83.3044 56.084C83.1551 55.8973 83.0804 55.692 83.0804 55.468C83.0804 53.9 83.1457 51.8093 83.2764 49.196C83.3884 46.4147 83.4444 44.3333 83.4444 42.952V42.756C83.3324 41.58 83.2764 40.7027 83.2764 40.124C83.2764 38.3507 83.6031 37.464 84.2564 37.464C84.4431 37.464 84.6017 37.5387 84.7324 37.688C84.8817 37.8187 84.9564 37.9773 84.9564 38.164C84.9564 38.388 84.9284 38.7427 84.8724 39.228C84.8164 39.6947 84.7884 40.0493 84.7884 40.292C84.7884 41.5427 84.7977 42.672 84.8164 43.68C84.8351 44.6693 84.8444 45.7893 84.8444 47.04C84.7511 47.32 84.7044 47.712 84.7044 48.216V48.552L84.6484 50.764C84.6111 51.4173 84.5924 52.164 84.5924 53.004C84.5924 54.292 84.9004 54.936 85.5164 54.936C85.5537 54.936 85.6097 54.936 85.6844 54.936C85.7777 54.9173 85.8991 54.908 86.0484 54.908C86.2164 54.8893 86.4311 54.88 86.6924 54.88C87.7004 54.88 88.2044 55.16 88.2044 55.72C88.2044 55.9067 88.1204 56.0653 87.9524 56.196C87.7844 56.3267 87.5791 56.4107 87.3364 56.448ZM96.0326 56.252C95.6033 56.252 95.2859 56.1867 95.0806 56.056C94.8753 55.9253 94.7726 55.6827 94.7726 55.328C94.7726 54.768 94.6793 53.816 94.4926 52.472L94.3806 51.884L91.6086 51.464C91.4966 51.8933 91.3379 52.7613 91.1326 54.068C91.0206 54.9827 90.8433 55.5893 90.6006 55.888C90.4699 56.056 90.2833 56.14 90.0406 56.14C89.8166 56.14 89.6113 56.0747 89.4246 55.944C89.2379 55.7947 89.1446 55.6173 89.1446 55.412L89.2006 55.272L89.2286 55.16C90.4606 50.3627 91.3939 45.6307 92.0286 40.964C92.0286 40.8893 92.0379 40.768 92.0566 40.6C92.0753 40.4133 92.0939 40.152 92.1126 39.816C92.1686 39.1253 92.2246 38.5747 92.2806 38.164C92.3553 37.7533 92.4673 37.4453 92.6166 37.24H93.5686C93.8299 37.24 94.0539 37.3053 94.2406 37.436C94.4273 37.548 94.5206 37.716 94.5206 37.94C94.5206 39.3587 94.7166 41.468 95.1086 44.268C95.4819 47.1427 95.6686 49.1587 95.6686 50.316C95.6686 50.428 95.7153 50.7173 95.8086 51.184C95.9019 51.6133 95.9486 51.8933 95.9486 52.024C95.9486 52.1547 96.0419 52.7147 96.2286 53.704C96.3966 54.6 96.4806 55.1787 96.4806 55.44V55.468C96.4806 55.8787 96.3313 56.14 96.0326 56.252ZM94.1846 50.876C94.1286 50.596 94.1006 50.2507 94.1006 49.84C94.1006 48.16 93.9513 46.0133 93.6526 43.4L93.3726 40.488C92.5699 44.8747 92.0193 48.188 91.7206 50.428C92.0006 50.6147 92.8219 50.764 94.1846 50.876ZM106.528 56.084C106.304 56.084 106.136 56.028 106.024 55.916C105.912 55.7853 105.828 55.5707 105.772 55.272L105.604 54.74V54.684V54.6C105.604 53.984 104.96 51.884 103.672 48.3C102.402 44.716 101.404 42.0653 100.676 40.348L100.676 54.432L100.788 54.628C100.806 54.6653 100.844 54.7307 100.9 54.824C100.956 54.9173 100.984 55.0107 100.984 55.104C100.984 55.3467 100.9 55.552 100.732 55.72C100.564 55.888 100.358 55.972 100.116 55.972C99.5184 55.972 99.2198 55.4027 99.2198 54.264L99.1918 49.476C99.1731 48.0387 99.1638 46.4333 99.1638 44.66C99.1638 44.0627 99.1918 43.1947 99.2478 42.056C99.3038 40.88 99.3318 40.012 99.3318 39.452C99.3318 38.5747 99.6678 37.884 100.34 37.38V37.548C100.452 37.5107 100.526 37.492 100.564 37.492C100.993 37.492 101.534 38.2387 102.188 39.732C102.71 40.9267 103.177 42.1867 103.588 43.512C104.017 44.8373 104.577 46.7227 105.268 49.168L105.548 50.176C105.977 51.688 106.304 52.7707 106.528 53.424C106.901 49.4107 107.088 44.6693 107.088 39.2V38.836C107.069 38.724 107.06 38.6027 107.06 38.472C107.06 37.912 107.284 37.632 107.732 37.632C107.993 37.632 108.189 37.7347 108.32 37.94C108.469 38.1453 108.544 38.4067 108.544 38.724L108.544 40.824C108.506 43.6987 108.394 46.816 108.208 50.176C108.021 53.536 107.797 55.4307 107.536 55.86C106.994 56.0093 106.658 56.084 106.528 56.084ZM115.922 56.224C115.4 56.224 114.924 56.1307 114.494 55.944C114.065 55.7387 113.701 55.4773 113.402 55.16C113.16 54.8987 112.936 54.516 112.73 54.012C112.525 53.508 112.376 53.0227 112.282 52.556C112.189 52.2013 112.114 51.688 112.058 51.016C112.002 50.344 111.965 49.7653 111.946 49.28V47.656V46.536C111.946 45.4533 111.965 44.5667 112.002 43.876C112.04 43.036 112.161 42.1493 112.366 41.216C112.534 40.376 112.824 39.6387 113.234 39.004C113.626 38.3693 114.177 37.9307 114.886 37.688C115.222 37.5573 115.614 37.492 116.062 37.492C116.865 37.492 117.266 37.7253 117.266 38.192C117.266 38.416 117.173 38.6027 116.986 38.752C116.818 38.8827 116.613 38.948 116.37 38.948C116.258 38.948 116.156 38.9387 116.062 38.92C115.988 38.9013 115.894 38.892 115.782 38.892C115.465 38.892 115.185 39.06 114.942 39.396C114.7 39.732 114.494 40.1987 114.326 40.796C114.028 41.9533 113.822 43.2133 113.71 44.576C113.636 45.8453 113.598 46.788 113.598 47.404C113.598 48.0387 113.626 48.9067 113.682 50.008C113.757 51.0347 113.916 51.9307 114.158 52.696C114.289 53.144 114.438 53.508 114.606 53.788C114.793 54.0493 115.026 54.2733 115.306 54.46C115.624 54.6653 115.95 54.768 116.286 54.768C117.182 54.768 117.63 53.2747 117.63 50.288V49C117.5 48.944 117.285 48.916 116.986 48.916L116.734 48.916H116.426C115.773 48.916 115.446 48.7013 115.446 48.272C115.446 48.0107 115.53 47.8147 115.698 47.684C115.885 47.5347 116.118 47.46 116.398 47.46V47.488H116.79C118.47 47.488 119.31 47.7773 119.31 48.356C119.31 48.524 119.264 48.86 119.17 49.364C119.058 49.812 119.002 50.148 119.002 50.372C119.002 50.6893 119.03 51.184 119.086 51.856L119.142 53.34C119.142 54.236 118.825 54.9453 118.19 55.468C117.574 55.972 116.818 56.224 115.922 56.224ZM122.382 58.632C122.195 58.632 122.083 58.548 122.046 58.38V58.212L122.718 57.372C122.961 57.036 123.119 56.728 123.194 56.448C123.213 56.392 123.222 56.308 123.222 56.196C123.222 56.084 123.213 56 123.194 55.944C122.895 55.944 122.662 55.86 122.494 55.692C122.345 55.5053 122.242 55.2253 122.186 54.852C122.13 54.516 122.223 54.264 122.466 54.096C122.727 53.9093 123.054 53.816 123.446 53.816C124.025 53.816 124.37 54.124 124.482 54.74C124.557 55.2067 124.426 55.8227 124.09 56.588C123.754 57.3533 123.325 57.9787 122.802 58.464C122.69 58.5573 122.578 58.6133 122.466 58.632L122.382 58.632ZM58.004 84.392C57.6867 84.392 57.4253 84.1867 57.22 83.776C57.4253 83.384 57.528 81.7973 57.528 79.016C57.528 78.3627 57.4813 77.6533 57.388 76.888L57.304 76.076C57.248 75.572 57.22 75.1893 57.22 74.928V74.2C57.0333 73.7333 56.688 72.8653 56.184 71.596C55.6987 70.3267 55.3067 69.2627 55.008 68.404C54.6533 67.4147 54.476 66.7427 54.476 66.388V66.248L55.12 65.772C55.4373 65.8093 55.7733 66.22 56.128 67.004C56.4267 67.6947 56.7533 68.684 57.108 69.972C57.4813 71.26 57.668 71.9413 57.668 72.016C57.7427 71.8107 57.892 71.1107 58.116 69.916C58.34 68.7213 58.592 67.6667 58.872 66.752C59.1893 65.8373 59.516 65.38 59.852 65.38C60.0387 65.38 60.1973 65.436 60.328 65.548C60.4773 65.66 60.552 65.8 60.552 65.968C60.552 66.92 60.2907 68.264 59.768 70C59.208 71.8853 58.928 73.248 58.928 74.088L58.928 82.516C58.928 83.7667 58.62 84.392 58.004 84.392ZM66.6337 84.42C66.1857 84.42 65.7844 84.3173 65.4297 84.112C65.075 83.9253 64.7857 83.6453 64.5617 83.272C64.1137 82.488 63.8244 81.6013 63.6937 80.612C63.563 79.7533 63.4977 78.7267 63.4977 77.532C63.4417 75.516 63.4137 73.052 63.4137 70.14L63.3857 67.984C63.367 67.872 63.3577 67.6853 63.3577 67.424C63.3204 66.7147 63.3017 66.2853 63.3017 66.136C63.4697 65.744 63.6657 65.548 63.8897 65.548C64.1137 65.548 64.3097 65.716 64.4777 66.052C64.6644 66.388 64.7577 66.752 64.7577 67.144L64.7577 74.76C64.7577 75.5067 64.823 76.496 64.9537 77.728C65.0844 79.2587 65.1497 80.248 65.1497 80.696C65.1497 82.0773 65.7377 82.768 66.9137 82.768C68.2577 82.768 68.9297 77.7467 68.9297 67.704V66.136V65.884C68.911 65.828 68.9017 65.7533 68.9017 65.66C68.9017 65.436 68.9484 65.2773 69.0417 65.184C69.1537 65.072 69.359 65.016 69.6577 65.016C69.9004 65.016 70.087 65.0907 70.2177 65.24C70.367 65.3707 70.4604 65.5293 70.4977 65.716C70.5164 65.828 70.5257 66.0427 70.5257 66.36C70.5257 66.6587 70.4977 67.1347 70.4417 67.788C70.367 68.3293 70.3297 68.796 70.3297 69.188C70.3297 69.6173 70.311 70 70.2737 70.336L70.2177 71.512V71.736C70.2364 71.8107 70.2457 71.8947 70.2457 71.988C70.2457 80.276 69.0417 84.42 66.6337 84.42ZM80.3629 84.476C79.9335 84.476 79.4762 84.0093 78.9909 83.076C78.2629 81.676 77.5442 79.3707 76.8349 76.16C76.6295 75.2827 76.4615 74.4707 76.3309 73.724C75.6589 75.068 75.3229 76.692 75.3229 78.596L75.3229 83.776C75.3229 84.2053 75.1362 84.42 74.7629 84.42C74.4829 84.42 74.2495 84.336 74.0629 84.168C73.8949 84.0187 73.8109 83.804 73.8109 83.524L73.8109 75.04C73.8109 74.2187 73.9042 72.7067 74.0909 70.504C74.2775 68.5813 74.3709 67.0693 74.3709 65.968C74.5202 65.6133 74.7909 65.436 75.1829 65.436C75.4255 65.436 75.6309 65.52 75.7989 65.688C75.9669 65.856 76.0509 66.0613 76.0509 66.304V66.388C75.8082 66.7987 75.6869 68.4973 75.6869 71.484V72.492L76.7229 70.448C77.3575 69.1227 77.9549 67.984 78.5149 67.032C79.0375 66.0987 79.4202 65.632 79.6629 65.632C79.9615 65.632 80.2135 65.6973 80.4189 65.828C80.6429 65.9587 80.7549 66.1453 80.7549 66.388L80.0829 67.508C78.6829 69.7667 77.8989 71.0733 77.7309 71.428C77.7309 71.7453 77.7215 72.0253 77.7029 72.268L77.6749 73.108C77.6749 73.9107 77.9922 75.4133 78.6269 77.616C79.2802 79.8 79.8215 81.2467 80.2509 81.956L80.6149 82.46C80.9695 82.9453 81.1469 83.3747 81.1469 83.748C81.1469 83.9533 81.0629 84.1213 80.8949 84.252C80.7455 84.4013 80.5682 84.476 80.3629 84.476ZM87.8559 84.448C87.1839 84.224 86.3533 84.112 85.3639 84.112C85.0653 84.2987 84.7479 84.392 84.4119 84.392C84.1879 84.392 83.9919 84.2893 83.8239 84.084C83.6746 83.8973 83.5999 83.692 83.5999 83.468C83.5999 81.9 83.6653 79.8093 83.7959 77.196C83.9079 74.4147 83.9639 72.3333 83.9639 70.952V70.756C83.8519 69.58 83.7959 68.7027 83.7959 68.124C83.7959 66.3507 84.1226 65.464 84.7759 65.464C84.9626 65.464 85.1213 65.5387 85.2519 65.688C85.4013 65.8187 85.4759 65.9773 85.4759 66.164C85.4759 66.388 85.4479 66.7427 85.3919 67.228C85.3359 67.6947 85.3079 68.0493 85.3079 68.292C85.3079 69.5427 85.3173 70.672 85.3359 71.68C85.3546 72.6693 85.3639 73.7893 85.3639 75.04C85.2706 75.32 85.2239 75.712 85.2239 76.216V76.552L85.1679 78.764C85.1306 79.4173 85.1119 80.164 85.1119 81.004C85.1119 82.292 85.4199 82.936 86.0359 82.936C86.0733 82.936 86.1293 82.936 86.2039 82.936C86.2973 82.9173 86.4186 82.908 86.5679 82.908C86.7359 82.8893 86.9506 82.88 87.2119 82.88C88.2199 82.88 88.7239 83.16 88.7239 83.72C88.7239 83.9067 88.6399 84.0653 88.4719 84.196C88.3039 84.3267 88.0986 84.4107 87.8559 84.448ZM96.5521 84.252C96.1228 84.252 95.8055 84.1867 95.6001 84.056C95.3948 83.9253 95.2921 83.6827 95.2921 83.328C95.2921 82.768 95.1988 81.816 95.0121 80.472L94.9001 79.884L92.1281 79.464C92.0161 79.8933 91.8575 80.7613 91.6521 82.068C91.5401 82.9827 91.3628 83.5893 91.1201 83.888C90.9895 84.056 90.8028 84.14 90.5601 84.14C90.3361 84.14 90.1308 84.0747 89.9441 83.944C89.7575 83.7947 89.6641 83.6173 89.6641 83.412L89.7201 83.272L89.7481 83.16C90.9801 78.3627 91.9135 73.6307 92.5481 68.964C92.5481 68.8893 92.5575 68.768 92.5761 68.6C92.5948 68.4133 92.6135 68.152 92.6321 67.816C92.6881 67.1253 92.7441 66.5747 92.8001 66.164C92.8748 65.7533 92.9868 65.4453 93.1361 65.24H94.0881C94.3495 65.24 94.5735 65.3053 94.7601 65.436C94.9468 65.548 95.0401 65.716 95.0401 65.94C95.0401 67.3587 95.2361 69.468 95.6281 72.268C96.0015 75.1427 96.1881 77.1587 96.1881 78.316C96.1881 78.428 96.2348 78.7173 96.3281 79.184C96.4215 79.6133 96.4681 79.8933 96.4681 80.024C96.4681 80.1547 96.5615 80.7147 96.7481 81.704C96.9161 82.6 97.0001 83.1787 97.0001 83.44V83.468C97.0001 83.8787 96.8508 84.14 96.5521 84.252ZM94.7041 78.876C94.6481 78.596 94.6201 78.2507 94.6201 77.84C94.6201 76.16 94.4708 74.0133 94.1721 71.4L93.8921 68.488C93.0895 72.8747 92.5388 76.188 92.2401 78.428C92.5201 78.6147 93.3415 78.764 94.7041 78.876ZM107.047 84.084C106.823 84.084 106.655 84.028 106.543 83.916C106.431 83.7853 106.347 83.5707 106.291 83.272L106.123 82.74V82.684V82.6C106.123 81.984 105.479 79.884 104.191 76.3C102.922 72.716 101.923 70.0653 101.195 68.348L101.195 82.432L101.307 82.628C101.326 82.6653 101.363 82.7307 101.419 82.824C101.475 82.9173 101.503 83.0107 101.503 83.104C101.503 83.3467 101.419 83.552 101.251 83.72C101.083 83.888 100.878 83.972 100.635 83.972C100.038 83.972 99.7393 83.4027 99.7393 82.264L99.7113 77.476C99.6926 76.0387 99.6833 74.4333 99.6833 72.66C99.6833 72.0627 99.7113 71.1947 99.7673 70.056C99.8233 68.88 99.8513 68.012 99.8513 67.452C99.8513 66.5747 100.187 65.884 100.859 65.38V65.548C100.971 65.5107 101.046 65.492 101.083 65.492C101.513 65.492 102.054 66.2387 102.707 67.732C103.23 68.9267 103.697 70.1867 104.107 71.512C104.537 72.8373 105.097 74.7227 105.787 77.168L106.067 78.176C106.497 79.688 106.823 80.7707 107.047 81.424C107.421 77.4107 107.607 72.6693 107.607 67.2V66.836C107.589 66.724 107.579 66.6027 107.579 66.472C107.579 65.912 107.803 65.632 108.251 65.632C108.513 65.632 108.709 65.7347 108.839 65.94C108.989 66.1453 109.063 66.4067 109.063 66.724V68.824C109.026 71.6987 108.914 74.816 108.727 78.176C108.541 81.536 108.317 83.4307 108.055 83.86C107.514 84.0093 107.178 84.084 107.047 84.084ZM116.442 84.224C115.919 84.224 115.443 84.1307 115.014 83.944C114.584 83.7387 114.22 83.4773 113.922 83.16C113.679 82.8987 113.455 82.516 113.25 82.012C113.044 81.508 112.895 81.0227 112.802 80.556C112.708 80.2013 112.634 79.688 112.578 79.016C112.522 78.344 112.484 77.7653 112.466 77.28V75.656V74.536C112.466 73.4533 112.484 72.5667 112.522 71.876C112.559 71.036 112.68 70.1493 112.886 69.216C113.054 68.376 113.343 67.6387 113.754 67.004C114.146 66.3693 114.696 65.9307 115.406 65.688C115.742 65.5573 116.134 65.492 116.582 65.492C117.384 65.492 117.786 65.7253 117.786 66.192C117.786 66.416 117.692 66.6027 117.506 66.752C117.338 66.8827 117.132 66.948 116.89 66.948C116.778 66.948 116.675 66.9387 116.582 66.92C116.507 66.9013 116.414 66.892 116.302 66.892C115.984 66.892 115.704 67.06 115.462 67.396C115.219 67.732 115.014 68.1987 114.846 68.796C114.547 69.9533 114.342 71.2133 114.23 72.576C114.155 73.8453 114.118 74.788 114.118 75.404C114.118 76.0387 114.146 76.9067 114.202 78.008C114.276 79.0347 114.435 79.9307 114.678 80.696C114.808 81.144 114.958 81.508 115.126 81.788C115.312 82.0493 115.546 82.2733 115.826 82.46C116.143 82.6653 116.47 82.768 116.806 82.768C117.702 82.768 118.15 81.2747 118.15 78.288V77C118.019 76.944 117.804 76.916 117.506 76.916H117.254H116.946C116.292 76.916 115.966 76.7013 115.966 76.272C115.966 76.0107 116.05 75.8147 116.218 75.684C116.404 75.5347 116.638 75.46 116.918 75.46V75.488H117.31C118.99 75.488 119.83 75.7773 119.83 76.356C119.83 76.524 119.783 76.86 119.69 77.364C119.578 77.812 119.522 78.148 119.522 78.372C119.522 78.6893 119.55 79.184 119.606 79.856L119.662 81.34C119.662 82.236 119.344 82.9453 118.71 83.468C118.094 83.972 117.338 84.224 116.442 84.224ZM123.853 79.828C123.667 79.828 123.489 79.5947 123.321 79.128C123.153 78.6427 123.069 77.924 123.069 76.972C123.069 76.636 123.088 76.0013 123.125 75.068C123.163 74.3773 123.181 73.612 123.181 72.772L123.125 68.18L123.069 63.588C123.069 63.2893 123.191 63.0373 123.433 62.832C123.676 62.608 123.947 62.496 124.245 62.496C124.432 62.496 124.591 62.5613 124.721 62.692C124.852 62.8227 124.917 62.9907 124.917 63.196C124.917 64.8387 124.824 67.0693 124.637 69.888C124.432 73.0053 124.329 75.236 124.329 76.58C124.329 77.5693 124.311 78.288 124.273 78.736C124.255 79.1653 124.208 79.4547 124.133 79.604C124.077 79.7533 123.984 79.828 123.853 79.828ZM123.349 84.616C123.125 84.616 122.911 84.5133 122.705 84.308C122.519 84.1027 122.425 83.8507 122.425 83.552C122.425 83.216 122.537 82.9267 122.761 82.684C122.985 82.4227 123.256 82.292 123.573 82.292C123.909 82.292 124.18 82.4227 124.385 82.684C124.609 82.9267 124.721 83.244 124.721 83.636C124.721 84.2893 124.264 84.616 123.349 84.616Z" fill="#292D32"/>
<defs>
<filter id="filter0_d_0_3644" x="0" y="0" width="196" height="162" filterUnits="userSpaceOnUse" color-interpolation-filters="sRGB">
<feFlood flood-opacity="0" result="BackgroundImageFix"/>
<feColorMatrix in="SourceAlpha" type="matrix" values="0 0 0 0 0 0 0 0 0 0 0 0 0 0 0 0 0 0 127 0" result="hardAlpha"/>
<feOffset dy="12"/>
<feGaussianBlur stdDeviation="10"/>
<feComposite in2="hardAlpha" operator="out"/>
<feColorMatrix type="matrix" values="0 0 0 0 0 0 0 0 0 0 0 0 0 0 0 0 0 0 0.08 0"/>
<feBlend mode="normal" in2="BackgroundImageFix" result="effect1_dropShadow_0_3644"/>
<feBlend mode="normal" in="SourceGraphic" in2="effect1_dropShadow_0_3644" result="shape"/>
</filter>
</defs>
</svg>
