<svg width="269" height="56" viewBox="0 0 269 56" fill="none" xmlns="http://www.w3.org/2000/svg">
<path fill-rule="evenodd" clip-rule="evenodd" d="M33.3052 1.12611e-07H4.62418C3.39778 1.12611e-07 2.22159 0.486591 1.35439 1.35272C0.487193 2.21884 0 3.39355 0 4.61844V33.2701C0 34.495 0.487193 35.6698 1.35439 36.5359C2.22159 37.402 3.39778 37.8886 4.62418 37.8886H9.99229V14.5984C9.99229 13.3735 10.4795 12.1987 11.3467 11.3326C12.2139 10.4665 13.39 9.9799 14.6164 9.9799H37.9304V4.61844C37.9304 4.01185 37.8107 3.4112 37.5783 2.8508C37.3458 2.2904 37.0051 1.78122 36.5756 1.35234C36.1461 0.923468 35.6363 0.583292 35.0751 0.351254C34.514 0.119215 33.9125 -0.000133827 33.3052 1.12611e-07ZM46.0718 18.1125V41.3965C46.0718 42.6214 45.5846 43.7961 44.7174 44.6623C43.8502 45.5284 42.6741 46.015 41.4477 46.015H18.1348V51.3816C18.1348 52.6065 18.6219 53.7812 19.4891 54.6473C20.3563 55.5134 21.5325 56 22.7589 56H51.441C52.6674 56 53.8436 55.5134 54.7107 54.6473C55.5779 53.7812 56.0651 52.6065 56.0651 51.3816V22.7309C56.0651 21.506 55.5779 20.3313 54.7107 19.4652C53.8436 18.599 52.6674 18.1125 51.441 18.1125H46.0718ZM18.1348 37.8845H35.8139C36.0918 37.8847 36.3671 37.83 36.6239 37.7239C36.8808 37.6177 37.1141 37.462 37.3107 37.2657C37.5072 37.0694 37.6631 36.8363 37.7694 36.5798C37.8757 36.3233 37.9304 36.0484 37.9303 35.7708V18.1135H20.2511C19.9732 18.1134 19.6979 18.1679 19.4411 18.2741C19.1842 18.3803 18.9509 18.536 18.7543 18.7323C18.5578 18.9286 18.4019 19.1617 18.2956 19.4182C18.1893 19.6747 18.1346 19.9496 18.1348 20.2272V37.8845Z" fill="white"/>
<path fill-rule="evenodd" clip-rule="evenodd" d="M253.825 45.1401V34.162L268.001 10.8555H259.339L250.185 26.1999H249.328L240.175 10.8555H231.512L245.65 34.1171V45.1401H253.825ZM135.167 10.8595H106.277V45.1432H135.167V38.4508H114.409V30.8979H134.43V25.0211H114.409V17.5121H135.167V10.8595ZM90.13 17.6758H103.006V10.8598H69.1348V17.6758H81.9547V45.1415H90.13V17.6758ZM138.066 38.5294L158.211 18.3276V17.6754H138.598V10.8595H168.631V17.4703L148.322 37.672V38.3252H168.386V45.1411H138.066V38.5294ZM189.469 10.8595H171.532L171.527 45.1442H179.659V35.9584H189.469C198.622 35.9584 203.607 31.594 203.607 23.4288C203.607 15.2269 198.622 10.8595 189.469 10.8595ZM195.436 23.4268C195.436 27.2236 192.943 29.1424 188.939 29.1424H179.663V17.6724H188.939C192.944 17.6724 195.436 19.5902 195.436 23.4268ZM228.285 39.3898H211.368L209.244 45.1442H200.826L214.106 10.8636H225.552L238.872 45.1442H230.414L228.285 39.3898ZM225.997 33.2281L220.604 18.5767H219.051L213.658 33.2281H225.997Z" fill="white"/>
</svg>
